<svg width="393" height="319" viewBox="0 0 393 319" fill="none" xmlns="http://www.w3.org/2000/svg">
<g filter="url(#filter0_d_6532_47587)">
<path d="M24 12C24 7.58173 27.5817 4 32 4H361C365.418 4 369 7.58172 369 12V299C369 303.418 365.418 307 361 307H32C27.5817 307 24 303.418 24 299V12Z" fill="#1F1F1F" fill-opacity="0.88" shape-rendering="crispEdges"/>
<path d="M41.022 38V28.2H45.138C45.7447 28.2 46.2767 28.3073 46.734 28.522C47.2007 28.7273 47.56 29.026 47.812 29.418C48.0733 29.81 48.204 30.2767 48.204 30.818V30.972C48.204 31.588 48.0547 32.0827 47.756 32.456C47.4667 32.82 47.112 33.0767 46.692 33.226V33.45C47.0467 33.4687 47.3313 33.59 47.546 33.814C47.7607 34.0287 47.868 34.3413 47.868 34.752V38H46.342V34.962C46.342 34.71 46.2767 34.5093 46.146 34.36C46.0153 34.2107 45.8053 34.136 45.516 34.136H42.534V38H41.022ZM42.534 32.764H44.97C45.5113 32.764 45.9313 32.6287 46.23 32.358C46.5287 32.078 46.678 31.7 46.678 31.224V31.112C46.678 30.636 46.5287 30.2627 46.23 29.992C45.9407 29.712 45.5207 29.572 44.97 29.572H42.534V32.764ZM50.0077 38V28.2H56.1817V29.572H51.5197V32.386H55.7897V33.758H51.5197V36.628H56.2517V38H50.0077ZM61.608 38.196C60.4133 38.196 59.466 37.86 58.766 37.188C58.066 36.5067 57.716 35.5267 57.716 34.248V31.952C57.716 30.6733 58.066 29.698 58.766 29.026C59.466 28.3447 60.4133 28.004 61.608 28.004C62.784 28.004 63.6893 28.3307 64.324 28.984C64.968 29.6373 65.29 30.5287 65.29 31.658V31.742H63.792V31.616C63.792 30.9533 63.61 30.412 63.246 29.992C62.8914 29.572 62.3453 29.362 61.608 29.362C60.8613 29.362 60.278 29.5907 59.858 30.048C59.438 30.496 59.228 31.1213 59.228 31.924V34.276C59.228 35.0693 59.438 35.6947 59.858 36.152C60.278 36.6093 60.8613 36.838 61.608 36.838C62.3453 36.838 62.8914 36.628 63.246 36.208C63.61 35.7787 63.792 35.2373 63.792 34.584V34.346H65.29V34.542C65.29 35.6713 64.968 36.5627 64.324 37.216C63.6893 37.8693 62.784 38.196 61.608 38.196ZM67.1041 38V28.2H73.2781V29.572H68.6161V32.386H72.8861V33.758H68.6161V36.628H73.3481V38H67.1041ZM75.0644 38V28.2H77.9764L80.6364 36.992H80.8604V28.2H82.3584V38H79.4464L76.7864 29.194H76.5624V38H75.0644ZM86.8803 38V29.572H83.8703V28.2H91.4023V29.572H88.3923V38H86.8803ZM96.2247 38V28.2H99.0667L101.209 36.992H101.433L103.575 28.2H106.417V38H104.947V29.264H104.723L102.595 38H100.047L97.9187 29.264H97.6947V38H96.2247ZM112.283 38.196C111.079 38.196 110.122 37.86 109.413 37.188C108.704 36.5067 108.349 35.5267 108.349 34.248V31.952C108.349 30.6733 108.704 29.698 109.413 29.026C110.122 28.3447 111.079 28.004 112.283 28.004C113.487 28.004 114.444 28.3447 115.153 29.026C115.872 29.698 116.231 30.6733 116.231 31.952V34.248C116.231 35.5267 115.872 36.5067 115.153 37.188C114.444 37.86 113.487 38.196 112.283 38.196ZM112.283 36.838C113.058 36.838 113.655 36.614 114.075 36.166C114.495 35.7087 114.705 35.088 114.705 34.304V31.896C114.705 31.112 114.495 30.496 114.075 30.048C113.655 29.5907 113.058 29.362 112.283 29.362C111.527 29.362 110.934 29.5907 110.505 30.048C110.076 30.496 109.861 31.112 109.861 31.896V34.304C109.861 35.088 110.076 35.7087 110.505 36.166C110.934 36.614 111.527 36.838 112.283 36.838ZM118.161 38V28.2H121.003L123.145 36.992H123.369L125.511 28.2H128.353V38H126.883V29.264H126.659L124.531 38H121.983L119.855 29.264H119.631V38H118.161ZM130.537 38V28.2H136.711V29.572H132.049V32.386H136.319V33.758H132.049V36.628H136.781V38H130.537ZM138.498 38V28.2H141.41L144.07 36.992H144.294V28.2H145.792V38H142.88L140.22 29.194H139.996V38H138.498ZM150.313 38V29.572H147.303V28.2H154.835V29.572H151.825V38H150.313ZM160.014 38.196C159.239 38.196 158.572 38.056 158.012 37.776C157.461 37.496 157.032 37.0947 156.724 36.572C156.425 36.04 156.276 35.396 156.276 34.64V28.2H157.802V34.682C157.802 35.3727 157.993 35.9047 158.376 36.278C158.759 36.6513 159.305 36.838 160.014 36.838C160.723 36.838 161.269 36.6513 161.652 36.278C162.035 35.9047 162.226 35.3727 162.226 34.682V28.2H163.738V34.64C163.738 35.396 163.589 36.04 163.29 36.572C162.991 37.0947 162.562 37.496 162.002 37.776C161.442 38.056 160.779 38.196 160.014 38.196ZM165.851 38V28.2H168.693L170.835 36.992H171.059L173.201 28.2H176.043V38H174.573V29.264H174.349L172.221 38H169.673L167.545 29.264H167.321V38H165.851Z" fill="#C9C9C9"/>
<path d="M57.3423 133.943C57.5298 122.022 64.2062 93.9533 89.4115 77.0469" stroke="#315599" stroke-width="4" stroke-linecap="round"/>
<path d="M96.3787 71.5637C107.005 65.9366 134.94 57.9961 161.67 71.25" stroke="#4D9A71" stroke-width="4" stroke-linecap="round"/>
<path d="M171.143 76.2193C181.114 82.9406 201.281 103.839 202.185 133.66" stroke="#6CE54A" stroke-width="4" stroke-linecap="round"/>
<path d="M192.495 90.229C192.495 93.695 189.685 96.5049 186.219 96.5049C182.753 96.5049 179.943 93.695 179.943 90.229C179.943 86.7629 182.753 83.9531 186.219 83.9531C189.685 83.9531 192.495 86.7629 192.495 90.229Z" fill="black" stroke="#6CE54A" stroke-width="4"/>
<path d="M105.98 122.884C105.28 122.884 104.654 122.734 104.104 122.435C103.553 122.127 103.119 121.679 102.802 121.091C102.484 120.503 102.326 119.785 102.326 118.935V116.639C102.326 115.361 102.676 114.385 103.376 113.713C104.076 113.032 105.023 112.691 106.218 112.691C107.394 112.691 108.299 113.013 108.934 113.657C109.568 114.292 109.886 115.146 109.886 116.219V116.289H108.388V116.177C108.388 115.776 108.308 115.417 108.15 115.099C107.991 114.773 107.753 114.516 107.436 114.329C107.118 114.143 106.712 114.049 106.218 114.049C105.471 114.049 104.888 114.278 104.468 114.735C104.048 115.183 103.838 115.809 103.838 116.611V118.963C103.838 119.757 104.048 120.387 104.468 120.853C104.888 121.311 105.476 121.539 106.232 121.539C106.978 121.539 107.524 121.334 107.87 120.923C108.215 120.513 108.388 119.981 108.388 119.327V119.145H105.756V117.843H109.886V122.688H108.486V121.693H108.262C108.178 121.871 108.052 122.053 107.884 122.239C107.725 122.426 107.492 122.58 107.184 122.702C106.885 122.823 106.484 122.884 105.98 122.884ZM111.876 122.688V115.785H113.29V116.597H113.514C113.626 116.308 113.803 116.098 114.046 115.967C114.298 115.827 114.606 115.757 114.97 115.757H115.796V117.059H114.914C114.447 117.059 114.064 117.19 113.766 117.451C113.467 117.703 113.318 118.095 113.318 118.627V122.688H111.876ZM120.278 122.884C119.587 122.884 118.971 122.744 118.43 122.463C117.898 122.174 117.478 121.763 117.17 121.231C116.862 120.699 116.708 120.069 116.708 119.341V119.131C116.708 118.403 116.862 117.778 117.17 117.255C117.478 116.723 117.898 116.313 118.43 116.023C118.971 115.734 119.587 115.589 120.278 115.589C120.968 115.589 121.584 115.734 122.126 116.023C122.667 116.313 123.092 116.723 123.4 117.255C123.708 117.778 123.862 118.403 123.862 119.131V119.341C123.862 120.069 123.708 120.699 123.4 121.231C123.092 121.763 122.667 122.174 122.126 122.463C121.584 122.744 120.968 122.884 120.278 122.884ZM120.278 121.595C120.912 121.595 121.426 121.395 121.818 120.993C122.219 120.583 122.42 120.018 122.42 119.299V119.173C122.42 118.455 122.224 117.895 121.832 117.493C121.44 117.083 120.922 116.877 120.278 116.877C119.652 116.877 119.139 117.083 118.738 117.493C118.346 117.895 118.15 118.455 118.15 119.173V119.299C118.15 120.018 118.346 120.583 118.738 120.993C119.139 121.395 119.652 121.595 120.278 121.595ZM126.331 122.688L125.155 115.785H126.597L127.465 121.721H127.689L128.893 115.785H131.231L132.421 121.721H132.645L133.513 115.785H134.955L133.779 122.688H131.357L130.167 116.765H129.943L128.753 122.688H126.331ZM136.663 122.688V115.785H138.105V122.688H136.663ZM137.391 114.847C137.111 114.847 136.873 114.759 136.677 114.581C136.49 114.395 136.397 114.157 136.397 113.867C136.397 113.578 136.49 113.345 136.677 113.167C136.873 112.981 137.111 112.887 137.391 112.887C137.68 112.887 137.918 112.981 138.105 113.167C138.291 113.345 138.385 113.578 138.385 113.867C138.385 114.157 138.291 114.395 138.105 114.581C137.918 114.759 137.68 114.847 137.391 114.847ZM140.245 122.688V115.785H141.659V116.821H141.883C142.013 116.541 142.247 116.28 142.583 116.037C142.919 115.795 143.418 115.673 144.081 115.673C144.603 115.673 145.065 115.79 145.467 116.023C145.877 116.257 146.199 116.588 146.433 117.017C146.666 117.437 146.783 117.946 146.783 118.543V122.688H145.341V118.655C145.341 118.058 145.191 117.619 144.893 117.339C144.594 117.05 144.183 116.905 143.661 116.905C143.063 116.905 142.583 117.101 142.219 117.493C141.864 117.885 141.687 118.455 141.687 119.201V122.688H140.245ZM148.522 119.271V119.061C148.522 118.333 148.667 117.713 148.956 117.199C149.255 116.686 149.647 116.289 150.132 116.009C150.617 115.729 151.149 115.589 151.728 115.589C152.4 115.589 152.913 115.715 153.268 115.967C153.632 116.219 153.898 116.49 154.066 116.779H154.29V115.785H155.69V124.102C155.69 124.522 155.564 124.858 155.312 125.11C155.069 125.362 154.733 125.488 154.304 125.488H149.656V124.228H153.856C154.127 124.228 154.262 124.088 154.262 123.808V121.609H154.038C153.935 121.777 153.791 121.95 153.604 122.127C153.417 122.305 153.17 122.449 152.862 122.561C152.563 122.673 152.185 122.73 151.728 122.73C151.149 122.73 150.613 122.594 150.118 122.323C149.633 122.043 149.245 121.647 148.956 121.133C148.667 120.611 148.522 119.99 148.522 119.271ZM152.12 121.469C152.745 121.469 153.259 121.273 153.66 120.881C154.071 120.48 154.276 119.929 154.276 119.229V119.103C154.276 118.385 154.075 117.834 153.674 117.451C153.273 117.059 152.755 116.863 152.12 116.863C151.504 116.863 150.991 117.059 150.58 117.451C150.179 117.834 149.978 118.385 149.978 119.103V119.229C149.978 119.929 150.179 120.48 150.58 120.881C150.991 121.273 151.504 121.469 152.12 121.469Z" fill="white"/>
<path d="M250.25 73.916L254.333 77.9993L250.25 82.0827M245 77.9993H254.333H245Z" stroke="white" stroke-width="1.5" stroke-linecap="round" stroke-linejoin="round"/>
<path d="M265.453 64V54.2H271.487V55.264H266.629V58.54H271.095V59.604H266.629V62.936H271.557V64H265.453ZM272.824 64L275.568 60.528L272.908 57.154H274.238L276.282 59.8H276.478L278.508 57.154H279.852L277.178 60.528L279.922 64H278.578L276.478 61.27H276.282L274.182 64H272.824ZM281.683 66.8V57.154H282.761V58.288H282.957C283.134 57.9427 283.419 57.6347 283.811 57.364C284.212 57.0933 284.767 56.958 285.477 56.958C286.065 56.958 286.601 57.1027 287.087 57.392C287.581 57.672 287.973 58.0733 288.263 58.596C288.561 59.1187 288.711 59.7487 288.711 60.486V60.668C288.711 61.396 288.566 62.026 288.277 62.558C287.987 63.09 287.595 63.496 287.101 63.776C286.615 64.056 286.074 64.196 285.477 64.196C285.001 64.196 284.595 64.1307 284.259 64C283.932 63.8787 283.666 63.72 283.461 63.524C283.255 63.328 283.097 63.1273 282.985 62.922H282.789V66.8H281.683ZM285.183 63.216C285.892 63.216 286.466 62.992 286.905 62.544C287.353 62.0867 287.577 61.452 287.577 60.64V60.514C287.577 59.702 287.353 59.072 286.905 58.624C286.466 58.1667 285.892 57.938 285.183 57.938C284.483 57.938 283.904 58.1667 283.447 58.624C282.999 59.072 282.775 59.702 282.775 60.514V60.64C282.775 61.452 282.999 62.0867 283.447 62.544C283.904 62.992 284.483 63.216 285.183 63.216ZM290.693 64V54.2H291.799V64H290.693ZM297.288 64.196C296.598 64.196 295.986 64.0513 295.454 63.762C294.932 63.4727 294.521 63.0667 294.222 62.544C293.933 62.012 293.788 61.3867 293.788 60.668V60.486C293.788 59.7767 293.933 59.156 294.222 58.624C294.521 58.092 294.932 57.6813 295.454 57.392C295.986 57.1027 296.598 56.958 297.288 56.958C297.979 56.958 298.586 57.1027 299.108 57.392C299.64 57.6813 300.051 58.092 300.34 58.624C300.639 59.156 300.788 59.7767 300.788 60.486V60.668C300.788 61.3867 300.639 62.012 300.34 62.544C300.051 63.0667 299.64 63.4727 299.108 63.762C298.586 64.0513 297.979 64.196 297.288 64.196ZM297.288 63.202C298.016 63.202 298.595 62.9733 299.024 62.516C299.463 62.0493 299.682 61.424 299.682 60.64V60.514C299.682 59.73 299.463 59.1093 299.024 58.652C298.595 58.1853 298.016 57.952 297.288 57.952C296.57 57.952 295.991 58.1853 295.552 58.652C295.114 59.1093 294.894 59.73 294.894 60.514V60.64C294.894 61.424 295.114 62.0493 295.552 62.516C295.991 62.9733 296.57 63.202 297.288 63.202ZM305.537 64.196C304.687 64.196 303.969 64 303.381 63.608C302.802 63.216 302.452 62.5953 302.331 61.746L303.381 61.508C303.455 61.956 303.595 62.3107 303.801 62.572C304.006 62.824 304.258 63.006 304.557 63.118C304.865 63.2207 305.191 63.272 305.537 63.272C306.05 63.272 306.456 63.1693 306.755 62.964C307.053 62.7587 307.203 62.4833 307.203 62.138C307.203 61.7833 307.058 61.536 306.769 61.396C306.489 61.2467 306.101 61.1253 305.607 61.032L305.033 60.934C304.594 60.8593 304.193 60.7427 303.829 60.584C303.465 60.4253 303.175 60.2107 302.961 59.94C302.746 59.6693 302.639 59.3287 302.639 58.918C302.639 58.302 302.877 57.8213 303.353 57.476C303.829 57.1307 304.459 56.958 305.243 56.958C306.017 56.958 306.643 57.1353 307.119 57.49C307.604 57.8353 307.917 58.3253 308.057 58.96L307.021 59.226C306.937 58.7313 306.736 58.386 306.419 58.19C306.101 57.9847 305.709 57.882 305.243 57.882C304.776 57.882 304.407 57.9707 304.137 58.148C303.866 58.316 303.731 58.568 303.731 58.904C303.731 59.2307 303.857 59.4733 304.109 59.632C304.37 59.7813 304.715 59.8933 305.145 59.968L305.719 60.066C306.204 60.15 306.638 60.2667 307.021 60.416C307.413 60.556 307.721 60.7613 307.945 61.032C308.178 61.3027 308.295 61.6573 308.295 62.096C308.295 62.768 308.043 63.286 307.539 63.65C307.044 64.014 306.377 64.196 305.537 64.196ZM310.161 64V57.154H311.267V64H310.161ZM310.721 56.09C310.479 56.09 310.273 56.0107 310.105 55.852C309.947 55.6933 309.867 55.4927 309.867 55.25C309.867 54.998 309.947 54.7927 310.105 54.634C310.273 54.4753 310.479 54.396 310.721 54.396C310.964 54.396 311.165 54.4753 311.323 54.634C311.482 54.7927 311.561 54.998 311.561 55.25C311.561 55.4927 311.482 55.6933 311.323 55.852C311.165 56.0107 310.964 56.09 310.721 56.09ZM315.329 64L312.879 57.154H314.055L316.113 63.174H316.309L318.367 57.154H319.543L317.093 64H315.329ZM323.989 64.196C323.298 64.196 322.691 64.0513 322.169 63.762C321.646 63.4633 321.24 63.048 320.951 62.516C320.661 61.984 320.517 61.368 320.517 60.668V60.5C320.517 59.7907 320.661 59.17 320.951 58.638C321.24 58.106 321.641 57.6953 322.155 57.406C322.668 57.1073 323.256 56.958 323.919 56.958C324.563 56.958 325.132 57.098 325.627 57.378C326.121 57.6487 326.509 58.0407 326.789 58.554C327.069 59.0673 327.209 59.6693 327.209 60.36V60.864H321.623C321.651 61.6013 321.889 62.18 322.337 62.6C322.785 63.0107 323.345 63.216 324.017 63.216C324.605 63.216 325.057 63.0807 325.375 62.81C325.692 62.5393 325.935 62.2173 326.103 61.844L327.055 62.306C326.915 62.5953 326.719 62.8847 326.467 63.174C326.224 63.4633 325.902 63.706 325.501 63.902C325.109 64.098 324.605 64.196 323.989 64.196ZM321.637 59.954H326.089C326.051 59.3193 325.832 58.8247 325.431 58.47C325.039 58.1153 324.535 57.938 323.919 57.938C323.293 57.938 322.78 58.1153 322.379 58.47C321.977 58.8247 321.73 59.3193 321.637 59.954Z" fill="#C9C9C9" fill-opacity="0.6"/>
<path d="M268.757 82.196C268.057 82.196 267.432 82.0467 266.881 81.748C266.331 81.44 265.897 80.992 265.579 80.404C265.262 79.816 265.103 79.0973 265.103 78.248V75.952C265.103 74.6733 265.453 73.698 266.153 73.026C266.853 72.3447 267.801 72.004 268.995 72.004C270.171 72.004 271.077 72.326 271.711 72.97C272.346 73.6047 272.663 74.4587 272.663 75.532V75.602H271.165V75.49C271.165 75.0887 271.086 74.7293 270.927 74.412C270.769 74.0853 270.531 73.8287 270.213 73.642C269.896 73.4553 269.49 73.362 268.995 73.362C268.249 73.362 267.665 73.5907 267.245 74.048C266.825 74.496 266.615 75.1213 266.615 75.924V78.276C266.615 79.0693 266.825 79.6993 267.245 80.166C267.665 80.6233 268.253 80.852 269.009 80.852C269.756 80.852 270.302 80.6467 270.647 80.236C270.993 79.8253 271.165 79.2933 271.165 78.64V78.458H268.533V77.156H272.663V82H271.263V81.006H271.039C270.955 81.1833 270.829 81.3653 270.661 81.552C270.503 81.7387 270.269 81.8927 269.961 82.014C269.663 82.1353 269.261 82.196 268.757 82.196ZM274.653 82V75.098H276.067V75.91H276.291C276.403 75.6207 276.581 75.4107 276.823 75.28C277.075 75.14 277.383 75.07 277.747 75.07H278.573V76.372H277.691C277.225 76.372 276.842 76.5027 276.543 76.764C276.245 77.016 276.095 77.408 276.095 77.94V82H274.653ZM283.055 82.196C282.364 82.196 281.748 82.056 281.207 81.776C280.675 81.4867 280.255 81.076 279.947 80.544C279.639 80.012 279.485 79.382 279.485 78.654V78.444C279.485 77.716 279.639 77.0907 279.947 76.568C280.255 76.036 280.675 75.6253 281.207 75.336C281.748 75.0467 282.364 74.902 283.055 74.902C283.746 74.902 284.362 75.0467 284.903 75.336C285.444 75.6253 285.869 76.036 286.177 76.568C286.485 77.0907 286.639 77.716 286.639 78.444V78.654C286.639 79.382 286.485 80.012 286.177 80.544C285.869 81.076 285.444 81.4867 284.903 81.776C284.362 82.056 283.746 82.196 283.055 82.196ZM283.055 80.908C283.69 80.908 284.203 80.7073 284.595 80.306C284.996 79.8953 285.197 79.3307 285.197 78.612V78.486C285.197 77.7673 285.001 77.2073 284.609 76.806C284.217 76.3953 283.699 76.19 283.055 76.19C282.43 76.19 281.916 76.3953 281.515 76.806C281.123 77.2073 280.927 77.7673 280.927 78.486V78.612C280.927 79.3307 281.123 79.8953 281.515 80.306C281.916 80.7073 282.43 80.908 283.055 80.908ZM289.108 82L287.932 75.098H289.374L290.242 81.034H290.466L291.67 75.098H294.008L295.198 81.034H295.422L296.29 75.098H297.732L296.556 82H294.134L292.944 76.078H292.72L291.53 82H289.108ZM299.44 82V75.098H300.882V82H299.44ZM300.168 74.16C299.888 74.16 299.65 74.0713 299.454 73.894C299.268 73.7073 299.174 73.4693 299.174 73.18C299.174 72.8907 299.268 72.6573 299.454 72.48C299.65 72.2933 299.888 72.2 300.168 72.2C300.458 72.2 300.696 72.2933 300.882 72.48C301.069 72.6573 301.162 72.8907 301.162 73.18C301.162 73.4693 301.069 73.7073 300.882 73.894C300.696 74.0713 300.458 74.16 300.168 74.16ZM303.022 82V75.098H304.436V76.134H304.66C304.791 75.854 305.024 75.5927 305.36 75.35C305.696 75.1073 306.196 74.986 306.858 74.986C307.381 74.986 307.843 75.1027 308.244 75.336C308.655 75.5693 308.977 75.9007 309.21 76.33C309.444 76.75 309.56 77.2587 309.56 77.856V82H308.118V77.968C308.118 77.3707 307.969 76.932 307.67 76.652C307.372 76.3627 306.961 76.218 306.438 76.218C305.841 76.218 305.36 76.414 304.996 76.806C304.642 77.198 304.464 77.7673 304.464 78.514V82H303.022ZM311.3 78.584V78.374C311.3 77.646 311.444 77.0253 311.734 76.512C312.032 75.9987 312.424 75.602 312.91 75.322C313.395 75.042 313.927 74.902 314.506 74.902C315.178 74.902 315.691 75.028 316.046 75.28C316.41 75.532 316.676 75.8027 316.844 76.092H317.068V75.098H318.468V83.414C318.468 83.834 318.342 84.17 318.09 84.422C317.847 84.674 317.511 84.8 317.082 84.8H312.434V83.54H316.634C316.904 83.54 317.04 83.4 317.04 83.12V80.922H316.816C316.713 81.09 316.568 81.2627 316.382 81.44C316.195 81.6173 315.948 81.762 315.64 81.874C315.341 81.986 314.963 82.042 314.506 82.042C313.927 82.042 313.39 81.9067 312.896 81.636C312.41 81.356 312.023 80.9593 311.734 80.446C311.444 79.9233 311.3 79.3027 311.3 78.584ZM314.898 80.782C315.523 80.782 316.036 80.586 316.438 80.194C316.848 79.7927 317.054 79.242 317.054 78.542V78.416C317.054 77.6973 316.853 77.1467 316.452 76.764C316.05 76.372 315.532 76.176 314.898 76.176C314.282 76.176 313.768 76.372 313.358 76.764C312.956 77.1467 312.756 77.6973 312.756 78.416V78.542C312.756 79.242 312.956 79.7927 313.358 80.194C313.768 80.586 314.282 80.782 314.898 80.782Z" fill="white"/>
<path d="M268.715 100.196C268.006 100.196 267.371 100.07 266.811 99.818C266.251 99.566 265.808 99.188 265.481 98.684C265.164 98.1707 265.005 97.5313 265.005 96.766V96.472H266.167V96.766C266.167 97.578 266.405 98.1847 266.881 98.586C267.357 98.978 267.969 99.174 268.715 99.174C269.481 99.174 270.064 99.0013 270.465 98.656C270.867 98.3107 271.067 97.8767 271.067 97.354C271.067 96.99 270.974 96.7007 270.787 96.486C270.61 96.2713 270.358 96.0987 270.031 95.968C269.705 95.828 269.322 95.7067 268.883 95.604L268.155 95.422C267.586 95.2727 267.082 95.0907 266.643 94.876C266.205 94.6613 265.859 94.3813 265.607 94.036C265.365 93.6813 265.243 93.2287 265.243 92.678C265.243 92.1273 265.379 91.6513 265.649 91.25C265.929 90.8487 266.317 90.5407 266.811 90.326C267.315 90.1113 267.894 90.004 268.547 90.004C269.21 90.004 269.803 90.1207 270.325 90.354C270.857 90.578 271.273 90.914 271.571 91.362C271.879 91.8007 272.033 92.356 272.033 93.028V93.616H270.871V93.028C270.871 92.552 270.769 92.1693 270.563 91.88C270.367 91.5907 270.092 91.376 269.737 91.236C269.392 91.096 268.995 91.026 268.547 91.026C267.903 91.026 267.385 91.1707 266.993 91.46C266.601 91.74 266.405 92.1413 266.405 92.664C266.405 93.0093 266.489 93.2893 266.657 93.504C266.825 93.7187 267.063 93.896 267.371 94.036C267.679 94.1667 268.048 94.2833 268.477 94.386L269.205 94.568C269.775 94.6893 270.283 94.8573 270.731 95.072C271.189 95.2773 271.553 95.562 271.823 95.926C272.094 96.2807 272.229 96.7473 272.229 97.326C272.229 97.9047 272.085 98.4087 271.795 98.838C271.506 99.2673 271.095 99.6033 270.563 99.846C270.041 100.079 269.425 100.196 268.715 100.196ZM276.601 100C276.209 100 275.906 99.8927 275.691 99.678C275.486 99.4633 275.383 99.1693 275.383 98.796V94.12H273.325V93.154H275.383V90.718H276.489V93.154H278.729V94.12H276.489V98.628C276.489 98.908 276.625 99.048 276.895 99.048H278.421V100H276.601ZM283.411 100.196C282.72 100.196 282.113 100.051 281.591 99.762C281.068 99.4633 280.662 99.048 280.373 98.516C280.083 97.984 279.939 97.368 279.939 96.668V96.5C279.939 95.7907 280.083 95.17 280.373 94.638C280.662 94.106 281.063 93.6953 281.577 93.406C282.09 93.1073 282.678 92.958 283.341 92.958C283.985 92.958 284.554 93.098 285.049 93.378C285.543 93.6487 285.931 94.0407 286.211 94.554C286.491 95.0673 286.631 95.6693 286.631 96.36V96.864H281.045C281.073 97.6013 281.311 98.18 281.759 98.6C282.207 99.0107 282.767 99.216 283.439 99.216C284.027 99.216 284.479 99.0807 284.797 98.81C285.114 98.5393 285.357 98.2173 285.525 97.844L286.477 98.306C286.337 98.5953 286.141 98.8847 285.889 99.174C285.646 99.4633 285.324 99.706 284.923 99.902C284.531 100.098 284.027 100.196 283.411 100.196ZM281.059 95.954H285.511C285.473 95.3193 285.254 94.8247 284.853 94.47C284.461 94.1153 283.957 93.938 283.341 93.938C282.715 93.938 282.202 94.1153 281.801 94.47C281.399 94.8247 281.152 95.3193 281.059 95.954ZM290.66 100.196C290.184 100.196 289.75 100.112 289.358 99.944C288.966 99.776 288.658 99.5333 288.434 99.216C288.21 98.8987 288.098 98.5113 288.098 98.054C288.098 97.5873 288.21 97.2047 288.434 96.906C288.658 96.598 288.966 96.3693 289.358 96.22C289.75 96.0613 290.188 95.982 290.674 95.982H292.984V95.478C292.984 94.9927 292.839 94.61 292.55 94.33C292.27 94.05 291.85 93.91 291.29 93.91C290.739 93.91 290.31 94.0453 290.002 94.316C289.694 94.5773 289.484 94.932 289.372 95.38L288.336 95.044C288.448 94.6613 288.625 94.316 288.868 94.008C289.11 93.6907 289.432 93.4387 289.834 93.252C290.244 93.056 290.734 92.958 291.304 92.958C292.181 92.958 292.862 93.1867 293.348 93.644C293.833 94.092 294.076 94.7267 294.076 95.548V98.642C294.076 98.922 294.206 99.062 294.468 99.062H295.098V100H294.132C293.824 100 293.576 99.916 293.39 99.748C293.203 99.5707 293.11 99.3373 293.11 99.048V98.978H292.942C292.839 99.1553 292.699 99.342 292.522 99.538C292.354 99.7247 292.12 99.8787 291.822 100C291.523 100.131 291.136 100.196 290.66 100.196ZM290.786 99.244C291.439 99.244 291.966 99.0527 292.368 98.67C292.778 98.278 292.984 97.732 292.984 97.032V96.878H290.716C290.277 96.878 289.913 96.976 289.624 97.172C289.344 97.3587 289.204 97.6433 289.204 98.026C289.204 98.4087 289.348 98.7073 289.638 98.922C289.936 99.1367 290.319 99.244 290.786 99.244ZM299.319 100.196C298.731 100.196 298.19 100.056 297.695 99.776C297.2 99.496 296.808 99.09 296.519 98.558C296.23 98.026 296.085 97.396 296.085 96.668V96.486C296.085 95.758 296.23 95.1327 296.519 94.61C296.808 94.078 297.196 93.672 297.681 93.392C298.176 93.1027 298.722 92.958 299.319 92.958C299.795 92.958 300.196 93.0233 300.523 93.154C300.859 93.2753 301.13 93.434 301.335 93.63C301.54 93.8167 301.699 94.0173 301.811 94.232H302.007V90.2H303.113V100H302.035V98.866H301.839C301.652 99.2113 301.363 99.5193 300.971 99.79C300.579 100.061 300.028 100.196 299.319 100.196ZM299.613 99.216C300.322 99.216 300.896 98.992 301.335 98.544C301.783 98.0867 302.007 97.452 302.007 96.64V96.514C302.007 95.702 301.783 95.072 301.335 94.624C300.896 94.1667 300.322 93.938 299.613 93.938C298.913 93.938 298.334 94.1667 297.877 94.624C297.429 95.072 297.205 95.702 297.205 96.514V96.64C297.205 97.452 297.429 98.0867 297.877 98.544C298.334 98.992 298.913 99.216 299.613 99.216ZM306.257 102.8V101.82H310.177C310.448 101.82 310.583 101.68 310.583 101.4V98.908H310.387C310.294 99.104 310.149 99.3 309.953 99.496C309.766 99.6827 309.519 99.8367 309.211 99.958C308.903 100.07 308.516 100.126 308.049 100.126C307.554 100.126 307.097 100.019 306.677 99.804C306.266 99.5893 305.94 99.272 305.697 98.852C305.464 98.432 305.347 97.9187 305.347 97.312V93.154H306.453V97.228C306.453 97.9 306.621 98.39 306.957 98.698C307.302 99.006 307.764 99.16 308.343 99.16C308.996 99.16 309.533 98.9453 309.953 98.516C310.373 98.0867 310.583 97.4473 310.583 96.598V93.154H311.689V101.596C311.689 101.969 311.582 102.263 311.367 102.478C311.162 102.693 310.858 102.8 310.457 102.8H306.257Z" fill="#C9C9C9" fill-opacity="0.6"/>
<path d="M268.715 118.196C268.006 118.196 267.371 118.07 266.811 117.818C266.251 117.566 265.808 117.188 265.481 116.684C265.164 116.171 265.005 115.531 265.005 114.766V114.472H266.167V114.766C266.167 115.578 266.405 116.185 266.881 116.586C267.357 116.978 267.969 117.174 268.715 117.174C269.481 117.174 270.064 117.001 270.465 116.656C270.867 116.311 271.067 115.877 271.067 115.354C271.067 114.99 270.974 114.701 270.787 114.486C270.61 114.271 270.358 114.099 270.031 113.968C269.705 113.828 269.322 113.707 268.883 113.604L268.155 113.422C267.586 113.273 267.082 113.091 266.643 112.876C266.205 112.661 265.859 112.381 265.607 112.036C265.365 111.681 265.243 111.229 265.243 110.678C265.243 110.127 265.379 109.651 265.649 109.25C265.929 108.849 266.317 108.541 266.811 108.326C267.315 108.111 267.894 108.004 268.547 108.004C269.21 108.004 269.803 108.121 270.325 108.354C270.857 108.578 271.273 108.914 271.571 109.362C271.879 109.801 272.033 110.356 272.033 111.028V111.616H270.871V111.028C270.871 110.552 270.769 110.169 270.563 109.88C270.367 109.591 270.092 109.376 269.737 109.236C269.392 109.096 268.995 109.026 268.547 109.026C267.903 109.026 267.385 109.171 266.993 109.46C266.601 109.74 266.405 110.141 266.405 110.664C266.405 111.009 266.489 111.289 266.657 111.504C266.825 111.719 267.063 111.896 267.371 112.036C267.679 112.167 268.048 112.283 268.477 112.386L269.205 112.568C269.775 112.689 270.283 112.857 270.731 113.072C271.189 113.277 271.553 113.562 271.823 113.926C272.094 114.281 272.229 114.747 272.229 115.326C272.229 115.905 272.085 116.409 271.795 116.838C271.506 117.267 271.095 117.603 270.563 117.846C270.041 118.079 269.425 118.196 268.715 118.196ZM274.081 118V108.2H275.187V118H274.081ZM280.677 118.196C279.986 118.196 279.375 118.051 278.843 117.762C278.32 117.473 277.91 117.067 277.611 116.544C277.322 116.012 277.177 115.387 277.177 114.668V114.486C277.177 113.777 277.322 113.156 277.611 112.624C277.91 112.092 278.32 111.681 278.843 111.392C279.375 111.103 279.986 110.958 280.677 110.958C281.368 110.958 281.974 111.103 282.497 111.392C283.029 111.681 283.44 112.092 283.729 112.624C284.028 113.156 284.177 113.777 284.177 114.486V114.668C284.177 115.387 284.028 116.012 283.729 116.544C283.44 117.067 283.029 117.473 282.497 117.762C281.974 118.051 281.368 118.196 280.677 118.196ZM280.677 117.202C281.405 117.202 281.984 116.973 282.413 116.516C282.852 116.049 283.071 115.424 283.071 114.64V114.514C283.071 113.73 282.852 113.109 282.413 112.652C281.984 112.185 281.405 111.952 280.677 111.952C279.958 111.952 279.38 112.185 278.941 112.652C278.502 113.109 278.283 113.73 278.283 114.514V114.64C278.283 115.424 278.502 116.049 278.941 116.516C279.38 116.973 279.958 117.202 280.677 117.202ZM286.982 118L285.61 111.154H286.73L287.864 117.258H288.06L289.558 111.154H291.392L292.89 117.258H293.086L294.22 111.154H295.34L293.968 118H292.078L290.566 111.896H290.384L288.872 118H286.982ZM297.241 118V111.154H298.347V118H297.241ZM297.801 110.09C297.559 110.09 297.353 110.011 297.185 109.852C297.027 109.693 296.947 109.493 296.947 109.25C296.947 108.998 297.027 108.793 297.185 108.634C297.353 108.475 297.559 108.396 297.801 108.396C298.044 108.396 298.245 108.475 298.403 108.634C298.562 108.793 298.641 108.998 298.641 109.25C298.641 109.493 298.562 109.693 298.403 109.852C298.245 110.011 298.044 110.09 297.801 110.09ZM300.673 118V111.154H301.751V112.316H301.947C302.096 111.989 302.348 111.695 302.703 111.434C303.067 111.163 303.599 111.028 304.299 111.028C304.812 111.028 305.27 111.135 305.671 111.35C306.082 111.565 306.408 111.882 306.651 112.302C306.894 112.722 307.015 113.24 307.015 113.856V118H305.909V113.94C305.909 113.259 305.736 112.764 305.391 112.456C305.055 112.148 304.598 111.994 304.019 111.994C303.356 111.994 302.815 112.209 302.395 112.638C301.984 113.067 301.779 113.707 301.779 114.556V118H300.673ZM308.923 114.612V114.416C308.923 113.697 309.068 113.081 309.357 112.568C309.646 112.055 310.038 111.658 310.533 111.378C311.028 111.098 311.569 110.958 312.157 110.958C312.876 110.958 313.426 111.098 313.809 111.378C314.201 111.649 314.49 111.952 314.677 112.288H314.873V111.154H315.923V119.596C315.923 119.969 315.82 120.263 315.615 120.478C315.41 120.693 315.111 120.8 314.719 120.8H310.071V119.82H314.425C314.705 119.82 314.845 119.68 314.845 119.4V116.796H314.649C314.537 117.001 314.378 117.202 314.173 117.398C313.968 117.594 313.702 117.757 313.375 117.888C313.048 118.009 312.642 118.07 312.157 118.07C311.569 118.07 311.028 117.93 310.533 117.65C310.038 117.37 309.646 116.973 309.357 116.46C309.068 115.937 308.923 115.321 308.923 114.612ZM312.451 117.09C313.16 117.09 313.734 116.866 314.173 116.418C314.621 115.97 314.845 115.354 314.845 114.57V114.458C314.845 113.665 314.621 113.049 314.173 112.61C313.734 112.162 313.16 111.938 312.451 111.938C311.751 111.938 311.172 112.162 310.715 112.61C310.267 113.049 310.043 113.665 310.043 114.458V114.57C310.043 115.354 310.267 115.97 310.715 116.418C311.172 116.866 311.751 117.09 312.451 117.09Z" fill="#C9C9C9" fill-opacity="0.6"/>
<path d="M264.991 136V134.95H266.363V127.25H264.991V126.2H268.813C270.101 126.2 271.095 126.527 271.795 127.18C272.505 127.833 272.859 128.837 272.859 130.19V132.01C272.859 133.373 272.505 134.381 271.795 135.034C271.095 135.678 270.101 136 268.813 136H264.991ZM267.539 134.936H268.813C269.765 134.936 270.484 134.703 270.969 134.236C271.455 133.769 271.697 133.046 271.697 132.066V130.148C271.697 129.149 271.455 128.421 270.969 127.964C270.484 127.507 269.765 127.278 268.813 127.278H267.539V134.936ZM277.915 136.196C277.224 136.196 276.617 136.051 276.095 135.762C275.572 135.463 275.166 135.048 274.877 134.516C274.587 133.984 274.443 133.368 274.443 132.668V132.5C274.443 131.791 274.587 131.17 274.877 130.638C275.166 130.106 275.567 129.695 276.081 129.406C276.594 129.107 277.182 128.958 277.845 128.958C278.489 128.958 279.058 129.098 279.553 129.378C280.047 129.649 280.435 130.041 280.715 130.554C280.995 131.067 281.135 131.669 281.135 132.36V132.864H275.549C275.577 133.601 275.815 134.18 276.263 134.6C276.711 135.011 277.271 135.216 277.943 135.216C278.531 135.216 278.983 135.081 279.301 134.81C279.618 134.539 279.861 134.217 280.029 133.844L280.981 134.306C280.841 134.595 280.645 134.885 280.393 135.174C280.15 135.463 279.828 135.706 279.427 135.902C279.035 136.098 278.531 136.196 277.915 136.196ZM275.563 131.954H280.015C279.977 131.319 279.758 130.825 279.357 130.47C278.965 130.115 278.461 129.938 277.845 129.938C277.219 129.938 276.706 130.115 276.305 130.47C275.903 130.825 275.656 131.319 275.563 131.954ZM286.214 136.196C285.551 136.196 284.954 136.056 284.422 135.776C283.899 135.487 283.484 135.076 283.176 134.544C282.877 134.012 282.728 133.382 282.728 132.654V132.5C282.728 131.763 282.877 131.133 283.176 130.61C283.484 130.078 283.899 129.672 284.422 129.392C284.954 129.103 285.551 128.958 286.214 128.958C286.867 128.958 287.422 129.079 287.88 129.322C288.346 129.565 288.71 129.887 288.972 130.288C289.242 130.689 289.415 131.119 289.49 131.576L288.412 131.8C288.365 131.464 288.253 131.156 288.076 130.876C287.908 130.596 287.67 130.372 287.362 130.204C287.054 130.036 286.676 129.952 286.228 129.952C285.77 129.952 285.36 130.055 284.996 130.26C284.641 130.465 284.356 130.759 284.142 131.142C283.936 131.525 283.834 131.982 283.834 132.514V132.64C283.834 133.172 283.936 133.629 284.142 134.012C284.356 134.395 284.641 134.689 284.996 134.894C285.36 135.099 285.77 135.202 286.228 135.202C286.909 135.202 287.427 135.025 287.782 134.67C288.146 134.315 288.37 133.877 288.454 133.354L289.546 133.592C289.443 134.04 289.256 134.465 288.986 134.866C288.715 135.267 288.346 135.589 287.88 135.832C287.422 136.075 286.867 136.196 286.214 136.196ZM291.431 136V126.2H292.537V136H291.431ZM294.863 136V129.154H295.969V136H294.863ZM295.423 128.09C295.18 128.09 294.975 128.011 294.807 127.852C294.648 127.693 294.569 127.493 294.569 127.25C294.569 126.998 294.648 126.793 294.807 126.634C294.975 126.475 295.18 126.396 295.423 126.396C295.665 126.396 295.866 126.475 296.025 126.634C296.183 126.793 296.263 126.998 296.263 127.25C296.263 127.493 296.183 127.693 296.025 127.852C295.866 128.011 295.665 128.09 295.423 128.09ZM298.294 136V129.154H299.372V130.316H299.568C299.717 129.989 299.969 129.695 300.324 129.434C300.688 129.163 301.22 129.028 301.92 129.028C302.433 129.028 302.891 129.135 303.292 129.35C303.703 129.565 304.029 129.882 304.272 130.302C304.515 130.722 304.636 131.24 304.636 131.856V136H303.53V131.94C303.53 131.259 303.357 130.764 303.012 130.456C302.676 130.148 302.219 129.994 301.64 129.994C300.977 129.994 300.436 130.209 300.016 130.638C299.605 131.067 299.4 131.707 299.4 132.556V136H298.294ZM306.88 136V129.154H307.986V136H306.88ZM307.44 128.09C307.197 128.09 306.992 128.011 306.824 127.852C306.665 127.693 306.586 127.493 306.586 127.25C306.586 126.998 306.665 126.793 306.824 126.634C306.992 126.475 307.197 126.396 307.44 126.396C307.683 126.396 307.883 126.475 308.042 126.634C308.201 126.793 308.28 126.998 308.28 127.25C308.28 127.493 308.201 127.693 308.042 127.852C307.883 128.011 307.683 128.09 307.44 128.09ZM310.312 136V129.154H311.39V130.316H311.586C311.735 129.989 311.987 129.695 312.342 129.434C312.706 129.163 313.238 129.028 313.938 129.028C314.451 129.028 314.908 129.135 315.31 129.35C315.72 129.565 316.047 129.882 316.29 130.302C316.532 130.722 316.654 131.24 316.654 131.856V136H315.548V131.94C315.548 131.259 315.375 130.764 315.03 130.456C314.694 130.148 314.236 129.994 313.658 129.994C312.995 129.994 312.454 130.209 312.034 130.638C311.623 131.067 311.418 131.707 311.418 132.556V136H310.312ZM318.562 132.612V132.416C318.562 131.697 318.706 131.081 318.996 130.568C319.285 130.055 319.677 129.658 320.172 129.378C320.666 129.098 321.208 128.958 321.796 128.958C322.514 128.958 323.065 129.098 323.448 129.378C323.84 129.649 324.129 129.952 324.316 130.288H324.512V129.154H325.562V137.596C325.562 137.969 325.459 138.263 325.254 138.478C325.048 138.693 324.75 138.8 324.358 138.8H319.71V137.82H324.064C324.344 137.82 324.484 137.68 324.484 137.4V134.796H324.288C324.176 135.001 324.017 135.202 323.812 135.398C323.606 135.594 323.34 135.757 323.014 135.888C322.687 136.009 322.281 136.07 321.796 136.07C321.208 136.07 320.666 135.93 320.172 135.65C319.677 135.37 319.285 134.973 318.996 134.46C318.706 133.937 318.562 133.321 318.562 132.612ZM322.09 135.09C322.799 135.09 323.373 134.866 323.812 134.418C324.26 133.97 324.484 133.354 324.484 132.57V132.458C324.484 131.665 324.26 131.049 323.812 130.61C323.373 130.162 322.799 129.938 322.09 129.938C321.39 129.938 320.811 130.162 320.354 130.61C319.906 131.049 319.682 131.665 319.682 132.458V132.57C319.682 133.354 319.906 133.97 320.354 134.418C320.811 134.866 321.39 135.09 322.09 135.09Z" fill="#C9C9C9" fill-opacity="0.6"/>
<path d="M41.022 194V184.2H42.534V192.628H47.252V194H41.022ZM48.7772 194V184.2H50.2892V194H48.7772ZM55.8039 194.196C55.0666 194.196 54.4133 194.065 53.8439 193.804C53.2746 193.543 52.8266 193.16 52.4999 192.656C52.1826 192.143 52.0239 191.522 52.0239 190.794V190.444H53.5219V190.794C53.5219 191.485 53.7273 192.003 54.1379 192.348C54.5579 192.693 55.1133 192.866 55.8039 192.866C56.5039 192.866 57.0313 192.721 57.3859 192.432C57.7406 192.133 57.9179 191.751 57.9179 191.284C57.9179 190.976 57.8339 190.724 57.6659 190.528C57.4979 190.332 57.2599 190.178 56.9519 190.066C56.6439 189.945 56.2753 189.833 55.8459 189.73L55.3279 189.604C54.7026 189.455 54.1566 189.273 53.6899 189.058C53.2326 188.834 52.8779 188.54 52.6259 188.176C52.3739 187.812 52.2479 187.345 52.2479 186.776C52.2479 186.197 52.3879 185.703 52.6679 185.292C52.9573 184.881 53.3539 184.564 53.8579 184.34C54.3619 184.116 54.9546 184.004 55.6359 184.004C56.3173 184.004 56.9239 184.121 57.4559 184.354C57.9973 184.587 58.4219 184.933 58.7299 185.39C59.0379 185.847 59.1919 186.421 59.1919 187.112V187.616H57.6939V187.112C57.6939 186.692 57.6053 186.351 57.4279 186.09C57.2599 185.829 57.0219 185.637 56.7139 185.516C56.4059 185.395 56.0466 185.334 55.6359 185.334C55.0386 185.334 54.5719 185.46 54.2359 185.712C53.9093 185.955 53.7459 186.295 53.7459 186.734C53.7459 187.033 53.8159 187.28 53.9559 187.476C54.1053 187.663 54.3199 187.817 54.5999 187.938C54.8799 188.059 55.2299 188.167 55.6499 188.26L56.1679 188.386C56.8026 188.526 57.3626 188.708 57.8479 188.932C58.3333 189.147 58.7159 189.441 58.9959 189.814C59.2759 190.187 59.4159 190.668 59.4159 191.256C59.4159 191.844 59.2666 192.357 58.9679 192.796C58.6786 193.235 58.2633 193.58 57.7219 193.832C57.1806 194.075 56.5413 194.196 55.8039 194.196ZM63.112 194V185.572H60.102V184.2H67.634V185.572H64.624V194H63.112ZM69.1445 194V184.2H75.3185V185.572H70.6565V188.386H74.9265V189.758H70.6565V192.628H75.3885V194H69.1445ZM77.1048 194V184.2H80.0168L82.6768 192.992H82.9008V184.2H84.3988V194H81.4868L78.8268 185.194H78.6028V194H77.1048ZM86.5827 194V184.2H92.7567V185.572H88.0947V188.386H92.3647V189.758H88.0947V192.628H92.8267V194H86.5827ZM94.543 194V184.2H98.659C99.2657 184.2 99.7977 184.307 100.255 184.522C100.722 184.727 101.081 185.026 101.333 185.418C101.594 185.81 101.725 186.277 101.725 186.818V186.972C101.725 187.588 101.576 188.083 101.277 188.456C100.988 188.82 100.633 189.077 100.213 189.226V189.45C100.568 189.469 100.852 189.59 101.067 189.814C101.282 190.029 101.389 190.341 101.389 190.752V194H99.863V190.962C99.863 190.71 99.7977 190.509 99.667 190.36C99.5363 190.211 99.3263 190.136 99.037 190.136H96.055V194H94.543ZM96.055 188.764H98.491C99.0323 188.764 99.4523 188.629 99.751 188.358C100.05 188.078 100.199 187.7 100.199 187.224V187.112C100.199 186.636 100.05 186.263 99.751 185.992C99.4617 185.712 99.0417 185.572 98.491 185.572H96.055V188.764ZM106.861 194.196C106.123 194.196 105.47 194.065 104.901 193.804C104.331 193.543 103.883 193.16 103.557 192.656C103.239 192.143 103.081 191.522 103.081 190.794V190.444H104.579V190.794C104.579 191.485 104.784 192.003 105.195 192.348C105.615 192.693 106.17 192.866 106.861 192.866C107.561 192.866 108.088 192.721 108.443 192.432C108.797 192.133 108.975 191.751 108.975 191.284C108.975 190.976 108.891 190.724 108.723 190.528C108.555 190.332 108.317 190.178 108.009 190.066C107.701 189.945 107.332 189.833 106.903 189.73L106.385 189.604C105.759 189.455 105.213 189.273 104.747 189.058C104.289 188.834 103.935 188.54 103.683 188.176C103.431 187.812 103.305 187.345 103.305 186.776C103.305 186.197 103.445 185.703 103.725 185.292C104.014 184.881 104.411 184.564 104.915 184.34C105.419 184.116 106.011 184.004 106.693 184.004C107.374 184.004 107.981 184.121 108.513 184.354C109.054 184.587 109.479 184.933 109.787 185.39C110.095 185.847 110.249 186.421 110.249 187.112V187.616H108.751V187.112C108.751 186.692 108.662 186.351 108.485 186.09C108.317 185.829 108.079 185.637 107.771 185.516C107.463 185.395 107.103 185.334 106.693 185.334C106.095 185.334 105.629 185.46 105.293 185.712C104.966 185.955 104.803 186.295 104.803 186.734C104.803 187.033 104.873 187.28 105.013 187.476C105.162 187.663 105.377 187.817 105.657 187.938C105.937 188.059 106.287 188.167 106.707 188.26L107.225 188.386C107.859 188.526 108.419 188.708 108.905 188.932C109.39 189.147 109.773 189.441 110.053 189.814C110.333 190.187 110.473 190.668 110.473 191.256C110.473 191.844 110.323 192.357 110.025 192.796C109.735 193.235 109.32 193.58 108.779 193.832C108.237 194.075 107.598 194.196 106.861 194.196Z" fill="#C9C9C9"/>
<path d="M119.654 192.026V189.758H117.414V188.442H119.654V186.174H121.026V188.442H123.266V189.758H121.026V192.026H119.654ZM129.176 194.196C128.466 194.196 127.841 194.061 127.3 193.79C126.758 193.51 126.338 193.123 126.04 192.628C125.741 192.133 125.592 191.559 125.592 190.906V187.518C125.592 186.753 125.741 186.109 126.04 185.586C126.348 185.063 126.777 184.671 127.328 184.41C127.878 184.139 128.518 184.004 129.246 184.004C129.964 184.004 130.585 184.13 131.108 184.382C131.63 184.625 132.032 184.975 132.312 185.432C132.592 185.88 132.732 186.407 132.732 187.014H131.248C131.248 186.529 131.084 186.127 130.758 185.81C130.44 185.483 129.936 185.32 129.246 185.32C128.546 185.32 128.004 185.507 127.622 185.88C127.248 186.244 127.062 186.753 127.062 187.406V188.582H127.286C127.444 188.358 127.701 188.143 128.056 187.938C128.42 187.733 128.933 187.63 129.596 187.63C130.174 187.63 130.706 187.756 131.192 188.008C131.677 188.26 132.064 188.619 132.354 189.086C132.652 189.553 132.802 190.117 132.802 190.78V190.948C132.802 191.592 132.648 192.161 132.34 192.656C132.032 193.141 131.602 193.519 131.052 193.79C130.51 194.061 129.885 194.196 129.176 194.196ZM129.19 192.88C129.843 192.88 130.361 192.703 130.744 192.348C131.136 191.993 131.332 191.517 131.332 190.92V190.808C131.332 190.407 131.243 190.061 131.066 189.772C130.888 189.473 130.636 189.24 130.31 189.072C129.992 188.904 129.619 188.82 129.19 188.82C128.77 188.82 128.396 188.904 128.07 189.072C127.752 189.24 127.505 189.473 127.328 189.772C127.15 190.061 127.062 190.407 127.062 190.808V190.92C127.062 191.517 127.253 191.993 127.636 192.348C128.028 192.703 128.546 192.88 129.19 192.88ZM135.493 194.196C135.167 194.196 134.891 194.089 134.667 193.874C134.453 193.659 134.345 193.384 134.345 193.048C134.345 192.712 134.453 192.441 134.667 192.236C134.891 192.021 135.167 191.914 135.493 191.914C135.82 191.914 136.091 192.021 136.305 192.236C136.529 192.451 136.641 192.721 136.641 193.048C136.641 193.384 136.529 193.659 136.305 193.874C136.091 194.089 135.82 194.196 135.493 194.196ZM141.798 194.196C141.061 194.196 140.422 194.061 139.88 193.79C139.339 193.519 138.919 193.137 138.62 192.642C138.331 192.147 138.186 191.573 138.186 190.92V190.766H139.684V190.906C139.684 191.503 139.866 191.984 140.23 192.348C140.604 192.703 141.122 192.88 141.784 192.88C142.466 192.88 142.993 192.693 143.366 192.32C143.74 191.947 143.926 191.443 143.926 190.808V190.682C143.926 190.075 143.74 189.59 143.366 189.226C143.002 188.862 142.536 188.68 141.966 188.68C141.649 188.68 141.383 188.731 141.168 188.834C140.963 188.927 140.795 189.044 140.664 189.184C140.543 189.324 140.44 189.459 140.356 189.59H138.494V184.2H145.06V185.53H139.964V188.414H140.188C140.282 188.255 140.412 188.106 140.58 187.966C140.758 187.817 140.986 187.695 141.266 187.602C141.546 187.509 141.882 187.462 142.274 187.462C142.853 187.462 143.376 187.588 143.842 187.84C144.318 188.083 144.696 188.447 144.976 188.932C145.256 189.408 145.396 189.987 145.396 190.668V190.822C145.396 191.503 145.252 192.096 144.962 192.6C144.673 193.104 144.258 193.496 143.716 193.776C143.184 194.056 142.545 194.196 141.798 194.196ZM147.113 194V184.2H149.955L152.097 192.992H152.321L154.463 184.2H157.305V194H155.835V185.264H155.611L153.483 194H150.935L148.807 185.264H148.583V194H147.113Z" fill="#6CE54A"/>
<path d="M332.492 225.273C331.844 225.273 331.276 225.177 330.788 224.985C330.308 224.793 329.932 224.517 329.66 224.157C329.396 223.789 329.264 223.361 329.264 222.873V222.741C329.264 222.341 329.34 222.013 329.492 221.757C329.652 221.493 329.844 221.289 330.068 221.145C330.3 220.993 330.516 220.893 330.716 220.845V220.653C330.516 220.597 330.312 220.497 330.104 220.353C329.896 220.201 329.724 220.005 329.588 219.765C329.46 219.517 329.396 219.221 329.396 218.877V218.745C329.396 218.297 329.524 217.909 329.78 217.581C330.044 217.253 330.408 216.997 330.872 216.813C331.336 216.629 331.876 216.537 332.492 216.537C333.1 216.537 333.636 216.629 334.1 216.813C334.564 216.997 334.924 217.253 335.18 217.581C335.444 217.909 335.576 218.297 335.576 218.745V218.877C335.576 219.221 335.508 219.517 335.372 219.765C335.244 220.005 335.08 220.201 334.88 220.353C334.68 220.497 334.476 220.597 334.268 220.653V220.845C334.476 220.893 334.692 220.993 334.916 221.145C335.14 221.289 335.328 221.493 335.48 221.757C335.632 222.013 335.708 222.341 335.708 222.741V222.873C335.708 223.361 335.572 223.789 335.3 224.157C335.036 224.517 334.66 224.793 334.172 224.985C333.692 225.177 333.132 225.273 332.492 225.273ZM332.492 224.145C333.1 224.145 333.576 224.029 333.92 223.797C334.272 223.557 334.448 223.225 334.448 222.801V222.705C334.448 222.273 334.276 221.941 333.932 221.709C333.596 221.469 333.116 221.349 332.492 221.349C331.868 221.349 331.384 221.469 331.04 221.709C330.696 221.941 330.524 222.273 330.524 222.705V222.801C330.524 223.225 330.696 223.557 331.04 223.797C331.392 224.029 331.876 224.145 332.492 224.145ZM332.492 220.221C333.06 220.221 333.504 220.113 333.824 219.897C334.152 219.681 334.316 219.377 334.316 218.985V218.889C334.316 218.497 334.152 218.197 333.824 217.989C333.496 217.773 333.052 217.665 332.492 217.665C331.924 217.665 331.476 217.773 331.148 217.989C330.82 218.197 330.656 218.497 330.656 218.889V218.985C330.656 219.377 330.816 219.681 331.136 219.897C331.464 220.113 331.916 220.221 332.492 220.221ZM340.14 225.273C339.164 225.273 338.384 224.997 337.8 224.445C337.224 223.885 336.936 223.045 336.936 221.925V219.885C336.936 218.789 337.224 217.957 337.8 217.389C338.384 216.821 339.164 216.537 340.14 216.537C341.124 216.537 341.904 216.821 342.48 217.389C343.064 217.957 343.356 218.789 343.356 219.885V221.925C343.356 223.045 343.064 223.885 342.48 224.445C341.904 224.997 341.124 225.273 340.14 225.273ZM340.14 224.145C340.804 224.145 341.296 223.957 341.616 223.581C341.936 223.197 342.096 222.661 342.096 221.973V219.813C342.096 219.125 341.924 218.597 341.58 218.229C341.236 217.853 340.756 217.665 340.14 217.665C339.516 217.665 339.036 217.857 338.7 218.241C338.364 218.617 338.196 219.141 338.196 219.813V221.973C338.196 222.677 338.356 223.217 338.676 223.593C339.004 223.961 339.492 224.145 340.14 224.145ZM345.007 225.105V216.705H347.443L349.279 224.241H349.471L351.307 216.705H353.743V225.105H352.483V217.617H352.291L350.467 225.105H348.283L346.459 217.617H346.267V225.105H345.007Z" fill="#C9C9C9"/>
<path d="M45.1748 291.168C44.5428 291.168 43.9948 291.052 43.5308 290.82C43.0668 290.588 42.7068 290.26 42.4508 289.836C42.2028 289.412 42.0788 288.92 42.0788 288.36V288.228H43.3628V288.348C43.3628 288.86 43.5188 289.272 43.8308 289.584C44.1508 289.888 44.5948 290.04 45.1628 290.04C45.7468 290.04 46.1988 289.88 46.5188 289.56C46.8388 289.24 46.9988 288.808 46.9988 288.264V288.156C46.9988 287.636 46.8388 287.22 46.5188 286.908C46.2068 286.596 45.8068 286.44 45.3188 286.44C45.0468 286.44 44.8188 286.484 44.6348 286.572C44.4588 286.652 44.3148 286.752 44.2028 286.872C44.0988 286.992 44.0108 287.108 43.9388 287.22H42.3428V282.6H47.9708V283.74H43.6028V286.212H43.7948C43.8748 286.076 43.9868 285.948 44.1308 285.828C44.2828 285.7 44.4788 285.596 44.7188 285.516C44.9588 285.436 45.2468 285.396 45.5828 285.396C46.0788 285.396 46.5268 285.504 46.9268 285.72C47.3348 285.928 47.6588 286.24 47.8988 286.656C48.1388 287.064 48.2588 287.56 48.2588 288.144V288.276C48.2588 288.86 48.1348 289.368 47.8868 289.8C47.6388 290.232 47.2828 290.568 46.8188 290.808C46.3628 291.048 45.8148 291.168 45.1748 291.168ZM52.7184 291.168C51.7424 291.168 50.9624 290.892 50.3784 290.34C49.8024 289.78 49.5144 288.94 49.5144 287.82V285.78C49.5144 284.684 49.8024 283.852 50.3784 283.284C50.9624 282.716 51.7424 282.432 52.7184 282.432C53.7024 282.432 54.4824 282.716 55.0584 283.284C55.6424 283.852 55.9344 284.684 55.9344 285.78V287.82C55.9344 288.94 55.6424 289.78 55.0584 290.34C54.4824 290.892 53.7024 291.168 52.7184 291.168ZM52.7184 290.04C53.3824 290.04 53.8744 289.852 54.1944 289.476C54.5144 289.092 54.6744 288.556 54.6744 287.868V285.708C54.6744 285.02 54.5024 284.492 54.1584 284.124C53.8144 283.748 53.3344 283.56 52.7184 283.56C52.0944 283.56 51.6144 283.752 51.2784 284.136C50.9424 284.512 50.7744 285.036 50.7744 285.708V287.868C50.7744 288.572 50.9344 289.112 51.2544 289.488C51.5824 289.856 52.0704 290.04 52.7184 290.04ZM57.5847 291V282.6H60.0208L61.8568 290.136H62.0488L63.8848 282.6H66.3208V291H65.0608V283.512H64.8687L63.0447 291H60.8607L59.0367 283.512H58.8447V291H57.5847Z" fill="#C9C9C9"/>
<path d="M41 274.5L103 265.5L120.5 241L194.311 230.691L246.257 235.863L299.731 210.654L353.13 206.117" stroke="#1DB954" stroke-width="3" stroke-linecap="round" stroke-linejoin="round"/>
</g>
<defs>
<filter id="filter0_d_6532_47587" x="-8" y="0" width="409" height="319" filterUnits="userSpaceOnUse" color-interpolation-filters="sRGB">
<feFlood flood-opacity="0" result="BackgroundImageFix"/>
<feColorMatrix in="SourceAlpha" type="matrix" values="0 0 0 0 0 0 0 0 0 0 0 0 0 0 0 0 0 0 127 0" result="hardAlpha"/>
<feOffset dy="4"/>
<feGaussianBlur stdDeviation="4"/>
<feComposite in2="hardAlpha" operator="out"/>
<feColorMatrix type="matrix" values="0 0 0 0 0 0 0 0 0 0 0 0 0 0 0 0 0 0 0.2 0"/>
<feBlend mode="normal" in2="BackgroundImageFix" result="effect1_dropShadow_6532_47587"/>
<feBlend mode="normal" in="SourceGraphic" in2="effect1_dropShadow_6532_47587" result="shape"/>
</filter>
</defs>
</svg>
