<svg width="163" height="81" viewBox="0 0 163 81" fill="none" xmlns="http://www.w3.org/2000/svg">
<path d="M9.34229 78.9435C9.52982 67.0223 16.2062 38.9533 41.4115 22.0469" stroke="#315599" stroke-width="4" stroke-linecap="round"/>
<path d="M48.3787 16.5637C59.0051 10.9366 86.9404 2.99608 113.67 16.25" stroke="#4D9A71" stroke-width="4" stroke-linecap="round"/>
<path d="M123.143 21.2193C133.114 27.9406 153.281 48.8387 154.185 78.6602" stroke="#6CE54A" stroke-width="4" stroke-linecap="round"/>
<path d="M144.495 35.229C144.495 38.695 141.685 41.5049 138.219 41.5049C134.753 41.5049 131.943 38.695 131.943 35.229C131.943 31.7629 134.753 28.9531 138.219 28.9531C141.685 28.9531 144.495 31.7629 144.495 35.229Z" fill="black" stroke="#6CE54A" stroke-width="4"/>
<path d="M57.9798 67.8835C57.2798 67.8835 56.6545 67.7342 56.1038 67.4355C55.5531 67.1275 55.1191 66.6795 54.8018 66.0915C54.4845 65.5035 54.3258 64.7848 54.3258 63.9355V61.6395C54.3258 60.3608 54.6758 59.3855 55.3758 58.7135C56.0758 58.0322 57.0231 57.6915 58.2178 57.6915C59.3938 57.6915 60.2991 58.0135 60.9338 58.6575C61.5685 59.2922 61.8858 60.1462 61.8858 61.2195V61.2895H60.3878V61.1775C60.3878 60.7762 60.3085 60.4168 60.1498 60.0995C59.9911 59.7728 59.7531 59.5162 59.4358 59.3295C59.1185 59.1428 58.7125 59.0495 58.2178 59.0495C57.4711 59.0495 56.8878 59.2782 56.4678 59.7355C56.0478 60.1835 55.8378 60.8088 55.8378 61.6115V63.9635C55.8378 64.7568 56.0478 65.3868 56.4678 65.8535C56.8878 66.3108 57.4758 66.5395 58.2318 66.5395C58.9785 66.5395 59.5245 66.3342 59.8698 65.9235C60.2151 65.5128 60.3878 64.9808 60.3878 64.3275V64.1455H57.7558V62.8435H61.8858V67.6875H60.4858V66.6935H60.2618C60.1778 66.8708 60.0518 67.0528 59.8838 67.2395C59.7251 67.4262 59.4918 67.5802 59.1838 67.7015C58.8851 67.8228 58.4838 67.8835 57.9798 67.8835ZM63.8756 67.6875V60.7855H65.2896V61.5975H65.5136C65.6256 61.3082 65.803 61.0982 66.0456 60.9675C66.2976 60.8275 66.6056 60.7575 66.9696 60.7575H67.7956V62.0595H66.9136C66.447 62.0595 66.0643 62.1902 65.7656 62.4515C65.467 62.7035 65.3176 63.0955 65.3176 63.6275V67.6875H63.8756ZM72.2776 67.8835C71.5869 67.8835 70.9709 67.7435 70.4296 67.4635C69.8976 67.1742 69.4776 66.7635 69.1696 66.2315C68.8616 65.6995 68.7076 65.0695 68.7076 64.3415V64.1315C68.7076 63.4035 68.8616 62.7782 69.1696 62.2555C69.4776 61.7235 69.8976 61.3128 70.4296 61.0235C70.9709 60.7342 71.5869 60.5895 72.2776 60.5895C72.9683 60.5895 73.5843 60.7342 74.1256 61.0235C74.6669 61.3128 75.0916 61.7235 75.3996 62.2555C75.7076 62.7782 75.8616 63.4035 75.8616 64.1315V64.3415C75.8616 65.0695 75.7076 65.6995 75.3996 66.2315C75.0916 66.7635 74.6669 67.1742 74.1256 67.4635C73.5843 67.7435 72.9683 67.8835 72.2776 67.8835ZM72.2776 66.5955C72.9123 66.5955 73.4256 66.3948 73.8176 65.9935C74.2189 65.5828 74.4196 65.0182 74.4196 64.2995V64.1735C74.4196 63.4548 74.2236 62.8948 73.8316 62.4935C73.4396 62.0828 72.9216 61.8775 72.2776 61.8775C71.6523 61.8775 71.1389 62.0828 70.7376 62.4935C70.3456 62.8948 70.1496 63.4548 70.1496 64.1735V64.2995C70.1496 65.0182 70.3456 65.5828 70.7376 65.9935C71.1389 66.3948 71.6523 66.5955 72.2776 66.5955ZM78.3309 67.6875L77.1549 60.7855H78.5969L79.4649 66.7215H79.6889L80.8929 60.7855H83.2309L84.4209 66.7215H84.6449L85.5129 60.7855H86.9549L85.7789 67.6875H83.3569L82.1669 61.7655H81.9429L80.7529 67.6875H78.3309ZM88.6628 67.6875V60.7855H90.1048V67.6875H88.6628ZM89.3908 59.8475C89.1108 59.8475 88.8728 59.7588 88.6768 59.5815C88.4901 59.3948 88.3968 59.1568 88.3968 58.8675C88.3968 58.5782 88.4901 58.3448 88.6768 58.1675C88.8728 57.9808 89.1108 57.8875 89.3908 57.8875C89.6801 57.8875 89.9181 57.9808 90.1048 58.1675C90.2914 58.3448 90.3848 58.5782 90.3848 58.8675C90.3848 59.1568 90.2914 59.3948 90.1048 59.5815C89.9181 59.7588 89.6801 59.8475 89.3908 59.8475ZM92.2448 67.6875V60.7855H93.6588V61.8215H93.8828C94.0135 61.5415 94.2468 61.2802 94.5828 61.0375C94.9188 60.7948 95.4181 60.6735 96.0808 60.6735C96.6035 60.6735 97.0655 60.7902 97.4668 61.0235C97.8775 61.2568 98.1995 61.5882 98.4328 62.0175C98.6661 62.4375 98.7828 62.9462 98.7828 63.5435V67.6875H97.3408V63.6555C97.3408 63.0582 97.1915 62.6195 96.8928 62.3395C96.5941 62.0502 96.1835 61.9055 95.6608 61.9055C95.0635 61.9055 94.5828 62.1015 94.2188 62.4935C93.8641 62.8855 93.6868 63.4548 93.6868 64.2015V67.6875H92.2448ZM100.522 64.2715V64.0615C100.522 63.3335 100.667 62.7128 100.956 62.1995C101.255 61.6862 101.647 61.2895 102.132 61.0095C102.617 60.7295 103.149 60.5895 103.728 60.5895C104.4 60.5895 104.913 60.7155 105.268 60.9675C105.632 61.2195 105.898 61.4902 106.066 61.7795H106.29V60.7855H107.69V69.1015C107.69 69.5215 107.564 69.8575 107.312 70.1095C107.069 70.3615 106.733 70.4875 106.304 70.4875H101.656V69.2275H105.856C106.127 69.2275 106.262 69.0875 106.262 68.8075V66.6095H106.038C105.935 66.7775 105.791 66.9502 105.604 67.1275C105.417 67.3048 105.17 67.4495 104.862 67.5615C104.563 67.6735 104.185 67.7295 103.728 67.7295C103.149 67.7295 102.613 67.5942 102.118 67.3235C101.633 67.0435 101.245 66.6468 100.956 66.1335C100.667 65.6108 100.522 64.9902 100.522 64.2715ZM104.12 66.4695C104.745 66.4695 105.259 66.2735 105.66 65.8815C106.071 65.4802 106.276 64.9295 106.276 64.2295V64.1035C106.276 63.3848 106.075 62.8342 105.674 62.4515C105.273 62.0595 104.755 61.8635 104.12 61.8635C103.504 61.8635 102.991 62.0595 102.58 62.4515C102.179 62.8342 101.978 63.3848 101.978 64.1035V64.2295C101.978 64.9295 102.179 65.4802 102.58 65.8815C102.991 66.2735 103.504 66.4695 104.12 66.4695Z" fill="white"/>
</svg>
