<svg width="345" height="88" viewBox="0 0 345 88" fill="none" xmlns="http://www.w3.org/2000/svg">
<path d="M308.492 21.2735C307.844 21.2735 307.276 21.1775 306.788 20.9855C306.308 20.7935 305.932 20.5175 305.66 20.1575C305.396 19.7895 305.264 19.3615 305.264 18.8735V18.7415C305.264 18.3415 305.34 18.0135 305.492 17.7575C305.652 17.4935 305.844 17.2895 306.068 17.1455C306.3 16.9935 306.516 16.8935 306.716 16.8455V16.6535C306.516 16.5975 306.312 16.4975 306.104 16.3535C305.896 16.2015 305.724 16.0055 305.588 15.7655C305.46 15.5175 305.396 15.2215 305.396 14.8775V14.7455C305.396 14.2975 305.524 13.9095 305.78 13.5815C306.044 13.2535 306.408 12.9975 306.872 12.8135C307.336 12.6295 307.876 12.5375 308.492 12.5375C309.1 12.5375 309.636 12.6295 310.1 12.8135C310.564 12.9975 310.924 13.2535 311.18 13.5815C311.444 13.9095 311.576 14.2975 311.576 14.7455V14.8775C311.576 15.2215 311.508 15.5175 311.372 15.7655C311.244 16.0055 311.08 16.2015 310.88 16.3535C310.68 16.4975 310.476 16.5975 310.268 16.6535V16.8455C310.476 16.8935 310.692 16.9935 310.916 17.1455C311.14 17.2895 311.328 17.4935 311.48 17.7575C311.632 18.0135 311.708 18.3415 311.708 18.7415V18.8735C311.708 19.3615 311.572 19.7895 311.3 20.1575C311.036 20.5175 310.66 20.7935 310.172 20.9855C309.692 21.1775 309.132 21.2735 308.492 21.2735ZM308.492 20.1455C309.1 20.1455 309.576 20.0295 309.92 19.7975C310.272 19.5575 310.448 19.2255 310.448 18.8015V18.7055C310.448 18.2735 310.276 17.9415 309.932 17.7095C309.596 17.4695 309.116 17.3495 308.492 17.3495C307.868 17.3495 307.384 17.4695 307.04 17.7095C306.696 17.9415 306.524 18.2735 306.524 18.7055V18.8015C306.524 19.2255 306.696 19.5575 307.04 19.7975C307.392 20.0295 307.876 20.1455 308.492 20.1455ZM308.492 16.2215C309.06 16.2215 309.504 16.1135 309.824 15.8975C310.152 15.6815 310.316 15.3775 310.316 14.9855V14.8895C310.316 14.4975 310.152 14.1975 309.824 13.9895C309.496 13.7735 309.052 13.6655 308.492 13.6655C307.924 13.6655 307.476 13.7735 307.148 13.9895C306.82 14.1975 306.656 14.4975 306.656 14.8895V14.9855C306.656 15.3775 306.816 15.6815 307.136 15.8975C307.464 16.1135 307.916 16.2215 308.492 16.2215ZM316.14 21.2735C315.164 21.2735 314.384 20.9975 313.8 20.4455C313.224 19.8855 312.936 19.0455 312.936 17.9255V15.8855C312.936 14.7895 313.224 13.9575 313.8 13.3895C314.384 12.8215 315.164 12.5375 316.14 12.5375C317.124 12.5375 317.904 12.8215 318.48 13.3895C319.064 13.9575 319.356 14.7895 319.356 15.8855V17.9255C319.356 19.0455 319.064 19.8855 318.48 20.4455C317.904 20.9975 317.124 21.2735 316.14 21.2735ZM316.14 20.1455C316.804 20.1455 317.296 19.9575 317.616 19.5815C317.936 19.1975 318.096 18.6615 318.096 17.9735V15.8135C318.096 15.1255 317.924 14.5975 317.58 14.2295C317.236 13.8535 316.756 13.6655 316.14 13.6655C315.516 13.6655 315.036 13.8575 314.7 14.2415C314.364 14.6175 314.196 15.1415 314.196 15.8135V17.9735C314.196 18.6775 314.356 19.2175 314.676 19.5935C315.004 19.9615 315.492 20.1455 316.14 20.1455ZM321.007 21.1055V12.7055H323.443L325.279 20.2415H325.471L327.307 12.7055H329.743V21.1055H328.483V13.6175H328.291L326.467 21.1055H324.283L322.459 13.6175H322.267V21.1055H321.007Z" fill="#C9C9C9"/>
<path d="M21.1748 87.168C20.5428 87.168 19.9948 87.052 19.5308 86.82C19.0668 86.588 18.7068 86.26 18.4508 85.836C18.2028 85.412 18.0788 84.92 18.0788 84.36V84.228H19.3628V84.348C19.3628 84.86 19.5188 85.272 19.8308 85.584C20.1508 85.888 20.5948 86.04 21.1628 86.04C21.7468 86.04 22.1988 85.88 22.5188 85.56C22.8388 85.24 22.9988 84.808 22.9988 84.264V84.156C22.9988 83.636 22.8388 83.22 22.5188 82.908C22.2068 82.596 21.8068 82.44 21.3188 82.44C21.0468 82.44 20.8188 82.484 20.6348 82.572C20.4588 82.652 20.3148 82.752 20.2028 82.872C20.0988 82.992 20.0108 83.108 19.9388 83.22H18.3428V78.6H23.9708V79.74H19.6028V82.212H19.7948C19.8748 82.076 19.9868 81.948 20.1308 81.828C20.2828 81.7 20.4788 81.596 20.7188 81.516C20.9588 81.436 21.2468 81.396 21.5828 81.396C22.0788 81.396 22.5268 81.504 22.9268 81.72C23.3348 81.928 23.6588 82.24 23.8988 82.656C24.1388 83.064 24.2588 83.56 24.2588 84.144V84.276C24.2588 84.86 24.1348 85.368 23.8868 85.8C23.6388 86.232 23.2828 86.568 22.8188 86.808C22.3628 87.048 21.8148 87.168 21.1748 87.168ZM28.7184 87.168C27.7424 87.168 26.9624 86.892 26.3784 86.34C25.8024 85.78 25.5144 84.94 25.5144 83.82V81.78C25.5144 80.684 25.8024 79.852 26.3784 79.284C26.9624 78.716 27.7424 78.432 28.7184 78.432C29.7024 78.432 30.4824 78.716 31.0584 79.284C31.6424 79.852 31.9344 80.684 31.9344 81.78V83.82C31.9344 84.94 31.6424 85.78 31.0584 86.34C30.4824 86.892 29.7024 87.168 28.7184 87.168ZM28.7184 86.04C29.3824 86.04 29.8744 85.852 30.1944 85.476C30.5144 85.092 30.6744 84.556 30.6744 83.868V81.708C30.6744 81.02 30.5024 80.492 30.1584 80.124C29.8144 79.748 29.3344 79.56 28.7184 79.56C28.0944 79.56 27.6144 79.752 27.2784 80.136C26.9424 80.512 26.7744 81.036 26.7744 81.708V83.868C26.7744 84.572 26.9344 85.112 27.2544 85.488C27.5824 85.856 28.0704 86.04 28.7184 86.04ZM33.5847 87V78.6H36.0208L37.8568 86.136H38.0488L39.8848 78.6H42.3208V87H41.0608V79.512H40.8687L39.0447 87H36.8607L35.0367 79.512H34.8447V87H33.5847Z" fill="#C9C9C9"/>
<path d="M17 70.5L79 61.5L96.5 37L170.311 26.6911L222.257 31.8633L275.731 6.65406L329.13 2.11719" stroke="#1DB954" stroke-width="3" stroke-linecap="round" stroke-linejoin="round"/>
</svg>
