<svg width="112" height="16" viewBox="0 0 112 16" fill="none" xmlns="http://www.w3.org/2000/svg">
<path d="M0.5 8C0.5 3.85786 3.85786 0.5 8 0.5H104C108.142 0.5 111.5 3.85786 111.5 8C111.5 12.1421 108.142 15.5 104 15.5H8C3.85787 15.5 0.5 12.1421 0.5 8Z" stroke="#FF4C00"/>
<path d="M6.70893 12L8.90893 4.3H10.9989L13.1879 12H11.9669L11.4609 10.185H8.44693L7.94093 12H6.70893ZM8.74393 9.085H11.1639L10.0419 5.037H9.86593L8.74393 9.085ZM17.1152 12.154C16.1765 12.154 15.4322 11.89 14.8822 11.362C14.3322 10.8267 14.0572 10.0567 14.0572 9.052V7.248C14.0572 6.24333 14.3322 5.477 14.8822 4.949C15.4322 4.41367 16.1765 4.146 17.1152 4.146C18.0392 4.146 18.7505 4.40267 19.2492 4.916C19.7552 5.42933 20.0082 6.12967 20.0082 7.017V7.083H18.8312V6.984C18.8312 6.46333 18.6882 6.038 18.4022 5.708C18.1235 5.378 17.6945 5.213 17.1152 5.213C16.5285 5.213 16.0702 5.39267 15.7402 5.752C15.4102 6.104 15.2452 6.59533 15.2452 7.226V9.074C15.2452 9.69733 15.4102 10.1887 15.7402 10.548C16.0702 10.9073 16.5285 11.087 17.1152 11.087C17.6945 11.087 18.1235 10.922 18.4022 10.592C18.6882 10.2547 18.8312 9.82933 18.8312 9.316V9.129H20.0082V9.283C20.0082 10.1703 19.7552 10.8707 19.2492 11.384C18.7505 11.8973 18.0392 12.154 17.1152 12.154ZM24.2935 12.154C23.3549 12.154 22.6105 11.89 22.0605 11.362C21.5105 10.8267 21.2355 10.0567 21.2355 9.052V7.248C21.2355 6.24333 21.5105 5.477 22.0605 4.949C22.6105 4.41367 23.3549 4.146 24.2935 4.146C25.2175 4.146 25.9289 4.40267 26.4275 4.916C26.9335 5.42933 27.1865 6.12967 27.1865 7.017V7.083H26.0095V6.984C26.0095 6.46333 25.8665 6.038 25.5805 5.708C25.3019 5.378 24.8729 5.213 24.2935 5.213C23.7069 5.213 23.2485 5.39267 22.9185 5.752C22.5885 6.104 22.4235 6.59533 22.4235 7.226V9.074C22.4235 9.69733 22.5885 10.1887 22.9185 10.548C23.2485 10.9073 23.7069 11.087 24.2935 11.087C24.8729 11.087 25.3019 10.922 25.5805 10.592C25.8665 10.2547 26.0095 9.82933 26.0095 9.316V9.129H27.1865V9.283C27.1865 10.1703 26.9335 10.8707 26.4275 11.384C25.9289 11.8973 25.2175 12.154 24.2935 12.154ZM28.6119 12V4.3H33.4629V5.378H29.7999V7.589H33.1549V8.667H29.7999V10.922H33.5179V12H28.6119ZM37.4844 12.154C36.9051 12.154 36.3918 12.0513 35.9444 11.846C35.4971 11.6407 35.1451 11.34 34.8884 10.944C34.6391 10.5407 34.5144 10.053 34.5144 9.481V9.206H35.6914V9.481C35.6914 10.0237 35.8528 10.4307 36.1754 10.702C36.5054 10.9733 36.9418 11.109 37.4844 11.109C38.0344 11.109 38.4488 10.9953 38.7274 10.768C39.0061 10.5333 39.1454 10.2327 39.1454 9.866C39.1454 9.624 39.0794 9.426 38.9474 9.272C38.8154 9.118 38.6284 8.997 38.3864 8.909C38.1444 8.81367 37.8548 8.72567 37.5174 8.645L37.1104 8.546C36.6191 8.42867 36.1901 8.28567 35.8234 8.117C35.4641 7.941 35.1854 7.71 34.9874 7.424C34.7894 7.138 34.6904 6.77133 34.6904 6.324C34.6904 5.86933 34.8004 5.48067 35.0204 5.158C35.2478 4.83533 35.5594 4.586 35.9554 4.41C36.3514 4.234 36.8171 4.146 37.3524 4.146C37.8878 4.146 38.3644 4.23767 38.7824 4.421C39.2078 4.60433 39.5414 4.87567 39.7834 5.235C40.0254 5.59433 40.1464 6.04533 40.1464 6.588V6.984H38.9694V6.588C38.9694 6.258 38.8998 5.99033 38.7604 5.785C38.6284 5.57967 38.4414 5.42933 38.1994 5.334C37.9574 5.23867 37.6751 5.191 37.3524 5.191C36.8831 5.191 36.5164 5.29 36.2524 5.488C35.9958 5.67867 35.8674 5.94633 35.8674 6.291C35.8674 6.52567 35.9224 6.72 36.0324 6.874C36.1498 7.02067 36.3184 7.14167 36.5384 7.237C36.7584 7.33233 37.0334 7.41667 37.3634 7.49L37.7704 7.589C38.2691 7.699 38.7091 7.842 39.0904 8.018C39.4718 8.18667 39.7724 8.41767 39.9924 8.711C40.2124 9.00433 40.3224 9.382 40.3224 9.844C40.3224 10.306 40.2051 10.7093 39.9704 11.054C39.7431 11.3987 39.4168 11.67 38.9914 11.868C38.5661 12.0587 38.0638 12.154 37.4844 12.154ZM44.2976 12.154C43.7182 12.154 43.2049 12.0513 42.7576 11.846C42.3102 11.6407 41.9582 11.34 41.7016 10.944C41.4522 10.5407 41.3276 10.053 41.3276 9.481V9.206H42.5046V9.481C42.5046 10.0237 42.6659 10.4307 42.9886 10.702C43.3186 10.9733 43.7549 11.109 44.2976 11.109C44.8476 11.109 45.2619 10.9953 45.5406 10.768C45.8192 10.5333 45.9586 10.2327 45.9586 9.866C45.9586 9.624 45.8926 9.426 45.7606 9.272C45.6286 9.118 45.4416 8.997 45.1996 8.909C44.9576 8.81367 44.6679 8.72567 44.3306 8.645L43.9236 8.546C43.4322 8.42867 43.0032 8.28567 42.6366 8.117C42.2772 7.941 41.9986 7.71 41.8006 7.424C41.6026 7.138 41.5036 6.77133 41.5036 6.324C41.5036 5.86933 41.6136 5.48067 41.8336 5.158C42.0609 4.83533 42.3726 4.586 42.7686 4.41C43.1646 4.234 43.6302 4.146 44.1656 4.146C44.7009 4.146 45.1776 4.23767 45.5956 4.421C46.0209 4.60433 46.3546 4.87567 46.5966 5.235C46.8386 5.59433 46.9596 6.04533 46.9596 6.588V6.984H45.7826V6.588C45.7826 6.258 45.7129 5.99033 45.5736 5.785C45.4416 5.57967 45.2546 5.42933 45.0126 5.334C44.7706 5.23867 44.4882 5.191 44.1656 5.191C43.6962 5.191 43.3296 5.29 43.0656 5.488C42.8089 5.67867 42.6806 5.94633 42.6806 6.291C42.6806 6.52567 42.7356 6.72 42.8456 6.874C42.9629 7.02067 43.1316 7.14167 43.3516 7.237C43.5716 7.33233 43.8466 7.41667 44.1766 7.49L44.5836 7.589C45.0822 7.699 45.5222 7.842 45.9036 8.018C46.2849 8.18667 46.5856 8.41767 46.8056 8.711C47.0256 9.00433 47.1356 9.382 47.1356 9.844C47.1356 10.306 47.0182 10.7093 46.7836 11.054C46.5562 11.3987 46.2299 11.67 45.8046 11.868C45.3792 12.0587 44.8769 12.154 44.2976 12.154ZM51.4064 12V4.3H53.6394L55.3224 11.208H55.4984L57.1814 4.3H59.4144V12H58.2594V5.136H58.0834L56.4114 12H54.4094L52.7374 5.136H52.5614V12H51.4064ZM63.1217 12V9.206L60.4487 4.3H61.7907L63.6387 7.787H63.8037L65.6517 4.3H66.9937L64.3207 9.206V12H63.1217ZM72.3507 12V5.378H69.9857V4.3H75.9037V5.378H73.5387V12H72.3507ZM77.0905 12V4.3H78.2785V12H77.0905ZM82.8535 12.154C81.9148 12.154 81.1705 11.89 80.6205 11.362C80.0705 10.8267 79.7955 10.0567 79.7955 9.052V7.248C79.7955 6.24333 80.0705 5.477 80.6205 4.949C81.1705 4.41367 81.9148 4.146 82.8535 4.146C83.7775 4.146 84.4888 4.40267 84.9875 4.916C85.4935 5.42933 85.7465 6.12967 85.7465 7.017V7.083H84.5695V6.984C84.5695 6.46333 84.4265 6.038 84.1405 5.708C83.8618 5.378 83.4328 5.213 82.8535 5.213C82.2668 5.213 81.8085 5.39267 81.4785 5.752C81.1485 6.104 80.9835 6.59533 80.9835 7.226V9.074C80.9835 9.69733 81.1485 10.1887 81.4785 10.548C81.8085 10.9073 82.2668 11.087 82.8535 11.087C83.4328 11.087 83.8618 10.922 84.1405 10.592C84.4265 10.2547 84.5695 9.82933 84.5695 9.316V9.129H85.7465V9.283C85.7465 10.1703 85.4935 10.8707 84.9875 11.384C84.4888 11.8973 83.7775 12.154 82.8535 12.154ZM87.1719 12V4.3H88.3599V7.501H88.5359L91.4069 4.3H92.9579L89.4819 8.095L93.0789 12H91.4839L88.5359 8.733H88.3599V12H87.1719ZM94.0817 12V4.3H98.9327V5.378H95.2697V7.589H98.6247V8.667H95.2697V10.922H98.9877V12H94.0817ZM102.173 12V5.378H99.8082V4.3H105.726V5.378H103.361V12H102.173Z" fill="#FF4C00"/>
</svg>
