<svg width="133" height="65" viewBox="0 0 133 65" fill="none" xmlns="http://www.w3.org/2000/svg">
<g clip-path="url(#clip0_8629_1023)">
<path d="M8.86086 0.224121H0.628113V64.2241H8.86086V0.224121Z" fill="#585858"/>
<path d="M15.9168 0.224121H12.3885V64.2241H15.9168V0.224121Z" fill="#585858"/>
<path d="M25.326 0.224121H21.7977V64.2241H25.326V0.224121Z" fill="#585858"/>
<path d="M42.9682 0.224121H38.2638V64.2241H42.9682V0.224121Z" fill="#585858"/>
<path d="M58.5174 0.224121H46.9397V64.1339H58.5174V0.224121Z" fill="#585858"/>
<path d="M70.0938 0.224121H62.3753V64.1339H70.0938V0.224121Z" fill="#585858"/>
<path d="M83.6016 0.224121H79.7424V64.1339H83.6016V0.224121Z" fill="#585858"/>
<path d="M91.3203 0.224121H87.461V64.1339H91.3203V0.224121Z" fill="#585858"/>
<path d="M108.687 0.224121H102.898V64.1339H108.687V0.224121Z" fill="#585858"/>
<path d="M123.841 0.224121H120.218V64.1339H123.841V0.224121Z" fill="#585858"/>
<path d="M134.713 0.224121H127.466V64.1339H134.713V0.224121Z" fill="#585858"/>
</g>
<defs>
<clipPath id="clip0_8629_1023">
<rect width="132" height="64" fill="white" transform="translate(0.5 0.224121)"/>
</clipPath>
</defs>
</svg>
