<svg width="21" height="22" viewBox="0 0 21 22" fill="none" xmlns="http://www.w3.org/2000/svg">
<path d="M16.1336 10C16.7155 15.3755 19 17 19 17H1C1 17 4 14.8667 4 7.4C4 5.70261 4.63214 4.07475 5.75736 2.87452C6.88258 1.67428 8.4087 1 10 1C10.3373 1 10.6717 1.0303 11 1.08949" stroke="white" stroke-width="1.5" stroke-linecap="round" stroke-linejoin="round"/>
<path d="M17 7C18.6569 7 20 5.65685 20 4C20 2.34315 18.6569 1 17 1C15.3431 1 14 2.34315 14 4C14 5.65685 15.3431 7 17 7Z" fill="#FF4C00" stroke="#FF4C00" stroke-width="1.5" stroke-linecap="round" stroke-linejoin="round"/>
<path d="M11.7295 20C11.5537 20.3031 11.3014 20.5547 10.9977 20.7295C10.6941 20.9044 10.3499 20.9965 9.99953 20.9965C9.64913 20.9965 9.30493 20.9044 9.00133 20.7295C8.69773 20.5547 8.44533 20.3031 8.26953 20" stroke="white" stroke-width="1.5" stroke-linecap="round" stroke-linejoin="round"/>
</svg>
