<svg width="38" height="9" viewBox="0 0 38 9" fill="none" xmlns="http://www.w3.org/2000/svg">
<path d="M5.84912 8.08594H7.62705V2.60978H5.84912V8.08594Z" fill="#C9C9C9"/>
<path d="M7.99536 8.08594H9.77362V0.468623H7.99536V8.08594Z" fill="#C9C9C9"/>
<path d="M10.1416 8.08594H11.9199V0.468623H10.1416V8.08594Z" fill="#C9C9C9"/>
<path d="M29.2791 2.61006H31.0574V3.17471C31.3206 2.74862 31.7098 2.57818 32.2463 2.55674V4.44222H32.0359C31.4045 4.44222 31.0574 4.80454 31.0574 5.47584V8.08594H29.2791V2.61006Z" fill="#C9C9C9"/>
<path d="M5.70703 1.21375C5.70703 0.63725 6.16876 0.169705 6.73805 0.169705C7.30761 0.169705 7.76934 0.63725 7.76934 1.21375C7.76934 1.79027 7.30761 2.25781 6.73805 2.25781C6.16876 2.25781 5.70703 1.79027 5.70703 1.21375Z" fill="#C9C9C9"/>
<path d="M28.9105 2.6186H27.1322V3.02643C26.8827 2.75047 26.3014 2.52237 25.8593 2.52237C24.3077 2.52237 23.2614 3.7186 23.2614 5.40205C23.2614 7.08521 24.4387 8.17188 25.8801 8.17188C26.3222 8.17188 26.8063 8.02259 27.1322 7.77766V8.08667H28.9105V5.68986C28.9105 5.5916 28.91 5.49565 28.908 5.40205C28.91 5.30843 28.9105 5.2125 28.9105 5.11424V2.6186ZM25.961 6.36754C25.3915 6.36754 24.93 5.8997 24.93 5.32323C24.93 4.74671 25.3915 4.27916 25.961 4.27916C26.5306 4.27916 26.9919 4.74671 26.9919 5.32323C26.9919 5.8997 26.5306 6.36754 25.961 6.36754Z" fill="#C9C9C9"/>
<path d="M36.1923 0.464748V2.88299C35.8451 2.63806 35.4454 2.53169 34.961 2.53169C33.4777 2.53169 32.3203 3.69282 32.3203 5.36528C32.3203 6.9418 33.4356 8.15625 34.7927 8.15625C35.3507 8.15625 35.8028 7.97511 36.2238 7.58118V8.08179H37.9706V0.464748H36.1923ZM35.1453 6.40151C34.5758 6.40151 34.1144 5.93369 34.1144 5.35717C34.1144 4.78065 34.5758 4.31313 35.1453 4.31313C35.7149 4.31313 36.1765 4.78065 36.1765 5.35717C36.1765 5.93369 35.7149 6.40151 35.1453 6.40151Z" fill="#C9C9C9"/>
<path d="M15.3196 2.53532C14.8356 2.53532 14.4356 2.64199 14.0883 2.88662V0.468375H12.3101V8.08569H14.0567V7.58483C14.4779 7.97902 14.93 8.16016 15.488 8.16016C16.8451 8.16016 17.9604 6.94569 17.9604 5.36921C17.9604 3.69648 16.8031 2.53532 15.3196 2.53532ZM15.1304 6.41701C14.5608 6.41701 14.099 5.94949 14.099 5.37267C14.099 4.79645 14.5608 4.32893 15.1304 4.32893C15.6996 4.32893 16.1613 4.79645 16.1613 5.37267C16.1613 5.94949 15.6996 6.41701 15.1304 6.41701Z" fill="#C9C9C9"/>
<path d="M3.00955 2.53532C2.5255 2.53532 2.12548 2.64199 1.77825 2.88662V0.468375H0V8.08569H1.74665V7.58483C2.1678 7.97902 2.61997 8.16016 3.17793 8.16016C4.53501 8.16016 5.65036 6.94569 5.65036 5.36921C5.65036 3.69648 4.49328 2.53532 3.00955 2.53532ZM2.82027 6.41701C2.25071 6.41701 1.78896 5.94949 1.78896 5.37267C1.78896 4.79645 2.25071 4.32893 2.82027 4.32893C3.38953 4.32893 3.85126 4.79645 3.85126 5.37267C3.85126 5.94949 3.38953 6.41701 2.82027 6.41701Z" fill="#C9C9C9"/>
<path d="M20.6176 2.48849C19.0814 2.48849 17.8608 3.76704 17.8608 5.32209C17.8608 6.87773 19.0707 8.15625 20.6176 8.15625C22.175 8.15625 23.3744 6.86698 23.3744 5.32209C23.3744 3.77776 22.1538 2.48849 20.6176 2.48849ZM20.6176 6.33339C20.0481 6.33339 19.5866 5.86587 19.5866 5.28905C19.5866 4.7128 20.0481 4.24503 20.6176 4.24503C21.1872 4.24503 21.6486 4.7128 21.6486 5.28905C21.6486 5.86587 21.1872 6.33339 20.6176 6.33339Z" fill="#C9C9C9"/>
</svg>
