<svg width="345" height="112" viewBox="0 0 345 112" fill="none" xmlns="http://www.w3.org/2000/svg">
<path d="M20.662 10.696C19.4673 10.696 18.52 10.36 17.82 9.688C17.12 9.00667 16.77 8.02667 16.77 6.748V4.452C16.77 3.17333 17.12 2.198 17.82 1.526C18.52 0.844666 19.4673 0.503999 20.662 0.503999C21.838 0.503999 22.7433 0.830666 23.378 1.484C24.022 2.13733 24.344 3.02867 24.344 4.158V4.242H22.846V4.116C22.846 3.45333 22.664 2.912 22.3 2.492C21.9453 2.072 21.3993 1.862 20.662 1.862C19.9153 1.862 19.332 2.09067 18.912 2.548C18.492 2.996 18.282 3.62133 18.282 4.424V6.776C18.282 7.56933 18.492 8.19467 18.912 8.652C19.332 9.10933 19.9153 9.338 20.662 9.338C21.3993 9.338 21.9453 9.128 22.3 8.708C22.664 8.27867 22.846 7.73733 22.846 7.084V6.846H24.344V7.042C24.344 8.17133 24.022 9.06267 23.378 9.716C22.7433 10.3693 21.838 10.696 20.662 10.696ZM25.3344 10.5L28.1344 0.699999H30.7944L33.5804 10.5H32.0264L31.3824 8.19H27.5464L26.9024 10.5H25.3344ZM27.9244 6.79H31.0044L29.5764 1.638H29.3524L27.9244 6.79ZM35.0481 10.5V0.699999H39.1641C39.7708 0.699999 40.3028 0.807333 40.7601 1.022C41.2268 1.22733 41.5861 1.526 41.8381 1.918C42.0994 2.31 42.2301 2.77667 42.2301 3.318V3.472C42.2301 4.088 42.0808 4.58267 41.7821 4.956C41.4928 5.32 41.1381 5.57667 40.7181 5.726V5.95C41.0728 5.96867 41.3574 6.09 41.5721 6.314C41.7868 6.52867 41.8941 6.84133 41.8941 7.252V10.5H40.3681V7.462C40.3681 7.21 40.3028 7.00933 40.1721 6.86C40.0414 6.71067 39.8314 6.636 39.5421 6.636H36.5601V10.5H35.0481ZM36.5601 5.264H38.9961C39.5374 5.264 39.9574 5.12867 40.2561 4.858C40.5548 4.578 40.7041 4.2 40.7041 3.724V3.612C40.7041 3.136 40.5548 2.76267 40.2561 2.492C39.9668 2.212 39.5468 2.072 38.9961 2.072H36.5601V5.264ZM44.0338 10.5V0.699999H50.2078V2.072H45.5458V4.886H49.8158V6.258H45.5458V9.128H50.2778V10.5H44.0338ZM51.9941 10.5V0.699999H58.1681V2.072H53.5061V4.886H57.7761V6.258H53.5061V9.128H58.2381V10.5H51.9941ZM59.9544 10.5V0.699999H64.0704C64.6771 0.699999 65.2091 0.807333 65.6664 1.022C66.1331 1.22733 66.4924 1.526 66.7444 1.918C67.0058 2.31 67.1364 2.77667 67.1364 3.318V3.472C67.1364 4.088 66.9871 4.58267 66.6884 4.956C66.3991 5.32 66.0444 5.57667 65.6244 5.726V5.95C65.9791 5.96867 66.2638 6.09 66.4784 6.314C66.6931 6.52867 66.8004 6.84133 66.8004 7.252V10.5H65.2744V7.462C65.2744 7.21 65.2091 7.00933 65.0784 6.86C64.9478 6.71067 64.7378 6.636 64.4484 6.636H61.4664V10.5H59.9544ZM61.4664 5.264H63.9024C64.4438 5.264 64.8638 5.12867 65.1624 4.858C65.4611 4.578 65.6104 4.2 65.6104 3.724V3.612C65.6104 3.136 65.4611 2.76267 65.1624 2.492C64.8731 2.212 64.4531 2.072 63.9024 2.072H61.4664V5.264ZM75.9805 10.696C75.2432 10.696 74.5898 10.5653 74.0205 10.304C73.4512 10.0427 73.0032 9.66 72.6765 9.156C72.3592 8.64267 72.2005 8.022 72.2005 7.294V6.944H73.6985V7.294C73.6985 7.98467 73.9038 8.50267 74.3145 8.848C74.7345 9.19333 75.2898 9.366 75.9805 9.366C76.6805 9.366 77.2078 9.22133 77.5625 8.932C77.9172 8.63333 78.0945 8.25067 78.0945 7.784C78.0945 7.476 78.0105 7.224 77.8425 7.028C77.6745 6.832 77.4365 6.678 77.1285 6.566C76.8205 6.44467 76.4518 6.33267 76.0225 6.23L75.5045 6.104C74.8792 5.95467 74.3332 5.77267 73.8665 5.558C73.4092 5.334 73.0545 5.04 72.8025 4.676C72.5505 4.312 72.4245 3.84533 72.4245 3.276C72.4245 2.69733 72.5645 2.20267 72.8445 1.792C73.1338 1.38133 73.5305 1.064 74.0345 0.839999C74.5385 0.615999 75.1312 0.503999 75.8125 0.503999C76.4938 0.503999 77.1005 0.620666 77.6325 0.854C78.1738 1.08733 78.5985 1.43267 78.9065 1.89C79.2145 2.34733 79.3685 2.92133 79.3685 3.612V4.116H77.8705V3.612C77.8705 3.192 77.7818 2.85133 77.6045 2.59C77.4365 2.32867 77.1985 2.13733 76.8905 2.016C76.5825 1.89467 76.2232 1.834 75.8125 1.834C75.2152 1.834 74.7485 1.96 74.4125 2.212C74.0858 2.45467 73.9225 2.79533 73.9225 3.234C73.9225 3.53267 73.9925 3.78 74.1325 3.976C74.2818 4.16267 74.4965 4.31667 74.7765 4.438C75.0565 4.55933 75.4065 4.66667 75.8265 4.76L76.3445 4.886C76.9792 5.026 77.5392 5.208 78.0245 5.432C78.5098 5.64667 78.8925 5.94067 79.1725 6.314C79.4525 6.68733 79.5925 7.168 79.5925 7.756C79.5925 8.344 79.4432 8.85733 79.1445 9.296C78.8552 9.73467 78.4398 10.08 77.8985 10.332C77.3572 10.5747 76.7178 10.696 75.9805 10.696ZM83.2886 10.5V2.072H80.2786V0.699999H87.8106V2.072H84.8006V10.5H83.2886ZM87.6224 10.5L90.4224 0.699999H93.0824L95.8684 10.5H94.3144L93.6704 8.19H89.8344L89.1904 10.5H87.6224ZM90.2124 6.79H93.2924L91.8644 1.638H91.6404L90.2124 6.79ZM100.629 10.696C99.9287 10.696 99.3034 10.5467 98.7527 10.248C98.202 9.94 97.768 9.492 97.4507 8.904C97.1334 8.316 96.9747 7.59733 96.9747 6.748V4.452C96.9747 3.17333 97.3247 2.198 98.0247 1.526C98.7247 0.844666 99.672 0.503999 100.867 0.503999C102.043 0.503999 102.948 0.825999 103.583 1.47C104.217 2.10467 104.535 2.95867 104.535 4.032V4.102H103.037V3.99C103.037 3.58867 102.957 3.22933 102.799 2.912C102.64 2.58533 102.402 2.32867 102.085 2.142C101.767 1.95533 101.361 1.862 100.867 1.862C100.12 1.862 99.5367 2.09067 99.1167 2.548C98.6967 2.996 98.4867 3.62133 98.4867 4.424V6.776C98.4867 7.56933 98.6967 8.19933 99.1167 8.666C99.5367 9.12333 100.125 9.352 100.881 9.352C101.627 9.352 102.173 9.14667 102.519 8.736C102.864 8.32533 103.037 7.79333 103.037 7.14V6.958H100.405V5.656H104.535V10.5H103.135V9.506H102.911C102.827 9.68333 102.701 9.86533 102.533 10.052C102.374 10.2387 102.141 10.3927 101.833 10.514C101.534 10.6353 101.133 10.696 100.629 10.696ZM106.623 10.5V0.699999H112.797V2.072H108.135V4.886H112.405V6.258H108.135V9.128H112.867V10.5H106.623Z" fill="#C9C9C9"/>
<path d="M33.3423 106.443C33.5298 94.5223 40.2062 66.4533 65.4115 49.5469" stroke="#315599" stroke-width="4" stroke-linecap="round"/>
<path d="M72.3787 44.0637C83.0051 38.4366 110.94 30.4961 137.67 43.75" stroke="#4D9A71" stroke-width="4" stroke-linecap="round"/>
<path d="M147.143 48.7193C157.114 55.4406 177.281 76.3387 178.185 106.16" stroke="#6CE54A" stroke-width="4" stroke-linecap="round"/>
<path d="M58.0446 62.729C58.0446 66.195 55.2348 69.0049 51.7687 69.0049C48.3026 69.0049 45.4928 66.195 45.4928 62.729C45.4928 59.2629 48.3026 56.4531 51.7687 56.4531C55.2348 56.4531 58.0446 59.2629 58.0446 62.729Z" fill="black" stroke="#315599" stroke-width="4"/>
<path d="M75.3581 95.1875V85.3875H78.2001L80.3421 94.1795H80.5661L82.7081 85.3875H85.5501V95.1875H84.0801V86.4515H83.8561L81.7281 95.1875H79.1801L77.0521 86.4515H76.8281V95.1875H75.3581ZM87.6364 95.1875V88.2855H89.0784V95.1875H87.6364ZM88.3644 87.3475C88.0844 87.3475 87.8464 87.2588 87.6504 87.0815C87.4637 86.8948 87.3704 86.6568 87.3704 86.3675C87.3704 86.0782 87.4637 85.8448 87.6504 85.6675C87.8464 85.4808 88.0844 85.3875 88.3644 85.3875C88.6537 85.3875 88.8917 85.4808 89.0784 85.6675C89.2651 85.8448 89.3584 86.0782 89.3584 86.3675C89.3584 86.6568 89.2651 86.8948 89.0784 87.0815C88.8917 87.2588 88.6537 87.3475 88.3644 87.3475ZM94.0744 95.3835C93.5051 95.3835 92.9778 95.2435 92.4924 94.9635C92.0071 94.6835 91.6151 94.2822 91.3164 93.7595C91.0271 93.2275 90.8824 92.5882 90.8824 91.8415V91.6315C90.8824 90.8942 91.0271 90.2595 91.3164 89.7275C91.6058 89.1955 91.9931 88.7895 92.4784 88.5095C92.9638 88.2295 93.4958 88.0895 94.0744 88.0895C94.5224 88.0895 94.8958 88.1455 95.1944 88.2575C95.5024 88.3695 95.7544 88.5142 95.9504 88.6915C96.1464 88.8595 96.2958 89.0368 96.3984 89.2235H96.6224V85.3875H98.0644V95.1875H96.6504V94.2075H96.4264C96.2491 94.5062 95.9784 94.7768 95.6144 95.0195C95.2598 95.2622 94.7464 95.3835 94.0744 95.3835ZM94.4804 94.1235C95.1058 94.1235 95.6191 93.9228 96.0204 93.5215C96.4311 93.1202 96.6364 92.5462 96.6364 91.7995V91.6735C96.6364 90.9362 96.4358 90.3668 96.0344 89.9655C95.6331 89.5642 95.1151 89.3635 94.4804 89.3635C93.8644 89.3635 93.3511 89.5642 92.9404 89.9655C92.5391 90.3668 92.3384 90.9362 92.3384 91.6735V91.7995C92.3384 92.5462 92.5391 93.1202 92.9404 93.5215C93.3511 93.9228 93.8644 94.1235 94.4804 94.1235ZM100.159 92.2615V90.9455H104.303V92.2615H100.159ZM106.394 95.1875V85.3875H107.836V95.1875H106.394ZM113.14 95.3835C112.44 95.3835 111.829 95.2388 111.306 94.9495C110.784 94.6508 110.373 94.2355 110.074 93.7035C109.785 93.1622 109.64 92.5368 109.64 91.8275V91.6595C109.64 90.9408 109.785 90.3155 110.074 89.7835C110.364 89.2422 110.765 88.8268 111.278 88.5375C111.801 88.2388 112.403 88.0895 113.084 88.0895C113.747 88.0895 114.326 88.2388 114.82 88.5375C115.324 88.8268 115.716 89.2328 115.996 89.7555C116.276 90.2782 116.416 90.8895 116.416 91.5895V92.1355H111.11C111.129 92.7422 111.33 93.2275 111.712 93.5915C112.104 93.9462 112.59 94.1235 113.168 94.1235C113.71 94.1235 114.116 94.0022 114.386 93.7595C114.666 93.5168 114.881 93.2368 115.03 92.9195L116.22 93.5355C116.09 93.7968 115.898 94.0722 115.646 94.3615C115.404 94.6508 115.082 94.8935 114.68 95.0895C114.279 95.2855 113.766 95.3835 113.14 95.3835ZM111.124 91.0295H114.946C114.909 90.5068 114.722 90.1008 114.386 89.8115C114.05 89.5128 113.612 89.3635 113.07 89.3635C112.529 89.3635 112.086 89.5128 111.74 89.8115C111.404 90.1008 111.199 90.5068 111.124 91.0295ZM119.502 95.1875L117.178 88.2855H118.704L120.538 94.1235H120.762L122.596 88.2855H124.122L121.798 95.1875H119.502ZM128.439 95.3835C127.739 95.3835 127.128 95.2388 126.605 94.9495C126.082 94.6508 125.672 94.2355 125.373 93.7035C125.084 93.1622 124.939 92.5368 124.939 91.8275V91.6595C124.939 90.9408 125.084 90.3155 125.373 89.7835C125.662 89.2422 126.064 88.8268 126.577 88.5375C127.1 88.2388 127.702 88.0895 128.383 88.0895C129.046 88.0895 129.624 88.2388 130.119 88.5375C130.623 88.8268 131.015 89.2328 131.295 89.7555C131.575 90.2782 131.715 90.8895 131.715 91.5895V92.1355H126.409C126.428 92.7422 126.628 93.2275 127.011 93.5915C127.403 93.9462 127.888 94.1235 128.467 94.1235C129.008 94.1235 129.414 94.0022 129.685 93.7595C129.965 93.5168 130.18 93.2368 130.329 92.9195L131.519 93.5355C131.388 93.7968 131.197 94.0722 130.945 94.3615C130.702 94.6508 130.38 94.8935 129.979 95.0895C129.578 95.2855 129.064 95.3835 128.439 95.3835ZM126.423 91.0295H130.245C130.208 90.5068 130.021 90.1008 129.685 89.8115C129.349 89.5128 128.91 89.3635 128.369 89.3635C127.828 89.3635 127.384 89.5128 127.039 89.8115C126.703 90.1008 126.498 90.5068 126.423 91.0295ZM133.451 95.1875V85.3875H134.893V95.1875H133.451Z" fill="white"/>
<path d="M226.25 81.917L230.333 86.0003L226.25 90.0837M221 86.0003H230.333H221Z" stroke="white" stroke-width="1.5" stroke-linecap="round" stroke-linejoin="round"/>
<path d="M241.453 36.5V26.7H242.629V35.436H247.585V36.5H241.453ZM252.219 36.696C251.529 36.696 250.922 36.5513 250.399 36.262C249.877 35.9633 249.471 35.548 249.181 35.016C248.892 34.484 248.747 33.868 248.747 33.168V33C248.747 32.2907 248.892 31.67 249.181 31.138C249.471 30.606 249.872 30.1953 250.385 29.906C250.899 29.6073 251.487 29.458 252.149 29.458C252.793 29.458 253.363 29.598 253.857 29.878C254.352 30.1487 254.739 30.5407 255.019 31.054C255.299 31.5673 255.439 32.1693 255.439 32.86V33.364H249.853C249.881 34.1013 250.119 34.68 250.567 35.1C251.015 35.5107 251.575 35.716 252.247 35.716C252.835 35.716 253.288 35.5807 253.605 35.31C253.923 35.0393 254.165 34.7173 254.333 34.344L255.285 34.806C255.145 35.0953 254.949 35.3847 254.697 35.674C254.455 35.9633 254.133 36.206 253.731 36.402C253.339 36.598 252.835 36.696 252.219 36.696ZM249.867 32.454H254.319C254.282 31.8193 254.063 31.3247 253.661 30.97C253.269 30.6153 252.765 30.438 252.149 30.438C251.524 30.438 251.011 30.6153 250.609 30.97C250.208 31.3247 249.961 31.8193 249.867 32.454ZM257.032 33.112V32.916C257.032 32.1973 257.177 31.5813 257.466 31.068C257.756 30.5547 258.148 30.158 258.642 29.878C259.137 29.598 259.678 29.458 260.266 29.458C260.985 29.458 261.536 29.598 261.918 29.878C262.31 30.1487 262.6 30.452 262.786 30.788H262.982V29.654H264.032V38.096C264.032 38.4693 263.93 38.7633 263.724 38.978C263.519 39.1927 263.22 39.3 262.828 39.3H258.18V38.32H262.534C262.814 38.32 262.954 38.18 262.954 37.9V35.296H262.758C262.646 35.5013 262.488 35.702 262.282 35.898C262.077 36.094 261.811 36.2573 261.484 36.388C261.158 36.5093 260.752 36.57 260.266 36.57C259.678 36.57 259.137 36.43 258.642 36.15C258.148 35.87 257.756 35.4733 257.466 34.96C257.177 34.4373 257.032 33.8213 257.032 33.112ZM260.56 35.59C261.27 35.59 261.844 35.366 262.282 34.918C262.73 34.47 262.954 33.854 262.954 33.07V32.958C262.954 32.1647 262.73 31.5487 262.282 31.11C261.844 30.662 261.27 30.438 260.56 30.438C259.86 30.438 259.282 30.662 258.824 31.11C258.376 31.5487 258.152 32.1647 258.152 32.958V33.07C258.152 33.854 258.376 34.47 258.824 34.918C259.282 35.366 259.86 35.59 260.56 35.59ZM269.487 36.696C268.796 36.696 268.189 36.5513 267.667 36.262C267.144 35.9633 266.738 35.548 266.449 35.016C266.159 34.484 266.015 33.868 266.015 33.168V33C266.015 32.2907 266.159 31.67 266.449 31.138C266.738 30.606 267.139 30.1953 267.653 29.906C268.166 29.6073 268.754 29.458 269.417 29.458C270.061 29.458 270.63 29.598 271.125 29.878C271.619 30.1487 272.007 30.5407 272.287 31.054C272.567 31.5673 272.707 32.1693 272.707 32.86V33.364H267.121C267.149 34.1013 267.387 34.68 267.835 35.1C268.283 35.5107 268.843 35.716 269.515 35.716C270.103 35.716 270.555 35.5807 270.873 35.31C271.19 35.0393 271.433 34.7173 271.601 34.344L272.553 34.806C272.413 35.0953 272.217 35.3847 271.965 35.674C271.722 35.9633 271.4 36.206 270.999 36.402C270.607 36.598 270.103 36.696 269.487 36.696ZM267.135 32.454H271.587C271.549 31.8193 271.33 31.3247 270.929 30.97C270.537 30.6153 270.033 30.438 269.417 30.438C268.791 30.438 268.278 30.6153 267.877 30.97C267.475 31.3247 267.228 31.8193 267.135 32.454ZM274.636 36.5V29.654H275.714V30.816H275.91C276.059 30.4893 276.311 30.1953 276.666 29.934C277.03 29.6633 277.562 29.528 278.262 29.528C278.775 29.528 279.233 29.6353 279.634 29.85C280.045 30.0647 280.371 30.382 280.614 30.802C280.857 31.222 280.978 31.74 280.978 32.356V36.5H279.872V32.44C279.872 31.7587 279.699 31.264 279.354 30.956C279.018 30.648 278.561 30.494 277.982 30.494C277.319 30.494 276.778 30.7087 276.358 31.138C275.947 31.5673 275.742 32.2067 275.742 33.056V36.5H274.636ZM286.12 36.696C285.532 36.696 284.991 36.556 284.496 36.276C284.001 35.996 283.609 35.59 283.32 35.058C283.031 34.526 282.886 33.896 282.886 33.168V32.986C282.886 32.258 283.031 31.6327 283.32 31.11C283.609 30.578 283.997 30.172 284.482 29.892C284.977 29.6027 285.523 29.458 286.12 29.458C286.596 29.458 286.997 29.5233 287.324 29.654C287.66 29.7753 287.931 29.934 288.136 30.13C288.341 30.3167 288.5 30.5173 288.612 30.732H288.808V26.7H289.914V36.5H288.836V35.366H288.64C288.453 35.7113 288.164 36.0193 287.772 36.29C287.38 36.5607 286.829 36.696 286.12 36.696ZM286.414 35.716C287.123 35.716 287.697 35.492 288.136 35.044C288.584 34.5867 288.808 33.952 288.808 33.14V33.014C288.808 32.202 288.584 31.572 288.136 31.124C287.697 30.6667 287.123 30.438 286.414 30.438C285.714 30.438 285.135 30.6667 284.678 31.124C284.23 31.572 284.006 32.202 284.006 33.014V33.14C284.006 33.952 284.23 34.5867 284.678 35.044C285.135 35.492 285.714 35.716 286.414 35.716ZM294.332 36.696C293.856 36.696 293.422 36.612 293.03 36.444C292.638 36.276 292.33 36.0333 292.106 35.716C291.882 35.3987 291.77 35.0113 291.77 34.554C291.77 34.0873 291.882 33.7047 292.106 33.406C292.33 33.098 292.638 32.8693 293.03 32.72C293.422 32.5613 293.86 32.482 294.346 32.482H296.656V31.978C296.656 31.4927 296.511 31.11 296.222 30.83C295.942 30.55 295.522 30.41 294.962 30.41C294.411 30.41 293.982 30.5453 293.674 30.816C293.366 31.0773 293.156 31.432 293.044 31.88L292.008 31.544C292.12 31.1613 292.297 30.816 292.54 30.508C292.782 30.1907 293.104 29.9387 293.506 29.752C293.916 29.556 294.406 29.458 294.976 29.458C295.853 29.458 296.534 29.6867 297.02 30.144C297.505 30.592 297.748 31.2267 297.748 32.048V35.142C297.748 35.422 297.878 35.562 298.14 35.562H298.77V36.5H297.804C297.496 36.5 297.248 36.416 297.062 36.248C296.875 36.0707 296.782 35.8373 296.782 35.548V35.478H296.614C296.511 35.6553 296.371 35.842 296.194 36.038C296.026 36.2247 295.792 36.3787 295.494 36.5C295.195 36.6307 294.808 36.696 294.332 36.696ZM294.458 35.744C295.111 35.744 295.638 35.5527 296.04 35.17C296.45 34.778 296.656 34.232 296.656 33.532V33.378H294.388C293.949 33.378 293.585 33.476 293.296 33.672C293.016 33.8587 292.876 34.1433 292.876 34.526C292.876 34.9087 293.02 35.2073 293.31 35.422C293.608 35.6367 293.991 35.744 294.458 35.744ZM300.284 36.5V29.654H301.362V30.494H301.558C301.68 30.1953 301.866 29.976 302.118 29.836C302.37 29.696 302.702 29.626 303.112 29.626H303.924V30.634H303.042C302.548 30.634 302.146 30.774 301.838 31.054C301.54 31.3247 301.39 31.7493 301.39 32.328V36.5H300.284ZM306.388 39.3V38.32H310.308C310.578 38.32 310.714 38.18 310.714 37.9V35.408H310.518C310.424 35.604 310.28 35.8 310.084 35.996C309.897 36.1827 309.65 36.3367 309.342 36.458C309.034 36.57 308.646 36.626 308.18 36.626C307.685 36.626 307.228 36.5187 306.808 36.304C306.397 36.0893 306.07 35.772 305.828 35.352C305.594 34.932 305.478 34.4187 305.478 33.812V29.654H306.584V33.728C306.584 34.4 306.752 34.89 307.088 35.198C307.433 35.506 307.895 35.66 308.474 35.66C309.127 35.66 309.664 35.4453 310.084 35.016C310.504 34.5867 310.714 33.9473 310.714 33.098V29.654H311.82V38.096C311.82 38.4693 311.712 38.7633 311.498 38.978C311.292 39.1927 310.989 39.3 310.588 39.3H306.388Z" fill="#C9C9C9" fill-opacity="0.6"/>
<path d="M244.715 54.696C244.006 54.696 243.371 54.57 242.811 54.318C242.251 54.066 241.808 53.688 241.481 53.184C241.164 52.6707 241.005 52.0313 241.005 51.266V50.972H242.167V51.266C242.167 52.078 242.405 52.6847 242.881 53.086C243.357 53.478 243.969 53.674 244.715 53.674C245.481 53.674 246.064 53.5013 246.465 53.156C246.867 52.8107 247.067 52.3767 247.067 51.854C247.067 51.49 246.974 51.2007 246.787 50.986C246.61 50.7713 246.358 50.5987 246.031 50.468C245.705 50.328 245.322 50.2067 244.883 50.104L244.155 49.922C243.586 49.7727 243.082 49.5907 242.643 49.376C242.205 49.1613 241.859 48.8813 241.607 48.536C241.365 48.1813 241.243 47.7287 241.243 47.178C241.243 46.6273 241.379 46.1513 241.649 45.75C241.929 45.3487 242.317 45.0407 242.811 44.826C243.315 44.6113 243.894 44.504 244.547 44.504C245.21 44.504 245.803 44.6207 246.325 44.854C246.857 45.078 247.273 45.414 247.571 45.862C247.879 46.3007 248.033 46.856 248.033 47.528V48.116H246.871V47.528C246.871 47.052 246.769 46.6693 246.563 46.38C246.367 46.0907 246.092 45.876 245.737 45.736C245.392 45.596 244.995 45.526 244.547 45.526C243.903 45.526 243.385 45.6707 242.993 45.96C242.601 46.24 242.405 46.6413 242.405 47.164C242.405 47.5093 242.489 47.7893 242.657 48.004C242.825 48.2187 243.063 48.396 243.371 48.536C243.679 48.6667 244.048 48.7833 244.477 48.886L245.205 49.068C245.775 49.1893 246.283 49.3573 246.731 49.572C247.189 49.7773 247.553 50.062 247.823 50.426C248.094 50.7807 248.229 51.2473 248.229 51.826C248.229 52.4047 248.085 52.9087 247.795 53.338C247.506 53.7673 247.095 54.1033 246.563 54.346C246.041 54.5793 245.425 54.696 244.715 54.696ZM252.699 54.626C252.205 54.626 251.747 54.5187 251.327 54.304C250.917 54.0893 250.59 53.772 250.347 53.352C250.114 52.9227 249.997 52.4047 249.997 51.798V47.654H251.103V51.714C251.103 52.3953 251.271 52.89 251.607 53.198C251.953 53.506 252.415 53.66 252.993 53.66C253.647 53.66 254.183 53.4453 254.603 53.016C255.023 52.5867 255.233 51.9473 255.233 51.098V47.654H256.339V54.5H255.261V53.338H255.065C254.916 53.6647 254.659 53.9633 254.295 54.234C253.931 54.4953 253.399 54.626 252.699 54.626ZM258.654 57.3V47.654H259.732V48.788H259.928C260.105 48.4427 260.39 48.1347 260.782 47.864C261.183 47.5933 261.738 47.458 262.448 47.458C263.036 47.458 263.572 47.6027 264.058 47.892C264.552 48.172 264.944 48.5733 265.234 49.096C265.532 49.6187 265.682 50.2487 265.682 50.986V51.168C265.682 51.896 265.537 52.526 265.248 53.058C264.958 53.59 264.566 53.996 264.072 54.276C263.586 54.556 263.045 54.696 262.448 54.696C261.972 54.696 261.566 54.6307 261.23 54.5C260.903 54.3787 260.637 54.22 260.432 54.024C260.226 53.828 260.068 53.6273 259.956 53.422H259.76V57.3H258.654ZM262.154 53.716C262.863 53.716 263.437 53.492 263.876 53.044C264.324 52.5867 264.548 51.952 264.548 51.14V51.014C264.548 50.202 264.324 49.572 263.876 49.124C263.437 48.6667 262.863 48.438 262.154 48.438C261.454 48.438 260.875 48.6667 260.418 49.124C259.97 49.572 259.746 50.202 259.746 51.014V51.14C259.746 51.952 259.97 52.5867 260.418 53.044C260.875 53.492 261.454 53.716 262.154 53.716ZM270.799 54.696C270.109 54.696 269.502 54.5513 268.979 54.262C268.457 53.9633 268.051 53.548 267.761 53.016C267.472 52.484 267.327 51.868 267.327 51.168V51C267.327 50.2907 267.472 49.67 267.761 49.138C268.051 48.606 268.452 48.1953 268.965 47.906C269.479 47.6073 270.067 47.458 270.729 47.458C271.373 47.458 271.943 47.598 272.437 47.878C272.932 48.1487 273.319 48.5407 273.599 49.054C273.879 49.5673 274.019 50.1693 274.019 50.86V51.364H268.433C268.461 52.1013 268.699 52.68 269.147 53.1C269.595 53.5107 270.155 53.716 270.827 53.716C271.415 53.716 271.868 53.5807 272.185 53.31C272.503 53.0393 272.745 52.7173 272.913 52.344L273.865 52.806C273.725 53.0953 273.529 53.3847 273.277 53.674C273.035 53.9633 272.713 54.206 272.311 54.402C271.919 54.598 271.415 54.696 270.799 54.696ZM268.447 50.454H272.899C272.862 49.8193 272.643 49.3247 272.241 48.97C271.849 48.6153 271.345 48.438 270.729 48.438C270.104 48.438 269.591 48.6153 269.189 48.97C268.788 49.3247 268.541 49.8193 268.447 50.454ZM275.948 54.5V47.654H277.026V48.494H277.222C277.344 48.1953 277.53 47.976 277.782 47.836C278.034 47.696 278.366 47.626 278.776 47.626H279.588V48.634H278.706C278.212 48.634 277.81 48.774 277.502 49.054C277.204 49.3247 277.054 49.7493 277.054 50.328V54.5H275.948ZM283.847 54.696C282.998 54.696 282.279 54.5 281.691 54.108C281.112 53.716 280.762 53.0953 280.641 52.246L281.691 52.008C281.766 52.456 281.906 52.8107 282.111 53.072C282.316 53.324 282.568 53.506 282.867 53.618C283.175 53.7207 283.502 53.772 283.847 53.772C284.36 53.772 284.766 53.6693 285.065 53.464C285.364 53.2587 285.513 52.9833 285.513 52.638C285.513 52.2833 285.368 52.036 285.079 51.896C284.799 51.7467 284.412 51.6253 283.917 51.532L283.343 51.434C282.904 51.3593 282.503 51.2427 282.139 51.084C281.775 50.9253 281.486 50.7107 281.271 50.44C281.056 50.1693 280.949 49.8287 280.949 49.418C280.949 48.802 281.187 48.3213 281.663 47.976C282.139 47.6307 282.769 47.458 283.553 47.458C284.328 47.458 284.953 47.6353 285.429 47.99C285.914 48.3353 286.227 48.8253 286.367 49.46L285.331 49.726C285.247 49.2313 285.046 48.886 284.729 48.69C284.412 48.4847 284.02 48.382 283.553 48.382C283.086 48.382 282.718 48.4707 282.447 48.648C282.176 48.816 282.041 49.068 282.041 49.404C282.041 49.7307 282.167 49.9733 282.419 50.132C282.68 50.2813 283.026 50.3933 283.455 50.468L284.029 50.566C284.514 50.65 284.948 50.7667 285.331 50.916C285.723 51.056 286.031 51.2613 286.255 51.532C286.488 51.8027 286.605 52.1573 286.605 52.596C286.605 53.268 286.353 53.786 285.849 54.15C285.354 54.514 284.687 54.696 283.847 54.696ZM290.842 54.5C290.45 54.5 290.146 54.3927 289.932 54.178C289.726 53.9633 289.624 53.6693 289.624 53.296V48.62H287.566V47.654H289.624V45.218H290.73V47.654H292.97V48.62H290.73V53.128C290.73 53.408 290.865 53.548 291.136 53.548H292.662V54.5H290.842ZM296.82 54.696C296.344 54.696 295.91 54.612 295.518 54.444C295.126 54.276 294.818 54.0333 294.594 53.716C294.37 53.3987 294.258 53.0113 294.258 52.554C294.258 52.0873 294.37 51.7047 294.594 51.406C294.818 51.098 295.126 50.8693 295.518 50.72C295.91 50.5613 296.349 50.482 296.834 50.482H299.144V49.978C299.144 49.4927 298.999 49.11 298.71 48.83C298.43 48.55 298.01 48.41 297.45 48.41C296.899 48.41 296.47 48.5453 296.162 48.816C295.854 49.0773 295.644 49.432 295.532 49.88L294.496 49.544C294.608 49.1613 294.785 48.816 295.028 48.508C295.271 48.1907 295.593 47.9387 295.994 47.752C296.405 47.556 296.895 47.458 297.464 47.458C298.341 47.458 299.023 47.6867 299.508 48.144C299.993 48.592 300.236 49.2267 300.236 50.048V53.142C300.236 53.422 300.367 53.562 300.628 53.562H301.258V54.5H300.292C299.984 54.5 299.737 54.416 299.55 54.248C299.363 54.0707 299.27 53.8373 299.27 53.548V53.478H299.102C298.999 53.6553 298.859 53.842 298.682 54.038C298.514 54.2247 298.281 54.3787 297.982 54.5C297.683 54.6307 297.296 54.696 296.82 54.696ZM296.946 53.744C297.599 53.744 298.127 53.5527 298.528 53.17C298.939 52.778 299.144 52.232 299.144 51.532V51.378H296.876C296.437 51.378 296.073 51.476 295.784 51.672C295.504 51.8587 295.364 52.1433 295.364 52.526C295.364 52.9087 295.509 53.2073 295.798 53.422C296.097 53.6367 296.479 53.744 296.946 53.744ZM302.773 54.5V47.654H303.851V48.494H304.047C304.168 48.1953 304.355 47.976 304.607 47.836C304.859 47.696 305.19 47.626 305.601 47.626H306.413V48.634H305.531C305.036 48.634 304.635 48.774 304.327 49.054C304.028 49.3247 303.879 49.7493 303.879 50.328V54.5H302.773Z" fill="#C9C9C9" fill-opacity="0.6"/>
<path d="M241.453 72.5V62.7H243.693L246.297 71.758H246.479L249.083 62.7H251.323V72.5H250.189V63.47H249.993L247.403 72.5H245.373L242.783 63.47H242.587V72.5H241.453ZM255.709 72.696C255.233 72.696 254.799 72.612 254.407 72.444C254.015 72.276 253.707 72.0333 253.483 71.716C253.259 71.3987 253.147 71.0113 253.147 70.554C253.147 70.0873 253.259 69.7047 253.483 69.406C253.707 69.098 254.015 68.8693 254.407 68.72C254.799 68.5613 255.237 68.482 255.723 68.482H258.033V67.978C258.033 67.4927 257.888 67.11 257.599 66.83C257.319 66.55 256.899 66.41 256.339 66.41C255.788 66.41 255.359 66.5453 255.051 66.816C254.743 67.0773 254.533 67.432 254.421 67.88L253.385 67.544C253.497 67.1613 253.674 66.816 253.917 66.508C254.159 66.1907 254.481 65.9387 254.883 65.752C255.293 65.556 255.783 65.458 256.353 65.458C257.23 65.458 257.911 65.6867 258.397 66.144C258.882 66.592 259.125 67.2267 259.125 68.048V71.142C259.125 71.422 259.255 71.562 259.517 71.562H260.147V72.5H259.181C258.873 72.5 258.625 72.416 258.439 72.248C258.252 72.0707 258.159 71.8373 258.159 71.548V71.478H257.991C257.888 71.6553 257.748 71.842 257.571 72.038C257.403 72.2247 257.169 72.3787 256.871 72.5C256.572 72.6307 256.185 72.696 255.709 72.696ZM255.835 71.744C256.488 71.744 257.015 71.5527 257.417 71.17C257.827 70.778 258.033 70.232 258.033 69.532V69.378H255.765C255.326 69.378 254.962 69.476 254.673 69.672C254.393 69.8587 254.253 70.1433 254.253 70.526C254.253 70.9087 254.397 71.2073 254.687 71.422C254.985 71.6367 255.368 71.744 255.835 71.744ZM261.661 72.5V65.654H262.767V72.5H261.661ZM262.221 64.59C261.979 64.59 261.773 64.5107 261.605 64.352C261.447 64.1933 261.367 63.9927 261.367 63.75C261.367 63.498 261.447 63.2927 261.605 63.134C261.773 62.9753 261.979 62.896 262.221 62.896C262.464 62.896 262.665 62.9753 262.823 63.134C262.982 63.2927 263.061 63.498 263.061 63.75C263.061 63.9927 262.982 64.1933 262.823 64.352C262.665 64.5107 262.464 64.59 262.221 64.59ZM265.093 72.5V65.654H266.171V66.816H266.367C266.516 66.4893 266.768 66.1953 267.123 65.934C267.487 65.6633 268.019 65.528 268.719 65.528C269.232 65.528 269.69 65.6353 270.091 65.85C270.502 66.0647 270.828 66.382 271.071 66.802C271.314 67.222 271.435 67.74 271.435 68.356V72.5H270.329V68.44C270.329 67.7587 270.156 67.264 269.811 66.956C269.475 66.648 269.018 66.494 268.439 66.494C267.776 66.494 267.235 66.7087 266.815 67.138C266.404 67.5673 266.199 68.2067 266.199 69.056V72.5H265.093ZM276.437 72.696C275.588 72.696 274.869 72.5 274.281 72.108C273.702 71.716 273.352 71.0953 273.231 70.246L274.281 70.008C274.356 70.456 274.496 70.8107 274.701 71.072C274.906 71.324 275.158 71.506 275.457 71.618C275.765 71.7207 276.092 71.772 276.437 71.772C276.95 71.772 277.356 71.6693 277.655 71.464C277.954 71.2587 278.103 70.9833 278.103 70.638C278.103 70.2833 277.958 70.036 277.669 69.896C277.389 69.7467 277.002 69.6253 276.507 69.532L275.933 69.434C275.494 69.3593 275.093 69.2427 274.729 69.084C274.365 68.9253 274.076 68.7107 273.861 68.44C273.646 68.1693 273.539 67.8287 273.539 67.418C273.539 66.802 273.777 66.3213 274.253 65.976C274.729 65.6307 275.359 65.458 276.143 65.458C276.918 65.458 277.543 65.6353 278.019 65.99C278.504 66.3353 278.817 66.8253 278.957 67.46L277.921 67.726C277.837 67.2313 277.636 66.886 277.319 66.69C277.002 66.4847 276.61 66.382 276.143 66.382C275.676 66.382 275.308 66.4707 275.037 66.648C274.766 66.816 274.631 67.068 274.631 67.404C274.631 67.7307 274.757 67.9733 275.009 68.132C275.27 68.2813 275.616 68.3933 276.045 68.468L276.619 68.566C277.104 68.65 277.538 68.7667 277.921 68.916C278.313 69.056 278.621 69.2613 278.845 69.532C279.078 69.8027 279.195 70.1573 279.195 70.596C279.195 71.268 278.943 71.786 278.439 72.15C277.944 72.514 277.277 72.696 276.437 72.696ZM283.431 72.5C283.039 72.5 282.736 72.3927 282.521 72.178C282.316 71.9633 282.213 71.6693 282.213 71.296V66.62H280.155V65.654H282.213V63.218H283.319V65.654H285.559V66.62H283.319V71.128C283.319 71.408 283.455 71.548 283.725 71.548H285.251V72.5H283.431ZM287.351 72.5V65.654H288.429V66.494H288.625C288.746 66.1953 288.933 65.976 289.185 65.836C289.437 65.696 289.768 65.626 290.179 65.626H290.991V66.634H290.109C289.614 66.634 289.213 66.774 288.905 67.054C288.606 67.3247 288.457 67.7493 288.457 68.328V72.5H287.351ZM295.518 72.696C294.827 72.696 294.221 72.5513 293.698 72.262C293.175 71.9633 292.769 71.548 292.48 71.016C292.191 70.484 292.046 69.868 292.046 69.168V69C292.046 68.2907 292.191 67.67 292.48 67.138C292.769 66.606 293.171 66.1953 293.684 65.906C294.197 65.6073 294.785 65.458 295.448 65.458C296.092 65.458 296.661 65.598 297.156 65.878C297.651 66.1487 298.038 66.5407 298.318 67.054C298.598 67.5673 298.738 68.1693 298.738 68.86V69.364H293.152C293.18 70.1013 293.418 70.68 293.866 71.1C294.314 71.5107 294.874 71.716 295.546 71.716C296.134 71.716 296.587 71.5807 296.904 71.31C297.221 71.0393 297.464 70.7173 297.632 70.344L298.584 70.806C298.444 71.0953 298.248 71.3847 297.996 71.674C297.753 71.9633 297.431 72.206 297.03 72.402C296.638 72.598 296.134 72.696 295.518 72.696ZM293.166 68.454H297.618C297.581 67.8193 297.361 67.3247 296.96 66.97C296.568 66.6153 296.064 66.438 295.448 66.438C294.823 66.438 294.309 66.6153 293.908 66.97C293.507 67.3247 293.259 67.8193 293.166 68.454ZM302.767 72.696C302.291 72.696 301.857 72.612 301.465 72.444C301.073 72.276 300.765 72.0333 300.541 71.716C300.317 71.3987 300.205 71.0113 300.205 70.554C300.205 70.0873 300.317 69.7047 300.541 69.406C300.765 69.098 301.073 68.8693 301.465 68.72C301.857 68.5613 302.296 68.482 302.781 68.482H305.091V67.978C305.091 67.4927 304.947 67.11 304.657 66.83C304.377 66.55 303.957 66.41 303.397 66.41C302.847 66.41 302.417 66.5453 302.109 66.816C301.801 67.0773 301.591 67.432 301.479 67.88L300.443 67.544C300.555 67.1613 300.733 66.816 300.975 66.508C301.218 66.1907 301.54 65.9387 301.941 65.752C302.352 65.556 302.842 65.458 303.411 65.458C304.289 65.458 304.97 65.6867 305.455 66.144C305.941 66.592 306.183 67.2267 306.183 68.048V71.142C306.183 71.422 306.314 71.562 306.575 71.562H307.205V72.5H306.239C305.931 72.5 305.684 72.416 305.497 72.248C305.311 72.0707 305.217 71.8373 305.217 71.548V71.478H305.049C304.947 71.6553 304.807 71.842 304.629 72.038C304.461 72.2247 304.228 72.3787 303.929 72.5C303.631 72.6307 303.243 72.696 302.767 72.696ZM302.893 71.744C303.547 71.744 304.074 71.5527 304.475 71.17C304.886 70.778 305.091 70.232 305.091 69.532V69.378H302.823C302.385 69.378 302.021 69.476 301.731 69.672C301.451 69.8587 301.311 70.1433 301.311 70.526C301.311 70.9087 301.456 71.2073 301.745 71.422C302.044 71.6367 302.427 71.744 302.893 71.744ZM308.72 72.5V65.654H309.798V66.508H309.994C310.125 66.2653 310.339 66.0413 310.638 65.836C310.937 65.6307 311.357 65.528 311.898 65.528C312.43 65.528 312.859 65.6447 313.186 65.878C313.522 66.1113 313.765 66.396 313.914 66.732H314.11C314.269 66.396 314.507 66.1113 314.824 65.878C315.151 65.6447 315.603 65.528 316.182 65.528C316.639 65.528 317.041 65.6213 317.386 65.808C317.731 65.9947 318.002 66.2653 318.198 66.62C318.403 66.9653 318.506 67.3807 318.506 67.866V72.5H317.4V67.964C317.4 67.5067 317.265 67.1473 316.994 66.886C316.733 66.6153 316.364 66.48 315.888 66.48C315.384 66.48 314.969 66.6433 314.642 66.97C314.325 67.2967 314.166 67.768 314.166 68.384V72.5H313.06V67.964C313.06 67.5067 312.925 67.1473 312.654 66.886C312.393 66.6153 312.024 66.48 311.548 66.48C311.044 66.48 310.629 66.6433 310.302 66.97C309.985 67.2967 309.826 67.768 309.826 68.384V72.5H308.72Z" fill="#C9C9C9" fill-opacity="0.6"/>
<path d="M241.355 90.5V80.7H244.197L246.339 89.492H246.563L248.705 80.7H251.547V90.5H250.077V81.764H249.853L247.725 90.5H245.177L243.049 81.764H242.825V90.5H241.355ZM253.634 90.5V83.598H255.076V90.5H253.634ZM254.362 82.66C254.082 82.66 253.844 82.5713 253.648 82.394C253.461 82.2073 253.368 81.9693 253.368 81.68C253.368 81.3907 253.461 81.1573 253.648 80.98C253.844 80.7933 254.082 80.7 254.362 80.7C254.651 80.7 254.889 80.7933 255.076 80.98C255.262 81.1573 255.356 81.3907 255.356 81.68C255.356 81.9693 255.262 82.2073 255.076 82.394C254.889 82.5713 254.651 82.66 254.362 82.66ZM260.072 90.696C259.502 90.696 258.975 90.556 258.49 90.276C258.004 89.996 257.612 89.5947 257.314 89.072C257.024 88.54 256.88 87.9007 256.88 87.154V86.944C256.88 86.2067 257.024 85.572 257.314 85.04C257.603 84.508 257.99 84.102 258.476 83.822C258.961 83.542 259.493 83.402 260.072 83.402C260.52 83.402 260.893 83.458 261.192 83.57C261.5 83.682 261.752 83.8267 261.948 84.004C262.144 84.172 262.293 84.3493 262.396 84.536H262.62V80.7H264.062V90.5H262.648V89.52H262.424C262.246 89.8187 261.976 90.0893 261.612 90.332C261.257 90.5747 260.744 90.696 260.072 90.696ZM260.478 89.436C261.103 89.436 261.616 89.2353 262.018 88.834C262.428 88.4327 262.634 87.8587 262.634 87.112V86.986C262.634 86.2487 262.433 85.6793 262.032 85.278C261.63 84.8767 261.112 84.676 260.478 84.676C259.862 84.676 259.348 84.8767 258.938 85.278C258.536 85.6793 258.336 86.2487 258.336 86.986V87.112C258.336 87.8587 258.536 88.4327 258.938 88.834C259.348 89.2353 259.862 89.436 260.478 89.436ZM266.156 87.574V86.258H270.3V87.574H266.156ZM272.391 90.5V80.7H273.833V90.5H272.391ZM279.138 90.696C278.438 90.696 277.826 90.5513 277.304 90.262C276.781 89.9633 276.37 89.548 276.072 89.016C275.782 88.4747 275.638 87.8493 275.638 87.14V86.972C275.638 86.2533 275.782 85.628 276.072 85.096C276.361 84.5547 276.762 84.1393 277.276 83.85C277.798 83.5513 278.4 83.402 279.082 83.402C279.744 83.402 280.323 83.5513 280.818 83.85C281.322 84.1393 281.714 84.5453 281.994 85.068C282.274 85.5907 282.414 86.202 282.414 86.902V87.448H277.108C277.126 88.0547 277.327 88.54 277.71 88.904C278.102 89.2587 278.587 89.436 279.166 89.436C279.707 89.436 280.113 89.3147 280.384 89.072C280.664 88.8293 280.878 88.5493 281.028 88.232L282.218 88.848C282.087 89.1093 281.896 89.3847 281.644 89.674C281.401 89.9633 281.079 90.206 280.678 90.402C280.276 90.598 279.763 90.696 279.138 90.696ZM277.122 86.342H280.944C280.906 85.8193 280.72 85.4133 280.384 85.124C280.048 84.8253 279.609 84.676 279.068 84.676C278.526 84.676 278.083 84.8253 277.738 85.124C277.402 85.4133 277.196 85.8193 277.122 86.342ZM285.499 90.5L283.175 83.598H284.701L286.535 89.436H286.759L288.593 83.598H290.119L287.795 90.5H285.499ZM294.436 90.696C293.736 90.696 293.125 90.5513 292.602 90.262C292.08 89.9633 291.669 89.548 291.37 89.016C291.081 88.4747 290.936 87.8493 290.936 87.14V86.972C290.936 86.2533 291.081 85.628 291.37 85.096C291.66 84.5547 292.061 84.1393 292.574 83.85C293.097 83.5513 293.699 83.402 294.38 83.402C295.043 83.402 295.622 83.5513 296.116 83.85C296.62 84.1393 297.012 84.5453 297.292 85.068C297.572 85.5907 297.712 86.202 297.712 86.902V87.448H292.406C292.425 88.0547 292.626 88.54 293.008 88.904C293.4 89.2587 293.886 89.436 294.464 89.436C295.006 89.436 295.412 89.3147 295.682 89.072C295.962 88.8293 296.177 88.5493 296.326 88.232L297.516 88.848C297.386 89.1093 297.194 89.3847 296.942 89.674C296.7 89.9633 296.378 90.206 295.976 90.402C295.575 90.598 295.062 90.696 294.436 90.696ZM292.42 86.342H296.242C296.205 85.8193 296.018 85.4133 295.682 85.124C295.346 84.8253 294.908 84.676 294.366 84.676C293.825 84.676 293.382 84.8253 293.036 85.124C292.7 85.4133 292.495 85.8193 292.42 86.342ZM299.448 90.5V80.7H300.89V90.5H299.448Z" fill="white"/>
<path d="M240.991 108.5V107.45H242.363V99.75H240.991V98.7H244.813C246.101 98.7 247.095 99.0267 247.795 99.68C248.505 100.333 248.859 101.337 248.859 102.69V104.51C248.859 105.873 248.505 106.881 247.795 107.534C247.095 108.178 246.101 108.5 244.813 108.5H240.991ZM243.539 107.436H244.813C245.765 107.436 246.484 107.203 246.969 106.736C247.455 106.269 247.697 105.546 247.697 104.566V102.648C247.697 101.649 247.455 100.921 246.969 100.464C246.484 100.007 245.765 99.778 244.813 99.778H243.539V107.436ZM253.915 108.696C253.224 108.696 252.617 108.551 252.095 108.262C251.572 107.963 251.166 107.548 250.877 107.016C250.587 106.484 250.443 105.868 250.443 105.168V105C250.443 104.291 250.587 103.67 250.877 103.138C251.166 102.606 251.567 102.195 252.081 101.906C252.594 101.607 253.182 101.458 253.845 101.458C254.489 101.458 255.058 101.598 255.553 101.878C256.047 102.149 256.435 102.541 256.715 103.054C256.995 103.567 257.135 104.169 257.135 104.86V105.364H251.549C251.577 106.101 251.815 106.68 252.263 107.1C252.711 107.511 253.271 107.716 253.943 107.716C254.531 107.716 254.983 107.581 255.301 107.31C255.618 107.039 255.861 106.717 256.029 106.344L256.981 106.806C256.841 107.095 256.645 107.385 256.393 107.674C256.15 107.963 255.828 108.206 255.427 108.402C255.035 108.598 254.531 108.696 253.915 108.696ZM251.563 104.454H256.015C255.977 103.819 255.758 103.325 255.357 102.97C254.965 102.615 254.461 102.438 253.845 102.438C253.219 102.438 252.706 102.615 252.305 102.97C251.903 103.325 251.656 103.819 251.563 104.454ZM260.513 108.5L258.063 101.654H259.239L261.297 107.674H261.493L263.551 101.654H264.727L262.277 108.5H260.513ZM269.172 108.696C268.482 108.696 267.875 108.551 267.352 108.262C266.83 107.963 266.424 107.548 266.134 107.016C265.845 106.484 265.7 105.868 265.7 105.168V105C265.7 104.291 265.845 103.67 266.134 103.138C266.424 102.606 266.825 102.195 267.338 101.906C267.852 101.607 268.44 101.458 269.102 101.458C269.746 101.458 270.316 101.598 270.81 101.878C271.305 102.149 271.692 102.541 271.972 103.054C272.252 103.567 272.392 104.169 272.392 104.86V105.364H266.806C266.834 106.101 267.072 106.68 267.52 107.1C267.968 107.511 268.528 107.716 269.2 107.716C269.788 107.716 270.241 107.581 270.558 107.31C270.876 107.039 271.118 106.717 271.286 106.344L272.238 106.806C272.098 107.095 271.902 107.385 271.65 107.674C271.408 107.963 271.086 108.206 270.684 108.402C270.292 108.598 269.788 108.696 269.172 108.696ZM266.82 104.454H271.272C271.235 103.819 271.016 103.325 270.614 102.97C270.222 102.615 269.718 102.438 269.102 102.438C268.477 102.438 267.964 102.615 267.562 102.97C267.161 103.325 266.914 103.819 266.82 104.454ZM274.322 108.5V98.7H275.428V108.5H274.322ZM280.917 108.696C280.226 108.696 279.615 108.551 279.083 108.262C278.56 107.973 278.15 107.567 277.851 107.044C277.562 106.512 277.417 105.887 277.417 105.168V104.986C277.417 104.277 277.562 103.656 277.851 103.124C278.15 102.592 278.56 102.181 279.083 101.892C279.615 101.603 280.226 101.458 280.917 101.458C281.608 101.458 282.214 101.603 282.737 101.892C283.269 102.181 283.68 102.592 283.969 103.124C284.268 103.656 284.417 104.277 284.417 104.986V105.168C284.417 105.887 284.268 106.512 283.969 107.044C283.68 107.567 283.269 107.973 282.737 108.262C282.214 108.551 281.608 108.696 280.917 108.696ZM280.917 107.702C281.645 107.702 282.224 107.473 282.653 107.016C283.092 106.549 283.311 105.924 283.311 105.14V105.014C283.311 104.23 283.092 103.609 282.653 103.152C282.224 102.685 281.645 102.452 280.917 102.452C280.198 102.452 279.62 102.685 279.181 103.152C278.742 103.609 278.523 104.23 278.523 105.014V105.14C278.523 105.924 278.742 106.549 279.181 107.016C279.62 107.473 280.198 107.702 280.917 107.702ZM286.407 111.3V101.654H287.485V102.788H287.681C287.859 102.443 288.143 102.135 288.535 101.864C288.937 101.593 289.492 101.458 290.201 101.458C290.789 101.458 291.326 101.603 291.811 101.892C292.306 102.172 292.698 102.573 292.987 103.096C293.286 103.619 293.435 104.249 293.435 104.986V105.168C293.435 105.896 293.291 106.526 293.001 107.058C292.712 107.59 292.32 107.996 291.825 108.276C291.34 108.556 290.799 108.696 290.201 108.696C289.725 108.696 289.319 108.631 288.983 108.5C288.657 108.379 288.391 108.22 288.185 108.024C287.98 107.828 287.821 107.627 287.709 107.422H287.513V111.3H286.407ZM289.907 107.716C290.617 107.716 291.191 107.492 291.629 107.044C292.077 106.587 292.301 105.952 292.301 105.14V105.014C292.301 104.202 292.077 103.572 291.629 103.124C291.191 102.667 290.617 102.438 289.907 102.438C289.207 102.438 288.629 102.667 288.171 103.124C287.723 103.572 287.499 104.202 287.499 105.014V105.14C287.499 105.952 287.723 106.587 288.171 107.044C288.629 107.492 289.207 107.716 289.907 107.716ZM295.417 108.5V101.654H296.523V108.5H295.417ZM295.977 100.59C295.735 100.59 295.529 100.511 295.361 100.352C295.203 100.193 295.123 99.9927 295.123 99.75C295.123 99.498 295.203 99.2927 295.361 99.134C295.529 98.9753 295.735 98.896 295.977 98.896C296.22 98.896 296.421 98.9753 296.579 99.134C296.738 99.2927 296.817 99.498 296.817 99.75C296.817 99.9927 296.738 100.193 296.579 100.352C296.421 100.511 296.22 100.59 295.977 100.59ZM298.849 108.5V101.654H299.927V102.816H300.123C300.272 102.489 300.524 102.195 300.879 101.934C301.243 101.663 301.775 101.528 302.475 101.528C302.988 101.528 303.446 101.635 303.847 101.85C304.258 102.065 304.584 102.382 304.827 102.802C305.07 103.222 305.191 103.74 305.191 104.356V108.5H304.085V104.44C304.085 103.759 303.912 103.264 303.567 102.956C303.231 102.648 302.774 102.494 302.195 102.494C301.532 102.494 300.991 102.709 300.571 103.138C300.16 103.567 299.955 104.207 299.955 105.056V108.5H298.849ZM307.099 105.112V104.916C307.099 104.197 307.243 103.581 307.533 103.068C307.822 102.555 308.214 102.158 308.709 101.878C309.203 101.598 309.745 101.458 310.333 101.458C311.051 101.458 311.602 101.598 311.985 101.878C312.377 102.149 312.666 102.452 312.853 102.788H313.049V101.654H314.099V110.096C314.099 110.469 313.996 110.763 313.791 110.978C313.585 111.193 313.287 111.3 312.895 111.3H308.247V110.32H312.601C312.881 110.32 313.021 110.18 313.021 109.9V107.296H312.825C312.713 107.501 312.554 107.702 312.349 107.898C312.143 108.094 311.877 108.257 311.551 108.388C311.224 108.509 310.818 108.57 310.333 108.57C309.745 108.57 309.203 108.43 308.709 108.15C308.214 107.87 307.822 107.473 307.533 106.96C307.243 106.437 307.099 105.821 307.099 105.112ZM310.627 107.59C311.336 107.59 311.91 107.366 312.349 106.918C312.797 106.47 313.021 105.854 313.021 105.07V104.958C313.021 104.165 312.797 103.549 312.349 103.11C311.91 102.662 311.336 102.438 310.627 102.438C309.927 102.438 309.348 102.662 308.891 103.11C308.443 103.549 308.219 104.165 308.219 104.958V105.07C308.219 105.854 308.443 106.47 308.891 106.918C309.348 107.366 309.927 107.59 310.627 107.59Z" fill="#C9C9C9" fill-opacity="0.6"/>
</svg>
