<svg width="393" height="23" viewBox="0 0 393 23" fill="none" xmlns="http://www.w3.org/2000/svg">
<path d="M29.5392 19.8235V5.77759C29.5392 5.4317 29.8196 5.15132 30.1655 5.15132C30.5113 5.15132 30.7917 5.4317 30.7917 5.77759V22.2909H36.2729L35.3014 11.6483L34.33 1.00577L25.8811 1L24 22.2909H29.5392V19.8235Z" fill="#FF4C00"/>
<path d="M40.7858 22.1455V0.67884H48.5325V4.78551H45.7325V9.54551H48.5325V13.6055H45.7325V22.1455H40.7858ZM49.4538 22.1455V0.67884H57.2004V4.78551H54.3771V9.31217H57.1304V13.3722H54.3771V18.0388H57.2004V22.1455H49.4538ZM57.853 22.1455L59.813 0.67884H68.283L70.2197 22.1455H65.483L65.2497 18.8088H62.8464L62.613 22.1455H57.853ZM63.1497 14.6788H64.9464L64.2464 5.13551H63.8497L63.1497 14.6788ZM72.3288 22.1455V4.78551H69.5521V0.67884H80.0055V4.78551H77.2288V22.1455H72.3288ZM86.4017 22.4022C83.0417 22.4022 80.8717 21.1655 80.8717 17.5255V0.67884H85.7951V17.5022C85.7951 18.1088 86.0517 18.2955 86.4017 18.2955C86.7284 18.2955 87.0084 18.1088 87.0084 17.5022V0.67884H91.9317V17.5255C91.9317 21.1655 89.7384 22.4022 86.4017 22.4022ZM100.051 22.1455L98.7443 16.1022H98.301H97.881V22.1455H92.9577V0.67884H99.491C103.178 0.67884 103.948 1.98551 103.948 5.55551V11.5288C103.948 13.0688 103.458 14.1188 102.688 14.8188L104.414 22.1455H100.051ZM97.881 12.6255H98.371C98.9543 12.6255 99.141 12.3922 99.141 11.8088V5.60217C99.141 4.99551 98.9543 4.76217 98.371 4.76217H97.881V12.6255ZM105.262 22.1455V0.67884H113.009V4.78551H110.186V9.31217H112.939V13.3722H110.186V18.0388H113.009V22.1455H105.262ZM113.93 22.1455V0.67884H120.487C124.197 0.67884 124.99 1.98551 124.99 5.55551V17.2688C124.99 20.8388 124.197 22.1455 120.487 22.1455H113.93ZM118.854 18.0388H119.32C119.904 18.0388 120.067 17.8055 120.067 17.1988V5.62551C120.067 5.01884 119.904 4.78551 119.32 4.78551H118.854V18.0388ZM129.762 22.1455V0.67884H135.922L137.929 13.9788H138.232L138.092 10.8522V0.67884H142.619V22.1455H136.436L134.429 8.84551H134.149L134.289 11.9722V22.1455H129.762ZM143.653 22.1455V0.67884H151.4V4.78551H148.576V9.31217H151.33V13.3722H148.576V18.0388H151.4V22.1455H143.653ZM167.802 0.67884H172.585L170.928 22.1455H163.345L162.412 5.99884H162.178L161.245 22.1455H153.662L152.005 0.67884H156.788L157.605 16.8488H157.838L158.865 0.67884H165.725L166.752 16.8488H166.985L167.802 0.67884ZM178.679 22.4022C175.366 22.4022 173.289 21.1422 173.289 17.5488V14.4222H178.026V17.5255C178.026 18.1322 178.259 18.3188 178.656 18.3188C179.006 18.3188 179.262 18.1322 179.262 17.5255V14.6088C179.262 12.4155 173.266 14.0255 173.266 8.49551V5.27551C173.266 1.68217 175.366 0.422174 178.656 0.422174C181.969 0.422174 184.022 1.68217 184.022 5.27551V8.40217H179.286V5.29884C179.286 4.69217 179.052 4.50551 178.679 4.50551C178.306 4.50551 178.072 4.69217 178.072 5.29884V8.21551C178.072 10.4088 184.092 8.79884 184.092 14.3288V17.5488C184.092 21.1422 181.992 22.4022 178.679 22.4022Z" fill="white"/>
</svg>
