<svg width="20" height="20" viewBox="0 0 20 20" fill="none" xmlns="http://www.w3.org/2000/svg">
<path d="M19.852 10.2271C19.852 9.51804 19.7884 8.83624 19.6702 8.18164H10.252V12.0498H15.6338C15.402 13.2998 14.6975 14.3589 13.6384 15.068V17.5771H16.8702C18.7611 15.8362 19.852 13.2725 19.852 10.2271Z" fill="#4285F4"/>
<path d="M10.2521 20.0004C12.9521 20.0004 15.2157 19.1049 16.8702 17.5777L13.6384 15.0686C12.743 15.6686 11.5975 16.0231 10.2521 16.0231C7.64747 16.0231 5.44297 14.264 4.65657 11.9004H1.31567V14.4913C2.96117 17.7595 6.34297 20.0004 10.2521 20.0004Z" fill="#34A853"/>
<path d="M4.65645 11.9007C4.45645 11.3007 4.34285 10.6598 4.34285 10.0007C4.34285 9.34157 4.45645 8.70067 4.65645 8.10067V5.50977H1.31555C0.638353 6.85977 0.251953 8.38707 0.251953 10.0007C0.251953 11.6143 0.638353 13.1416 1.31555 14.4916L4.65645 11.9007Z" fill="#FBBC04"/>
<path d="M10.2521 3.9773C11.7202 3.9773 13.0384 4.4818 14.0748 5.4727L16.943 2.6045C15.2112 0.9909 12.9475 0 10.2521 0C6.34297 0 2.96117 2.2409 1.31567 5.5091L4.65657 8.1C5.44297 5.7364 7.64747 3.9773 10.2521 3.9773Z" fill="#E94235"/>
</svg>
