<svg width="55" height="23" viewBox="0 0 55 23" fill="none" xmlns="http://www.w3.org/2000/svg">
<g clip-path="url(#clip0_4472_569458)">
<path d="M23.7286 19.3338V5.09941C23.7286 4.74931 24.0123 4.46393 24.3624 4.46393C24.7125 4.46393 24.9979 4.74765 24.9979 5.09941V21.8343H30.553L28.5835 0.26279L20.0202 0.257812L18.1138 21.8343H23.727V19.3338H23.7286Z" fill="#FF4C00"/>
<path d="M0.00012207 21.8343V0.257812H7.41026L8.48876 15.1974H8.77083L9.85099 0.257812H17.2611V21.8343H12.7115V7.03571H12.3365L11.2099 21.8343H6.04969L4.92307 7.03571H4.54808V21.8343H0.00012207Z" fill="#FF4C00"/>
<path d="M48.8099 22.0902C45.4782 22.0902 43.3909 20.8242 43.3909 17.2121V14.0696H48.1512V17.1889C48.1512 17.7978 48.3851 17.987 48.785 17.987C49.1384 17.987 49.394 17.7995 49.394 17.1889V14.2571C49.394 12.052 43.366 13.6697 43.366 8.11132V4.87419C43.366 1.26208 45.4765 -0.00390625 48.785 -0.00390625C52.0935 -0.00390625 54.1792 1.26208 54.1792 4.87419V8.01675H49.4189V4.89742C49.4189 4.28849 49.1849 4.09934 48.8099 4.09934C48.4349 4.09934 48.201 4.28683 48.201 4.89742V7.82926C48.201 10.0344 54.2522 8.41662 54.2522 13.975V17.2121C54.2522 20.8242 52.1417 22.0902 48.8116 22.0902H48.8099Z" fill="#FF4C00"/>
<path d="M36.3374 15.7599H37.2052L38.5176 21.8343H42.903L41.1674 14.469C41.9406 13.7655 42.4334 12.7086 42.4334 11.1622V5.15914C42.4334 1.57025 41.6602 0.257812 37.9535 0.257812H31.3862V21.8343H36.3357V15.7599H36.3374ZM36.3374 4.36271H36.8302C37.4159 4.36271 37.6034 4.59666 37.6034 5.20725V11.4459C37.6034 12.0333 37.4159 12.2656 36.8302 12.2656H36.3374V4.36105V4.36271Z" fill="#FF4C00"/>
</g>
<defs>
<clipPath id="clip0_4472_569458">
<rect width="54.2519" height="22.0908" fill="white"/>
</clipPath>
</defs>
</svg>
