<svg width="345" height="93" viewBox="0 0 345 93" fill="none" xmlns="http://www.w3.org/2000/svg">
<rect width="345" height="93" rx="8" fill="#1F1F1F" fill-opacity="0.88"/>
<g clip-path="url(#clip0_4198_19021)">
<path d="M26.6922 22.2022C26.5066 22.2737 26.457 22.3479 26.4555 22.4913V30.2988C26.4594 30.4491 26.5742 30.5745 26.7211 30.5894C26.7273 30.5898 33.4962 30.5933 33.54 30.5933C34.1923 30.5931 34.8179 30.3338 35.2792 29.8725C35.7405 29.4112 35.9998 28.7856 36 28.1332C35.9999 27.7278 35.8996 27.3287 35.708 26.9714C35.5165 26.6141 35.2396 26.3097 34.9021 26.0851C34.5645 25.8606 34.1767 25.7229 33.7732 25.6844C33.3696 25.6458 32.9627 25.7076 32.5888 25.8642C32.3935 23.6474 30.5342 21.9081 28.2663 21.9081C27.7117 21.9081 27.1707 22.0174 26.6929 22.2026M25.6825 22.7553L25.5711 28.2969L25.6825 30.3085C25.6864 30.4554 25.8059 30.5765 25.9535 30.5765C26.025 30.5758 26.0933 30.5471 26.1439 30.4967C26.1945 30.4462 26.2233 30.378 26.2242 30.3066V30.3085L26.3453 28.2969L26.2242 22.7549C26.2203 22.6065 26.1008 22.4854 25.9535 22.4854C25.8819 22.486 25.8134 22.5147 25.7627 22.5653C25.712 22.616 25.6832 22.6844 25.6825 22.7561M24.8594 23.2162L24.7641 28.2953C24.7641 28.2992 24.8594 30.3374 24.8594 30.3374C24.861 30.404 24.8884 30.4675 24.9357 30.5143C24.9831 30.5612 25.0467 30.588 25.1133 30.589C25.1802 30.588 25.244 30.5611 25.2913 30.5139C25.3387 30.4668 25.3659 30.4031 25.3672 30.3363L25.4742 28.2973L25.3672 23.2154C25.3658 23.1487 25.3386 23.0851 25.2912 23.038C25.2439 22.991 25.1801 22.9641 25.1133 22.9631C24.9758 22.9631 24.8622 23.0807 24.8594 23.2162ZM22.3986 23.7482L22.2728 28.2949L22.399 30.3827C22.4029 30.4944 22.4908 30.5827 22.6013 30.5827C22.7119 30.5827 22.8005 30.4941 22.8044 30.382V30.3808L22.9462 28.2949L22.8044 23.7482C22.8005 23.631 22.7119 23.5467 22.6013 23.5467C22.5478 23.5468 22.4965 23.568 22.4585 23.6058C22.4205 23.6435 22.399 23.6947 22.3986 23.7482ZM23.2122 23.8646L23.0966 28.2957L23.2126 30.3632C23.2165 30.4843 23.3118 30.5812 23.4325 30.5812C23.5532 30.5812 23.6486 30.4847 23.6521 30.3624V30.3636L23.7822 28.2957L23.6521 23.8646C23.6482 23.742 23.5525 23.6459 23.4325 23.6459C23.3126 23.6459 23.2149 23.7424 23.2122 23.8646ZM21.5912 23.8959L21.4545 28.2949L21.5912 30.3952C21.5923 30.4439 21.6123 30.4902 21.6469 30.5244C21.6815 30.5585 21.7281 30.5779 21.7767 30.5784C21.8255 30.5779 21.8722 30.5584 21.9068 30.5241C21.9415 30.4897 21.9614 30.4432 21.9623 30.3945L22.1158 28.2949L21.9623 23.8955C21.9584 23.7924 21.8764 23.7119 21.7767 23.7119C21.7279 23.7124 21.6812 23.732 21.6465 23.7664C21.6119 23.8008 21.592 23.8474 21.5912 23.8963M24.0325 24.0267L23.9271 28.2961L24.0325 30.3507C24.0364 30.4816 24.1395 30.5851 24.2696 30.5851C24.3997 30.5851 24.5032 30.482 24.5059 30.3495V30.3511L24.6247 28.2965L24.5059 24.0271C24.5053 23.9647 24.4802 23.905 24.436 23.8609C24.3918 23.8167 24.3321 23.7917 24.2696 23.7912C24.1395 23.7912 24.0353 23.8947 24.0325 24.0267ZM20.7905 24.2342C20.7905 24.2345 20.6444 28.2941 20.6444 28.2941L20.7905 30.4163C20.7944 30.5093 20.8686 30.5827 20.9592 30.5827C21.0034 30.5819 21.0455 30.5642 21.077 30.5331C21.1084 30.5021 21.1266 30.4601 21.1279 30.4159L21.2932 28.2941L21.1279 24.2342C21.1266 24.19 21.1084 24.148 21.077 24.117C21.0455 24.0859 21.0034 24.0681 20.9592 24.0674C20.8686 24.0674 20.7951 24.1408 20.7905 24.2342ZM19.996 24.9896L19.8397 28.2941L19.996 30.4292C19.9999 30.5128 20.0663 30.5784 20.1471 30.5784C20.228 30.5784 20.294 30.5128 20.2987 30.4288L20.4756 28.2934L20.2987 24.9888C20.2936 24.9052 20.2272 24.8388 20.1471 24.8388C20.0671 24.8388 19.9999 24.9052 19.996 24.9888M18.4265 26.1032L18.2499 28.2926L18.4265 30.4105C18.4316 30.4761 18.482 30.5253 18.5437 30.5253C18.6054 30.5253 18.6554 30.4761 18.6608 30.4105L18.8609 28.2926L18.6608 26.1024C18.655 26.0372 18.605 25.9876 18.5437 25.9876C18.4824 25.9876 18.4312 26.0376 18.4265 26.1032ZM17.6515 26.161C17.6515 26.1614 17.4648 28.2922 17.4648 28.2922L17.6515 30.3452C17.6574 30.4027 17.6991 30.4437 17.7519 30.4437C17.8046 30.4437 17.8457 30.4026 17.8519 30.346L18.064 28.2926L17.8523 26.1614C17.846 26.1048 17.8038 26.0638 17.7519 26.0638C17.6999 26.0638 17.657 26.1056 17.6515 26.1614M19.2081 26.2622L19.0421 28.2934L19.2081 30.4288C19.2091 30.464 19.2236 30.4974 19.2487 30.5222C19.2737 30.5469 19.3073 30.561 19.3424 30.5616C19.4135 30.5616 19.4713 30.5046 19.4768 30.4288L19.6659 28.293L19.4768 26.261C19.471 26.1868 19.4143 26.1298 19.3424 26.1298C19.2706 26.1298 19.2128 26.186 19.2081 26.2622ZM16.8828 26.4969C16.8828 26.4973 16.686 28.2926 16.686 28.2926L16.8828 30.0492C16.8886 30.096 16.9238 30.13 16.9664 30.13C17.0089 30.13 17.0426 30.0972 17.0492 30.0495L17.2726 28.2926L17.0492 26.4969C17.0414 26.4493 17.0078 26.4161 16.966 26.4161C16.9242 26.4161 16.8882 26.4501 16.8828 26.4969ZM16.1461 27.1821L16 28.2926L16.1461 29.3843C16.152 29.4304 16.1852 29.4625 16.2266 29.4625C16.268 29.4625 16.3 29.4304 16.3063 29.3843L16.4797 28.2922L16.3063 27.1813C16.3004 27.1356 16.2672 27.1032 16.2266 27.1032C16.186 27.1032 16.1516 27.1352 16.1461 27.1813" fill="#FF7700"/>
</g>
<path d="M45.022 31V21.2H51.07V22.572H46.534V25.4H50.706V26.772H46.534V31H45.022ZM56.2678 31.196C55.0638 31.196 54.1072 30.86 53.3978 30.188C52.6885 29.5067 52.3338 28.5267 52.3338 27.248V24.952C52.3338 23.6733 52.6885 22.698 53.3978 22.026C54.1072 21.3447 55.0638 21.004 56.2678 21.004C57.4718 21.004 58.4285 21.3447 59.1378 22.026C59.8565 22.698 60.2158 23.6733 60.2158 24.952V27.248C60.2158 28.5267 59.8565 29.5067 59.1378 30.188C58.4285 30.86 57.4718 31.196 56.2678 31.196ZM56.2678 29.838C57.0425 29.838 57.6398 29.614 58.0598 29.166C58.4798 28.7087 58.6898 28.088 58.6898 27.304V24.896C58.6898 24.112 58.4798 23.496 58.0598 23.048C57.6398 22.5907 57.0425 22.362 56.2678 22.362C55.5118 22.362 54.9192 22.5907 54.4898 23.048C54.0605 23.496 53.8458 24.112 53.8458 24.896V27.304C53.8458 28.088 54.0605 28.7087 54.4898 29.166C54.9192 29.614 55.5118 29.838 56.2678 29.838ZM62.1458 31V21.2H63.6578V29.628H68.3758V31H62.1458ZM69.901 31V21.2H71.413V29.628H76.131V31H69.901ZM81.0374 31.196C79.8334 31.196 78.8768 30.86 78.1674 30.188C77.4581 29.5067 77.1034 28.5267 77.1034 27.248V24.952C77.1034 23.6733 77.4581 22.698 78.1674 22.026C78.8768 21.3447 79.8334 21.004 81.0374 21.004C82.2414 21.004 83.1981 21.3447 83.9074 22.026C84.6261 22.698 84.9854 23.6733 84.9854 24.952V27.248C84.9854 28.5267 84.6261 29.5067 83.9074 30.188C83.1981 30.86 82.2414 31.196 81.0374 31.196ZM81.0374 29.838C81.8121 29.838 82.4094 29.614 82.8294 29.166C83.2494 28.7087 83.4594 28.088 83.4594 27.304V24.896C83.4594 24.112 83.2494 23.496 82.8294 23.048C82.4094 22.5907 81.8121 22.362 81.0374 22.362C80.2814 22.362 79.6888 22.5907 79.2594 23.048C78.8301 23.496 78.6154 24.112 78.6154 24.896V27.304C78.6154 28.088 78.8301 28.7087 79.2594 29.166C79.6888 29.614 80.2814 29.838 81.0374 29.838ZM87.7017 31L86.2597 21.2H87.7717L88.9477 29.978H89.1717L90.6837 21.2H93.3297L94.8417 29.978H95.0657L96.2277 21.2H97.7397L96.2977 31H93.6517L92.1117 22.096H91.8877L90.3617 31H87.7017ZM99.3737 31V21.2H105.548V22.572H100.886V25.386H105.156V26.758H100.886V29.628H105.618V31H99.3737ZM107.334 31V21.2H111.45C112.057 21.2 112.589 21.3073 113.046 21.522C113.513 21.7273 113.872 22.026 114.124 22.418C114.385 22.81 114.516 23.2767 114.516 23.818V23.972C114.516 24.588 114.367 25.0827 114.068 25.456C113.779 25.82 113.424 26.0767 113.004 26.226V26.45C113.359 26.4687 113.643 26.59 113.858 26.814C114.073 27.0287 114.18 27.3413 114.18 27.752V31H112.654V27.962C112.654 27.71 112.589 27.5093 112.458 27.36C112.327 27.2107 112.117 27.136 111.828 27.136H108.846V31H107.334ZM108.846 25.764H111.282C111.823 25.764 112.243 25.6287 112.542 25.358C112.841 25.078 112.99 24.7 112.99 24.224V24.112C112.99 23.636 112.841 23.2627 112.542 22.992C112.253 22.712 111.833 22.572 111.282 22.572H108.846V25.764ZM123.43 31.196C122.73 31.196 122.105 31.0467 121.554 30.748C121.003 30.44 120.569 29.992 120.252 29.404C119.935 28.816 119.776 28.0973 119.776 27.248V24.952C119.776 23.6733 120.126 22.698 120.826 22.026C121.526 21.3447 122.473 21.004 123.668 21.004C124.844 21.004 125.749 21.326 126.384 21.97C127.019 22.6047 127.336 23.4587 127.336 24.532V24.602H125.838V24.49C125.838 24.0887 125.759 23.7293 125.6 23.412C125.441 23.0853 125.203 22.8287 124.886 22.642C124.569 22.4553 124.163 22.362 123.668 22.362C122.921 22.362 122.338 22.5907 121.918 23.048C121.498 23.496 121.288 24.1213 121.288 24.924V27.276C121.288 28.0693 121.498 28.6993 121.918 29.166C122.338 29.6233 122.926 29.852 123.682 29.852C124.429 29.852 124.975 29.6467 125.32 29.236C125.665 28.8253 125.838 28.2933 125.838 27.64V27.458H123.206V26.156H127.336V31H125.936V30.006H125.712C125.628 30.1833 125.502 30.3653 125.334 30.552C125.175 30.7387 124.942 30.8927 124.634 31.014C124.335 31.1353 123.934 31.196 123.43 31.196ZM129.424 31V21.2H133.54C134.147 21.2 134.679 21.3073 135.136 21.522C135.603 21.7273 135.962 22.026 136.214 22.418C136.475 22.81 136.606 23.2767 136.606 23.818V23.972C136.606 24.588 136.457 25.0827 136.158 25.456C135.869 25.82 135.514 26.0767 135.094 26.226V26.45C135.449 26.4687 135.733 26.59 135.948 26.814C136.163 27.0287 136.27 27.3413 136.27 27.752V31H134.744V27.962C134.744 27.71 134.679 27.5093 134.548 27.36C134.417 27.2107 134.207 27.136 133.918 27.136H130.936V31H129.424ZM130.936 25.764H133.372C133.913 25.764 134.333 25.6287 134.632 25.358C134.931 25.078 135.08 24.7 135.08 24.224V24.112C135.08 23.636 134.931 23.2627 134.632 22.992C134.343 22.712 133.923 22.572 133.372 22.572H130.936V25.764ZM142.092 31.196C140.888 31.196 139.931 30.86 139.222 30.188C138.512 29.5067 138.158 28.5267 138.158 27.248V24.952C138.158 23.6733 138.512 22.698 139.222 22.026C139.931 21.3447 140.888 21.004 142.092 21.004C143.296 21.004 144.252 21.3447 144.962 22.026C145.68 22.698 146.04 23.6733 146.04 24.952V27.248C146.04 28.5267 145.68 29.5067 144.962 30.188C144.252 30.86 143.296 31.196 142.092 31.196ZM142.092 29.838C142.866 29.838 143.464 29.614 143.884 29.166C144.304 28.7087 144.514 28.088 144.514 27.304V24.896C144.514 24.112 144.304 23.496 143.884 23.048C143.464 22.5907 142.866 22.362 142.092 22.362C141.336 22.362 140.743 22.5907 140.314 23.048C139.884 23.496 139.67 24.112 139.67 24.896V27.304C139.67 28.088 139.884 28.7087 140.314 29.166C140.743 29.614 141.336 29.838 142.092 29.838ZM148.756 31L147.314 21.2H148.826L150.002 29.978H150.226L151.738 21.2H154.384L155.896 29.978H156.12L157.282 21.2H158.794L157.352 31H154.706L153.166 22.096H152.942L151.416 31H148.756ZM162.766 31V22.572H159.756V21.2H167.288V22.572H164.278V31H162.766ZM168.798 31V21.2H170.31V25.4H174.426V21.2H175.938V31H174.426V26.772H170.31V31H168.798Z" fill="#C9C9C9"/>
<path d="M47.419 53.182C46.5263 53.182 45.82 52.9307 45.3 52.428C44.7887 51.9253 44.533 51.206 44.533 50.27V49.568H45.612V50.27C45.612 50.8333 45.7593 51.2927 46.054 51.648C46.3573 52.0033 46.808 52.181 47.406 52.181C48.0127 52.181 48.4417 52.0077 48.693 51.661C48.9443 51.3057 49.07 50.842 49.07 50.27V44.888H47.471V43.9H51.15V44.888H50.162V50.27C50.162 51.2147 49.928 51.9383 49.46 52.441C48.992 52.935 48.3117 53.182 47.419 53.182ZM54.405 53.182C53.963 53.182 53.56 53.104 53.196 52.948C52.832 52.792 52.546 52.5667 52.338 52.272C52.13 51.9773 52.026 51.6177 52.026 51.193C52.026 50.7597 52.13 50.4043 52.338 50.127C52.546 49.841 52.832 49.6287 53.196 49.49C53.56 49.3427 53.9673 49.269 54.418 49.269H56.563V48.801C56.563 48.3503 56.4286 47.995 56.16 47.735C55.9 47.475 55.51 47.345 54.99 47.345C54.4786 47.345 54.08 47.4707 53.794 47.722C53.508 47.9647 53.313 48.294 53.209 48.71L52.247 48.398C52.351 48.0427 52.5156 47.722 52.741 47.436C52.9663 47.1413 53.2653 46.9073 53.638 46.734C54.0193 46.552 54.4743 46.461 55.003 46.461C55.8176 46.461 56.4503 46.6733 56.901 47.098C57.3516 47.514 57.577 48.1033 57.577 48.866V51.739C57.577 51.999 57.6983 52.129 57.941 52.129H58.526V53H57.629C57.343 53 57.1133 52.922 56.94 52.766C56.7666 52.6013 56.68 52.3847 56.68 52.116V52.051H56.524C56.4286 52.2157 56.2986 52.389 56.134 52.571C55.978 52.7443 55.7613 52.8873 55.484 53C55.2066 53.1213 54.847 53.182 54.405 53.182ZM54.522 52.298C55.1286 52.298 55.6183 52.1203 55.991 51.765C56.3723 51.401 56.563 50.894 56.563 50.244V50.101H54.457C54.0496 50.101 53.7116 50.192 53.443 50.374C53.183 50.5473 53.053 50.8117 53.053 51.167C53.053 51.5223 53.1873 51.7997 53.456 51.999C53.7333 52.1983 54.0886 52.298 54.522 52.298ZM59.9325 53V46.643H60.9335V47.722H61.1155C61.2542 47.4187 61.4882 47.1457 61.8175 46.903C62.1555 46.6517 62.6495 46.526 63.2995 46.526C63.7762 46.526 64.2008 46.6257 64.5735 46.825C64.9548 47.0243 65.2582 47.319 65.4835 47.709C65.7088 48.099 65.8215 48.58 65.8215 49.152V53H64.7945V49.23C64.7945 48.5973 64.6342 48.138 64.3135 47.852C64.0015 47.566 63.5768 47.423 63.0395 47.423C62.4242 47.423 61.9215 47.6223 61.5315 48.021C61.1502 48.4197 60.9595 49.0133 60.9595 49.802V53H59.9325ZM67.9052 53V46.643H68.9062V47.722H69.0882C69.2268 47.4187 69.4608 47.1457 69.7902 46.903C70.1282 46.6517 70.6222 46.526 71.2722 46.526C71.7488 46.526 72.1735 46.6257 72.5462 46.825C72.9275 47.0243 73.2308 47.319 73.4562 47.709C73.6815 48.099 73.7942 48.58 73.7942 49.152V53H72.7672V49.23C72.7672 48.5973 72.6068 48.138 72.2862 47.852C71.9742 47.566 71.5495 47.423 71.0122 47.423C70.3968 47.423 69.8942 47.6223 69.5042 48.021C69.1228 48.4197 68.9322 49.0133 68.9322 49.802V53H67.9052ZM78.7898 53.182C78.1485 53.182 77.5852 53.0477 77.0998 52.779C76.6145 52.5017 76.2375 52.116 75.9688 51.622C75.7002 51.128 75.5658 50.556 75.5658 49.906V49.75C75.5658 49.0913 75.7002 48.515 75.9688 48.021C76.2375 47.527 76.6102 47.1457 77.0868 46.877C77.5635 46.5997 78.1095 46.461 78.7248 46.461C79.3228 46.461 79.8515 46.591 80.3108 46.851C80.7702 47.1023 81.1298 47.4663 81.3898 47.943C81.6498 48.4197 81.7798 48.9787 81.7798 49.62V50.088H76.5928C76.6188 50.7727 76.8398 51.31 77.2558 51.7C77.6718 52.0813 78.1918 52.272 78.8158 52.272C79.3618 52.272 79.7822 52.1463 80.0768 51.895C80.3715 51.6437 80.5968 51.3447 80.7528 50.998L81.6368 51.427C81.5068 51.6957 81.3248 51.9643 81.0908 52.233C80.8655 52.5017 80.5665 52.727 80.1938 52.909C79.8298 53.091 79.3618 53.182 78.7898 53.182ZM76.6058 49.243H80.7398C80.7052 48.6537 80.5015 48.1943 80.1288 47.865C79.7648 47.5357 79.2968 47.371 78.7248 47.371C78.1442 47.371 77.6675 47.5357 77.2948 47.865C76.9222 48.1943 76.6925 48.6537 76.6058 49.243ZM85.6446 53C85.2806 53 84.9989 52.9003 84.7996 52.701C84.6089 52.5017 84.5136 52.2287 84.5136 51.882V47.54H82.6026V46.643H84.5136V44.381H85.5406V46.643H87.6206V47.54H85.5406V51.726C85.5406 51.986 85.6663 52.116 85.9176 52.116H87.3346V53H85.6446ZM92.5839 53V43.9H94.6639L97.0819 52.311H97.2509L99.6689 43.9H101.749V53H100.696V44.615H100.514L98.1089 53H96.2239L93.8189 44.615H93.6369V53H92.5839ZM103.871 53V46.643H104.898V53H103.871ZM104.391 45.655C104.166 45.655 103.975 45.5813 103.819 45.434C103.672 45.2867 103.598 45.1003 103.598 44.875C103.598 44.641 103.672 44.4503 103.819 44.303C103.975 44.1557 104.166 44.082 104.391 44.082C104.616 44.082 104.803 44.1557 104.95 44.303C105.097 44.4503 105.171 44.641 105.171 44.875C105.171 45.1003 105.097 45.2867 104.95 45.434C104.803 45.5813 104.616 45.655 104.391 45.655ZM109.983 53.182C109.367 53.182 108.813 53.052 108.319 52.792C107.833 52.5233 107.448 52.142 107.162 51.648C106.884 51.154 106.746 50.569 106.746 49.893V49.75C106.746 49.0653 106.884 48.4803 107.162 47.995C107.448 47.501 107.833 47.124 108.319 46.864C108.813 46.5953 109.367 46.461 109.983 46.461C110.589 46.461 111.105 46.5737 111.53 46.799C111.963 47.0243 112.301 47.3233 112.544 47.696C112.795 48.0687 112.955 48.4673 113.025 48.892L112.024 49.1C111.98 48.788 111.876 48.502 111.712 48.242C111.556 47.982 111.335 47.774 111.049 47.618C110.763 47.462 110.412 47.384 109.996 47.384C109.571 47.384 109.19 47.4793 108.852 47.67C108.522 47.8607 108.258 48.1337 108.059 48.489C107.868 48.8443 107.773 49.269 107.773 49.763V49.88C107.773 50.374 107.868 50.7987 108.059 51.154C108.258 51.5093 108.522 51.7823 108.852 51.973C109.19 52.1637 109.571 52.259 109.996 52.259C110.628 52.259 111.109 52.0943 111.439 51.765C111.777 51.4357 111.985 51.0283 112.063 50.543L113.077 50.764C112.981 51.18 112.808 51.5743 112.557 51.947C112.305 52.3197 111.963 52.6187 111.53 52.844C111.105 53.0693 110.589 53.182 109.983 53.182ZM114.827 53V43.9H115.854V47.657H116.036C116.123 47.4663 116.253 47.2887 116.426 47.124C116.608 46.9507 116.838 46.8077 117.115 46.695C117.401 46.5823 117.761 46.526 118.194 46.526C118.671 46.526 119.095 46.63 119.468 46.838C119.849 47.0373 120.153 47.332 120.378 47.722C120.603 48.1033 120.716 48.58 120.716 49.152V53H119.689V49.23C119.689 48.5973 119.529 48.138 119.208 47.852C118.896 47.566 118.471 47.423 117.934 47.423C117.319 47.423 116.816 47.6223 116.426 48.021C116.045 48.4197 115.854 49.0133 115.854 49.802V53H114.827ZM124.75 53.182C124.308 53.182 123.905 53.104 123.541 52.948C123.177 52.792 122.891 52.5667 122.683 52.272C122.475 51.9773 122.371 51.6177 122.371 51.193C122.371 50.7597 122.475 50.4043 122.683 50.127C122.891 49.841 123.177 49.6287 123.541 49.49C123.905 49.3427 124.312 49.269 124.763 49.269H126.908V48.801C126.908 48.3503 126.773 47.995 126.505 47.735C126.245 47.475 125.855 47.345 125.335 47.345C124.823 47.345 124.425 47.4707 124.139 47.722C123.853 47.9647 123.658 48.294 123.554 48.71L122.592 48.398C122.696 48.0427 122.86 47.722 123.086 47.436C123.311 47.1413 123.61 46.9073 123.983 46.734C124.364 46.552 124.819 46.461 125.348 46.461C126.162 46.461 126.795 46.6733 127.246 47.098C127.696 47.514 127.922 48.1033 127.922 48.866V51.739C127.922 51.999 128.043 52.129 128.286 52.129H128.871V53H127.974C127.688 53 127.458 52.922 127.285 52.766C127.111 52.6013 127.025 52.3847 127.025 52.116V52.051H126.869C126.773 52.2157 126.643 52.389 126.479 52.571C126.323 52.7443 126.106 52.8873 125.829 53C125.551 53.1213 125.192 53.182 124.75 53.182ZM124.867 52.298C125.473 52.298 125.963 52.1203 126.336 51.765C126.717 51.401 126.908 50.894 126.908 50.244V50.101H124.802C124.394 50.101 124.056 50.192 123.788 50.374C123.528 50.5473 123.398 50.8117 123.398 51.167C123.398 51.5223 123.532 51.7997 123.801 51.999C124.078 52.1983 124.433 52.298 124.867 52.298ZM133.012 53.182C132.37 53.182 131.807 53.0477 131.322 52.779C130.836 52.5017 130.459 52.116 130.191 51.622C129.922 51.128 129.788 50.556 129.788 49.906V49.75C129.788 49.0913 129.922 48.515 130.191 48.021C130.459 47.527 130.832 47.1457 131.309 46.877C131.785 46.5997 132.331 46.461 132.947 46.461C133.545 46.461 134.073 46.591 134.533 46.851C134.992 47.1023 135.352 47.4663 135.612 47.943C135.872 48.4197 136.002 48.9787 136.002 49.62V50.088H130.815C130.841 50.7727 131.062 51.31 131.478 51.7C131.894 52.0813 132.414 52.272 133.038 52.272C133.584 52.272 134.004 52.1463 134.299 51.895C134.593 51.6437 134.819 51.3447 134.975 50.998L135.859 51.427C135.729 51.6957 135.547 51.9643 135.313 52.233C135.087 52.5017 134.788 52.727 134.416 52.909C134.052 53.091 133.584 53.182 133.012 53.182ZM130.828 49.243H134.962C134.927 48.6537 134.723 48.1943 134.351 47.865C133.987 47.5357 133.519 47.371 132.947 47.371C132.366 47.371 131.889 47.5357 131.517 47.865C131.144 48.1943 130.914 48.6537 130.828 49.243ZM137.793 53V43.9H138.82V53H137.793ZM144.318 53V43.9H145.345V47.657H145.527C145.614 47.4663 145.744 47.2887 145.917 47.124C146.099 46.9507 146.329 46.8077 146.606 46.695C146.892 46.5823 147.252 46.526 147.685 46.526C148.162 46.526 148.587 46.63 148.959 46.838C149.341 47.0373 149.644 47.332 149.869 47.722C150.095 48.1033 150.207 48.58 150.207 49.152V53H149.18V49.23C149.18 48.5973 149.02 48.138 148.699 47.852C148.387 47.566 147.963 47.423 147.425 47.423C146.81 47.423 146.307 47.6223 145.917 48.021C145.536 48.4197 145.345 49.0133 145.345 49.802V53H144.318ZM154.241 53.182C153.799 53.182 153.396 53.104 153.032 52.948C152.668 52.792 152.382 52.5667 152.174 52.272C151.966 51.9773 151.862 51.6177 151.862 51.193C151.862 50.7597 151.966 50.4043 152.174 50.127C152.382 49.841 152.668 49.6287 153.032 49.49C153.396 49.3427 153.803 49.269 154.254 49.269H156.399V48.801C156.399 48.3503 156.265 47.995 155.996 47.735C155.736 47.475 155.346 47.345 154.826 47.345C154.315 47.345 153.916 47.4707 153.63 47.722C153.344 47.9647 153.149 48.294 153.045 48.71L152.083 48.398C152.187 48.0427 152.352 47.722 152.577 47.436C152.802 47.1413 153.101 46.9073 153.474 46.734C153.855 46.552 154.31 46.461 154.839 46.461C155.654 46.461 156.286 46.6733 156.737 47.098C157.188 47.514 157.413 48.1033 157.413 48.866V51.739C157.413 51.999 157.534 52.129 157.777 52.129H158.362V53H157.465C157.179 53 156.949 52.922 156.776 52.766C156.603 52.6013 156.516 52.3847 156.516 52.116V52.051H156.36C156.265 52.2157 156.135 52.389 155.97 52.571C155.814 52.7443 155.597 52.8873 155.32 53C155.043 53.1213 154.683 53.182 154.241 53.182ZM154.358 52.298C154.965 52.298 155.454 52.1203 155.827 51.765C156.208 51.401 156.399 50.894 156.399 50.244V50.101H154.293C153.886 50.101 153.548 50.192 153.279 50.374C153.019 50.5473 152.889 50.8117 152.889 51.167C152.889 51.5223 153.023 51.7997 153.292 51.999C153.569 52.1983 153.925 52.298 154.358 52.298ZM162.282 53.182C161.736 53.182 161.233 53.052 160.774 52.792C160.314 52.532 159.95 52.155 159.682 51.661C159.413 51.167 159.279 50.582 159.279 49.906V49.737C159.279 49.061 159.413 48.4803 159.682 47.995C159.95 47.501 160.31 47.124 160.761 46.864C161.22 46.5953 161.727 46.461 162.282 46.461C162.724 46.461 163.096 46.5217 163.4 46.643C163.712 46.7557 163.963 46.903 164.154 47.085C164.344 47.2583 164.492 47.4447 164.596 47.644H164.778V43.9H165.805V53H164.804V51.947H164.622C164.448 52.2677 164.18 52.5537 163.816 52.805C163.452 53.0563 162.94 53.182 162.282 53.182ZM162.555 52.272C163.213 52.272 163.746 52.064 164.154 51.648C164.57 51.2233 164.778 50.634 164.778 49.88V49.763C164.778 49.009 164.57 48.424 164.154 48.008C163.746 47.5833 163.213 47.371 162.555 47.371C161.905 47.371 161.367 47.5833 160.943 48.008C160.527 48.424 160.319 49.009 160.319 49.763V49.88C160.319 50.634 160.527 51.2233 160.943 51.648C161.367 52.064 161.905 52.272 162.555 52.272ZM205.015 53V46.643H206.016V47.722H206.198C206.336 47.4187 206.57 47.1457 206.9 46.903C207.238 46.6517 207.732 46.526 208.382 46.526C208.858 46.526 209.283 46.6257 209.656 46.825C210.037 47.0243 210.34 47.319 210.566 47.709C210.791 48.099 210.904 48.58 210.904 49.152V53H209.877V49.23C209.877 48.5973 209.716 48.138 209.396 47.852C209.084 47.566 208.659 47.423 208.122 47.423C207.506 47.423 207.004 47.6223 206.614 48.021C206.232 48.4197 206.042 49.0133 206.042 49.802V53H205.015ZM215.899 53.182C215.258 53.182 214.695 53.0477 214.209 52.779C213.724 52.5017 213.347 52.116 213.078 51.622C212.81 51.128 212.675 50.556 212.675 49.906V49.75C212.675 49.0913 212.81 48.515 213.078 48.021C213.347 47.527 213.72 47.1457 214.196 46.877C214.673 46.5997 215.219 46.461 215.834 46.461C216.432 46.461 216.961 46.591 217.42 46.851C217.88 47.1023 218.239 47.4663 218.499 47.943C218.759 48.4197 218.889 48.9787 218.889 49.62V50.088H213.702C213.728 50.7727 213.949 51.31 214.365 51.7C214.781 52.0813 215.301 52.272 215.925 52.272C216.471 52.272 216.892 52.1463 217.186 51.895C217.481 51.6437 217.706 51.3447 217.862 50.998L218.746 51.427C218.616 51.6957 218.434 51.9643 218.2 52.233C217.975 52.5017 217.676 52.727 217.303 52.909C216.939 53.091 216.471 53.182 215.899 53.182ZM213.715 49.243H217.849C217.815 48.6537 217.611 48.1943 217.238 47.865C216.874 47.5357 216.406 47.371 215.834 47.371C215.254 47.371 214.777 47.5357 214.404 47.865C214.032 48.1943 213.802 48.6537 213.715 49.243ZM221.438 53L220.164 46.643H221.204L222.257 52.311H222.439L223.83 46.643H225.533L226.924 52.311H227.106L228.159 46.643H229.199L227.925 53H226.17L224.766 47.332H224.597L223.193 53H221.438ZM235.551 53V47.54H233.601V46.643H235.551V45.018C235.551 44.6713 235.646 44.3983 235.837 44.199C236.036 43.9997 236.318 43.9 236.682 43.9H238.281V44.784H236.968C236.708 44.784 236.578 44.914 236.578 45.174V46.643H238.58V47.54H236.578V53H235.551ZM242.674 53.182C242.033 53.182 241.465 53.0477 240.971 52.779C240.486 52.5103 240.105 52.1333 239.827 51.648C239.559 51.154 239.424 50.5733 239.424 49.906V49.737C239.424 49.0783 239.559 48.502 239.827 48.008C240.105 47.514 240.486 47.1327 240.971 46.864C241.465 46.5953 242.033 46.461 242.674 46.461C243.316 46.461 243.879 46.5953 244.364 46.864C244.858 47.1327 245.24 47.514 245.508 48.008C245.786 48.502 245.924 49.0783 245.924 49.737V49.906C245.924 50.5733 245.786 51.154 245.508 51.648C245.24 52.1333 244.858 52.5103 244.364 52.779C243.879 53.0477 243.316 53.182 242.674 53.182ZM242.674 52.259C243.35 52.259 243.888 52.0467 244.286 51.622C244.694 51.1887 244.897 50.608 244.897 49.88V49.763C244.897 49.035 244.694 48.4587 244.286 48.034C243.888 47.6007 243.35 47.384 242.674 47.384C242.007 47.384 241.47 47.6007 241.062 48.034C240.655 48.4587 240.451 49.035 240.451 49.763V49.88C240.451 50.608 240.655 51.1887 241.062 51.622C241.47 52.0467 242.007 52.259 242.674 52.259ZM247.772 53V43.9H248.799V53H247.772ZM250.959 53V43.9H251.986V53H250.959ZM257.083 53.182C256.442 53.182 255.874 53.0477 255.38 52.779C254.895 52.5103 254.514 52.1333 254.236 51.648C253.968 51.154 253.833 50.5733 253.833 49.906V49.737C253.833 49.0783 253.968 48.502 254.236 48.008C254.514 47.514 254.895 47.1327 255.38 46.864C255.874 46.5953 256.442 46.461 257.083 46.461C257.725 46.461 258.288 46.5953 258.773 46.864C259.267 47.1327 259.649 47.514 259.917 48.008C260.195 48.502 260.333 49.0783 260.333 49.737V49.906C260.333 50.5733 260.195 51.154 259.917 51.648C259.649 52.1333 259.267 52.5103 258.773 52.779C258.288 53.0477 257.725 53.182 257.083 53.182ZM257.083 52.259C257.759 52.259 258.297 52.0467 258.695 51.622C259.103 51.1887 259.306 50.608 259.306 49.88V49.763C259.306 49.035 259.103 48.4587 258.695 48.034C258.297 47.6007 257.759 47.384 257.083 47.384C256.416 47.384 255.879 47.6007 255.471 48.034C255.064 48.4587 254.86 49.035 254.86 49.763V49.88C254.86 50.608 255.064 51.1887 255.471 51.622C255.879 52.0467 256.416 52.259 257.083 52.259ZM262.939 53L261.665 46.643H262.705L263.758 52.311H263.94L265.331 46.643H267.034L268.425 52.311H268.607L269.66 46.643H270.7L269.426 53H267.671L266.267 47.332H266.098L264.694 53H262.939ZM275.25 53.182C274.608 53.182 274.045 53.0477 273.56 52.779C273.074 52.5017 272.697 52.116 272.429 51.622C272.16 51.128 272.026 50.556 272.026 49.906V49.75C272.026 49.0913 272.16 48.515 272.429 48.021C272.697 47.527 273.07 47.1457 273.547 46.877C274.023 46.5997 274.569 46.461 275.185 46.461C275.783 46.461 276.311 46.591 276.771 46.851C277.23 47.1023 277.59 47.4663 277.85 47.943C278.11 48.4197 278.24 48.9787 278.24 49.62V50.088H273.053C273.079 50.7727 273.3 51.31 273.716 51.7C274.132 52.0813 274.652 52.272 275.276 52.272C275.822 52.272 276.242 52.1463 276.537 51.895C276.831 51.6437 277.057 51.3447 277.213 50.998L278.097 51.427C277.967 51.6957 277.785 51.9643 277.551 52.233C277.325 52.5017 277.026 52.727 276.654 52.909C276.29 53.091 275.822 53.182 275.25 53.182ZM273.066 49.243H277.2C277.165 48.6537 276.961 48.1943 276.589 47.865C276.225 47.5357 275.757 47.371 275.185 47.371C274.604 47.371 274.127 47.5357 273.755 47.865C273.382 48.1943 273.152 48.6537 273.066 49.243ZM280.031 53V46.643H281.032V47.423H281.214C281.327 47.1457 281.5 46.942 281.734 46.812C281.968 46.682 282.276 46.617 282.657 46.617H283.411V47.553H282.592C282.133 47.553 281.76 47.683 281.474 47.943C281.197 48.1943 281.058 48.5887 281.058 49.126V53H280.031ZM287.366 53.182C286.577 53.182 285.91 53 285.364 52.636C284.826 52.272 284.501 51.6957 284.389 50.907L285.364 50.686C285.433 51.102 285.563 51.4313 285.754 51.674C285.944 51.908 286.178 52.077 286.456 52.181C286.742 52.2763 287.045 52.324 287.366 52.324C287.842 52.324 288.219 52.2287 288.497 52.038C288.774 51.8473 288.913 51.5917 288.913 51.271C288.913 50.9417 288.778 50.712 288.51 50.582C288.25 50.4433 287.89 50.3307 287.431 50.244L286.898 50.153C286.49 50.0837 286.118 49.9753 285.78 49.828C285.442 49.6807 285.173 49.4813 284.974 49.23C284.774 48.9787 284.675 48.6623 284.675 48.281C284.675 47.709 284.896 47.2627 285.338 46.942C285.78 46.6213 286.365 46.461 287.093 46.461C287.812 46.461 288.393 46.6257 288.835 46.955C289.285 47.2757 289.576 47.7307 289.706 48.32L288.744 48.567C288.666 48.1077 288.479 47.787 288.185 47.605C287.89 47.4143 287.526 47.319 287.093 47.319C286.659 47.319 286.317 47.4013 286.066 47.566C285.814 47.722 285.689 47.956 285.689 48.268C285.689 48.5713 285.806 48.7967 286.04 48.944C286.282 49.0827 286.603 49.1867 287.002 49.256L287.535 49.347C287.985 49.425 288.388 49.5333 288.744 49.672C289.108 49.802 289.394 49.9927 289.602 50.244C289.818 50.4953 289.927 50.8247 289.927 51.232C289.927 51.856 289.693 52.337 289.225 52.675C288.765 53.013 288.146 53.182 287.366 53.182ZM292.219 53.182C291.968 53.182 291.755 53.0997 291.582 52.935C291.417 52.7703 291.335 52.558 291.335 52.298C291.335 52.038 291.417 51.8257 291.582 51.661C291.755 51.4963 291.968 51.414 292.219 51.414C292.479 51.414 292.691 51.4963 292.856 51.661C293.021 51.8257 293.103 52.038 293.103 52.298C293.103 52.558 293.021 52.7703 292.856 52.935C292.691 53.0997 292.479 53.182 292.219 53.182Z" fill="white"/>
<path d="M173.61 51.167V49.061H171.53V47.839H173.61V45.733H174.884V47.839H176.964V49.061H174.884V51.167H173.61ZM181.619 53V44.862H181.411L179.916 47.93H178.473L180.488 43.9H182.984V53H181.619ZM185.722 53.182C185.418 53.182 185.163 53.0823 184.955 52.883C184.755 52.6837 184.656 52.428 184.656 52.116C184.656 51.804 184.755 51.5527 184.955 51.362C185.163 51.1627 185.418 51.063 185.722 51.063C186.025 51.063 186.276 51.1627 186.476 51.362C186.684 51.5613 186.788 51.8127 186.788 52.116C186.788 52.428 186.684 52.6837 186.476 52.883C186.276 53.0823 186.025 53.182 185.722 53.182ZM190.252 53V44.862H190.044L188.549 47.93H187.106L189.121 43.9H191.617V53H190.252ZM193.51 53V43.9H194.914V47.683H195.122L198.515 43.9H200.348L196.24 48.385L200.491 53H198.606L195.122 49.139H194.914V53H193.51Z" fill="#6CE54A"/>
<defs>
<clipPath id="clip0_4198_19021">
<rect width="20" height="20" fill="white" transform="translate(16 16)"/>
</clipPath>
</defs>
</svg>
