<svg width="345" height="93" viewBox="0 0 345 93" fill="none" xmlns="http://www.w3.org/2000/svg">
<rect width="345" height="93" rx="8" fill="#1F1F1F" fill-opacity="0.88"/>
<g clip-path="url(#clip0_4198_18984)">
<path d="M33.2645 24.511C31.7815 24.511 30.4084 24.0398 29.2871 23.239V29.0604C29.2871 31.9725 26.9252 34.3332 24.0117 34.3332C22.9246 34.3332 21.9142 34.0046 21.0749 33.4413C19.6646 32.4949 18.7361 30.8857 18.7361 29.0603C18.7361 26.1484 21.098 23.7877 24.0118 23.7878C24.2539 23.7876 24.4958 23.8041 24.7357 23.8368V24.4832L24.7355 26.7532C24.5046 26.6799 24.2585 26.6402 24.0031 26.6402C22.6703 26.6402 21.59 27.7201 21.59 29.0521C21.59 29.9938 22.13 30.8094 22.9174 31.2066C23.2439 31.3712 23.6127 31.4639 24.0032 31.4639C25.3333 31.4639 26.4117 30.3884 26.4163 29.0603V17.6665H29.2871V18.0334C29.2972 18.1431 29.3118 18.2524 29.3308 18.3609C29.5301 19.4968 30.2096 20.4673 31.1528 21.0555C31.7861 21.4507 32.518 21.6596 33.2645 21.6585L33.2645 24.511Z" fill="white" fill-opacity="0.9"/>
</g>
<path d="M48.354 31.196C47.6167 31.196 46.9633 31.0653 46.394 30.804C45.8247 30.5427 45.3767 30.16 45.05 29.656C44.7327 29.1427 44.574 28.522 44.574 27.794V27.444H46.072V27.794C46.072 28.4847 46.2773 29.0027 46.688 29.348C47.108 29.6933 47.6633 29.866 48.354 29.866C49.054 29.866 49.5813 29.7213 49.936 29.432C50.2907 29.1333 50.468 28.7507 50.468 28.284C50.468 27.976 50.384 27.724 50.216 27.528C50.048 27.332 49.81 27.178 49.502 27.066C49.194 26.9447 48.8253 26.8327 48.396 26.73L47.878 26.604C47.2527 26.4547 46.7067 26.2727 46.24 26.058C45.7827 25.834 45.428 25.54 45.176 25.176C44.924 24.812 44.798 24.3453 44.798 23.776C44.798 23.1973 44.938 22.7027 45.218 22.292C45.5073 21.8813 45.904 21.564 46.408 21.34C46.912 21.116 47.5047 21.004 48.186 21.004C48.8673 21.004 49.474 21.1207 50.006 21.354C50.5473 21.5873 50.972 21.9327 51.28 22.39C51.588 22.8473 51.742 23.4213 51.742 24.112V24.616H50.244V24.112C50.244 23.692 50.1553 23.3513 49.978 23.09C49.81 22.8287 49.572 22.6373 49.264 22.516C48.956 22.3947 48.5967 22.334 48.186 22.334C47.5887 22.334 47.122 22.46 46.786 22.712C46.4593 22.9547 46.296 23.2953 46.296 23.734C46.296 24.0327 46.366 24.28 46.506 24.476C46.6553 24.6627 46.87 24.8167 47.15 24.938C47.43 25.0593 47.78 25.1667 48.2 25.26L48.718 25.386C49.3527 25.526 49.9127 25.708 50.398 25.932C50.8833 26.1467 51.266 26.4407 51.546 26.814C51.826 27.1873 51.966 27.668 51.966 28.256C51.966 28.844 51.8167 29.3573 51.518 29.796C51.2287 30.2347 50.8133 30.58 50.272 30.832C49.7307 31.0747 49.0913 31.196 48.354 31.196ZM53.6933 31V21.2H55.2053V31H53.6933ZM60.7899 31.196C60.0899 31.196 59.4646 31.0467 58.9139 30.748C58.3633 30.44 57.9293 29.992 57.6119 29.404C57.2946 28.816 57.1359 28.0973 57.1359 27.248V24.952C57.1359 23.6733 57.4859 22.698 58.1859 22.026C58.8859 21.3447 59.8333 21.004 61.0279 21.004C62.2039 21.004 63.1093 21.326 63.7439 21.97C64.3786 22.6047 64.6959 23.4587 64.6959 24.532V24.602H63.1979V24.49C63.1979 24.0887 63.1186 23.7293 62.9599 23.412C62.8013 23.0853 62.5633 22.8287 62.2459 22.642C61.9286 22.4553 61.5226 22.362 61.0279 22.362C60.2813 22.362 59.6979 22.5907 59.2779 23.048C58.8579 23.496 58.6479 24.1213 58.6479 24.924V27.276C58.6479 28.0693 58.8579 28.6993 59.2779 29.166C59.6979 29.6233 60.2859 29.852 61.0419 29.852C61.7886 29.852 62.3346 29.6467 62.6799 29.236C63.0253 28.8253 63.1979 28.2933 63.1979 27.64V27.458H60.5659V26.156H64.6959V31H63.2959V30.006H63.0719C62.9879 30.1833 62.8619 30.3653 62.6939 30.552C62.5353 30.7387 62.3019 30.8927 61.9939 31.014C61.6953 31.1353 61.2939 31.196 60.7899 31.196ZM66.7838 31V21.2H69.6958L72.3558 29.992H72.5798V21.2H74.0778V31H71.1658L68.5058 22.194H68.2818V31H66.7838ZM76.2617 31V21.2H77.7737V31H76.2617ZM79.9564 31V21.2H86.0044V22.572H81.4684V25.4H85.6404V26.772H81.4684V31H79.9564ZM87.6159 31V21.2H89.1279V31H87.6159ZM94.9506 31.196C93.7559 31.196 92.8086 30.86 92.1086 30.188C91.4086 29.5067 91.0586 28.5267 91.0586 27.248V24.952C91.0586 23.6733 91.4086 22.698 92.1086 22.026C92.8086 21.3447 93.7559 21.004 94.9506 21.004C96.1266 21.004 97.0319 21.3307 97.6666 21.984C98.3106 22.6373 98.6326 23.5287 98.6326 24.658V24.742H97.1346V24.616C97.1346 23.9533 96.9526 23.412 96.5886 22.992C96.2339 22.572 95.6879 22.362 94.9506 22.362C94.2039 22.362 93.6206 22.5907 93.2006 23.048C92.7806 23.496 92.5706 24.1213 92.5706 24.924V27.276C92.5706 28.0693 92.7806 28.6947 93.2006 29.152C93.6206 29.6093 94.2039 29.838 94.9506 29.838C95.6879 29.838 96.2339 29.628 96.5886 29.208C96.9526 28.7787 97.1346 28.2373 97.1346 27.584V27.346H98.6326V27.542C98.6326 28.6713 98.3106 29.5627 97.6666 30.216C97.0319 30.8693 96.1266 31.196 94.9506 31.196ZM99.623 31L102.423 21.2H105.083L107.869 31H106.315L105.671 28.69H101.835L101.191 31H99.623ZM102.213 27.29H105.293L103.865 22.138H103.641L102.213 27.29ZM109.337 31V21.2H112.249L114.909 29.992H115.133V21.2H116.631V31H113.719L111.059 22.194H110.835V31H109.337ZM121.153 31V22.572H118.143V21.2H125.675V22.572H122.665V31H121.153ZM130.497 31V21.2H136.545V22.572H132.009V25.4H136.181V26.772H132.009V31H130.497ZM141.743 31.196C140.539 31.196 139.582 30.86 138.873 30.188C138.163 29.5067 137.809 28.5267 137.809 27.248V24.952C137.809 23.6733 138.163 22.698 138.873 22.026C139.582 21.3447 140.539 21.004 141.743 21.004C142.947 21.004 143.903 21.3447 144.613 22.026C145.331 22.698 145.691 23.6733 145.691 24.952V27.248C145.691 28.5267 145.331 29.5067 144.613 30.188C143.903 30.86 142.947 31.196 141.743 31.196ZM141.743 29.838C142.517 29.838 143.115 29.614 143.535 29.166C143.955 28.7087 144.165 28.088 144.165 27.304V24.896C144.165 24.112 143.955 23.496 143.535 23.048C143.115 22.5907 142.517 22.362 141.743 22.362C140.987 22.362 140.394 22.5907 139.965 23.048C139.535 23.496 139.321 24.112 139.321 24.896V27.304C139.321 28.088 139.535 28.7087 139.965 29.166C140.394 29.614 140.987 29.838 141.743 29.838ZM147.621 31V21.2H149.133V29.628H153.851V31H147.621ZM155.376 31V21.2H156.888V29.628H161.606V31H155.376ZM166.512 31.196C165.308 31.196 164.352 30.86 163.642 30.188C162.933 29.5067 162.578 28.5267 162.578 27.248V24.952C162.578 23.6733 162.933 22.698 163.642 22.026C164.352 21.3447 165.308 21.004 166.512 21.004C167.716 21.004 168.673 21.3447 169.382 22.026C170.101 22.698 170.46 23.6733 170.46 24.952V27.248C170.46 28.5267 170.101 29.5067 169.382 30.188C168.673 30.86 167.716 31.196 166.512 31.196ZM166.512 29.838C167.287 29.838 167.884 29.614 168.304 29.166C168.724 28.7087 168.934 28.088 168.934 27.304V24.896C168.934 24.112 168.724 23.496 168.304 23.048C167.884 22.5907 167.287 22.362 166.512 22.362C165.756 22.362 165.164 22.5907 164.734 23.048C164.305 23.496 164.09 24.112 164.09 24.896V27.304C164.09 28.088 164.305 28.7087 164.734 29.166C165.164 29.614 165.756 29.838 166.512 29.838ZM173.177 31L171.735 21.2H173.247L174.423 29.978H174.647L176.159 21.2H178.805L180.317 29.978H180.541L181.703 21.2H183.215L181.773 31H179.127L177.587 22.096H177.363L175.837 31H173.177ZM184.849 31V21.2H191.023V22.572H186.361V25.386H190.631V26.758H186.361V29.628H191.093V31H184.849ZM192.809 31V21.2H196.925C197.532 21.2 198.064 21.3073 198.521 21.522C198.988 21.7273 199.347 22.026 199.599 22.418C199.86 22.81 199.991 23.2767 199.991 23.818V23.972C199.991 24.588 199.842 25.0827 199.543 25.456C199.254 25.82 198.899 26.0767 198.479 26.226V26.45C198.834 26.4687 199.118 26.59 199.333 26.814C199.548 27.0287 199.655 27.3413 199.655 27.752V31H198.129V27.962C198.129 27.71 198.064 27.5093 197.933 27.36C197.802 27.2107 197.592 27.136 197.303 27.136H194.321V31H192.809ZM194.321 25.764H196.757C197.298 25.764 197.718 25.6287 198.017 25.358C198.316 25.078 198.465 24.7 198.465 24.224V24.112C198.465 23.636 198.316 23.2627 198.017 22.992C197.728 22.712 197.308 22.572 196.757 22.572H194.321V25.764ZM208.905 31.196C208.205 31.196 207.58 31.0467 207.029 30.748C206.478 30.44 206.044 29.992 205.727 29.404C205.41 28.816 205.251 28.0973 205.251 27.248V24.952C205.251 23.6733 205.601 22.698 206.301 22.026C207.001 21.3447 207.948 21.004 209.143 21.004C210.319 21.004 211.224 21.326 211.859 21.97C212.494 22.6047 212.811 23.4587 212.811 24.532V24.602H211.313V24.49C211.313 24.0887 211.234 23.7293 211.075 23.412C210.916 23.0853 210.678 22.8287 210.361 22.642C210.044 22.4553 209.638 22.362 209.143 22.362C208.396 22.362 207.813 22.5907 207.393 23.048C206.973 23.496 206.763 24.1213 206.763 24.924V27.276C206.763 28.0693 206.973 28.6993 207.393 29.166C207.813 29.6233 208.401 29.852 209.157 29.852C209.904 29.852 210.45 29.6467 210.795 29.236C211.14 28.8253 211.313 28.2933 211.313 27.64V27.458H208.681V26.156H212.811V31H211.411V30.006H211.187C211.103 30.1833 210.977 30.3653 210.809 30.552C210.65 30.7387 210.417 30.8927 210.109 31.014C209.81 31.1353 209.409 31.196 208.905 31.196ZM214.899 31V21.2H219.015C219.622 21.2 220.154 21.3073 220.611 21.522C221.078 21.7273 221.437 22.026 221.689 22.418C221.95 22.81 222.081 23.2767 222.081 23.818V23.972C222.081 24.588 221.932 25.0827 221.633 25.456C221.344 25.82 220.989 26.0767 220.569 26.226V26.45C220.924 26.4687 221.208 26.59 221.423 26.814C221.638 27.0287 221.745 27.3413 221.745 27.752V31H220.219V27.962C220.219 27.71 220.154 27.5093 220.023 27.36C219.892 27.2107 219.682 27.136 219.393 27.136H216.411V31H214.899ZM216.411 25.764H218.847C219.388 25.764 219.808 25.6287 220.107 25.358C220.406 25.078 220.555 24.7 220.555 24.224V24.112C220.555 23.636 220.406 23.2627 220.107 22.992C219.818 22.712 219.398 22.572 218.847 22.572H216.411V25.764ZM227.567 31.196C226.363 31.196 225.406 30.86 224.697 30.188C223.987 29.5067 223.633 28.5267 223.633 27.248V24.952C223.633 23.6733 223.987 22.698 224.697 22.026C225.406 21.3447 226.363 21.004 227.567 21.004C228.771 21.004 229.727 21.3447 230.437 22.026C231.155 22.698 231.515 23.6733 231.515 24.952V27.248C231.515 28.5267 231.155 29.5067 230.437 30.188C229.727 30.86 228.771 31.196 227.567 31.196ZM227.567 29.838C228.341 29.838 228.939 29.614 229.359 29.166C229.779 28.7087 229.989 28.088 229.989 27.304V24.896C229.989 24.112 229.779 23.496 229.359 23.048C228.939 22.5907 228.341 22.362 227.567 22.362C226.811 22.362 226.218 22.5907 225.789 23.048C225.359 23.496 225.145 24.112 225.145 24.896V27.304C225.145 28.088 225.359 28.7087 225.789 29.166C226.218 29.614 226.811 29.838 227.567 29.838ZM234.231 31L232.789 21.2H234.301L235.477 29.978H235.701L237.213 21.2H239.859L241.371 29.978H241.595L242.757 21.2H244.269L242.827 31H240.181L238.641 22.096H238.417L236.891 31H234.231ZM248.241 31V22.572H245.231V21.2H252.763V22.572H249.753V31H248.241ZM254.273 31V21.2H255.785V25.4H259.901V21.2H261.413V31H259.901V26.772H255.785V31H254.273Z" fill="#C9C9C9"/>
<path d="M47.419 53.182C46.5263 53.182 45.82 52.9307 45.3 52.428C44.7887 51.9253 44.533 51.206 44.533 50.27V49.568H45.612V50.27C45.612 50.8333 45.7593 51.2927 46.054 51.648C46.3573 52.0033 46.808 52.181 47.406 52.181C48.0127 52.181 48.4417 52.0077 48.693 51.661C48.9443 51.3057 49.07 50.842 49.07 50.27V44.888H47.471V43.9H51.15V44.888H50.162V50.27C50.162 51.2147 49.928 51.9383 49.46 52.441C48.992 52.935 48.3117 53.182 47.419 53.182ZM54.405 53.182C53.963 53.182 53.56 53.104 53.196 52.948C52.832 52.792 52.546 52.5667 52.338 52.272C52.13 51.9773 52.026 51.6177 52.026 51.193C52.026 50.7597 52.13 50.4043 52.338 50.127C52.546 49.841 52.832 49.6287 53.196 49.49C53.56 49.3427 53.9673 49.269 54.418 49.269H56.563V48.801C56.563 48.3503 56.4286 47.995 56.16 47.735C55.9 47.475 55.51 47.345 54.99 47.345C54.4786 47.345 54.08 47.4707 53.794 47.722C53.508 47.9647 53.313 48.294 53.209 48.71L52.247 48.398C52.351 48.0427 52.5156 47.722 52.741 47.436C52.9663 47.1413 53.2653 46.9073 53.638 46.734C54.0193 46.552 54.4743 46.461 55.003 46.461C55.8176 46.461 56.4503 46.6733 56.901 47.098C57.3516 47.514 57.577 48.1033 57.577 48.866V51.739C57.577 51.999 57.6983 52.129 57.941 52.129H58.526V53H57.629C57.343 53 57.1133 52.922 56.94 52.766C56.7666 52.6013 56.68 52.3847 56.68 52.116V52.051H56.524C56.4286 52.2157 56.2986 52.389 56.134 52.571C55.978 52.7443 55.7613 52.8873 55.484 53C55.2066 53.1213 54.847 53.182 54.405 53.182ZM54.522 52.298C55.1286 52.298 55.6183 52.1203 55.991 51.765C56.3723 51.401 56.563 50.894 56.563 50.244V50.101H54.457C54.0496 50.101 53.7116 50.192 53.443 50.374C53.183 50.5473 53.053 50.8117 53.053 51.167C53.053 51.5223 53.1873 51.7997 53.456 51.999C53.7333 52.1983 54.0886 52.298 54.522 52.298ZM59.9325 53V46.643H60.9335V47.722H61.1155C61.2542 47.4187 61.4882 47.1457 61.8175 46.903C62.1555 46.6517 62.6495 46.526 63.2995 46.526C63.7762 46.526 64.2008 46.6257 64.5735 46.825C64.9548 47.0243 65.2582 47.319 65.4835 47.709C65.7088 48.099 65.8215 48.58 65.8215 49.152V53H64.7945V49.23C64.7945 48.5973 64.6342 48.138 64.3135 47.852C64.0015 47.566 63.5768 47.423 63.0395 47.423C62.4242 47.423 61.9215 47.6223 61.5315 48.021C61.1502 48.4197 60.9595 49.0133 60.9595 49.802V53H59.9325ZM67.9052 53V46.643H68.9062V47.722H69.0882C69.2268 47.4187 69.4608 47.1457 69.7902 46.903C70.1282 46.6517 70.6222 46.526 71.2722 46.526C71.7488 46.526 72.1735 46.6257 72.5462 46.825C72.9275 47.0243 73.2308 47.319 73.4562 47.709C73.6815 48.099 73.7942 48.58 73.7942 49.152V53H72.7672V49.23C72.7672 48.5973 72.6068 48.138 72.2862 47.852C71.9742 47.566 71.5495 47.423 71.0122 47.423C70.3968 47.423 69.8942 47.6223 69.5042 48.021C69.1228 48.4197 68.9322 49.0133 68.9322 49.802V53H67.9052ZM78.7898 53.182C78.1485 53.182 77.5852 53.0477 77.0998 52.779C76.6145 52.5017 76.2375 52.116 75.9688 51.622C75.7002 51.128 75.5658 50.556 75.5658 49.906V49.75C75.5658 49.0913 75.7002 48.515 75.9688 48.021C76.2375 47.527 76.6102 47.1457 77.0868 46.877C77.5635 46.5997 78.1095 46.461 78.7248 46.461C79.3228 46.461 79.8515 46.591 80.3108 46.851C80.7702 47.1023 81.1298 47.4663 81.3898 47.943C81.6498 48.4197 81.7798 48.9787 81.7798 49.62V50.088H76.5928C76.6188 50.7727 76.8398 51.31 77.2558 51.7C77.6718 52.0813 78.1918 52.272 78.8158 52.272C79.3618 52.272 79.7822 52.1463 80.0768 51.895C80.3715 51.6437 80.5968 51.3447 80.7528 50.998L81.6368 51.427C81.5068 51.6957 81.3248 51.9643 81.0908 52.233C80.8655 52.5017 80.5665 52.727 80.1938 52.909C79.8298 53.091 79.3618 53.182 78.7898 53.182ZM76.6058 49.243H80.7398C80.7052 48.6537 80.5015 48.1943 80.1288 47.865C79.7648 47.5357 79.2968 47.371 78.7248 47.371C78.1442 47.371 77.6675 47.5357 77.2948 47.865C76.9222 48.1943 76.6925 48.6537 76.6058 49.243ZM85.6446 53C85.2806 53 84.9989 52.9003 84.7996 52.701C84.6089 52.5017 84.5136 52.2287 84.5136 51.882V47.54H82.6026V46.643H84.5136V44.381H85.5406V46.643H87.6206V47.54H85.5406V51.726C85.5406 51.986 85.6663 52.116 85.9176 52.116H87.3346V53H85.6446ZM92.5839 53V43.9H94.6639L97.0819 52.311H97.2509L99.6689 43.9H101.749V53H100.696V44.615H100.514L98.1089 53H96.2239L93.8189 44.615H93.6369V53H92.5839ZM103.871 53V46.643H104.898V53H103.871ZM104.391 45.655C104.166 45.655 103.975 45.5813 103.819 45.434C103.672 45.2867 103.598 45.1003 103.598 44.875C103.598 44.641 103.672 44.4503 103.819 44.303C103.975 44.1557 104.166 44.082 104.391 44.082C104.616 44.082 104.803 44.1557 104.95 44.303C105.097 44.4503 105.171 44.641 105.171 44.875C105.171 45.1003 105.097 45.2867 104.95 45.434C104.803 45.5813 104.616 45.655 104.391 45.655ZM109.983 53.182C109.367 53.182 108.813 53.052 108.319 52.792C107.833 52.5233 107.448 52.142 107.162 51.648C106.884 51.154 106.746 50.569 106.746 49.893V49.75C106.746 49.0653 106.884 48.4803 107.162 47.995C107.448 47.501 107.833 47.124 108.319 46.864C108.813 46.5953 109.367 46.461 109.983 46.461C110.589 46.461 111.105 46.5737 111.53 46.799C111.963 47.0243 112.301 47.3233 112.544 47.696C112.795 48.0687 112.955 48.4673 113.025 48.892L112.024 49.1C111.98 48.788 111.876 48.502 111.712 48.242C111.556 47.982 111.335 47.774 111.049 47.618C110.763 47.462 110.412 47.384 109.996 47.384C109.571 47.384 109.19 47.4793 108.852 47.67C108.522 47.8607 108.258 48.1337 108.059 48.489C107.868 48.8443 107.773 49.269 107.773 49.763V49.88C107.773 50.374 107.868 50.7987 108.059 51.154C108.258 51.5093 108.522 51.7823 108.852 51.973C109.19 52.1637 109.571 52.259 109.996 52.259C110.628 52.259 111.109 52.0943 111.439 51.765C111.777 51.4357 111.985 51.0283 112.063 50.543L113.077 50.764C112.981 51.18 112.808 51.5743 112.557 51.947C112.305 52.3197 111.963 52.6187 111.53 52.844C111.105 53.0693 110.589 53.182 109.983 53.182ZM114.827 53V43.9H115.854V47.657H116.036C116.123 47.4663 116.253 47.2887 116.426 47.124C116.608 46.9507 116.838 46.8077 117.115 46.695C117.401 46.5823 117.761 46.526 118.194 46.526C118.671 46.526 119.095 46.63 119.468 46.838C119.849 47.0373 120.153 47.332 120.378 47.722C120.603 48.1033 120.716 48.58 120.716 49.152V53H119.689V49.23C119.689 48.5973 119.529 48.138 119.208 47.852C118.896 47.566 118.471 47.423 117.934 47.423C117.319 47.423 116.816 47.6223 116.426 48.021C116.045 48.4197 115.854 49.0133 115.854 49.802V53H114.827ZM124.75 53.182C124.308 53.182 123.905 53.104 123.541 52.948C123.177 52.792 122.891 52.5667 122.683 52.272C122.475 51.9773 122.371 51.6177 122.371 51.193C122.371 50.7597 122.475 50.4043 122.683 50.127C122.891 49.841 123.177 49.6287 123.541 49.49C123.905 49.3427 124.312 49.269 124.763 49.269H126.908V48.801C126.908 48.3503 126.773 47.995 126.505 47.735C126.245 47.475 125.855 47.345 125.335 47.345C124.823 47.345 124.425 47.4707 124.139 47.722C123.853 47.9647 123.658 48.294 123.554 48.71L122.592 48.398C122.696 48.0427 122.86 47.722 123.086 47.436C123.311 47.1413 123.61 46.9073 123.983 46.734C124.364 46.552 124.819 46.461 125.348 46.461C126.162 46.461 126.795 46.6733 127.246 47.098C127.696 47.514 127.922 48.1033 127.922 48.866V51.739C127.922 51.999 128.043 52.129 128.286 52.129H128.871V53H127.974C127.688 53 127.458 52.922 127.285 52.766C127.111 52.6013 127.025 52.3847 127.025 52.116V52.051H126.869C126.773 52.2157 126.643 52.389 126.479 52.571C126.323 52.7443 126.106 52.8873 125.829 53C125.551 53.1213 125.192 53.182 124.75 53.182ZM124.867 52.298C125.473 52.298 125.963 52.1203 126.336 51.765C126.717 51.401 126.908 50.894 126.908 50.244V50.101H124.802C124.394 50.101 124.056 50.192 123.788 50.374C123.528 50.5473 123.398 50.8117 123.398 51.167C123.398 51.5223 123.532 51.7997 123.801 51.999C124.078 52.1983 124.433 52.298 124.867 52.298ZM133.012 53.182C132.37 53.182 131.807 53.0477 131.322 52.779C130.836 52.5017 130.459 52.116 130.191 51.622C129.922 51.128 129.788 50.556 129.788 49.906V49.75C129.788 49.0913 129.922 48.515 130.191 48.021C130.459 47.527 130.832 47.1457 131.309 46.877C131.785 46.5997 132.331 46.461 132.947 46.461C133.545 46.461 134.073 46.591 134.533 46.851C134.992 47.1023 135.352 47.4663 135.612 47.943C135.872 48.4197 136.002 48.9787 136.002 49.62V50.088H130.815C130.841 50.7727 131.062 51.31 131.478 51.7C131.894 52.0813 132.414 52.272 133.038 52.272C133.584 52.272 134.004 52.1463 134.299 51.895C134.593 51.6437 134.819 51.3447 134.975 50.998L135.859 51.427C135.729 51.6957 135.547 51.9643 135.313 52.233C135.087 52.5017 134.788 52.727 134.416 52.909C134.052 53.091 133.584 53.182 133.012 53.182ZM130.828 49.243H134.962C134.927 48.6537 134.723 48.1943 134.351 47.865C133.987 47.5357 133.519 47.371 132.947 47.371C132.366 47.371 131.889 47.5357 131.517 47.865C131.144 48.1943 130.914 48.6537 130.828 49.243ZM137.793 53V43.9H138.82V53H137.793ZM140.875 46.916V46.266H141.252C141.564 46.266 141.72 46.11 141.72 45.798V45.382H141.538C141.287 45.382 141.075 45.304 140.901 45.148C140.737 44.992 140.654 44.797 140.654 44.563C140.654 44.3117 140.737 44.108 140.901 43.952C141.075 43.796 141.287 43.718 141.538 43.718C141.79 43.718 141.998 43.8003 142.162 43.965C142.327 44.1297 142.409 44.3377 142.409 44.589V45.798C142.409 46.5433 142.037 46.916 141.291 46.916H140.875ZM146.752 53.182C145.964 53.182 145.296 53 144.75 52.636C144.213 52.272 143.888 51.6957 143.775 50.907L144.75 50.686C144.82 51.102 144.95 51.4313 145.14 51.674C145.331 51.908 145.565 52.077 145.842 52.181C146.128 52.2763 146.432 52.324 146.752 52.324C147.229 52.324 147.606 52.2287 147.883 52.038C148.161 51.8473 148.299 51.5917 148.299 51.271C148.299 50.9417 148.165 50.712 147.896 50.582C147.636 50.4433 147.277 50.3307 146.817 50.244L146.284 50.153C145.877 50.0837 145.504 49.9753 145.166 49.828C144.828 49.6807 144.56 49.4813 144.36 49.23C144.161 48.9787 144.061 48.6623 144.061 48.281C144.061 47.709 144.282 47.2627 144.724 46.942C145.166 46.6213 145.751 46.461 146.479 46.461C147.199 46.461 147.779 46.6257 148.221 46.955C148.672 47.2757 148.962 47.7307 149.092 48.32L148.13 48.567C148.052 48.1077 147.866 47.787 147.571 47.605C147.277 47.4143 146.913 47.319 146.479 47.319C146.046 47.319 145.704 47.4013 145.452 47.566C145.201 47.722 145.075 47.956 145.075 48.268C145.075 48.5713 145.192 48.7967 145.426 48.944C145.669 49.0827 145.99 49.1867 146.388 49.256L146.921 49.347C147.372 49.425 147.775 49.5333 148.13 49.672C148.494 49.802 148.78 49.9927 148.988 50.244C149.205 50.4953 149.313 50.8247 149.313 51.232C149.313 51.856 149.079 52.337 148.611 52.675C148.152 53.013 147.532 53.182 146.752 53.182ZM155.634 53V47.54H153.684V46.643H155.634V45.018C155.634 44.6713 155.729 44.3983 155.92 44.199C156.119 43.9997 156.401 43.9 156.765 43.9H158.364V44.784H157.051C156.791 44.784 156.661 44.914 156.661 45.174V46.643H158.663V47.54H156.661V53H155.634ZM162.757 53.182C162.116 53.182 161.548 53.0477 161.054 52.779C160.569 52.5103 160.188 52.1333 159.91 51.648C159.642 51.154 159.507 50.5733 159.507 49.906V49.737C159.507 49.0783 159.642 48.502 159.91 48.008C160.188 47.514 160.569 47.1327 161.054 46.864C161.548 46.5953 162.116 46.461 162.757 46.461C163.399 46.461 163.962 46.5953 164.447 46.864C164.941 47.1327 165.323 47.514 165.591 48.008C165.869 48.502 166.007 49.0783 166.007 49.737V49.906C166.007 50.5733 165.869 51.154 165.591 51.648C165.323 52.1333 164.941 52.5103 164.447 52.779C163.962 53.0477 163.399 53.182 162.757 53.182ZM162.757 52.259C163.433 52.259 163.971 52.0467 164.369 51.622C164.777 51.1887 164.98 50.608 164.98 49.88V49.763C164.98 49.035 164.777 48.4587 164.369 48.034C163.971 47.6007 163.433 47.384 162.757 47.384C162.09 47.384 161.553 47.6007 161.145 48.034C160.738 48.4587 160.534 49.035 160.534 49.763V49.88C160.534 50.608 160.738 51.1887 161.145 51.622C161.553 52.0467 162.09 52.259 162.757 52.259ZM167.855 53V43.9H168.882V53H167.855ZM171.042 53V43.9H172.069V53H171.042ZM177.166 53.182C176.525 53.182 175.957 53.0477 175.463 52.779C174.978 52.5103 174.597 52.1333 174.319 51.648C174.051 51.154 173.916 50.5733 173.916 49.906V49.737C173.916 49.0783 174.051 48.502 174.319 48.008C174.597 47.514 174.978 47.1327 175.463 46.864C175.957 46.5953 176.525 46.461 177.166 46.461C177.808 46.461 178.371 46.5953 178.856 46.864C179.35 47.1327 179.732 47.514 180 48.008C180.278 48.502 180.416 49.0783 180.416 49.737V49.906C180.416 50.5733 180.278 51.154 180 51.648C179.732 52.1333 179.35 52.5103 178.856 52.779C178.371 53.0477 177.808 53.182 177.166 53.182ZM177.166 52.259C177.842 52.259 178.38 52.0467 178.778 51.622C179.186 51.1887 179.389 50.608 179.389 49.88V49.763C179.389 49.035 179.186 48.4587 178.778 48.034C178.38 47.6007 177.842 47.384 177.166 47.384C176.499 47.384 175.962 47.6007 175.554 48.034C175.147 48.4587 174.943 49.035 174.943 49.763V49.88C174.943 50.608 175.147 51.1887 175.554 51.622C175.962 52.0467 176.499 52.259 177.166 52.259ZM183.022 53L181.748 46.643H182.788L183.841 52.311H184.023L185.414 46.643H187.117L188.508 52.311H188.69L189.743 46.643H190.783L189.509 53H187.754L186.35 47.332H186.181L184.777 53H183.022ZM192.548 53V46.643H193.575V53H192.548ZM193.068 45.655C192.842 45.655 192.652 45.5813 192.496 45.434C192.348 45.2867 192.275 45.1003 192.275 44.875C192.275 44.641 192.348 44.4503 192.496 44.303C192.652 44.1557 192.842 44.082 193.068 44.082C193.293 44.082 193.479 44.1557 193.627 44.303C193.774 44.4503 193.848 44.641 193.848 44.875C193.848 45.1003 193.774 45.2867 193.627 45.434C193.479 45.5813 193.293 45.655 193.068 45.655ZM195.734 53V46.643H196.735V47.722H196.917C197.056 47.4187 197.29 47.1457 197.619 46.903C197.957 46.6517 198.451 46.526 199.101 46.526C199.578 46.526 200.003 46.6257 200.375 46.825C200.757 47.0243 201.06 47.319 201.285 47.709C201.511 48.099 201.623 48.58 201.623 49.152V53H200.596V49.23C200.596 48.5973 200.436 48.138 200.115 47.852C199.803 47.566 199.379 47.423 198.841 47.423C198.226 47.423 197.723 47.6223 197.333 48.021C196.952 48.4197 196.761 49.0133 196.761 49.802V53H195.734ZM203.395 49.854V49.672C203.395 49.0047 203.529 48.4327 203.798 47.956C204.067 47.4793 204.431 47.111 204.89 46.851C205.349 46.591 205.852 46.461 206.398 46.461C207.065 46.461 207.577 46.591 207.932 46.851C208.296 47.1023 208.565 47.384 208.738 47.696H208.92V46.643H209.895V54.482C209.895 54.8287 209.8 55.1017 209.609 55.301C209.418 55.5003 209.141 55.6 208.777 55.6H204.461V54.69H208.504C208.764 54.69 208.894 54.56 208.894 54.3V51.882H208.712C208.608 52.0727 208.461 52.259 208.27 52.441C208.079 52.623 207.832 52.7747 207.529 52.896C207.226 53.0087 206.849 53.065 206.398 53.065C205.852 53.065 205.349 52.935 204.89 52.675C204.431 52.415 204.067 52.0467 203.798 51.57C203.529 51.0847 203.395 50.5127 203.395 49.854ZM206.671 52.155C207.33 52.155 207.863 51.947 208.27 51.531C208.686 51.115 208.894 50.543 208.894 49.815V49.711C208.894 48.9743 208.686 48.4023 208.27 47.995C207.863 47.579 207.33 47.371 206.671 47.371C206.021 47.371 205.484 47.579 205.059 47.995C204.643 48.4023 204.435 48.9743 204.435 49.711V49.815C204.435 50.543 204.643 51.115 205.059 51.531C205.484 51.947 206.021 52.155 206.671 52.155ZM215.387 53V46.643H216.414V53H215.387ZM215.907 45.655C215.681 45.655 215.491 45.5813 215.335 45.434C215.187 45.2867 215.114 45.1003 215.114 44.875C215.114 44.641 215.187 44.4503 215.335 44.303C215.491 44.1557 215.681 44.082 215.907 44.082C216.132 44.082 216.318 44.1557 216.466 44.303C216.613 44.4503 216.687 44.641 216.687 44.875C216.687 45.1003 216.613 45.2867 216.466 45.434C216.318 45.5813 216.132 45.655 215.907 45.655ZM218.573 53V46.643H219.574V47.722H219.756C219.895 47.4187 220.129 47.1457 220.458 46.903C220.796 46.6517 221.29 46.526 221.94 46.526C222.417 46.526 222.841 46.6257 223.214 46.825C223.595 47.0243 223.899 47.319 224.124 47.709C224.349 48.099 224.462 48.58 224.462 49.152V53H223.435V49.23C223.435 48.5973 223.275 48.138 222.954 47.852C222.642 47.566 222.217 47.423 221.68 47.423C221.065 47.423 220.562 47.6223 220.172 48.021C219.791 48.4197 219.6 49.0133 219.6 49.802V53H218.573ZM229.471 53.182C228.855 53.182 228.301 53.052 227.807 52.792C227.321 52.5233 226.936 52.142 226.65 51.648C226.372 51.154 226.234 50.569 226.234 49.893V49.75C226.234 49.0653 226.372 48.4803 226.65 47.995C226.936 47.501 227.321 47.124 227.807 46.864C228.301 46.5953 228.855 46.461 229.471 46.461C230.077 46.461 230.593 46.5737 231.018 46.799C231.451 47.0243 231.789 47.3233 232.032 47.696C232.283 48.0687 232.443 48.4673 232.513 48.892L231.512 49.1C231.468 48.788 231.364 48.502 231.2 48.242C231.044 47.982 230.823 47.774 230.537 47.618C230.251 47.462 229.9 47.384 229.484 47.384C229.059 47.384 228.678 47.4793 228.34 47.67C228.01 47.8607 227.746 48.1337 227.547 48.489C227.356 48.8443 227.261 49.269 227.261 49.763V49.88C227.261 50.374 227.356 50.7987 227.547 51.154C227.746 51.5093 228.01 51.7823 228.34 51.973C228.678 52.1637 229.059 52.259 229.484 52.259C230.116 52.259 230.597 52.0943 230.927 51.765C231.265 51.4357 231.473 51.0283 231.551 50.543L232.565 50.764C232.469 51.18 232.296 51.5743 232.045 51.947C231.793 52.3197 231.451 52.6187 231.018 52.844C230.593 53.0693 230.077 53.182 229.471 53.182ZM234.315 53V46.643H235.316V47.423H235.498C235.611 47.1457 235.784 46.942 236.018 46.812C236.252 46.682 236.56 46.617 236.941 46.617H237.695V47.553H236.876C236.417 47.553 236.044 47.683 235.758 47.943C235.481 48.1943 235.342 48.5887 235.342 49.126V53H234.315ZM241.899 53.182C241.258 53.182 240.695 53.0477 240.209 52.779C239.724 52.5017 239.347 52.116 239.078 51.622C238.81 51.128 238.675 50.556 238.675 49.906V49.75C238.675 49.0913 238.81 48.515 239.078 48.021C239.347 47.527 239.72 47.1457 240.196 46.877C240.673 46.5997 241.219 46.461 241.834 46.461C242.432 46.461 242.961 46.591 243.42 46.851C243.88 47.1023 244.239 47.4663 244.499 47.943C244.759 48.4197 244.889 48.9787 244.889 49.62V50.088H239.702C239.728 50.7727 239.949 51.31 240.365 51.7C240.781 52.0813 241.301 52.272 241.925 52.272C242.471 52.272 242.892 52.1463 243.186 51.895C243.481 51.6437 243.706 51.3447 243.862 50.998L244.746 51.427C244.616 51.6957 244.434 51.9643 244.2 52.233C243.975 52.5017 243.676 52.727 243.303 52.909C242.939 53.091 242.471 53.182 241.899 53.182ZM239.715 49.243H243.849C243.815 48.6537 243.611 48.1943 243.238 47.865C242.874 47.5357 242.406 47.371 241.834 47.371C241.254 47.371 240.777 47.5357 240.404 47.865C240.032 48.1943 239.802 48.6537 239.715 49.243ZM248.631 53.182C248.189 53.182 247.786 53.104 247.422 52.948C247.058 52.792 246.772 52.5667 246.564 52.272C246.356 51.9773 246.252 51.6177 246.252 51.193C246.252 50.7597 246.356 50.4043 246.564 50.127C246.772 49.841 247.058 49.6287 247.422 49.49C247.786 49.3427 248.193 49.269 248.644 49.269H250.789V48.801C250.789 48.3503 250.654 47.995 250.386 47.735C250.126 47.475 249.736 47.345 249.216 47.345C248.704 47.345 248.306 47.4707 248.02 47.722C247.734 47.9647 247.539 48.294 247.435 48.71L246.473 48.398C246.577 48.0427 246.741 47.722 246.967 47.436C247.192 47.1413 247.491 46.9073 247.864 46.734C248.245 46.552 248.7 46.461 249.229 46.461C250.043 46.461 250.676 46.6733 251.127 47.098C251.577 47.514 251.803 48.1033 251.803 48.866V51.739C251.803 51.999 251.924 52.129 252.167 52.129H252.752V53H251.855C251.569 53 251.339 52.922 251.166 52.766C250.992 52.6013 250.906 52.3847 250.906 52.116V52.051H250.75C250.654 52.2157 250.524 52.389 250.36 52.571C250.204 52.7443 249.987 52.8873 249.71 53C249.432 53.1213 249.073 53.182 248.631 53.182ZM248.748 52.298C249.354 52.298 249.844 52.1203 250.217 51.765C250.598 51.401 250.789 50.894 250.789 50.244V50.101H248.683C248.275 50.101 247.937 50.192 247.669 50.374C247.409 50.5473 247.279 50.8117 247.279 51.167C247.279 51.5223 247.413 51.7997 247.682 51.999C247.959 52.1983 248.314 52.298 248.748 52.298ZM256.668 53.182C255.88 53.182 255.212 53 254.666 52.636C254.129 52.272 253.804 51.6957 253.691 50.907L254.666 50.686C254.736 51.102 254.866 51.4313 255.056 51.674C255.247 51.908 255.481 52.077 255.758 52.181C256.044 52.2763 256.348 52.324 256.668 52.324C257.145 52.324 257.522 52.2287 257.799 52.038C258.077 51.8473 258.215 51.5917 258.215 51.271C258.215 50.9417 258.081 50.712 257.812 50.582C257.552 50.4433 257.193 50.3307 256.733 50.244L256.2 50.153C255.793 50.0837 255.42 49.9753 255.082 49.828C254.744 49.6807 254.476 49.4813 254.276 49.23C254.077 48.9787 253.977 48.6623 253.977 48.281C253.977 47.709 254.198 47.2627 254.64 46.942C255.082 46.6213 255.667 46.461 256.395 46.461C257.115 46.461 257.695 46.6257 258.137 46.955C258.588 47.2757 258.878 47.7307 259.008 48.32L258.046 48.567C257.968 48.1077 257.782 47.787 257.487 47.605C257.193 47.4143 256.829 47.319 256.395 47.319C255.962 47.319 255.62 47.4013 255.368 47.566C255.117 47.722 254.991 47.956 254.991 48.268C254.991 48.5713 255.108 48.7967 255.342 48.944C255.585 49.0827 255.906 49.1867 256.304 49.256L256.837 49.347C257.288 49.425 257.691 49.5333 258.046 49.672C258.41 49.802 258.696 49.9927 258.904 50.244C259.121 50.4953 259.229 50.8247 259.229 51.232C259.229 51.856 258.995 52.337 258.527 52.675C258.068 53.013 257.448 53.182 256.668 53.182ZM263.875 53.182C263.233 53.182 262.67 53.0477 262.185 52.779C261.699 52.5017 261.322 52.116 261.054 51.622C260.785 51.128 260.651 50.556 260.651 49.906V49.75C260.651 49.0913 260.785 48.515 261.054 48.021C261.322 47.527 261.695 47.1457 262.172 46.877C262.648 46.5997 263.194 46.461 263.81 46.461C264.408 46.461 264.936 46.591 265.396 46.851C265.855 47.1023 266.215 47.4663 266.475 47.943C266.735 48.4197 266.865 48.9787 266.865 49.62V50.088H261.678C261.704 50.7727 261.925 51.31 262.341 51.7C262.757 52.0813 263.277 52.272 263.901 52.272C264.447 52.272 264.867 52.1463 265.162 51.895C265.456 51.6437 265.682 51.3447 265.838 50.998L266.722 51.427C266.592 51.6957 266.41 51.9643 266.176 52.233C265.95 52.5017 265.651 52.727 265.279 52.909C264.915 53.091 264.447 53.182 263.875 53.182ZM261.691 49.243H265.825C265.79 48.6537 265.586 48.1943 265.214 47.865C264.85 47.5357 264.382 47.371 263.81 47.371C263.229 47.371 262.752 47.5357 262.38 47.865C262.007 48.1943 261.777 48.6537 261.691 49.243ZM271.347 53.182C270.801 53.182 270.298 53.052 269.839 52.792C269.38 52.532 269.016 52.155 268.747 51.661C268.478 51.167 268.344 50.582 268.344 49.906V49.737C268.344 49.061 268.478 48.4803 268.747 47.995C269.016 47.501 269.375 47.124 269.826 46.864C270.285 46.5953 270.792 46.461 271.347 46.461C271.789 46.461 272.162 46.5217 272.465 46.643C272.777 46.7557 273.028 46.903 273.219 47.085C273.41 47.2583 273.557 47.4447 273.661 47.644H273.843V43.9H274.87V53H273.869V51.947H273.687C273.514 52.2677 273.245 52.5537 272.881 52.805C272.517 53.0563 272.006 53.182 271.347 53.182ZM271.62 52.272C272.279 52.272 272.812 52.064 273.219 51.648C273.635 51.2233 273.843 50.634 273.843 49.88V49.763C273.843 49.009 273.635 48.424 273.219 48.008C272.812 47.5833 272.279 47.371 271.62 47.371C270.97 47.371 270.433 47.5833 270.008 48.008C269.592 48.424 269.384 49.009 269.384 49.763V49.88C269.384 50.634 269.592 51.2233 270.008 51.648C270.433 52.064 270.97 52.272 271.62 52.272ZM283.884 53.182C283.226 53.182 282.71 53.0563 282.337 52.805C281.973 52.5537 281.709 52.2677 281.544 51.947H281.362V53H280.361V43.9H281.388V47.644H281.57C281.674 47.4447 281.822 47.2583 282.012 47.085C282.203 46.903 282.45 46.7557 282.753 46.643C283.065 46.5217 283.442 46.461 283.884 46.461C284.439 46.461 284.942 46.5953 285.392 46.864C285.852 47.124 286.216 47.501 286.484 47.995C286.753 48.4803 286.887 49.061 286.887 49.737V49.906C286.887 50.582 286.749 51.167 286.471 51.661C286.203 52.155 285.839 52.532 285.379 52.792C284.929 53.052 284.43 53.182 283.884 53.182ZM283.611 52.272C284.27 52.272 284.803 52.064 285.21 51.648C285.626 51.2233 285.834 50.634 285.834 49.88V49.763C285.834 49.009 285.626 48.424 285.21 48.008C284.803 47.5833 284.27 47.371 283.611 47.371C282.961 47.371 282.424 47.5833 281.999 48.008C281.583 48.424 281.375 49.009 281.375 49.763V49.88C281.375 50.634 281.583 51.2233 281.999 51.648C282.424 52.064 282.961 52.272 283.611 52.272ZM289.494 55.6V54.69H293.134C293.386 54.69 293.511 54.56 293.511 54.3V51.986H293.329C293.243 52.168 293.108 52.35 292.926 52.532C292.753 52.7053 292.523 52.8483 292.237 52.961C291.951 53.065 291.592 53.117 291.158 53.117C290.699 53.117 290.274 53.0173 289.884 52.818C289.503 52.6187 289.2 52.324 288.974 51.934C288.758 51.544 288.649 51.0673 288.649 50.504V46.643H289.676V50.426C289.676 51.05 289.832 51.505 290.144 51.791C290.465 52.077 290.894 52.22 291.431 52.22C292.038 52.22 292.536 52.0207 292.926 51.622C293.316 51.2233 293.511 50.6297 293.511 49.841V46.643H294.538V54.482C294.538 54.8287 294.439 55.1017 294.239 55.301C294.049 55.5003 293.767 55.6 293.394 55.6H289.494ZM76.7387 70.625V69.975H77.1157C77.4277 69.975 77.5837 69.819 77.5837 69.507V69.091H77.4017C77.1503 69.091 76.938 69.013 76.7647 68.857C76.6 68.701 76.5177 68.506 76.5177 68.272C76.5177 68.0207 76.6 67.817 76.7647 67.661C76.938 67.505 77.1503 67.427 77.4017 67.427C77.653 67.427 77.861 67.5093 78.0257 67.674C78.1903 67.8387 78.2727 68.0467 78.2727 68.298V69.507C78.2727 70.2523 77.9 70.625 77.1547 70.625H76.7387ZM122.769 69.182C122.327 69.182 121.924 69.104 121.56 68.948C121.196 68.792 120.91 68.5667 120.702 68.272C120.494 67.9773 120.39 67.6177 120.39 67.193C120.39 66.7597 120.494 66.4043 120.702 66.127C120.91 65.841 121.196 65.6287 121.56 65.49C121.924 65.3427 122.332 65.269 122.782 65.269H124.927V64.801C124.927 64.3503 124.793 63.995 124.524 63.735C124.264 63.475 123.874 63.345 123.354 63.345C122.843 63.345 122.444 63.4707 122.158 63.722C121.872 63.9647 121.677 64.294 121.573 64.71L120.611 64.398C120.715 64.0427 120.88 63.722 121.105 63.436C121.331 63.1413 121.63 62.9073 122.002 62.734C122.384 62.552 122.839 62.461 123.367 62.461C124.182 62.461 124.815 62.6733 125.265 63.098C125.716 63.514 125.941 64.1033 125.941 64.866V67.739C125.941 67.999 126.063 68.129 126.305 68.129H126.89V69H125.993C125.707 69 125.478 68.922 125.304 68.766C125.131 68.6013 125.044 68.3847 125.044 68.116V68.051H124.888C124.793 68.2157 124.663 68.389 124.498 68.571C124.342 68.7443 124.126 68.8873 123.848 69C123.571 69.1213 123.211 69.182 122.769 69.182ZM122.886 68.298C123.493 68.298 123.983 68.1203 124.355 67.765C124.737 67.401 124.927 66.894 124.927 66.244V66.101H122.821C122.414 66.101 122.076 66.192 121.807 66.374C121.547 66.5473 121.417 66.8117 121.417 67.167C121.417 67.5223 121.552 67.7997 121.82 67.999C122.098 68.1983 122.453 68.298 122.886 68.298ZM131.82 69.182C131.161 69.182 130.645 69.0563 130.273 68.805C129.909 68.5537 129.644 68.2677 129.48 67.947H129.298V69H128.297V59.9H129.324V63.644H129.506C129.61 63.4447 129.757 63.2583 129.948 63.085C130.138 62.903 130.385 62.7557 130.689 62.643C131.001 62.5217 131.378 62.461 131.82 62.461C132.374 62.461 132.877 62.5953 133.328 62.864C133.787 63.124 134.151 63.501 134.42 63.995C134.688 64.4803 134.823 65.061 134.823 65.737V65.906C134.823 66.582 134.684 67.167 134.407 67.661C134.138 68.155 133.774 68.532 133.315 68.792C132.864 69.052 132.366 69.182 131.82 69.182ZM131.547 68.272C132.205 68.272 132.738 68.064 133.146 67.648C133.562 67.2233 133.77 66.634 133.77 65.88V65.763C133.77 65.009 133.562 64.424 133.146 64.008C132.738 63.5833 132.205 63.371 131.547 63.371C130.897 63.371 130.359 63.5833 129.935 64.008C129.519 64.424 129.311 65.009 129.311 65.763V65.88C129.311 66.634 129.519 67.2233 129.935 67.648C130.359 68.064 130.897 68.272 131.547 68.272ZM139.601 69.182C138.96 69.182 138.392 69.0477 137.898 68.779C137.413 68.5103 137.031 68.1333 136.754 67.648C136.485 67.154 136.351 66.5733 136.351 65.906V65.737C136.351 65.0783 136.485 64.502 136.754 64.008C137.031 63.514 137.413 63.1327 137.898 62.864C138.392 62.5953 138.96 62.461 139.601 62.461C140.242 62.461 140.806 62.5953 141.291 62.864C141.785 63.1327 142.166 63.514 142.435 64.008C142.712 64.502 142.851 65.0783 142.851 65.737V65.906C142.851 66.5733 142.712 67.154 142.435 67.648C142.166 68.1333 141.785 68.5103 141.291 68.779C140.806 69.0477 140.242 69.182 139.601 69.182ZM139.601 68.259C140.277 68.259 140.814 68.0467 141.213 67.622C141.62 67.1887 141.824 66.608 141.824 65.88V65.763C141.824 65.035 141.62 64.4587 141.213 64.034C140.814 63.6007 140.277 63.384 139.601 63.384C138.934 63.384 138.396 63.6007 137.989 64.034C137.582 64.4587 137.378 65.035 137.378 65.763V65.88C137.378 66.608 137.582 67.1887 137.989 67.622C138.396 68.0467 138.934 68.259 139.601 68.259ZM146.045 69L143.77 62.643H144.862L146.773 68.233H146.955L148.866 62.643H149.958L147.683 69H146.045ZM154.086 69.182C153.444 69.182 152.881 69.0477 152.396 68.779C151.91 68.5017 151.533 68.116 151.265 67.622C150.996 67.128 150.862 66.556 150.862 65.906V65.75C150.862 65.0913 150.996 64.515 151.265 64.021C151.533 63.527 151.906 63.1457 152.383 62.877C152.859 62.5997 153.405 62.461 154.021 62.461C154.619 62.461 155.147 62.591 155.607 62.851C156.066 63.1023 156.426 63.4663 156.686 63.943C156.946 64.4197 157.076 64.9787 157.076 65.62V66.088H151.889C151.915 66.7727 152.136 67.31 152.552 67.7C152.968 68.0813 153.488 68.272 154.112 68.272C154.658 68.272 155.078 68.1463 155.373 67.895C155.667 67.6437 155.893 67.3447 156.049 66.998L156.933 67.427C156.803 67.6957 156.621 67.9643 156.387 68.233C156.161 68.5017 155.862 68.727 155.49 68.909C155.126 69.091 154.658 69.182 154.086 69.182ZM151.902 65.243H156.036C156.001 64.6537 155.797 64.1943 155.425 63.865C155.061 63.5357 154.593 63.371 154.021 63.371C153.44 63.371 152.963 63.5357 152.591 63.865C152.218 64.1943 151.988 64.6537 151.902 65.243ZM164.546 69C164.182 69 163.9 68.9003 163.701 68.701C163.51 68.5017 163.415 68.2287 163.415 67.882V63.54H161.504V62.643H163.415V60.381H164.442V62.643H166.522V63.54H164.442V67.726C164.442 67.986 164.568 68.116 164.819 68.116H166.236V69H164.546ZM168.185 69V59.9H169.212V63.657H169.394C169.481 63.4663 169.611 63.2887 169.784 63.124C169.966 62.9507 170.196 62.8077 170.473 62.695C170.759 62.5823 171.119 62.526 171.552 62.526C172.029 62.526 172.454 62.63 172.826 62.838C173.208 63.0373 173.511 63.332 173.736 63.722C173.962 64.1033 174.074 64.58 174.074 65.152V69H173.047V65.23C173.047 64.5973 172.887 64.138 172.566 63.852C172.254 63.566 171.83 63.423 171.292 63.423C170.677 63.423 170.174 63.6223 169.784 64.021C169.403 64.4197 169.212 65.0133 169.212 65.802V69H168.185ZM179.07 69.182C178.429 69.182 177.865 69.0477 177.38 68.779C176.895 68.5017 176.518 68.116 176.249 67.622C175.98 67.128 175.846 66.556 175.846 65.906V65.75C175.846 65.0913 175.98 64.515 176.249 64.021C176.518 63.527 176.89 63.1457 177.367 62.877C177.844 62.5997 178.39 62.461 179.005 62.461C179.603 62.461 180.132 62.591 180.591 62.851C181.05 63.1023 181.41 63.4663 181.67 63.943C181.93 64.4197 182.06 64.9787 182.06 65.62V66.088H176.873C176.899 66.7727 177.12 67.31 177.536 67.7C177.952 68.0813 178.472 68.272 179.096 68.272C179.642 68.272 180.062 68.1463 180.357 67.895C180.652 67.6437 180.877 67.3447 181.033 66.998L181.917 67.427C181.787 67.6957 181.605 67.9643 181.371 68.233C181.146 68.5017 180.847 68.727 180.474 68.909C180.11 69.091 179.642 69.182 179.07 69.182ZM176.886 65.243H181.02C180.985 64.6537 180.782 64.1943 180.409 63.865C180.045 63.5357 179.577 63.371 179.005 63.371C178.424 63.371 177.948 63.5357 177.575 63.865C177.202 64.1943 176.973 64.6537 176.886 65.243ZM183.851 69V62.643H184.878V69H183.851ZM184.371 61.655C184.146 61.655 183.955 61.5813 183.799 61.434C183.652 61.2867 183.578 61.1003 183.578 60.875C183.578 60.641 183.652 60.4503 183.799 60.303C183.955 60.1557 184.146 60.082 184.371 60.082C184.597 60.082 184.783 60.1557 184.93 60.303C185.078 60.4503 185.151 60.641 185.151 60.875C185.151 61.1003 185.078 61.2867 184.93 61.434C184.783 61.5813 184.597 61.655 184.371 61.655ZM187.038 69V62.643H188.039V63.423H188.221C188.334 63.1457 188.507 62.942 188.741 62.812C188.975 62.682 189.283 62.617 189.664 62.617H190.418V63.553H189.599C189.14 63.553 188.767 63.683 188.481 63.943C188.204 64.1943 188.065 64.5887 188.065 65.126V69H187.038ZM197.708 69.117C197.249 69.117 196.824 69.0173 196.434 68.818C196.053 68.6187 195.75 68.324 195.524 67.934C195.308 67.5353 195.199 67.0543 195.199 66.491V62.643H196.226V66.413C196.226 67.0457 196.382 67.505 196.694 67.791C197.015 68.077 197.444 68.22 197.981 68.22C198.588 68.22 199.086 68.0207 199.476 67.622C199.866 67.2233 200.061 66.6297 200.061 65.841V62.643H201.088V69H200.087V67.921H199.905C199.767 68.2243 199.528 68.5017 199.19 68.753C198.852 68.9957 198.358 69.117 197.708 69.117ZM205.798 69.182C205.01 69.182 204.342 69 203.796 68.636C203.259 68.272 202.934 67.6957 202.821 66.907L203.796 66.686C203.866 67.102 203.996 67.4313 204.186 67.674C204.377 67.908 204.611 68.077 204.888 68.181C205.174 68.2763 205.478 68.324 205.798 68.324C206.275 68.324 206.652 68.2287 206.929 68.038C207.207 67.8473 207.345 67.5917 207.345 67.271C207.345 66.9417 207.211 66.712 206.942 66.582C206.682 66.4433 206.323 66.3307 205.863 66.244L205.33 66.153C204.923 66.0837 204.55 65.9753 204.212 65.828C203.874 65.6807 203.606 65.4813 203.406 65.23C203.207 64.9787 203.107 64.6623 203.107 64.281C203.107 63.709 203.328 63.2627 203.77 62.942C204.212 62.6213 204.797 62.461 205.525 62.461C206.245 62.461 206.825 62.6257 207.267 62.955C207.718 63.2757 208.008 63.7307 208.138 64.32L207.176 64.567C207.098 64.1077 206.912 63.787 206.617 63.605C206.323 63.4143 205.959 63.319 205.525 63.319C205.092 63.319 204.75 63.4013 204.498 63.566C204.247 63.722 204.121 63.956 204.121 64.268C204.121 64.5713 204.238 64.7967 204.472 64.944C204.715 65.0827 205.036 65.1867 205.434 65.256L205.967 65.347C206.418 65.425 206.821 65.5333 207.176 65.672C207.54 65.802 207.826 65.9927 208.034 66.244C208.251 66.4953 208.359 66.8247 208.359 67.232C208.359 67.856 208.125 68.337 207.657 68.675C207.198 69.013 206.578 69.182 205.798 69.182ZM212.524 69.117C212.064 69.117 211.64 69.0173 211.25 68.818C210.868 68.6187 210.565 68.324 210.34 67.934C210.123 67.5353 210.015 67.0543 210.015 66.491V62.643H211.042V66.413C211.042 67.0457 211.198 67.505 211.51 67.791C211.83 68.077 212.259 68.22 212.797 68.22C213.403 68.22 213.902 68.0207 214.292 67.622C214.682 67.2233 214.877 66.6297 214.877 65.841V62.643H215.904V69H214.903V67.921H214.721C214.582 68.2243 214.344 68.5017 214.006 68.753C213.668 68.9957 213.174 69.117 212.524 69.117ZM220.003 69.182C219.561 69.182 219.158 69.104 218.794 68.948C218.43 68.792 218.144 68.5667 217.936 68.272C217.728 67.9773 217.624 67.6177 217.624 67.193C217.624 66.7597 217.728 66.4043 217.936 66.127C218.144 65.841 218.43 65.6287 218.794 65.49C219.158 65.3427 219.565 65.269 220.016 65.269H222.161V64.801C222.161 64.3503 222.026 63.995 221.758 63.735C221.498 63.475 221.108 63.345 220.588 63.345C220.076 63.345 219.678 63.4707 219.392 63.722C219.106 63.9647 218.911 64.294 218.807 64.71L217.845 64.398C217.949 64.0427 218.113 63.722 218.339 63.436C218.564 63.1413 218.863 62.9073 219.236 62.734C219.617 62.552 220.072 62.461 220.601 62.461C221.415 62.461 222.048 62.6733 222.499 63.098C222.949 63.514 223.175 64.1033 223.175 64.866V67.739C223.175 67.999 223.296 68.129 223.539 68.129H224.124V69H223.227C222.941 69 222.711 68.922 222.538 68.766C222.364 68.6013 222.278 68.3847 222.278 68.116V68.051H222.122C222.026 68.2157 221.896 68.389 221.732 68.571C221.576 68.7443 221.359 68.8873 221.082 69C220.804 69.1213 220.445 69.182 220.003 69.182ZM220.12 68.298C220.726 68.298 221.216 68.1203 221.589 67.765C221.97 67.401 222.161 66.894 222.161 66.244V66.101H220.055C219.647 66.101 219.309 66.192 219.041 66.374C218.781 66.5473 218.651 66.8117 218.651 67.167C218.651 67.5223 218.785 67.7997 219.054 67.999C219.331 68.1983 219.686 68.298 220.12 68.298ZM225.53 69V59.9H226.557V69H225.53ZM231.744 65.854V65.672C231.744 65.0047 231.878 64.4327 232.147 63.956C232.415 63.4793 232.779 63.111 233.239 62.851C233.698 62.591 234.201 62.461 234.747 62.461C235.414 62.461 235.925 62.591 236.281 62.851C236.645 63.1023 236.913 63.384 237.087 63.696H237.269V62.643H238.244V70.482C238.244 70.8287 238.148 71.1017 237.958 71.301C237.767 71.5003 237.49 71.6 237.126 71.6H232.81V70.69H236.853C237.113 70.69 237.243 70.56 237.243 70.3V67.882H237.061C236.957 68.0727 236.809 68.259 236.619 68.441C236.428 68.623 236.181 68.7747 235.878 68.896C235.574 69.0087 235.197 69.065 234.747 69.065C234.201 69.065 233.698 68.935 233.239 68.675C232.779 68.415 232.415 68.0467 232.147 67.57C231.878 67.0847 231.744 66.5127 231.744 65.854ZM235.02 68.155C235.678 68.155 236.211 67.947 236.619 67.531C237.035 67.115 237.243 66.543 237.243 65.815V65.711C237.243 64.9743 237.035 64.4023 236.619 63.995C236.211 63.579 235.678 63.371 235.02 63.371C234.37 63.371 233.832 63.579 233.408 63.995C232.992 64.4023 232.784 64.9743 232.784 65.711V65.815C232.784 66.543 232.992 67.115 233.408 67.531C233.832 67.947 234.37 68.155 235.02 68.155ZM240.396 69V62.643H241.397V63.423H241.579C241.692 63.1457 241.865 62.942 242.099 62.812C242.333 62.682 242.641 62.617 243.022 62.617H243.776V63.553H242.957C242.498 63.553 242.125 63.683 241.839 63.943C241.562 64.1943 241.423 64.5887 241.423 65.126V69H240.396ZM248.006 69.182C247.365 69.182 246.797 69.0477 246.303 68.779C245.818 68.5103 245.437 68.1333 245.159 67.648C244.891 67.154 244.756 66.5733 244.756 65.906V65.737C244.756 65.0783 244.891 64.502 245.159 64.008C245.437 63.514 245.818 63.1327 246.303 62.864C246.797 62.5953 247.365 62.461 248.006 62.461C248.648 62.461 249.211 62.5953 249.696 62.864C250.19 63.1327 250.572 63.514 250.84 64.008C251.118 64.502 251.256 65.0783 251.256 65.737V65.906C251.256 66.5733 251.118 67.154 250.84 67.648C250.572 68.1333 250.19 68.5103 249.696 68.779C249.211 69.0477 248.648 69.182 248.006 69.182ZM248.006 68.259C248.682 68.259 249.22 68.0467 249.618 67.622C250.026 67.1887 250.229 66.608 250.229 65.88V65.763C250.229 65.035 250.026 64.4587 249.618 64.034C249.22 63.6007 248.682 63.384 248.006 63.384C247.339 63.384 246.802 63.6007 246.394 64.034C245.987 64.4587 245.783 65.035 245.783 65.763V65.88C245.783 66.608 245.987 67.1887 246.394 67.622C246.802 68.0467 247.339 68.259 248.006 68.259ZM253.861 69L252.587 62.643H253.627L254.68 68.311H254.862L256.253 62.643H257.956L259.347 68.311H259.529L260.582 62.643H261.622L260.348 69H258.593L257.189 63.332H257.02L255.616 69H253.861ZM265.728 69C265.364 69 265.082 68.9003 264.883 68.701C264.692 68.5017 264.597 68.2287 264.597 67.882V63.54H262.686V62.643H264.597V60.381H265.624V62.643H267.704V63.54H265.624V67.726C265.624 67.986 265.749 68.116 266.001 68.116H267.418V69H265.728ZM269.367 69V59.9H270.394V63.657H270.576C270.663 63.4663 270.793 63.2887 270.966 63.124C271.148 62.9507 271.378 62.8077 271.655 62.695C271.941 62.5823 272.301 62.526 272.734 62.526C273.211 62.526 273.635 62.63 274.008 62.838C274.389 63.0373 274.693 63.332 274.918 63.722C275.143 64.1033 275.256 64.58 275.256 65.152V69H274.229V65.23C274.229 64.5973 274.069 64.138 273.748 63.852C273.436 63.566 273.011 63.423 272.474 63.423C271.859 63.423 271.356 63.6223 270.966 64.021C270.585 64.4197 270.394 65.0133 270.394 65.802V69H269.367ZM277.899 69.182C277.647 69.182 277.435 69.0997 277.262 68.935C277.097 68.7703 277.015 68.558 277.015 68.298C277.015 68.038 277.097 67.8257 277.262 67.661C277.435 67.4963 277.647 67.414 277.899 67.414C278.159 67.414 278.371 67.4963 278.536 67.661C278.7 67.8257 278.783 68.038 278.783 68.298C278.783 68.558 278.7 68.7703 278.536 68.935C278.371 69.0997 278.159 69.182 277.899 69.182Z" fill="white"/>
<path d="M47.393 67.167V65.061H45.313V63.839H47.393V61.733H48.667V63.839H50.747V65.061H48.667V67.167H47.393ZM55.9875 69.182C55.3029 69.182 54.7092 69.0563 54.2065 68.805C53.7039 68.5537 53.3139 68.1983 53.0365 67.739C52.7679 67.2797 52.6335 66.7467 52.6335 66.14V65.997H54.0245V66.127C54.0245 66.6817 54.1935 67.128 54.5315 67.466C54.8782 67.7953 55.3592 67.96 55.9745 67.96C56.6072 67.96 57.0969 67.7867 57.4435 67.44C57.7902 67.0933 57.9635 66.6253 57.9635 66.036V65.919C57.9635 65.3557 57.7902 64.905 57.4435 64.567C57.1055 64.229 56.6722 64.06 56.1435 64.06C55.8489 64.06 55.6019 64.1077 55.4025 64.203C55.2119 64.2897 55.0559 64.398 54.9345 64.528C54.8219 64.658 54.7265 64.7837 54.6485 64.905H52.9195V59.9H59.0165V61.135H54.2845V63.813H54.4925C54.5792 63.6657 54.7005 63.527 54.8565 63.397C55.0212 63.2583 55.2335 63.1457 55.4935 63.059C55.7535 62.9723 56.0655 62.929 56.4295 62.929C56.9669 62.929 57.4522 63.046 57.8855 63.28C58.3275 63.5053 58.6785 63.8433 58.9385 64.294C59.1985 64.736 59.3285 65.2733 59.3285 65.906V66.049C59.3285 66.6817 59.1942 67.232 58.9255 67.7C58.6569 68.168 58.2712 68.532 57.7685 68.792C57.2745 69.052 56.6809 69.182 55.9875 69.182ZM63.7958 69.182C63.1284 69.182 62.5348 69.0607 62.0148 68.818C61.4948 68.5753 61.0874 68.2243 60.7928 67.765C60.5068 67.3057 60.3638 66.7597 60.3638 66.127V65.893H61.7288V66.101C61.7288 66.673 61.9151 67.128 62.2878 67.466C62.6691 67.7953 63.1718 67.96 63.7958 67.96C64.4198 67.96 64.9051 67.804 65.2518 67.492C65.5984 67.18 65.7718 66.7857 65.7718 66.309V66.192C65.7718 65.854 65.6894 65.581 65.5248 65.373C65.3601 65.165 65.1391 65.0133 64.8618 64.918C64.5844 64.814 64.2724 64.762 63.9258 64.762H62.2748V63.189L65.4728 61.304V61.122H60.5848V59.9H66.9548V61.746L63.8998 63.566V63.748H64.4588C64.9181 63.748 65.3514 63.8347 65.7588 64.008C66.1661 64.1813 66.4954 64.4457 66.7468 64.801C67.0068 65.1563 67.1368 65.607 67.1368 66.153V66.309C67.1368 66.8897 66.9981 67.3967 66.7208 67.83C66.4434 68.2547 66.0534 68.5883 65.5508 68.831C65.0481 69.065 64.4631 69.182 63.7958 69.182ZM68.6765 69V59.9H70.0805V63.683H70.2885L73.6815 59.9H75.5145L71.4065 64.385L75.6575 69H73.7725L70.2885 65.139H70.0805V69H68.6765ZM82.5576 69V67.973C82.5576 67.3403 82.6659 66.8203 82.8826 66.413C83.0993 66.0057 83.4069 65.6763 83.8056 65.425C84.2129 65.165 84.7026 64.9483 85.2746 64.775L86.0676 64.528C86.4229 64.4153 86.7263 64.2767 86.9776 64.112C87.2376 63.9473 87.4369 63.7437 87.5756 63.501C87.7143 63.2497 87.7836 62.9593 87.7836 62.63V62.578C87.7836 62.0667 87.6103 61.668 87.2636 61.382C86.9169 61.0873 86.4619 60.94 85.8986 60.94C85.3179 60.94 84.8456 61.096 84.4816 61.408C84.1263 61.72 83.9486 62.1793 83.9486 62.786V62.994H82.5966V62.799C82.5966 62.1403 82.7396 61.5857 83.0256 61.135C83.3116 60.6757 83.7059 60.3247 84.2086 60.082C84.7113 59.8393 85.2746 59.718 85.8986 59.718C86.5226 59.718 87.0773 59.835 87.5626 60.069C88.0566 60.303 88.4423 60.6323 88.7196 61.057C89.0056 61.4817 89.1486 61.98 89.1486 62.552V62.669C89.1486 63.2583 89.0316 63.748 88.7976 64.138C88.5636 64.528 88.2386 64.8487 87.8226 65.1C87.4153 65.3513 86.9429 65.5637 86.4056 65.737L85.6386 65.971C85.2313 66.0923 84.9019 66.2267 84.6506 66.374C84.4079 66.5127 84.2259 66.6817 84.1046 66.881C83.9919 67.0803 83.9356 67.336 83.9356 67.648V67.778H89.0706V69H82.5576ZM93.8891 69.182C92.8318 69.182 91.9868 68.883 91.3541 68.285C90.7301 67.6783 90.4181 66.7683 90.4181 65.555V63.345C90.4181 62.1577 90.7301 61.2563 91.3541 60.641C91.9868 60.0257 92.8318 59.718 93.8891 59.718C94.9551 59.718 95.8001 60.0257 96.4241 60.641C97.0568 61.2563 97.3731 62.1577 97.3731 63.345V65.555C97.3731 66.7683 97.0568 67.6783 96.4241 68.285C95.8001 68.883 94.9551 69.182 93.8891 69.182ZM93.8891 67.96C94.6085 67.96 95.1415 67.7563 95.4881 67.349C95.8348 66.933 96.0081 66.3523 96.0081 65.607V63.267C96.0081 62.5217 95.8218 61.9497 95.4491 61.551C95.0765 61.1437 94.5565 60.94 93.8891 60.94C93.2131 60.94 92.6931 61.148 92.3291 61.564C91.9651 61.9713 91.7831 62.539 91.7831 63.267V65.607C91.7831 66.3697 91.9565 66.9547 92.3031 67.362C92.6585 67.7607 93.1871 67.96 93.8891 67.96ZM102.268 69.182C101.211 69.182 100.366 68.883 99.733 68.285C99.109 67.6783 98.797 66.7683 98.797 65.555V63.345C98.797 62.1577 99.109 61.2563 99.733 60.641C100.366 60.0257 101.211 59.718 102.268 59.718C103.334 59.718 104.179 60.0257 104.803 60.641C105.436 61.2563 105.752 62.1577 105.752 63.345V65.555C105.752 66.7683 105.436 67.6783 104.803 68.285C104.179 68.883 103.334 69.182 102.268 69.182ZM102.268 67.96C102.987 67.96 103.52 67.7563 103.867 67.349C104.214 66.933 104.387 66.3523 104.387 65.607V63.267C104.387 62.5217 104.201 61.9497 103.828 61.551C103.455 61.1437 102.935 60.94 102.268 60.94C101.592 60.94 101.072 61.148 100.708 61.564C100.344 61.9713 100.162 62.539 100.162 63.267V65.607C100.162 66.3697 100.335 66.9547 100.682 67.362C101.037 67.7607 101.566 67.96 102.268 67.96ZM108.294 69.169L107.462 68.493L114.573 59.731L115.405 60.407L108.294 69.169ZM113.923 69.143C113.282 69.143 112.775 68.9653 112.402 68.61C112.029 68.246 111.843 67.7563 111.843 67.141V67.063C111.843 66.439 112.029 65.9493 112.402 65.594C112.775 65.23 113.282 65.048 113.923 65.048C114.556 65.048 115.063 65.23 115.444 65.594C115.825 65.9493 116.016 66.439 116.016 67.063V67.141C116.016 67.7563 115.825 68.246 115.444 68.61C115.071 68.9653 114.564 69.143 113.923 69.143ZM113.923 68.233C114.235 68.233 114.478 68.1377 114.651 67.947C114.833 67.7563 114.924 67.505 114.924 67.193V67.011C114.924 66.6903 114.833 66.4347 114.651 66.244C114.478 66.0533 114.235 65.958 113.923 65.958C113.62 65.958 113.377 66.0533 113.195 66.244C113.022 66.4347 112.935 66.6903 112.935 67.011V67.193C112.935 67.505 113.022 67.7563 113.195 67.947C113.377 68.1377 113.62 68.233 113.923 68.233ZM108.944 63.852C108.303 63.852 107.791 63.6743 107.41 63.319C107.037 62.955 106.851 62.4653 106.851 61.85V61.759C106.851 61.135 107.037 60.6453 107.41 60.29C107.791 59.9347 108.303 59.757 108.944 59.757C109.577 59.757 110.079 59.9347 110.452 60.29C110.833 60.6453 111.024 61.135 111.024 61.759V61.85C111.024 62.4653 110.838 62.955 110.465 63.319C110.092 63.6743 109.585 63.852 108.944 63.852ZM108.944 62.942C109.247 62.942 109.486 62.8467 109.659 62.656C109.841 62.4567 109.932 62.201 109.932 61.889V61.707C109.932 61.395 109.841 61.1437 109.659 60.953C109.486 60.7623 109.247 60.667 108.944 60.667C108.632 60.667 108.385 60.7623 108.203 60.953C108.03 61.1437 107.943 61.395 107.943 61.707V61.889C107.943 62.201 108.03 62.4567 108.203 62.656C108.385 62.8467 108.632 62.942 108.944 62.942Z" fill="#6CE54A"/>
<defs>
<clipPath id="clip0_4198_18984">
<rect width="20" height="20" fill="white" transform="translate(16 16)"/>
</clipPath>
</defs>
</svg>
