<svg width="345" height="93" viewBox="0 0 345 93" fill="none" xmlns="http://www.w3.org/2000/svg">
<rect width="345" height="93" rx="8" fill="#1F1F1F" fill-opacity="0.88"/>
<g clip-path="url(#clip0_9640_1466)">
<path fill-rule="evenodd" clip-rule="evenodd" d="M32.8369 19.3396C33.5903 19.5729 34.1824 20.2575 34.3841 21.1288C34.7485 22.7064 34.75 25.9998 34.75 25.9998C34.75 25.9998 34.75 29.2933 34.3841 30.8709C34.1824 31.7422 33.5903 32.4268 32.8369 32.66C31.4727 33.0832 26 33.0832 26 33.0832C26 33.0832 20.5273 33.0832 19.1631 32.66C18.4097 32.4268 17.8176 31.7422 17.6159 30.8709C17.25 29.2933 17.25 25.9998 17.25 25.9998C17.25 25.9998 17.25 22.7064 17.6159 21.1288C17.8176 20.2575 18.4097 19.5729 19.1631 19.3396C20.5273 18.9165 26 18.9165 26 18.9165C26 18.9165 31.4727 18.9165 32.8369 19.3396ZM28.9278 26.0001L24.1649 28.7498V23.2504L28.9278 26.0001Z" fill="#FF0000"/>
<path fill-rule="evenodd" clip-rule="evenodd" d="M32.8369 19.3396C33.5903 19.5729 34.1824 20.2575 34.3841 21.1288C34.7485 22.7064 34.75 25.9998 34.75 25.9998C34.75 25.9998 34.75 29.2933 34.3841 30.8709C34.1824 31.7422 33.5903 32.4268 32.8369 32.66C31.4727 33.0832 26 33.0832 26 33.0832C26 33.0832 20.5273 33.0832 19.1631 32.66C18.4097 32.4268 17.8176 31.7422 17.6159 30.8709C17.25 29.2933 17.25 25.9998 17.25 25.9998C17.25 25.9998 17.25 22.7064 17.6159 21.1288C17.8176 20.2575 18.4097 19.5729 19.1631 19.3396C20.5273 18.9165 26 18.9165 26 18.9165C26 18.9165 31.4727 18.9165 32.8369 19.3396ZM28.9278 26.0001L24.1649 28.7498V23.2504L28.9278 26.0001Z" fill="black" fill-opacity="0.2"/>
</g>
<path d="M47.024 31L44.294 21.2H45.862L48.242 30.048H48.424L50.79 21.2H52.358L49.642 31H47.024ZM53.83 31V21.2H55.342V31H53.83ZM57.5247 31V21.2H63.6987V22.572H59.0367V25.386H63.3067V26.758H59.0367V29.628H63.7687V31H57.5247ZM66.367 31L64.925 21.2H66.437L67.613 29.978H67.837L69.349 21.2H71.995L73.507 29.978H73.731L74.893 21.2H76.405L74.963 31H72.317L70.777 22.096H70.553L69.027 31H66.367ZM78.039 31V21.2H84.213V22.572H79.551V25.386H83.821V26.758H79.551V29.628H84.283V31H78.039ZM85.9993 31V21.2H90.1153C90.722 21.2 91.254 21.3073 91.7113 21.522C92.178 21.7273 92.5373 22.026 92.7893 22.418C93.0507 22.81 93.1813 23.2767 93.1813 23.818V23.972C93.1813 24.588 93.032 25.0827 92.7333 25.456C92.444 25.82 92.0893 26.0767 91.6693 26.226V26.45C92.024 26.4687 92.3087 26.59 92.5233 26.814C92.738 27.0287 92.8453 27.3413 92.8453 27.752V31H91.3193V27.962C91.3193 27.71 91.254 27.5093 91.1233 27.36C90.9927 27.2107 90.7827 27.136 90.4933 27.136H87.5113V31H85.9993ZM87.5113 25.764H89.9473C90.4887 25.764 90.9087 25.6287 91.2073 25.358C91.506 25.078 91.6553 24.7 91.6553 24.224V24.112C91.6553 23.636 91.506 23.2627 91.2073 22.992C90.918 22.712 90.498 22.572 89.9473 22.572H87.5113V25.764ZM102.333 31.196C101.139 31.196 100.191 30.86 99.4914 30.188C98.7914 29.5067 98.4414 28.5267 98.4414 27.248V24.952C98.4414 23.6733 98.7914 22.698 99.4914 22.026C100.191 21.3447 101.139 21.004 102.333 21.004C103.509 21.004 104.415 21.3307 105.049 21.984C105.693 22.6373 106.015 23.5287 106.015 24.658V24.742H104.517V24.616C104.517 23.9533 104.335 23.412 103.971 22.992C103.617 22.572 103.071 22.362 102.333 22.362C101.587 22.362 101.003 22.5907 100.583 23.048C100.163 23.496 99.9534 24.1213 99.9534 24.924V27.276C99.9534 28.0693 100.163 28.6947 100.583 29.152C101.003 29.6093 101.587 29.838 102.333 29.838C103.071 29.838 103.617 29.628 103.971 29.208C104.335 28.7787 104.517 28.2373 104.517 27.584V27.346H106.015V27.542C106.015 28.6713 105.693 29.5627 105.049 30.216C104.415 30.8693 103.509 31.196 102.333 31.196ZM107.829 31V21.2H109.341V25.4H113.457V21.2H114.969V31H113.457V26.772H109.341V31H107.829ZM116.429 31L119.229 21.2H121.889L124.675 31H123.121L122.477 28.69H118.641L117.997 31H116.429ZM119.019 27.29H122.099L120.671 22.138H120.447L119.019 27.29ZM126.143 31V21.2H129.055L131.715 29.992H131.939V21.2H133.437V31H130.525L127.865 22.194H127.641V31H126.143ZM139.023 31.196C138.323 31.196 137.697 31.0467 137.147 30.748C136.596 30.44 136.162 29.992 135.845 29.404C135.527 28.816 135.369 28.0973 135.369 27.248V24.952C135.369 23.6733 135.719 22.698 136.419 22.026C137.119 21.3447 138.066 21.004 139.261 21.004C140.437 21.004 141.342 21.326 141.977 21.97C142.611 22.6047 142.929 23.4587 142.929 24.532V24.602H141.431V24.49C141.431 24.0887 141.351 23.7293 141.193 23.412C141.034 23.0853 140.796 22.8287 140.479 22.642C140.161 22.4553 139.755 22.362 139.261 22.362C138.514 22.362 137.931 22.5907 137.511 23.048C137.091 23.496 136.881 24.1213 136.881 24.924V27.276C136.881 28.0693 137.091 28.6993 137.511 29.166C137.931 29.6233 138.519 29.852 139.275 29.852C140.021 29.852 140.567 29.6467 140.913 29.236C141.258 28.8253 141.431 28.2933 141.431 27.64V27.458H138.799V26.156H142.929V31H141.529V30.006H141.305C141.221 30.1833 141.095 30.3653 140.927 30.552C140.768 30.7387 140.535 30.8927 140.227 31.014C139.928 31.1353 139.527 31.196 139.023 31.196ZM145.016 31V21.2H151.19V22.572H146.528V25.386H150.798V26.758H146.528V29.628H151.26V31H145.016Z" fill="#C9C9C9"/>
<path d="M47.419 53.182C46.5263 53.182 45.82 52.9307 45.3 52.428C44.7887 51.9253 44.533 51.206 44.533 50.27V49.568H45.612V50.27C45.612 50.8333 45.7593 51.2927 46.054 51.648C46.3573 52.0033 46.808 52.181 47.406 52.181C48.0127 52.181 48.4417 52.0077 48.693 51.661C48.9443 51.3057 49.07 50.842 49.07 50.27V44.888H47.471V43.9H51.15V44.888H50.162V50.27C50.162 51.2147 49.928 51.9383 49.46 52.441C48.992 52.935 48.3117 53.182 47.419 53.182ZM54.405 53.182C53.963 53.182 53.56 53.104 53.196 52.948C52.832 52.792 52.546 52.5667 52.338 52.272C52.13 51.9773 52.026 51.6177 52.026 51.193C52.026 50.7597 52.13 50.4043 52.338 50.127C52.546 49.841 52.832 49.6287 53.196 49.49C53.56 49.3427 53.9673 49.269 54.418 49.269H56.563V48.801C56.563 48.3503 56.4286 47.995 56.16 47.735C55.9 47.475 55.51 47.345 54.99 47.345C54.4786 47.345 54.08 47.4707 53.794 47.722C53.508 47.9647 53.313 48.294 53.209 48.71L52.247 48.398C52.351 48.0427 52.5156 47.722 52.741 47.436C52.9663 47.1413 53.2653 46.9073 53.638 46.734C54.0193 46.552 54.4743 46.461 55.003 46.461C55.8176 46.461 56.4503 46.6733 56.901 47.098C57.3516 47.514 57.577 48.1033 57.577 48.866V51.739C57.577 51.999 57.6983 52.129 57.941 52.129H58.526V53H57.629C57.343 53 57.1133 52.922 56.94 52.766C56.7666 52.6013 56.68 52.3847 56.68 52.116V52.051H56.524C56.4286 52.2157 56.2986 52.389 56.134 52.571C55.978 52.7443 55.7613 52.8873 55.484 53C55.2066 53.1213 54.847 53.182 54.405 53.182ZM54.522 52.298C55.1286 52.298 55.6183 52.1203 55.991 51.765C56.3723 51.401 56.563 50.894 56.563 50.244V50.101H54.457C54.0496 50.101 53.7116 50.192 53.443 50.374C53.183 50.5473 53.053 50.8117 53.053 51.167C53.053 51.5223 53.1873 51.7997 53.456 51.999C53.7333 52.1983 54.0886 52.298 54.522 52.298ZM59.9325 53V46.643H60.9335V47.722H61.1155C61.2542 47.4187 61.4882 47.1457 61.8175 46.903C62.1555 46.6517 62.6495 46.526 63.2995 46.526C63.7762 46.526 64.2008 46.6257 64.5735 46.825C64.9548 47.0243 65.2582 47.319 65.4835 47.709C65.7088 48.099 65.8215 48.58 65.8215 49.152V53H64.7945V49.23C64.7945 48.5973 64.6342 48.138 64.3135 47.852C64.0015 47.566 63.5768 47.423 63.0395 47.423C62.4242 47.423 61.9215 47.6223 61.5315 48.021C61.1502 48.4197 60.9595 49.0133 60.9595 49.802V53H59.9325ZM67.9052 53V46.643H68.9062V47.722H69.0882C69.2268 47.4187 69.4608 47.1457 69.7902 46.903C70.1282 46.6517 70.6222 46.526 71.2722 46.526C71.7488 46.526 72.1735 46.6257 72.5462 46.825C72.9275 47.0243 73.2308 47.319 73.4562 47.709C73.6815 48.099 73.7942 48.58 73.7942 49.152V53H72.7672V49.23C72.7672 48.5973 72.6068 48.138 72.2862 47.852C71.9742 47.566 71.5495 47.423 71.0122 47.423C70.3968 47.423 69.8942 47.6223 69.5042 48.021C69.1228 48.4197 68.9322 49.0133 68.9322 49.802V53H67.9052ZM78.7898 53.182C78.1485 53.182 77.5852 53.0477 77.0998 52.779C76.6145 52.5017 76.2375 52.116 75.9688 51.622C75.7002 51.128 75.5658 50.556 75.5658 49.906V49.75C75.5658 49.0913 75.7002 48.515 75.9688 48.021C76.2375 47.527 76.6102 47.1457 77.0868 46.877C77.5635 46.5997 78.1095 46.461 78.7248 46.461C79.3228 46.461 79.8515 46.591 80.3108 46.851C80.7702 47.1023 81.1298 47.4663 81.3898 47.943C81.6498 48.4197 81.7798 48.9787 81.7798 49.62V50.088H76.5928C76.6188 50.7727 76.8398 51.31 77.2558 51.7C77.6718 52.0813 78.1918 52.272 78.8158 52.272C79.3618 52.272 79.7822 52.1463 80.0768 51.895C80.3715 51.6437 80.5968 51.3447 80.7528 50.998L81.6368 51.427C81.5068 51.6957 81.3248 51.9643 81.0908 52.233C80.8655 52.5017 80.5665 52.727 80.1938 52.909C79.8298 53.091 79.3618 53.182 78.7898 53.182ZM76.6058 49.243H80.7398C80.7052 48.6537 80.5015 48.1943 80.1288 47.865C79.7648 47.5357 79.2968 47.371 78.7248 47.371C78.1442 47.371 77.6675 47.5357 77.2948 47.865C76.9222 48.1943 76.6925 48.6537 76.6058 49.243ZM85.6446 53C85.2806 53 84.9989 52.9003 84.7996 52.701C84.6089 52.5017 84.5136 52.2287 84.5136 51.882V47.54H82.6026V46.643H84.5136V44.381H85.5406V46.643H87.6206V47.54H85.5406V51.726C85.5406 51.986 85.6663 52.116 85.9176 52.116H87.3346V53H85.6446ZM92.5839 53V43.9H94.6639L97.0819 52.311H97.2509L99.6689 43.9H101.749V53H100.696V44.615H100.514L98.1089 53H96.2239L93.8189 44.615H93.6369V53H92.5839ZM103.871 53V46.643H104.898V53H103.871ZM104.391 45.655C104.166 45.655 103.975 45.5813 103.819 45.434C103.672 45.2867 103.598 45.1003 103.598 44.875C103.598 44.641 103.672 44.4503 103.819 44.303C103.975 44.1557 104.166 44.082 104.391 44.082C104.616 44.082 104.803 44.1557 104.95 44.303C105.097 44.4503 105.171 44.641 105.171 44.875C105.171 45.1003 105.097 45.2867 104.95 45.434C104.803 45.5813 104.616 45.655 104.391 45.655ZM109.983 53.182C109.367 53.182 108.813 53.052 108.319 52.792C107.833 52.5233 107.448 52.142 107.162 51.648C106.884 51.154 106.746 50.569 106.746 49.893V49.75C106.746 49.0653 106.884 48.4803 107.162 47.995C107.448 47.501 107.833 47.124 108.319 46.864C108.813 46.5953 109.367 46.461 109.983 46.461C110.589 46.461 111.105 46.5737 111.53 46.799C111.963 47.0243 112.301 47.3233 112.544 47.696C112.795 48.0687 112.955 48.4673 113.025 48.892L112.024 49.1C111.98 48.788 111.876 48.502 111.712 48.242C111.556 47.982 111.335 47.774 111.049 47.618C110.763 47.462 110.412 47.384 109.996 47.384C109.571 47.384 109.19 47.4793 108.852 47.67C108.522 47.8607 108.258 48.1337 108.059 48.489C107.868 48.8443 107.773 49.269 107.773 49.763V49.88C107.773 50.374 107.868 50.7987 108.059 51.154C108.258 51.5093 108.522 51.7823 108.852 51.973C109.19 52.1637 109.571 52.259 109.996 52.259C110.628 52.259 111.109 52.0943 111.439 51.765C111.777 51.4357 111.985 51.0283 112.063 50.543L113.077 50.764C112.981 51.18 112.808 51.5743 112.557 51.947C112.305 52.3197 111.963 52.6187 111.53 52.844C111.105 53.0693 110.589 53.182 109.983 53.182ZM114.827 53V43.9H115.854V47.657H116.036C116.123 47.4663 116.253 47.2887 116.426 47.124C116.608 46.9507 116.838 46.8077 117.115 46.695C117.401 46.5823 117.761 46.526 118.194 46.526C118.671 46.526 119.095 46.63 119.468 46.838C119.849 47.0373 120.153 47.332 120.378 47.722C120.603 48.1033 120.716 48.58 120.716 49.152V53H119.689V49.23C119.689 48.5973 119.529 48.138 119.208 47.852C118.896 47.566 118.471 47.423 117.934 47.423C117.319 47.423 116.816 47.6223 116.426 48.021C116.045 48.4197 115.854 49.0133 115.854 49.802V53H114.827ZM124.75 53.182C124.308 53.182 123.905 53.104 123.541 52.948C123.177 52.792 122.891 52.5667 122.683 52.272C122.475 51.9773 122.371 51.6177 122.371 51.193C122.371 50.7597 122.475 50.4043 122.683 50.127C122.891 49.841 123.177 49.6287 123.541 49.49C123.905 49.3427 124.312 49.269 124.763 49.269H126.908V48.801C126.908 48.3503 126.773 47.995 126.505 47.735C126.245 47.475 125.855 47.345 125.335 47.345C124.823 47.345 124.425 47.4707 124.139 47.722C123.853 47.9647 123.658 48.294 123.554 48.71L122.592 48.398C122.696 48.0427 122.86 47.722 123.086 47.436C123.311 47.1413 123.61 46.9073 123.983 46.734C124.364 46.552 124.819 46.461 125.348 46.461C126.162 46.461 126.795 46.6733 127.246 47.098C127.696 47.514 127.922 48.1033 127.922 48.866V51.739C127.922 51.999 128.043 52.129 128.286 52.129H128.871V53H127.974C127.688 53 127.458 52.922 127.285 52.766C127.111 52.6013 127.025 52.3847 127.025 52.116V52.051H126.869C126.773 52.2157 126.643 52.389 126.479 52.571C126.323 52.7443 126.106 52.8873 125.829 53C125.551 53.1213 125.192 53.182 124.75 53.182ZM124.867 52.298C125.473 52.298 125.963 52.1203 126.336 51.765C126.717 51.401 126.908 50.894 126.908 50.244V50.101H124.802C124.394 50.101 124.056 50.192 123.788 50.374C123.528 50.5473 123.398 50.8117 123.398 51.167C123.398 51.5223 123.532 51.7997 123.801 51.999C124.078 52.1983 124.433 52.298 124.867 52.298ZM133.012 53.182C132.37 53.182 131.807 53.0477 131.322 52.779C130.836 52.5017 130.459 52.116 130.191 51.622C129.922 51.128 129.788 50.556 129.788 49.906V49.75C129.788 49.0913 129.922 48.515 130.191 48.021C130.459 47.527 130.832 47.1457 131.309 46.877C131.785 46.5997 132.331 46.461 132.947 46.461C133.545 46.461 134.073 46.591 134.533 46.851C134.992 47.1023 135.352 47.4663 135.612 47.943C135.872 48.4197 136.002 48.9787 136.002 49.62V50.088H130.815C130.841 50.7727 131.062 51.31 131.478 51.7C131.894 52.0813 132.414 52.272 133.038 52.272C133.584 52.272 134.004 52.1463 134.299 51.895C134.593 51.6437 134.819 51.3447 134.975 50.998L135.859 51.427C135.729 51.6957 135.547 51.9643 135.313 52.233C135.087 52.5017 134.788 52.727 134.416 52.909C134.052 53.091 133.584 53.182 133.012 53.182ZM130.828 49.243H134.962C134.927 48.6537 134.723 48.1943 134.351 47.865C133.987 47.5357 133.519 47.371 132.947 47.371C132.366 47.371 131.889 47.5357 131.517 47.865C131.144 48.1943 130.914 48.6537 130.828 49.243ZM137.793 53V43.9H138.82V53H137.793ZM146.268 53.182C145.826 53.182 145.423 53.104 145.059 52.948C144.695 52.792 144.409 52.5667 144.201 52.272C143.993 51.9773 143.889 51.6177 143.889 51.193C143.889 50.7597 143.993 50.4043 144.201 50.127C144.409 49.841 144.695 49.6287 145.059 49.49C145.423 49.3427 145.831 49.269 146.281 49.269H148.426V48.801C148.426 48.3503 148.292 47.995 148.023 47.735C147.763 47.475 147.373 47.345 146.853 47.345C146.342 47.345 145.943 47.4707 145.657 47.722C145.371 47.9647 145.176 48.294 145.072 48.71L144.11 48.398C144.214 48.0427 144.379 47.722 144.604 47.436C144.83 47.1413 145.129 46.9073 145.501 46.734C145.883 46.552 146.338 46.461 146.866 46.461C147.681 46.461 148.314 46.6733 148.764 47.098C149.215 47.514 149.44 48.1033 149.44 48.866V51.739C149.44 51.999 149.562 52.129 149.804 52.129H150.389V53H149.492C149.206 53 148.977 52.922 148.803 52.766C148.63 52.6013 148.543 52.3847 148.543 52.116V52.051H148.387C148.292 52.2157 148.162 52.389 147.997 52.571C147.841 52.7443 147.625 52.8873 147.347 53C147.07 53.1213 146.71 53.182 146.268 53.182ZM146.385 52.298C146.992 52.298 147.482 52.1203 147.854 51.765C148.236 51.401 148.426 50.894 148.426 50.244V50.101H146.32C145.913 50.101 145.575 50.192 145.306 50.374C145.046 50.5473 144.916 50.8117 144.916 51.167C144.916 51.5223 145.051 51.7997 145.319 51.999C145.597 52.1983 145.952 52.298 146.385 52.298ZM154.543 53.182C153.928 53.182 153.373 53.052 152.879 52.792C152.394 52.5233 152.008 52.142 151.722 51.648C151.445 51.154 151.306 50.569 151.306 49.893V49.75C151.306 49.0653 151.445 48.4803 151.722 47.995C152.008 47.501 152.394 47.124 152.879 46.864C153.373 46.5953 153.928 46.461 154.543 46.461C155.15 46.461 155.665 46.5737 156.09 46.799C156.523 47.0243 156.861 47.3233 157.104 47.696C157.355 48.0687 157.516 48.4673 157.585 48.892L156.584 49.1C156.541 48.788 156.437 48.502 156.272 48.242C156.116 47.982 155.895 47.774 155.609 47.618C155.323 47.462 154.972 47.384 154.556 47.384C154.131 47.384 153.75 47.4793 153.412 47.67C153.083 47.8607 152.818 48.1337 152.619 48.489C152.428 48.8443 152.333 49.269 152.333 49.763V49.88C152.333 50.374 152.428 50.7987 152.619 51.154C152.818 51.5093 153.083 51.7823 153.412 51.973C153.75 52.1637 154.131 52.259 154.556 52.259C155.189 52.259 155.67 52.0943 155.999 51.765C156.337 51.4357 156.545 51.0283 156.623 50.543L157.637 50.764C157.542 51.18 157.368 51.5743 157.117 51.947C156.866 52.3197 156.523 52.6187 156.09 52.844C155.665 53.0693 155.15 53.182 154.543 53.182ZM159.388 53V43.9H160.415V47.657H160.597C160.683 47.4663 160.813 47.2887 160.987 47.124C161.169 46.9507 161.398 46.8077 161.676 46.695C161.962 46.5823 162.321 46.526 162.755 46.526C163.231 46.526 163.656 46.63 164.029 46.838C164.41 47.0373 164.713 47.332 164.939 47.722C165.164 48.1033 165.277 48.58 165.277 49.152V53H164.25V49.23C164.25 48.5973 164.089 48.138 163.769 47.852C163.457 47.566 163.032 47.423 162.495 47.423C161.879 47.423 161.377 47.6223 160.987 48.021C160.605 48.4197 160.415 49.0133 160.415 49.802V53H159.388ZM167.36 53V46.643H168.387V53H167.36ZM167.88 45.655C167.655 45.655 167.464 45.5813 167.308 45.434C167.161 45.2867 167.087 45.1003 167.087 44.875C167.087 44.641 167.161 44.4503 167.308 44.303C167.464 44.1557 167.655 44.082 167.88 44.082C168.106 44.082 168.292 44.1557 168.439 44.303C168.587 44.4503 168.66 44.641 168.66 44.875C168.66 45.1003 168.587 45.2867 168.439 45.434C168.292 45.5813 168.106 45.655 167.88 45.655ZM173.459 53.182C172.817 53.182 172.254 53.0477 171.769 52.779C171.283 52.5017 170.906 52.116 170.638 51.622C170.369 51.128 170.235 50.556 170.235 49.906V49.75C170.235 49.0913 170.369 48.515 170.638 48.021C170.906 47.527 171.279 47.1457 171.756 46.877C172.232 46.5997 172.778 46.461 173.394 46.461C173.992 46.461 174.52 46.591 174.98 46.851C175.439 47.1023 175.799 47.4663 176.059 47.943C176.319 48.4197 176.449 48.9787 176.449 49.62V50.088H171.262C171.288 50.7727 171.509 51.31 171.925 51.7C172.341 52.0813 172.861 52.272 173.485 52.272C174.031 52.272 174.451 52.1463 174.746 51.895C175.04 51.6437 175.266 51.3447 175.422 50.998L176.306 51.427C176.176 51.6957 175.994 51.9643 175.76 52.233C175.534 52.5017 175.235 52.727 174.863 52.909C174.499 53.091 174.031 53.182 173.459 53.182ZM171.275 49.243H175.409C175.374 48.6537 175.17 48.1943 174.798 47.865C174.434 47.5357 173.966 47.371 173.394 47.371C172.813 47.371 172.336 47.5357 171.964 47.865C171.591 48.1943 171.361 48.6537 171.275 49.243ZM179.586 53L177.311 46.643H178.403L180.314 52.233H180.496L182.407 46.643H183.499L181.224 53H179.586ZM187.627 53.182C186.985 53.182 186.422 53.0477 185.937 52.779C185.451 52.5017 185.074 52.116 184.806 51.622C184.537 51.128 184.403 50.556 184.403 49.906V49.75C184.403 49.0913 184.537 48.515 184.806 48.021C185.074 47.527 185.447 47.1457 185.924 46.877C186.4 46.5997 186.946 46.461 187.562 46.461C188.16 46.461 188.688 46.591 189.148 46.851C189.607 47.1023 189.967 47.4663 190.227 47.943C190.487 48.4197 190.617 48.9787 190.617 49.62V50.088H185.43C185.456 50.7727 185.677 51.31 186.093 51.7C186.509 52.0813 187.029 52.272 187.653 52.272C188.199 52.272 188.619 52.1463 188.914 51.895C189.208 51.6437 189.434 51.3447 189.59 50.998L190.474 51.427C190.344 51.6957 190.162 51.9643 189.928 52.233C189.702 52.5017 189.403 52.727 189.031 52.909C188.667 53.091 188.199 53.182 187.627 53.182ZM185.443 49.243H189.577C189.542 48.6537 189.338 48.1943 188.966 47.865C188.602 47.5357 188.134 47.371 187.562 47.371C186.981 47.371 186.504 47.5357 186.132 47.865C185.759 48.1943 185.529 48.6537 185.443 49.243ZM195.099 53.182C194.553 53.182 194.05 53.052 193.591 52.792C193.132 52.532 192.768 52.155 192.499 51.661C192.23 51.167 192.096 50.582 192.096 49.906V49.737C192.096 49.061 192.23 48.4803 192.499 47.995C192.768 47.501 193.127 47.124 193.578 46.864C194.037 46.5953 194.544 46.461 195.099 46.461C195.541 46.461 195.914 46.5217 196.217 46.643C196.529 46.7557 196.78 46.903 196.971 47.085C197.162 47.2583 197.309 47.4447 197.413 47.644H197.595V43.9H198.622V53H197.621V51.947H197.439C197.266 52.2677 196.997 52.5537 196.633 52.805C196.269 53.0563 195.758 53.182 195.099 53.182ZM195.372 52.272C196.031 52.272 196.564 52.064 196.971 51.648C197.387 51.2233 197.595 50.634 197.595 49.88V49.763C197.595 49.009 197.387 48.424 196.971 48.008C196.564 47.5833 196.031 47.371 195.372 47.371C194.722 47.371 194.185 47.5833 193.76 48.008C193.344 48.424 193.136 49.009 193.136 49.763V49.88C193.136 50.634 193.344 51.2233 193.76 51.648C194.185 52.064 194.722 52.272 195.372 52.272ZM206.063 53.182C205.621 53.182 205.218 53.104 204.854 52.948C204.49 52.792 204.204 52.5667 203.996 52.272C203.788 51.9773 203.684 51.6177 203.684 51.193C203.684 50.7597 203.788 50.4043 203.996 50.127C204.204 49.841 204.49 49.6287 204.854 49.49C205.218 49.3427 205.626 49.269 206.076 49.269H208.221V48.801C208.221 48.3503 208.087 47.995 207.818 47.735C207.558 47.475 207.168 47.345 206.648 47.345C206.137 47.345 205.738 47.4707 205.452 47.722C205.166 47.9647 204.971 48.294 204.867 48.71L203.905 48.398C204.009 48.0427 204.174 47.722 204.399 47.436C204.625 47.1413 204.924 46.9073 205.296 46.734C205.678 46.552 206.133 46.461 206.661 46.461C207.476 46.461 208.109 46.6733 208.559 47.098C209.01 47.514 209.235 48.1033 209.235 48.866V51.739C209.235 51.999 209.357 52.129 209.599 52.129H210.184V53H209.287C209.001 53 208.772 52.922 208.598 52.766C208.425 52.6013 208.338 52.3847 208.338 52.116V52.051H208.182C208.087 52.2157 207.957 52.389 207.792 52.571C207.636 52.7443 207.42 52.8873 207.142 53C206.865 53.1213 206.505 53.182 206.063 53.182ZM206.18 52.298C206.787 52.298 207.277 52.1203 207.649 51.765C208.031 51.401 208.221 50.894 208.221 50.244V50.101H206.115C205.708 50.101 205.37 50.192 205.101 50.374C204.841 50.5473 204.711 50.8117 204.711 51.167C204.711 51.5223 204.846 51.7997 205.114 51.999C205.392 52.1983 205.747 52.298 206.18 52.298ZM244.433 53.182C243.887 53.182 243.384 53.052 242.925 52.792C242.466 52.532 242.102 52.155 241.833 51.661C241.564 51.167 241.43 50.582 241.43 49.906V49.737C241.43 49.061 241.564 48.4803 241.833 47.995C242.102 47.501 242.461 47.124 242.912 46.864C243.371 46.5953 243.878 46.461 244.433 46.461C244.875 46.461 245.248 46.5217 245.551 46.643C245.863 46.7557 246.114 46.903 246.305 47.085C246.496 47.2583 246.643 47.4447 246.747 47.644H246.929V43.9H247.956V53H246.955V51.947H246.773C246.6 52.2677 246.331 52.5537 245.967 52.805C245.603 53.0563 245.092 53.182 244.433 53.182ZM244.706 52.272C245.365 52.272 245.898 52.064 246.305 51.648C246.721 51.2233 246.929 50.634 246.929 49.88V49.763C246.929 49.009 246.721 48.424 246.305 48.008C245.898 47.5833 245.365 47.371 244.706 47.371C244.056 47.371 243.519 47.5833 243.094 48.008C242.678 48.424 242.47 49.009 242.47 49.763V49.88C242.47 50.634 242.678 51.2233 243.094 51.648C243.519 52.064 244.056 52.272 244.706 52.272ZM253.02 53.182C252.379 53.182 251.816 53.0477 251.33 52.779C250.845 52.5017 250.468 52.116 250.199 51.622C249.931 51.128 249.796 50.556 249.796 49.906V49.75C249.796 49.0913 249.931 48.515 250.199 48.021C250.468 47.527 250.841 47.1457 251.317 46.877C251.794 46.5997 252.34 46.461 252.955 46.461C253.553 46.461 254.082 46.591 254.541 46.851C255.001 47.1023 255.36 47.4663 255.62 47.943C255.88 48.4197 256.01 48.9787 256.01 49.62V50.088H250.823C250.849 50.7727 251.07 51.31 251.486 51.7C251.902 52.0813 252.422 52.272 253.046 52.272C253.592 52.272 254.013 52.1463 254.307 51.895C254.602 51.6437 254.827 51.3447 254.983 50.998L255.867 51.427C255.737 51.6957 255.555 51.9643 255.321 52.233C255.096 52.5017 254.797 52.727 254.424 52.909C254.06 53.091 253.592 53.182 253.02 53.182ZM250.836 49.243H254.97C254.936 48.6537 254.732 48.1943 254.359 47.865C253.995 47.5357 253.527 47.371 252.955 47.371C252.375 47.371 251.898 47.5357 251.525 47.865C251.153 48.1943 250.923 48.6537 250.836 49.243ZM260.727 53.182C260.111 53.182 259.557 53.052 259.063 52.792C258.577 52.5233 258.192 52.142 257.906 51.648C257.628 51.154 257.49 50.569 257.49 49.893V49.75C257.49 49.0653 257.628 48.4803 257.906 47.995C258.192 47.501 258.577 47.124 259.063 46.864C259.557 46.5953 260.111 46.461 260.727 46.461C261.333 46.461 261.849 46.5737 262.274 46.799C262.707 47.0243 263.045 47.3233 263.288 47.696C263.539 48.0687 263.699 48.4673 263.769 48.892L262.768 49.1C262.724 48.788 262.62 48.502 262.456 48.242C262.3 47.982 262.079 47.774 261.793 47.618C261.507 47.462 261.156 47.384 260.74 47.384C260.315 47.384 259.934 47.4793 259.596 47.67C259.266 47.8607 259.002 48.1337 258.803 48.489C258.612 48.8443 258.517 49.269 258.517 49.763V49.88C258.517 50.374 258.612 50.7987 258.803 51.154C259.002 51.5093 259.266 51.7823 259.596 51.973C259.934 52.1637 260.315 52.259 260.74 52.259C261.372 52.259 261.853 52.0943 262.183 51.765C262.521 51.4357 262.729 51.0283 262.807 50.543L263.821 50.764C263.725 51.18 263.552 51.5743 263.301 51.947C263.049 52.3197 262.707 52.6187 262.274 52.844C261.849 53.0693 261.333 53.182 260.727 53.182ZM265.571 53V46.643H266.572V47.423H266.754C266.867 47.1457 267.04 46.942 267.274 46.812C267.508 46.682 267.816 46.617 268.197 46.617H268.951V47.553H268.132C267.673 47.553 267.3 47.683 267.014 47.943C266.737 48.1943 266.598 48.5887 266.598 49.126V53H265.571ZM273.155 53.182C272.514 53.182 271.95 53.0477 271.465 52.779C270.98 52.5017 270.603 52.116 270.334 51.622C270.065 51.128 269.931 50.556 269.931 49.906V49.75C269.931 49.0913 270.065 48.515 270.334 48.021C270.603 47.527 270.975 47.1457 271.452 46.877C271.929 46.5997 272.475 46.461 273.09 46.461C273.688 46.461 274.217 46.591 274.676 46.851C275.135 47.1023 275.495 47.4663 275.755 47.943C276.015 48.4197 276.145 48.9787 276.145 49.62V50.088H270.958C270.984 50.7727 271.205 51.31 271.621 51.7C272.037 52.0813 272.557 52.272 273.181 52.272C273.727 52.272 274.147 52.1463 274.442 51.895C274.737 51.6437 274.962 51.3447 275.118 50.998L276.002 51.427C275.872 51.6957 275.69 51.9643 275.456 52.233C275.231 52.5017 274.932 52.727 274.559 52.909C274.195 53.091 273.727 53.182 273.155 53.182ZM270.971 49.243H275.105C275.07 48.6537 274.867 48.1943 274.494 47.865C274.13 47.5357 273.662 47.371 273.09 47.371C272.509 47.371 272.033 47.5357 271.66 47.865C271.287 48.1943 271.058 48.6537 270.971 49.243ZM279.886 53.182C279.444 53.182 279.041 53.104 278.677 52.948C278.313 52.792 278.027 52.5667 277.819 52.272C277.611 51.9773 277.507 51.6177 277.507 51.193C277.507 50.7597 277.611 50.4043 277.819 50.127C278.027 49.841 278.313 49.6287 278.677 49.49C279.041 49.3427 279.449 49.269 279.899 49.269H282.044V48.801C282.044 48.3503 281.91 47.995 281.641 47.735C281.381 47.475 280.991 47.345 280.471 47.345C279.96 47.345 279.561 47.4707 279.275 47.722C278.989 47.9647 278.794 48.294 278.69 48.71L277.728 48.398C277.832 48.0427 277.997 47.722 278.222 47.436C278.448 47.1413 278.747 46.9073 279.119 46.734C279.501 46.552 279.956 46.461 280.484 46.461C281.299 46.461 281.932 46.6733 282.382 47.098C282.833 47.514 283.058 48.1033 283.058 48.866V51.739C283.058 51.999 283.18 52.129 283.422 52.129H284.007V53H283.11C282.824 53 282.595 52.922 282.421 52.766C282.248 52.6013 282.161 52.3847 282.161 52.116V52.051H282.005C281.91 52.2157 281.78 52.389 281.615 52.571C281.459 52.7443 281.243 52.8873 280.965 53C280.688 53.1213 280.328 53.182 279.886 53.182ZM280.003 52.298C280.61 52.298 281.1 52.1203 281.472 51.765C281.854 51.401 282.044 50.894 282.044 50.244V50.101H279.938C279.531 50.101 279.193 50.192 278.924 50.374C278.664 50.5473 278.534 50.8117 278.534 51.167C278.534 51.5223 278.669 51.7997 278.937 51.999C279.215 52.1983 279.57 52.298 280.003 52.298ZM287.924 53.182C287.136 53.182 286.468 53 285.922 52.636C285.385 52.272 285.06 51.6957 284.947 50.907L285.922 50.686C285.992 51.102 286.122 51.4313 286.312 51.674C286.503 51.908 286.737 52.077 287.014 52.181C287.3 52.2763 287.604 52.324 287.924 52.324C288.401 52.324 288.778 52.2287 289.055 52.038C289.333 51.8473 289.471 51.5917 289.471 51.271C289.471 50.9417 289.337 50.712 289.068 50.582C288.808 50.4433 288.449 50.3307 287.989 50.244L287.456 50.153C287.049 50.0837 286.676 49.9753 286.338 49.828C286 49.6807 285.732 49.4813 285.532 49.23C285.333 48.9787 285.233 48.6623 285.233 48.281C285.233 47.709 285.454 47.2627 285.896 46.942C286.338 46.6213 286.923 46.461 287.651 46.461C288.371 46.461 288.951 46.6257 289.393 46.955C289.844 47.2757 290.134 47.7307 290.264 48.32L289.302 48.567C289.224 48.1077 289.038 47.787 288.743 47.605C288.449 47.4143 288.085 47.319 287.651 47.319C287.218 47.319 286.876 47.4013 286.624 47.566C286.373 47.722 286.247 47.956 286.247 48.268C286.247 48.5713 286.364 48.7967 286.598 48.944C286.841 49.0827 287.162 49.1867 287.56 49.256L288.093 49.347C288.544 49.425 288.947 49.5333 289.302 49.672C289.666 49.802 289.952 49.9927 290.16 50.244C290.377 50.4953 290.485 50.8247 290.485 51.232C290.485 51.856 290.251 52.337 289.783 52.675C289.324 53.013 288.704 53.182 287.924 53.182ZM295.131 53.182C294.489 53.182 293.926 53.0477 293.441 52.779C292.955 52.5017 292.578 52.116 292.31 51.622C292.041 51.128 291.907 50.556 291.907 49.906V49.75C291.907 49.0913 292.041 48.515 292.31 48.021C292.578 47.527 292.951 47.1457 293.428 46.877C293.904 46.5997 294.45 46.461 295.066 46.461C295.664 46.461 296.192 46.591 296.652 46.851C297.111 47.1023 297.471 47.4663 297.731 47.943C297.991 48.4197 298.121 48.9787 298.121 49.62V50.088H292.934C292.96 50.7727 293.181 51.31 293.597 51.7C294.013 52.0813 294.533 52.272 295.157 52.272C295.703 52.272 296.123 52.1463 296.418 51.895C296.712 51.6437 296.938 51.3447 297.094 50.998L297.978 51.427C297.848 51.6957 297.666 51.9643 297.432 52.233C297.206 52.5017 296.907 52.727 296.535 52.909C296.171 53.091 295.703 53.182 295.131 53.182ZM292.947 49.243H297.081C297.046 48.6537 296.842 48.1943 296.47 47.865C296.106 47.5357 295.638 47.371 295.066 47.371C294.485 47.371 294.008 47.5357 293.636 47.865C293.263 48.1943 293.033 48.6537 292.947 49.243ZM303.251 53V46.643H304.278V53H303.251ZM303.771 45.655C303.546 45.655 303.355 45.5813 303.199 45.434C303.052 45.2867 302.978 45.1003 302.978 44.875C302.978 44.641 303.052 44.4503 303.199 44.303C303.355 44.1557 303.546 44.082 303.771 44.082C303.996 44.082 304.183 44.1557 304.33 44.303C304.477 44.4503 304.551 44.641 304.551 44.875C304.551 45.1003 304.477 45.2867 304.33 45.434C304.183 45.5813 303.996 45.655 303.771 45.655ZM306.437 53V46.643H307.438V47.722H307.62C307.759 47.4187 307.993 47.1457 308.322 46.903C308.66 46.6517 309.154 46.526 309.804 46.526C310.281 46.526 310.706 46.6257 311.078 46.825C311.46 47.0243 311.763 47.319 311.988 47.709C312.214 48.099 312.326 48.58 312.326 49.152V53H311.299V49.23C311.299 48.5973 311.139 48.138 310.818 47.852C310.506 47.566 310.082 47.423 309.544 47.423C308.929 47.423 308.426 47.6223 308.036 48.021C307.655 48.4197 307.464 49.0133 307.464 49.802V53H306.437ZM48.004 69.182C47.3887 69.182 46.834 69.052 46.34 68.792C45.8547 68.5233 45.469 68.142 45.183 67.648C44.9057 67.154 44.767 66.569 44.767 65.893V65.75C44.767 65.0653 44.9057 64.4803 45.183 63.995C45.469 63.501 45.8547 63.124 46.34 62.864C46.834 62.5953 47.3887 62.461 48.004 62.461C48.6107 62.461 49.1263 62.5737 49.551 62.799C49.9843 63.0243 50.3223 63.3233 50.565 63.696C50.8163 64.0687 50.9767 64.4673 51.046 64.892L50.045 65.1C50.0017 64.788 49.8977 64.502 49.733 64.242C49.577 63.982 49.356 63.774 49.07 63.618C48.784 63.462 48.433 63.384 48.017 63.384C47.5923 63.384 47.211 63.4793 46.873 63.67C46.5437 63.8607 46.2793 64.1337 46.08 64.489C45.8893 64.8443 45.794 65.269 45.794 65.763V65.88C45.794 66.374 45.8893 66.7987 46.08 67.154C46.2793 67.5093 46.5437 67.7823 46.873 67.973C47.211 68.1637 47.5923 68.259 48.017 68.259C48.6497 68.259 49.1307 68.0943 49.46 67.765C49.798 67.4357 50.006 67.0283 50.084 66.543L51.098 66.764C51.0027 67.18 50.8293 67.5743 50.578 67.947C50.3267 68.3197 49.9843 68.6187 49.551 68.844C49.1263 69.0693 48.6107 69.182 48.004 69.182ZM52.8485 69V59.9H53.8755V63.657H54.0575C54.1442 63.4663 54.2742 63.2887 54.4475 63.124C54.6295 62.9507 54.8592 62.8077 55.1365 62.695C55.4225 62.5823 55.7822 62.526 56.2155 62.526C56.6922 62.526 57.1169 62.63 57.4895 62.838C57.8709 63.0373 58.1742 63.332 58.3995 63.722C58.6249 64.1033 58.7375 64.58 58.7375 65.152V69H57.7105V65.23C57.7105 64.5973 57.5502 64.138 57.2295 63.852C56.9175 63.566 56.4929 63.423 55.9555 63.423C55.3402 63.423 54.8375 63.6223 54.4475 64.021C54.0662 64.4197 53.8755 65.0133 53.8755 65.802V69H52.8485ZM62.7712 69.182C62.3292 69.182 61.9262 69.104 61.5622 68.948C61.1982 68.792 60.9122 68.5667 60.7042 68.272C60.4962 67.9773 60.3922 67.6177 60.3922 67.193C60.3922 66.7597 60.4962 66.4043 60.7042 66.127C60.9122 65.841 61.1982 65.6287 61.5622 65.49C61.9262 65.3427 62.3335 65.269 62.7842 65.269H64.9292V64.801C64.9292 64.3503 64.7949 63.995 64.5262 63.735C64.2662 63.475 63.8762 63.345 63.3562 63.345C62.8449 63.345 62.4462 63.4707 62.1602 63.722C61.8742 63.9647 61.6792 64.294 61.5752 64.71L60.6132 64.398C60.7172 64.0427 60.8819 63.722 61.1072 63.436C61.3325 63.1413 61.6315 62.9073 62.0042 62.734C62.3855 62.552 62.8405 62.461 63.3692 62.461C64.1839 62.461 64.8165 62.6733 65.2672 63.098C65.7179 63.514 65.9432 64.1033 65.9432 64.866V67.739C65.9432 67.999 66.0645 68.129 66.3072 68.129H66.8922V69H65.9952C65.7092 69 65.4795 68.922 65.3062 68.766C65.1329 68.6013 65.0462 68.3847 65.0462 68.116V68.051H64.8902C64.7949 68.2157 64.6649 68.389 64.5002 68.571C64.3442 68.7443 64.1275 68.8873 63.8502 69C63.5729 69.1213 63.2132 69.182 62.7712 69.182ZM62.8882 68.298C63.4949 68.298 63.9845 68.1203 64.3572 67.765C64.7385 67.401 64.9292 66.894 64.9292 66.244V66.101H62.8232C62.4159 66.101 62.0779 66.192 61.8092 66.374C61.5492 66.5473 61.4192 66.8117 61.4192 67.167C61.4192 67.5223 61.5535 67.7997 61.8222 67.999C62.0995 68.1983 62.4549 68.298 62.8882 68.298ZM68.2987 69V62.643H69.2997V63.722H69.4817C69.6204 63.4187 69.8544 63.1457 70.1837 62.903C70.5217 62.6517 71.0157 62.526 71.6657 62.526C72.1424 62.526 72.5671 62.6257 72.9397 62.825C73.3211 63.0243 73.6244 63.319 73.8497 63.709C74.0751 64.099 74.1877 64.58 74.1877 65.152V69H73.1607V65.23C73.1607 64.5973 73.0004 64.138 72.6797 63.852C72.3677 63.566 71.9431 63.423 71.4057 63.423C70.7904 63.423 70.2877 63.6223 69.8977 64.021C69.5164 64.4197 69.3257 65.0133 69.3257 65.802V69H68.2987ZM76.2714 69V62.643H77.2724V63.722H77.4544C77.593 63.4187 77.827 63.1457 78.1564 62.903C78.4944 62.6517 78.9884 62.526 79.6384 62.526C80.115 62.526 80.5397 62.6257 80.9124 62.825C81.2937 63.0243 81.597 63.319 81.8224 63.709C82.0477 64.099 82.1604 64.58 82.1604 65.152V69H81.1334V65.23C81.1334 64.5973 80.973 64.138 80.6524 63.852C80.3404 63.566 79.9157 63.423 79.3784 63.423C78.763 63.423 78.2604 63.6223 77.8704 64.021C77.489 64.4197 77.2984 65.0133 77.2984 65.802V69H76.2714ZM87.156 69.182C86.5147 69.182 85.9514 69.0477 85.466 68.779C84.9807 68.5017 84.6037 68.116 84.335 67.622C84.0664 67.128 83.932 66.556 83.932 65.906V65.75C83.932 65.0913 84.0664 64.515 84.335 64.021C84.6037 63.527 84.9764 63.1457 85.453 62.877C85.9297 62.5997 86.4757 62.461 87.091 62.461C87.689 62.461 88.2177 62.591 88.677 62.851C89.1364 63.1023 89.496 63.4663 89.756 63.943C90.016 64.4197 90.146 64.9787 90.146 65.62V66.088H84.959C84.985 66.7727 85.206 67.31 85.622 67.7C86.038 68.0813 86.558 68.272 87.182 68.272C87.728 68.272 88.1484 68.1463 88.443 67.895C88.7377 67.6437 88.963 67.3447 89.119 66.998L90.003 67.427C89.873 67.6957 89.691 67.9643 89.457 68.233C89.2317 68.5017 88.9327 68.727 88.56 68.909C88.196 69.091 87.728 69.182 87.156 69.182ZM84.972 65.243H89.106C89.0714 64.6537 88.8677 64.1943 88.495 63.865C88.131 63.5357 87.663 63.371 87.091 63.371C86.5104 63.371 86.0337 63.5357 85.661 63.865C85.2884 64.1943 85.0587 64.6537 84.972 65.243ZM91.9374 69V59.9H92.9644V69H91.9374ZM100.075 69L97.7998 62.643H98.8918L100.803 68.233H100.985L102.896 62.643H103.988L101.713 69H100.075ZM105.471 69V62.643H106.498V69H105.471ZM105.991 61.655C105.765 61.655 105.575 61.5813 105.419 61.434C105.271 61.2867 105.198 61.1003 105.198 60.875C105.198 60.641 105.271 60.4503 105.419 60.303C105.575 60.1557 105.765 60.082 105.991 60.082C106.216 60.082 106.402 60.1557 106.55 60.303C106.697 60.4503 106.771 60.641 106.771 60.875C106.771 61.1003 106.697 61.2867 106.55 61.434C106.402 61.5813 106.216 61.655 105.991 61.655ZM111.569 69.182C110.928 69.182 110.364 69.0477 109.879 68.779C109.394 68.5017 109.017 68.116 108.748 67.622C108.479 67.128 108.345 66.556 108.345 65.906V65.75C108.345 65.0913 108.479 64.515 108.748 64.021C109.017 63.527 109.389 63.1457 109.866 62.877C110.343 62.5997 110.889 62.461 111.504 62.461C112.102 62.461 112.631 62.591 113.09 62.851C113.549 63.1023 113.909 63.4663 114.169 63.943C114.429 64.4197 114.559 64.9787 114.559 65.62V66.088H109.372C109.398 66.7727 109.619 67.31 110.035 67.7C110.451 68.0813 110.971 68.272 111.595 68.272C112.141 68.272 112.561 68.1463 112.856 67.895C113.151 67.6437 113.376 67.3447 113.532 66.998L114.416 67.427C114.286 67.6957 114.104 67.9643 113.87 68.233C113.645 68.5017 113.346 68.727 112.973 68.909C112.609 69.091 112.141 69.182 111.569 69.182ZM109.385 65.243H113.519C113.484 64.6537 113.281 64.1943 112.908 63.865C112.544 63.5357 112.076 63.371 111.504 63.371C110.923 63.371 110.447 63.5357 110.074 63.865C109.701 64.1943 109.472 64.6537 109.385 65.243ZM117.108 69L115.834 62.643H116.874L117.927 68.311H118.109L119.5 62.643H121.203L122.594 68.311H122.776L123.829 62.643H124.869L123.595 69H121.84L120.436 63.332H120.267L118.863 69H117.108ZM129.131 69.182C128.343 69.182 127.675 69 127.129 68.636C126.592 68.272 126.267 67.6957 126.154 66.907L127.129 66.686C127.199 67.102 127.329 67.4313 127.519 67.674C127.71 67.908 127.944 68.077 128.221 68.181C128.507 68.2763 128.811 68.324 129.131 68.324C129.608 68.324 129.985 68.2287 130.262 68.038C130.54 67.8473 130.678 67.5917 130.678 67.271C130.678 66.9417 130.544 66.712 130.275 66.582C130.015 66.4433 129.656 66.3307 129.196 66.244L128.663 66.153C128.256 66.0837 127.883 65.9753 127.545 65.828C127.207 65.6807 126.939 65.4813 126.739 65.23C126.54 64.9787 126.44 64.6623 126.44 64.281C126.44 63.709 126.661 63.2627 127.103 62.942C127.545 62.6213 128.13 62.461 128.858 62.461C129.578 62.461 130.158 62.6257 130.6 62.955C131.051 63.2757 131.341 63.7307 131.471 64.32L130.509 64.567C130.431 64.1077 130.245 63.787 129.95 63.605C129.656 63.4143 129.292 63.319 128.858 63.319C128.425 63.319 128.083 63.4013 127.831 63.566C127.58 63.722 127.454 63.956 127.454 64.268C127.454 64.5713 127.571 64.7967 127.805 64.944C128.048 65.0827 128.369 65.1867 128.767 65.256L129.3 65.347C129.751 65.425 130.154 65.5333 130.509 65.672C130.873 65.802 131.159 65.9927 131.367 66.244C131.584 66.4953 131.692 66.8247 131.692 67.232C131.692 67.856 131.458 68.337 130.99 68.675C130.531 69.013 129.911 69.182 129.131 69.182ZM133.985 69.182C133.733 69.182 133.521 69.0997 133.348 68.935C133.183 68.7703 133.101 68.558 133.101 68.298C133.101 68.038 133.183 67.8257 133.348 67.661C133.521 67.4963 133.733 67.414 133.985 67.414C134.245 67.414 134.457 67.4963 134.622 67.661C134.786 67.8257 134.869 68.038 134.869 68.298C134.869 68.558 134.786 68.7703 134.622 68.935C134.457 69.0997 134.245 69.182 133.985 69.182Z" fill="white"/>
<path d="M214.813 50.283V49.061H218.661V50.283H214.813ZM220.238 53V51.973C220.238 51.3403 220.347 50.8203 220.563 50.413C220.78 50.0057 221.088 49.6763 221.486 49.425C221.894 49.165 222.383 48.9483 222.955 48.775L223.748 48.528C224.104 48.4153 224.407 48.2767 224.658 48.112C224.918 47.9473 225.118 47.7437 225.256 47.501C225.395 47.2497 225.464 46.9593 225.464 46.63V46.578C225.464 46.0667 225.291 45.668 224.944 45.382C224.598 45.0873 224.143 44.94 223.579 44.94C222.999 44.94 222.526 45.096 222.162 45.408C221.807 45.72 221.629 46.1793 221.629 46.786V46.994H220.277V46.799C220.277 46.1403 220.42 45.5857 220.706 45.135C220.992 44.6757 221.387 44.3247 221.889 44.082C222.392 43.8393 222.955 43.718 223.579 43.718C224.203 43.718 224.758 43.835 225.243 44.069C225.737 44.303 226.123 44.6323 226.4 45.057C226.686 45.4817 226.829 45.98 226.829 46.552V46.669C226.829 47.2583 226.712 47.748 226.478 48.138C226.244 48.528 225.919 48.8487 225.503 49.1C225.096 49.3513 224.624 49.5637 224.086 49.737L223.319 49.971C222.912 50.0923 222.583 50.2267 222.331 50.374C222.089 50.5127 221.907 50.6817 221.785 50.881C221.673 51.0803 221.616 51.336 221.616 51.648V51.778H226.751V53H220.238ZM229.217 53.169L228.385 52.493L235.496 43.731L236.328 44.407L229.217 53.169ZM234.846 53.143C234.204 53.143 233.697 52.9653 233.325 52.61C232.952 52.246 232.766 51.7563 232.766 51.141V51.063C232.766 50.439 232.952 49.9493 233.325 49.594C233.697 49.23 234.204 49.048 234.846 49.048C235.478 49.048 235.985 49.23 236.367 49.594C236.748 49.9493 236.939 50.439 236.939 51.063V51.141C236.939 51.7563 236.748 52.246 236.367 52.61C235.994 52.9653 235.487 53.143 234.846 53.143ZM234.846 52.233C235.158 52.233 235.4 52.1377 235.574 51.947C235.756 51.7563 235.847 51.505 235.847 51.193V51.011C235.847 50.6903 235.756 50.4347 235.574 50.244C235.4 50.0533 235.158 49.958 234.846 49.958C234.542 49.958 234.3 50.0533 234.118 50.244C233.944 50.4347 233.858 50.6903 233.858 51.011V51.193C233.858 51.505 233.944 51.7563 234.118 51.947C234.3 52.1377 234.542 52.233 234.846 52.233ZM229.867 47.852C229.225 47.852 228.714 47.6743 228.333 47.319C227.96 46.955 227.774 46.4653 227.774 45.85V45.759C227.774 45.135 227.96 44.6453 228.333 44.29C228.714 43.9347 229.225 43.757 229.867 43.757C230.499 43.757 231.002 43.9347 231.375 44.29C231.756 44.6453 231.947 45.135 231.947 45.759V45.85C231.947 46.4653 231.76 46.955 231.388 47.319C231.015 47.6743 230.508 47.852 229.867 47.852ZM229.867 46.942C230.17 46.942 230.408 46.8467 230.582 46.656C230.764 46.4567 230.855 46.201 230.855 45.889V45.707C230.855 45.395 230.764 45.1437 230.582 44.953C230.408 44.7623 230.17 44.667 229.867 44.667C229.555 44.667 229.308 44.7623 229.126 44.953C228.952 45.1437 228.866 45.395 228.866 45.707V45.889C228.866 46.201 228.952 46.4567 229.126 46.656C229.308 46.8467 229.555 46.942 229.867 46.942Z" fill="#D61402"/>
<defs>
<clipPath id="clip0_9640_1466">
<rect width="20" height="20" fill="white" transform="translate(16 16)"/>
</clipPath>
</defs>
</svg>
