<svg width="345" height="93" viewBox="0 0 345 93" fill="none" xmlns="http://www.w3.org/2000/svg">
<rect width="345" height="93" rx="8" fill="#1F1F1F" fill-opacity="0.88"/>
<g clip-path="url(#clip0_9640_1452)">
<path d="M29.8641 29.7116C30.0288 29.4432 29.9436 29.0933 29.6755 28.9287L29.6755 28.9287C27.465 27.5778 24.728 27.2655 21.5444 27.9932C21.2373 28.063 21.0462 28.3684 21.1163 28.6747C21.1861 28.9811 21.4914 29.173 21.7977 29.1032L21.7977 29.1032C24.6897 28.4425 27.1386 28.7137 29.0811 29.9002C29.3494 30.0649 29.7005 29.9798 29.8641 29.7116ZM29.8641 29.7116C29.8641 29.7116 29.8641 29.7117 29.8641 29.7117L29.8217 29.6856L29.8641 29.7115C29.8641 29.7116 29.8641 29.7116 29.8641 29.7116ZM30.9156 25.1032L30.9038 25.0962C29.5697 24.3038 27.7987 23.8695 26.039 23.7311C24.2796 23.5927 22.5371 23.7504 21.2622 24.1374L21.2622 24.1374C20.8242 24.2702 20.3609 24.0229 20.2281 23.5848L20.2281 23.5848C20.0954 23.1466 20.3424 22.6836 20.7808 22.5504L20.7808 22.5504C22.2598 22.1015 24.2256 21.921 26.2083 22.0823C28.1909 22.2436 30.1954 22.7471 31.7501 23.67L30.9156 25.1032ZM30.9156 25.1032H30.9162M30.9156 25.1032H30.9162M30.9162 25.1032C31.3073 25.3275 31.8097 25.1963 32.0402 24.8062C32.2741 24.4127 32.145 23.9039 31.7501 23.67L30.9162 25.1032ZM17.7163 25.9999C17.7163 21.4463 21.3907 17.7508 25.9362 17.7165L25.9362 17.7167H25.9999C30.5754 17.7167 34.2838 21.4253 34.2838 25.9999C34.2838 30.575 30.5754 34.2834 26 34.2834C21.4251 34.2834 17.7163 30.575 17.7163 25.9999ZM21.6439 26.6591C21.3003 26.7628 20.9374 26.5692 20.8331 26.2262L29.948 27.6307C27.708 26.2535 24.2934 25.8548 21.6439 26.6591ZM21.6584 26.7067C24.2951 25.9063 27.6948 26.3038 29.922 27.6731C30.2511 27.8757 30.6817 27.7716 30.8841 27.4423C31.0866 27.1136 30.9825 26.6831 30.6538 26.4808L30.6538 26.4807C28.0686 24.8921 24.2913 24.446 21.2519 25.3682L21.2519 25.3683C20.8826 25.4807 20.6741 25.8707 20.7855 26.2405L20.7855 26.2407C20.8978 26.61 21.2885 26.8184 21.6583 26.7067L21.6584 26.7067Z" fill="#1DB954"/>
<path d="M29.8641 29.7116C30.0288 29.4432 29.9436 29.0933 29.6755 28.9287L29.6755 28.9287C27.465 27.5778 24.728 27.2655 21.5444 27.9932C21.2373 28.063 21.0462 28.3684 21.1163 28.6747C21.1861 28.9811 21.4914 29.173 21.7977 29.1032L21.7977 29.1032C24.6897 28.4425 27.1386 28.7137 29.0811 29.9002C29.3494 30.0649 29.7005 29.9798 29.8641 29.7116ZM29.8641 29.7116C29.8641 29.7116 29.8641 29.7117 29.8641 29.7117L29.8217 29.6856L29.8641 29.7115C29.8641 29.7116 29.8641 29.7116 29.8641 29.7116ZM30.9156 25.1032L30.9038 25.0962C29.5697 24.3038 27.7987 23.8695 26.039 23.7311C24.2796 23.5927 22.5371 23.7504 21.2622 24.1374L21.2622 24.1374C20.8242 24.2702 20.3609 24.0229 20.2281 23.5848L20.2281 23.5848C20.0954 23.1466 20.3424 22.6836 20.7808 22.5504L20.7808 22.5504C22.2598 22.1015 24.2256 21.921 26.2083 22.0823C28.1909 22.2436 30.1954 22.7471 31.7501 23.67L30.9156 25.1032ZM30.9156 25.1032H30.9162M30.9156 25.1032H30.9162M30.9162 25.1032C31.3073 25.3275 31.8097 25.1963 32.0402 24.8062C32.2741 24.4127 32.145 23.9039 31.7501 23.67L30.9162 25.1032ZM17.7163 25.9999C17.7163 21.4463 21.3907 17.7508 25.9362 17.7165L25.9362 17.7167H25.9999C30.5754 17.7167 34.2838 21.4253 34.2838 25.9999C34.2838 30.575 30.5754 34.2834 26 34.2834C21.4251 34.2834 17.7163 30.575 17.7163 25.9999ZM21.6439 26.6591C21.3003 26.7628 20.9374 26.5692 20.8331 26.2262L29.948 27.6307C27.708 26.2535 24.2934 25.8548 21.6439 26.6591ZM21.6584 26.7067C24.2951 25.9063 27.6948 26.3038 29.922 27.6731C30.2511 27.8757 30.6817 27.7716 30.8841 27.4423C31.0866 27.1136 30.9825 26.6831 30.6538 26.4808L30.6538 26.4807C28.0686 24.8921 24.2913 24.446 21.2519 25.3682L21.2519 25.3683C20.8826 25.4807 20.6741 25.8707 20.7855 26.2405L20.7855 26.2407C20.8978 26.61 21.2885 26.8184 21.6583 26.7067L21.6584 26.7067Z" fill="black" fill-opacity="0.1"/>
<path d="M29.8641 29.7116C30.0288 29.4432 29.9436 29.0933 29.6755 28.9287L29.6755 28.9287C27.465 27.5778 24.728 27.2655 21.5444 27.9932C21.2373 28.063 21.0462 28.3684 21.1163 28.6747C21.1861 28.9811 21.4914 29.173 21.7977 29.1032L21.7977 29.1032C24.6897 28.4425 27.1386 28.7137 29.0811 29.9002C29.3494 30.0649 29.7005 29.9798 29.8641 29.7116ZM29.8641 29.7116C29.8641 29.7116 29.8641 29.7117 29.8641 29.7117L29.8217 29.6856L29.8641 29.7115C29.8641 29.7116 29.8641 29.7116 29.8641 29.7116ZM30.9156 25.1032L30.9038 25.0962C29.5697 24.3038 27.7987 23.8695 26.039 23.7311C24.2796 23.5927 22.5371 23.7504 21.2622 24.1374L21.2622 24.1374C20.8242 24.2702 20.3609 24.0229 20.2281 23.5848L20.2281 23.5848C20.0954 23.1466 20.3424 22.6836 20.7808 22.5504L20.7808 22.5504C22.2598 22.1015 24.2256 21.921 26.2083 22.0823C28.1909 22.2436 30.1954 22.7471 31.7501 23.67L30.9156 25.1032ZM30.9156 25.1032H30.9162M30.9156 25.1032H30.9162M30.9162 25.1032C31.3073 25.3275 31.8097 25.1963 32.0402 24.8062C32.2741 24.4127 32.145 23.9039 31.7501 23.67L30.9162 25.1032ZM17.7163 25.9999C17.7163 21.4463 21.3907 17.7508 25.9362 17.7165L25.9362 17.7167H25.9999C30.5754 17.7167 34.2838 21.4253 34.2838 25.9999C34.2838 30.575 30.5754 34.2834 26 34.2834C21.4251 34.2834 17.7163 30.575 17.7163 25.9999ZM21.6439 26.6591C21.3003 26.7628 20.9374 26.5692 20.8331 26.2262L29.948 27.6307C27.708 26.2535 24.2934 25.8548 21.6439 26.6591ZM21.6584 26.7067C24.2951 25.9063 27.6948 26.3038 29.922 27.6731C30.2511 27.8757 30.6817 27.7716 30.8841 27.4423C31.0866 27.1136 30.9825 26.6831 30.6538 26.4808L30.6538 26.4807C28.0686 24.8921 24.2913 24.446 21.2519 25.3682L21.2519 25.3683C20.8826 25.4807 20.6741 25.8707 20.7855 26.2405L20.7855 26.2407C20.8978 26.61 21.2885 26.8184 21.6583 26.7067L21.6584 26.7067Z" stroke="#1DB954" stroke-width="0.0995126"/>
</g>
<path d="M45.022 31V21.2H46.534V29.628H51.252V31H45.022ZM52.7772 31V21.2H54.2892V31H52.7772ZM59.8039 31.196C59.0666 31.196 58.4133 31.0653 57.8439 30.804C57.2746 30.5427 56.8266 30.16 56.4999 29.656C56.1826 29.1427 56.0239 28.522 56.0239 27.794V27.444H57.5219V27.794C57.5219 28.4847 57.7273 29.0027 58.1379 29.348C58.5579 29.6933 59.1133 29.866 59.8039 29.866C60.5039 29.866 61.0313 29.7213 61.3859 29.432C61.7406 29.1333 61.9179 28.7507 61.9179 28.284C61.9179 27.976 61.8339 27.724 61.6659 27.528C61.4979 27.332 61.2599 27.178 60.9519 27.066C60.6439 26.9447 60.2753 26.8327 59.8459 26.73L59.3279 26.604C58.7026 26.4547 58.1566 26.2727 57.6899 26.058C57.2326 25.834 56.8779 25.54 56.6259 25.176C56.3739 24.812 56.2479 24.3453 56.2479 23.776C56.2479 23.1973 56.3879 22.7027 56.6679 22.292C56.9573 21.8813 57.3539 21.564 57.8579 21.34C58.3619 21.116 58.9546 21.004 59.6359 21.004C60.3173 21.004 60.9239 21.1207 61.4559 21.354C61.9973 21.5873 62.4219 21.9327 62.7299 22.39C63.0379 22.8473 63.1919 23.4213 63.1919 24.112V24.616H61.6939V24.112C61.6939 23.692 61.6053 23.3513 61.4279 23.09C61.2599 22.8287 61.0219 22.6373 60.7139 22.516C60.4059 22.3947 60.0466 22.334 59.6359 22.334C59.0386 22.334 58.5719 22.46 58.2359 22.712C57.9093 22.9547 57.7459 23.2953 57.7459 23.734C57.7459 24.0327 57.8159 24.28 57.9559 24.476C58.1053 24.6627 58.3199 24.8167 58.5999 24.938C58.8799 25.0593 59.2299 25.1667 59.6499 25.26L60.1679 25.386C60.8026 25.526 61.3626 25.708 61.8479 25.932C62.3333 26.1467 62.7159 26.4407 62.9959 26.814C63.2759 27.1873 63.4159 27.668 63.4159 28.256C63.4159 28.844 63.2666 29.3573 62.9679 29.796C62.6786 30.2347 62.2633 30.58 61.7219 30.832C61.1806 31.0747 60.5413 31.196 59.8039 31.196ZM67.112 31V22.572H64.102V21.2H71.634V22.572H68.624V31H67.112ZM73.1445 31V21.2H79.3185V22.572H74.6565V25.386H78.9265V26.758H74.6565V29.628H79.3885V31H73.1445ZM81.1048 31V21.2H84.0168L86.6768 29.992H86.9008V21.2H88.3988V31H85.4868L82.8268 22.194H82.6028V31H81.1048ZM90.5827 31V21.2H96.7567V22.572H92.0947V25.386H96.3647V26.758H92.0947V29.628H96.8267V31H90.5827ZM98.543 31V21.2H102.659C103.266 21.2 103.798 21.3073 104.255 21.522C104.722 21.7273 105.081 22.026 105.333 22.418C105.594 22.81 105.725 23.2767 105.725 23.818V23.972C105.725 24.588 105.576 25.0827 105.277 25.456C104.988 25.82 104.633 26.0767 104.213 26.226V26.45C104.568 26.4687 104.852 26.59 105.067 26.814C105.282 27.0287 105.389 27.3413 105.389 27.752V31H103.863V27.962C103.863 27.71 103.798 27.5093 103.667 27.36C103.536 27.2107 103.326 27.136 103.037 27.136H100.055V31H98.543ZM100.055 25.764H102.491C103.032 25.764 103.452 25.6287 103.751 25.358C104.05 25.078 104.199 24.7 104.199 24.224V24.112C104.199 23.636 104.05 23.2627 103.751 22.992C103.462 22.712 103.042 22.572 102.491 22.572H100.055V25.764ZM114.639 31.196C113.939 31.196 113.314 31.0467 112.763 30.748C112.212 30.44 111.778 29.992 111.461 29.404C111.144 28.816 110.985 28.0973 110.985 27.248V24.952C110.985 23.6733 111.335 22.698 112.035 22.026C112.735 21.3447 113.682 21.004 114.877 21.004C116.053 21.004 116.958 21.326 117.593 21.97C118.228 22.6047 118.545 23.4587 118.545 24.532V24.602H117.047V24.49C117.047 24.0887 116.968 23.7293 116.809 23.412C116.65 23.0853 116.412 22.8287 116.095 22.642C115.778 22.4553 115.372 22.362 114.877 22.362C114.13 22.362 113.547 22.5907 113.127 23.048C112.707 23.496 112.497 24.1213 112.497 24.924V27.276C112.497 28.0693 112.707 28.6993 113.127 29.166C113.547 29.6233 114.135 29.852 114.891 29.852C115.638 29.852 116.184 29.6467 116.529 29.236C116.874 28.8253 117.047 28.2933 117.047 27.64V27.458H114.415V26.156H118.545V31H117.145V30.006H116.921C116.837 30.1833 116.711 30.3653 116.543 30.552C116.384 30.7387 116.151 30.8927 115.843 31.014C115.544 31.1353 115.143 31.196 114.639 31.196ZM120.633 31V21.2H124.749C125.356 21.2 125.888 21.3073 126.345 21.522C126.812 21.7273 127.171 22.026 127.423 22.418C127.684 22.81 127.815 23.2767 127.815 23.818V23.972C127.815 24.588 127.666 25.0827 127.367 25.456C127.078 25.82 126.723 26.0767 126.303 26.226V26.45C126.658 26.4687 126.942 26.59 127.157 26.814C127.372 27.0287 127.479 27.3413 127.479 27.752V31H125.953V27.962C125.953 27.71 125.888 27.5093 125.757 27.36C125.626 27.2107 125.416 27.136 125.127 27.136H122.145V31H120.633ZM122.145 25.764H124.581C125.122 25.764 125.542 25.6287 125.841 25.358C126.14 25.078 126.289 24.7 126.289 24.224V24.112C126.289 23.636 126.14 23.2627 125.841 22.992C125.552 22.712 125.132 22.572 124.581 22.572H122.145V25.764ZM133.301 31.196C132.097 31.196 131.14 30.86 130.431 30.188C129.721 29.5067 129.367 28.5267 129.367 27.248V24.952C129.367 23.6733 129.721 22.698 130.431 22.026C131.14 21.3447 132.097 21.004 133.301 21.004C134.505 21.004 135.461 21.3447 136.171 22.026C136.889 22.698 137.249 23.6733 137.249 24.952V27.248C137.249 28.5267 136.889 29.5067 136.171 30.188C135.461 30.86 134.505 31.196 133.301 31.196ZM133.301 29.838C134.075 29.838 134.673 29.614 135.093 29.166C135.513 28.7087 135.723 28.088 135.723 27.304V24.896C135.723 24.112 135.513 23.496 135.093 23.048C134.673 22.5907 134.075 22.362 133.301 22.362C132.545 22.362 131.952 22.5907 131.523 23.048C131.093 23.496 130.879 24.112 130.879 24.896V27.304C130.879 28.088 131.093 28.7087 131.523 29.166C131.952 29.614 132.545 29.838 133.301 29.838ZM139.965 31L138.523 21.2H140.035L141.211 29.978H141.435L142.947 21.2H145.593L147.105 29.978H147.329L148.491 21.2H150.003L148.561 31H145.915L144.375 22.096H144.151L142.625 31H139.965ZM153.975 31V22.572H150.965V21.2H158.497V22.572H155.487V31H153.975ZM160.007 31V21.2H161.519V25.4H165.635V21.2H167.147V31H165.635V26.772H161.519V31H160.007Z" fill="#C9C9C9"/>
<path d="M47.419 53.182C46.5263 53.182 45.82 52.9307 45.3 52.428C44.7887 51.9253 44.533 51.206 44.533 50.27V49.568H45.612V50.27C45.612 50.8333 45.7593 51.2927 46.054 51.648C46.3573 52.0033 46.808 52.181 47.406 52.181C48.0127 52.181 48.4417 52.0077 48.693 51.661C48.9443 51.3057 49.07 50.842 49.07 50.27V44.888H47.471V43.9H51.15V44.888H50.162V50.27C50.162 51.2147 49.928 51.9383 49.46 52.441C48.992 52.935 48.3117 53.182 47.419 53.182ZM54.405 53.182C53.963 53.182 53.56 53.104 53.196 52.948C52.832 52.792 52.546 52.5667 52.338 52.272C52.13 51.9773 52.026 51.6177 52.026 51.193C52.026 50.7597 52.13 50.4043 52.338 50.127C52.546 49.841 52.832 49.6287 53.196 49.49C53.56 49.3427 53.9673 49.269 54.418 49.269H56.563V48.801C56.563 48.3503 56.4286 47.995 56.16 47.735C55.9 47.475 55.51 47.345 54.99 47.345C54.4786 47.345 54.08 47.4707 53.794 47.722C53.508 47.9647 53.313 48.294 53.209 48.71L52.247 48.398C52.351 48.0427 52.5156 47.722 52.741 47.436C52.9663 47.1413 53.2653 46.9073 53.638 46.734C54.0193 46.552 54.4743 46.461 55.003 46.461C55.8176 46.461 56.4503 46.6733 56.901 47.098C57.3516 47.514 57.577 48.1033 57.577 48.866V51.739C57.577 51.999 57.6983 52.129 57.941 52.129H58.526V53H57.629C57.343 53 57.1133 52.922 56.94 52.766C56.7666 52.6013 56.68 52.3847 56.68 52.116V52.051H56.524C56.4286 52.2157 56.2986 52.389 56.134 52.571C55.978 52.7443 55.7613 52.8873 55.484 53C55.2066 53.1213 54.847 53.182 54.405 53.182ZM54.522 52.298C55.1286 52.298 55.6183 52.1203 55.991 51.765C56.3723 51.401 56.563 50.894 56.563 50.244V50.101H54.457C54.0496 50.101 53.7116 50.192 53.443 50.374C53.183 50.5473 53.053 50.8117 53.053 51.167C53.053 51.5223 53.1873 51.7997 53.456 51.999C53.7333 52.1983 54.0886 52.298 54.522 52.298ZM59.9325 53V46.643H60.9335V47.722H61.1155C61.2542 47.4187 61.4882 47.1457 61.8175 46.903C62.1555 46.6517 62.6495 46.526 63.2995 46.526C63.7762 46.526 64.2008 46.6257 64.5735 46.825C64.9548 47.0243 65.2582 47.319 65.4835 47.709C65.7088 48.099 65.8215 48.58 65.8215 49.152V53H64.7945V49.23C64.7945 48.5973 64.6342 48.138 64.3135 47.852C64.0015 47.566 63.5768 47.423 63.0395 47.423C62.4242 47.423 61.9215 47.6223 61.5315 48.021C61.1502 48.4197 60.9595 49.0133 60.9595 49.802V53H59.9325ZM67.9052 53V46.643H68.9062V47.722H69.0882C69.2268 47.4187 69.4608 47.1457 69.7902 46.903C70.1282 46.6517 70.6222 46.526 71.2722 46.526C71.7488 46.526 72.1735 46.6257 72.5462 46.825C72.9275 47.0243 73.2308 47.319 73.4562 47.709C73.6815 48.099 73.7942 48.58 73.7942 49.152V53H72.7672V49.23C72.7672 48.5973 72.6068 48.138 72.2862 47.852C71.9742 47.566 71.5495 47.423 71.0122 47.423C70.3968 47.423 69.8942 47.6223 69.5042 48.021C69.1228 48.4197 68.9322 49.0133 68.9322 49.802V53H67.9052ZM78.7898 53.182C78.1485 53.182 77.5852 53.0477 77.0998 52.779C76.6145 52.5017 76.2375 52.116 75.9688 51.622C75.7002 51.128 75.5658 50.556 75.5658 49.906V49.75C75.5658 49.0913 75.7002 48.515 75.9688 48.021C76.2375 47.527 76.6102 47.1457 77.0868 46.877C77.5635 46.5997 78.1095 46.461 78.7248 46.461C79.3228 46.461 79.8515 46.591 80.3108 46.851C80.7702 47.1023 81.1298 47.4663 81.3898 47.943C81.6498 48.4197 81.7798 48.9787 81.7798 49.62V50.088H76.5928C76.6188 50.7727 76.8398 51.31 77.2558 51.7C77.6718 52.0813 78.1918 52.272 78.8158 52.272C79.3618 52.272 79.7822 52.1463 80.0768 51.895C80.3715 51.6437 80.5968 51.3447 80.7528 50.998L81.6368 51.427C81.5068 51.6957 81.3248 51.9643 81.0908 52.233C80.8655 52.5017 80.5665 52.727 80.1938 52.909C79.8298 53.091 79.3618 53.182 78.7898 53.182ZM76.6058 49.243H80.7398C80.7052 48.6537 80.5015 48.1943 80.1288 47.865C79.7648 47.5357 79.2968 47.371 78.7248 47.371C78.1442 47.371 77.6675 47.5357 77.2948 47.865C76.9222 48.1943 76.6925 48.6537 76.6058 49.243ZM85.6446 53C85.2806 53 84.9989 52.9003 84.7996 52.701C84.6089 52.5017 84.5136 52.2287 84.5136 51.882V47.54H82.6026V46.643H84.5136V44.381H85.5406V46.643H87.6206V47.54H85.5406V51.726C85.5406 51.986 85.6663 52.116 85.9176 52.116H87.3346V53H85.6446ZM92.5839 53V43.9H94.6639L97.0819 52.311H97.2509L99.6689 43.9H101.749V53H100.696V44.615H100.514L98.1089 53H96.2239L93.8189 44.615H93.6369V53H92.5839ZM103.871 53V46.643H104.898V53H103.871ZM104.391 45.655C104.166 45.655 103.975 45.5813 103.819 45.434C103.672 45.2867 103.598 45.1003 103.598 44.875C103.598 44.641 103.672 44.4503 103.819 44.303C103.975 44.1557 104.166 44.082 104.391 44.082C104.616 44.082 104.803 44.1557 104.95 44.303C105.097 44.4503 105.171 44.641 105.171 44.875C105.171 45.1003 105.097 45.2867 104.95 45.434C104.803 45.5813 104.616 45.655 104.391 45.655ZM109.983 53.182C109.367 53.182 108.813 53.052 108.319 52.792C107.833 52.5233 107.448 52.142 107.162 51.648C106.884 51.154 106.746 50.569 106.746 49.893V49.75C106.746 49.0653 106.884 48.4803 107.162 47.995C107.448 47.501 107.833 47.124 108.319 46.864C108.813 46.5953 109.367 46.461 109.983 46.461C110.589 46.461 111.105 46.5737 111.53 46.799C111.963 47.0243 112.301 47.3233 112.544 47.696C112.795 48.0687 112.955 48.4673 113.025 48.892L112.024 49.1C111.98 48.788 111.876 48.502 111.712 48.242C111.556 47.982 111.335 47.774 111.049 47.618C110.763 47.462 110.412 47.384 109.996 47.384C109.571 47.384 109.19 47.4793 108.852 47.67C108.522 47.8607 108.258 48.1337 108.059 48.489C107.868 48.8443 107.773 49.269 107.773 49.763V49.88C107.773 50.374 107.868 50.7987 108.059 51.154C108.258 51.5093 108.522 51.7823 108.852 51.973C109.19 52.1637 109.571 52.259 109.996 52.259C110.628 52.259 111.109 52.0943 111.439 51.765C111.777 51.4357 111.985 51.0283 112.063 50.543L113.077 50.764C112.981 51.18 112.808 51.5743 112.557 51.947C112.305 52.3197 111.963 52.6187 111.53 52.844C111.105 53.0693 110.589 53.182 109.983 53.182ZM114.827 53V43.9H115.854V47.657H116.036C116.123 47.4663 116.253 47.2887 116.426 47.124C116.608 46.9507 116.838 46.8077 117.115 46.695C117.401 46.5823 117.761 46.526 118.194 46.526C118.671 46.526 119.095 46.63 119.468 46.838C119.849 47.0373 120.153 47.332 120.378 47.722C120.603 48.1033 120.716 48.58 120.716 49.152V53H119.689V49.23C119.689 48.5973 119.529 48.138 119.208 47.852C118.896 47.566 118.471 47.423 117.934 47.423C117.319 47.423 116.816 47.6223 116.426 48.021C116.045 48.4197 115.854 49.0133 115.854 49.802V53H114.827ZM124.75 53.182C124.308 53.182 123.905 53.104 123.541 52.948C123.177 52.792 122.891 52.5667 122.683 52.272C122.475 51.9773 122.371 51.6177 122.371 51.193C122.371 50.7597 122.475 50.4043 122.683 50.127C122.891 49.841 123.177 49.6287 123.541 49.49C123.905 49.3427 124.312 49.269 124.763 49.269H126.908V48.801C126.908 48.3503 126.773 47.995 126.505 47.735C126.245 47.475 125.855 47.345 125.335 47.345C124.823 47.345 124.425 47.4707 124.139 47.722C123.853 47.9647 123.658 48.294 123.554 48.71L122.592 48.398C122.696 48.0427 122.86 47.722 123.086 47.436C123.311 47.1413 123.61 46.9073 123.983 46.734C124.364 46.552 124.819 46.461 125.348 46.461C126.162 46.461 126.795 46.6733 127.246 47.098C127.696 47.514 127.922 48.1033 127.922 48.866V51.739C127.922 51.999 128.043 52.129 128.286 52.129H128.871V53H127.974C127.688 53 127.458 52.922 127.285 52.766C127.111 52.6013 127.025 52.3847 127.025 52.116V52.051H126.869C126.773 52.2157 126.643 52.389 126.479 52.571C126.323 52.7443 126.106 52.8873 125.829 53C125.551 53.1213 125.192 53.182 124.75 53.182ZM124.867 52.298C125.473 52.298 125.963 52.1203 126.336 51.765C126.717 51.401 126.908 50.894 126.908 50.244V50.101H124.802C124.394 50.101 124.056 50.192 123.788 50.374C123.528 50.5473 123.398 50.8117 123.398 51.167C123.398 51.5223 123.532 51.7997 123.801 51.999C124.078 52.1983 124.433 52.298 124.867 52.298ZM133.012 53.182C132.37 53.182 131.807 53.0477 131.322 52.779C130.836 52.5017 130.459 52.116 130.191 51.622C129.922 51.128 129.788 50.556 129.788 49.906V49.75C129.788 49.0913 129.922 48.515 130.191 48.021C130.459 47.527 130.832 47.1457 131.309 46.877C131.785 46.5997 132.331 46.461 132.947 46.461C133.545 46.461 134.073 46.591 134.533 46.851C134.992 47.1023 135.352 47.4663 135.612 47.943C135.872 48.4197 136.002 48.9787 136.002 49.62V50.088H130.815C130.841 50.7727 131.062 51.31 131.478 51.7C131.894 52.0813 132.414 52.272 133.038 52.272C133.584 52.272 134.004 52.1463 134.299 51.895C134.593 51.6437 134.819 51.3447 134.975 50.998L135.859 51.427C135.729 51.6957 135.547 51.9643 135.313 52.233C135.087 52.5017 134.788 52.727 134.416 52.909C134.052 53.091 133.584 53.182 133.012 53.182ZM130.828 49.243H134.962C134.927 48.6537 134.723 48.1943 134.351 47.865C133.987 47.5357 133.519 47.371 132.947 47.371C132.366 47.371 131.889 47.5357 131.517 47.865C131.144 48.1943 130.914 48.6537 130.828 49.243ZM137.793 53V43.9H138.82V53H137.793ZM146.268 53.182C145.826 53.182 145.423 53.104 145.059 52.948C144.695 52.792 144.409 52.5667 144.201 52.272C143.993 51.9773 143.889 51.6177 143.889 51.193C143.889 50.7597 143.993 50.4043 144.201 50.127C144.409 49.841 144.695 49.6287 145.059 49.49C145.423 49.3427 145.831 49.269 146.281 49.269H148.426V48.801C148.426 48.3503 148.292 47.995 148.023 47.735C147.763 47.475 147.373 47.345 146.853 47.345C146.342 47.345 145.943 47.4707 145.657 47.722C145.371 47.9647 145.176 48.294 145.072 48.71L144.11 48.398C144.214 48.0427 144.379 47.722 144.604 47.436C144.83 47.1413 145.129 46.9073 145.501 46.734C145.883 46.552 146.338 46.461 146.866 46.461C147.681 46.461 148.314 46.6733 148.764 47.098C149.215 47.514 149.44 48.1033 149.44 48.866V51.739C149.44 51.999 149.562 52.129 149.804 52.129H150.389V53H149.492C149.206 53 148.977 52.922 148.803 52.766C148.63 52.6013 148.543 52.3847 148.543 52.116V52.051H148.387C148.292 52.2157 148.162 52.389 147.997 52.571C147.841 52.7443 147.625 52.8873 147.347 53C147.07 53.1213 146.71 53.182 146.268 53.182ZM146.385 52.298C146.992 52.298 147.482 52.1203 147.854 51.765C148.236 51.401 148.426 50.894 148.426 50.244V50.101H146.32C145.913 50.101 145.575 50.192 145.306 50.374C145.046 50.5473 144.916 50.8117 144.916 51.167C144.916 51.5223 145.051 51.7997 145.319 51.999C145.597 52.1983 145.952 52.298 146.385 52.298ZM154.543 53.182C153.928 53.182 153.373 53.052 152.879 52.792C152.394 52.5233 152.008 52.142 151.722 51.648C151.445 51.154 151.306 50.569 151.306 49.893V49.75C151.306 49.0653 151.445 48.4803 151.722 47.995C152.008 47.501 152.394 47.124 152.879 46.864C153.373 46.5953 153.928 46.461 154.543 46.461C155.15 46.461 155.665 46.5737 156.09 46.799C156.523 47.0243 156.861 47.3233 157.104 47.696C157.355 48.0687 157.516 48.4673 157.585 48.892L156.584 49.1C156.541 48.788 156.437 48.502 156.272 48.242C156.116 47.982 155.895 47.774 155.609 47.618C155.323 47.462 154.972 47.384 154.556 47.384C154.131 47.384 153.75 47.4793 153.412 47.67C153.083 47.8607 152.818 48.1337 152.619 48.489C152.428 48.8443 152.333 49.269 152.333 49.763V49.88C152.333 50.374 152.428 50.7987 152.619 51.154C152.818 51.5093 153.083 51.7823 153.412 51.973C153.75 52.1637 154.131 52.259 154.556 52.259C155.189 52.259 155.67 52.0943 155.999 51.765C156.337 51.4357 156.545 51.0283 156.623 50.543L157.637 50.764C157.542 51.18 157.368 51.5743 157.117 51.947C156.866 52.3197 156.523 52.6187 156.09 52.844C155.665 53.0693 155.15 53.182 154.543 53.182ZM159.388 53V43.9H160.415V47.657H160.597C160.683 47.4663 160.813 47.2887 160.987 47.124C161.169 46.9507 161.398 46.8077 161.676 46.695C161.962 46.5823 162.321 46.526 162.755 46.526C163.231 46.526 163.656 46.63 164.029 46.838C164.41 47.0373 164.713 47.332 164.939 47.722C165.164 48.1033 165.277 48.58 165.277 49.152V53H164.25V49.23C164.25 48.5973 164.089 48.138 163.769 47.852C163.457 47.566 163.032 47.423 162.495 47.423C161.879 47.423 161.377 47.6223 160.987 48.021C160.605 48.4197 160.415 49.0133 160.415 49.802V53H159.388ZM167.36 53V46.643H168.387V53H167.36ZM167.88 45.655C167.655 45.655 167.464 45.5813 167.308 45.434C167.161 45.2867 167.087 45.1003 167.087 44.875C167.087 44.641 167.161 44.4503 167.308 44.303C167.464 44.1557 167.655 44.082 167.88 44.082C168.106 44.082 168.292 44.1557 168.439 44.303C168.587 44.4503 168.66 44.641 168.66 44.875C168.66 45.1003 168.587 45.2867 168.439 45.434C168.292 45.5813 168.106 45.655 167.88 45.655ZM173.459 53.182C172.817 53.182 172.254 53.0477 171.769 52.779C171.283 52.5017 170.906 52.116 170.638 51.622C170.369 51.128 170.235 50.556 170.235 49.906V49.75C170.235 49.0913 170.369 48.515 170.638 48.021C170.906 47.527 171.279 47.1457 171.756 46.877C172.232 46.5997 172.778 46.461 173.394 46.461C173.992 46.461 174.52 46.591 174.98 46.851C175.439 47.1023 175.799 47.4663 176.059 47.943C176.319 48.4197 176.449 48.9787 176.449 49.62V50.088H171.262C171.288 50.7727 171.509 51.31 171.925 51.7C172.341 52.0813 172.861 52.272 173.485 52.272C174.031 52.272 174.451 52.1463 174.746 51.895C175.04 51.6437 175.266 51.3447 175.422 50.998L176.306 51.427C176.176 51.6957 175.994 51.9643 175.76 52.233C175.534 52.5017 175.235 52.727 174.863 52.909C174.499 53.091 174.031 53.182 173.459 53.182ZM171.275 49.243H175.409C175.374 48.6537 175.17 48.1943 174.798 47.865C174.434 47.5357 173.966 47.371 173.394 47.371C172.813 47.371 172.336 47.5357 171.964 47.865C171.591 48.1943 171.361 48.6537 171.275 49.243ZM179.586 53L177.311 46.643H178.403L180.314 52.233H180.496L182.407 46.643H183.499L181.224 53H179.586ZM187.627 53.182C186.985 53.182 186.422 53.0477 185.937 52.779C185.451 52.5017 185.074 52.116 184.806 51.622C184.537 51.128 184.403 50.556 184.403 49.906V49.75C184.403 49.0913 184.537 48.515 184.806 48.021C185.074 47.527 185.447 47.1457 185.924 46.877C186.4 46.5997 186.946 46.461 187.562 46.461C188.16 46.461 188.688 46.591 189.148 46.851C189.607 47.1023 189.967 47.4663 190.227 47.943C190.487 48.4197 190.617 48.9787 190.617 49.62V50.088H185.43C185.456 50.7727 185.677 51.31 186.093 51.7C186.509 52.0813 187.029 52.272 187.653 52.272C188.199 52.272 188.619 52.1463 188.914 51.895C189.208 51.6437 189.434 51.3447 189.59 50.998L190.474 51.427C190.344 51.6957 190.162 51.9643 189.928 52.233C189.702 52.5017 189.403 52.727 189.031 52.909C188.667 53.091 188.199 53.182 187.627 53.182ZM185.443 49.243H189.577C189.542 48.6537 189.338 48.1943 188.966 47.865C188.602 47.5357 188.134 47.371 187.562 47.371C186.981 47.371 186.504 47.5357 186.132 47.865C185.759 48.1943 185.529 48.6537 185.443 49.243ZM195.099 53.182C194.553 53.182 194.05 53.052 193.591 52.792C193.132 52.532 192.768 52.155 192.499 51.661C192.23 51.167 192.096 50.582 192.096 49.906V49.737C192.096 49.061 192.23 48.4803 192.499 47.995C192.768 47.501 193.127 47.124 193.578 46.864C194.037 46.5953 194.544 46.461 195.099 46.461C195.541 46.461 195.914 46.5217 196.217 46.643C196.529 46.7557 196.78 46.903 196.971 47.085C197.162 47.2583 197.309 47.4447 197.413 47.644H197.595V43.9H198.622V53H197.621V51.947H197.439C197.266 52.2677 196.997 52.5537 196.633 52.805C196.269 53.0563 195.758 53.182 195.099 53.182ZM195.372 52.272C196.031 52.272 196.564 52.064 196.971 51.648C197.387 51.2233 197.595 50.634 197.595 49.88V49.763C197.595 49.009 197.387 48.424 196.971 48.008C196.564 47.5833 196.031 47.371 195.372 47.371C194.722 47.371 194.185 47.5833 193.76 48.008C193.344 48.424 193.136 49.009 193.136 49.763V49.88C193.136 50.634 193.344 51.2233 193.76 51.648C194.185 52.064 194.722 52.272 195.372 52.272ZM206.063 53.182C205.621 53.182 205.218 53.104 204.854 52.948C204.49 52.792 204.204 52.5667 203.996 52.272C203.788 51.9773 203.684 51.6177 203.684 51.193C203.684 50.7597 203.788 50.4043 203.996 50.127C204.204 49.841 204.49 49.6287 204.854 49.49C205.218 49.3427 205.626 49.269 206.076 49.269H208.221V48.801C208.221 48.3503 208.087 47.995 207.818 47.735C207.558 47.475 207.168 47.345 206.648 47.345C206.137 47.345 205.738 47.4707 205.452 47.722C205.166 47.9647 204.971 48.294 204.867 48.71L203.905 48.398C204.009 48.0427 204.174 47.722 204.399 47.436C204.625 47.1413 204.924 46.9073 205.296 46.734C205.678 46.552 206.133 46.461 206.661 46.461C207.476 46.461 208.109 46.6733 208.559 47.098C209.01 47.514 209.235 48.1033 209.235 48.866V51.739C209.235 51.999 209.357 52.129 209.599 52.129H210.184V53H209.287C209.001 53 208.772 52.922 208.598 52.766C208.425 52.6013 208.338 52.3847 208.338 52.116V52.051H208.182C208.087 52.2157 207.957 52.389 207.792 52.571C207.636 52.7443 207.42 52.8873 207.142 53C206.865 53.1213 206.505 53.182 206.063 53.182ZM206.18 52.298C206.787 52.298 207.277 52.1203 207.649 51.765C208.031 51.401 208.221 50.894 208.221 50.244V50.101H206.115C205.708 50.101 205.37 50.192 205.101 50.374C204.841 50.5473 204.711 50.8117 204.711 51.167C204.711 51.5223 204.846 51.7997 205.114 51.999C205.392 52.1983 205.747 52.298 206.18 52.298ZM259.071 53V46.643H260.098V53H259.071ZM259.591 45.655C259.366 45.655 259.175 45.5813 259.019 45.434C258.872 45.2867 258.798 45.1003 258.798 44.875C258.798 44.641 258.872 44.4503 259.019 44.303C259.175 44.1557 259.366 44.082 259.591 44.082C259.817 44.082 260.003 44.1557 260.15 44.303C260.298 44.4503 260.371 44.641 260.371 44.875C260.371 45.1003 260.298 45.2867 260.15 45.434C260.003 45.5813 259.817 45.655 259.591 45.655ZM262.258 53V46.643H263.259V47.722H263.441C263.579 47.4187 263.813 47.1457 264.143 46.903C264.481 46.6517 264.975 46.526 265.625 46.526C266.101 46.526 266.526 46.6257 266.899 46.825C267.28 47.0243 267.583 47.319 267.809 47.709C268.034 48.099 268.147 48.58 268.147 49.152V53H267.12V49.23C267.12 48.5973 266.959 48.138 266.639 47.852C266.327 47.566 265.902 47.423 265.365 47.423C264.749 47.423 264.247 47.6223 263.857 48.021C263.475 48.4197 263.285 49.0133 263.285 49.802V53H262.258ZM273.155 53.182C272.54 53.182 271.985 53.052 271.491 52.792C271.006 52.5233 270.62 52.142 270.334 51.648C270.057 51.154 269.918 50.569 269.918 49.893V49.75C269.918 49.0653 270.057 48.4803 270.334 47.995C270.62 47.501 271.006 47.124 271.491 46.864C271.985 46.5953 272.54 46.461 273.155 46.461C273.762 46.461 274.278 46.5737 274.702 46.799C275.136 47.0243 275.474 47.3233 275.716 47.696C275.968 48.0687 276.128 48.4673 276.197 48.892L275.196 49.1C275.153 48.788 275.049 48.502 274.884 48.242C274.728 47.982 274.507 47.774 274.221 47.618C273.935 47.462 273.584 47.384 273.168 47.384C272.744 47.384 272.362 47.4793 272.024 47.67C271.695 47.8607 271.431 48.1337 271.231 48.489C271.041 48.8443 270.945 49.269 270.945 49.763V49.88C270.945 50.374 271.041 50.7987 271.231 51.154C271.431 51.5093 271.695 51.7823 272.024 51.973C272.362 52.1637 272.744 52.259 273.168 52.259C273.801 52.259 274.282 52.0943 274.611 51.765C274.949 51.4357 275.157 51.0283 275.235 50.543L276.249 50.764C276.154 51.18 275.981 51.5743 275.729 51.947C275.478 52.3197 275.136 52.6187 274.702 52.844C274.278 53.0693 273.762 53.182 273.155 53.182ZM278 53V46.643H279.001V47.423H279.183C279.296 47.1457 279.469 46.942 279.703 46.812C279.937 46.682 280.245 46.617 280.626 46.617H281.38V47.553H280.561C280.102 47.553 279.729 47.683 279.443 47.943C279.166 48.1943 279.027 48.5887 279.027 49.126V53H278ZM285.584 53.182C284.942 53.182 284.379 53.0477 283.894 52.779C283.408 52.5017 283.031 52.116 282.763 51.622C282.494 51.128 282.36 50.556 282.36 49.906V49.75C282.36 49.0913 282.494 48.515 282.763 48.021C283.031 47.527 283.404 47.1457 283.881 46.877C284.357 46.5997 284.903 46.461 285.519 46.461C286.117 46.461 286.645 46.591 287.105 46.851C287.564 47.1023 287.924 47.4663 288.184 47.943C288.444 48.4197 288.574 48.9787 288.574 49.62V50.088H283.387C283.413 50.7727 283.634 51.31 284.05 51.7C284.466 52.0813 284.986 52.272 285.61 52.272C286.156 52.272 286.576 52.1463 286.871 51.895C287.165 51.6437 287.391 51.3447 287.547 50.998L288.431 51.427C288.301 51.6957 288.119 51.9643 287.885 52.233C287.659 52.5017 287.36 52.727 286.988 52.909C286.624 53.091 286.156 53.182 285.584 53.182ZM283.4 49.243H287.534C287.499 48.6537 287.295 48.1943 286.923 47.865C286.559 47.5357 286.091 47.371 285.519 47.371C284.938 47.371 284.461 47.5357 284.089 47.865C283.716 48.1943 283.486 48.6537 283.4 49.243ZM292.315 53.182C291.873 53.182 291.47 53.104 291.106 52.948C290.742 52.792 290.456 52.5667 290.248 52.272C290.04 51.9773 289.936 51.6177 289.936 51.193C289.936 50.7597 290.04 50.4043 290.248 50.127C290.456 49.841 290.742 49.6287 291.106 49.49C291.47 49.3427 291.877 49.269 292.328 49.269H294.473V48.801C294.473 48.3503 294.339 47.995 294.07 47.735C293.81 47.475 293.42 47.345 292.9 47.345C292.389 47.345 291.99 47.4707 291.704 47.722C291.418 47.9647 291.223 48.294 291.119 48.71L290.157 48.398C290.261 48.0427 290.426 47.722 290.651 47.436C290.876 47.1413 291.175 46.9073 291.548 46.734C291.929 46.552 292.384 46.461 292.913 46.461C293.728 46.461 294.36 46.6733 294.811 47.098C295.262 47.514 295.487 48.1033 295.487 48.866V51.739C295.487 51.999 295.608 52.129 295.851 52.129H296.436V53H295.539C295.253 53 295.023 52.922 294.85 52.766C294.677 52.6013 294.59 52.3847 294.59 52.116V52.051H294.434C294.339 52.2157 294.209 52.389 294.044 52.571C293.888 52.7443 293.671 52.8873 293.394 53C293.117 53.1213 292.757 53.182 292.315 53.182ZM292.432 52.298C293.039 52.298 293.528 52.1203 293.901 51.765C294.282 51.401 294.473 50.894 294.473 50.244V50.101H292.367C291.96 50.101 291.622 50.192 291.353 50.374C291.093 50.5473 290.963 50.8117 290.963 51.167C290.963 51.5223 291.097 51.7997 291.366 51.999C291.643 52.1983 291.999 52.298 292.432 52.298ZM300.353 53.182C299.564 53.182 298.897 53 298.351 52.636C297.814 52.272 297.489 51.6957 297.376 50.907L298.351 50.686C298.42 51.102 298.55 51.4313 298.741 51.674C298.932 51.908 299.166 52.077 299.443 52.181C299.729 52.2763 300.032 52.324 300.353 52.324C300.83 52.324 301.207 52.2287 301.484 52.038C301.761 51.8473 301.9 51.5917 301.9 51.271C301.9 50.9417 301.766 50.712 301.497 50.582C301.237 50.4433 300.877 50.3307 300.418 50.244L299.885 50.153C299.478 50.0837 299.105 49.9753 298.767 49.828C298.429 49.6807 298.16 49.4813 297.961 49.23C297.762 48.9787 297.662 48.6623 297.662 48.281C297.662 47.709 297.883 47.2627 298.325 46.942C298.767 46.6213 299.352 46.461 300.08 46.461C300.799 46.461 301.38 46.6257 301.822 46.955C302.273 47.2757 302.563 47.7307 302.693 48.32L301.731 48.567C301.653 48.1077 301.467 47.787 301.172 47.605C300.877 47.4143 300.513 47.319 300.08 47.319C299.647 47.319 299.304 47.4013 299.053 47.566C298.802 47.722 298.676 47.956 298.676 48.268C298.676 48.5713 298.793 48.7967 299.027 48.944C299.27 49.0827 299.59 49.1867 299.989 49.256L300.522 49.347C300.973 49.425 301.376 49.5333 301.731 49.672C302.095 49.802 302.381 49.9927 302.589 50.244C302.806 50.4953 302.914 50.8247 302.914 51.232C302.914 51.856 302.68 52.337 302.212 52.675C301.753 53.013 301.133 53.182 300.353 53.182ZM307.559 53.182C306.918 53.182 306.355 53.0477 305.869 52.779C305.384 52.5017 305.007 52.116 304.738 51.622C304.47 51.128 304.335 50.556 304.335 49.906V49.75C304.335 49.0913 304.47 48.515 304.738 48.021C305.007 47.527 305.38 47.1457 305.856 46.877C306.333 46.5997 306.879 46.461 307.494 46.461C308.092 46.461 308.621 46.591 309.08 46.851C309.54 47.1023 309.899 47.4663 310.159 47.943C310.419 48.4197 310.549 48.9787 310.549 49.62V50.088H305.362C305.388 50.7727 305.609 51.31 306.025 51.7C306.441 52.0813 306.961 52.272 307.585 52.272C308.131 52.272 308.552 52.1463 308.846 51.895C309.141 51.6437 309.366 51.3447 309.522 50.998L310.406 51.427C310.276 51.6957 310.094 51.9643 309.86 52.233C309.635 52.5017 309.336 52.727 308.963 52.909C308.599 53.091 308.131 53.182 307.559 53.182ZM305.375 49.243H309.509C309.475 48.6537 309.271 48.1943 308.898 47.865C308.534 47.5357 308.066 47.371 307.494 47.371C306.914 47.371 306.437 47.5357 306.064 47.865C305.692 48.1943 305.462 48.6537 305.375 49.243ZM315.68 53V46.643H316.707V53H315.68ZM316.2 45.655C315.974 45.655 315.784 45.5813 315.628 45.434C315.48 45.2867 315.407 45.1003 315.407 44.875C315.407 44.641 315.48 44.4503 315.628 44.303C315.784 44.1557 315.974 44.082 316.2 44.082C316.425 44.082 316.611 44.1557 316.759 44.303C316.906 44.4503 316.98 44.641 316.98 44.875C316.98 45.1003 316.906 45.2867 316.759 45.434C316.611 45.5813 316.425 45.655 316.2 45.655ZM318.866 53V46.643H319.867V47.722H320.049C320.188 47.4187 320.422 47.1457 320.751 46.903C321.089 46.6517 321.583 46.526 322.233 46.526C322.71 46.526 323.134 46.6257 323.507 46.825C323.888 47.0243 324.192 47.319 324.417 47.709C324.642 48.099 324.755 48.58 324.755 49.152V53H323.728V49.23C323.728 48.5973 323.568 48.138 323.247 47.852C322.935 47.566 322.51 47.423 321.973 47.423C321.358 47.423 320.855 47.6223 320.465 48.021C320.084 48.4197 319.893 49.0133 319.893 49.802V53H318.866ZM45.04 69V59.9H47.159L50.331 68.311H50.5V59.9H51.579V69H49.46L46.301 60.576H46.119V69H45.04ZM56.6238 69.182C55.9825 69.182 55.4191 69.0477 54.9338 68.779C54.4485 68.5017 54.0715 68.116 53.8028 67.622C53.5341 67.128 53.3998 66.556 53.3998 65.906V65.75C53.3998 65.0913 53.5341 64.515 53.8028 64.021C54.0715 63.527 54.4441 63.1457 54.9208 62.877C55.3975 62.5997 55.9435 62.461 56.5588 62.461C57.1568 62.461 57.6855 62.591 58.1448 62.851C58.6041 63.1023 58.9638 63.4663 59.2238 63.943C59.4838 64.4197 59.6138 64.9787 59.6138 65.62V66.088H54.4268C54.4528 66.7727 54.6738 67.31 55.0898 67.7C55.5058 68.0813 56.0258 68.272 56.6498 68.272C57.1958 68.272 57.6161 68.1463 57.9108 67.895C58.2055 67.6437 58.4308 67.3447 58.5868 66.998L59.4708 67.427C59.3408 67.6957 59.1588 67.9643 58.9248 68.233C58.6995 68.5017 58.4005 68.727 58.0278 68.909C57.6638 69.091 57.1958 69.182 56.6238 69.182ZM54.4398 65.243H58.5738C58.5391 64.6537 58.3355 64.1943 57.9628 63.865C57.5988 63.5357 57.1308 63.371 56.5588 63.371C55.9781 63.371 55.5015 63.5357 55.1288 63.865C54.7561 64.1943 54.5265 64.6537 54.4398 65.243ZM62.1622 69L60.8882 62.643H61.9282L62.9812 68.311H63.1632L64.5542 62.643H66.2572L67.6482 68.311H67.8302L68.8832 62.643H69.9232L68.6492 69H66.8942L65.4902 63.332H65.3212L63.9172 69H62.1622ZM74.9882 69V59.9H77.0682L79.4862 68.311H79.6552L82.0732 59.9H84.1532V69H83.1002V60.615H82.9182L80.5132 69H78.6282L76.2232 60.615H76.0412V69H74.9882ZM89.2133 69.182C88.572 69.182 88.0043 69.0477 87.5103 68.779C87.025 68.5103 86.6436 68.1333 86.3663 67.648C86.0976 67.154 85.9633 66.5733 85.9633 65.906V65.737C85.9633 65.0783 86.0976 64.502 86.3663 64.008C86.6436 63.514 87.025 63.1327 87.5103 62.864C88.0043 62.5953 88.572 62.461 89.2133 62.461C89.8546 62.461 90.418 62.5953 90.9033 62.864C91.3973 63.1327 91.7786 63.514 92.0473 64.008C92.3246 64.502 92.4633 65.0783 92.4633 65.737V65.906C92.4633 66.5733 92.3246 67.154 92.0473 67.648C91.7786 68.1333 91.3973 68.5103 90.9033 68.779C90.418 69.0477 89.8546 69.182 89.2133 69.182ZM89.2133 68.259C89.8893 68.259 90.4266 68.0467 90.8253 67.622C91.2326 67.1887 91.4363 66.608 91.4363 65.88V65.763C91.4363 65.035 91.2326 64.4587 90.8253 64.034C90.4266 63.6007 89.8893 63.384 89.2133 63.384C88.546 63.384 88.0086 63.6007 87.6013 64.034C87.194 64.4587 86.9903 65.035 86.9903 65.763V65.88C86.9903 66.608 87.194 67.1887 87.6013 67.622C88.0086 68.0467 88.546 68.259 89.2133 68.259ZM94.3114 69V62.643H95.3124V63.722H95.4944C95.6331 63.4187 95.8671 63.1457 96.1964 62.903C96.5344 62.6517 97.0284 62.526 97.6784 62.526C98.1551 62.526 98.5798 62.6257 98.9524 62.825C99.3338 63.0243 99.6371 63.319 99.8624 63.709C100.088 64.099 100.2 64.58 100.2 65.152V69H99.1734V65.23C99.1734 64.5973 99.0131 64.138 98.6924 63.852C98.3804 63.566 97.9558 63.423 97.4184 63.423C96.8031 63.423 96.3004 63.6223 95.9104 64.021C95.5291 64.4197 95.3384 65.0133 95.3384 65.802V69H94.3114ZM104.446 69C104.082 69 103.801 68.9003 103.601 68.701C103.411 68.5017 103.315 68.2287 103.315 67.882V63.54H101.404V62.643H103.315V60.381H104.342V62.643H106.422V63.54H104.342V67.726C104.342 67.986 104.468 68.116 104.719 68.116H106.136V69H104.446ZM108.086 69V59.9H109.113V63.657H109.295C109.382 63.4663 109.512 63.2887 109.685 63.124C109.867 62.9507 110.097 62.8077 110.374 62.695C110.66 62.5823 111.02 62.526 111.453 62.526C111.93 62.526 112.354 62.63 112.727 62.838C113.108 63.0373 113.412 63.332 113.637 63.722C113.862 64.1033 113.975 64.58 113.975 65.152V69H112.948V65.23C112.948 64.5973 112.788 64.138 112.467 63.852C112.155 63.566 111.73 63.423 111.193 63.423C110.578 63.423 110.075 63.6223 109.685 64.021C109.304 64.4197 109.113 65.0133 109.113 65.802V69H108.086ZM116.058 69V59.9H117.085V69H116.058ZM120.012 71.6V70.69H123.652C123.903 70.69 124.029 70.56 124.029 70.3V67.986H123.847C123.76 68.168 123.626 68.35 123.444 68.532C123.271 68.7053 123.041 68.8483 122.755 68.961C122.469 69.065 122.109 69.117 121.676 69.117C121.217 69.117 120.792 69.0173 120.402 68.818C120.021 68.6187 119.717 68.324 119.492 67.934C119.275 67.544 119.167 67.0673 119.167 66.504V62.643H120.194V66.426C120.194 67.05 120.35 67.505 120.662 67.791C120.983 68.077 121.412 68.22 121.949 68.22C122.556 68.22 123.054 68.0207 123.444 67.622C123.834 67.2233 124.029 66.6297 124.029 65.841V62.643H125.056V70.482C125.056 70.8287 124.956 71.1017 124.757 71.301C124.566 71.5003 124.285 71.6 123.912 71.6H120.012ZM133.521 69.182C132.862 69.182 132.273 69.065 131.753 68.831C131.233 68.597 130.821 68.246 130.518 67.778C130.223 67.3013 130.076 66.7077 130.076 65.997V65.724H131.155V65.997C131.155 66.751 131.376 67.3143 131.818 67.687C132.26 68.051 132.828 68.233 133.521 68.233C134.232 68.233 134.773 68.0727 135.146 67.752C135.519 67.4313 135.705 67.0283 135.705 66.543C135.705 66.205 135.618 65.9363 135.445 65.737C135.28 65.5377 135.046 65.3773 134.743 65.256C134.44 65.126 134.084 65.0133 133.677 64.918L133.001 64.749C132.472 64.6103 132.004 64.4413 131.597 64.242C131.19 64.0427 130.869 63.7827 130.635 63.462C130.41 63.1327 130.297 62.7123 130.297 62.201C130.297 61.6897 130.423 61.2477 130.674 60.875C130.934 60.5023 131.294 60.2163 131.753 60.017C132.221 59.8177 132.758 59.718 133.365 59.718C133.98 59.718 134.531 59.8263 135.016 60.043C135.51 60.251 135.896 60.563 136.173 60.979C136.459 61.3863 136.602 61.902 136.602 62.526V63.072H135.523V62.526C135.523 62.084 135.428 61.7287 135.237 61.46C135.055 61.1913 134.799 60.992 134.47 60.862C134.149 60.732 133.781 60.667 133.365 60.667C132.767 60.667 132.286 60.8013 131.922 61.07C131.558 61.33 131.376 61.7027 131.376 62.188C131.376 62.5087 131.454 62.7687 131.61 62.968C131.766 63.1673 131.987 63.332 132.273 63.462C132.559 63.5833 132.901 63.6917 133.3 63.787L133.976 63.956C134.505 64.0687 134.977 64.2247 135.393 64.424C135.818 64.6147 136.156 64.879 136.407 65.217C136.658 65.5463 136.784 65.9797 136.784 66.517C136.784 67.0543 136.65 67.5223 136.381 67.921C136.112 68.3197 135.731 68.6317 135.237 68.857C134.752 69.0737 134.18 69.182 133.521 69.182ZM138.504 71.6V62.643H139.505V63.696H139.687C139.851 63.3753 140.116 63.0893 140.48 62.838C140.852 62.5867 141.368 62.461 142.027 62.461C142.573 62.461 143.071 62.5953 143.522 62.864C143.981 63.124 144.345 63.4967 144.614 63.982C144.891 64.4673 145.03 65.0523 145.03 65.737V65.906C145.03 66.582 144.895 67.167 144.627 67.661C144.358 68.155 143.994 68.532 143.535 68.792C143.084 69.052 142.581 69.182 142.027 69.182C141.585 69.182 141.208 69.1213 140.896 69C140.592 68.8873 140.345 68.74 140.155 68.558C139.964 68.376 139.817 68.1897 139.713 67.999H139.531V71.6H138.504ZM141.754 68.272C142.412 68.272 142.945 68.064 143.353 67.648C143.769 67.2233 143.977 66.634 143.977 65.88V65.763C143.977 65.009 143.769 64.424 143.353 64.008C142.945 63.5833 142.412 63.371 141.754 63.371C141.104 63.371 140.566 63.5833 140.142 64.008C139.726 64.424 139.518 65.009 139.518 65.763V65.88C139.518 66.634 139.726 67.2233 140.142 67.648C140.566 68.064 141.104 68.272 141.754 68.272ZM149.808 69.182C149.167 69.182 148.599 69.0477 148.105 68.779C147.62 68.5103 147.238 68.1333 146.961 67.648C146.692 67.154 146.558 66.5733 146.558 65.906V65.737C146.558 65.0783 146.692 64.502 146.961 64.008C147.238 63.514 147.62 63.1327 148.105 62.864C148.599 62.5953 149.167 62.461 149.808 62.461C150.449 62.461 151.013 62.5953 151.498 62.864C151.992 63.1327 152.373 63.514 152.642 64.008C152.919 64.502 153.058 65.0783 153.058 65.737V65.906C153.058 66.5733 152.919 67.154 152.642 67.648C152.373 68.1333 151.992 68.5103 151.498 68.779C151.013 69.0477 150.449 69.182 149.808 69.182ZM149.808 68.259C150.484 68.259 151.021 68.0467 151.42 67.622C151.827 67.1887 152.031 66.608 152.031 65.88V65.763C152.031 65.035 151.827 64.4587 151.42 64.034C151.021 63.6007 150.484 63.384 149.808 63.384C149.141 63.384 148.603 63.6007 148.196 64.034C147.789 64.4587 147.585 65.035 147.585 65.763V65.88C147.585 66.608 147.789 67.1887 148.196 67.622C148.603 68.0467 149.141 68.259 149.808 68.259ZM156.98 69C156.616 69 156.334 68.9003 156.135 68.701C155.944 68.5017 155.849 68.2287 155.849 67.882V63.54H153.938V62.643H155.849V60.381H156.876V62.643H158.956V63.54H156.876V67.726C156.876 67.986 157.001 68.116 157.253 68.116H158.67V69H156.98ZM160.619 69V62.643H161.646V69H160.619ZM161.139 61.655C160.914 61.655 160.723 61.5813 160.567 61.434C160.42 61.2867 160.346 61.1003 160.346 60.875C160.346 60.641 160.42 60.4503 160.567 60.303C160.723 60.1557 160.914 60.082 161.139 60.082C161.364 60.082 161.551 60.1557 161.698 60.303C161.845 60.4503 161.919 60.641 161.919 60.875C161.919 61.1003 161.845 61.2867 161.698 61.434C161.551 61.5813 161.364 61.655 161.139 61.655ZM165.054 69V63.54H163.104V62.643H165.054V61.018C165.054 60.6713 165.149 60.3983 165.34 60.199C165.539 59.9997 165.821 59.9 166.185 59.9H167.784V60.784H166.471C166.211 60.784 166.081 60.914 166.081 61.174V62.643H168.083V63.54H166.081V69H165.054ZM170.324 71.6V70.69H173.964C174.215 70.69 174.341 70.56 174.341 70.3V67.986H174.159C174.072 68.168 173.938 68.35 173.756 68.532C173.582 68.7053 173.353 68.8483 173.067 68.961C172.781 69.065 172.421 69.117 171.988 69.117C171.528 69.117 171.104 69.0173 170.714 68.818C170.332 68.6187 170.029 68.324 169.804 67.934C169.587 67.544 169.479 67.0673 169.479 66.504V62.643H170.506V66.426C170.506 67.05 170.662 67.505 170.974 67.791C171.294 68.077 171.723 68.22 172.261 68.22C172.867 68.22 173.366 68.0207 173.756 67.622C174.146 67.2233 174.341 66.6297 174.341 65.841V62.643H175.368V70.482C175.368 70.8287 175.268 71.1017 175.069 71.301C174.878 71.5003 174.596 71.6 174.224 71.6H170.324ZM180.816 69V59.9H181.908V68.012H186.51V69H180.816ZM187.952 69V62.643H188.979V69H187.952ZM188.472 61.655C188.247 61.655 188.056 61.5813 187.9 61.434C187.753 61.2867 187.679 61.1003 187.679 60.875C187.679 60.641 187.753 60.4503 187.9 60.303C188.056 60.1557 188.247 60.082 188.472 60.082C188.697 60.082 188.884 60.1557 189.031 60.303C189.178 60.4503 189.252 60.641 189.252 60.875C189.252 61.1003 189.178 61.2867 189.031 61.434C188.884 61.5813 188.697 61.655 188.472 61.655ZM193.7 69.182C192.911 69.182 192.244 69 191.698 68.636C191.16 68.272 190.835 67.6957 190.723 66.907L191.698 66.686C191.767 67.102 191.897 67.4313 192.088 67.674C192.278 67.908 192.512 68.077 192.79 68.181C193.076 68.2763 193.379 68.324 193.7 68.324C194.176 68.324 194.553 68.2287 194.831 68.038C195.108 67.8473 195.247 67.5917 195.247 67.271C195.247 66.9417 195.112 66.712 194.844 66.582C194.584 66.4433 194.224 66.3307 193.765 66.244L193.232 66.153C192.824 66.0837 192.452 65.9753 192.114 65.828C191.776 65.6807 191.507 65.4813 191.308 65.23C191.108 64.9787 191.009 64.6623 191.009 64.281C191.009 63.709 191.23 63.2627 191.672 62.942C192.114 62.6213 192.699 62.461 193.427 62.461C194.146 62.461 194.727 62.6257 195.169 62.955C195.619 63.2757 195.91 63.7307 196.04 64.32L195.078 64.567C195 64.1077 194.813 63.787 194.519 63.605C194.224 63.4143 193.86 63.319 193.427 63.319C192.993 63.319 192.651 63.4013 192.4 63.566C192.148 63.722 192.023 63.956 192.023 64.268C192.023 64.5713 192.14 64.7967 192.374 64.944C192.616 65.0827 192.937 65.1867 193.336 65.256L193.869 65.347C194.319 65.425 194.722 65.5333 195.078 65.672C195.442 65.802 195.728 65.9927 195.936 66.244C196.152 66.4953 196.261 66.8247 196.261 67.232C196.261 67.856 196.027 68.337 195.559 68.675C195.099 69.013 194.48 69.182 193.7 69.182ZM200.194 69C199.83 69 199.549 68.9003 199.349 68.701C199.159 68.5017 199.063 68.2287 199.063 67.882V63.54H197.152V62.643H199.063V60.381H200.09V62.643H202.17V63.54H200.09V67.726C200.09 67.986 200.216 68.116 200.467 68.116H201.884V69H200.194ZM206.517 69.182C205.876 69.182 205.313 69.0477 204.827 68.779C204.342 68.5017 203.965 68.116 203.696 67.622C203.428 67.128 203.293 66.556 203.293 65.906V65.75C203.293 65.0913 203.428 64.515 203.696 64.021C203.965 63.527 204.338 63.1457 204.814 62.877C205.291 62.5997 205.837 62.461 206.452 62.461C207.05 62.461 207.579 62.591 208.038 62.851C208.498 63.1023 208.857 63.4663 209.117 63.943C209.377 64.4197 209.507 64.9787 209.507 65.62V66.088H204.32C204.346 66.7727 204.567 67.31 204.983 67.7C205.399 68.0813 205.919 68.272 206.543 68.272C207.089 68.272 207.51 68.1463 207.804 67.895C208.099 67.6437 208.324 67.3447 208.48 66.998L209.364 67.427C209.234 67.6957 209.052 67.9643 208.818 68.233C208.593 68.5017 208.294 68.727 207.921 68.909C207.557 69.091 207.089 69.182 206.517 69.182ZM204.333 65.243H208.467C208.433 64.6537 208.229 64.1943 207.856 63.865C207.492 63.5357 207.024 63.371 206.452 63.371C205.872 63.371 205.395 63.5357 205.022 63.865C204.65 64.1943 204.42 64.6537 204.333 65.243ZM211.299 69V62.643H212.3V63.722H212.482C212.62 63.4187 212.854 63.1457 213.184 62.903C213.522 62.6517 214.016 62.526 214.666 62.526C215.142 62.526 215.567 62.6257 215.94 62.825C216.321 63.0243 216.624 63.319 216.85 63.709C217.075 64.099 217.188 64.58 217.188 65.152V69H216.161V65.23C216.161 64.5973 216 64.138 215.68 63.852C215.368 63.566 214.943 63.423 214.406 63.423C213.79 63.423 213.288 63.6223 212.898 64.021C212.516 64.4197 212.326 65.0133 212.326 65.802V69H211.299ZM222.183 69.182C221.542 69.182 220.979 69.0477 220.493 68.779C220.008 68.5017 219.631 68.116 219.362 67.622C219.094 67.128 218.959 66.556 218.959 65.906V65.75C218.959 65.0913 219.094 64.515 219.362 64.021C219.631 63.527 220.004 63.1457 220.48 62.877C220.957 62.5997 221.503 62.461 222.118 62.461C222.716 62.461 223.245 62.591 223.704 62.851C224.164 63.1023 224.523 63.4663 224.783 63.943C225.043 64.4197 225.173 64.9787 225.173 65.62V66.088H219.986C220.012 66.7727 220.233 67.31 220.649 67.7C221.065 68.0813 221.585 68.272 222.209 68.272C222.755 68.272 223.176 68.1463 223.47 67.895C223.765 67.6437 223.99 67.3447 224.146 66.998L225.03 67.427C224.9 67.6957 224.718 67.9643 224.484 68.233C224.259 68.5017 223.96 68.727 223.587 68.909C223.223 69.091 222.755 69.182 222.183 69.182ZM219.999 65.243H224.133C224.099 64.6537 223.895 64.1943 223.522 63.865C223.158 63.5357 222.69 63.371 222.118 63.371C221.538 63.371 221.061 63.5357 220.688 63.865C220.316 64.1943 220.086 64.6537 219.999 65.243ZM226.965 69V62.643H227.966V63.423H228.148C228.26 63.1457 228.434 62.942 228.668 62.812C228.902 62.682 229.209 62.617 229.591 62.617H230.345V63.553H229.526C229.066 63.553 228.694 63.683 228.408 63.943C228.13 64.1943 227.992 64.5887 227.992 65.126V69H226.965ZM234.299 69.182C233.511 69.182 232.843 69 232.297 68.636C231.76 68.272 231.435 67.6957 231.322 66.907L232.297 66.686C232.367 67.102 232.497 67.4313 232.687 67.674C232.878 67.908 233.112 68.077 233.389 68.181C233.675 68.2763 233.979 68.324 234.299 68.324C234.776 68.324 235.153 68.2287 235.43 68.038C235.708 67.8473 235.846 67.5917 235.846 67.271C235.846 66.9417 235.712 66.712 235.443 66.582C235.183 66.4433 234.824 66.3307 234.364 66.244L233.831 66.153C233.424 66.0837 233.051 65.9753 232.713 65.828C232.375 65.6807 232.107 65.4813 231.907 65.23C231.708 64.9787 231.608 64.6623 231.608 64.281C231.608 63.709 231.829 63.2627 232.271 62.942C232.713 62.6213 233.298 62.461 234.026 62.461C234.746 62.461 235.326 62.6257 235.768 62.955C236.219 63.2757 236.509 63.7307 236.639 64.32L235.677 64.567C235.599 64.1077 235.413 63.787 235.118 63.605C234.824 63.4143 234.46 63.319 234.026 63.319C233.593 63.319 233.251 63.4013 232.999 63.566C232.748 63.722 232.622 63.956 232.622 64.268C232.622 64.5713 232.739 64.7967 232.973 64.944C233.216 65.0827 233.537 65.1867 233.935 65.256L234.468 65.347C234.919 65.425 235.322 65.5333 235.677 65.672C236.041 65.802 236.327 65.9927 236.535 66.244C236.752 66.4953 236.86 66.8247 236.86 67.232C236.86 67.856 236.626 68.337 236.158 68.675C235.699 69.013 235.079 69.182 234.299 69.182ZM239.153 69.182C238.901 69.182 238.689 69.0997 238.516 68.935C238.351 68.7703 238.269 68.558 238.269 68.298C238.269 68.038 238.351 67.8257 238.516 67.661C238.689 67.4963 238.901 67.414 239.153 67.414C239.413 67.414 239.625 67.4963 239.79 67.661C239.954 67.8257 240.037 68.038 240.037 68.298C240.037 68.558 239.954 68.7703 239.79 68.935C239.625 69.0997 239.413 69.182 239.153 69.182Z" fill="white"/>
<path d="M217.244 51.167V49.061H215.164V47.839H217.244V45.733H218.518V47.839H220.598V49.061H218.518V51.167H217.244ZM226.891 53V51.141H222.289V49.555L225.773 43.9H228.256V49.932H229.79V51.141H228.256V53H226.891ZM223.615 49.932H226.891V44.758H226.683L223.615 49.75V49.932ZM234.001 53.182C233.325 53.182 232.744 53.0693 232.259 52.844C231.773 52.61 231.401 52.285 231.141 51.869C230.881 51.4443 230.751 50.9503 230.751 50.387H232.142C232.142 50.8377 232.289 51.2147 232.584 51.518C232.887 51.8127 233.359 51.96 234.001 51.96C234.651 51.96 235.149 51.7867 235.496 51.44C235.842 51.0933 236.016 50.621 236.016 50.023V48.931H235.808C235.66 49.139 235.422 49.3383 235.093 49.529C234.763 49.7197 234.287 49.815 233.663 49.815C233.134 49.815 232.644 49.698 232.194 49.464C231.743 49.23 231.379 48.8963 231.102 48.463C230.833 48.021 230.699 47.4967 230.699 46.89V46.734C230.699 46.1273 230.837 45.5987 231.115 45.148C231.401 44.6973 231.795 44.3463 232.298 44.095C232.809 43.8437 233.394 43.718 234.053 43.718C234.72 43.718 235.301 43.848 235.795 44.108C236.297 44.3593 236.687 44.7147 236.965 45.174C237.242 45.6247 237.381 46.1577 237.381 46.773V49.919C237.381 50.6297 237.238 51.2277 236.952 51.713C236.674 52.1983 236.28 52.5667 235.769 52.818C235.266 53.0607 234.677 53.182 234.001 53.182ZM234.04 48.71C234.438 48.71 234.785 48.632 235.08 48.476C235.374 48.32 235.604 48.1077 235.769 47.839C235.933 47.5617 236.016 47.2367 236.016 46.864V46.76C236.016 46.1967 235.834 45.7547 235.47 45.434C235.114 45.1047 234.638 44.94 234.04 44.94C233.442 44.94 232.961 45.1047 232.597 45.434C232.241 45.7547 232.064 46.1967 232.064 46.76V46.864C232.064 47.2367 232.142 47.5617 232.298 47.839C232.462 48.1077 232.692 48.32 232.987 48.476C233.29 48.632 233.641 48.71 234.04 48.71ZM239.778 53.182C239.475 53.182 239.219 53.0823 239.011 52.883C238.812 52.6837 238.712 52.428 238.712 52.116C238.712 51.804 238.812 51.5527 239.011 51.362C239.219 51.1627 239.475 51.063 239.778 51.063C240.082 51.063 240.333 51.1627 240.532 51.362C240.74 51.5613 240.844 51.8127 240.844 52.116C240.844 52.428 240.74 52.6837 240.532 52.883C240.333 53.0823 240.082 53.182 239.778 53.182ZM244.309 53V44.862H244.101L242.606 47.93H241.163L243.178 43.9H245.674V53H244.309ZM247.566 53V43.9H248.97V47.683H249.178L252.571 43.9H254.404L250.296 48.385L254.547 53H252.662L249.178 49.139H248.97V53H247.566Z" fill="#6CE54A"/>
<defs>
<clipPath id="clip0_9640_1452">
<rect width="20" height="20" fill="white" transform="translate(16 16)"/>
</clipPath>
</defs>
</svg>
