<svg width="393" height="23" viewBox="0 0 393 23" fill="none" xmlns="http://www.w3.org/2000/svg">
<path d="M27.1267 21.9454V4.5854H24.35V0.478736H34.8033V4.5854H32.0267V21.9454H27.1267ZM41.8063 21.9454V13.5454H40.5929V21.9454H35.6696V0.478736H40.5929V9.43874H41.8063V0.478736H46.7296V21.9454H41.8063ZM47.7555 21.9454V0.478736H55.5022V4.5854H52.6789V9.11207H55.4322V13.1721H52.6789V17.8387H55.5022V21.9454H47.7555ZM60.1696 21.9454V0.478736H65.0929V17.8387H68.0329V21.9454H60.1696ZM68.6782 21.9454L70.6382 0.478736H79.1082L81.0449 21.9454H76.3082L76.0749 18.6087H73.6716L73.4382 21.9454H68.6782ZM73.9749 14.4787H75.7716L75.0716 4.9354H74.6749L73.9749 14.4787ZM83.154 21.9454V4.5854H80.3773V0.478736H90.8307V4.5854H88.054V21.9454H83.154ZM91.6969 21.9454V0.478736H99.4436V4.5854H96.6203V9.11207H99.3736V13.1721H96.6203V17.8387H99.4436V21.9454H91.6969ZM105.832 22.2021C102.519 22.2021 100.442 20.9421 100.442 17.3487V14.2221H105.179V17.3254C105.179 17.9321 105.412 18.1187 105.809 18.1187C106.159 18.1187 106.416 17.9321 106.416 17.3254V14.4087C106.416 12.2154 100.419 13.8254 100.419 8.2954V5.0754C100.419 1.48207 102.519 0.22207 105.809 0.22207C109.122 0.22207 111.176 1.48207 111.176 5.0754V8.20207H106.439V5.09874C106.439 4.49207 106.206 4.3054 105.832 4.3054C105.459 4.3054 105.226 4.49207 105.226 5.09874V8.0154C105.226 10.2087 111.246 8.59874 111.246 14.1287V17.3487C111.246 20.9421 109.146 22.2021 105.832 22.2021ZM114.627 21.9454V4.5854H111.85V0.478736H122.303V4.5854H119.527V21.9454H114.627ZM132.446 22.2021C129.086 22.2021 126.916 20.9654 126.916 17.3254V5.09874C126.916 1.45874 129.086 0.22207 132.446 0.22207C135.782 0.22207 137.976 1.45874 137.976 5.09874V17.3254C137.976 20.9654 135.782 22.2021 132.446 22.2021ZM131.839 17.3021C131.839 17.9087 132.096 18.0954 132.446 18.0954C132.772 18.0954 133.052 17.9087 133.052 17.3021V5.12207C133.052 4.5154 132.772 4.32874 132.446 4.32874C132.096 4.32874 131.839 4.5154 131.839 5.12207V17.3021ZM139.002 21.9454V0.478736H145.162L147.168 13.7787H147.472L147.332 10.6521V0.478736H151.858V21.9454H145.675L143.668 8.6454H143.388L143.528 11.7721V21.9454H139.002Z" fill="white"/>
<g clip-path="url(#clip0_4472_584331)">
<path d="M182.729 19.3338V5.09941C182.729 4.74931 183.012 4.46393 183.362 4.46393C183.713 4.46393 183.998 4.74765 183.998 5.09941V21.8343H189.553L187.584 0.26279L179.02 0.257812L177.114 21.8343H182.727V19.3338H182.729Z" fill="#FF4C00"/>
<path d="M159 21.8343V0.257812H166.41L167.489 15.1974H167.771L168.851 0.257812H176.261V21.8343H171.711V7.03571H171.336L170.21 21.8343H165.05L163.923 7.03571H163.548V21.8343H159Z" fill="#FF4C00"/>
<path d="M207.81 22.0902C204.478 22.0902 202.391 20.8242 202.391 17.2121V14.0696H207.151V17.1889C207.151 17.7978 207.385 17.987 207.785 17.987C208.138 17.987 208.394 17.7995 208.394 17.1889V14.2571C208.394 12.052 202.366 13.6697 202.366 8.11132V4.87419C202.366 1.26208 204.477 -0.00390625 207.785 -0.00390625C211.094 -0.00390625 213.179 1.26208 213.179 4.87419V8.01675H208.419V4.89742C208.419 4.28849 208.185 4.09934 207.81 4.09934C207.435 4.09934 207.201 4.28683 207.201 4.89742V7.82926C207.201 10.0344 213.252 8.41662 213.252 13.975V17.2121C213.252 20.8242 211.142 22.0902 207.812 22.0902H207.81Z" fill="#FF4C00"/>
<path d="M195.337 15.7599H196.205L197.518 21.8343H201.903L200.167 14.469C200.941 13.7655 201.433 12.7086 201.433 11.1622V5.15914C201.433 1.57025 200.66 0.257812 196.953 0.257812H190.386V21.8343H195.336V15.7599H195.337ZM195.337 4.36271H195.83C196.416 4.36271 196.603 4.59666 196.603 5.20725V11.4459C196.603 12.0333 196.416 12.2656 195.83 12.2656H195.337V4.36105V4.36271Z" fill="#FF4C00"/>
</g>
<defs>
<clipPath id="clip0_4472_584331">
<rect width="54.2519" height="22.0908" fill="white" transform="translate(159)"/>
</clipPath>
</defs>
</svg>
