<svg width="93" height="17" viewBox="0 0 93 17" fill="none" xmlns="http://www.w3.org/2000/svg">
<path d="M0.751953 8.54077C0.751953 4.12249 4.33368 0.540771 8.75195 0.540771H84.752C89.1702 0.540771 92.752 4.12249 92.752 8.54077C92.752 12.959 89.1702 16.5408 84.752 16.5408H8.75195C4.33367 16.5408 0.751953 12.959 0.751953 8.54077Z" fill="#141414"/>
<path d="M1.55495 12.5408V4.84077H2.74295V11.4628H6.44995V12.5408H1.55495ZM7.64835 12.5408V4.84077H12.4994V5.91877H8.83635V8.12977H12.1914V9.20777H8.83635V11.4628H12.5544V12.5408H7.64835ZM13.3309 12.5408L15.5309 4.84077H17.6209L19.8099 12.5408H18.5889L18.0829 10.7258H15.0689L14.5629 12.5408H13.3309ZM15.3659 9.62577H17.7859L16.6639 5.57777H16.4879L15.3659 9.62577ZM20.9631 12.5408V4.84077H24.1971C24.6737 4.84077 25.0917 4.9251 25.4511 5.09377C25.8177 5.2551 26.1001 5.48977 26.2981 5.79777C26.5034 6.10577 26.6061 6.47244 26.6061 6.89777V7.01877C26.6061 7.50277 26.4887 7.89144 26.2541 8.18477C26.0267 8.47077 25.7481 8.67244 25.4181 8.78977V8.96577C25.6967 8.98044 25.9204 9.07577 26.0891 9.25177C26.2577 9.42044 26.3421 9.6661 26.3421 9.98877V12.5408H25.1431V10.1538C25.1431 9.95577 25.0917 9.7981 24.9891 9.68077C24.8864 9.56344 24.7214 9.50477 24.4941 9.50477H22.1511V12.5408H20.9631ZM22.1511 8.42677H24.0651C24.4904 8.42677 24.8204 8.32044 25.0551 8.10777C25.2897 7.88777 25.4071 7.59077 25.4071 7.21677V7.12877C25.4071 6.75477 25.2897 6.46144 25.0551 6.24877C24.8277 6.02877 24.4977 5.91877 24.0651 5.91877H22.1511V8.42677ZM28.0233 12.5408V4.84077H30.3113L32.4013 11.7488H32.5773V4.84077H33.7543V12.5408H31.4663L29.3763 5.62177H29.2003V12.5408H28.0233ZM38.3839 12.5408V4.84077H40.6169L42.2999 11.7488H42.4759L44.1589 4.84077H46.3919V12.5408H45.2369V5.67677H45.0609L43.3889 12.5408H41.3869L39.7149 5.67677H39.5389V12.5408H38.3839ZM51.0012 12.6948C50.0552 12.6948 49.3035 12.4308 48.7462 11.9028C48.1888 11.3674 47.9102 10.5974 47.9102 9.59277V7.78877C47.9102 6.7841 48.1888 6.01777 48.7462 5.48977C49.3035 4.95444 50.0552 4.68677 51.0012 4.68677C51.9472 4.68677 52.6988 4.95444 53.2562 5.48977C53.8208 6.01777 54.1032 6.7841 54.1032 7.78877V9.59277C54.1032 10.5974 53.8208 11.3674 53.2562 11.9028C52.6988 12.4308 51.9472 12.6948 51.0012 12.6948ZM51.0012 11.6278C51.6098 11.6278 52.0792 11.4518 52.4092 11.0998C52.7392 10.7404 52.9042 10.2528 52.9042 9.63677V7.74477C52.9042 7.12877 52.7392 6.64477 52.4092 6.29277C52.0792 5.93344 51.6098 5.75377 51.0012 5.75377C50.4072 5.75377 49.9415 5.93344 49.6042 6.29277C49.2668 6.64477 49.0982 7.12877 49.0982 7.74477V9.63677C49.0982 10.2528 49.2668 10.7404 49.6042 11.0998C49.9415 11.4518 50.4072 11.6278 51.0012 11.6278ZM55.6195 12.5408V4.84077H58.8535C59.3302 4.84077 59.7482 4.9251 60.1075 5.09377C60.4742 5.2551 60.7565 5.48977 60.9545 5.79777C61.1599 6.10577 61.2625 6.47244 61.2625 6.89777V7.01877C61.2625 7.50277 61.1452 7.89144 60.9105 8.18477C60.6832 8.47077 60.4045 8.67244 60.0745 8.78977V8.96577C60.3532 8.98044 60.5769 9.07577 60.7455 9.25177C60.9142 9.42044 60.9985 9.6661 60.9985 9.98877V12.5408H59.7995V10.1538C59.7995 9.95577 59.7482 9.7981 59.6455 9.68077C59.5429 9.56344 59.3779 9.50477 59.1505 9.50477H56.8075V12.5408H55.6195ZM56.8075 8.42677H58.7215C59.1469 8.42677 59.4769 8.32044 59.7115 8.10777C59.9462 7.88777 60.0635 7.59077 60.0635 7.21677V7.12877C60.0635 6.75477 59.9462 6.46144 59.7115 6.24877C59.4842 6.02877 59.1542 5.91877 58.7215 5.91877H56.8075V8.42677ZM62.6797 12.5408V4.84077H67.5307V5.91877H63.8677V8.12977H67.2227V9.20777H63.8677V11.4628H67.5857V12.5408H62.6797Z" fill="#C9C9C9"/>
<g clip-path="url(#clip0_13013_51502)">
<path d="M78.9572 8.8751L91.2137 8.87506M91.2137 8.87506L85.3305 14.7582M91.2137 8.87506L85.3306 2.99196" stroke="#C9C9C9" stroke-linecap="round" stroke-linejoin="round"/>
</g>
<defs>
<clipPath id="clip0_13013_51502">
<rect width="16" height="16" fill="white" transform="translate(76.752 0.540771)"/>
</clipPath>
</defs>
</svg>
