<svg width="146" height="22" viewBox="0 0 146 22" fill="none" xmlns="http://www.w3.org/2000/svg">
<g clip-path="url(#clip0_12810_48675)">
<path d="M139.841 22C136.524 22 134.443 20.7403 134.443 17.1419V14.0127H139.185V17.1198C139.185 17.7276 139.418 17.9141 139.817 17.9141C140.168 17.9141 140.425 17.7276 140.425 17.1198V14.2013C140.425 12.0049 134.421 13.6176 134.421 8.0815V4.85812C134.421 1.26165 136.524 -1.52588e-05 139.817 -1.52588e-05C143.111 -1.52588e-05 145.189 1.25965 145.189 4.85812V7.98722H140.447V4.88018C140.447 4.27241 140.214 4.08587 139.841 4.08587C139.468 4.08587 139.233 4.27241 139.233 4.88018V7.79867C139.233 9.99506 145.259 8.38237 145.259 13.9185V17.1419C145.259 20.7383 143.157 22 139.839 22H139.841Z" fill="white"/>
<path d="M58.6514 21.7483V0.257797H66.0329L67.108 15.1371H67.3888L68.464 0.257797H75.8455V21.7483H71.3143V7.00743H70.9412L69.8199 21.7483H64.6809L63.5597 7.00743H63.1866V21.7483H58.6554H58.6514Z" fill="white"/>
<path d="M78.6571 0.257797L76.6934 21.7483H81.4592L81.6919 18.4086H84.0989L84.3316 21.7483H89.0734L87.1338 0.257797H78.6551H78.6571ZM81.9968 14.2726L82.6968 4.71877H83.094L83.794 14.2726H81.9968Z" fill="white"/>
<path d="M100.915 11.1194V5.14C100.915 1.5656 100.145 0.257797 96.4541 0.257797H89.9131V21.7483H94.8414V15.6967H95.706L97.0138 21.7483H101.38L99.6515 14.413C100.422 13.7129 100.913 12.6599 100.913 11.1194H100.915ZM96.1031 11.4002C96.1031 11.9839 95.9166 12.2166 95.3329 12.2166H94.8414V4.34368H95.3329C95.9166 4.34368 96.1031 4.57636 96.1031 5.18613V11.4002Z" fill="white"/>
<path d="M109.378 21.7483L107.814 13.5485L107.136 16.1661V21.7483H102.231V0.257797H107.136V8.15276H107.463L109.146 0.257797H113.958L111.506 10.5357L114.216 21.7483H109.38H109.378Z" fill="white"/>
<path d="M122.578 4.36775H119.752V8.90094H122.508V12.9648H119.752V17.6364H122.578V21.7483H114.821V0.257797H122.578V4.36775Z" fill="white"/>
<path d="M133.966 0.257797V4.36775H131.186V21.7483H126.282V4.36775H123.502V0.257797H133.966Z" fill="white"/>
<path d="M24.6021 19.2571V5.07982C24.6021 4.73081 24.8849 4.44799 25.2339 4.44799C25.5829 4.44799 25.8657 4.73081 25.8657 5.07982V21.7483H31.3979L29.4381 0.263815L20.9093 0.257797L19.0098 21.7483H24.6V19.2571H24.6021Z" fill="#FF4C00"/>
<path d="M0.971191 21.7483V0.257797H8.35269L9.42783 15.1371H9.70864L10.7818 0.257797H18.1633V21.7483H13.6321V7.00944H13.259L12.1377 21.7483H6.99875L5.87748 7.00944H5.5044V21.7483H0.971191Z" fill="#FF4C00"/>
<path d="M49.5834 22C46.2657 22 44.1856 20.7403 44.1856 17.1419V14.0127H48.9275V17.1198C48.9275 17.7276 49.1601 17.9141 49.5593 17.9141C49.9103 17.9141 50.1671 17.7276 50.1671 17.1198V14.2013C50.1671 12.0049 44.1636 13.6176 44.1636 8.0815V4.85812C44.1636 1.26165 46.2657 -1.52588e-05 49.5593 -1.52588e-05C52.8529 -1.52588e-05 54.9309 1.25965 54.9309 4.85812V7.98722H50.1891V4.88018C50.1891 4.27241 49.9564 4.08587 49.5834 4.08587C49.2103 4.08587 48.9756 4.27241 48.9756 4.88018V7.79867C48.9756 9.99506 55.0011 8.38237 55.0011 13.9185V17.1419C55.0011 20.7383 52.899 22 49.5814 22H49.5834Z" fill="#FF4C00"/>
<path d="M37.1604 15.6987H38.0249L39.3327 21.7483H43.6994L41.9704 14.413C42.7406 13.7129 43.2301 12.6599 43.2301 11.1194V5.14C43.2301 1.5656 42.4598 0.257797 38.7691 0.257797H32.228V21.7483H37.1564V15.6987H37.1604ZM37.1604 4.34769H37.6498C38.2335 4.34769 38.4201 4.58037 38.4201 5.19015V11.4042C38.4201 11.9879 38.2335 12.2206 37.6498 12.2206H37.1604V4.34569V4.34769Z" fill="#FF4C00"/>
</g>
<defs>
<clipPath id="clip0_12810_48675">
<rect width="144.288" height="22" fill="white" transform="translate(0.971191)"/>
</clipPath>
</defs>
</svg>
