<svg width="63" height="13" viewBox="0 0 63 13" fill="none" xmlns="http://www.w3.org/2000/svg">
<g clip-path="url(#clip0_2523_12684)">
<path d="M12.8907 11.2304V3.49738C12.8907 3.30701 13.0449 3.15275 13.2353 3.15275C13.4257 3.15275 13.5799 3.30701 13.5799 3.49738V12.5893H16.5974L15.5285 0.87047L10.8764 0.867188L9.84033 12.5893H12.8896V11.2304H12.8907Z" fill="#FF4C00"/>
<path d="M0.000976562 12.5893V0.867188H4.02724L4.61367 8.98316H4.76684L5.35218 0.867188H9.37844V12.5893H6.90689V4.5499H6.70338L6.09179 12.5893H3.28872L2.67713 4.5499H2.47362V12.5893H0.000976562Z" fill="#FF4C00"/>
<path d="M26.5167 12.7266C24.707 12.7266 23.5725 12.0395 23.5725 10.0767V8.36989H26.1589V10.0646C26.1589 10.3961 26.2858 10.4979 26.5035 10.4979C26.695 10.4979 26.835 10.3961 26.835 10.0646V8.47273C26.835 7.2747 23.5604 8.15435 23.5604 5.13466V3.37645C23.5604 1.41475 24.707 0.726562 26.5035 0.726562C28.3 0.726562 29.4335 1.41365 29.4335 3.37645V5.08324H26.8471V3.38849C26.8471 3.05698 26.7202 2.95523 26.5167 2.95523C26.3132 2.95523 26.1852 3.05698 26.1852 3.38849V4.98039C26.1852 6.17842 29.4718 5.29877 29.4718 8.31847V10.0767C29.4718 12.0384 28.3252 12.7266 26.5156 12.7266H26.5167Z" fill="#FF4C00"/>
<path d="M19.7407 9.28951H20.2122L20.9256 12.5893H23.3074L22.3643 8.58819C22.7844 8.20636 23.0514 7.63196 23.0514 6.7917V3.53021C23.0514 1.58054 22.6313 0.867188 20.6181 0.867188H17.0503V12.5893H19.7385V9.28951H19.7407ZM19.7407 3.09804H20.0076C20.326 3.09804 20.4278 3.22496 20.4278 3.55756V6.94706C20.4278 7.26544 20.326 7.39235 20.0076 7.39235H19.7407V3.09695V3.09804Z" fill="#FF4C00"/>
<path d="M31.7519 12.7266V1.0119H35.1135L36.2086 8.2699H36.3741L36.2977 6.56363V1.0119H38.768V12.7266H35.3937L34.2986 5.46856H34.1458L34.2222 7.17483V12.7266H31.7519ZM39.3322 12.7266V1.0119H43.5597V3.25296H42.019V5.72323H43.5215V7.93883H42.019V10.4855H43.5597V12.7266H39.3322ZM52.5105 1.0119H55.1208L54.2167 12.7266H50.0784L49.5691 3.9151H49.4417L48.9324 12.7266H44.7941L43.89 1.0119H46.5003L46.946 9.8361H47.0733L47.6336 1.0119H51.3772L51.9375 9.8361H52.0648L52.5105 1.0119ZM58.4464 12.8666C56.6382 12.8666 55.505 12.179 55.505 10.2181V8.51183H58.0898V10.2054C58.0898 10.5364 58.2172 10.6383 58.4336 10.6383C58.6246 10.6383 58.7647 10.5364 58.7647 10.2054V8.6137C58.7647 7.41676 55.4922 8.29536 55.4922 5.27756V3.52036C55.4922 1.55943 56.6382 0.871829 58.4336 0.871829C60.2418 0.871829 61.3623 1.55943 61.3623 3.52036V5.22663H58.7774V3.5331C58.7774 3.20203 58.6501 3.10016 58.4464 3.10016C58.2426 3.10016 58.1153 3.20203 58.1153 3.5331V5.12476C58.1153 6.3217 61.4005 5.4431 61.4005 8.4609V10.2181C61.4005 12.179 60.2545 12.8666 58.4464 12.8666Z" fill="#C9C9C9"/>
</g>
<defs>
<clipPath id="clip0_2523_12684">
<rect width="62.4708" height="12" fill="white" transform="translate(0.000976562 0.726562)"/>
</clipPath>
</defs>
</svg>
