<svg width="145" height="22" viewBox="0 0 145 22" fill="none" xmlns="http://www.w3.org/2000/svg">
<g clip-path="url(#clip0_6532_47721)">
<path d="M139.226 22C135.908 22 133.828 20.7403 133.828 17.1419V14.0128H138.57V17.1198C138.57 17.7276 138.803 17.9141 139.202 17.9141C139.553 17.9141 139.81 17.7276 139.81 17.1198V14.2013C139.81 12.0049 133.806 13.6176 133.806 8.08151V4.85813C133.806 1.26167 135.908 0 139.202 0C142.496 0 144.574 1.25966 144.574 4.85813V7.98724H139.832V4.8802C139.832 4.27243 139.599 4.08589 139.226 4.08589C138.853 4.08589 138.618 4.27243 138.618 4.8802V7.79869C138.618 9.99508 144.644 8.38239 144.644 13.9185V17.1419C144.644 20.7383 142.542 22 139.224 22H139.226Z" fill="white"/>
<path d="M58.0364 21.7483V0.257812H65.4179L66.493 15.1371H66.7739L67.849 0.257812H75.2305V21.7483H70.6993V7.00745H70.3262L69.2049 21.7483H64.066L62.9447 7.00745H62.5716V21.7483H58.0404H58.0364Z" fill="white"/>
<path d="M78.0417 0.257812L76.078 21.7483H80.8439L81.0765 18.4086H83.4836L83.7162 21.7483H88.4581L86.5184 0.257812H78.0397H78.0417ZM81.3814 14.2726L82.0815 4.71879H82.4786L83.1787 14.2726H81.3814Z" fill="white"/>
<path d="M100.3 11.1194V5.14002C100.3 1.56562 99.5299 0.257812 95.8392 0.257812H89.2981V21.7483H94.2265V15.6967H95.091L96.3988 21.7483H100.766L99.0365 14.413C99.8067 13.713 100.298 12.6599 100.298 11.1194H100.3ZM95.4882 11.4002C95.4882 11.9839 95.3016 12.2166 94.7179 12.2166H94.2265V4.3437H94.7179C95.3016 4.3437 95.4882 4.57638 95.4882 5.18615V11.4002Z" fill="white"/>
<path d="M108.763 21.7483L107.199 13.5485L106.521 16.1661V21.7483H101.616V0.257812H106.521V8.15278H106.848L108.53 0.257812H113.342L110.891 10.5357L113.601 21.7483H108.765H108.763Z" fill="white"/>
<path d="M121.963 4.36777H119.137V8.90096H121.893V12.9648H119.137V17.6364H121.963V21.7483H114.206V0.257812H121.963V4.36777Z" fill="white"/>
<path d="M133.351 0.257812V4.36777H130.571V21.7483H125.667V4.36777H122.887V0.257812H133.351Z" fill="white"/>
<path d="M23.9867 19.2571V5.07984C23.9867 4.73082 24.2696 4.448 24.6186 4.448C24.9676 4.448 25.2504 4.73082 25.2504 5.07984V21.7483H30.7825L28.8228 0.26383L20.294 0.257812L18.3945 21.7483H23.9847V19.2571H23.9867Z" fill="#FF4C00"/>
<path d="M0.356037 21.7483V0.257812H7.73754L8.81267 15.1371H9.09349L10.1666 0.257812H17.5481V21.7483H13.0169V7.00945H12.6438L11.5226 21.7483H6.3836L5.26233 7.00945H4.88924V21.7483H0.356037Z" fill="#FF4C00"/>
<path d="M48.9681 22C45.6505 22 43.5704 20.7403 43.5704 17.1419V14.0128H48.3122V17.1198C48.3122 17.7276 48.5449 17.9141 48.9441 17.9141C49.2951 17.9141 49.5518 17.7276 49.5518 17.1198V14.2013C49.5518 12.0049 43.5484 13.6176 43.5484 8.08151V4.85813C43.5484 1.26167 45.6505 0 48.9441 0C52.2377 0 54.3157 1.25966 54.3157 4.85813V7.98724H49.5739V4.8802C49.5739 4.27243 49.3412 4.08589 48.9681 4.08589C48.5951 4.08589 48.3604 4.27243 48.3604 4.8802V7.79869C48.3604 9.99508 54.3859 8.38239 54.3859 13.9185V17.1419C54.3859 20.7383 52.2838 22 48.9661 22H48.9681Z" fill="#FF4C00"/>
<path d="M36.5451 15.6987H37.4096L38.7174 21.7483H43.0841L41.3551 14.413C42.1253 13.713 42.6148 12.6599 42.6148 11.1194V5.14002C42.6148 1.56562 41.8445 0.257812 38.1538 0.257812H31.6127V21.7483H36.5411V15.6987H36.5451ZM36.5451 4.34771H37.0345C37.6182 4.34771 37.8047 4.58039 37.8047 5.19016V11.4042C37.8047 11.9879 37.6182 12.2206 37.0345 12.2206H36.5451V4.3457V4.34771Z" fill="#FF4C00"/>
</g>
<defs>
<clipPath id="clip0_6532_47721">
<rect width="144.288" height="22" fill="white" transform="translate(0.356049)"/>
</clipPath>
</defs>
</svg>
