<svg width="109" height="19" viewBox="0 0 109 19" fill="none" xmlns="http://www.w3.org/2000/svg">
<path d="M4.42285 15.9322V4.71707C4.42285 4.4409 4.64672 4.21703 4.9229 4.21703C5.19907 4.21703 5.42294 4.4409 5.42294 4.71707V17.9024H9.79945L9.02377 9.40465L8.2481 0.906951L1.50202 0.902344L0 17.9024H4.42285V15.9322Z" fill="#FF4C00"/>
<path d="M14.2022 17.9023V1.03568H19.3355C22.2322 1.03568 22.8372 2.06234 22.8372 4.86734V10.7707C22.8372 13.5757 22.2322 14.6023 19.3355 14.6023H18.0705V17.9023H14.2022ZM18.0705 11.394H18.4555C18.9322 11.394 19.0605 11.2107 19.0605 10.734V4.90401C19.0605 4.42734 18.9322 4.24401 18.4555 4.24401H18.0705V11.394ZM29.336 17.9023L28.3094 13.154H27.961H27.631V17.9023H23.7627V1.03568H28.896C31.7927 1.03568 32.3977 2.06234 32.3977 4.86734V9.56068C32.3977 10.7707 32.0127 11.5957 31.4077 12.1457L32.7644 17.9023H29.336ZM27.631 10.4223H28.016C28.4744 10.4223 28.621 10.239 28.621 9.78068V4.90401C28.621 4.42734 28.4744 4.24401 28.016 4.24401H27.631V10.4223ZM37.7757 18.104C35.1357 18.104 33.4307 17.1323 33.4307 14.2723V4.66568C33.4307 1.80568 35.1357 0.83401 37.7757 0.83401C40.3973 0.83401 42.1207 1.80568 42.1207 4.66568V14.2723C42.1207 17.1323 40.3973 18.104 37.7757 18.104ZM37.299 14.254C37.299 14.7307 37.5007 14.8773 37.7757 14.8773C38.0323 14.8773 38.2523 14.7307 38.2523 14.254V4.68401C38.2523 4.20734 38.0323 4.06068 37.7757 4.06068C37.5007 4.06068 37.299 4.20734 37.299 4.68401V14.254ZM45.8701 17.9023V1.03568H51.6635L52.5068 12.714H52.7268L53.5701 1.03568H59.3635V17.9023H55.8068V6.33401H55.5135L54.6335 17.9023H50.6001L49.7201 6.33401H49.4268V17.9023H45.8701ZM60.1787 17.9023V1.03568H66.2654V4.26234H64.0471V7.81901H66.2104V11.009H64.0471V14.6757H66.2654V17.9023H60.1787ZM69.0426 17.9023V4.26234H66.8609V1.03568H75.0743V4.26234H72.8926V17.9023H69.0426ZM81.3282 17.9023L80.3016 13.154H79.9532H79.6232V17.9023H75.7549V1.03568H80.8882C83.7849 1.03568 84.3899 2.06234 84.3899 4.86734V9.56068C84.3899 10.7707 84.0049 11.5957 83.3999 12.1457L84.7566 17.9023H81.3282ZM79.6232 10.4223H80.0082C80.4666 10.4223 80.6132 10.239 80.6132 9.78068V4.90401C80.6132 4.42734 80.4666 4.24401 80.0082 4.24401H79.6232V10.4223ZM85.4229 17.9023V1.03568H89.2912V17.9023H85.4229ZM94.4515 18.1407C91.8115 18.1407 90.1065 17.1873 90.1065 14.309V4.66568C90.1065 1.80568 91.8115 0.83401 94.4515 0.83401C97.0731 0.83401 98.7965 1.80568 98.7965 4.66568V8.91901H94.9281V4.68401C94.9281 4.20734 94.7081 4.06068 94.4515 4.06068C94.1765 4.06068 93.9748 4.20734 93.9748 4.68401V14.2907C93.9748 14.7857 94.1765 14.914 94.4515 14.914C94.7081 14.914 94.9281 14.7857 94.9281 14.2907V10.019H98.7965V14.309C98.7965 17.1873 97.0731 18.1407 94.4515 18.1407ZM103.984 18.104C101.381 18.104 99.7492 17.114 99.7492 14.2907V11.834H103.471V14.2723C103.471 14.749 103.654 14.8957 103.966 14.8957C104.241 14.8957 104.443 14.749 104.443 14.2723V11.9807C104.443 10.2573 99.7309 11.5223 99.7309 7.17734V4.64734C99.7309 1.82401 101.381 0.83401 103.966 0.83401C106.569 0.83401 108.183 1.82401 108.183 4.64734V7.10401H104.461V4.66568C104.461 4.18901 104.278 4.04234 103.984 4.04234C103.691 4.04234 103.508 4.18901 103.508 4.66568V6.95734C103.508 8.68068 108.238 7.41568 108.238 11.7607V14.2907C108.238 17.114 106.588 18.104 103.984 18.104Z" fill="white"/>
</svg>
