<svg width="301" height="48" viewBox="0 0 301 48" fill="none" xmlns="http://www.w3.org/2000/svg">
<path d="M271.82 44C265.788 44 262.006 41.7097 262.006 35.167V29.4778H270.628V35.1269C270.628 36.2319 271.051 36.5711 271.776 36.5711C272.415 36.5711 272.881 36.2319 272.881 35.1269V29.8206C272.881 25.8271 261.966 28.7593 261.966 18.6937V12.833C261.966 6.29395 265.788 4 271.776 4C277.765 4 281.543 6.2903 281.543 12.833V18.5222H272.922V12.8731C272.922 11.7681 272.499 11.4289 271.82 11.4289C271.142 11.4289 270.715 11.7681 270.715 12.8731V18.1794C270.715 22.1729 281.671 19.2407 281.671 29.3063V35.167C281.671 41.7061 277.849 44 271.817 44H271.82Z" fill="white"/>
<path d="M124.203 43.5424V4.46875H137.624L139.578 31.522H140.089L142.044 4.46875H155.465V43.5424H147.226V16.7408H146.548L144.509 43.5424H135.165L133.127 16.7408H132.448V43.5424H124.21H124.203Z" fill="white"/>
<path d="M160.575 4.46875L157.005 43.5424H165.67L166.093 37.4702H170.47L170.893 43.5424H179.514L175.987 4.46875H160.572H160.575ZM166.648 29.9501L167.92 12.5796H168.642L169.915 29.9501H166.648Z" fill="white"/>
<path d="M201.046 24.2171V13.3455C201.046 6.84658 199.645 4.46875 192.935 4.46875H181.042V43.5424H190.003V32.5395H191.574L193.952 43.5424H201.892L198.748 30.2054C200.149 28.9326 201.042 27.018 201.042 24.2171H201.046ZM192.297 24.7277C192.297 25.789 191.957 26.212 190.896 26.212H190.003V11.8976H190.896C191.957 11.8976 192.297 12.3207 192.297 13.4294V24.7277Z" fill="white"/>
<path d="M216.433 43.5424L213.588 28.6336L212.356 33.3929V43.5424H203.439V4.46875H212.356V18.8232H212.95L216.01 4.46875H224.759L220.302 23.1558L225.229 43.5424H216.437H216.433Z" fill="white"/>
<path d="M240.432 11.9414H235.294V20.1836H240.305V27.5723H235.294V36.0661H240.432V43.5424H226.329V4.46875H240.432V11.9414Z" fill="white"/>
<path d="M261.139 4.46875V11.9414H256.084V43.5424H247.167V11.9414H242.113V4.46875H261.139Z" fill="white"/>
<path d="M62.294 39.0129V13.2361C62.294 12.6015 62.8082 12.0873 63.4428 12.0873C64.0774 12.0873 64.5916 12.6015 64.5916 13.2361V43.5424H74.65L71.0869 4.47969L55.5799 4.46875L52.1262 43.5424H62.2904V39.0129H62.294Z" fill="#FF4C00"/>
<path d="M19.3291 43.5424V4.46875H32.75L34.7048 31.522H35.2154L37.1665 4.46875H50.5874V43.5424H42.3489V16.7445H41.6705L39.6319 43.5424H30.2883L28.2496 16.7445H27.5713V43.5424H19.3291Z" fill="#FF4C00"/>
<path d="M107.715 44C101.683 44 97.9007 41.7097 97.9007 35.167V29.4778H106.522V35.1269C106.522 36.2319 106.945 36.5711 107.671 36.5711C108.309 36.5711 108.776 36.2319 108.776 35.1269V29.8206C108.776 25.8271 97.8606 28.7593 97.8606 18.6937V12.833C97.8606 6.29395 101.683 4 107.671 4C113.659 4 117.438 6.2903 117.438 12.833V18.5222H108.816V12.8731C108.816 11.7681 108.393 11.4289 107.715 11.4289C107.036 11.4289 106.61 11.7681 106.61 12.8731V18.1794C106.61 22.1729 117.565 19.2407 117.565 29.3063V35.167C117.565 41.7061 113.743 44 107.711 44H107.715Z" fill="#FF4C00"/>
<path d="M85.1274 32.5431H86.6992L89.0771 43.5424H97.0165L93.8728 30.2054C95.2733 28.9326 96.1631 27.018 96.1631 24.2171V13.3455C96.1631 6.84658 94.7627 4.46875 88.0522 4.46875H76.1594V43.5424H85.1201V32.5431H85.1274ZM85.1274 11.9049H86.0172C87.0785 11.9049 87.4177 12.328 87.4177 13.4367V24.735C87.4177 25.7962 87.0785 26.2193 86.0172 26.2193H85.1274V11.9013V11.9049Z" fill="#FF4C00"/>
</svg>
