<svg width="55" height="23" viewBox="0 0 55 23" fill="none" xmlns="http://www.w3.org/2000/svg">
<g clip-path="url(#clip0_4472_584333)">
<path d="M23.7286 19.3338V5.09941C23.7286 4.74931 24.0123 4.46393 24.3624 4.46393C24.7125 4.46393 24.9979 4.74765 24.9979 5.09941V21.8343H30.553L28.5835 0.26279L20.0202 0.257812L18.1138 21.8343H23.727V19.3338H23.7286Z" fill="#FF4C00"/>
<path d="M0 21.8343V0.257812H7.41014L8.48864 15.1974H8.77071L9.85087 0.257812H17.261V21.8343H12.7114V7.03571H12.3364L11.2098 21.8343H6.04956L4.92295 7.03571H4.54796V21.8343H0Z" fill="#FF4C00"/>
<path d="M48.8097 22.0902C45.4779 22.0902 43.3906 20.8242 43.3906 17.2121V14.0696H48.151V17.1889C48.151 17.7978 48.3849 17.987 48.7848 17.987C49.1382 17.987 49.3937 17.7995 49.3937 17.1889V14.2571C49.3937 12.052 43.3657 13.6697 43.3657 8.11132V4.87419C43.3657 1.26208 45.4763 -0.00390625 48.7848 -0.00390625C52.0933 -0.00390625 54.1789 1.26208 54.1789 4.87419V8.01675H49.4186V4.89742C49.4186 4.28849 49.1847 4.09934 48.8097 4.09934C48.4347 4.09934 48.2007 4.28683 48.2007 4.89742V7.82926C48.2007 10.0344 54.252 8.41662 54.252 13.975V17.2121C54.252 20.8242 52.1414 22.0902 48.8113 22.0902H48.8097Z" fill="#FF4C00"/>
<path d="M36.3374 15.7599H37.2052L38.5176 21.8343H42.903L41.1674 14.469C41.9406 13.7655 42.4334 12.7086 42.4334 11.1622V5.15914C42.4334 1.57025 41.6602 0.257812 37.9535 0.257812H31.3862V21.8343H36.3357V15.7599H36.3374ZM36.3374 4.36271H36.8302C37.4159 4.36271 37.6034 4.59666 37.6034 5.20725V11.4459C37.6034 12.0333 37.4159 12.2656 36.8302 12.2656H36.3374V4.36105V4.36271Z" fill="#FF4C00"/>
</g>
<defs>
<clipPath id="clip0_4472_584333">
<rect width="54.2519" height="22.0908" fill="white"/>
</clipPath>
</defs>
</svg>
