<svg width="80" height="10" viewBox="0 0 80 10" fill="none" xmlns="http://www.w3.org/2000/svg">
<path d="M5.50101 0.979492C0.516177 1.1255 0.00780654 8.12029 4.86957 9.02064H5.50101H6.13245C10.9953 8.11944 10.4847 1.12499 5.50101 0.979492Z" fill="#1877F2"/>
<path d="M6.13277 6.19369H7.07443L7.25362 5.02443H6.13277V4.26559C6.13277 3.94573 6.28936 3.6339 6.79138 3.6339H7.30102V2.6384C6.20963 2.44178 4.89841 2.50162 4.86989 4.13321V5.02443H3.84375V6.19369H4.86989V9.02045H5.50133H6.13277V6.19369Z" fill="#F1F1F1"/>
<path d="M16.9645 1.56071C18.0605 1.56071 18.1904 1.56481 18.6233 1.58459C18.8835 1.58773 19.1413 1.63558 19.3853 1.72603C19.5637 1.79184 19.725 1.89679 19.8574 2.03317C19.9938 2.1656 20.0988 2.32691 20.1646 2.50525C20.255 2.74929 20.3029 3.00706 20.306 3.26731C20.3258 3.70021 20.3299 3.83008 20.3299 4.92614C20.3299 6.02219 20.3258 6.15206 20.306 6.58496C20.3029 6.84521 20.255 7.10298 20.1646 7.34702C20.0963 7.5241 19.9917 7.68492 19.8574 7.81912C19.7232 7.95332 19.5624 8.05794 19.3853 8.12624C19.1413 8.21669 18.8835 8.26454 18.6233 8.26768C18.1904 8.28746 18.0605 8.29156 16.9645 8.29156C15.8684 8.29156 15.7385 8.28746 15.3056 8.26768C15.0453 8.26458 14.7874 8.21674 14.5432 8.12624C14.365 8.06038 14.2038 7.95543 14.0715 7.8191C13.9351 7.68667 13.8302 7.52536 13.7644 7.34702C13.6739 7.10298 13.6261 6.84521 13.6229 6.58496C13.6031 6.15206 13.599 6.02219 13.599 4.92614C13.599 3.83008 13.6031 3.70021 13.6229 3.26731C13.6261 3.00706 13.6739 2.74929 13.7644 2.50525C13.8302 2.32691 13.9351 2.1656 14.0715 2.03317C14.2039 1.89679 14.3652 1.79184 14.5436 1.72603C14.7876 1.63558 15.0454 1.58773 15.3056 1.58459C15.7385 1.56481 15.8684 1.56071 16.9645 1.56071ZM16.9645 0.821045C15.8497 0.821045 15.7098 0.825896 15.272 0.845675C14.9315 0.852469 14.5946 0.916949 14.2756 1.03638C14.0016 1.13955 13.7534 1.3013 13.5483 1.51033C13.3394 1.71533 13.1778 1.96342 13.0747 2.2373C12.9554 2.5563 12.8911 2.89321 12.8844 3.23372C12.8639 3.67147 12.8594 3.81142 12.8594 4.92614C12.8594 6.04085 12.8642 6.1808 12.884 6.61855C12.8908 6.95908 12.9553 7.296 13.0747 7.61497C13.1779 7.88902 13.3396 8.13724 13.5487 8.34232C13.7537 8.55116 14.0018 8.71278 14.2756 8.81589C14.5946 8.93519 14.9315 8.99955 15.272 9.00622C15.7098 9.02675 15.8497 9.03123 16.9645 9.03123C18.0792 9.03123 18.2191 9.02637 18.6569 9.00659C18.9974 8.9998 19.3343 8.93532 19.6533 8.81589C19.9261 8.71042 20.1738 8.54911 20.3806 8.34231C20.5874 8.1355 20.7488 7.88776 20.8542 7.61497C20.9735 7.29597 21.0379 6.95906 21.0446 6.61855C21.0651 6.1808 21.0696 6.04085 21.0696 4.92614C21.0696 3.81142 21.0647 3.67147 21.0449 3.23372C21.0381 2.89319 20.9737 2.55627 20.8542 2.2373C20.751 1.96325 20.5893 1.71503 20.3803 1.50995C20.1753 1.30111 19.9272 1.13949 19.6533 1.03638C19.3343 0.917077 18.9974 0.852723 18.6569 0.846049C18.2191 0.825523 18.0792 0.821045 16.9645 0.821045ZM16.9645 2.81798C16.5475 2.81798 16.1399 2.94163 15.7932 3.17327C15.4466 3.40492 15.1763 3.73417 15.0168 4.11938C14.8572 4.5046 14.8155 4.92847 14.8968 5.33741C14.9782 5.74636 15.1789 6.12199 15.4738 6.41682C15.7686 6.71165 16.1442 6.91243 16.5532 6.99378C16.9621 7.07512 17.386 7.03337 17.7712 6.87381C18.1564 6.71425 18.4857 6.44404 18.7173 6.09736C18.949 5.75068 19.0726 5.34309 19.0726 4.92614C19.0726 4.36702 18.8505 3.8308 18.4552 3.43545C18.0598 3.04009 17.5236 2.81798 16.9645 2.81798ZM16.9645 6.29462C16.6938 6.29462 16.4292 6.21436 16.2042 6.06399C15.9791 5.91362 15.8037 5.69989 15.7001 5.44983C15.5966 5.19977 15.5695 4.92462 15.6223 4.65916C15.6751 4.3937 15.8054 4.14985 15.9968 3.95847C16.1882 3.76708 16.432 3.63675 16.6975 3.58394C16.9629 3.53114 17.2381 3.55824 17.4882 3.66182C17.7382 3.76539 17.9519 3.9408 18.1023 4.16584C18.2527 4.39089 18.333 4.65547 18.333 4.92614C18.333 5.28908 18.1888 5.63716 17.9321 5.8938C17.6755 6.15044 17.3274 6.29462 16.9645 6.29462ZM19.1558 2.24215C19.0584 2.24215 18.9632 2.27104 18.8822 2.32517C18.8011 2.3793 18.738 2.45624 18.7007 2.54625C18.6634 2.63626 18.6537 2.73531 18.6727 2.83087C18.6917 2.92642 18.7386 3.0142 18.8075 3.08309C18.8764 3.15198 18.9642 3.1989 19.0597 3.21791C19.1553 3.23692 19.2543 3.22716 19.3444 3.18988C19.4344 3.15259 19.5113 3.08945 19.5654 3.00844C19.6196 2.92743 19.6484 2.83219 19.6484 2.73476C19.6484 2.60411 19.5965 2.47882 19.5042 2.38643C19.4118 2.29405 19.2865 2.24215 19.1558 2.24215Z" fill="#C13584"/>
<g clip-path="url(#clip0_14659_3057)">
<path d="M28.9194 3.12916C28.828 3.16438 28.8036 3.20094 28.8028 3.27156V7.11762C28.8048 7.1917 28.8613 7.25347 28.9337 7.26078C28.9367 7.26097 32.2712 7.2627 32.2927 7.2627C32.6141 7.26259 32.9223 7.13489 33.1495 6.90764C33.3768 6.6804 33.5045 6.37222 33.5046 6.05085C33.5045 5.85114 33.4551 5.65455 33.3607 5.47854C33.2664 5.30253 33.13 5.15255 32.9637 5.04194C32.7974 4.93134 32.6064 4.86352 32.4076 4.84453C32.2088 4.82554 32.0084 4.85596 31.8242 4.93309C31.728 3.84111 30.8121 2.98427 29.6949 2.98427C29.4216 2.98427 29.1551 3.03816 28.9198 3.12936M28.422 3.40163L28.3672 6.13147L28.422 7.12243C28.424 7.19478 28.4828 7.25443 28.5556 7.25443C28.5908 7.25408 28.6244 7.23997 28.6493 7.21512C28.6742 7.19027 28.6885 7.15666 28.6889 7.12147V7.12243L28.7485 6.13147L28.6889 3.40144C28.687 3.32832 28.6281 3.26867 28.5556 3.26867C28.5203 3.26897 28.4865 3.28311 28.4615 3.30805C28.4366 3.33299 28.4224 3.36673 28.422 3.40202M28.0166 3.62868L27.9696 6.1307C27.9696 6.13262 28.0166 7.13667 28.0166 7.13667C28.0174 7.16948 28.0309 7.20072 28.0542 7.22382C28.0775 7.24692 28.1088 7.26009 28.1417 7.26058C28.1746 7.26009 28.206 7.24684 28.2294 7.22361C28.2527 7.20038 28.2661 7.16901 28.2667 7.13609L28.3195 6.13166L28.2667 3.6283C28.2661 3.59541 28.2526 3.56409 28.2293 3.54091C28.206 3.51772 28.1746 3.50448 28.1417 3.50399C28.0739 3.50399 28.0179 3.56191 28.0166 3.62868ZM26.8044 3.89076L26.7424 6.13051L26.8046 7.15898C26.8065 7.21401 26.8498 7.2575 26.9042 7.2575C26.9587 7.2575 27.0024 7.21383 27.0043 7.15861V7.15803L27.0741 6.13051L27.0043 3.89076C27.0024 3.83303 26.9587 3.79147 26.9042 3.79147C26.8779 3.79152 26.8526 3.80198 26.8339 3.82057C26.8152 3.83917 26.8046 3.86439 26.8044 3.89076ZM27.2052 3.9481L27.1482 6.1309L27.2054 7.14936C27.2073 7.20901 27.2542 7.25674 27.3137 7.25674C27.3732 7.25674 27.4201 7.20921 27.4218 7.14899V7.14956L27.4859 6.1309L27.4218 3.9481C27.4199 3.88768 27.3728 3.84035 27.3137 3.84035C27.2546 3.84035 27.2065 3.88788 27.2052 3.9481ZM26.4066 3.96349L26.3393 6.13051L26.4066 7.16515C26.4072 7.18911 26.417 7.21191 26.4341 7.22875C26.4511 7.24559 26.4741 7.25515 26.498 7.25539C26.5221 7.25514 26.545 7.24554 26.5621 7.22861C26.5792 7.21169 26.589 7.18879 26.5894 7.16476L26.6651 6.13051L26.5894 3.9633C26.5875 3.9125 26.5471 3.87287 26.498 3.87287C26.474 3.87312 26.451 3.88274 26.4339 3.89971C26.4168 3.91667 26.407 3.93963 26.4066 3.96369M27.6093 4.02795L27.5573 6.13109L27.6093 7.14321C27.6112 7.20767 27.662 7.25866 27.726 7.25866C27.7901 7.25866 27.8411 7.20786 27.8424 7.14263V7.1434L27.901 6.13129L27.8424 4.02814C27.8421 3.99738 27.8298 3.96797 27.808 3.94624C27.7862 3.9245 27.7568 3.91217 27.726 3.91192C27.662 3.91192 27.6106 3.96292 27.6093 4.02795ZM26.0122 4.13013C26.0122 4.13032 25.9402 6.13012 25.9402 6.13012L26.0122 7.17553C26.0141 7.22132 26.0507 7.2575 26.0953 7.2575C26.1171 7.25712 26.1378 7.24836 26.1533 7.23306C26.1688 7.21777 26.1778 7.1971 26.1784 7.17534L26.2598 6.13012L26.1784 4.13013C26.1778 4.10837 26.1688 4.0877 26.1533 4.07241C26.1378 4.05711 26.1171 4.04835 26.0953 4.04797C26.0507 4.04797 26.0145 4.08414 26.0122 4.13013ZM25.6208 4.50227L25.5438 6.13012L25.6208 7.18188C25.6227 7.22306 25.6554 7.25539 25.6953 7.25539C25.7351 7.25539 25.7676 7.22306 25.7699 7.18169L25.8571 6.12974L25.7699 4.50188C25.7674 4.46071 25.7347 4.42799 25.6953 4.42799C25.6558 4.42799 25.6227 4.46071 25.6208 4.50188M24.8477 5.05085L24.7607 6.12936L24.8477 7.17265C24.8502 7.20498 24.875 7.22922 24.9054 7.22922C24.9358 7.22922 24.9604 7.20498 24.9631 7.17265L25.0616 6.12936L24.9631 5.05047C24.9602 5.01834 24.9356 4.9939 24.9054 4.9939C24.8752 4.9939 24.85 5.01852 24.8477 5.05085ZM24.4659 5.07933C24.4659 5.07952 24.3739 6.12916 24.3739 6.12916L24.4659 7.14052C24.4688 7.1688 24.4894 7.189 24.5153 7.189C24.5413 7.189 24.5615 7.1688 24.5646 7.1409L24.6691 6.12936L24.5648 5.07953C24.5617 5.05162 24.5409 5.03142 24.5153 5.03142C24.4897 5.03142 24.4686 5.05201 24.4659 5.07953M25.2327 5.12917L25.1509 6.12974L25.2327 7.18169C25.2332 7.19902 25.2403 7.21549 25.2527 7.22767C25.265 7.23986 25.2815 7.24682 25.2989 7.24711C25.3339 7.24711 25.3624 7.21902 25.3651 7.18169L25.4582 6.12955L25.3651 5.12859C25.3622 5.09203 25.3343 5.06393 25.2989 5.06393C25.2635 5.06393 25.235 5.09165 25.2327 5.12917ZM24.0872 5.2448C24.0872 5.245 23.9903 6.12936 23.9903 6.12936L24.0872 6.99467C24.0901 7.01776 24.1074 7.03449 24.1284 7.03449C24.1494 7.03449 24.1659 7.01833 24.1692 6.99486L24.2793 6.12936L24.1692 5.2448C24.1653 5.22133 24.1488 5.20498 24.1282 5.20498C24.1076 5.20498 24.0899 5.22171 24.0872 5.2448ZM23.7243 5.58231L23.6523 6.12936L23.7243 6.66717C23.7272 6.68987 23.7436 6.70565 23.764 6.70565C23.7844 6.70565 23.8001 6.68987 23.8032 6.66717L23.8886 6.12916L23.8032 5.58192C23.8003 5.55941 23.784 5.54344 23.764 5.54344C23.7439 5.54344 23.727 5.55922 23.7243 5.58192" fill="#FF7700"/>
</g>
<path d="M40.0494 8.86486C42.2254 8.86486 43.9894 7.10087 43.9894 4.92486C43.9894 2.74886 42.2254 0.984863 40.0494 0.984863C37.8734 0.984863 36.1094 2.74886 36.1094 4.92486C36.1094 7.10087 37.8734 8.86486 40.0494 8.86486Z" fill="#1DB954"/>
<path d="M42.7585 4.5555C42.7093 4.5555 42.66 4.5555 42.5861 4.53087C41.7735 4.13687 40.9116 3.91525 40.0005 3.84137C39.2125 3.79212 38.4245 3.866 37.6611 4.063C37.4641 4.11225 37.2671 3.98912 37.2179 3.79212C37.1686 3.59512 37.2918 3.39812 37.4888 3.34887C38.326 3.12725 39.2125 3.02875 40.0744 3.10262C41.0594 3.1765 42.0198 3.42275 42.9063 3.866C43.0786 3.9645 43.1771 4.18612 43.0786 4.3585C43.0294 4.48162 42.9063 4.5555 42.7585 4.5555ZM42.2414 5.66362C42.1921 5.66362 42.1429 5.66362 42.1183 5.639C41.478 5.29425 40.7639 5.07262 40.0251 4.99875C39.3356 4.92487 38.5969 4.99875 37.932 5.22037C37.7843 5.26962 37.6365 5.17112 37.5873 5.048C37.538 4.90025 37.6365 4.7525 37.7596 4.70325C38.4984 4.48162 39.2864 4.40775 40.0498 4.48162C40.8624 4.5555 41.6504 4.80175 42.3399 5.17112C42.463 5.245 42.5123 5.41737 42.4384 5.5405C42.4384 5.61437 42.3399 5.66362 42.2414 5.66362ZM41.6996 6.77175C41.6504 6.77175 41.6258 6.77175 41.6011 6.74712C41.3303 6.55012 41.0101 6.40237 40.69 6.27925C39.6311 5.90987 38.6215 6.08225 37.9813 6.27925C37.8828 6.30387 37.7596 6.25462 37.735 6.15612C37.7104 6.05762 37.7596 5.9345 37.8581 5.90987C38.5723 5.68825 39.6558 5.49125 40.8378 5.90987C41.1825 6.033 41.5273 6.20537 41.8228 6.40237C41.9213 6.45162 41.9459 6.57475 41.872 6.67325C41.8228 6.74712 41.7735 6.77175 41.6996 6.77175Z" fill="black"/>
<g clip-path="url(#clip1_14659_3057)">
<path d="M55.0904 4.2667C54.3599 4.2667 53.6835 4.03458 53.1312 3.64008V6.50776C53.1312 7.94229 51.9677 9.1052 50.5324 9.1052C49.9969 9.1052 49.4992 8.94336 49.0857 8.66587C48.391 8.19964 47.9336 7.40692 47.9336 6.50773C47.9336 5.0733 49.0971 3.91038 50.5325 3.91041C50.6518 3.91035 50.7709 3.91846 50.8891 3.9346V4.253L50.889 5.37121C50.7752 5.33514 50.654 5.31556 50.5282 5.31556C49.8716 5.31556 49.3395 5.84754 49.3395 6.50368C49.3395 6.9676 49.6055 7.36933 49.9934 7.56501C50.1542 7.6461 50.3359 7.69178 50.5282 7.69178C51.1834 7.69178 51.7147 7.16196 51.717 6.50773V0.89502H53.1311V1.07576C53.1361 1.1298 53.1433 1.18363 53.1527 1.2371C53.2508 1.79665 53.5856 2.27472 54.0502 2.5645C54.3622 2.75915 54.7227 2.86206 55.0905 2.8615L55.0904 4.2667Z" fill="white" fill-opacity="0.9"/>
</g>
<g clip-path="url(#clip2_14659_3057)">
<path fill-rule="evenodd" clip-rule="evenodd" d="M66.4205 1.71918C66.7916 1.83407 67.0833 2.17135 67.1826 2.60054C67.3622 3.37768 67.3629 5.00007 67.3629 5.00007C67.3629 5.00007 67.3629 6.62247 67.1826 7.39961C67.0833 7.8288 66.7916 8.16607 66.4205 8.28094C65.7485 8.4894 63.0525 8.4894 63.0525 8.4894C63.0525 8.4894 60.3566 8.4894 59.6846 8.28094C59.3134 8.16607 59.0218 7.8288 58.9224 7.39961C58.7422 6.62247 58.7422 5.00007 58.7422 5.00007C58.7422 5.00007 58.7422 3.37768 58.9224 2.60054C59.0218 2.17135 59.3134 1.83407 59.6846 1.71918C60.3566 1.51074 63.0525 1.51074 63.0525 1.51074C63.0525 1.51074 65.7485 1.51074 66.4205 1.71918ZM64.4948 5.0002L62.1485 6.35471V3.64566L64.4948 5.0002Z" fill="#FF0000"/>
<path fill-rule="evenodd" clip-rule="evenodd" d="M66.4205 1.71918C66.7916 1.83407 67.0833 2.17135 67.1826 2.60054C67.3622 3.37768 67.3629 5.00007 67.3629 5.00007C67.3629 5.00007 67.3629 6.62247 67.1826 7.39961C67.0833 7.8288 66.7916 8.16607 66.4205 8.28094C65.7485 8.4894 63.0525 8.4894 63.0525 8.4894C63.0525 8.4894 60.3566 8.4894 59.6846 8.28094C59.3134 8.16607 59.0218 7.8288 58.9224 7.39961C58.7422 6.62247 58.7422 5.00007 58.7422 5.00007C58.7422 5.00007 58.7422 3.37768 58.9224 2.60054C59.0218 2.17135 59.3134 1.83407 59.6846 1.71918C60.3566 1.51074 63.0525 1.51074 63.0525 1.51074C63.0525 1.51074 65.7485 1.51074 66.4205 1.71918ZM64.4948 5.0002L62.1485 6.35471V3.64566L64.4948 5.0002Z" fill="black" fill-opacity="0.2"/>
</g>
<path d="M76.8677 1.61792H78.0816L75.4295 4.6491L78.5495 8.77386H76.1066L74.1932 6.27221L72.0038 8.77386H70.7891L73.6258 5.53167L70.6328 1.61792H73.1378L74.8673 3.90452L76.8677 1.61792ZM76.4416 8.04725H77.1143L72.7723 2.30636H72.0504L76.4416 8.04725Z" fill="white"/>
<defs>
<clipPath id="clip0_14659_3057">
<rect width="10" height="10" fill="white" transform="translate(23.5781)"/>
</clipPath>
<clipPath id="clip1_14659_3057">
<rect width="10" height="10" fill="white" transform="translate(46.5117)"/>
</clipPath>
<clipPath id="clip2_14659_3057">
<rect width="10" height="10" fill="white" transform="translate(58.0508)"/>
</clipPath>
</defs>
</svg>
