<svg width="164" height="304" viewBox="0 0 164 304" fill="none" xmlns="http://www.w3.org/2000/svg">
<mask id="mask0_9322_31163" style="mask-type:alpha" maskUnits="userSpaceOnUse" x="0" y="0" width="164" height="304">
<path d="M0 0H74.0133C74.0133 0 74.0133 8.0029 81.991 8.0029C89.9687 8.0029 89.9687 0.00391006 89.9687 0.00391006L164 0V304H90.0122C90.0122 304 90.0122 295.968 82.0108 295.968C74.0094 295.968 74.0094 304 74.0094 304H0V0Z" fill="#D9D9D9"/>
</mask>
<g mask="url(#mask0_9322_31163)">
<path d="M164 0H0V304H164V0Z" fill="#1F1F1F" fill-opacity="0.88"/>
<mask id="mask1_9322_31163" style="mask-type:luminance" maskUnits="userSpaceOnUse" x="0" y="0" width="164" height="304">
<path d="M164 0H0V304H164V0Z" fill="white"/>
</mask>
<g mask="url(#mask1_9322_31163)">
<g style="mix-blend-mode:lighten">
<path d="M165.007 -0.492188L-1.00586 -0.492078L-1.00581 130.904L165.007 -0.492188Z" fill="url(#paint0_linear_9322_31163)" fill-opacity="0.5"/>
</g>
</g>
</g>
<defs>
<linearGradient id="paint0_linear_9322_31163" x1="-1.00586" y1="-0.492188" x2="94.999" y2="94.0123" gradientUnits="userSpaceOnUse">
<stop stop-color="#808080" stop-opacity="0.6"/>
<stop offset="1" stop-color="#D9D9D9" stop-opacity="0.1"/>
</linearGradient>
</defs>
</svg>
