<svg width="203" height="312" viewBox="0 0 203 312" fill="none" xmlns="http://www.w3.org/2000/svg">
<g filter="url(#filter0_d_14605_18226)">
<mask id="mask0_14605_18226" style="mask-type:alpha" maskUnits="userSpaceOnUse" x="0" y="0" width="203" height="312">
<path d="M0.757812 0H91.9205C91.9205 0 91.9205 8.20174 101.747 8.20174C111.573 8.20174 111.573 0.00400329 111.573 0.00400329L202.758 0V311.552H111.627C111.627 311.552 111.627 303.32 101.771 303.32C91.9157 303.32 91.9157 311.552 91.9157 311.552H0.757812V0Z" fill="#D9D9D9"/>
</mask>
<g mask="url(#mask0_14605_18226)">
<rect width="208" height="312" transform="translate(0.757812)" fill="#1F1F1F" fill-opacity="0.88"/>
<g clip-path="url(#clip0_14605_18226)">
<rect x="-20.1602" y="-14.2578" width="228.582" height="364.404" fill="#FF4C00"/>
<g style="mix-blend-mode:lighten">
<path d="M204.328 -0.503906L-0.273438 -0.503768L-0.273377 161.434L204.328 -0.503906Z" fill="url(#paint0_linear_14605_18226)" fill-opacity="0.5"/>
</g>
</g>
</g>
</g>
<defs>
<filter id="filter0_d_14605_18226" x="-7.44093" y="-4.09937" width="218.397" height="328.397" filterUnits="userSpaceOnUse" color-interpolation-filters="sRGB">
<feFlood flood-opacity="0" result="BackgroundImageFix"/>
<feColorMatrix in="SourceAlpha" type="matrix" values="0 0 0 0 0 0 0 0 0 0 0 0 0 0 0 0 0 0 127 0" result="hardAlpha"/>
<feOffset dy="4.09937"/>
<feGaussianBlur stdDeviation="4.09937"/>
<feComposite in2="hardAlpha" operator="out"/>
<feColorMatrix type="matrix" values="0 0 0 0 0 0 0 0 0 0 0 0 0 0 0 0 0 0 0.2 0"/>
<feBlend mode="normal" in2="BackgroundImageFix" result="effect1_dropShadow_14605_18226"/>
<feBlend mode="normal" in="SourceGraphic" in2="effect1_dropShadow_14605_18226" result="shape"/>
</filter>
<linearGradient id="paint0_linear_14605_18226" x1="-0.273438" y1="-0.503906" x2="118.047" y2="115.968" gradientUnits="userSpaceOnUse">
<stop stop-color="#808080" stop-opacity="0.6"/>
<stop offset="1" stop-color="#D9D9D9" stop-opacity="0.1"/>
</linearGradient>
<clipPath id="clip0_14605_18226">
<rect width="216" height="312" fill="white" transform="translate(0.757812)"/>
</clipPath>
</defs>
</svg>
