<svg width="180" height="320" viewBox="0 0 180 320" fill="none" xmlns="http://www.w3.org/2000/svg">
<g filter="url(#filter0_d_9119_52506)">
<mask id="mask0_9119_52506" style="mask-type:alpha" maskUnits="userSpaceOnUse" x="8" y="4" width="164" height="304">
<path d="M8 4H82.0133C82.0133 4 82.0133 12.0029 89.991 12.0029C97.9687 12.0029 97.9687 4.00391 97.9687 4.00391L172 4V308H98.0122C98.0122 308 98.0122 299.968 90.0108 299.968C82.0094 299.968 82.0094 308 82.0094 308H8V4Z" fill="#D9D9D9"/>
</mask>
<g mask="url(#mask0_9119_52506)">
<rect width="164" height="304" transform="translate(8 4)" fill="#1F1F1F" fill-opacity="0.88"/>
<g clip-path="url(#clip0_9119_52506)">
<g style="mix-blend-mode:lighten">
<path d="M173.007 3.50781L6.99414 3.50792L6.99419 134.904L173.007 3.50781Z" fill="url(#paint0_linear_9119_52506)" fill-opacity="0.5"/>
</g>
</g>
</g>
</g>
<defs>
<filter id="filter0_d_9119_52506" x="0" y="0" width="180" height="320" filterUnits="userSpaceOnUse" color-interpolation-filters="sRGB">
<feFlood flood-opacity="0" result="BackgroundImageFix"/>
<feColorMatrix in="SourceAlpha" type="matrix" values="0 0 0 0 0 0 0 0 0 0 0 0 0 0 0 0 0 0 127 0" result="hardAlpha"/>
<feOffset dy="4"/>
<feGaussianBlur stdDeviation="4"/>
<feComposite in2="hardAlpha" operator="out"/>
<feColorMatrix type="matrix" values="0 0 0 0 0 0 0 0 0 0 0 0 0 0 0 0 0 0 0.2 0"/>
<feBlend mode="normal" in2="BackgroundImageFix" result="effect1_dropShadow_9119_52506"/>
<feBlend mode="normal" in="SourceGraphic" in2="effect1_dropShadow_9119_52506" result="shape"/>
</filter>
<linearGradient id="paint0_linear_9119_52506" x1="6.99414" y1="3.50781" x2="102.999" y2="98.0123" gradientUnits="userSpaceOnUse">
<stop stop-color="#808080" stop-opacity="0.6"/>
<stop offset="1" stop-color="#D9D9D9" stop-opacity="0.1"/>
</linearGradient>
<clipPath id="clip0_9119_52506">
<rect width="164" height="304" fill="white" transform="translate(8 4)"/>
</clipPath>
</defs>
</svg>
