<svg width="78" height="20" viewBox="0 0 78 20" fill="none" xmlns="http://www.w3.org/2000/svg">
<path d="M4.8131 17.0279V4.8232C4.8131 4.52265 5.05672 4.27903 5.35727 4.27903C5.65781 4.27903 5.90143 4.52265 5.90143 4.8232V19.1719H10.6641L9.81998 9.92438L8.97587 0.676889L1.63455 0.671875L0 19.1719H4.8131V17.0279Z" fill="#FF4C00"/>
<path d="M19.1041 19.1719V0.771874H24.3841L26.1041 12.1719H26.3641L26.2441 9.49187V0.771874H30.1241V19.1719H24.8241L23.1041 7.77187H22.8641L22.9841 10.4519V19.1719H19.1041ZM37.6504 4.29187H35.2304V8.17187H37.5904V11.6519H35.2304V15.6519H37.6504V19.1719H31.0104V0.771874H37.6504V4.29187ZM46.4801 9.81187C47.5401 10.3919 47.9601 11.2519 47.9601 12.4919V14.9919C47.9601 18.0519 47.3001 19.1719 44.1401 19.1719H38.4401V0.771874H44.1001C47.1401 0.771874 47.8001 1.89187 47.8001 4.95187V7.17188C47.8001 8.27187 47.5201 9.05187 46.4801 9.57187V9.81187ZM43.0401 4.29187H42.6601V8.45187H43.0601C43.5801 8.45187 43.7001 8.27187 43.7001 7.79187V5.01187C43.7001 4.49187 43.5601 4.29187 43.0401 4.29187ZM43.7401 14.9119V11.8919C43.7401 11.4119 43.6401 11.2119 43.1201 11.2119H42.6601V15.6119H43.1001C43.6001 15.6119 43.7401 15.4319 43.7401 14.9119ZM53.5863 19.3919C50.7063 19.3919 48.8463 18.3319 48.8463 15.2119V0.771874H53.0663V15.1919C53.0663 15.7119 53.2863 15.8719 53.5863 15.8719C53.8663 15.8719 54.1063 15.7119 54.1063 15.1919V0.771874H58.3263V15.2119C58.3263 18.3319 56.4463 19.3919 53.5863 19.3919ZM63.4257 15.6519H65.9457V19.1719H59.2057V0.771874H63.4257V15.6519ZM73.0388 19.1719L72.8388 16.3119H70.7788L70.5788 19.1719H66.4988L68.1788 0.771874H75.4388L77.0988 19.1719H73.0388ZM71.0388 12.7719H72.5788L71.9788 4.59187H71.6388L71.0388 12.7719Z" fill="white"/>
</svg>
