<svg width="61" height="11" viewBox="0 0 61 11" fill="none" xmlns="http://www.w3.org/2000/svg">
<path d="M2.60168 9.34111V2.74396C2.60168 2.5815 2.73336 2.44981 2.89582 2.44981C3.05827 2.44981 3.18996 2.5815 3.18996 2.74396V10.5H5.76438L5.3081 5.50135L4.85182 0.50271L0.883541 0.5L0 10.5H2.60168V9.34111Z" fill="#FF4C00"/>
<path d="M8.78616 10.5V0.699999H11.6982L14.3582 9.492H14.5822V0.699999H16.0802V10.5H13.1682L10.5082 1.694H10.2842V10.5H8.78616ZM18.2641 10.5V0.699999H24.4381V2.072H19.7761V4.886H24.0461V6.258H19.7761V9.128H24.5081V10.5H18.2641ZM25.8604 10.5V9.156H27.1764V2.044H25.8604V0.699999H30.8304C31.4184 0.699999 31.9317 0.802666 32.3704 1.008C32.809 1.204 33.1497 1.48867 33.3924 1.862C33.6444 2.226 33.7704 2.66 33.7704 3.164V3.304C33.7704 3.752 33.6864 4.12067 33.5184 4.41C33.3504 4.69933 33.145 4.92333 32.9024 5.082C32.669 5.24067 32.445 5.35267 32.2304 5.418V5.642C32.445 5.698 32.6737 5.81 32.9164 5.978C33.1684 6.13667 33.3784 6.36067 33.5464 6.65C33.7237 6.93933 33.8124 7.31733 33.8124 7.784V7.924C33.8124 8.46533 33.6864 8.92733 33.4344 9.31C33.1824 9.69267 32.8324 9.98667 32.3844 10.192C31.9457 10.3973 31.437 10.5 30.8584 10.5H25.8604ZM28.7024 9.128H30.6764C31.1804 9.128 31.577 9.00667 31.8664 8.764C32.1557 8.52133 32.3004 8.18533 32.3004 7.756V7.63C32.3004 7.20067 32.1557 6.86467 31.8664 6.622C31.5864 6.37933 31.1897 6.258 30.6764 6.258H28.7024V9.128ZM28.7024 4.872H30.6764C31.1524 4.872 31.535 4.75533 31.8244 4.522C32.1137 4.27933 32.2584 3.95267 32.2584 3.542V3.402C32.2584 2.99133 32.1137 2.66933 31.8244 2.436C31.5444 2.19333 31.1617 2.072 30.6764 2.072H28.7024V4.872ZM39.3156 10.696C38.5409 10.696 37.8736 10.556 37.3136 10.276C36.7629 9.996 36.3336 9.59467 36.0256 9.072C35.7269 8.54 35.5776 7.896 35.5776 7.14V0.699999H37.1036V7.182C37.1036 7.87267 37.2949 8.40467 37.6776 8.778C38.0602 9.15133 38.6062 9.338 39.3156 9.338C40.0249 9.338 40.5709 9.15133 40.9536 8.778C41.3362 8.40467 41.5276 7.87267 41.5276 7.182V0.699999H43.0396V7.14C43.0396 7.896 42.8902 8.54 42.5916 9.072C42.2929 9.59467 41.8636 9.996 41.3036 10.276C40.7436 10.556 40.0809 10.696 39.3156 10.696ZM45.1528 10.5V0.699999H46.6648V9.128H51.3828V10.5H45.1528ZM52.18 10.5L54.98 0.699999H57.64L60.426 10.5H58.872L58.228 8.19H54.392L53.748 10.5H52.18ZM54.77 6.79H57.85L56.422 1.638H56.198L54.77 6.79Z" fill="white"/>
</svg>
