<svg width="213" height="11" viewBox="0 0 213 11" fill="none" xmlns="http://www.w3.org/2000/svg">
<path d="M2.60168 9.34111V2.74396C2.60168 2.5815 2.73336 2.44981 2.89582 2.44981C3.05827 2.44981 3.18996 2.5815 3.18996 2.74396V10.5H5.76438L5.3081 5.50135L4.85182 0.50271L0.883541 0.5L0 10.5H2.60168V9.34111Z" fill="#FF4C00"/>
<path d="M8.78616 10.5V0.699999H11.6982L14.3582 9.492H14.5822V0.699999H16.0802V10.5H13.1682L10.5082 1.694H10.2842V10.5H8.78616ZM18.2641 10.5V0.699999H24.4381V2.072H19.7761V4.886H24.0461V6.258H19.7761V9.128H24.5081V10.5H18.2641ZM25.8604 10.5V9.156H27.1764V2.044H25.8604V0.699999H30.8304C31.4184 0.699999 31.9317 0.802666 32.3704 1.008C32.809 1.204 33.1497 1.48867 33.3924 1.862C33.6444 2.226 33.7704 2.66 33.7704 3.164V3.304C33.7704 3.752 33.6864 4.12067 33.5184 4.41C33.3504 4.69933 33.145 4.92333 32.9024 5.082C32.669 5.24067 32.445 5.35267 32.2304 5.418V5.642C32.445 5.698 32.6737 5.81 32.9164 5.978C33.1684 6.13667 33.3784 6.36067 33.5464 6.65C33.7237 6.93933 33.8124 7.31733 33.8124 7.784V7.924C33.8124 8.46533 33.6864 8.92733 33.4344 9.31C33.1824 9.69267 32.8324 9.98667 32.3844 10.192C31.9457 10.3973 31.437 10.5 30.8584 10.5H25.8604ZM28.7024 9.128H30.6764C31.1804 9.128 31.577 9.00667 31.8664 8.764C32.1557 8.52133 32.3004 8.18533 32.3004 7.756V7.63C32.3004 7.20067 32.1557 6.86467 31.8664 6.622C31.5864 6.37933 31.1897 6.258 30.6764 6.258H28.7024V9.128ZM28.7024 4.872H30.6764C31.1524 4.872 31.535 4.75533 31.8244 4.522C32.1137 4.27933 32.2584 3.95267 32.2584 3.542V3.402C32.2584 2.99133 32.1137 2.66933 31.8244 2.436C31.5444 2.19333 31.1617 2.072 30.6764 2.072H28.7024V4.872ZM39.3156 10.696C38.5409 10.696 37.8736 10.556 37.3136 10.276C36.7629 9.996 36.3336 9.59467 36.0256 9.072C35.7269 8.54 35.5776 7.896 35.5776 7.14V0.699999H37.1036V7.182C37.1036 7.87267 37.2949 8.40467 37.6776 8.778C38.0602 9.15133 38.6062 9.338 39.3156 9.338C40.0249 9.338 40.5709 9.15133 40.9536 8.778C41.3362 8.40467 41.5276 7.87267 41.5276 7.182V0.699999H43.0396V7.14C43.0396 7.896 42.8902 8.54 42.5916 9.072C42.2929 9.59467 41.8636 9.996 41.3036 10.276C40.7436 10.556 40.0809 10.696 39.3156 10.696ZM45.1528 10.5V0.699999H46.6648V9.128H51.3828V10.5H45.1528ZM52.18 10.5L54.98 0.699999H57.64L60.426 10.5H58.872L58.228 8.19H54.392L53.748 10.5H52.18ZM54.77 6.79H57.85L56.422 1.638H56.198L54.77 6.79Z" fill="white"/>
<path d="M65.7862 10.5V0.699999H67.2982V10.5H65.7862ZM72.8128 10.696C72.0755 10.696 71.4222 10.5653 70.8528 10.304C70.2835 10.0427 69.8355 9.66 69.5088 9.156C69.1915 8.64267 69.0328 8.022 69.0328 7.294V6.944H70.5308V7.294C70.5308 7.98467 70.7362 8.50267 71.1468 8.848C71.5668 9.19333 72.1222 9.366 72.8128 9.366C73.5128 9.366 74.0402 9.22133 74.3948 8.932C74.7495 8.63333 74.9268 8.25067 74.9268 7.784C74.9268 7.476 74.8428 7.224 74.6748 7.028C74.5068 6.832 74.2688 6.678 73.9608 6.566C73.6528 6.44467 73.2842 6.33267 72.8548 6.23L72.3368 6.104C71.7115 5.95467 71.1655 5.77267 70.6988 5.558C70.2415 5.334 69.8868 5.04 69.6348 4.676C69.3828 4.312 69.2568 3.84533 69.2568 3.276C69.2568 2.69733 69.3968 2.20267 69.6768 1.792C69.9662 1.38133 70.3628 1.064 70.8668 0.839999C71.3708 0.615999 71.9635 0.503999 72.6448 0.503999C73.3262 0.503999 73.9328 0.620666 74.4648 0.854C75.0062 1.08733 75.4308 1.43267 75.7388 1.89C76.0468 2.34733 76.2008 2.92133 76.2008 3.612V4.116H74.7028V3.612C74.7028 3.192 74.6142 2.85133 74.4368 2.59C74.2688 2.32867 74.0308 2.13733 73.7228 2.016C73.4148 1.89467 73.0555 1.834 72.6448 1.834C72.0475 1.834 71.5808 1.96 71.2448 2.212C70.9182 2.45467 70.7548 2.79533 70.7548 3.234C70.7548 3.53267 70.8248 3.78 70.9648 3.976C71.1142 4.16267 71.3288 4.31667 71.6088 4.438C71.8888 4.55933 72.2388 4.66667 72.6588 4.76L73.1768 4.886C73.8115 5.026 74.3715 5.208 74.8568 5.432C75.3422 5.64667 75.7248 5.94067 76.0048 6.314C76.2848 6.68733 76.4248 7.168 76.4248 7.756C76.4248 8.344 76.2755 8.85733 75.9768 9.296C75.6875 9.73467 75.2722 10.08 74.7308 10.332C74.1895 10.5747 73.5502 10.696 72.8128 10.696ZM85.5005 10.696C84.3058 10.696 83.3585 10.36 82.6585 9.688C81.9585 9.00667 81.6085 8.02667 81.6085 6.748V4.452C81.6085 3.17333 81.9585 2.198 82.6585 1.526C83.3585 0.844666 84.3058 0.503999 85.5005 0.503999C86.6765 0.503999 87.5818 0.830666 88.2165 1.484C88.8605 2.13733 89.1825 3.02867 89.1825 4.158V4.242H87.6845V4.116C87.6845 3.45333 87.5025 2.912 87.1385 2.492C86.7838 2.072 86.2378 1.862 85.5005 1.862C84.7538 1.862 84.1705 2.09067 83.7505 2.548C83.3305 2.996 83.1205 3.62133 83.1205 4.424V6.776C83.1205 7.56933 83.3305 8.19467 83.7505 8.652C84.1705 9.10933 84.7538 9.338 85.5005 9.338C86.2378 9.338 86.7838 9.128 87.1385 8.708C87.5025 8.27867 87.6845 7.73733 87.6845 7.084V6.846H89.1825V7.042C89.1825 8.17133 88.8605 9.06267 88.2165 9.716C87.5818 10.3693 86.6765 10.696 85.5005 10.696ZM94.6646 10.696C93.8899 10.696 93.2226 10.556 92.6626 10.276C92.1119 9.996 91.6826 9.59467 91.3746 9.072C91.0759 8.54 90.9266 7.896 90.9266 7.14V0.699999H92.4526V7.182C92.4526 7.87267 92.6439 8.40467 93.0266 8.778C93.4092 9.15133 93.9552 9.338 94.6646 9.338C95.3739 9.338 95.9199 9.15133 96.3026 8.778C96.6852 8.40467 96.8766 7.87267 96.8766 7.182V0.699999H98.3886V7.14C98.3886 7.896 98.2392 8.54 97.9406 9.072C97.6419 9.59467 97.2126 9.996 96.6526 10.276C96.0926 10.556 95.4299 10.696 94.6646 10.696ZM100.502 10.5V0.699999H104.618C105.224 0.699999 105.756 0.807333 106.214 1.022C106.68 1.22733 107.04 1.526 107.292 1.918C107.553 2.31 107.684 2.77667 107.684 3.318V3.472C107.684 4.088 107.534 4.58267 107.236 4.956C106.946 5.32 106.592 5.57667 106.172 5.726V5.95C106.526 5.96867 106.811 6.09 107.026 6.314C107.24 6.52867 107.348 6.84133 107.348 7.252V10.5H105.822V7.462C105.822 7.21 105.756 7.00933 105.626 6.86C105.495 6.71067 105.285 6.636 104.996 6.636H102.014V10.5H100.502ZM102.014 5.264H104.45C104.991 5.264 105.411 5.12867 105.71 4.858C106.008 4.578 106.158 4.2 106.158 3.724V3.612C106.158 3.136 106.008 2.76267 105.71 2.492C105.42 2.212 105 2.072 104.45 2.072H102.014V5.264ZM109.487 10.5V0.699999H113.603C114.21 0.699999 114.742 0.807333 115.199 1.022C115.666 1.22733 116.025 1.526 116.277 1.918C116.539 2.31 116.669 2.77667 116.669 3.318V3.472C116.669 4.088 116.52 4.58267 116.221 4.956C115.932 5.32 115.577 5.57667 115.157 5.726V5.95C115.512 5.96867 115.797 6.09 116.011 6.314C116.226 6.52867 116.333 6.84133 116.333 7.252V10.5H114.807V7.462C114.807 7.21 114.742 7.00933 114.611 6.86C114.481 6.71067 114.271 6.636 113.981 6.636H110.999V10.5H109.487ZM110.999 5.264H113.435C113.977 5.264 114.397 5.12867 114.695 4.858C114.994 4.578 115.143 4.2 115.143 3.724V3.612C115.143 3.136 114.994 2.76267 114.695 2.492C114.406 2.212 113.986 2.072 113.435 2.072H110.999V5.264ZM118.473 10.5V0.699999H124.647V2.072H119.985V4.886H124.255V6.258H119.985V9.128H124.717V10.5H118.473ZM126.434 10.5V0.699999H129.346L132.006 9.492H132.23V0.699999H133.728V10.5H130.816L128.156 1.694H127.932V10.5H126.434ZM138.249 10.5V2.072H135.239V0.699999H142.771V2.072H139.761V10.5H138.249ZM144.282 10.5V0.699999H145.794V9.128H150.512V10.5H144.282ZM152.917 10.5V6.944L149.515 0.699999H151.223L153.575 5.138H153.785L156.137 0.699999H157.845L154.443 6.944V10.5H152.917ZM162.721 10.5V0.699999H164.233V10.5H162.721ZM166.416 10.5V0.699999H169.328L171.988 9.492H172.212V0.699999H173.71V10.5H170.798L168.138 1.694H167.914V10.5H166.416ZM179.238 10.5V9.156H180.554V2.044H179.238V0.699999H184.208C184.796 0.699999 185.31 0.802666 185.748 1.008C186.187 1.204 186.528 1.48867 186.77 1.862C187.022 2.226 187.148 2.66 187.148 3.164V3.304C187.148 3.752 187.064 4.12067 186.896 4.41C186.728 4.69933 186.523 4.92333 186.28 5.082C186.047 5.24067 185.823 5.35267 185.608 5.418V5.642C185.823 5.698 186.052 5.81 186.294 5.978C186.546 6.13667 186.756 6.36067 186.924 6.65C187.102 6.93933 187.19 7.31733 187.19 7.784V7.924C187.19 8.46533 187.064 8.92733 186.812 9.31C186.56 9.69267 186.21 9.98667 185.762 10.192C185.324 10.3973 184.815 10.5 184.236 10.5H179.238ZM182.08 9.128H184.054C184.558 9.128 184.955 9.00667 185.244 8.764C185.534 8.52133 185.678 8.18533 185.678 7.756V7.63C185.678 7.20067 185.534 6.86467 185.244 6.622C184.964 6.37933 184.568 6.258 184.054 6.258H182.08V9.128ZM182.08 4.872H184.054C184.53 4.872 184.913 4.75533 185.202 4.522C185.492 4.27933 185.636 3.95267 185.636 3.542V3.402C185.636 2.99133 185.492 2.66933 185.202 2.436C184.922 2.19333 184.54 2.072 184.054 2.072H182.08V4.872ZM189.026 10.5V0.699999H195.2V2.072H190.538V4.886H194.808V6.258H190.538V9.128H195.27V10.5H189.026ZM199.324 10.5V2.072H196.314V0.699999H203.846V2.072H200.836V10.5H199.324ZM203.658 10.5L206.458 0.699999H209.118L211.904 10.5H210.35L209.706 8.19H205.87L205.226 10.5H203.658ZM206.248 6.79H209.328L207.9 1.638H207.676L206.248 6.79Z" fill="white"/>
</svg>
