<svg width="25" height="24" viewBox="0 0 25 24" fill="none" xmlns="http://www.w3.org/2000/svg">
<path d="M16.2242 3.99414H6.4707C5.36613 3.99414 4.4707 4.88957 4.4707 5.99414V18.0061C4.4707 19.1107 5.36613 20.0061 6.4707 20.0061H18.4827C19.5872 20.0061 20.4827 19.1107 20.4827 18.0061V9.30852" stroke="white" stroke-width="1.5" stroke-linecap="round"/>
<path d="M20.4831 5.79241C20.0891 5.79241 19.7695 5.47286 19.7695 5.07882C19.7695 4.68478 20.0891 4.36523 20.4831 4.36523C20.8772 4.36523 21.1967 4.68478 21.1967 5.07882C21.1967 5.47286 20.8772 5.79241 20.4831 5.79241Z" fill="white" stroke="white" stroke-width="1.5" stroke-linecap="round" stroke-linejoin="round"/>
<path d="M7.95996 12.8276H16.4214" stroke="white" stroke-width="1.5" stroke-linecap="round"/>
<path d="M7.95996 16.3232H12.46" stroke="white" stroke-width="1.5" stroke-linecap="round"/>
<path d="M7.95996 9.33203H12.46" stroke="white" stroke-width="1.5" stroke-linecap="round"/>
</svg>
