<svg width="24" height="25" viewBox="0 0 24 25" fill="none" xmlns="http://www.w3.org/2000/svg">
<g clip-path="url(#clip0_1633_21794)">
<path d="M17.9424 8.67344C17.9424 6.97605 17.3103 5.34819 16.185 4.14796C15.0598 2.94772 13.5337 2.27344 11.9424 2.27344C10.3511 2.27344 8.82496 2.94772 7.69974 4.14796C6.57452 5.34819 5.94238 6.97605 5.94238 8.67344C5.94238 16.1401 2.94238 18.2734 2.94238 18.2734H20.9424C20.9424 18.2734 17.9424 16.1401 17.9424 8.67344Z" stroke="white" stroke-width="1.5" stroke-linecap="round" stroke-linejoin="round"/>
<path d="M13.6719 21.2734C13.4961 21.5765 13.2438 21.8281 12.9401 22.0029C12.6365 22.1778 12.2923 22.2699 11.9419 22.2699C11.5915 22.2699 11.2473 22.1778 10.9437 22.0029C10.6401 21.8281 10.3877 21.5765 10.2119 21.2734" stroke="white" stroke-width="1.5" stroke-linecap="round" stroke-linejoin="round"/>
</g>
<defs>
<clipPath id="clip0_1633_21794">
<rect width="24" height="24" fill="white" transform="translate(0 0.273438)"/>
</clipPath>
</defs>
</svg>
