<svg width="345" height="120" viewBox="0 0 345 120" fill="none" xmlns="http://www.w3.org/2000/svg">
<path d="M17.022 18.5V8.7H21.138C21.7447 8.7 22.2767 8.80733 22.734 9.022C23.2007 9.22733 23.56 9.526 23.812 9.918C24.0733 10.31 24.204 10.7767 24.204 11.318V11.472C24.204 12.088 24.0547 12.5827 23.756 12.956C23.4667 13.32 23.112 13.5767 22.692 13.726V13.95C23.0467 13.9687 23.3313 14.09 23.546 14.314C23.7607 14.5287 23.868 14.8413 23.868 15.252V18.5H22.342V15.462C22.342 15.21 22.2767 15.0093 22.146 14.86C22.0153 14.7107 21.8053 14.636 21.516 14.636H18.534V18.5H17.022ZM18.534 13.264H20.97C21.5113 13.264 21.9313 13.1287 22.23 12.858C22.5287 12.578 22.678 12.2 22.678 11.724V11.612C22.678 11.136 22.5287 10.7627 22.23 10.492C21.9407 10.212 21.5207 10.072 20.97 10.072H18.534V13.264ZM26.0077 18.5V8.7H32.1817V10.072H27.5197V12.886H31.7897V14.258H27.5197V17.128H32.2517V18.5H26.0077ZM37.608 18.696C36.4133 18.696 35.466 18.36 34.766 17.688C34.066 17.0067 33.716 16.0267 33.716 14.748V12.452C33.716 11.1733 34.066 10.198 34.766 9.526C35.466 8.84467 36.4133 8.504 37.608 8.504C38.784 8.504 39.6893 8.83067 40.324 9.484C40.968 10.1373 41.29 11.0287 41.29 12.158V12.242H39.792V12.116C39.792 11.4533 39.61 10.912 39.246 10.492C38.8914 10.072 38.3453 9.862 37.608 9.862C36.8613 9.862 36.278 10.0907 35.858 10.548C35.438 10.996 35.228 11.6213 35.228 12.424V14.776C35.228 15.5693 35.438 16.1947 35.858 16.652C36.278 17.1093 36.8613 17.338 37.608 17.338C38.3453 17.338 38.8914 17.128 39.246 16.708C39.61 16.2787 39.792 15.7373 39.792 15.084V14.846H41.29V15.042C41.29 16.1713 40.968 17.0627 40.324 17.716C39.6893 18.3693 38.784 18.696 37.608 18.696ZM43.1041 18.5V8.7H49.2781V10.072H44.6161V12.886H48.8861V14.258H44.6161V17.128H49.3481V18.5H43.1041ZM51.0644 18.5V8.7H53.9764L56.6364 17.492H56.8604V8.7H58.3584V18.5H55.4464L52.7864 9.694H52.5624V18.5H51.0644ZM62.8803 18.5V10.072H59.8703V8.7H67.4023V10.072H64.3923V18.5H62.8803ZM72.2247 18.5V8.7H75.0667L77.2087 17.492H77.4327L79.5747 8.7H82.4167V18.5H80.9467V9.764H80.7227L78.5947 18.5H76.0467L73.9187 9.764H73.6947V18.5H72.2247ZM88.283 18.696C87.079 18.696 86.1223 18.36 85.413 17.688C84.7037 17.0067 84.349 16.0267 84.349 14.748V12.452C84.349 11.1733 84.7037 10.198 85.413 9.526C86.1223 8.84467 87.079 8.504 88.283 8.504C89.487 8.504 90.4437 8.84467 91.153 9.526C91.8717 10.198 92.231 11.1733 92.231 12.452V14.748C92.231 16.0267 91.8717 17.0067 91.153 17.688C90.4437 18.36 89.487 18.696 88.283 18.696ZM88.283 17.338C89.0577 17.338 89.655 17.114 90.075 16.666C90.495 16.2087 90.705 15.588 90.705 14.804V12.396C90.705 11.612 90.495 10.996 90.075 10.548C89.655 10.0907 89.0577 9.862 88.283 9.862C87.527 9.862 86.9343 10.0907 86.505 10.548C86.0757 10.996 85.861 11.612 85.861 12.396V14.804C85.861 15.588 86.0757 16.2087 86.505 16.666C86.9343 17.114 87.527 17.338 88.283 17.338ZM94.1609 18.5V8.7H97.0029L99.1449 17.492H99.3689L101.511 8.7H104.353V18.5H102.883V9.764H102.659L100.531 18.5H97.9829L95.8549 9.764H95.6309V18.5H94.1609ZM106.537 18.5V8.7H112.711V10.072H108.049V12.886H112.319V14.258H108.049V17.128H112.781V18.5H106.537ZM114.498 18.5V8.7H117.41L120.07 17.492H120.294V8.7H121.792V18.5H118.88L116.22 9.694H115.996V18.5H114.498ZM126.313 18.5V10.072H123.303V8.7H130.835V10.072H127.825V18.5H126.313ZM136.014 18.696C135.239 18.696 134.572 18.556 134.012 18.276C133.461 17.996 133.032 17.5947 132.724 17.072C132.425 16.54 132.276 15.896 132.276 15.14V8.7H133.802V15.182C133.802 15.8727 133.993 16.4047 134.376 16.778C134.759 17.1513 135.305 17.338 136.014 17.338C136.723 17.338 137.269 17.1513 137.652 16.778C138.035 16.4047 138.226 15.8727 138.226 15.182V8.7H139.738V15.14C139.738 15.896 139.589 16.54 139.29 17.072C138.991 17.5947 138.562 17.996 138.002 18.276C137.442 18.556 136.779 18.696 136.014 18.696ZM141.851 18.5V8.7H144.693L146.835 17.492H147.059L149.201 8.7H152.043V18.5H150.573V9.764H150.349L148.221 18.5H145.673L143.545 9.764H143.321V18.5H141.851Z" fill="#C9C9C9"/>
<path d="M33.3423 114.443C33.5298 102.522 40.2062 74.4533 65.4115 57.5469" stroke="#315599" stroke-width="4" stroke-linecap="round"/>
<path d="M72.3787 52.0637C83.0051 46.4366 110.94 38.4961 137.67 51.75" stroke="#4D9A71" stroke-width="4" stroke-linecap="round"/>
<path d="M147.143 56.7193C157.114 63.4406 177.281 84.3387 178.185 114.16" stroke="#6CE54A" stroke-width="4" stroke-linecap="round"/>
<path d="M168.495 70.729C168.495 74.195 165.685 77.0049 162.219 77.0049C158.753 77.0049 155.943 74.195 155.943 70.729C155.943 67.2629 158.753 64.4531 162.219 64.4531C165.685 64.4531 168.495 67.2629 168.495 70.729Z" fill="black" stroke="#6CE54A" stroke-width="4"/>
<path d="M81.9798 103.384C81.2798 103.384 80.6545 103.234 80.1038 102.935C79.5531 102.627 79.1191 102.179 78.8018 101.591C78.4845 101.003 78.3258 100.285 78.3258 99.4355V97.1395C78.3258 95.8608 78.6758 94.8855 79.3758 94.2135C80.0758 93.5322 81.0231 93.1915 82.2178 93.1915C83.3938 93.1915 84.2991 93.5135 84.9338 94.1575C85.5685 94.7922 85.8858 95.6462 85.8858 96.7195V96.7895H84.3878V96.6775C84.3878 96.2762 84.3085 95.9168 84.1498 95.5995C83.9911 95.2728 83.7531 95.0162 83.4358 94.8295C83.1185 94.6428 82.7125 94.5495 82.2178 94.5495C81.4711 94.5495 80.8878 94.7782 80.4678 95.2355C80.0478 95.6835 79.8378 96.3088 79.8378 97.1115V99.4635C79.8378 100.257 80.0478 100.887 80.4678 101.353C80.8878 101.811 81.4758 102.039 82.2318 102.039C82.9785 102.039 83.5245 101.834 83.8698 101.423C84.2151 101.013 84.3878 100.481 84.3878 99.8275V99.6455H81.7558V98.3435H85.8858V103.188H84.4858V102.193H84.2618C84.1778 102.371 84.0518 102.553 83.8838 102.739C83.7251 102.926 83.4918 103.08 83.1838 103.202C82.8851 103.323 82.4838 103.384 81.9798 103.384ZM87.8756 103.188V96.2855H89.2896V97.0975H89.5136C89.6256 96.8082 89.803 96.5982 90.0456 96.4675C90.2976 96.3275 90.6056 96.2575 90.9696 96.2575H91.7956V97.5595H90.9136C90.447 97.5595 90.0643 97.6902 89.7656 97.9515C89.467 98.2035 89.3176 98.5955 89.3176 99.1275V103.188H87.8756ZM96.2776 103.384C95.5869 103.384 94.9709 103.244 94.4296 102.963C93.8976 102.674 93.4776 102.263 93.1696 101.731C92.8616 101.199 92.7076 100.569 92.7076 99.8415V99.6315C92.7076 98.9035 92.8616 98.2782 93.1696 97.7555C93.4776 97.2235 93.8976 96.8128 94.4296 96.5235C94.9709 96.2342 95.5869 96.0895 96.2776 96.0895C96.9683 96.0895 97.5843 96.2342 98.1256 96.5235C98.6669 96.8128 99.0916 97.2235 99.3996 97.7555C99.7076 98.2782 99.8616 98.9035 99.8616 99.6315V99.8415C99.8616 100.569 99.7076 101.199 99.3996 101.731C99.0916 102.263 98.6669 102.674 98.1256 102.963C97.5843 103.244 96.9683 103.384 96.2776 103.384ZM96.2776 102.095C96.9123 102.095 97.4256 101.895 97.8176 101.493C98.2189 101.083 98.4196 100.518 98.4196 99.7995V99.6735C98.4196 98.9548 98.2236 98.3948 97.8316 97.9935C97.4396 97.5828 96.9216 97.3775 96.2776 97.3775C95.6523 97.3775 95.1389 97.5828 94.7376 97.9935C94.3456 98.3948 94.1496 98.9548 94.1496 99.6735V99.7995C94.1496 100.518 94.3456 101.083 94.7376 101.493C95.1389 101.895 95.6523 102.095 96.2776 102.095ZM102.331 103.188L101.155 96.2855H102.597L103.465 102.221H103.689L104.893 96.2855H107.231L108.421 102.221H108.645L109.513 96.2855H110.955L109.779 103.188H107.357L106.167 97.2655H105.943L104.753 103.188H102.331ZM112.663 103.188V96.2855H114.105V103.188H112.663ZM113.391 95.3475C113.111 95.3475 112.873 95.2588 112.677 95.0815C112.49 94.8948 112.397 94.6568 112.397 94.3675C112.397 94.0782 112.49 93.8448 112.677 93.6675C112.873 93.4808 113.111 93.3875 113.391 93.3875C113.68 93.3875 113.918 93.4808 114.105 93.6675C114.291 93.8448 114.385 94.0782 114.385 94.3675C114.385 94.6568 114.291 94.8948 114.105 95.0815C113.918 95.2588 113.68 95.3475 113.391 95.3475ZM116.245 103.188V96.2855H117.659V97.3215H117.883C118.013 97.0415 118.247 96.7802 118.583 96.5375C118.919 96.2948 119.418 96.1735 120.081 96.1735C120.603 96.1735 121.065 96.2902 121.467 96.5235C121.877 96.7568 122.199 97.0882 122.433 97.5175C122.666 97.9375 122.783 98.4462 122.783 99.0435V103.188H121.341V99.1555C121.341 98.5582 121.191 98.1195 120.893 97.8395C120.594 97.5502 120.183 97.4055 119.661 97.4055C119.063 97.4055 118.583 97.6015 118.219 97.9935C117.864 98.3855 117.687 98.9548 117.687 99.7015V103.188H116.245ZM124.522 99.7715V99.5615C124.522 98.8335 124.667 98.2128 124.956 97.6995C125.255 97.1862 125.647 96.7895 126.132 96.5095C126.617 96.2295 127.149 96.0895 127.728 96.0895C128.4 96.0895 128.913 96.2155 129.268 96.4675C129.632 96.7195 129.898 96.9902 130.066 97.2795H130.29V96.2855H131.69V104.602C131.69 105.022 131.564 105.358 131.312 105.61C131.069 105.862 130.733 105.988 130.304 105.988H125.656V104.728H129.856C130.127 104.728 130.262 104.588 130.262 104.308V102.109H130.038C129.935 102.277 129.791 102.45 129.604 102.627C129.417 102.805 129.17 102.949 128.862 103.061C128.563 103.173 128.185 103.23 127.728 103.23C127.149 103.23 126.613 103.094 126.118 102.823C125.633 102.543 125.245 102.147 124.956 101.633C124.667 101.111 124.522 100.49 124.522 99.7715ZM128.12 101.969C128.745 101.969 129.259 101.773 129.66 101.381C130.071 100.98 130.276 100.429 130.276 99.7295V99.6035C130.276 98.8848 130.075 98.3342 129.674 97.9515C129.273 97.5595 128.755 97.3635 128.12 97.3635C127.504 97.3635 126.991 97.5595 126.58 97.9515C126.179 98.3342 125.978 98.8848 125.978 99.6035V99.7295C125.978 100.429 126.179 100.98 126.58 101.381C126.991 101.773 127.504 101.969 128.12 101.969Z" fill="white"/>
<path d="M226.25 54.417L230.333 58.5003L226.25 62.5837M221 58.5003H230.333H221Z" stroke="white" stroke-width="1.5" stroke-linecap="round" stroke-linejoin="round"/>
<path d="M241.453 44.5V34.7H247.487V35.764H242.629V39.04H247.095V40.104H242.629V43.436H247.557V44.5H241.453ZM248.824 44.5L251.568 41.028L248.908 37.654H250.238L252.282 40.3H252.478L254.508 37.654H255.852L253.178 41.028L255.922 44.5H254.578L252.478 41.77H252.282L250.182 44.5H248.824ZM257.683 47.3V37.654H258.761V38.788H258.957C259.134 38.4427 259.419 38.1347 259.811 37.864C260.212 37.5933 260.768 37.458 261.477 37.458C262.065 37.458 262.602 37.6027 263.087 37.892C263.582 38.172 263.974 38.5733 264.263 39.096C264.562 39.6187 264.711 40.2487 264.711 40.986V41.168C264.711 41.896 264.566 42.526 264.277 43.058C263.988 43.59 263.596 43.996 263.101 44.276C262.616 44.556 262.074 44.696 261.477 44.696C261.001 44.696 260.595 44.6307 260.259 44.5C259.932 44.3787 259.666 44.22 259.461 44.024C259.256 43.828 259.097 43.6273 258.985 43.422H258.789V47.3H257.683ZM261.183 43.716C261.892 43.716 262.466 43.492 262.905 43.044C263.353 42.5867 263.577 41.952 263.577 41.14V41.014C263.577 40.202 263.353 39.572 262.905 39.124C262.466 38.6667 261.892 38.438 261.183 38.438C260.483 38.438 259.904 38.6667 259.447 39.124C258.999 39.572 258.775 40.202 258.775 41.014V41.14C258.775 41.952 258.999 42.5867 259.447 43.044C259.904 43.492 260.483 43.716 261.183 43.716ZM266.693 44.5V34.7H267.799V44.5H266.693ZM273.288 44.696C272.598 44.696 271.986 44.5513 271.454 44.262C270.932 43.9727 270.521 43.5667 270.222 43.044C269.933 42.512 269.788 41.8867 269.788 41.168V40.986C269.788 40.2767 269.933 39.656 270.222 39.124C270.521 38.592 270.932 38.1813 271.454 37.892C271.986 37.6027 272.598 37.458 273.288 37.458C273.979 37.458 274.586 37.6027 275.108 37.892C275.64 38.1813 276.051 38.592 276.34 39.124C276.639 39.656 276.788 40.2767 276.788 40.986V41.168C276.788 41.8867 276.639 42.512 276.34 43.044C276.051 43.5667 275.64 43.9727 275.108 44.262C274.586 44.5513 273.979 44.696 273.288 44.696ZM273.288 43.702C274.016 43.702 274.595 43.4733 275.024 43.016C275.463 42.5493 275.682 41.924 275.682 41.14V41.014C275.682 40.23 275.463 39.6093 275.024 39.152C274.595 38.6853 274.016 38.452 273.288 38.452C272.57 38.452 271.991 38.6853 271.552 39.152C271.114 39.6093 270.894 40.23 270.894 41.014V41.14C270.894 41.924 271.114 42.5493 271.552 43.016C271.991 43.4733 272.57 43.702 273.288 43.702ZM281.537 44.696C280.687 44.696 279.969 44.5 279.381 44.108C278.802 43.716 278.452 43.0953 278.331 42.246L279.381 42.008C279.455 42.456 279.595 42.8107 279.801 43.072C280.006 43.324 280.258 43.506 280.557 43.618C280.865 43.7207 281.191 43.772 281.537 43.772C282.05 43.772 282.456 43.6693 282.755 43.464C283.053 43.2587 283.203 42.9833 283.203 42.638C283.203 42.2833 283.058 42.036 282.769 41.896C282.489 41.7467 282.101 41.6253 281.607 41.532L281.033 41.434C280.594 41.3593 280.193 41.2427 279.829 41.084C279.465 40.9253 279.175 40.7107 278.961 40.44C278.746 40.1693 278.639 39.8287 278.639 39.418C278.639 38.802 278.877 38.3213 279.353 37.976C279.829 37.6307 280.459 37.458 281.243 37.458C282.017 37.458 282.643 37.6353 283.119 37.99C283.604 38.3353 283.917 38.8253 284.057 39.46L283.021 39.726C282.937 39.2313 282.736 38.886 282.419 38.69C282.101 38.4847 281.709 38.382 281.243 38.382C280.776 38.382 280.407 38.4707 280.137 38.648C279.866 38.816 279.731 39.068 279.731 39.404C279.731 39.7307 279.857 39.9733 280.109 40.132C280.37 40.2813 280.715 40.3933 281.145 40.468L281.719 40.566C282.204 40.65 282.638 40.7667 283.021 40.916C283.413 41.056 283.721 41.2613 283.945 41.532C284.178 41.8027 284.295 42.1573 284.295 42.596C284.295 43.268 284.043 43.786 283.539 44.15C283.044 44.514 282.377 44.696 281.537 44.696ZM286.161 44.5V37.654H287.267V44.5H286.161ZM286.721 36.59C286.479 36.59 286.273 36.5107 286.105 36.352C285.947 36.1933 285.867 35.9927 285.867 35.75C285.867 35.498 285.947 35.2927 286.105 35.134C286.273 34.9753 286.479 34.896 286.721 34.896C286.964 34.896 287.165 34.9753 287.323 35.134C287.482 35.2927 287.561 35.498 287.561 35.75C287.561 35.9927 287.482 36.1933 287.323 36.352C287.165 36.5107 286.964 36.59 286.721 36.59ZM291.329 44.5L288.879 37.654H290.055L292.113 43.674H292.309L294.367 37.654H295.543L293.093 44.5H291.329ZM299.989 44.696C299.298 44.696 298.691 44.5513 298.169 44.262C297.646 43.9633 297.24 43.548 296.951 43.016C296.661 42.484 296.517 41.868 296.517 41.168V41C296.517 40.2907 296.661 39.67 296.951 39.138C297.24 38.606 297.641 38.1953 298.155 37.906C298.668 37.6073 299.256 37.458 299.919 37.458C300.563 37.458 301.132 37.598 301.627 37.878C302.121 38.1487 302.509 38.5407 302.789 39.054C303.069 39.5673 303.209 40.1693 303.209 40.86V41.364H297.623C297.651 42.1013 297.889 42.68 298.337 43.1C298.785 43.5107 299.345 43.716 300.017 43.716C300.605 43.716 301.057 43.5807 301.375 43.31C301.692 43.0393 301.935 42.7173 302.103 42.344L303.055 42.806C302.915 43.0953 302.719 43.3847 302.467 43.674C302.224 43.9633 301.902 44.206 301.501 44.402C301.109 44.598 300.605 44.696 299.989 44.696ZM297.637 40.454H302.089C302.051 39.8193 301.832 39.3247 301.431 38.97C301.039 38.6153 300.535 38.438 299.919 38.438C299.293 38.438 298.78 38.6153 298.379 38.97C297.977 39.3247 297.73 39.8193 297.637 40.454Z" fill="#C9C9C9" fill-opacity="0.6"/>
<path d="M244.757 62.696C244.057 62.696 243.432 62.5467 242.881 62.248C242.331 61.94 241.897 61.492 241.579 60.904C241.262 60.316 241.103 59.5973 241.103 58.748V56.452C241.103 55.1733 241.453 54.198 242.153 53.526C242.853 52.8447 243.801 52.504 244.995 52.504C246.171 52.504 247.077 52.826 247.711 53.47C248.346 54.1047 248.663 54.9587 248.663 56.032V56.102H247.165V55.99C247.165 55.5887 247.086 55.2293 246.927 54.912C246.769 54.5853 246.531 54.3287 246.213 54.142C245.896 53.9553 245.49 53.862 244.995 53.862C244.249 53.862 243.665 54.0907 243.245 54.548C242.825 54.996 242.615 55.6213 242.615 56.424V58.776C242.615 59.5693 242.825 60.1993 243.245 60.666C243.665 61.1233 244.253 61.352 245.009 61.352C245.756 61.352 246.302 61.1467 246.647 60.736C246.993 60.3253 247.165 59.7933 247.165 59.14V58.958H244.533V57.656H248.663V62.5H247.263V61.506H247.039C246.955 61.6833 246.829 61.8653 246.661 62.052C246.503 62.2387 246.269 62.3927 245.961 62.514C245.663 62.6353 245.261 62.696 244.757 62.696ZM250.653 62.5V55.598H252.067V56.41H252.291C252.403 56.1207 252.581 55.9107 252.823 55.78C253.075 55.64 253.383 55.57 253.747 55.57H254.573V56.872H253.691C253.225 56.872 252.842 57.0027 252.543 57.264C252.245 57.516 252.095 57.908 252.095 58.44V62.5H250.653ZM259.055 62.696C258.365 62.696 257.749 62.556 257.207 62.276C256.675 61.9867 256.255 61.576 255.947 61.044C255.639 60.512 255.485 59.882 255.485 59.154V58.944C255.485 58.216 255.639 57.5907 255.947 57.068C256.255 56.536 256.675 56.1253 257.207 55.836C257.749 55.5467 258.365 55.402 259.055 55.402C259.746 55.402 260.362 55.5467 260.903 55.836C261.445 56.1253 261.869 56.536 262.177 57.068C262.485 57.5907 262.639 58.216 262.639 58.944V59.154C262.639 59.882 262.485 60.512 262.177 61.044C261.869 61.576 261.445 61.9867 260.903 62.276C260.362 62.556 259.746 62.696 259.055 62.696ZM259.055 61.408C259.69 61.408 260.203 61.2073 260.595 60.806C260.997 60.3953 261.197 59.8307 261.197 59.112V58.986C261.197 58.2673 261.001 57.7073 260.609 57.306C260.217 56.8953 259.699 56.69 259.055 56.69C258.43 56.69 257.917 56.8953 257.515 57.306C257.123 57.7073 256.927 58.2673 256.927 58.986V59.112C256.927 59.8307 257.123 60.3953 257.515 60.806C257.917 61.2073 258.43 61.408 259.055 61.408ZM265.108 62.5L263.932 55.598H265.374L266.242 61.534H266.466L267.67 55.598H270.008L271.198 61.534H271.422L272.29 55.598H273.732L272.556 62.5H270.134L268.944 56.578H268.72L267.53 62.5H265.108ZM275.44 62.5V55.598H276.882V62.5H275.44ZM276.168 54.66C275.888 54.66 275.65 54.5713 275.454 54.394C275.268 54.2073 275.174 53.9693 275.174 53.68C275.174 53.3907 275.268 53.1573 275.454 52.98C275.65 52.7933 275.888 52.7 276.168 52.7C276.458 52.7 276.696 52.7933 276.882 52.98C277.069 53.1573 277.162 53.3907 277.162 53.68C277.162 53.9693 277.069 54.2073 276.882 54.394C276.696 54.5713 276.458 54.66 276.168 54.66ZM279.022 62.5V55.598H280.436V56.634H280.66C280.791 56.354 281.024 56.0927 281.36 55.85C281.696 55.6073 282.196 55.486 282.858 55.486C283.381 55.486 283.843 55.6027 284.244 55.836C284.655 56.0693 284.977 56.4007 285.21 56.83C285.444 57.25 285.56 57.7587 285.56 58.356V62.5H284.118V58.468C284.118 57.8707 283.969 57.432 283.67 57.152C283.372 56.8627 282.961 56.718 282.438 56.718C281.841 56.718 281.36 56.914 280.996 57.306C280.642 57.698 280.464 58.2673 280.464 59.014V62.5H279.022ZM287.3 59.084V58.874C287.3 58.146 287.444 57.5253 287.734 57.012C288.032 56.4987 288.424 56.102 288.91 55.822C289.395 55.542 289.927 55.402 290.506 55.402C291.178 55.402 291.691 55.528 292.046 55.78C292.41 56.032 292.676 56.3027 292.844 56.592H293.068V55.598H294.468V63.914C294.468 64.334 294.342 64.67 294.09 64.922C293.847 65.174 293.511 65.3 293.082 65.3H288.434V64.04H292.634C292.904 64.04 293.04 63.9 293.04 63.62V61.422H292.816C292.713 61.59 292.568 61.7627 292.382 61.94C292.195 62.1173 291.948 62.262 291.64 62.374C291.341 62.486 290.963 62.542 290.506 62.542C289.927 62.542 289.39 62.4067 288.896 62.136C288.41 61.856 288.023 61.4593 287.734 60.946C287.444 60.4233 287.3 59.8027 287.3 59.084ZM290.898 61.282C291.523 61.282 292.036 61.086 292.438 60.694C292.848 60.2927 293.054 59.742 293.054 59.042V58.916C293.054 58.1973 292.853 57.6467 292.452 57.264C292.05 56.872 291.532 56.676 290.898 56.676C290.282 56.676 289.768 56.872 289.358 57.264C288.956 57.6467 288.756 58.1973 288.756 58.916V59.042C288.756 59.742 288.956 60.2927 289.358 60.694C289.768 61.086 290.282 61.282 290.898 61.282Z" fill="white"/>
<path d="M244.715 80.696C244.006 80.696 243.371 80.57 242.811 80.318C242.251 80.066 241.808 79.688 241.481 79.184C241.164 78.6707 241.005 78.0313 241.005 77.266V76.972H242.167V77.266C242.167 78.078 242.405 78.6847 242.881 79.086C243.357 79.478 243.969 79.674 244.715 79.674C245.481 79.674 246.064 79.5013 246.465 79.156C246.867 78.8107 247.067 78.3767 247.067 77.854C247.067 77.49 246.974 77.2007 246.787 76.986C246.61 76.7713 246.358 76.5987 246.031 76.468C245.705 76.328 245.322 76.2067 244.883 76.104L244.155 75.922C243.586 75.7727 243.082 75.5907 242.643 75.376C242.205 75.1613 241.859 74.8813 241.607 74.536C241.365 74.1813 241.243 73.7287 241.243 73.178C241.243 72.6273 241.379 72.1513 241.649 71.75C241.929 71.3487 242.317 71.0407 242.811 70.826C243.315 70.6113 243.894 70.504 244.547 70.504C245.21 70.504 245.803 70.6207 246.325 70.854C246.857 71.078 247.273 71.414 247.571 71.862C247.879 72.3007 248.033 72.856 248.033 73.528V74.116H246.871V73.528C246.871 73.052 246.769 72.6693 246.563 72.38C246.367 72.0907 246.092 71.876 245.737 71.736C245.392 71.596 244.995 71.526 244.547 71.526C243.903 71.526 243.385 71.6707 242.993 71.96C242.601 72.24 242.405 72.6413 242.405 73.164C242.405 73.5093 242.489 73.7893 242.657 74.004C242.825 74.2187 243.063 74.396 243.371 74.536C243.679 74.6667 244.048 74.7833 244.477 74.886L245.205 75.068C245.775 75.1893 246.283 75.3573 246.731 75.572C247.189 75.7773 247.553 76.062 247.823 76.426C248.094 76.7807 248.229 77.2473 248.229 77.826C248.229 78.4047 248.085 78.9087 247.795 79.338C247.506 79.7673 247.095 80.1033 246.563 80.346C246.041 80.5793 245.425 80.696 244.715 80.696ZM252.601 80.5C252.209 80.5 251.906 80.3927 251.691 80.178C251.486 79.9633 251.383 79.6693 251.383 79.296V74.62H249.325V73.654H251.383V71.218H252.489V73.654H254.729V74.62H252.489V79.128C252.489 79.408 252.625 79.548 252.895 79.548H254.421V80.5H252.601ZM259.411 80.696C258.72 80.696 258.113 80.5513 257.591 80.262C257.068 79.9633 256.662 79.548 256.373 79.016C256.083 78.484 255.939 77.868 255.939 77.168V77C255.939 76.2907 256.083 75.67 256.373 75.138C256.662 74.606 257.063 74.1953 257.577 73.906C258.09 73.6073 258.678 73.458 259.341 73.458C259.985 73.458 260.554 73.598 261.049 73.878C261.543 74.1487 261.931 74.5407 262.211 75.054C262.491 75.5673 262.631 76.1693 262.631 76.86V77.364H257.045C257.073 78.1013 257.311 78.68 257.759 79.1C258.207 79.5107 258.767 79.716 259.439 79.716C260.027 79.716 260.479 79.5807 260.797 79.31C261.114 79.0393 261.357 78.7173 261.525 78.344L262.477 78.806C262.337 79.0953 262.141 79.3847 261.889 79.674C261.646 79.9633 261.324 80.206 260.923 80.402C260.531 80.598 260.027 80.696 259.411 80.696ZM257.059 76.454H261.511C261.473 75.8193 261.254 75.3247 260.853 74.97C260.461 74.6153 259.957 74.438 259.341 74.438C258.715 74.438 258.202 74.6153 257.801 74.97C257.399 75.3247 257.152 75.8193 257.059 76.454ZM266.66 80.696C266.184 80.696 265.75 80.612 265.358 80.444C264.966 80.276 264.658 80.0333 264.434 79.716C264.21 79.3987 264.098 79.0113 264.098 78.554C264.098 78.0873 264.21 77.7047 264.434 77.406C264.658 77.098 264.966 76.8693 265.358 76.72C265.75 76.5613 266.188 76.482 266.674 76.482H268.984V75.978C268.984 75.4927 268.839 75.11 268.55 74.83C268.27 74.55 267.85 74.41 267.29 74.41C266.739 74.41 266.31 74.5453 266.002 74.816C265.694 75.0773 265.484 75.432 265.372 75.88L264.336 75.544C264.448 75.1613 264.625 74.816 264.868 74.508C265.11 74.1907 265.432 73.9387 265.834 73.752C266.244 73.556 266.734 73.458 267.304 73.458C268.181 73.458 268.862 73.6867 269.348 74.144C269.833 74.592 270.076 75.2267 270.076 76.048V79.142C270.076 79.422 270.206 79.562 270.468 79.562H271.098V80.5H270.132C269.824 80.5 269.576 80.416 269.39 80.248C269.203 80.0707 269.11 79.8373 269.11 79.548V79.478H268.942C268.839 79.6553 268.699 79.842 268.522 80.038C268.354 80.2247 268.12 80.3787 267.822 80.5C267.523 80.6307 267.136 80.696 266.66 80.696ZM266.786 79.744C267.439 79.744 267.966 79.5527 268.368 79.17C268.778 78.778 268.984 78.232 268.984 77.532V77.378H266.716C266.277 77.378 265.913 77.476 265.624 77.672C265.344 77.8587 265.204 78.1433 265.204 78.526C265.204 78.9087 265.348 79.2073 265.638 79.422C265.936 79.6367 266.319 79.744 266.786 79.744ZM275.319 80.696C274.731 80.696 274.19 80.556 273.695 80.276C273.2 79.996 272.808 79.59 272.519 79.058C272.23 78.526 272.085 77.896 272.085 77.168V76.986C272.085 76.258 272.23 75.6327 272.519 75.11C272.808 74.578 273.196 74.172 273.681 73.892C274.176 73.6027 274.722 73.458 275.319 73.458C275.795 73.458 276.196 73.5233 276.523 73.654C276.859 73.7753 277.13 73.934 277.335 74.13C277.54 74.3167 277.699 74.5173 277.811 74.732H278.007V70.7H279.113V80.5H278.035V79.366H277.839C277.652 79.7113 277.363 80.0193 276.971 80.29C276.579 80.5607 276.028 80.696 275.319 80.696ZM275.613 79.716C276.322 79.716 276.896 79.492 277.335 79.044C277.783 78.5867 278.007 77.952 278.007 77.14V77.014C278.007 76.202 277.783 75.572 277.335 75.124C276.896 74.6667 276.322 74.438 275.613 74.438C274.913 74.438 274.334 74.6667 273.877 75.124C273.429 75.572 273.205 76.202 273.205 77.014V77.14C273.205 77.952 273.429 78.5867 273.877 79.044C274.334 79.492 274.913 79.716 275.613 79.716ZM282.257 83.3V82.32H286.177C286.448 82.32 286.583 82.18 286.583 81.9V79.408H286.387C286.294 79.604 286.149 79.8 285.953 79.996C285.766 80.1827 285.519 80.3367 285.211 80.458C284.903 80.57 284.516 80.626 284.049 80.626C283.554 80.626 283.097 80.5187 282.677 80.304C282.266 80.0893 281.94 79.772 281.697 79.352C281.464 78.932 281.347 78.4187 281.347 77.812V73.654H282.453V77.728C282.453 78.4 282.621 78.89 282.957 79.198C283.302 79.506 283.764 79.66 284.343 79.66C284.996 79.66 285.533 79.4453 285.953 79.016C286.373 78.5867 286.583 77.9473 286.583 77.098V73.654H287.689V82.096C287.689 82.4693 287.582 82.7633 287.367 82.978C287.162 83.1927 286.858 83.3 286.457 83.3H282.257Z" fill="#C9C9C9" fill-opacity="0.6"/>
<path d="M244.715 98.696C244.006 98.696 243.371 98.57 242.811 98.318C242.251 98.066 241.808 97.688 241.481 97.184C241.164 96.6707 241.005 96.0313 241.005 95.266V94.972H242.167V95.266C242.167 96.078 242.405 96.6847 242.881 97.086C243.357 97.478 243.969 97.674 244.715 97.674C245.481 97.674 246.064 97.5013 246.465 97.156C246.867 96.8107 247.067 96.3767 247.067 95.854C247.067 95.49 246.974 95.2007 246.787 94.986C246.61 94.7713 246.358 94.5987 246.031 94.468C245.705 94.328 245.322 94.2067 244.883 94.104L244.155 93.922C243.586 93.7727 243.082 93.5907 242.643 93.376C242.205 93.1613 241.859 92.8813 241.607 92.536C241.365 92.1813 241.243 91.7287 241.243 91.178C241.243 90.6273 241.379 90.1513 241.649 89.75C241.929 89.3487 242.317 89.0407 242.811 88.826C243.315 88.6113 243.894 88.504 244.547 88.504C245.21 88.504 245.803 88.6207 246.325 88.854C246.857 89.078 247.273 89.414 247.571 89.862C247.879 90.3007 248.033 90.856 248.033 91.528V92.116H246.871V91.528C246.871 91.052 246.769 90.6693 246.563 90.38C246.367 90.0907 246.092 89.876 245.737 89.736C245.392 89.596 244.995 89.526 244.547 89.526C243.903 89.526 243.385 89.6707 242.993 89.96C242.601 90.24 242.405 90.6413 242.405 91.164C242.405 91.5093 242.489 91.7893 242.657 92.004C242.825 92.2187 243.063 92.396 243.371 92.536C243.679 92.6667 244.048 92.7833 244.477 92.886L245.205 93.068C245.775 93.1893 246.283 93.3573 246.731 93.572C247.189 93.7773 247.553 94.062 247.823 94.426C248.094 94.7807 248.229 95.2473 248.229 95.826C248.229 96.4047 248.085 96.9087 247.795 97.338C247.506 97.7673 247.095 98.1033 246.563 98.346C246.041 98.5793 245.425 98.696 244.715 98.696ZM250.081 98.5V88.7H251.187V98.5H250.081ZM256.677 98.696C255.986 98.696 255.375 98.5513 254.843 98.262C254.32 97.9727 253.91 97.5667 253.611 97.044C253.322 96.512 253.177 95.8867 253.177 95.168V94.986C253.177 94.2767 253.322 93.656 253.611 93.124C253.91 92.592 254.32 92.1813 254.843 91.892C255.375 91.6027 255.986 91.458 256.677 91.458C257.368 91.458 257.974 91.6027 258.497 91.892C259.029 92.1813 259.44 92.592 259.729 93.124C260.028 93.656 260.177 94.2767 260.177 94.986V95.168C260.177 95.8867 260.028 96.512 259.729 97.044C259.44 97.5667 259.029 97.9727 258.497 98.262C257.974 98.5513 257.368 98.696 256.677 98.696ZM256.677 97.702C257.405 97.702 257.984 97.4733 258.413 97.016C258.852 96.5493 259.071 95.924 259.071 95.14V95.014C259.071 94.23 258.852 93.6093 258.413 93.152C257.984 92.6853 257.405 92.452 256.677 92.452C255.958 92.452 255.38 92.6853 254.941 93.152C254.502 93.6093 254.283 94.23 254.283 95.014V95.14C254.283 95.924 254.502 96.5493 254.941 97.016C255.38 97.4733 255.958 97.702 256.677 97.702ZM262.982 98.5L261.61 91.654H262.73L263.864 97.758H264.06L265.558 91.654H267.393L268.89 97.758H269.086L270.221 91.654H271.341L269.969 98.5H268.079L266.566 92.396H266.385L264.872 98.5H262.982ZM273.241 98.5V91.654H274.347V98.5H273.241ZM273.801 90.59C273.559 90.59 273.353 90.5107 273.185 90.352C273.027 90.1933 272.947 89.9927 272.947 89.75C272.947 89.498 273.027 89.2927 273.185 89.134C273.353 88.9753 273.559 88.896 273.801 88.896C274.044 88.896 274.245 88.9753 274.403 89.134C274.562 89.2927 274.641 89.498 274.641 89.75C274.641 89.9927 274.562 90.1933 274.403 90.352C274.245 90.5107 274.044 90.59 273.801 90.59ZM276.673 98.5V91.654H277.751V92.816H277.947C278.096 92.4893 278.348 92.1953 278.703 91.934C279.067 91.6633 279.599 91.528 280.299 91.528C280.812 91.528 281.27 91.6353 281.671 91.85C282.082 92.0647 282.408 92.382 282.651 92.802C282.894 93.222 283.015 93.74 283.015 94.356V98.5H281.909V94.44C281.909 93.7587 281.736 93.264 281.391 92.956C281.055 92.648 280.598 92.494 280.019 92.494C279.356 92.494 278.815 92.7087 278.395 93.138C277.984 93.5673 277.779 94.2067 277.779 95.056V98.5H276.673ZM284.923 95.112V94.916C284.923 94.1973 285.068 93.5813 285.357 93.068C285.646 92.5547 286.038 92.158 286.533 91.878C287.028 91.598 287.569 91.458 288.157 91.458C288.876 91.458 289.426 91.598 289.809 91.878C290.201 92.1487 290.49 92.452 290.677 92.788H290.873V91.654H291.923V100.096C291.923 100.469 291.82 100.763 291.615 100.978C291.41 101.193 291.111 101.3 290.719 101.3H286.071V100.32H290.425C290.705 100.32 290.845 100.18 290.845 99.9V97.296H290.649C290.537 97.5013 290.378 97.702 290.173 97.898C289.968 98.094 289.702 98.2573 289.375 98.388C289.048 98.5093 288.642 98.57 288.157 98.57C287.569 98.57 287.028 98.43 286.533 98.15C286.038 97.87 285.646 97.4733 285.357 96.96C285.068 96.4373 284.923 95.8213 284.923 95.112ZM288.451 97.59C289.16 97.59 289.734 97.366 290.173 96.918C290.621 96.47 290.845 95.854 290.845 95.07V94.958C290.845 94.1647 290.621 93.5487 290.173 93.11C289.734 92.662 289.16 92.438 288.451 92.438C287.751 92.438 287.172 92.662 286.715 93.11C286.267 93.5487 286.043 94.1647 286.043 94.958V95.07C286.043 95.854 286.267 96.47 286.715 96.918C287.172 97.366 287.751 97.59 288.451 97.59Z" fill="#C9C9C9" fill-opacity="0.6"/>
<path d="M240.991 116.5V115.45H242.363V107.75H240.991V106.7H244.813C246.101 106.7 247.095 107.027 247.795 107.68C248.505 108.333 248.859 109.337 248.859 110.69V112.51C248.859 113.873 248.505 114.881 247.795 115.534C247.095 116.178 246.101 116.5 244.813 116.5H240.991ZM243.539 115.436H244.813C245.765 115.436 246.484 115.203 246.969 114.736C247.455 114.269 247.697 113.546 247.697 112.566V110.648C247.697 109.649 247.455 108.921 246.969 108.464C246.484 108.007 245.765 107.778 244.813 107.778H243.539V115.436ZM253.915 116.696C253.224 116.696 252.617 116.551 252.095 116.262C251.572 115.963 251.166 115.548 250.877 115.016C250.587 114.484 250.443 113.868 250.443 113.168V113C250.443 112.291 250.587 111.67 250.877 111.138C251.166 110.606 251.567 110.195 252.081 109.906C252.594 109.607 253.182 109.458 253.845 109.458C254.489 109.458 255.058 109.598 255.553 109.878C256.047 110.149 256.435 110.541 256.715 111.054C256.995 111.567 257.135 112.169 257.135 112.86V113.364H251.549C251.577 114.101 251.815 114.68 252.263 115.1C252.711 115.511 253.271 115.716 253.943 115.716C254.531 115.716 254.983 115.581 255.301 115.31C255.618 115.039 255.861 114.717 256.029 114.344L256.981 114.806C256.841 115.095 256.645 115.385 256.393 115.674C256.15 115.963 255.828 116.206 255.427 116.402C255.035 116.598 254.531 116.696 253.915 116.696ZM251.563 112.454H256.015C255.977 111.819 255.758 111.325 255.357 110.97C254.965 110.615 254.461 110.438 253.845 110.438C253.219 110.438 252.706 110.615 252.305 110.97C251.903 111.325 251.656 111.819 251.563 112.454ZM262.214 116.696C261.551 116.696 260.954 116.556 260.422 116.276C259.899 115.987 259.484 115.576 259.176 115.044C258.877 114.512 258.728 113.882 258.728 113.154V113C258.728 112.263 258.877 111.633 259.176 111.11C259.484 110.578 259.899 110.172 260.422 109.892C260.954 109.603 261.551 109.458 262.214 109.458C262.867 109.458 263.422 109.579 263.88 109.822C264.346 110.065 264.71 110.387 264.972 110.788C265.242 111.189 265.415 111.619 265.49 112.076L264.412 112.3C264.365 111.964 264.253 111.656 264.076 111.376C263.908 111.096 263.67 110.872 263.362 110.704C263.054 110.536 262.676 110.452 262.228 110.452C261.77 110.452 261.36 110.555 260.996 110.76C260.641 110.965 260.356 111.259 260.142 111.642C259.936 112.025 259.834 112.482 259.834 113.014V113.14C259.834 113.672 259.936 114.129 260.142 114.512C260.356 114.895 260.641 115.189 260.996 115.394C261.36 115.599 261.77 115.702 262.228 115.702C262.909 115.702 263.427 115.525 263.782 115.17C264.146 114.815 264.37 114.377 264.454 113.854L265.546 114.092C265.443 114.54 265.256 114.965 264.986 115.366C264.715 115.767 264.346 116.089 263.88 116.332C263.422 116.575 262.867 116.696 262.214 116.696ZM267.431 116.5V106.7H268.537V116.5H267.431ZM270.863 116.5V109.654H271.969V116.5H270.863ZM271.423 108.59C271.18 108.59 270.975 108.511 270.807 108.352C270.648 108.193 270.569 107.993 270.569 107.75C270.569 107.498 270.648 107.293 270.807 107.134C270.975 106.975 271.18 106.896 271.423 106.896C271.665 106.896 271.866 106.975 272.025 107.134C272.183 107.293 272.263 107.498 272.263 107.75C272.263 107.993 272.183 108.193 272.025 108.352C271.866 108.511 271.665 108.59 271.423 108.59ZM274.294 116.5V109.654H275.372V110.816H275.568C275.718 110.489 275.97 110.195 276.324 109.934C276.688 109.663 277.22 109.528 277.92 109.528C278.434 109.528 278.891 109.635 279.292 109.85C279.703 110.065 280.03 110.382 280.272 110.802C280.515 111.222 280.636 111.74 280.636 112.356V116.5H279.53V112.44C279.53 111.759 279.358 111.264 279.012 110.956C278.676 110.648 278.219 110.494 277.64 110.494C276.978 110.494 276.436 110.709 276.016 111.138C275.606 111.567 275.4 112.207 275.4 113.056V116.5H274.294ZM282.88 116.5V109.654H283.986V116.5H282.88ZM283.44 108.59C283.197 108.59 282.992 108.511 282.824 108.352C282.665 108.193 282.586 107.993 282.586 107.75C282.586 107.498 282.665 107.293 282.824 107.134C282.992 106.975 283.197 106.896 283.44 106.896C283.683 106.896 283.883 106.975 284.042 107.134C284.201 107.293 284.28 107.498 284.28 107.75C284.28 107.993 284.201 108.193 284.042 108.352C283.883 108.511 283.683 108.59 283.44 108.59ZM286.312 116.5V109.654H287.39V110.816H287.586C287.735 110.489 287.987 110.195 288.342 109.934C288.706 109.663 289.238 109.528 289.938 109.528C290.451 109.528 290.908 109.635 291.31 109.85C291.72 110.065 292.047 110.382 292.29 110.802C292.532 111.222 292.654 111.74 292.654 112.356V116.5H291.548V112.44C291.548 111.759 291.375 111.264 291.03 110.956C290.694 110.648 290.236 110.494 289.658 110.494C288.995 110.494 288.454 110.709 288.034 111.138C287.623 111.567 287.418 112.207 287.418 113.056V116.5H286.312ZM294.562 113.112V112.916C294.562 112.197 294.706 111.581 294.996 111.068C295.285 110.555 295.677 110.158 296.172 109.878C296.666 109.598 297.208 109.458 297.796 109.458C298.514 109.458 299.065 109.598 299.448 109.878C299.84 110.149 300.129 110.452 300.316 110.788H300.512V109.654H301.562V118.096C301.562 118.469 301.459 118.763 301.254 118.978C301.048 119.193 300.75 119.3 300.358 119.3H295.71V118.32H300.064C300.344 118.32 300.484 118.18 300.484 117.9V115.296H300.288C300.176 115.501 300.017 115.702 299.812 115.898C299.606 116.094 299.34 116.257 299.014 116.388C298.687 116.509 298.281 116.57 297.796 116.57C297.208 116.57 296.666 116.43 296.172 116.15C295.677 115.87 295.285 115.473 294.996 114.96C294.706 114.437 294.562 113.821 294.562 113.112ZM298.09 115.59C298.799 115.59 299.373 115.366 299.812 114.918C300.26 114.47 300.484 113.854 300.484 113.07V112.958C300.484 112.165 300.26 111.549 299.812 111.11C299.373 110.662 298.799 110.438 298.09 110.438C297.39 110.438 296.811 110.662 296.354 111.11C295.906 111.549 295.682 112.165 295.682 112.958V113.07C295.682 113.854 295.906 114.47 296.354 114.918C296.811 115.366 297.39 115.59 298.09 115.59Z" fill="#C9C9C9" fill-opacity="0.6"/>
</svg>
