<svg width="281" height="20" viewBox="0 0 281 20" fill="none" xmlns="http://www.w3.org/2000/svg">
<g clip-path="url(#clip0_11751_1100)">
<path d="M126.745 20C123.729 20 121.838 18.8549 121.838 15.5835V12.7389H126.149V15.5635C126.149 16.116 126.361 16.2856 126.724 16.2856C127.043 16.2856 127.276 16.116 127.276 15.5635V12.9103C127.276 10.9136 121.818 12.3797 121.818 7.34683V4.41648C121.818 1.14697 123.729 0 126.724 0C129.718 0 131.607 1.14515 131.607 4.41648V7.26112H127.296V4.43654C127.296 3.88403 127.085 3.71444 126.745 3.71444C126.406 3.71444 126.193 3.88403 126.193 4.43654V7.08972C126.193 9.08643 131.671 7.62035 131.671 12.6532V15.5835C131.671 18.853 129.76 20 126.744 20H126.745Z" fill="white"/>
<path d="M52.9365 19.7712V0.234375H59.647L60.6244 13.761H60.8797L61.8571 0.234375H68.5675V19.7712H64.4482V6.37041H64.1091L63.0897 19.7712H58.4179L57.3986 6.37041H57.0594V19.7712H52.9402H52.9365Z" fill="white"/>
<path d="M71.1236 0.234375L69.3384 19.7712H73.671L73.8825 16.7351H76.0707L76.2822 19.7712H80.593L78.8297 0.234375H71.1218H71.1236ZM74.1597 12.9751L74.7961 4.28981H75.1571L75.7935 12.9751H74.1597Z" fill="white"/>
<path d="M91.3583 10.1086V4.67274C91.3583 1.42329 90.6581 0.234375 87.3029 0.234375H81.3564V19.7712H85.8368V14.2697H86.6227L87.8116 19.7712H91.7814L90.2095 13.1027C90.9097 12.4663 91.3565 11.509 91.3565 10.1086H91.3583ZM86.9837 10.3638C86.9837 10.8945 86.8142 11.106 86.2835 11.106H85.8368V3.94882H86.2835C86.8142 3.94882 86.9837 4.16034 86.9837 4.71468V10.3638Z" fill="white"/>
<path d="M99.0518 19.7712L97.6295 12.3168L97.0131 14.6964V19.7712H92.5547V0.234375H97.0131V7.41162H97.3104L98.8403 0.234375H103.215L100.987 9.57792L103.45 19.7712H99.0536H99.0518Z" fill="white"/>
<path d="M111.051 3.9707H108.482V8.09178H110.988V11.7862H108.482V16.0331H111.051V19.7712H104V0.234375H111.051V3.9707Z" fill="white"/>
<path d="M121.405 0.234375V3.9707H118.877V19.7712H114.419V3.9707H111.892V0.234375H121.405Z" fill="white"/>
<path d="M21.9823 17.5064V4.61804C21.9823 4.30075 22.2394 4.04364 22.5567 4.04364C22.874 4.04364 23.1311 4.30075 23.1311 4.61804V19.7712H28.1603L26.3788 0.239845L18.6253 0.234375L16.8984 19.7712H21.9805V17.5064H21.9823Z" fill="#FF4C00"/>
<path d="M0.5 19.7712V0.234375H7.21046L8.18785 13.761H8.44314L9.41871 0.234375H16.1292V19.7712H12.0099V6.37223H11.6707L10.6514 19.7712H5.9796L4.96027 6.37223H4.6211V19.7712H0.5Z" fill="#FF4C00"/>
<path d="M44.6927 20C41.6766 20 39.7857 18.8549 39.7857 15.5835V12.7389H44.0964V15.5635C44.0964 16.116 44.3079 16.2856 44.6708 16.2856C44.9899 16.2856 45.2233 16.116 45.2233 15.5635V12.9103C45.2233 10.9136 39.7656 12.3797 39.7656 7.34683V4.41648C39.7656 1.14697 41.6766 0 44.6708 0C47.665 0 49.5541 1.14515 49.5541 4.41648V7.26112H45.2434V4.43654C45.2434 3.88403 45.0319 3.71444 44.6927 3.71444C44.3535 3.71444 44.1402 3.88403 44.1402 4.43654V7.08972C44.1402 9.08643 49.618 7.62035 49.618 12.6532V15.5835C49.618 18.853 47.7069 20 44.6909 20H44.6927Z" fill="#FF4C00"/>
<path d="M33.399 14.2716H34.1849L35.3739 19.7712H39.3436L37.7717 13.1027C38.472 12.4663 38.9169 11.509 38.9169 10.1086V4.67274C38.9169 1.42329 38.2167 0.234375 34.8615 0.234375H28.915V19.7712H33.3954V14.2716H33.399ZM33.399 3.95246H33.8439C34.3746 3.95246 34.5442 4.16399 34.5442 4.71833V10.3675C34.5442 10.8981 34.3746 11.1096 33.8439 11.1096H33.399V3.95064V3.95246Z" fill="#FF4C00"/>
</g>
<path d="M174 8C174 3.85786 177.358 0.5 181.5 0.5H272.5C276.642 0.5 280 3.85786 280 8V12C280 16.1421 276.642 19.5 272.5 19.5H181.5C177.358 19.5 174 16.1421 174 12V8Z" stroke="white"/>
<path d="M186.5 14C188.709 14 190.5 12.2091 190.5 10C190.5 7.79087 188.709 6 186.5 6C184.291 6 182.5 7.79087 182.5 10C182.5 12.2091 184.291 14 186.5 14Z" fill="#FF4C00"/>
<path d="M201.841 14.154C201.261 14.154 200.748 14.0513 200.301 13.846C199.853 13.6407 199.501 13.34 199.245 12.944C198.995 12.5407 198.871 12.053 198.871 11.481V11.206H200.048V11.481C200.048 12.0237 200.209 12.4307 200.532 12.702C200.862 12.9733 201.298 13.109 201.841 13.109C202.391 13.109 202.805 12.9953 203.084 12.768C203.362 12.5333 203.502 12.2327 203.502 11.866C203.502 11.624 203.436 11.426 203.304 11.272C203.172 11.118 202.985 10.997 202.743 10.909C202.501 10.8137 202.211 10.7257 201.874 10.645L201.467 10.546C200.975 10.4287 200.546 10.2857 200.18 10.117C199.82 9.941 199.542 9.71 199.344 9.424C199.146 9.138 199.047 8.77133 199.047 8.324C199.047 7.86933 199.157 7.48067 199.377 7.158C199.604 6.83533 199.916 6.586 200.312 6.41C200.708 6.234 201.173 6.146 201.709 6.146C202.244 6.146 202.721 6.23767 203.139 6.421C203.564 6.60433 203.898 6.87567 204.14 7.235C204.382 7.59433 204.503 8.04533 204.503 8.588V8.984H203.326V8.588C203.326 8.258 203.256 7.99033 203.117 7.785C202.985 7.57967 202.798 7.42933 202.556 7.334C202.314 7.23867 202.031 7.191 201.709 7.191C201.239 7.191 200.873 7.29 200.609 7.488C200.352 7.67867 200.224 7.94633 200.224 8.291C200.224 8.52567 200.279 8.72 200.389 8.874C200.506 9.02067 200.675 9.14167 200.895 9.237C201.115 9.33233 201.39 9.41667 201.72 9.49L202.127 9.589C202.625 9.699 203.065 9.842 203.447 10.018C203.828 10.1867 204.129 10.4177 204.349 10.711C204.569 11.0043 204.679 11.382 204.679 11.844C204.679 12.306 204.561 12.7093 204.327 13.054C204.099 13.3987 203.773 13.67 203.348 13.868C202.922 14.0587 202.42 14.154 201.841 14.154ZM206.036 14V6.3H207.224V9.6H210.458V6.3H211.646V14H210.458V10.678H207.224V14H206.036ZM212.792 14L214.992 6.3H217.082L219.271 14H218.05L217.544 12.185H214.53L214.024 14H212.792ZM214.827 11.085H217.247L216.125 7.037H215.949L214.827 11.085ZM220.425 14V6.3H223.659C224.135 6.3 224.553 6.38433 224.913 6.553C225.279 6.71433 225.562 6.949 225.76 7.257C225.965 7.565 226.068 7.93167 226.068 8.357V8.478C226.068 8.962 225.95 9.35067 225.716 9.644C225.488 9.93 225.21 10.1317 224.88 10.249V10.425C225.158 10.4397 225.382 10.535 225.551 10.711C225.719 10.8797 225.804 11.1253 225.804 11.448V14H224.605V11.613C224.605 11.415 224.553 11.2573 224.451 11.14C224.348 11.0227 224.183 10.964 223.956 10.964H221.613V14H220.425ZM221.613 9.886H223.527C223.952 9.886 224.282 9.77967 224.517 9.567C224.751 9.347 224.869 9.05 224.869 8.676V8.588C224.869 8.214 224.751 7.92067 224.517 7.708C224.289 7.488 223.959 7.378 223.527 7.378H221.613V9.886ZM227.485 14V6.3H232.336V7.378H228.673V9.589H232.028V10.667H228.673V12.922H232.391V14H227.485ZM233.739 14V6.3H234.927V9.6H238.161V6.3H239.349V14H238.161V10.678H234.927V14H233.739ZM243.961 14.154C243.015 14.154 242.263 13.89 241.706 13.362C241.149 12.8267 240.87 12.0567 240.87 11.052V9.248C240.87 8.24333 241.149 7.477 241.706 6.949C242.263 6.41367 243.015 6.146 243.961 6.146C244.907 6.146 245.659 6.41367 246.216 6.949C246.781 7.477 247.063 8.24333 247.063 9.248V11.052C247.063 12.0567 246.781 12.8267 246.216 13.362C245.659 13.89 244.907 14.154 243.961 14.154ZM243.961 13.087C244.57 13.087 245.039 12.911 245.369 12.559C245.699 12.1997 245.864 11.712 245.864 11.096V9.204C245.864 8.588 245.699 8.104 245.369 7.752C245.039 7.39267 244.57 7.213 243.961 7.213C243.367 7.213 242.901 7.39267 242.564 7.752C242.227 8.104 242.058 8.588 242.058 9.204V11.096C242.058 11.712 242.227 12.1997 242.564 12.559C242.901 12.911 243.367 13.087 243.961 13.087ZM248.579 14V6.3H249.767V12.922H253.474V14H248.579ZM254.387 14V12.944H255.421V7.356H254.387V6.3H257.467C258.494 6.3 259.278 6.56033 259.821 7.081C260.371 7.60167 260.646 8.38633 260.646 9.435V10.876C260.646 11.9247 260.371 12.7093 259.821 13.23C259.278 13.7433 258.494 14 257.467 14H254.387ZM256.62 12.922H257.478C258.145 12.922 258.64 12.7533 258.963 12.416C259.286 12.0787 259.447 11.5763 259.447 10.909V9.391C259.447 8.71633 259.286 8.214 258.963 7.884C258.64 7.554 258.145 7.389 257.478 7.389H256.62V12.922ZM262.098 14V6.3H266.949V7.378H263.286V9.589H266.641V10.667H263.286V12.922H267.004V14H262.098ZM268.353 14V6.3H271.587C272.063 6.3 272.481 6.38433 272.841 6.553C273.207 6.71433 273.49 6.949 273.688 7.257C273.893 7.565 273.996 7.93167 273.996 8.357V8.478C273.996 8.962 273.878 9.35067 273.644 9.644C273.416 9.93 273.138 10.1317 272.808 10.249V10.425C273.086 10.4397 273.31 10.535 273.479 10.711C273.647 10.8797 273.732 11.1253 273.732 11.448V14H272.533V11.613C272.533 11.415 272.481 11.2573 272.379 11.14C272.276 11.0227 272.111 10.964 271.884 10.964H269.541V14H268.353ZM269.541 9.886H271.455C271.88 9.886 272.21 9.77967 272.445 9.567C272.679 9.347 272.797 9.05 272.797 8.676V8.588C272.797 8.214 272.679 7.92067 272.445 7.708C272.217 7.488 271.887 7.378 271.455 7.378H269.541V9.886Z" fill="white"/>
<defs>
<clipPath id="clip0_11751_1100">
<rect width="131.171" height="20" fill="white" transform="translate(0.5)"/>
</clipPath>
</defs>
</svg>
