<svg width="315" height="172" viewBox="0 0 315 172" fill="none" xmlns="http://www.w3.org/2000/svg">
<path d="M4.354 10.696C3.61667 10.696 2.96333 10.5653 2.394 10.304C1.82467 10.0427 1.37667 9.66 1.05 9.156C0.732667 8.64267 0.574 8.022 0.574 7.294V6.944H2.072V7.294C2.072 7.98467 2.27733 8.50267 2.688 8.848C3.108 9.19333 3.66333 9.366 4.354 9.366C5.054 9.366 5.58133 9.22133 5.936 8.932C6.29067 8.63333 6.468 8.25067 6.468 7.784C6.468 7.476 6.384 7.224 6.216 7.028C6.048 6.832 5.81 6.678 5.502 6.566C5.194 6.44467 4.82533 6.33267 4.396 6.23L3.878 6.104C3.25267 5.95467 2.70667 5.77267 2.24 5.558C1.78267 5.334 1.428 5.04 1.176 4.676C0.924 4.312 0.798 3.84533 0.798 3.276C0.798 2.69733 0.938 2.20267 1.218 1.792C1.50733 1.38133 1.904 1.064 2.408 0.839999C2.912 0.615999 3.50467 0.503999 4.186 0.503999C4.86733 0.503999 5.474 0.620666 6.006 0.854C6.54733 1.08733 6.972 1.43267 7.28 1.89C7.588 2.34733 7.742 2.92133 7.742 3.612V4.116H6.244V3.612C6.244 3.192 6.15533 2.85133 5.978 2.59C5.81 2.32867 5.572 2.13733 5.264 2.016C4.956 1.89467 4.59667 1.834 4.186 1.834C3.58867 1.834 3.122 1.96 2.786 2.212C2.45933 2.45467 2.296 2.79533 2.296 3.234C2.296 3.53267 2.366 3.78 2.506 3.976C2.65533 4.16267 2.87 4.31667 3.15 4.438C3.43 4.55933 3.78 4.66667 4.2 4.76L4.718 4.886C5.35267 5.026 5.91267 5.208 6.398 5.432C6.88333 5.64667 7.266 5.94067 7.546 6.314C7.826 6.68733 7.966 7.168 7.966 7.756C7.966 8.344 7.81667 8.85733 7.518 9.296C7.22867 9.73467 6.81333 10.08 6.272 10.332C5.73067 10.5747 5.09133 10.696 4.354 10.696ZM9.69325 10.5V0.699999H13.5853C14.1826 0.699999 14.7146 0.821333 15.1813 1.064C15.6573 1.29733 16.0259 1.63333 16.2873 2.072C16.5579 2.50133 16.6933 3.01933 16.6933 3.626V3.808C16.6933 4.41467 16.5533 4.93733 16.2733 5.376C16.0026 5.81467 15.6339 6.15067 15.1673 6.384C14.7006 6.61733 14.1733 6.734 13.5853 6.734H11.2053V10.5H9.69325ZM11.2053 5.362H13.4313C13.9633 5.362 14.3879 5.222 14.7053 4.942C15.0226 4.662 15.1813 4.27933 15.1813 3.794V3.654C15.1813 3.15933 15.0226 2.772 14.7053 2.492C14.3879 2.212 13.9633 2.072 13.4313 2.072H11.2053V5.362ZM21.9508 10.696C20.7468 10.696 19.7901 10.36 19.0808 9.688C18.3715 9.00667 18.0168 8.02667 18.0168 6.748V4.452C18.0168 3.17333 18.3715 2.198 19.0808 1.526C19.7901 0.844666 20.7468 0.503999 21.9508 0.503999C23.1548 0.503999 24.1115 0.844666 24.8208 1.526C25.5395 2.198 25.8988 3.17333 25.8988 4.452V6.748C25.8988 8.02667 25.5395 9.00667 24.8208 9.688C24.1115 10.36 23.1548 10.696 21.9508 10.696ZM21.9508 9.338C22.7255 9.338 23.3228 9.114 23.7428 8.666C24.1628 8.20867 24.3728 7.588 24.3728 6.804V4.396C24.3728 3.612 24.1628 2.996 23.7428 2.548C23.3228 2.09067 22.7255 1.862 21.9508 1.862C21.1948 1.862 20.6021 2.09067 20.1728 2.548C19.7435 2.996 19.5288 3.612 19.5288 4.396V6.804C19.5288 7.588 19.7435 8.20867 20.1728 8.666C20.6021 9.114 21.1948 9.338 21.9508 9.338ZM29.7566 10.5V2.072H26.7466V0.699999H34.2786V2.072H31.2686V10.5H29.7566ZM35.789 10.5V0.699999H37.301V10.5H35.789ZM39.4837 10.5V0.699999H45.5317V2.072H40.9957V4.9H45.1677V6.272H40.9957V10.5H39.4837ZM49.6773 10.5V6.944L46.2753 0.699999H47.9833L50.3353 5.138H50.5453L52.8973 0.699999H54.6053L51.2033 6.944V10.5H49.6773ZM62.8138 10.696C62.0765 10.696 61.4232 10.5653 60.8538 10.304C60.2845 10.0427 59.8365 9.66 59.5098 9.156C59.1925 8.64267 59.0338 8.022 59.0338 7.294V6.944H60.5318V7.294C60.5318 7.98467 60.7372 8.50267 61.1478 8.848C61.5678 9.19333 62.1232 9.366 62.8138 9.366C63.5138 9.366 64.0412 9.22133 64.3958 8.932C64.7505 8.63333 64.9278 8.25067 64.9278 7.784C64.9278 7.476 64.8438 7.224 64.6758 7.028C64.5078 6.832 64.2698 6.678 63.9618 6.566C63.6538 6.44467 63.2852 6.33267 62.8558 6.23L62.3378 6.104C61.7125 5.95467 61.1665 5.77267 60.6998 5.558C60.2425 5.334 59.8878 5.04 59.6358 4.676C59.3838 4.312 59.2578 3.84533 59.2578 3.276C59.2578 2.69733 59.3978 2.20267 59.6778 1.792C59.9672 1.38133 60.3638 1.064 60.8678 0.839999C61.3718 0.615999 61.9645 0.503999 62.6458 0.503999C63.3272 0.503999 63.9338 0.620666 64.4658 0.854C65.0072 1.08733 65.4318 1.43267 65.7398 1.89C66.0478 2.34733 66.2018 2.92133 66.2018 3.612V4.116H64.7038V3.612C64.7038 3.192 64.6152 2.85133 64.4378 2.59C64.2698 2.32867 64.0318 2.13733 63.7238 2.016C63.4158 1.89467 63.0565 1.834 62.6458 1.834C62.0485 1.834 61.5818 1.96 61.2458 2.212C60.9192 2.45467 60.7558 2.79533 60.7558 3.234C60.7558 3.53267 60.8258 3.78 60.9658 3.976C61.1152 4.16267 61.3298 4.31667 61.6098 4.438C61.8898 4.55933 62.2398 4.66667 62.6598 4.76L63.1778 4.886C63.8125 5.026 64.3725 5.208 64.8578 5.432C65.3432 5.64667 65.7258 5.94067 66.0058 6.314C66.2858 6.68733 66.4258 7.168 66.4258 7.756C66.4258 8.344 66.2765 8.85733 65.9778 9.296C65.6885 9.73467 65.2732 10.08 64.7318 10.332C64.1905 10.5747 63.5512 10.696 62.8138 10.696ZM70.122 10.5V2.072H67.112V0.699999H74.644V2.072H71.634V10.5H70.122ZM76.1544 10.5V0.699999H80.2704C80.8771 0.699999 81.4091 0.807333 81.8664 1.022C82.3331 1.22733 82.6924 1.526 82.9444 1.918C83.2058 2.31 83.3364 2.77667 83.3364 3.318V3.472C83.3364 4.088 83.1871 4.58267 82.8884 4.956C82.5991 5.32 82.2444 5.57667 81.8244 5.726V5.95C82.1791 5.96867 82.4638 6.09 82.6784 6.314C82.8931 6.52867 83.0004 6.84133 83.0004 7.252V10.5H81.4744V7.462C81.4744 7.21 81.4091 7.00933 81.2784 6.86C81.1478 6.71067 80.9378 6.636 80.6484 6.636H77.6664V10.5H76.1544ZM77.6664 5.264H80.1024C80.6438 5.264 81.0638 5.12867 81.3624 4.858C81.6611 4.578 81.8104 4.2 81.8104 3.724V3.612C81.8104 3.136 81.6611 2.76267 81.3624 2.492C81.0731 2.212 80.6531 2.072 80.1024 2.072H77.6664V5.264ZM85.1401 10.5V0.699999H91.3141V2.072H86.6521V4.886H90.9221V6.258H86.6521V9.128H91.3841V10.5H85.1401ZM92.3724 10.5L95.1724 0.699999H97.8324L100.618 10.5H99.0644L98.4204 8.19H94.5844L93.9404 10.5H92.3724ZM94.9624 6.79H98.0424L96.6144 1.638H96.3904L94.9624 6.79ZM102.086 10.5V0.699999H104.928L107.07 9.492H107.294L109.436 0.699999H112.278V10.5H110.808V1.764H110.584L108.456 10.5H105.908L103.78 1.764H103.556V10.5H102.086ZM117.794 10.696C117.057 10.696 116.404 10.5653 115.834 10.304C115.265 10.0427 114.817 9.66 114.49 9.156C114.173 8.64267 114.014 8.022 114.014 7.294V6.944H115.512V7.294C115.512 7.98467 115.718 8.50267 116.128 8.848C116.548 9.19333 117.104 9.366 117.794 9.366C118.494 9.366 119.022 9.22133 119.376 8.932C119.731 8.63333 119.908 8.25067 119.908 7.784C119.908 7.476 119.824 7.224 119.656 7.028C119.488 6.832 119.25 6.678 118.942 6.566C118.634 6.44467 118.266 6.33267 117.836 6.23L117.318 6.104C116.693 5.95467 116.147 5.77267 115.68 5.558C115.223 5.334 114.868 5.04 114.616 4.676C114.364 4.312 114.238 3.84533 114.238 3.276C114.238 2.69733 114.378 2.20267 114.658 1.792C114.948 1.38133 115.344 1.064 115.848 0.839999C116.352 0.615999 116.945 0.503999 117.626 0.503999C118.308 0.503999 118.914 0.620666 119.446 0.854C119.988 1.08733 120.412 1.43267 120.72 1.89C121.028 2.34733 121.182 2.92133 121.182 3.612V4.116H119.684V3.612C119.684 3.192 119.596 2.85133 119.418 2.59C119.25 2.32867 119.012 2.13733 118.704 2.016C118.396 1.89467 118.037 1.834 117.626 1.834C117.029 1.834 116.562 1.96 116.226 2.212C115.9 2.45467 115.736 2.79533 115.736 3.234C115.736 3.53267 115.806 3.78 115.946 3.976C116.096 4.16267 116.31 4.31667 116.59 4.438C116.87 4.55933 117.22 4.66667 117.64 4.76L118.158 4.886C118.793 5.026 119.353 5.208 119.838 5.432C120.324 5.64667 120.706 5.94067 120.986 6.314C121.266 6.68733 121.406 7.168 121.406 7.756C121.406 8.344 121.257 8.85733 120.958 9.296C120.669 9.73467 120.254 10.08 119.712 10.332C119.171 10.5747 118.532 10.696 117.794 10.696Z" fill="#C9C9C9"/>
<path d="M289.396 53.8555V52.9075C289.396 52.3235 289.496 51.8435 289.696 51.4675C289.896 51.0915 290.18 50.7875 290.548 50.5555C290.924 50.3155 291.376 50.1155 291.904 49.9555L292.636 49.7275C292.964 49.6235 293.244 49.4955 293.476 49.3435C293.716 49.1915 293.9 49.0035 294.028 48.7795C294.156 48.5475 294.22 48.2795 294.22 47.9755V47.9275C294.22 47.4555 294.06 47.0875 293.74 46.8235C293.42 46.5515 293 46.4155 292.48 46.4155C291.944 46.4155 291.508 46.5595 291.172 46.8475C290.844 47.1355 290.68 47.5595 290.68 48.1195V48.3115H289.432V48.1315C289.432 47.5235 289.564 47.0115 289.828 46.5955C290.092 46.1715 290.456 45.8475 290.92 45.6235C291.384 45.3995 291.904 45.2875 292.48 45.2875C293.056 45.2875 293.568 45.3955 294.016 45.6115C294.472 45.8275 294.828 46.1315 295.084 46.5235C295.348 46.9155 295.48 47.3755 295.48 47.9035V48.0115C295.48 48.5555 295.372 49.0075 295.156 49.3675C294.94 49.7275 294.64 50.0235 294.256 50.2555C293.88 50.4875 293.444 50.6835 292.948 50.8435L292.24 51.0595C291.864 51.1715 291.56 51.2955 291.328 51.4315C291.104 51.5595 290.936 51.7155 290.824 51.8995C290.72 52.0835 290.668 52.3195 290.668 52.6075V52.7275H295.408V53.8555H289.396ZM299.737 54.0235C299.121 54.0235 298.573 53.9115 298.093 53.6875C297.613 53.4635 297.237 53.1395 296.965 52.7155C296.701 52.2915 296.569 51.7875 296.569 51.2035V50.9875H297.829V51.1795C297.829 51.7075 298.001 52.1275 298.345 52.4395C298.697 52.7435 299.161 52.8955 299.737 52.8955C300.313 52.8955 300.761 52.7515 301.081 52.4635C301.401 52.1755 301.561 51.8115 301.561 51.3715V51.2635C301.561 50.9515 301.485 50.6995 301.333 50.5075C301.181 50.3155 300.977 50.1755 300.721 50.0875C300.465 49.9915 300.177 49.9435 299.857 49.9435H298.333V48.4915L301.285 46.7515V46.5835H296.773V45.4555H302.653V47.1595L299.833 48.8395V49.0075H300.349C300.773 49.0075 301.173 49.0875 301.549 49.2475C301.925 49.4075 302.229 49.6515 302.461 49.9795C302.701 50.3075 302.821 50.7235 302.821 51.2275V51.3715C302.821 51.9075 302.693 52.3755 302.437 52.7755C302.181 53.1675 301.821 53.4755 301.357 53.6995C300.893 53.9155 300.353 54.0235 299.737 54.0235ZM304.362 53.8555V45.4555H306.798L308.634 52.9915H308.826L310.662 45.4555H313.098V53.8555H311.838V46.3675H311.646L309.822 53.8555H307.638L305.814 46.3675H305.622V53.8555H304.362Z" fill="#C9C9C9"/>
<path d="M2.12678 171.469V170.521C2.12678 169.937 2.22678 169.457 2.42678 169.081C2.62678 168.705 2.91078 168.401 3.27878 168.169C3.65478 167.929 4.10678 167.729 4.63478 167.569L5.36678 167.341C5.69478 167.237 5.97478 167.109 6.20678 166.957C6.44678 166.805 6.63078 166.617 6.75878 166.393C6.88678 166.161 6.95078 165.893 6.95078 165.589V165.541C6.95078 165.069 6.79078 164.701 6.47078 164.437C6.15078 164.165 5.73078 164.029 5.21078 164.029C4.67478 164.029 4.23878 164.173 3.90278 164.461C3.57478 164.749 3.41078 165.173 3.41078 165.733V165.925H2.16278V165.745C2.16278 165.137 2.29478 164.625 2.55878 164.209C2.82278 163.785 3.18678 163.461 3.65078 163.237C4.11478 163.013 4.63478 162.901 5.21078 162.901C5.78678 162.901 6.29878 163.009 6.74678 163.225C7.20278 163.441 7.55878 163.745 7.81478 164.137C8.07878 164.529 8.21078 164.989 8.21078 165.517V165.625C8.21078 166.169 8.10278 166.621 7.88678 166.981C7.67078 167.341 7.37078 167.637 6.98678 167.869C6.61078 168.101 6.17478 168.297 5.67878 168.457L4.97078 168.673C4.59478 168.785 4.29078 168.909 4.05878 169.045C3.83478 169.173 3.66678 169.329 3.55478 169.513C3.45078 169.697 3.39878 169.933 3.39878 170.221V170.341H8.13878V171.469H2.12678ZM11.9267 171.469V163.957H11.7347L10.3547 166.789H9.02266L10.8827 163.069H13.1867V171.469H11.9267ZM15.8335 171.637C15.5535 171.637 15.3175 171.545 15.1255 171.361C14.9415 171.177 14.8495 170.941 14.8495 170.653C14.8495 170.365 14.9415 170.133 15.1255 169.957C15.3175 169.773 15.5535 169.681 15.8335 169.681C16.1135 169.681 16.3455 169.773 16.5295 169.957C16.7215 170.141 16.8175 170.373 16.8175 170.653C16.8175 170.941 16.7215 171.177 16.5295 171.361C16.3455 171.545 16.1135 171.637 15.8335 171.637ZM21.2379 171.637C20.6059 171.637 20.0579 171.521 19.5939 171.289C19.1299 171.057 18.7699 170.729 18.5139 170.305C18.2659 169.881 18.1419 169.389 18.1419 168.829V168.697H19.4259V168.817C19.4259 169.329 19.5819 169.741 19.8939 170.053C20.2139 170.357 20.6579 170.509 21.2259 170.509C21.8099 170.509 22.2619 170.349 22.5819 170.029C22.9019 169.709 23.0619 169.277 23.0619 168.733V168.625C23.0619 168.105 22.9019 167.689 22.5819 167.377C22.2699 167.065 21.8699 166.909 21.3819 166.909C21.1099 166.909 20.8819 166.953 20.6979 167.041C20.5219 167.121 20.3779 167.221 20.2659 167.341C20.1619 167.461 20.0739 167.577 20.0019 167.689H18.4059V163.069H24.0339V164.209H19.6659V166.681H19.8579C19.9379 166.545 20.0499 166.417 20.1939 166.297C20.3459 166.169 20.5419 166.065 20.7819 165.985C21.0219 165.905 21.3099 165.865 21.6459 165.865C22.1419 165.865 22.5899 165.973 22.9899 166.189C23.3979 166.397 23.7219 166.709 23.9619 167.125C24.2019 167.533 24.3219 168.029 24.3219 168.613V168.745C24.3219 169.329 24.1979 169.837 23.9499 170.269C23.7019 170.701 23.3459 171.037 22.8819 171.277C22.4259 171.517 21.8779 171.637 21.2379 171.637ZM25.7935 171.469V163.069H28.2295L30.0655 170.605H30.2575L32.0935 163.069H34.5295V171.469H33.2695V163.981H33.0775L31.2535 171.469H29.0695L27.2455 163.981H27.0535V171.469H25.7935Z" fill="#C9C9C9"/>
<path d="M3.17285 156.544L57.2936 124.19L102.365 112.74L154.311 59.4411L206.257 64.6133L259.731 39.4041L313.13 34.8672" stroke="#1DB954" stroke-width="3" stroke-linecap="round" stroke-linejoin="round"/>
</svg>
