<svg width="75" height="17" viewBox="0 0 75 17" fill="none" xmlns="http://www.w3.org/2000/svg">
<path d="M1.36914 8.27344C1.36914 4.1313 4.72701 0.773438 8.86914 0.773438H66.8691C71.0113 0.773438 74.3691 4.1313 74.3691 8.27344C74.3691 12.4156 71.0113 15.7734 66.8691 15.7734H8.86914C4.727 15.7734 1.36914 12.4156 1.36914 8.27344Z" stroke="white"/>
<path d="M11.1199 12.4274C10.1812 12.4274 9.43691 12.1634 8.88691 11.6354C8.33691 11.1001 8.06191 10.3301 8.06191 9.32544V7.52144C8.06191 6.51677 8.33691 5.75044 8.88691 5.22244C9.43691 4.6871 10.1812 4.41944 11.1199 4.41944C12.0439 4.41944 12.7552 4.6761 13.2539 5.18944C13.7599 5.70277 14.0129 6.4031 14.0129 7.29044V7.35644H12.8359V7.25744C12.8359 6.73677 12.6929 6.31144 12.4069 5.98144C12.1282 5.65144 11.6992 5.48644 11.1199 5.48644C10.5332 5.48644 10.0749 5.6661 9.74491 6.02544C9.41491 6.37744 9.24991 6.86877 9.24991 7.49944V9.34744C9.24991 9.97077 9.41491 10.4621 9.74491 10.8214C10.0749 11.1808 10.5332 11.3604 11.1199 11.3604C11.6992 11.3604 12.1282 11.1954 12.4069 10.8654C12.6929 10.5281 12.8359 10.1028 12.8359 9.58944V9.40244H14.0129V9.55644C14.0129 10.4438 13.7599 11.1441 13.2539 11.6574C12.7552 12.1708 12.0439 12.4274 11.1199 12.4274ZM18.3313 12.4274C17.3853 12.4274 16.6336 12.1634 16.0763 11.6354C15.5189 11.1001 15.2403 10.3301 15.2403 9.32544V7.52144C15.2403 6.51677 15.5189 5.75044 16.0763 5.22244C16.6336 4.6871 17.3853 4.41944 18.3313 4.41944C19.2773 4.41944 20.0289 4.6871 20.5863 5.22244C21.1509 5.75044 21.4333 6.51677 21.4333 7.52144V9.32544C21.4333 10.3301 21.1509 11.1001 20.5863 11.6354C20.0289 12.1634 19.2773 12.4274 18.3313 12.4274ZM18.3313 11.3604C18.9399 11.3604 19.4093 11.1844 19.7393 10.8324C20.0693 10.4731 20.2343 9.98544 20.2343 9.36944V7.47744C20.2343 6.86144 20.0693 6.37744 19.7393 6.02544C19.4093 5.6661 18.9399 5.48644 18.3313 5.48644C17.7373 5.48644 17.2716 5.6661 16.9343 6.02544C16.5969 6.37744 16.4283 6.86144 16.4283 7.47744V9.36944C16.4283 9.98544 16.5969 10.4731 16.9343 10.8324C17.2716 11.1844 17.7373 11.3604 18.3313 11.3604ZM22.9496 12.2734V4.57344H25.2376L27.3276 11.4814H27.5036V4.57344H28.6806V12.2734H26.3926L24.3026 5.35444H24.1266V12.2734H22.9496ZM30.3966 12.2734V4.57344H35.1486V5.65144H31.5846V7.87344H34.8626V8.95144H31.5846V12.2734H30.3966ZM36.4148 12.2734V4.57344H37.6028V12.2734H36.4148ZM39.3177 12.2734V4.57344H42.5517C43.0284 4.57344 43.4464 4.65777 43.8057 4.82644C44.1724 4.98777 44.4547 5.22244 44.6527 5.53044C44.8581 5.83844 44.9607 6.2051 44.9607 6.63044V6.75144C44.9607 7.23544 44.8434 7.6241 44.6087 7.91744C44.3814 8.20344 44.1027 8.4051 43.7727 8.52244V8.69844C44.0514 8.7131 44.2751 8.80844 44.4437 8.98444C44.6124 9.1531 44.6967 9.39877 44.6967 9.72144V12.2734H43.4977V9.88644C43.4977 9.68844 43.4464 9.53077 43.3437 9.41344C43.2411 9.2961 43.0761 9.23744 42.8487 9.23744H40.5057V12.2734H39.3177ZM40.5057 8.15944H42.4197C42.8451 8.15944 43.1751 8.0531 43.4097 7.84044C43.6444 7.62044 43.7617 7.32344 43.7617 6.94944V6.86144C43.7617 6.48744 43.6444 6.1941 43.4097 5.98144C43.1824 5.76144 42.8524 5.65144 42.4197 5.65144H40.5057V8.15944ZM46.3779 12.2734V4.57344H48.6109L50.2939 11.4814H50.4699L52.1529 4.57344H54.3859V12.2734H53.2309V5.40944H53.0549L51.3829 12.2734H49.3809L47.7089 5.40944H47.5329V12.2734H46.3779ZM56.1022 12.2734V4.57344H60.9532V5.65144H57.2902V7.86244H60.6452V8.94044H57.2902V11.1954H61.0082V12.2734H56.1022ZM62.0707 12.2734V11.2174H63.1047V5.62944H62.0707V4.57344H65.1507C66.1774 4.57344 66.962 4.83377 67.5047 5.35444C68.0547 5.8751 68.3297 6.65977 68.3297 7.70844V9.14944C68.3297 10.1981 68.0547 10.9828 67.5047 11.5034C66.962 12.0168 66.1774 12.2734 65.1507 12.2734H62.0707ZM64.3037 11.1954H65.1617C65.829 11.1954 66.324 11.0268 66.6467 10.6894C66.9694 10.3521 67.1307 9.84977 67.1307 9.18244V7.66444C67.1307 6.98977 66.9694 6.48744 66.6467 6.15744C66.324 5.82744 65.829 5.66244 65.1617 5.66244H64.3037V11.1954Z" fill="white"/>
</svg>
