<svg width="40" height="17" viewBox="0 0 40 17" fill="none" xmlns="http://www.w3.org/2000/svg">
<path d="M1.36914 8.27344C1.36914 4.1313 4.72701 0.773438 8.86914 0.773438H31.8691C36.0113 0.773438 39.3691 4.1313 39.3691 8.27344C39.3691 12.4156 36.0113 15.7734 31.8691 15.7734H8.86914C4.727 15.7734 1.36914 12.4156 1.36914 8.27344Z" stroke="white"/>
<path d="M10.0541 12.2734V5.65144H7.68914V4.57344H13.6071V5.65144H11.2421V12.2734H10.0541ZM14.7939 12.2734V4.57344H19.6449V5.65144H15.9819V7.86244H19.3369V8.94044H15.9819V11.1954H19.6999V12.2734H14.7939ZM20.5425 12.2734L22.9075 8.39044L20.5755 4.57344H21.9395L23.6775 7.54344H23.8535L25.6025 4.57344H26.9665L24.6345 8.39044L26.9995 12.2734H25.6245L23.8535 9.23744H23.6775L21.9065 12.2734H20.5425ZM30.0423 12.2734V5.65144H27.6773V4.57344H33.5953V5.65144H31.2303V12.2734H30.0423Z" fill="white"/>
</svg>
