<svg width="59" height="17" viewBox="0 0 59 17" fill="none" xmlns="http://www.w3.org/2000/svg">
<path d="M1.36914 8.27344C1.36914 4.1313 4.72701 0.773438 8.86914 0.773438H50.8691C55.0113 0.773438 58.3691 4.1313 58.3691 8.27344C58.3691 12.4156 55.0113 15.7734 50.8691 15.7734H8.86914C4.72701 15.7734 1.36914 12.4156 1.36914 8.27344Z" stroke="#C9C9C9"/>
<path d="M8.18499 12.2734V4.57344H11.243C11.7123 4.57344 12.1303 4.66877 12.497 4.85944C12.871 5.04277 13.1607 5.30677 13.366 5.65144C13.5787 5.98877 13.685 6.39577 13.685 6.87244V7.01544C13.685 7.4921 13.575 7.90277 13.355 8.24744C13.1423 8.5921 12.8527 8.8561 12.486 9.03944C12.1193 9.22277 11.705 9.31444 11.243 9.31444H9.37299V12.2734H8.18499ZM9.37299 8.23644H11.122C11.54 8.23644 11.8737 8.12644 12.123 7.90644C12.3723 7.68644 12.497 7.38577 12.497 7.00444V6.89444C12.497 6.50577 12.3723 6.20144 12.123 5.98144C11.8737 5.76144 11.54 5.65144 11.122 5.65144H9.37299V8.23644ZM14.9229 12.2734V4.57344H19.7739V5.65144H16.1109V7.86244H19.4659V8.94044H16.1109V11.1954H19.8289V12.2734H14.9229ZM21.1775 12.2734V4.57344H23.4655L25.5555 11.4814H25.7315V4.57344H26.9085V12.2734H24.6205L22.5305 5.35444H22.3545V12.2734H21.1775ZM28.3384 12.2734V11.2174H29.3724V5.62944H28.3384V4.57344H31.4184C32.445 4.57344 33.2297 4.83377 33.7724 5.35444C34.3224 5.8751 34.5974 6.65977 34.5974 7.70844V9.14944C34.5974 10.1981 34.3224 10.9828 33.7724 11.5034C33.2297 12.0168 32.445 12.2734 31.4184 12.2734H28.3384ZM30.5714 11.1954H31.4294C32.0967 11.1954 32.5917 11.0268 32.9144 10.6894C33.237 10.3521 33.3984 9.84977 33.3984 9.18244V7.66444C33.3984 6.98977 33.237 6.48744 32.9144 6.15744C32.5917 5.82744 32.0967 5.66244 31.4294 5.66244H30.5714V11.1954ZM36.0498 12.2734V4.57344H37.2378V12.2734H36.0498ZM38.9528 12.2734V4.57344H41.2408L43.3308 11.4814H43.5068V4.57344H44.6838V12.2734H42.3958L40.3058 5.35444H40.1298V12.2734H38.9528ZM49.0727 12.4274C48.5227 12.4274 48.0313 12.3101 47.5987 12.0754C47.166 11.8334 46.825 11.4814 46.5757 11.0194C46.3263 10.5574 46.2017 9.99277 46.2017 9.32544V7.52144C46.2017 6.51677 46.4767 5.75044 47.0267 5.22244C47.5767 4.6871 48.321 4.41944 49.2597 4.41944C50.1837 4.41944 50.895 4.67244 51.3937 5.17844C51.8923 5.6771 52.1417 6.3481 52.1417 7.19144V7.24644H50.9647V7.15844C50.9647 6.8431 50.9023 6.56077 50.7777 6.31144C50.653 6.05477 50.466 5.8531 50.2167 5.70644C49.9673 5.55977 49.6483 5.48644 49.2597 5.48644C48.673 5.48644 48.2147 5.6661 47.8847 6.02544C47.5547 6.37744 47.3897 6.86877 47.3897 7.49944V9.34744C47.3897 9.97077 47.5547 10.4658 47.8847 10.8324C48.2147 11.1918 48.6767 11.3714 49.2707 11.3714C49.8573 11.3714 50.2863 11.2101 50.5577 10.8874C50.829 10.5648 50.9647 10.1468 50.9647 9.63344V9.49044H48.8967V8.46744H52.1417V12.2734H51.0417V11.4924H50.8657C50.7997 11.6318 50.7007 11.7748 50.5687 11.9214C50.444 12.0681 50.2607 12.1891 50.0187 12.2844C49.784 12.3798 49.4687 12.4274 49.0727 12.4274Z" fill="#C9C9C9"/>
</svg>
