<svg width="68" height="17" viewBox="0 0 68 17" fill="none" xmlns="http://www.w3.org/2000/svg">
<path d="M1.36914 8.27344C1.36914 4.1313 4.72701 0.773438 8.86914 0.773438H59.8691C64.0113 0.773438 67.3691 4.1313 67.3691 8.27344C67.3691 12.4156 64.0113 15.7734 59.8691 15.7734H8.86914C4.72701 15.7734 1.36914 12.4156 1.36914 8.27344Z" stroke="#D61402"/>
<path d="M10.8256 12.4274C9.88695 12.4274 9.14262 12.1634 8.59262 11.6354C8.04262 11.1001 7.76762 10.3301 7.76762 9.32544V7.52144C7.76762 6.51677 8.04262 5.75044 8.59262 5.22244C9.14262 4.6871 9.88695 4.41944 10.8256 4.41944C11.7496 4.41944 12.461 4.6761 12.9596 5.18944C13.4656 5.70277 13.7186 6.4031 13.7186 7.29044V7.35644H12.5416V7.25744C12.5416 6.73677 12.3986 6.31144 12.1126 5.98144C11.834 5.65144 11.405 5.48644 10.8256 5.48644C10.239 5.48644 9.78062 5.6661 9.45062 6.02544C9.12062 6.37744 8.95562 6.86877 8.95562 7.49944V9.34744C8.95562 9.97077 9.12062 10.4621 9.45062 10.8214C9.78062 11.1808 10.239 11.3604 10.8256 11.3604C11.405 11.3604 11.834 11.1954 12.1126 10.8654C12.3986 10.5281 12.5416 10.1028 12.5416 9.58944V9.40244H13.7186V9.55644C13.7186 10.4438 13.4656 11.1441 12.9596 11.6574C12.461 12.1708 11.7496 12.4274 10.8256 12.4274ZM14.4968 12.2734L16.6968 4.57344H18.7868L20.9758 12.2734H19.7548L19.2488 10.4584H16.2348L15.7288 12.2734H14.4968ZM16.5318 9.35844H18.9518L17.8298 5.31044H17.6538L16.5318 9.35844ZM22.129 12.2734V4.57344H24.417L26.507 11.4814H26.683V4.57344H27.86V12.2734H25.572L23.482 5.35444H23.306V12.2734H22.129ZM32.4359 12.4274C31.4972 12.4274 30.7529 12.1634 30.2029 11.6354C29.6529 11.1001 29.3779 10.3301 29.3779 9.32544V7.52144C29.3779 6.51677 29.6529 5.75044 30.2029 5.22244C30.7529 4.6871 31.4972 4.41944 32.4359 4.41944C33.3599 4.41944 34.0712 4.6761 34.5699 5.18944C35.0759 5.70277 35.3289 6.4031 35.3289 7.29044V7.35644H34.1519V7.25744C34.1519 6.73677 34.0089 6.31144 33.7229 5.98144C33.4442 5.65144 33.0152 5.48644 32.4359 5.48644C31.8492 5.48644 31.3909 5.6661 31.0609 6.02544C30.7309 6.37744 30.5659 6.86877 30.5659 7.49944V9.34744C30.5659 9.97077 30.7309 10.4621 31.0609 10.8214C31.3909 11.1808 31.8492 11.3604 32.4359 11.3604C33.0152 11.3604 33.4442 11.1954 33.7229 10.8654C34.0089 10.5281 34.1519 10.1028 34.1519 9.58944V9.40244H35.3289V9.55644C35.3289 10.4438 35.0759 11.1441 34.5699 11.6574C34.0712 12.1708 33.3599 12.4274 32.4359 12.4274ZM36.7543 12.2734V4.57344H41.6053V5.65144H37.9423V7.86244H41.2973V8.94044H37.9423V11.1954H41.6603V12.2734H36.7543ZM43.0088 12.2734V4.57344H44.1968V11.1954H47.9038V12.2734H43.0088ZM49.1022 12.2734V4.57344H53.9532V5.65144H50.2902V7.86244H53.6452V8.94044H50.2902V11.1954H54.0082V12.2734H49.1022ZM55.0707 12.2734V11.2174H56.1047V5.62944H55.0707V4.57344H58.1507C59.1774 4.57344 59.962 4.83377 60.5047 5.35444C61.0547 5.8751 61.3297 6.65977 61.3297 7.70844V9.14944C61.3297 10.1981 61.0547 10.9828 60.5047 11.5034C59.962 12.0168 59.1774 12.2734 58.1507 12.2734H55.0707ZM57.3037 11.1954H58.1617C58.829 11.1954 59.324 11.0268 59.6467 10.6894C59.9694 10.3521 60.1307 9.84977 60.1307 9.18244V7.66444C60.1307 6.98977 59.9694 6.48744 59.6467 6.15744C59.324 5.82744 58.829 5.66244 58.1617 5.66244H57.3037V11.1954Z" fill="#D61402"/>
</svg>
