<svg width="68" height="17" viewBox="0 0 68 17" fill="none" xmlns="http://www.w3.org/2000/svg">
<path d="M1.36914 8.27344C1.36914 4.1313 4.72701 0.773438 8.86914 0.773438H59.8691C64.0113 0.773438 67.3691 4.1313 67.3691 8.27344C67.3691 12.4156 64.0113 15.7734 59.8691 15.7734H8.86914C4.72701 15.7734 1.36914 12.4156 1.36914 8.27344Z" stroke="#FF4C00"/>
<path d="M7.7078 12.2734V4.57344H10.9418C11.4185 4.57344 11.8365 4.65777 12.1958 4.82644C12.5625 4.98777 12.8448 5.22244 13.0428 5.53044C13.2481 5.83844 13.3508 6.2051 13.3508 6.63044V6.75144C13.3508 7.23544 13.2335 7.6241 12.9988 7.91744C12.7715 8.20344 12.4928 8.4051 12.1628 8.52244V8.69844C12.4415 8.7131 12.6651 8.80844 12.8338 8.98444C13.0025 9.1531 13.0868 9.39877 13.0868 9.72144V12.2734H11.8878V9.88644C11.8878 9.68844 11.8365 9.53077 11.7338 9.41344C11.6311 9.2961 11.4661 9.23744 11.2388 9.23744H8.8958V12.2734H7.7078ZM8.8958 8.15944H10.8098C11.2351 8.15944 11.5651 8.0531 11.7998 7.84044C12.0345 7.62044 12.1518 7.32344 12.1518 6.94944V6.86144C12.1518 6.48744 12.0345 6.1941 11.7998 5.98144C11.5725 5.76144 11.2425 5.65144 10.8098 5.65144H8.8958V8.15944ZM17.386 12.4274C16.8067 12.4274 16.2933 12.3248 15.846 12.1194C15.3987 11.9141 15.0467 11.6134 14.79 11.2174C14.5407 10.8141 14.416 10.3264 14.416 9.75444V9.47944H15.593V9.75444C15.593 10.2971 15.7543 10.7041 16.077 10.9754C16.407 11.2468 16.8433 11.3824 17.386 11.3824C17.936 11.3824 18.3503 11.2688 18.629 11.0414C18.9077 10.8068 19.047 10.5061 19.047 10.1394C19.047 9.89744 18.981 9.69944 18.849 9.54544C18.717 9.39144 18.53 9.27044 18.288 9.18244C18.046 9.0871 17.7563 8.9991 17.419 8.91844L17.012 8.81944C16.5207 8.7021 16.0917 8.5591 15.725 8.39044C15.3657 8.21444 15.087 7.98344 14.889 7.69744C14.691 7.41144 14.592 7.04477 14.592 6.59744C14.592 6.14277 14.702 5.7541 14.922 5.43144C15.1493 5.10877 15.461 4.85944 15.857 4.68344C16.253 4.50744 16.7187 4.41944 17.254 4.41944C17.7893 4.41944 18.266 4.5111 18.684 4.69444C19.1093 4.87777 19.443 5.1491 19.685 5.50844C19.927 5.86777 20.048 6.31877 20.048 6.86144V7.25744H18.871V6.86144C18.871 6.53144 18.8013 6.26377 18.662 6.05844C18.53 5.8531 18.343 5.70277 18.101 5.60744C17.859 5.5121 17.5767 5.46444 17.254 5.46444C16.7847 5.46444 16.418 5.56344 16.154 5.76144C15.8973 5.9521 15.769 6.21977 15.769 6.56444C15.769 6.7991 15.824 6.99344 15.934 7.14744C16.0513 7.2941 16.22 7.4151 16.44 7.51044C16.66 7.60577 16.935 7.6901 17.265 7.76344L17.672 7.86244C18.1707 7.97244 18.6107 8.11544 18.992 8.29144C19.3733 8.4601 19.674 8.6911 19.894 8.98444C20.114 9.27777 20.224 9.65544 20.224 10.1174C20.224 10.5794 20.1067 10.9828 19.872 11.3274C19.6447 11.6721 19.3183 11.9434 18.893 12.1414C18.4677 12.3321 17.9653 12.4274 17.386 12.4274ZM23.036 12.2734L20.891 4.57344H22.123L23.993 11.5254H24.136L25.995 4.57344H27.227L25.093 12.2734H23.036ZM28.3835 12.2734V4.57344H31.4415C31.9108 4.57344 32.3288 4.66877 32.6955 4.85944C33.0695 5.04277 33.3592 5.30677 33.5645 5.65144C33.7772 5.98877 33.8835 6.39577 33.8835 6.87244V7.01544C33.8835 7.4921 33.7735 7.90277 33.5535 8.24744C33.3408 8.5921 33.0512 8.8561 32.6845 9.03944C32.3178 9.22277 31.9035 9.31444 31.4415 9.31444H29.5715V12.2734H28.3835ZM29.5715 8.23644H31.3205C31.7385 8.23644 32.0722 8.12644 32.3215 7.90644C32.5708 7.68644 32.6955 7.38577 32.6955 7.00444V6.89444C32.6955 6.50577 32.5708 6.20144 32.3215 5.98144C32.0722 5.76144 31.7385 5.65144 31.3205 5.65144H29.5715V8.23644ZM38.0351 12.2734V4.57344H40.3231L42.4131 11.4814H42.5891V4.57344H43.7661V12.2734H41.4781L39.3881 5.35444H39.2121V12.2734H38.0351ZM48.3751 12.4274C47.4291 12.4274 46.6774 12.1634 46.1201 11.6354C45.5627 11.1001 45.2841 10.3301 45.2841 9.32544V7.52144C45.2841 6.51677 45.5627 5.75044 46.1201 5.22244C46.6774 4.6871 47.4291 4.41944 48.3751 4.41944C49.3211 4.41944 50.0727 4.6871 50.6301 5.22244C51.1947 5.75044 51.4771 6.51677 51.4771 7.52144V9.32544C51.4771 10.3301 51.1947 11.1001 50.6301 11.6354C50.0727 12.1634 49.3211 12.4274 48.3751 12.4274ZM48.3751 11.3604C48.9837 11.3604 49.4531 11.1844 49.7831 10.8324C50.1131 10.4731 50.2781 9.98544 50.2781 9.36944V7.47744C50.2781 6.86144 50.1131 6.37744 49.7831 6.02544C49.4531 5.6661 48.9837 5.48644 48.3751 5.48644C47.7811 5.48644 47.3154 5.6661 46.9781 6.02544C46.6407 6.37744 46.4721 6.86144 46.4721 7.47744V9.36944C46.4721 9.98544 46.6407 10.4731 46.9781 10.8324C47.3154 11.1844 47.7811 11.3604 48.3751 11.3604ZM53.6112 12.2734L52.4782 4.57344H53.6662L54.5902 11.4704H54.7662L55.9542 4.57344H58.0332L59.2212 11.4704H59.3972L60.3102 4.57344H61.4982L60.3652 12.2734H58.2862L57.0762 5.27744H56.9002L55.7012 12.2734H53.6112Z" fill="#FF4C00"/>
</svg>
