<svg width="96" height="12" viewBox="0 0 96 12" fill="none" xmlns="http://www.w3.org/2000/svg">
<g clip-path="url(#clip0_14657_1192)">
<path d="M10.5 8L6.5 4L2.5 8" stroke="white" stroke-linecap="round" stroke-linejoin="round"/>
</g>
<path d="M18.66 9V3.582H16.725V2.7H21.567V3.582H19.632V9H18.66ZM21.446 9L23.246 2.7H24.956L26.747 9H25.748L25.334 7.515H22.868L22.454 9H21.446ZM23.111 6.615H25.091L24.173 3.303H24.029L23.111 6.615ZM27.6905 9V2.7H30.1925C30.5765 2.7 30.9185 2.778 31.2185 2.934C31.5245 3.084 31.7615 3.3 31.9295 3.582C32.1035 3.858 32.1905 4.191 32.1905 4.581V4.698C32.1905 5.088 32.1005 5.424 31.9205 5.706C31.7465 5.988 31.5095 6.204 31.2095 6.354C30.9095 6.504 30.5705 6.579 30.1925 6.579H28.6625V9H27.6905ZM28.6625 5.697H30.0935C30.4355 5.697 30.7085 5.607 30.9125 5.427C31.1165 5.247 31.2185 5.001 31.2185 4.689V4.599C31.2185 4.281 31.1165 4.032 30.9125 3.852C30.7085 3.672 30.4355 3.582 30.0935 3.582H28.6625V5.697ZM35.5873 9V2.7H39.4753V3.582H36.5593V5.4H39.2413V6.282H36.5593V9H35.5873ZM42.8168 9.126C42.0428 9.126 41.4278 8.91 40.9718 8.478C40.5158 8.04 40.2878 7.41 40.2878 6.588V5.112C40.2878 4.29 40.5158 3.663 40.9718 3.231C41.4278 2.793 42.0428 2.574 42.8168 2.574C43.5908 2.574 44.2058 2.793 44.6618 3.231C45.1238 3.663 45.3548 4.29 45.3548 5.112V6.588C45.3548 7.41 45.1238 8.04 44.6618 8.478C44.2058 8.91 43.5908 9.126 42.8168 9.126ZM42.8168 8.253C43.3148 8.253 43.6988 8.109 43.9688 7.821C44.2388 7.527 44.3738 7.128 44.3738 6.624V5.076C44.3738 4.572 44.2388 4.176 43.9688 3.888C43.6988 3.594 43.3148 3.447 42.8168 3.447C42.3308 3.447 41.9498 3.594 41.6738 3.888C41.3978 4.176 41.2598 4.572 41.2598 5.076V6.624C41.2598 7.128 41.3978 7.527 41.6738 7.821C41.9498 8.109 42.3308 8.253 42.8168 8.253ZM46.5954 9V2.7H49.2414C49.6314 2.7 49.9734 2.769 50.2674 2.907C50.5674 3.039 50.7984 3.231 50.9604 3.483C51.1284 3.735 51.2124 4.035 51.2124 4.383V4.482C51.2124 4.878 51.1164 5.196 50.9244 5.436C50.7384 5.67 50.5104 5.835 50.2404 5.931V6.075C50.4684 6.087 50.6514 6.165 50.7894 6.309C50.9274 6.447 50.9964 6.648 50.9964 6.912V9H50.0154V7.047C50.0154 6.885 49.9734 6.756 49.8894 6.66C49.8054 6.564 49.6704 6.516 49.4844 6.516H47.5674V9H46.5954ZM47.5674 5.634H49.1334C49.4814 5.634 49.7514 5.547 49.9434 5.373C50.1354 5.193 50.2314 4.95 50.2314 4.644V4.572C50.2314 4.266 50.1354 4.026 49.9434 3.852C49.7574 3.672 49.4874 3.582 49.1334 3.582H47.5674V5.634ZM54.7559 9V2.7H56.5829L57.9599 8.352H58.1039L59.4809 2.7H61.3079V9H60.3629V3.384H60.2189L58.8509 9H57.2129L55.8449 3.384H55.7009V9H54.7559ZM65.0791 9.126C64.3051 9.126 63.6901 8.91 63.2341 8.478C62.7781 8.04 62.5501 7.41 62.5501 6.588V5.112C62.5501 4.29 62.7781 3.663 63.2341 3.231C63.6901 2.793 64.3051 2.574 65.0791 2.574C65.8531 2.574 66.4681 2.793 66.9241 3.231C67.3861 3.663 67.6171 4.29 67.6171 5.112V6.588C67.6171 7.41 67.3861 8.04 66.9241 8.478C66.4681 8.91 65.8531 9.126 65.0791 9.126ZM65.0791 8.253C65.5771 8.253 65.9611 8.109 66.2311 7.821C66.5011 7.527 66.6361 7.128 66.6361 6.624V5.076C66.6361 4.572 66.5011 4.176 66.2311 3.888C65.9611 3.594 65.5771 3.447 65.0791 3.447C64.5931 3.447 64.2121 3.594 63.9361 3.888C63.6601 4.176 63.5221 4.572 63.5221 5.076V6.624C63.5221 7.128 63.6601 7.527 63.9361 7.821C64.2121 8.109 64.5931 8.253 65.0791 8.253ZM68.8578 9V2.7H71.5038C71.8938 2.7 72.2358 2.769 72.5298 2.907C72.8298 3.039 73.0608 3.231 73.2228 3.483C73.3908 3.735 73.4748 4.035 73.4748 4.383V4.482C73.4748 4.878 73.3788 5.196 73.1868 5.436C73.0008 5.67 72.7728 5.835 72.5028 5.931V6.075C72.7308 6.087 72.9138 6.165 73.0518 6.309C73.1898 6.447 73.2588 6.648 73.2588 6.912V9H72.2778V7.047C72.2778 6.885 72.2358 6.756 72.1518 6.66C72.0678 6.564 71.9328 6.516 71.7468 6.516H69.8298V9H68.8578ZM69.8298 5.634H71.3958C71.7438 5.634 72.0138 5.547 72.2058 5.373C72.3978 5.193 72.4938 4.95 72.4938 4.644V4.572C72.4938 4.266 72.3978 4.026 72.2058 3.852C72.0198 3.672 71.7498 3.582 71.3958 3.582H69.8298V5.634ZM74.6343 9V2.7H78.6033V3.582H75.6063V5.391H78.3513V6.273H75.6063V8.118H78.6483V9H74.6343Z" fill="#303030"/>
<defs>
<clipPath id="clip0_14657_1192">
<rect width="12" height="12" fill="white" transform="translate(12.5 12) rotate(-180)"/>
</clipPath>
</defs>
</svg>
