<svg width="96" height="13" viewBox="0 0 96 13" fill="none" xmlns="http://www.w3.org/2000/svg">
<g clip-path="url(#clip0_14657_1243)">
<path d="M2.5 4.5L6.5 8.5L10.5 4.5" stroke="white" stroke-linecap="round" stroke-linejoin="round"/>
</g>
<path d="M18.66 9.5V4.082H16.725V3.2H21.567V4.082H19.632V9.5H18.66ZM21.446 9.5L23.246 3.2H24.956L26.747 9.5H25.748L25.334 8.015H22.868L22.454 9.5H21.446ZM23.111 7.115H25.091L24.173 3.803H24.029L23.111 7.115ZM27.6905 9.5V3.2H30.1925C30.5765 3.2 30.9185 3.278 31.2185 3.434C31.5245 3.584 31.7615 3.8 31.9295 4.082C32.1035 4.358 32.1905 4.691 32.1905 5.081V5.198C32.1905 5.588 32.1005 5.924 31.9205 6.206C31.7465 6.488 31.5095 6.704 31.2095 6.854C30.9095 7.004 30.5705 7.079 30.1925 7.079H28.6625V9.5H27.6905ZM28.6625 6.197H30.0935C30.4355 6.197 30.7085 6.107 30.9125 5.927C31.1165 5.747 31.2185 5.501 31.2185 5.189V5.099C31.2185 4.781 31.1165 4.532 30.9125 4.352C30.7085 4.172 30.4355 4.082 30.0935 4.082H28.6625V6.197ZM35.5873 9.5V3.2H39.4753V4.082H36.5593V5.9H39.2413V6.782H36.5593V9.5H35.5873ZM42.8168 9.626C42.0428 9.626 41.4278 9.41 40.9718 8.978C40.5158 8.54 40.2878 7.91 40.2878 7.088V5.612C40.2878 4.79 40.5158 4.163 40.9718 3.731C41.4278 3.293 42.0428 3.074 42.8168 3.074C43.5908 3.074 44.2058 3.293 44.6618 3.731C45.1238 4.163 45.3548 4.79 45.3548 5.612V7.088C45.3548 7.91 45.1238 8.54 44.6618 8.978C44.2058 9.41 43.5908 9.626 42.8168 9.626ZM42.8168 8.753C43.3148 8.753 43.6988 8.609 43.9688 8.321C44.2388 8.027 44.3738 7.628 44.3738 7.124V5.576C44.3738 5.072 44.2388 4.676 43.9688 4.388C43.6988 4.094 43.3148 3.947 42.8168 3.947C42.3308 3.947 41.9498 4.094 41.6738 4.388C41.3978 4.676 41.2598 5.072 41.2598 5.576V7.124C41.2598 7.628 41.3978 8.027 41.6738 8.321C41.9498 8.609 42.3308 8.753 42.8168 8.753ZM46.5954 9.5V3.2H49.2414C49.6314 3.2 49.9734 3.269 50.2674 3.407C50.5674 3.539 50.7984 3.731 50.9604 3.983C51.1284 4.235 51.2124 4.535 51.2124 4.883V4.982C51.2124 5.378 51.1164 5.696 50.9244 5.936C50.7384 6.17 50.5104 6.335 50.2404 6.431V6.575C50.4684 6.587 50.6514 6.665 50.7894 6.809C50.9274 6.947 50.9964 7.148 50.9964 7.412V9.5H50.0154V7.547C50.0154 7.385 49.9734 7.256 49.8894 7.16C49.8054 7.064 49.6704 7.016 49.4844 7.016H47.5674V9.5H46.5954ZM47.5674 6.134H49.1334C49.4814 6.134 49.7514 6.047 49.9434 5.873C50.1354 5.693 50.2314 5.45 50.2314 5.144V5.072C50.2314 4.766 50.1354 4.526 49.9434 4.352C49.7574 4.172 49.4874 4.082 49.1334 4.082H47.5674V6.134ZM54.7559 9.5V3.2H56.5829L57.9599 8.852H58.1039L59.4809 3.2H61.3079V9.5H60.3629V3.884H60.2189L58.8509 9.5H57.2129L55.8449 3.884H55.7009V9.5H54.7559ZM65.0791 9.626C64.3051 9.626 63.6901 9.41 63.2341 8.978C62.7781 8.54 62.5501 7.91 62.5501 7.088V5.612C62.5501 4.79 62.7781 4.163 63.2341 3.731C63.6901 3.293 64.3051 3.074 65.0791 3.074C65.8531 3.074 66.4681 3.293 66.9241 3.731C67.3861 4.163 67.6171 4.79 67.6171 5.612V7.088C67.6171 7.91 67.3861 8.54 66.9241 8.978C66.4681 9.41 65.8531 9.626 65.0791 9.626ZM65.0791 8.753C65.5771 8.753 65.9611 8.609 66.2311 8.321C66.5011 8.027 66.6361 7.628 66.6361 7.124V5.576C66.6361 5.072 66.5011 4.676 66.2311 4.388C65.9611 4.094 65.5771 3.947 65.0791 3.947C64.5931 3.947 64.2121 4.094 63.9361 4.388C63.6601 4.676 63.5221 5.072 63.5221 5.576V7.124C63.5221 7.628 63.6601 8.027 63.9361 8.321C64.2121 8.609 64.5931 8.753 65.0791 8.753ZM68.8578 9.5V3.2H71.5038C71.8938 3.2 72.2358 3.269 72.5298 3.407C72.8298 3.539 73.0608 3.731 73.2228 3.983C73.3908 4.235 73.4748 4.535 73.4748 4.883V4.982C73.4748 5.378 73.3788 5.696 73.1868 5.936C73.0008 6.17 72.7728 6.335 72.5028 6.431V6.575C72.7308 6.587 72.9138 6.665 73.0518 6.809C73.1898 6.947 73.2588 7.148 73.2588 7.412V9.5H72.2778V7.547C72.2778 7.385 72.2358 7.256 72.1518 7.16C72.0678 7.064 71.9328 7.016 71.7468 7.016H69.8298V9.5H68.8578ZM69.8298 6.134H71.3958C71.7438 6.134 72.0138 6.047 72.2058 5.873C72.3978 5.693 72.4938 5.45 72.4938 5.144V5.072C72.4938 4.766 72.3978 4.526 72.2058 4.352C72.0198 4.172 71.7498 4.082 71.3958 4.082H69.8298V6.134ZM74.6343 9.5V3.2H78.6033V4.082H75.6063V5.891H78.3513V6.773H75.6063V8.618H78.6483V9.5H74.6343Z" fill="#FF4C00"/>
<defs>
<clipPath id="clip0_14657_1243">
<rect width="12" height="12" fill="white" transform="translate(0.5 0.5)"/>
</clipPath>
</defs>
</svg>
