<svg width="56" height="18" viewBox="0 0 56 18" fill="none" xmlns="http://www.w3.org/2000/svg">
<path d="M4.43136 15.4494V4.21269C4.43136 3.93598 4.65566 3.71168 4.93237 3.71168C5.20907 3.71168 5.43337 3.93598 5.43337 4.21269V17.4233H9.8183L9.04113 8.90929L8.26397 0.395241L1.50491 0.390625L0 17.4233H4.43136V15.4494Z" fill="#FF4C00"/>
<path d="M12.2217 17.4219V0.555207H17.0617L18.6384 11.0052H18.8767L18.7667 8.54854V0.555207H22.3234V17.4219H17.465L15.8884 6.97187H15.6684L15.7784 9.42854V17.4219H12.2217ZM23.1358 17.4219V0.555207H29.2224V3.78187H27.0041V7.33854H29.1674V10.5285H27.0041V14.1952H29.2224V17.4219H23.1358ZM42.1096 0.555207H45.8679L44.5663 17.4219H38.6079L37.8746 4.73521H37.6913L36.9579 17.4219H30.9996L29.6979 0.555207H33.4563L34.0979 13.2602H34.2813L35.0879 0.555207H40.4779L41.2846 13.2602H41.4679L42.1096 0.555207ZM50.6561 17.6235C48.0528 17.6235 46.4211 16.6335 46.4211 13.8102V11.3535H50.1428V13.7919C50.1428 14.2685 50.3261 14.4152 50.6378 14.4152C50.9128 14.4152 51.1144 14.2685 51.1144 13.7919V11.5002C51.1144 9.77688 46.4028 11.0419 46.4028 6.69687V4.16687C46.4028 1.34354 48.0528 0.353541 50.6378 0.353541C53.2411 0.353541 54.8544 1.34354 54.8544 4.16687V6.62354H51.1328V4.18521C51.1328 3.70854 50.9494 3.56188 50.6561 3.56188C50.3628 3.56188 50.1794 3.70854 50.1794 4.18521V6.47687C50.1794 8.20021 54.9094 6.93521 54.9094 11.2802V13.8102C54.9094 16.6335 53.2594 17.6235 50.6561 17.6235Z" fill="white"/>
</svg>
