<svg width="27" height="26" viewBox="0 0 27 26" fill="none" xmlns="http://www.w3.org/2000/svg">
<path d="M20 7.57985V6.06651C20 4.6428 18.6506 3.60595 17.2751 3.97278L5.35839 7.1509C4.40993 7.40386 3.75 8.26292 3.75 9.24463V9.74675" stroke="#888888" stroke-width="1.62509"/>
<path d="M21.0833 21.6615H5.91667C4.72005 21.6615 3.75 20.6914 3.75 19.4948V9.74479C3.75 8.54817 4.72005 7.57812 5.91667 7.57812H21.0833C22.28 7.57812 23.25 8.54817 23.25 9.74479V19.4948C23.25 20.6914 22.28 21.6615 21.0833 21.6615Z" stroke="#888888" stroke-width="1.625"/>
<path d="M18.3737 15.1615C18.0746 15.1615 17.832 14.9189 17.832 14.6198C17.832 14.3207 18.0746 14.0781 18.3737 14.0781C18.6728 14.0781 18.9154 14.3207 18.9154 14.6198C18.9154 14.9189 18.6728 15.1615 18.3737 15.1615Z" fill="#888888" stroke="#888888" stroke-width="1.625" stroke-linecap="round" stroke-linejoin="round"/>
</svg>
