<svg width="345" height="176" viewBox="0 0 345 176" fill="none" xmlns="http://www.w3.org/2000/svg">
<path d="M0 8C0 3.58172 3.58172 0 8 0H337C341.418 0 345 3.58172 345 8V168C345 172.418 341.418 176 337 176H8C3.58172 176 0 172.418 0 168V8Z" fill="#1F1F1F" fill-opacity="0.88"/>
<path d="M307.496 24.168C306.888 24.168 306.352 24.052 305.888 23.82C305.424 23.58 305.064 23.248 304.808 22.824C304.552 22.4 304.424 21.908 304.424 21.348V18.444C304.424 17.788 304.552 17.236 304.808 16.788C305.072 16.34 305.44 16.004 305.912 15.78C306.384 15.548 306.932 15.432 307.556 15.432C308.172 15.432 308.704 15.54 309.152 15.756C309.6 15.964 309.944 16.264 310.184 16.656C310.424 17.04 310.544 17.492 310.544 18.012H309.272C309.272 17.596 309.132 17.252 308.852 16.98C308.58 16.7 308.148 16.56 307.556 16.56C306.956 16.56 306.492 16.72 306.164 17.04C305.844 17.352 305.684 17.788 305.684 18.348V19.356H305.876C306.012 19.164 306.232 18.98 306.536 18.804C306.848 18.628 307.288 18.54 307.856 18.54C308.352 18.54 308.808 18.648 309.224 18.864C309.64 19.08 309.972 19.388 310.22 19.788C310.476 20.188 310.604 20.672 310.604 21.24V21.384C310.604 21.936 310.472 22.424 310.208 22.848C309.944 23.264 309.576 23.588 309.104 23.82C308.64 24.052 308.104 24.168 307.496 24.168ZM307.508 23.04C308.068 23.04 308.512 22.888 308.84 22.584C309.176 22.28 309.344 21.872 309.344 21.36V21.264C309.344 20.92 309.268 20.624 309.116 20.376C308.964 20.12 308.748 19.92 308.468 19.776C308.196 19.632 307.876 19.56 307.508 19.56C307.148 19.56 306.828 19.632 306.548 19.776C306.276 19.92 306.064 20.12 305.912 20.376C305.76 20.624 305.684 20.92 305.684 21.264V21.36C305.684 21.872 305.848 22.28 306.176 22.584C306.512 22.888 306.956 23.04 307.508 23.04ZM311.796 24V23.052C311.796 22.468 311.896 21.988 312.096 21.612C312.296 21.236 312.58 20.932 312.948 20.7C313.324 20.46 313.776 20.26 314.304 20.1L315.036 19.872C315.364 19.768 315.644 19.64 315.876 19.488C316.116 19.336 316.3 19.148 316.428 18.924C316.556 18.692 316.62 18.424 316.62 18.12V18.072C316.62 17.6 316.46 17.232 316.14 16.968C315.82 16.696 315.4 16.56 314.88 16.56C314.344 16.56 313.908 16.704 313.572 16.992C313.244 17.28 313.08 17.704 313.08 18.264V18.456H311.832V18.276C311.832 17.668 311.964 17.156 312.228 16.74C312.492 16.316 312.856 15.992 313.32 15.768C313.784 15.544 314.304 15.432 314.88 15.432C315.456 15.432 315.968 15.54 316.416 15.756C316.872 15.972 317.228 16.276 317.484 16.668C317.748 17.06 317.88 17.52 317.88 18.048V18.156C317.88 18.7 317.772 19.152 317.556 19.512C317.34 19.872 317.04 20.168 316.656 20.4C316.28 20.632 315.844 20.828 315.348 20.988L314.64 21.204C314.264 21.316 313.96 21.44 313.728 21.576C313.504 21.704 313.336 21.86 313.224 22.044C313.12 22.228 313.068 22.464 313.068 22.752V22.872H317.808V24H311.796ZM319.388 24V15.6H321.824L323.66 23.136H323.852L325.688 15.6H328.124V24H326.864V16.512H326.672L324.848 24H322.664L320.84 16.512H320.648V24H319.388Z" fill="#C9C9C9"/>
<path d="M19.624 160.168C18.992 160.168 18.444 160.052 17.98 159.82C17.516 159.588 17.156 159.26 16.9 158.836C16.652 158.412 16.528 157.92 16.528 157.36V157.228H17.812V157.348C17.812 157.86 17.968 158.272 18.28 158.584C18.6 158.888 19.044 159.04 19.612 159.04C20.196 159.04 20.648 158.88 20.968 158.56C21.288 158.24 21.448 157.808 21.448 157.264V157.156C21.448 156.636 21.288 156.22 20.968 155.908C20.656 155.596 20.256 155.44 19.768 155.44C19.496 155.44 19.268 155.484 19.084 155.572C18.908 155.652 18.764 155.752 18.652 155.872C18.548 155.992 18.46 156.108 18.388 156.22H16.792V151.6H22.42V152.74H18.052V155.212H18.244C18.324 155.076 18.436 154.948 18.58 154.828C18.732 154.7 18.928 154.596 19.168 154.516C19.408 154.436 19.696 154.396 20.032 154.396C20.528 154.396 20.976 154.504 21.376 154.72C21.784 154.928 22.108 155.24 22.348 155.656C22.588 156.064 22.708 156.56 22.708 157.144V157.276C22.708 157.86 22.584 158.368 22.336 158.8C22.088 159.232 21.732 159.568 21.268 159.808C20.812 160.048 20.264 160.168 19.624 160.168ZM27.1676 160.168C26.1916 160.168 25.4116 159.892 24.8276 159.34C24.2516 158.78 23.9636 157.94 23.9636 156.82V154.78C23.9636 153.684 24.2516 152.852 24.8276 152.284C25.4116 151.716 26.1916 151.432 27.1676 151.432C28.1516 151.432 28.9316 151.716 29.5076 152.284C30.0916 152.852 30.3836 153.684 30.3836 154.78V156.82C30.3836 157.94 30.0916 158.78 29.5076 159.34C28.9316 159.892 28.1516 160.168 27.1676 160.168ZM27.1676 159.04C27.8316 159.04 28.3236 158.852 28.6436 158.476C28.9636 158.092 29.1236 157.556 29.1236 156.868V154.708C29.1236 154.02 28.9516 153.492 28.6076 153.124C28.2636 152.748 27.7836 152.56 27.1676 152.56C26.5436 152.56 26.0636 152.752 25.7276 153.136C25.3916 153.512 25.2236 154.036 25.2236 154.708V156.868C25.2236 157.572 25.3836 158.112 25.7036 158.488C26.0316 158.856 26.5196 159.04 27.1676 159.04ZM32.034 160V151.6H34.47L36.306 159.136H36.498L38.334 151.6H40.77V160H39.51V152.512H39.318L37.494 160H35.31L33.486 152.512H33.294V160H32.034Z" fill="#C9C9C9"/>
<path d="M17.3525 144.043L79 113.021L154.5 83.5H206.5L228 34.1719L268.287 37.8396L324.218 34.1719" stroke="#1DB954" stroke-width="3" stroke-linecap="round" stroke-linejoin="round"/>
</svg>
