<svg width="345" height="176" viewBox="0 0 345 176" fill="none" xmlns="http://www.w3.org/2000/svg">
<path d="M0 8C0 3.58172 3.58172 0 8 0H337C341.418 0 345 3.58172 345 8V168C345 172.418 341.418 176 337 176H8C3.58172 176 0 172.418 0 168V8Z" fill="#1F1F1F" fill-opacity="0.88"/>
<path d="M306.887 24.168C306.279 24.168 305.743 24.052 305.279 23.82C304.815 23.58 304.455 23.248 304.199 22.824C303.943 22.4 303.815 21.908 303.815 21.348V18.444C303.815 17.788 303.943 17.236 304.199 16.788C304.463 16.34 304.831 16.004 305.303 15.78C305.775 15.548 306.323 15.432 306.947 15.432C307.563 15.432 308.095 15.54 308.543 15.756C308.991 15.964 309.335 16.264 309.575 16.656C309.815 17.04 309.935 17.492 309.935 18.012H308.663C308.663 17.596 308.523 17.252 308.243 16.98C307.971 16.7 307.539 16.56 306.947 16.56C306.347 16.56 305.883 16.72 305.555 17.04C305.235 17.352 305.075 17.788 305.075 18.348V19.356H305.267C305.403 19.164 305.623 18.98 305.927 18.804C306.239 18.628 306.679 18.54 307.247 18.54C307.743 18.54 308.199 18.648 308.615 18.864C309.031 19.08 309.363 19.388 309.611 19.788C309.867 20.188 309.995 20.672 309.995 21.24V21.384C309.995 21.936 309.863 22.424 309.599 22.848C309.335 23.264 308.967 23.588 308.495 23.82C308.031 24.052 307.495 24.168 306.887 24.168ZM306.899 23.04C307.459 23.04 307.903 22.888 308.231 22.584C308.567 22.28 308.735 21.872 308.735 21.36V21.264C308.735 20.92 308.659 20.624 308.507 20.376C308.355 20.12 308.139 19.92 307.859 19.776C307.587 19.632 307.267 19.56 306.899 19.56C306.539 19.56 306.219 19.632 305.939 19.776C305.667 19.92 305.455 20.12 305.303 20.376C305.151 20.624 305.075 20.92 305.075 21.264V21.36C305.075 21.872 305.239 22.28 305.567 22.584C305.903 22.888 306.347 23.04 306.899 23.04ZM314.521 24.168C313.545 24.168 312.765 23.892 312.181 23.34C311.605 22.78 311.317 21.94 311.317 20.82V18.78C311.317 17.684 311.605 16.852 312.181 16.284C312.765 15.716 313.545 15.432 314.521 15.432C315.505 15.432 316.285 15.716 316.861 16.284C317.445 16.852 317.737 17.684 317.737 18.78V20.82C317.737 21.94 317.445 22.78 316.861 23.34C316.285 23.892 315.505 24.168 314.521 24.168ZM314.521 23.04C315.185 23.04 315.677 22.852 315.997 22.476C316.317 22.092 316.477 21.556 316.477 20.868V18.708C316.477 18.02 316.305 17.492 315.961 17.124C315.617 16.748 315.137 16.56 314.521 16.56C313.897 16.56 313.417 16.752 313.081 17.136C312.745 17.512 312.577 18.036 312.577 18.708V20.868C312.577 21.572 312.737 22.112 313.057 22.488C313.385 22.856 313.873 23.04 314.521 23.04ZM319.388 24V15.6H321.824L323.66 23.136H323.852L325.688 15.6H328.124V24H326.864V16.512H326.672L324.848 24H322.664L320.84 16.512H320.648V24H319.388Z" fill="#C9C9C9"/>
<path d="M19.624 160.168C18.992 160.168 18.444 160.052 17.98 159.82C17.516 159.588 17.156 159.26 16.9 158.836C16.652 158.412 16.528 157.92 16.528 157.36V157.228H17.812V157.348C17.812 157.86 17.968 158.272 18.28 158.584C18.6 158.888 19.044 159.04 19.612 159.04C20.196 159.04 20.648 158.88 20.968 158.56C21.288 158.24 21.448 157.808 21.448 157.264V157.156C21.448 156.636 21.288 156.22 20.968 155.908C20.656 155.596 20.256 155.44 19.768 155.44C19.496 155.44 19.268 155.484 19.084 155.572C18.908 155.652 18.764 155.752 18.652 155.872C18.548 155.992 18.46 156.108 18.388 156.22H16.792V151.6H22.42V152.74H18.052V155.212H18.244C18.324 155.076 18.436 154.948 18.58 154.828C18.732 154.7 18.928 154.596 19.168 154.516C19.408 154.436 19.696 154.396 20.032 154.396C20.528 154.396 20.976 154.504 21.376 154.72C21.784 154.928 22.108 155.24 22.348 155.656C22.588 156.064 22.708 156.56 22.708 157.144V157.276C22.708 157.86 22.584 158.368 22.336 158.8C22.088 159.232 21.732 159.568 21.268 159.808C20.812 160.048 20.264 160.168 19.624 160.168ZM27.1676 160.168C26.1916 160.168 25.4116 159.892 24.8276 159.34C24.2516 158.78 23.9636 157.94 23.9636 156.82V154.78C23.9636 153.684 24.2516 152.852 24.8276 152.284C25.4116 151.716 26.1916 151.432 27.1676 151.432C28.1516 151.432 28.9316 151.716 29.5076 152.284C30.0916 152.852 30.3836 153.684 30.3836 154.78V156.82C30.3836 157.94 30.0916 158.78 29.5076 159.34C28.9316 159.892 28.1516 160.168 27.1676 160.168ZM27.1676 159.04C27.8316 159.04 28.3236 158.852 28.6436 158.476C28.9636 158.092 29.1236 157.556 29.1236 156.868V154.708C29.1236 154.02 28.9516 153.492 28.6076 153.124C28.2636 152.748 27.7836 152.56 27.1676 152.56C26.5436 152.56 26.0636 152.752 25.7276 153.136C25.3916 153.512 25.2236 154.036 25.2236 154.708V156.868C25.2236 157.572 25.3836 158.112 25.7036 158.488C26.0316 158.856 26.5196 159.04 27.1676 159.04ZM32.034 160V151.6H34.47L36.306 159.136H36.498L38.334 151.6H40.77V160H39.51V152.512H39.318L37.494 160H35.31L33.486 152.512H33.294V160H32.034Z" fill="#C9C9C9"/>
<path d="M17.3525 144.043L87.1989 121.278H155.732L207.579 113.021L220.437 52.1117L268.287 37.8396L324.218 34.1719" stroke="#1DB954" stroke-width="3" stroke-linecap="round" stroke-linejoin="round"/>
</svg>
