<svg width="25" height="24" viewBox="0 0 25 24" fill="none" xmlns="http://www.w3.org/2000/svg">
<g clip-path="url(#clip0_4390_22541)">
<path fill-rule="evenodd" clip-rule="evenodd" d="M20.3709 4.00776C21.275 4.28763 21.9855 5.10925 22.2275 6.15475C22.6649 8.04786 22.6666 12 22.6666 12C22.6666 12 22.6666 15.9522 22.2275 17.8453C21.9855 18.8908 21.275 19.7124 20.3709 19.9922C18.7339 20.5 12.1666 20.5 12.1666 20.5C12.1666 20.5 5.59937 20.5 3.96231 19.9922C3.05821 19.7124 2.34773 18.8908 2.10571 17.8453C1.66663 15.9522 1.66663 12 1.66663 12C1.66663 12 1.66663 8.04786 2.10571 6.15475C2.34773 5.10925 3.05821 4.28763 3.96231 4.00776C5.59937 3.5 12.1666 3.5 12.1666 3.5C12.1666 3.5 18.7339 3.5 20.3709 4.00776ZM15.68 12.0003L9.96448 15.2999V8.70065L15.68 12.0003Z" fill="#FF0000"/>
<path fill-rule="evenodd" clip-rule="evenodd" d="M20.3709 4.00776C21.275 4.28763 21.9855 5.10925 22.2275 6.15475C22.6649 8.04786 22.6666 12 22.6666 12C22.6666 12 22.6666 15.9522 22.2275 17.8453C21.9855 18.8908 21.275 19.7124 20.3709 19.9922C18.7339 20.5 12.1666 20.5 12.1666 20.5C12.1666 20.5 5.59937 20.5 3.96231 19.9922C3.05821 19.7124 2.34773 18.8908 2.10571 17.8453C1.66663 15.9522 1.66663 12 1.66663 12C1.66663 12 1.66663 8.04786 2.10571 6.15475C2.34773 5.10925 3.05821 4.28763 3.96231 4.00776C5.59937 3.5 12.1666 3.5 12.1666 3.5C12.1666 3.5 18.7339 3.5 20.3709 4.00776ZM15.68 12.0003L9.96448 15.2999V8.70065L15.68 12.0003Z" fill="black" fill-opacity="0.2"/>
</g>
<defs>
<clipPath id="clip0_4390_22541">
<rect width="24" height="24" fill="white" transform="translate(0.166626)"/>
</clipPath>
</defs>
</svg>
