<svg width="314" height="85" viewBox="0 0 314 85" fill="none" xmlns="http://www.w3.org/2000/svg">
<path d="M9.84277 79.9435C10.0303 68.0223 16.7067 39.9533 41.912 23.0469" stroke="#315599" stroke-width="4" stroke-linecap="round"/>
<path d="M48.8789 17.5635C59.5053 11.9364 87.4406 3.99584 114.17 17.2498" stroke="#4D9A71" stroke-width="4" stroke-linecap="round"/>
<path d="M123.643 22.2192C133.614 28.9405 153.781 49.8386 154.685 79.6601" stroke="#6CE54A" stroke-width="4" stroke-linecap="round"/>
<path d="M17.753 69.1626C17.753 72.6286 14.9432 75.4385 11.4771 75.4385C8.01099 75.4385 5.20117 72.6286 5.20117 69.1626C5.20117 65.6965 8.01099 62.8867 11.4771 62.8867C14.9432 62.8867 17.753 65.6965 17.753 69.1626Z" fill="black" stroke="#315599" stroke-width="4"/>
<path d="M44.7607 68.6877V67.3437H46.0767V60.2317H44.7607V58.8877H48.6807C49.9873 58.8877 50.986 59.219 51.6767 59.8817C52.3767 60.5444 52.7267 61.543 52.7267 62.8777V64.7117C52.7267 66.0464 52.3767 67.045 51.6767 67.7077C50.986 68.361 49.9873 68.6877 48.6807 68.6877H44.7607ZM47.6027 67.3157H48.6947C49.544 67.3157 50.174 67.101 50.5847 66.6717C50.9953 66.2424 51.2007 65.603 51.2007 64.7537V62.8217C51.2007 61.963 50.9953 61.3237 50.5847 60.9037C50.174 60.4837 49.544 60.2737 48.6947 60.2737H47.6027V67.3157ZM57.6412 68.8837C56.9412 68.8837 56.3299 68.739 55.8072 68.4497C55.2845 68.151 54.8739 67.7357 54.5752 67.2037C54.2859 66.6624 54.1412 66.037 54.1412 65.3277V65.1597C54.1412 64.441 54.2859 63.8157 54.5752 63.2837C54.8645 62.7424 55.2659 62.327 55.7792 62.0377C56.3019 61.739 56.9039 61.5897 57.5852 61.5897C58.2479 61.5897 58.8265 61.739 59.3212 62.0377C59.8252 62.327 60.2172 62.733 60.4972 63.2557C60.7772 63.7784 60.9172 64.3897 60.9172 65.0897V65.6357H55.6112C55.6299 66.2424 55.8305 66.7277 56.2132 67.0917C56.6052 67.4464 57.0905 67.6237 57.6692 67.6237C58.2105 67.6237 58.6165 67.5024 58.8872 67.2597C59.1672 67.017 59.3819 66.737 59.5312 66.4197L60.7212 67.0357C60.5905 67.297 60.3992 67.5724 60.1472 67.8617C59.9045 68.151 59.5825 68.3937 59.1812 68.5897C58.7799 68.7857 58.2665 68.8837 57.6412 68.8837ZM55.6252 64.5297H59.4472C59.4099 64.007 59.2232 63.601 58.8872 63.3117C58.5512 63.013 58.1125 62.8637 57.5712 62.8637C57.0299 62.8637 56.5865 63.013 56.2412 63.3117C55.9052 63.601 55.6999 64.007 55.6252 64.5297ZM64.0029 68.6877L61.6789 61.7857H63.2049L65.0389 67.6237H65.2629L67.0969 61.7857H68.6229L66.2989 68.6877H64.0029ZM72.94 68.8837C72.24 68.8837 71.6287 68.739 71.106 68.4497C70.5834 68.151 70.1727 67.7357 69.874 67.2037C69.5847 66.6624 69.44 66.037 69.44 65.3277V65.1597C69.44 64.441 69.5847 63.8157 69.874 63.2837C70.1634 62.7424 70.5647 62.327 71.078 62.0377C71.6007 61.739 72.2027 61.5897 72.884 61.5897C73.5467 61.5897 74.1254 61.739 74.62 62.0377C75.124 62.327 75.516 62.733 75.796 63.2557C76.076 63.7784 76.216 64.3897 76.216 65.0897V65.6357H70.91C70.9287 66.2424 71.1294 66.7277 71.512 67.0917C71.904 67.4464 72.3894 67.6237 72.968 67.6237C73.5094 67.6237 73.9154 67.5024 74.186 67.2597C74.466 67.017 74.6807 66.737 74.83 66.4197L76.02 67.0357C75.8894 67.297 75.698 67.5724 75.446 67.8617C75.2034 68.151 74.8814 68.3937 74.48 68.5897C74.0787 68.7857 73.5654 68.8837 72.94 68.8837ZM70.924 64.5297H74.746C74.7087 64.007 74.522 63.601 74.186 63.3117C73.85 63.013 73.4114 62.8637 72.87 62.8637C72.3287 62.8637 71.8854 63.013 71.54 63.3117C71.204 63.601 70.9987 64.007 70.924 64.5297ZM77.9518 68.6877V58.8877H79.3938V68.6877H77.9518ZM84.7678 68.8837C84.0772 68.8837 83.4612 68.7437 82.9198 68.4637C82.3878 68.1744 81.9678 67.7637 81.6598 67.2317C81.3518 66.6997 81.1978 66.0697 81.1978 65.3417V65.1317C81.1978 64.4037 81.3518 63.7784 81.6598 63.2557C81.9678 62.7237 82.3878 62.313 82.9198 62.0237C83.4612 61.7344 84.0772 61.5897 84.7678 61.5897C85.4585 61.5897 86.0745 61.7344 86.6158 62.0237C87.1572 62.313 87.5818 62.7237 87.8898 63.2557C88.1978 63.7784 88.3518 64.4037 88.3518 65.1317V65.3417C88.3518 66.0697 88.1978 66.6997 87.8898 67.2317C87.5818 67.7637 87.1572 68.1744 86.6158 68.4637C86.0745 68.7437 85.4585 68.8837 84.7678 68.8837ZM84.7678 67.5957C85.4025 67.5957 85.9158 67.395 86.3078 66.9937C86.7092 66.583 86.9098 66.0184 86.9098 65.2997V65.1737C86.9098 64.455 86.7138 63.895 86.3218 63.4937C85.9298 63.083 85.4118 62.8777 84.7678 62.8777C84.1425 62.8777 83.6292 63.083 83.2278 63.4937C82.8358 63.895 82.6398 64.455 82.6398 65.1737V65.2997C82.6398 66.0184 82.8358 66.583 83.2278 66.9937C83.6292 67.395 84.1425 67.5957 84.7678 67.5957ZM90.1471 71.4877V61.7857H91.5611V62.7797H91.7851C91.9625 62.4717 92.2285 62.1964 92.5831 61.9537C92.9471 61.711 93.4651 61.5897 94.1371 61.5897C94.7158 61.5897 95.2431 61.7297 95.7191 62.0097C96.2045 62.2897 96.5918 62.6957 96.8811 63.2277C97.1798 63.7504 97.3291 64.385 97.3291 65.1317V65.3417C97.3291 66.0884 97.1845 66.7277 96.8951 67.2597C96.6058 67.7824 96.2185 68.1837 95.7331 68.4637C95.2478 68.7437 94.7158 68.8837 94.1371 68.8837C93.6891 68.8837 93.3111 68.8277 93.0031 68.7157C92.6951 68.6037 92.4478 68.4637 92.2611 68.2957C92.0745 68.1184 91.9251 67.9364 91.8131 67.7497H91.5891V71.4877H90.1471ZM93.7171 67.6237C94.3518 67.6237 94.8698 67.423 95.2711 67.0217C95.6725 66.6204 95.8731 66.0464 95.8731 65.2997V65.1737C95.8731 64.4364 95.6678 63.867 95.2571 63.4657C94.8558 63.0644 94.3425 62.8637 93.7171 62.8637C93.1011 62.8637 92.5878 63.0644 92.1771 63.4657C91.7758 63.867 91.5751 64.4364 91.5751 65.1737V65.2997C91.5751 66.0464 91.7758 66.6204 92.1771 67.0217C92.5878 67.423 93.1011 67.6237 93.7171 67.6237ZM99.1159 68.6877V61.7857H100.558V68.6877H99.1159ZM99.8439 60.8477C99.5639 60.8477 99.3259 60.759 99.1299 60.5817C98.9432 60.395 98.8499 60.157 98.8499 59.8677C98.8499 59.5784 98.9432 59.345 99.1299 59.1677C99.3259 58.981 99.5639 58.8877 99.8439 58.8877C100.133 58.8877 100.371 58.981 100.558 59.1677C100.745 59.345 100.838 59.5784 100.838 59.8677C100.838 60.157 100.745 60.395 100.558 60.5817C100.371 60.759 100.133 60.8477 99.8439 60.8477ZM102.698 68.6877V61.7857H104.112V62.8217H104.336C104.467 62.5417 104.7 62.2804 105.036 62.0377C105.372 61.795 105.871 61.6737 106.534 61.6737C107.057 61.6737 107.519 61.7904 107.92 62.0237C108.331 62.257 108.653 62.5884 108.886 63.0177C109.119 63.4377 109.236 63.9464 109.236 64.5437V68.6877H107.794V64.6557C107.794 64.0584 107.645 63.6197 107.346 63.3397C107.047 63.0504 106.637 62.9057 106.114 62.9057C105.517 62.9057 105.036 63.1017 104.672 63.4937C104.317 63.8857 104.14 64.455 104.14 65.2017V68.6877H102.698ZM110.975 65.2717V65.0617C110.975 64.3337 111.12 63.713 111.409 63.1997C111.708 62.6864 112.1 62.2897 112.585 62.0097C113.071 61.7297 113.603 61.5897 114.181 61.5897C114.853 61.5897 115.367 61.7157 115.721 61.9677C116.085 62.2197 116.351 62.4904 116.519 62.7797H116.743V61.7857H118.143V70.1017C118.143 70.5217 118.017 70.8577 117.765 71.1097C117.523 71.3617 117.187 71.4877 116.757 71.4877H112.109V70.2277H116.309C116.58 70.2277 116.715 70.0877 116.715 69.8077V67.6097H116.491C116.389 67.7777 116.244 67.9504 116.057 68.1277C115.871 68.305 115.623 68.4497 115.315 68.5617C115.017 68.6737 114.639 68.7297 114.181 68.7297C113.603 68.7297 113.066 68.5944 112.571 68.3237C112.086 68.0437 111.699 67.647 111.409 67.1337C111.12 66.611 110.975 65.9904 110.975 65.2717ZM114.573 67.4697C115.199 67.4697 115.712 67.2737 116.113 66.8817C116.524 66.4804 116.729 65.9297 116.729 65.2297V65.1037C116.729 64.385 116.529 63.8344 116.127 63.4517C115.726 63.0597 115.208 62.8637 114.573 62.8637C113.957 62.8637 113.444 63.0597 113.033 63.4517C112.632 63.8344 112.431 64.385 112.431 65.1037V65.2297C112.431 65.9297 112.632 66.4804 113.033 66.8817C113.444 67.2737 113.957 67.4697 114.573 67.4697Z" fill="white"/>
<path d="M202.75 72.4165L206.833 76.4999M206.833 76.4999L202.75 80.5832M206.833 76.4999H197.5" stroke="white" stroke-width="1.5" stroke-linecap="round" stroke-linejoin="round"/>
<path d="M217.953 10.0002V0.200195H219.129V8.9362H224.085V10.0002H217.953ZM228.719 10.1962C228.029 10.1962 227.422 10.0515 226.899 9.7622C226.377 9.46353 225.971 9.0482 225.681 8.5162C225.392 7.9842 225.247 7.3682 225.247 6.6682V6.5002C225.247 5.79087 225.392 5.1702 225.681 4.6382C225.971 4.1062 226.372 3.69553 226.885 3.4062C227.399 3.10753 227.987 2.9582 228.649 2.9582C229.293 2.9582 229.863 3.0982 230.357 3.3782C230.852 3.64887 231.239 4.04087 231.519 4.5542C231.799 5.06753 231.939 5.66953 231.939 6.3602V6.8642H226.353C226.381 7.60153 226.619 8.1802 227.067 8.6002C227.515 9.01087 228.075 9.2162 228.747 9.2162C229.335 9.2162 229.788 9.08087 230.105 8.8102C230.423 8.53953 230.665 8.21753 230.833 7.8442L231.785 8.3062C231.645 8.59553 231.449 8.88487 231.197 9.1742C230.955 9.46353 230.633 9.7062 230.231 9.9022C229.839 10.0982 229.335 10.1962 228.719 10.1962ZM226.367 5.9542H230.819C230.782 5.31953 230.563 4.82487 230.161 4.4702C229.769 4.11553 229.265 3.9382 228.649 3.9382C228.024 3.9382 227.511 4.11553 227.109 4.4702C226.708 4.82487 226.461 5.31953 226.367 5.9542ZM233.533 6.6122V6.4162C233.533 5.69753 233.677 5.08153 233.967 4.5682C234.256 4.05487 234.648 3.6582 235.143 3.3782C235.637 3.0982 236.179 2.9582 236.767 2.9582C237.485 2.9582 238.036 3.0982 238.419 3.3782C238.811 3.64887 239.1 3.9522 239.287 4.2882H239.483V3.1542H240.533V11.5962C240.533 11.9695 240.43 12.2635 240.225 12.4782C240.019 12.6929 239.721 12.8002 239.329 12.8002H234.681V11.8202H239.035C239.315 11.8202 239.455 11.6802 239.455 11.4002V8.7962H239.259C239.147 9.00153 238.988 9.2022 238.783 9.3982C238.577 9.5942 238.311 9.75753 237.985 9.8882C237.658 10.0095 237.252 10.0702 236.767 10.0702C236.179 10.0702 235.637 9.9302 235.143 9.6502C234.648 9.3702 234.256 8.97353 233.967 8.4602C233.677 7.93753 233.533 7.32153 233.533 6.6122ZM237.061 9.0902C237.77 9.0902 238.344 8.8662 238.783 8.4182C239.231 7.9702 239.455 7.3542 239.455 6.5702V6.4582C239.455 5.66487 239.231 5.04887 238.783 4.6102C238.344 4.1622 237.77 3.9382 237.061 3.9382C236.361 3.9382 235.782 4.1622 235.325 4.6102C234.877 5.04887 234.653 5.66487 234.653 6.4582V6.5702C234.653 7.3542 234.877 7.9702 235.325 8.4182C235.782 8.8662 236.361 9.0902 237.061 9.0902ZM245.987 10.1962C245.296 10.1962 244.69 10.0515 244.167 9.7622C243.644 9.46353 243.238 9.0482 242.949 8.5162C242.66 7.9842 242.515 7.3682 242.515 6.6682V6.5002C242.515 5.79087 242.66 5.1702 242.949 4.6382C243.238 4.1062 243.64 3.69553 244.153 3.4062C244.666 3.10753 245.254 2.9582 245.917 2.9582C246.561 2.9582 247.13 3.0982 247.625 3.3782C248.12 3.64887 248.507 4.04087 248.787 4.5542C249.067 5.06753 249.207 5.66953 249.207 6.3602V6.8642H243.621C243.649 7.60153 243.887 8.1802 244.335 8.6002C244.783 9.01087 245.343 9.2162 246.015 9.2162C246.603 9.2162 247.056 9.08087 247.373 8.8102C247.69 8.53953 247.933 8.21753 248.101 7.8442L249.053 8.3062C248.913 8.59553 248.717 8.88487 248.465 9.1742C248.222 9.46353 247.9 9.7062 247.499 9.9022C247.107 10.0982 246.603 10.1962 245.987 10.1962ZM243.635 5.9542H248.087C248.05 5.31953 247.83 4.82487 247.429 4.4702C247.037 4.11553 246.533 3.9382 245.917 3.9382C245.292 3.9382 244.778 4.11553 244.377 4.4702C243.976 4.82487 243.728 5.31953 243.635 5.9542ZM251.136 10.0002V3.1542H252.214V4.3162H252.41C252.559 3.98953 252.811 3.69553 253.166 3.4342C253.53 3.16353 254.062 3.0282 254.762 3.0282C255.275 3.0282 255.733 3.13553 256.134 3.3502C256.545 3.56487 256.871 3.8822 257.114 4.3022C257.357 4.7222 257.478 5.2402 257.478 5.8562V10.0002H256.372V5.9402C256.372 5.25887 256.199 4.7642 255.854 4.4562C255.518 4.1482 255.061 3.9942 254.482 3.9942C253.819 3.9942 253.278 4.20887 252.858 4.6382C252.447 5.06753 252.242 5.70687 252.242 6.5562V10.0002H251.136ZM262.62 10.1962C262.032 10.1962 261.491 10.0562 260.996 9.7762C260.501 9.4962 260.109 9.0902 259.82 8.5582C259.531 8.0262 259.386 7.3962 259.386 6.6682V6.4862C259.386 5.7582 259.531 5.13287 259.82 4.6102C260.109 4.0782 260.497 3.6722 260.982 3.3922C261.477 3.10287 262.023 2.9582 262.62 2.9582C263.096 2.9582 263.497 3.02353 263.824 3.1542C264.16 3.27553 264.431 3.4342 264.636 3.6302C264.841 3.81687 265 4.01753 265.112 4.2322H265.308V0.200195H266.414V10.0002H265.336V8.8662H265.14C264.953 9.21153 264.664 9.51953 264.272 9.7902C263.88 10.0609 263.329 10.1962 262.62 10.1962ZM262.914 9.2162C263.623 9.2162 264.197 8.9922 264.636 8.5442C265.084 8.08687 265.308 7.4522 265.308 6.6402V6.5142C265.308 5.7022 265.084 5.0722 264.636 4.6242C264.197 4.16687 263.623 3.9382 262.914 3.9382C262.214 3.9382 261.635 4.16687 261.178 4.6242C260.73 5.0722 260.506 5.7022 260.506 6.5142V6.6402C260.506 7.4522 260.73 8.08687 261.178 8.5442C261.635 8.9922 262.214 9.2162 262.914 9.2162ZM270.832 10.1962C270.356 10.1962 269.922 10.1122 269.53 9.9442C269.138 9.7762 268.83 9.53353 268.606 9.2162C268.382 8.89887 268.27 8.51153 268.27 8.0542C268.27 7.58753 268.382 7.20487 268.606 6.9062C268.83 6.5982 269.138 6.36953 269.53 6.2202C269.922 6.06153 270.36 5.9822 270.846 5.9822H273.156V5.4782C273.156 4.99287 273.011 4.6102 272.722 4.3302C272.442 4.0502 272.022 3.9102 271.462 3.9102C270.911 3.9102 270.482 4.04553 270.174 4.3162C269.866 4.57753 269.656 4.9322 269.544 5.3802L268.508 5.0442C268.62 4.66153 268.797 4.3162 269.04 4.0082C269.282 3.69087 269.604 3.43887 270.006 3.2522C270.416 3.0562 270.906 2.9582 271.476 2.9582C272.353 2.9582 273.034 3.18687 273.52 3.6442C274.005 4.0922 274.248 4.72687 274.248 5.5482V8.6422C274.248 8.9222 274.378 9.0622 274.64 9.0622H275.27V10.0002H274.304C273.996 10.0002 273.748 9.9162 273.562 9.7482C273.375 9.57087 273.282 9.33753 273.282 9.0482V8.9782H273.114C273.011 9.15553 272.871 9.3422 272.694 9.5382C272.526 9.72487 272.292 9.87887 271.994 10.0002C271.695 10.1309 271.308 10.1962 270.832 10.1962ZM270.958 9.2442C271.611 9.2442 272.138 9.05287 272.54 8.6702C272.95 8.2782 273.156 7.7322 273.156 7.0322V6.8782H270.888C270.449 6.8782 270.085 6.9762 269.796 7.1722C269.516 7.35887 269.376 7.64353 269.376 8.0262C269.376 8.40887 269.52 8.70753 269.81 8.9222C270.108 9.13687 270.491 9.2442 270.958 9.2442ZM276.785 10.0002V3.1542H277.863V3.9942H278.059C278.18 3.69553 278.367 3.4762 278.619 3.3362C278.871 3.1962 279.202 3.1262 279.613 3.1262H280.425V4.1342H279.543C279.048 4.1342 278.647 4.2742 278.339 4.5542C278.04 4.82487 277.891 5.24953 277.891 5.8282V10.0002H276.785ZM282.888 12.8002V11.8202H286.808C287.079 11.8202 287.214 11.6802 287.214 11.4002V8.9082H287.018C286.925 9.1042 286.78 9.3002 286.584 9.4962C286.397 9.68287 286.15 9.83687 285.842 9.9582C285.534 10.0702 285.147 10.1262 284.68 10.1262C284.185 10.1262 283.728 10.0189 283.308 9.8042C282.897 9.58953 282.571 9.2722 282.328 8.8522C282.095 8.4322 281.978 7.91887 281.978 7.3122V3.1542H283.084V7.2282C283.084 7.9002 283.252 8.3902 283.588 8.6982C283.933 9.0062 284.395 9.1602 284.974 9.1602C285.627 9.1602 286.164 8.94553 286.584 8.5162C287.004 8.08687 287.214 7.44753 287.214 6.5982V3.1542H288.32V11.5962C288.32 11.9695 288.213 12.2635 287.998 12.4782C287.793 12.6929 287.489 12.8002 287.088 12.8002H282.888Z" fill="#C9C9C9" fill-opacity="0.6"/>
<path d="M221.215 28.1959C220.506 28.1959 219.871 28.0699 219.311 27.8179C218.751 27.5659 218.308 27.1879 217.981 26.6839C217.664 26.1706 217.505 25.5312 217.505 24.7659V24.4719H218.667V24.7659C218.667 25.5779 218.905 26.1846 219.381 26.5859C219.857 26.9779 220.469 27.1739 221.215 27.1739C221.981 27.1739 222.564 27.0012 222.965 26.6559C223.367 26.3106 223.567 25.8766 223.567 25.3539C223.567 24.9899 223.474 24.7006 223.287 24.4859C223.11 24.2712 222.858 24.0986 222.531 23.9679C222.205 23.8279 221.822 23.7066 221.383 23.6039L220.655 23.4219C220.086 23.2726 219.582 23.0906 219.143 22.8759C218.705 22.6612 218.359 22.3812 218.107 22.0359C217.865 21.6812 217.743 21.2286 217.743 20.6779C217.743 20.1272 217.879 19.6512 218.149 19.2499C218.429 18.8486 218.817 18.5406 219.311 18.3259C219.815 18.1112 220.394 18.0039 221.047 18.0039C221.71 18.0039 222.303 18.1206 222.825 18.3539C223.357 18.5779 223.773 18.9139 224.071 19.3619C224.379 19.8006 224.533 20.3559 224.533 21.0279V21.6159H223.371V21.0279C223.371 20.5519 223.269 20.1692 223.063 19.8799C222.867 19.5906 222.592 19.3759 222.237 19.2359C221.892 19.0959 221.495 19.0259 221.047 19.0259C220.403 19.0259 219.885 19.1706 219.493 19.4599C219.101 19.7399 218.905 20.1412 218.905 20.6639C218.905 21.0092 218.989 21.2892 219.157 21.5039C219.325 21.7186 219.563 21.8959 219.871 22.0359C220.179 22.1666 220.548 22.2832 220.977 22.3859L221.705 22.5679C222.275 22.6892 222.783 22.8572 223.231 23.0719C223.689 23.2772 224.053 23.5619 224.323 23.9259C224.594 24.2806 224.729 24.7472 224.729 25.3259C224.729 25.9046 224.585 26.4086 224.295 26.8379C224.006 27.2672 223.595 27.6032 223.063 27.8459C222.541 28.0792 221.925 28.1959 221.215 28.1959ZM229.199 28.1259C228.705 28.1259 228.247 28.0186 227.827 27.8039C227.417 27.5892 227.09 27.2719 226.847 26.8519C226.614 26.4226 226.497 25.9046 226.497 25.2979V21.1539H227.603V25.2139C227.603 25.8952 227.771 26.3899 228.107 26.6979C228.453 27.0059 228.915 27.1599 229.493 27.1599C230.147 27.1599 230.683 26.9452 231.103 26.5159C231.523 26.0866 231.733 25.4472 231.733 24.5979V21.1539H232.839V27.9999H231.761V26.8379H231.565C231.416 27.1646 231.159 27.4632 230.795 27.7339C230.431 27.9952 229.899 28.1259 229.199 28.1259ZM235.154 30.7999V21.1539H236.232V22.2879H236.428C236.605 21.9426 236.89 21.6346 237.282 21.3639C237.683 21.0932 238.238 20.9579 238.948 20.9579C239.536 20.9579 240.072 21.1026 240.558 21.3919C241.052 21.6719 241.444 22.0732 241.734 22.5959C242.032 23.1186 242.182 23.7486 242.182 24.4859V24.6679C242.182 25.3959 242.037 26.0259 241.748 26.5579C241.458 27.0899 241.066 27.4959 240.572 27.7759C240.086 28.0559 239.545 28.1959 238.948 28.1959C238.472 28.1959 238.066 28.1306 237.73 27.9999C237.403 27.8786 237.137 27.7199 236.932 27.5239C236.726 27.3279 236.568 27.1272 236.456 26.9219H236.26V30.7999H235.154ZM238.654 27.2159C239.363 27.2159 239.937 26.9919 240.376 26.5439C240.824 26.0866 241.048 25.4519 241.048 24.6399V24.5139C241.048 23.7019 240.824 23.0719 240.376 22.6239C239.937 22.1666 239.363 21.9379 238.654 21.9379C237.954 21.9379 237.375 22.1666 236.918 22.6239C236.47 23.0719 236.246 23.7019 236.246 24.5139V24.6399C236.246 25.4519 236.47 26.0866 236.918 26.5439C237.375 26.9919 237.954 27.2159 238.654 27.2159ZM247.299 28.1959C246.609 28.1959 246.002 28.0512 245.479 27.7619C244.957 27.4632 244.551 27.0479 244.261 26.5159C243.972 25.9839 243.827 25.3679 243.827 24.6679V24.4999C243.827 23.7906 243.972 23.1699 244.261 22.6379C244.551 22.1059 244.952 21.6952 245.465 21.4059C245.979 21.1072 246.567 20.9579 247.229 20.9579C247.873 20.9579 248.443 21.0979 248.937 21.3779C249.432 21.6486 249.819 22.0406 250.099 22.5539C250.379 23.0672 250.519 23.6692 250.519 24.3599V24.8639H244.933C244.961 25.6012 245.199 26.1799 245.647 26.5999C246.095 27.0106 246.655 27.2159 247.327 27.2159C247.915 27.2159 248.368 27.0806 248.685 26.8099C249.003 26.5392 249.245 26.2172 249.413 25.8439L250.365 26.3059C250.225 26.5952 250.029 26.8846 249.777 27.1739C249.535 27.4632 249.213 27.7059 248.811 27.9019C248.419 28.0979 247.915 28.1959 247.299 28.1959ZM244.947 23.9539H249.399C249.362 23.3192 249.143 22.8246 248.741 22.4699C248.349 22.1152 247.845 21.9379 247.229 21.9379C246.604 21.9379 246.091 22.1152 245.689 22.4699C245.288 22.8246 245.041 23.3192 244.947 23.9539ZM252.449 27.9999V21.1539H253.527V21.9939H253.723C253.844 21.6952 254.031 21.4759 254.283 21.3359C254.535 21.1959 254.866 21.1259 255.277 21.1259H256.089V22.1339H255.207C254.712 22.1339 254.311 22.2739 254.003 22.5539C253.704 22.8246 253.555 23.2492 253.555 23.8279V27.9999H252.449ZM260.347 28.1959C259.498 28.1959 258.779 27.9999 258.191 27.6079C257.613 27.2159 257.263 26.5952 257.141 25.7459L258.191 25.5079C258.266 25.9559 258.406 26.3106 258.611 26.5719C258.817 26.8239 259.069 27.0059 259.367 27.1179C259.675 27.2206 260.002 27.2719 260.347 27.2719C260.861 27.2719 261.267 27.1692 261.565 26.9639C261.864 26.7586 262.013 26.4832 262.013 26.1379C262.013 25.7832 261.869 25.5359 261.579 25.3959C261.299 25.2466 260.912 25.1252 260.417 25.0319L259.843 24.9339C259.405 24.8592 259.003 24.7426 258.639 24.5839C258.275 24.4252 257.986 24.2106 257.771 23.9399C257.557 23.6692 257.449 23.3286 257.449 22.9179C257.449 22.3019 257.687 21.8212 258.163 21.4759C258.639 21.1306 259.269 20.9579 260.053 20.9579C260.828 20.9579 261.453 21.1352 261.929 21.4899C262.415 21.8352 262.727 22.3252 262.867 22.9599L261.831 23.2259C261.747 22.7312 261.547 22.3859 261.229 22.1899C260.912 21.9846 260.52 21.8819 260.053 21.8819C259.587 21.8819 259.218 21.9706 258.947 22.1479C258.677 22.3159 258.541 22.5679 258.541 22.9039C258.541 23.2306 258.667 23.4732 258.919 23.6319C259.181 23.7812 259.526 23.8932 259.955 23.9679L260.529 24.0659C261.015 24.1499 261.449 24.2666 261.831 24.4159C262.223 24.5559 262.531 24.7612 262.755 25.0319C262.989 25.3026 263.105 25.6572 263.105 26.0959C263.105 26.7679 262.853 27.2859 262.349 27.6499C261.855 28.0139 261.187 28.1959 260.347 28.1959ZM267.342 27.9999C266.95 27.9999 266.646 27.8926 266.432 27.6779C266.226 27.4632 266.124 27.1692 266.124 26.7959V22.1199H264.066V21.1539H266.124V18.7179H267.23V21.1539H269.47V22.1199H267.23V26.6279C267.23 26.9079 267.365 27.0479 267.636 27.0479H269.162V27.9999H267.342ZM273.32 28.1959C272.844 28.1959 272.41 28.1119 272.018 27.9439C271.626 27.7759 271.318 27.5332 271.094 27.2159C270.87 26.8986 270.758 26.5112 270.758 26.0539C270.758 25.5872 270.87 25.2046 271.094 24.9059C271.318 24.5979 271.626 24.3692 272.018 24.2199C272.41 24.0612 272.849 23.9819 273.334 23.9819H275.644V23.4779C275.644 22.9926 275.499 22.6099 275.21 22.3299C274.93 22.0499 274.51 21.9099 273.95 21.9099C273.399 21.9099 272.97 22.0452 272.662 22.3159C272.354 22.5772 272.144 22.9319 272.032 23.3799L270.996 23.0439C271.108 22.6612 271.285 22.3159 271.528 22.0079C271.771 21.6906 272.093 21.4386 272.494 21.2519C272.905 21.0559 273.395 20.9579 273.964 20.9579C274.841 20.9579 275.523 21.1866 276.008 21.6439C276.493 22.0919 276.736 22.7266 276.736 23.5479V26.6419C276.736 26.9219 276.867 27.0619 277.128 27.0619H277.758V27.9999H276.792C276.484 27.9999 276.237 27.9159 276.05 27.7479C275.863 27.5706 275.77 27.3372 275.77 27.0479V26.9779H275.602C275.499 27.1552 275.359 27.3419 275.182 27.5379C275.014 27.7246 274.781 27.8786 274.482 27.9999C274.183 28.1306 273.796 28.1959 273.32 28.1959ZM273.446 27.2439C274.099 27.2439 274.627 27.0526 275.028 26.6699C275.439 26.2779 275.644 25.7319 275.644 25.0319V24.8779H273.376C272.937 24.8779 272.573 24.9759 272.284 25.1719C272.004 25.3586 271.864 25.6432 271.864 26.0259C271.864 26.4086 272.009 26.7072 272.298 26.9219C272.597 27.1366 272.979 27.2439 273.446 27.2439ZM279.273 27.9999V21.1539H280.351V21.9939H280.547C280.668 21.6952 280.855 21.4759 281.107 21.3359C281.359 21.1959 281.69 21.1259 282.101 21.1259H282.913V22.1339H282.031C281.536 22.1339 281.135 22.2739 280.827 22.5539C280.528 22.8246 280.379 23.2492 280.379 23.8279V27.9999H279.273Z" fill="#C9C9C9" fill-opacity="0.6"/>
<path d="M217.953 46.0002V36.2002H220.193L222.797 45.2582H222.979L225.583 36.2002H227.823V46.0002H226.689V36.9702H226.493L223.903 46.0002H221.873L219.283 36.9702H219.087V46.0002H217.953ZM232.209 46.1962C231.733 46.1962 231.299 46.1122 230.907 45.9442C230.515 45.7762 230.207 45.5335 229.983 45.2162C229.759 44.8989 229.647 44.5115 229.647 44.0542C229.647 43.5875 229.759 43.2049 229.983 42.9062C230.207 42.5982 230.515 42.3695 230.907 42.2202C231.299 42.0615 231.737 41.9822 232.223 41.9822H234.533V41.4782C234.533 40.9929 234.388 40.6102 234.099 40.3302C233.819 40.0502 233.399 39.9102 232.839 39.9102C232.288 39.9102 231.859 40.0455 231.551 40.3162C231.243 40.5775 231.033 40.9322 230.921 41.3802L229.885 41.0442C229.997 40.6615 230.174 40.3162 230.417 40.0082C230.659 39.6909 230.981 39.4389 231.383 39.2522C231.793 39.0562 232.283 38.9582 232.853 38.9582C233.73 38.9582 234.411 39.1869 234.897 39.6442C235.382 40.0922 235.625 40.7269 235.625 41.5482V44.6422C235.625 44.9222 235.755 45.0622 236.017 45.0622H236.647V46.0002H235.681C235.373 46.0002 235.125 45.9162 234.939 45.7482C234.752 45.5709 234.659 45.3375 234.659 45.0482V44.9782H234.491C234.388 45.1555 234.248 45.3422 234.071 45.5382C233.903 45.7249 233.669 45.8789 233.371 46.0002C233.072 46.1309 232.685 46.1962 232.209 46.1962ZM232.335 45.2442C232.988 45.2442 233.515 45.0529 233.917 44.6702C234.327 44.2782 234.533 43.7322 234.533 43.0322V42.8782H232.265C231.826 42.8782 231.462 42.9762 231.173 43.1722C230.893 43.3589 230.753 43.6435 230.753 44.0262C230.753 44.4089 230.897 44.7075 231.187 44.9222C231.485 45.1369 231.868 45.2442 232.335 45.2442ZM238.162 46.0002V39.1542H239.268V46.0002H238.162ZM238.722 38.0902C238.479 38.0902 238.274 38.0109 238.106 37.8522C237.947 37.6935 237.868 37.4929 237.868 37.2502C237.868 36.9982 237.947 36.7929 238.106 36.6342C238.274 36.4755 238.479 36.3962 238.722 36.3962C238.964 36.3962 239.165 36.4755 239.324 36.6342C239.482 36.7929 239.562 36.9982 239.562 37.2502C239.562 37.4929 239.482 37.6935 239.324 37.8522C239.165 38.0109 238.964 38.0902 238.722 38.0902ZM241.593 46.0002V39.1542H242.671V40.3162H242.867C243.016 39.9895 243.268 39.6955 243.623 39.4342C243.987 39.1635 244.519 39.0282 245.219 39.0282C245.732 39.0282 246.19 39.1355 246.591 39.3502C247.002 39.5649 247.328 39.8822 247.571 40.3022C247.814 40.7222 247.935 41.2402 247.935 41.8562V46.0002H246.829V41.9402C246.829 41.2589 246.656 40.7642 246.311 40.4562C245.975 40.1482 245.518 39.9942 244.939 39.9942C244.276 39.9942 243.735 40.2089 243.315 40.6382C242.904 41.0675 242.699 41.7069 242.699 42.5562V46.0002H241.593ZM252.937 46.1962C252.088 46.1962 251.369 46.0002 250.781 45.6082C250.202 45.2162 249.852 44.5955 249.731 43.7462L250.781 43.5082C250.856 43.9562 250.996 44.3109 251.201 44.5722C251.406 44.8242 251.658 45.0062 251.957 45.1182C252.265 45.2209 252.592 45.2722 252.937 45.2722C253.45 45.2722 253.856 45.1695 254.155 44.9642C254.454 44.7589 254.603 44.4835 254.603 44.1382C254.603 43.7835 254.458 43.5362 254.169 43.3962C253.889 43.2469 253.502 43.1255 253.007 43.0322L252.433 42.9342C251.994 42.8595 251.593 42.7429 251.229 42.5842C250.865 42.4255 250.576 42.2109 250.361 41.9402C250.146 41.6695 250.039 41.3289 250.039 40.9182C250.039 40.3022 250.277 39.8215 250.753 39.4762C251.229 39.1309 251.859 38.9582 252.643 38.9582C253.418 38.9582 254.043 39.1355 254.519 39.4902C255.004 39.8355 255.317 40.3255 255.457 40.9602L254.421 41.2262C254.337 40.7315 254.136 40.3862 253.819 40.1902C253.502 39.9849 253.11 39.8822 252.643 39.8822C252.176 39.8822 251.808 39.9709 251.537 40.1482C251.266 40.3162 251.131 40.5682 251.131 40.9042C251.131 41.2309 251.257 41.4735 251.509 41.6322C251.77 41.7815 252.116 41.8935 252.545 41.9682L253.119 42.0662C253.604 42.1502 254.038 42.2669 254.421 42.4162C254.813 42.5562 255.121 42.7615 255.345 43.0322C255.578 43.3029 255.695 43.6575 255.695 44.0962C255.695 44.7682 255.443 45.2862 254.939 45.6502C254.444 46.0142 253.777 46.1962 252.937 46.1962ZM259.932 46.0002C259.54 46.0002 259.236 45.8929 259.022 45.6782C258.816 45.4635 258.714 45.1695 258.714 44.7962V40.1202H256.656V39.1542H258.714V36.7182H259.82V39.1542H262.06V40.1202H259.82V44.6282C259.82 44.9082 259.955 45.0482 260.226 45.0482H261.752V46.0002H259.932ZM263.851 46.0002V39.1542H264.929V39.9942H265.125C265.246 39.6955 265.433 39.4762 265.685 39.3362C265.937 39.1962 266.268 39.1262 266.679 39.1262H267.491V40.1342H266.609C266.114 40.1342 265.713 40.2742 265.405 40.5542C265.106 40.8249 264.957 41.2495 264.957 41.8282V46.0002H263.851ZM272.018 46.1962C271.328 46.1962 270.721 46.0515 270.198 45.7622C269.676 45.4635 269.27 45.0482 268.98 44.5162C268.691 43.9842 268.546 43.3682 268.546 42.6682V42.5002C268.546 41.7909 268.691 41.1702 268.98 40.6382C269.27 40.1062 269.671 39.6955 270.184 39.4062C270.698 39.1075 271.286 38.9582 271.948 38.9582C272.592 38.9582 273.162 39.0982 273.656 39.3782C274.151 39.6489 274.538 40.0409 274.818 40.5542C275.098 41.0675 275.238 41.6695 275.238 42.3602V42.8642H269.652C269.68 43.6015 269.918 44.1802 270.366 44.6002C270.814 45.0109 271.374 45.2162 272.046 45.2162C272.634 45.2162 273.087 45.0809 273.404 44.8102C273.722 44.5395 273.964 44.2175 274.132 43.8442L275.084 44.3062C274.944 44.5955 274.748 44.8849 274.496 45.1742C274.254 45.4635 273.932 45.7062 273.53 45.9022C273.138 46.0982 272.634 46.1962 272.018 46.1962ZM269.666 41.9542H274.118C274.081 41.3195 273.862 40.8249 273.46 40.4702C273.068 40.1155 272.564 39.9382 271.948 39.9382C271.323 39.9382 270.81 40.1155 270.408 40.4702C270.007 40.8249 269.76 41.3195 269.666 41.9542ZM279.267 46.1962C278.791 46.1962 278.357 46.1122 277.965 45.9442C277.573 45.7762 277.265 45.5335 277.041 45.2162C276.817 44.8989 276.705 44.5115 276.705 44.0542C276.705 43.5875 276.817 43.2049 277.041 42.9062C277.265 42.5982 277.573 42.3695 277.965 42.2202C278.357 42.0615 278.796 41.9822 279.281 41.9822H281.591V41.4782C281.591 40.9929 281.447 40.6102 281.157 40.3302C280.877 40.0502 280.457 39.9102 279.897 39.9102C279.347 39.9102 278.917 40.0455 278.609 40.3162C278.301 40.5775 278.091 40.9322 277.979 41.3802L276.943 41.0442C277.055 40.6615 277.233 40.3162 277.475 40.0082C277.718 39.6909 278.04 39.4389 278.441 39.2522C278.852 39.0562 279.342 38.9582 279.911 38.9582C280.789 38.9582 281.47 39.1869 281.955 39.6442C282.441 40.0922 282.683 40.7269 282.683 41.5482V44.6422C282.683 44.9222 282.814 45.0622 283.075 45.0622H283.705V46.0002H282.739C282.431 46.0002 282.184 45.9162 281.997 45.7482C281.811 45.5709 281.717 45.3375 281.717 45.0482V44.9782H281.549C281.447 45.1555 281.307 45.3422 281.129 45.5382C280.961 45.7249 280.728 45.8789 280.429 46.0002C280.131 46.1309 279.743 46.1962 279.267 46.1962ZM279.393 45.2442C280.047 45.2442 280.574 45.0529 280.975 44.6702C281.386 44.2782 281.591 43.7322 281.591 43.0322V42.8782H279.323C278.885 42.8782 278.521 42.9762 278.231 43.1722C277.951 43.3589 277.811 43.6435 277.811 44.0262C277.811 44.4089 277.956 44.7075 278.245 44.9222C278.544 45.1369 278.927 45.2442 279.393 45.2442ZM285.22 46.0002V39.1542H286.298V40.0082H286.494C286.625 39.7655 286.839 39.5415 287.138 39.3362C287.437 39.1309 287.857 39.0282 288.398 39.0282C288.93 39.0282 289.359 39.1449 289.686 39.3782C290.022 39.6115 290.265 39.8962 290.414 40.2322H290.61C290.769 39.8962 291.007 39.6115 291.324 39.3782C291.651 39.1449 292.103 39.0282 292.682 39.0282C293.139 39.0282 293.541 39.1215 293.886 39.3082C294.231 39.4949 294.502 39.7655 294.698 40.1202C294.903 40.4655 295.006 40.8809 295.006 41.3662V46.0002H293.9V41.4642C293.9 41.0069 293.765 40.6475 293.494 40.3862C293.233 40.1155 292.864 39.9802 292.388 39.9802C291.884 39.9802 291.469 40.1435 291.142 40.4702C290.825 40.7969 290.666 41.2682 290.666 41.8842V46.0002H289.56V41.4642C289.56 41.0069 289.425 40.6475 289.154 40.3862C288.893 40.1155 288.524 39.9802 288.048 39.9802C287.544 39.9802 287.129 40.1435 286.802 40.4702C286.485 40.7969 286.326 41.2682 286.326 41.8842V46.0002H285.22Z" fill="#C9C9C9" fill-opacity="0.6"/>
<path d="M217.953 64.0002V54.2002H220.193L222.797 63.2582H222.979L225.583 54.2002H227.823V64.0002H226.689V54.9702H226.493L223.903 64.0002H221.873L219.283 54.9702H219.087V64.0002H217.953ZM230.109 64.0002V57.1542H231.215V64.0002H230.109ZM230.669 56.0902C230.426 56.0902 230.221 56.0109 230.053 55.8522C229.894 55.6935 229.815 55.4929 229.815 55.2502C229.815 54.9982 229.894 54.7929 230.053 54.6342C230.221 54.4755 230.426 54.3962 230.669 54.3962C230.911 54.3962 231.112 54.4755 231.271 54.6342C231.429 54.7929 231.509 54.9982 231.509 55.2502C231.509 55.4929 231.429 55.6935 231.271 55.8522C231.112 56.0109 230.911 56.0902 230.669 56.0902ZM236.438 64.1962C235.85 64.1962 235.309 64.0562 234.814 63.7762C234.32 63.4962 233.928 63.0902 233.638 62.5582C233.349 62.0262 233.204 61.3962 233.204 60.6682V60.4862C233.204 59.7582 233.349 59.1329 233.638 58.6102C233.928 58.0782 234.315 57.6722 234.8 57.3922C235.295 57.1029 235.841 56.9582 236.438 56.9582C236.914 56.9582 237.316 57.0235 237.642 57.1542C237.978 57.2755 238.249 57.4342 238.454 57.6302C238.66 57.8169 238.818 58.0175 238.93 58.2322H239.126V54.2002H240.232V64.0002H239.154V62.8662H238.958C238.772 63.2115 238.482 63.5195 238.09 63.7902C237.698 64.0609 237.148 64.1962 236.438 64.1962ZM236.732 63.2162C237.442 63.2162 238.016 62.9922 238.454 62.5442C238.902 62.0869 239.126 61.4522 239.126 60.6402V60.5142C239.126 59.7022 238.902 59.0722 238.454 58.6242C238.016 58.1669 237.442 57.9382 236.732 57.9382C236.032 57.9382 235.454 58.1669 234.996 58.6242C234.548 59.0722 234.324 59.7022 234.324 60.5142V60.6402C234.324 61.4522 234.548 62.0869 234.996 62.5442C235.454 62.9922 236.032 63.2162 236.732 63.2162ZM242.494 60.9062V59.8842H246.638V60.9062H242.494ZM248.921 64.0002V54.2002H250.027V64.0002H248.921ZM255.489 64.1962C254.798 64.1962 254.192 64.0515 253.669 63.7622C253.146 63.4635 252.74 63.0482 252.451 62.5162C252.162 61.9842 252.017 61.3682 252.017 60.6682V60.5002C252.017 59.7909 252.162 59.1702 252.451 58.6382C252.74 58.1062 253.142 57.6955 253.655 57.4062C254.168 57.1075 254.756 56.9582 255.419 56.9582C256.063 56.9582 256.632 57.0982 257.127 57.3782C257.622 57.6489 258.009 58.0409 258.289 58.5542C258.569 59.0675 258.709 59.6695 258.709 60.3602V60.8642H253.123C253.151 61.6015 253.389 62.1802 253.837 62.6002C254.285 63.0109 254.845 63.2162 255.517 63.2162C256.105 63.2162 256.558 63.0809 256.875 62.8102C257.192 62.5395 257.435 62.2175 257.603 61.8442L258.555 62.3062C258.415 62.5955 258.219 62.8849 257.967 63.1742C257.724 63.4635 257.402 63.7062 257.001 63.9022C256.609 64.0982 256.105 64.1962 255.489 64.1962ZM253.137 59.9542H257.589C257.552 59.3195 257.332 58.8249 256.931 58.4702C256.539 58.1155 256.035 57.9382 255.419 57.9382C254.794 57.9382 254.28 58.1155 253.879 58.4702C253.478 58.8249 253.23 59.3195 253.137 59.9542ZM262.087 64.0002L259.637 57.1542H260.813L262.871 63.1742H263.067L265.125 57.1542H266.301L263.851 64.0002H262.087ZM270.747 64.1962C270.056 64.1962 269.449 64.0515 268.927 63.7622C268.404 63.4635 267.998 63.0482 267.709 62.5162C267.419 61.9842 267.275 61.3682 267.275 60.6682V60.5002C267.275 59.7909 267.419 59.1702 267.709 58.6382C267.998 58.1062 268.399 57.6955 268.913 57.4062C269.426 57.1075 270.014 56.9582 270.677 56.9582C271.321 56.9582 271.89 57.0982 272.385 57.3782C272.879 57.6489 273.267 58.0409 273.547 58.5542C273.827 59.0675 273.967 59.6695 273.967 60.3602V60.8642H268.381C268.409 61.6015 268.647 62.1802 269.095 62.6002C269.543 63.0109 270.103 63.2162 270.775 63.2162C271.363 63.2162 271.815 63.0809 272.133 62.8102C272.45 62.5395 272.693 62.2175 272.861 61.8442L273.813 62.3062C273.673 62.5955 273.477 62.8849 273.225 63.1742C272.982 63.4635 272.66 63.7062 272.259 63.9022C271.867 64.0982 271.363 64.1962 270.747 64.1962ZM268.395 59.9542H272.847C272.809 59.3195 272.59 58.8249 272.189 58.4702C271.797 58.1155 271.293 57.9382 270.677 57.9382C270.051 57.9382 269.538 58.1155 269.137 58.4702C268.735 58.8249 268.488 59.3195 268.395 59.9542ZM275.896 64.0002V54.2002H277.002V64.0002H275.896Z" fill="#C9C9C9" fill-opacity="0.6"/>
<path d="M217.491 82.0002V80.6562H218.807V73.5442H217.491V72.2002H221.411C222.718 72.2002 223.717 72.5315 224.407 73.1942C225.107 73.8569 225.457 74.8555 225.457 76.1902V78.0242C225.457 79.3589 225.107 80.3575 224.407 81.0202C223.717 81.6735 222.718 82.0002 221.411 82.0002H217.491ZM220.333 80.6282H221.425C222.275 80.6282 222.905 80.4135 223.315 79.9842C223.726 79.5549 223.931 78.9155 223.931 78.0662V76.1342C223.931 75.2755 223.726 74.6362 223.315 74.2162C222.905 73.7962 222.275 73.5862 221.425 73.5862H220.333V80.6282ZM230.372 82.1962C229.672 82.1962 229.061 82.0515 228.538 81.7622C228.015 81.4635 227.605 81.0482 227.306 80.5162C227.017 79.9749 226.872 79.3495 226.872 78.6402V78.4722C226.872 77.7535 227.017 77.1282 227.306 76.5962C227.595 76.0549 227.997 75.6395 228.51 75.3502C229.033 75.0515 229.635 74.9022 230.316 74.9022C230.979 74.9022 231.557 75.0515 232.052 75.3502C232.556 75.6395 232.948 76.0455 233.228 76.5682C233.508 77.0909 233.648 77.7022 233.648 78.4022V78.9482H228.342C228.361 79.5549 228.561 80.0402 228.944 80.4042C229.336 80.7589 229.821 80.9362 230.4 80.9362C230.941 80.9362 231.347 80.8149 231.618 80.5722C231.898 80.3295 232.113 80.0495 232.262 79.7322L233.452 80.3482C233.321 80.6095 233.13 80.8849 232.878 81.1742C232.635 81.4635 232.313 81.7062 231.912 81.9022C231.511 82.0982 230.997 82.1962 230.372 82.1962ZM228.356 77.8422H232.178C232.141 77.3195 231.954 76.9135 231.618 76.6242C231.282 76.3255 230.843 76.1762 230.302 76.1762C229.761 76.1762 229.317 76.3255 228.972 76.6242C228.636 76.9135 228.431 77.3195 228.356 77.8422ZM236.734 82.0002L234.41 75.0982H235.936L237.77 80.9362H237.994L239.828 75.0982H241.354L239.03 82.0002H236.734ZM245.671 82.1962C244.971 82.1962 244.36 82.0515 243.837 81.7622C243.314 81.4635 242.904 81.0482 242.605 80.5162C242.316 79.9749 242.171 79.3495 242.171 78.6402V78.4722C242.171 77.7535 242.316 77.1282 242.605 76.5962C242.894 76.0549 243.296 75.6395 243.809 75.3502C244.332 75.0515 244.934 74.9022 245.615 74.9022C246.278 74.9022 246.856 75.0515 247.351 75.3502C247.855 75.6395 248.247 76.0455 248.527 76.5682C248.807 77.0909 248.947 77.7022 248.947 78.4022V78.9482H243.641C243.66 79.5549 243.86 80.0402 244.243 80.4042C244.635 80.7589 245.12 80.9362 245.699 80.9362C246.24 80.9362 246.646 80.8149 246.917 80.5722C247.197 80.3295 247.412 80.0495 247.561 79.7322L248.751 80.3482C248.62 80.6095 248.429 80.8849 248.177 81.1742C247.934 81.4635 247.612 81.7062 247.211 81.9022C246.81 82.0982 246.296 82.1962 245.671 82.1962ZM243.655 77.8422H247.477C247.44 77.3195 247.253 76.9135 246.917 76.6242C246.581 76.3255 246.142 76.1762 245.601 76.1762C245.06 76.1762 244.616 76.3255 244.271 76.6242C243.935 76.9135 243.73 77.3195 243.655 77.8422ZM250.683 82.0002V72.2002H252.125V82.0002H250.683ZM257.499 82.1962C256.808 82.1962 256.192 82.0562 255.651 81.7762C255.119 81.4869 254.699 81.0762 254.391 80.5442C254.083 80.0122 253.929 79.3822 253.929 78.6542V78.4442C253.929 77.7162 254.083 77.0909 254.391 76.5682C254.699 76.0362 255.119 75.6255 255.651 75.3362C256.192 75.0469 256.808 74.9022 257.499 74.9022C258.189 74.9022 258.805 75.0469 259.347 75.3362C259.888 75.6255 260.313 76.0362 260.621 76.5682C260.929 77.0909 261.083 77.7162 261.083 78.4442V78.6542C261.083 79.3822 260.929 80.0122 260.621 80.5442C260.313 81.0762 259.888 81.4869 259.347 81.7762C258.805 82.0562 258.189 82.1962 257.499 82.1962ZM257.499 80.9082C258.133 80.9082 258.647 80.7075 259.039 80.3062C259.44 79.8955 259.641 79.3309 259.641 78.6122V78.4862C259.641 77.7675 259.445 77.2075 259.053 76.8062C258.661 76.3955 258.143 76.1902 257.499 76.1902C256.873 76.1902 256.36 76.3955 255.959 76.8062C255.567 77.2075 255.371 77.7675 255.371 78.4862V78.6122C255.371 79.3309 255.567 79.8955 255.959 80.3062C256.36 80.7075 256.873 80.9082 257.499 80.9082ZM262.878 84.8002V75.0982H264.292V76.0922H264.516C264.693 75.7842 264.959 75.5089 265.314 75.2662C265.678 75.0235 266.196 74.9022 266.868 74.9022C267.447 74.9022 267.974 75.0422 268.45 75.3222C268.935 75.6022 269.323 76.0082 269.612 76.5402C269.911 77.0629 270.06 77.6975 270.06 78.4442V78.6542C270.06 79.4009 269.915 80.0402 269.626 80.5722C269.337 81.0949 268.949 81.4962 268.464 81.7762C267.979 82.0562 267.447 82.1962 266.868 82.1962C266.42 82.1962 266.042 82.1402 265.734 82.0282C265.426 81.9162 265.179 81.7762 264.992 81.6082C264.805 81.4309 264.656 81.2489 264.544 81.0622H264.32V84.8002H262.878ZM266.448 80.9362C267.083 80.9362 267.601 80.7355 268.002 80.3342C268.403 79.9329 268.604 79.3589 268.604 78.6122V78.4862C268.604 77.7489 268.399 77.1795 267.988 76.7782C267.587 76.3769 267.073 76.1762 266.448 76.1762C265.832 76.1762 265.319 76.3769 264.908 76.7782C264.507 77.1795 264.306 77.7489 264.306 78.4862V78.6122C264.306 79.3589 264.507 79.9329 264.908 80.3342C265.319 80.7355 265.832 80.9362 266.448 80.9362ZM271.847 82.0002V75.0982H273.289V82.0002H271.847ZM272.575 74.1602C272.295 74.1602 272.057 74.0715 271.861 73.8942C271.674 73.7075 271.581 73.4695 271.581 73.1802C271.581 72.8909 271.674 72.6575 271.861 72.4802C272.057 72.2935 272.295 72.2002 272.575 72.2002C272.864 72.2002 273.102 72.2935 273.289 72.4802C273.475 72.6575 273.569 72.8909 273.569 73.1802C273.569 73.4695 273.475 73.7075 273.289 73.8942C273.102 74.0715 272.864 74.1602 272.575 74.1602ZM275.429 82.0002V75.0982H276.843V76.1342H277.067C277.197 75.8542 277.431 75.5929 277.767 75.3502C278.103 75.1075 278.602 74.9862 279.265 74.9862C279.787 74.9862 280.249 75.1029 280.651 75.3362C281.061 75.5695 281.383 75.9009 281.617 76.3302C281.85 76.7502 281.967 77.2589 281.967 77.8562V82.0002H280.525V77.9682C280.525 77.3709 280.375 76.9322 280.077 76.6522C279.778 76.3629 279.367 76.2182 278.845 76.2182C278.247 76.2182 277.767 76.4142 277.403 76.8062C277.048 77.1982 276.871 77.7675 276.871 78.5142V82.0002H275.429ZM283.706 78.5842V78.3742C283.706 77.6462 283.851 77.0255 284.14 76.5122C284.439 75.9989 284.831 75.6022 285.316 75.3222C285.801 75.0422 286.333 74.9022 286.912 74.9022C287.584 74.9022 288.097 75.0282 288.452 75.2802C288.816 75.5322 289.082 75.8029 289.25 76.0922H289.474V75.0982H290.874V83.4142C290.874 83.8342 290.748 84.1702 290.496 84.4222C290.253 84.6742 289.917 84.8002 289.488 84.8002H284.84V83.5402H289.04C289.311 83.5402 289.446 83.4002 289.446 83.1202V80.9222H289.222C289.119 81.0902 288.975 81.2629 288.788 81.4402C288.601 81.6175 288.354 81.7622 288.046 81.8742C287.747 81.9862 287.369 82.0422 286.912 82.0422C286.333 82.0422 285.797 81.9069 285.302 81.6362C284.817 81.3562 284.429 80.9595 284.14 80.4462C283.851 79.9235 283.706 79.3029 283.706 78.5842ZM287.304 80.7822C287.929 80.7822 288.443 80.5862 288.844 80.1942C289.255 79.7929 289.46 79.2422 289.46 78.5422V78.4162C289.46 77.6975 289.259 77.1469 288.858 76.7642C288.457 76.3722 287.939 76.1762 287.304 76.1762C286.688 76.1762 286.175 76.3722 285.764 76.7642C285.363 77.1469 285.162 77.6975 285.162 78.4162V78.5422C285.162 79.2422 285.363 79.7929 285.764 80.1942C286.175 80.5862 286.688 80.7822 287.304 80.7822Z" fill="white"/>
</svg>
