<svg width="314" height="85" viewBox="0 0 314 85" fill="none" xmlns="http://www.w3.org/2000/svg">
<path d="M9.84277 79.9435C10.0303 68.0223 16.7067 39.9533 41.912 23.0469" stroke="#315599" stroke-width="4" stroke-linecap="round"/>
<path d="M48.8789 17.5637C59.5053 11.9366 87.4406 3.99611 114.17 17.25" stroke="#4D9A71" stroke-width="4" stroke-linecap="round"/>
<path d="M123.643 22.2192C133.614 28.9405 153.781 49.8386 154.685 79.6601" stroke="#6CE54A" stroke-width="4" stroke-linecap="round"/>
<path d="M159.556 69.1626C159.556 72.6286 156.746 75.4385 153.28 75.4385C149.814 75.4385 147.004 72.6286 147.004 69.1626C147.004 65.6965 149.814 62.8867 153.28 62.8867C156.746 62.8867 159.556 65.6965 159.556 69.1626Z" fill="black" stroke="#6CE54A" stroke-width="4"/>
<path d="M46.4531 68.6875V58.8875H47.6291V67.6233H52.5851V68.6875H46.4531ZM57.219 68.8834C56.5284 68.8834 55.9217 68.7388 55.399 68.4495C54.8764 68.1508 54.4704 67.7354 54.181 67.2034C53.8917 66.6714 53.747 66.0554 53.747 65.3554V65.1875C53.747 64.4782 53.8917 63.8575 54.181 63.3255C54.4704 62.7935 54.8717 62.3826 55.385 62.0933C55.8984 61.7946 56.4864 61.6455 57.149 61.6455C57.793 61.6455 58.3624 61.7853 58.857 62.0653C59.3517 62.336 59.739 62.7282 60.019 63.2415C60.299 63.7548 60.439 64.3568 60.439 65.0475V65.5513H54.853C54.881 66.2886 55.119 66.8673 55.567 67.2873C56.015 67.698 56.575 67.9035 57.247 67.9035C57.835 67.9035 58.2877 67.768 58.605 67.4973C58.9224 67.2266 59.165 66.9048 59.333 66.5315L60.285 66.9935C60.145 67.2828 59.949 67.5722 59.697 67.8615C59.4544 68.1508 59.1324 68.3935 58.731 68.5895C58.339 68.7855 57.835 68.8834 57.219 68.8834ZM54.867 64.6415H59.319C59.2817 64.0068 59.0624 63.5122 58.661 63.1575C58.269 62.8028 57.765 62.6255 57.149 62.6255C56.5237 62.6255 56.0104 62.8028 55.609 63.1575C55.2077 63.5122 54.9604 64.0068 54.867 64.6415ZM62.0322 65.2994V65.1035C62.0322 64.3848 62.1768 63.7688 62.4662 63.2555C62.7555 62.7422 63.1475 62.3453 63.6422 62.0653C64.1368 61.7853 64.6782 61.6455 65.2662 61.6455C65.9848 61.6455 66.5355 61.7853 66.9182 62.0653C67.3102 62.336 67.5995 62.6393 67.7862 62.9753H67.9822V61.8414H69.0322V70.2835C69.0322 70.6568 68.9295 70.9506 68.7242 71.1653C68.5188 71.38 68.2202 71.4875 67.8282 71.4875H63.1802V70.5075H67.5342C67.8142 70.5075 67.9542 70.3675 67.9542 70.0875V67.4833H67.7582C67.6462 67.6886 67.4875 67.8895 67.2822 68.0855C67.0768 68.2815 66.8108 68.4448 66.4842 68.5755C66.1575 68.6968 65.7515 68.7575 65.2662 68.7575C64.6782 68.7575 64.1368 68.6175 63.6422 68.3375C63.1475 68.0575 62.7555 67.6607 62.4662 67.1474C62.1768 66.6247 62.0322 66.0087 62.0322 65.2994ZM65.5602 67.7773C66.2695 67.7773 66.8435 67.5534 67.2822 67.1054C67.7302 66.6574 67.9542 66.0415 67.9542 65.2575V65.1455C67.9542 64.3522 67.7302 63.7362 67.2822 63.2975C66.8435 62.8495 66.2695 62.6255 65.5602 62.6255C64.8602 62.6255 64.2815 62.8495 63.8242 63.2975C63.3762 63.7362 63.1522 64.3522 63.1522 65.1455V65.2575C63.1522 66.0415 63.3762 66.6574 63.8242 67.1054C64.2815 67.5534 64.8602 67.7773 65.5602 67.7773ZM74.4866 68.8834C73.7959 68.8834 73.1893 68.7388 72.6666 68.4495C72.1439 68.1508 71.7379 67.7354 71.4486 67.2034C71.1593 66.6714 71.0146 66.0554 71.0146 65.3554V65.1875C71.0146 64.4782 71.1593 63.8575 71.4486 63.3255C71.7379 62.7935 72.1393 62.3826 72.6526 62.0933C73.1659 61.7946 73.7539 61.6455 74.4166 61.6455C75.0606 61.6455 75.6299 61.7853 76.1246 62.0653C76.6193 62.336 77.0066 62.7282 77.2866 63.2415C77.5666 63.7548 77.7066 64.3568 77.7066 65.0475V65.5513H72.1206C72.1486 66.2886 72.3866 66.8673 72.8346 67.2873C73.2826 67.698 73.8426 67.9035 74.5146 67.9035C75.1026 67.9035 75.5553 67.768 75.8726 67.4973C76.1899 67.2266 76.4326 66.9048 76.6006 66.5315L77.5526 66.9935C77.4126 67.2828 77.2166 67.5722 76.9646 67.8615C76.7219 68.1508 76.3999 68.3935 75.9986 68.5895C75.6066 68.7855 75.1026 68.8834 74.4866 68.8834ZM72.1346 64.6415H76.5866C76.5493 64.0068 76.3299 63.5122 75.9286 63.1575C75.5366 62.8028 75.0326 62.6255 74.4166 62.6255C73.7913 62.6255 73.2779 62.8028 72.8766 63.1575C72.4753 63.5122 72.2279 64.0068 72.1346 64.6415ZM79.6358 68.6875V61.8414H80.7138V63.0035H80.9098C81.0591 62.6768 81.3111 62.3826 81.6658 62.1213C82.0298 61.8506 82.5618 61.7155 83.2618 61.7155C83.7751 61.7155 84.2324 61.8226 84.6338 62.0373C85.0444 62.252 85.3711 62.5693 85.6138 62.9893C85.8564 63.4093 85.9778 63.9275 85.9778 64.5435V68.6875H84.8718V64.6275C84.8718 63.9462 84.6991 63.4515 84.3538 63.1435C84.0178 62.8355 83.5604 62.6814 82.9818 62.6814C82.3191 62.6814 81.7778 62.8962 81.3578 63.3255C80.9471 63.7548 80.7418 64.3942 80.7418 65.2435V68.6875H79.6358ZM91.1197 68.8834C90.5317 68.8834 89.9904 68.7435 89.4957 68.4635C89.001 68.1835 88.609 67.7773 88.3197 67.2453C88.0304 66.7133 87.8857 66.0834 87.8857 65.3554V65.1735C87.8857 64.4455 88.0304 63.8202 88.3197 63.2975C88.609 62.7655 88.9964 62.3593 89.4817 62.0793C89.9764 61.79 90.5224 61.6455 91.1197 61.6455C91.5957 61.6455 91.997 61.7107 92.3237 61.8414C92.6597 61.9627 92.9304 62.1215 93.1357 62.3175C93.341 62.5042 93.4997 62.7046 93.6117 62.9193H93.8077V58.8875H94.9137V68.6875H93.8357V67.5533H93.6397C93.453 67.8986 93.1637 68.2068 92.7717 68.4775C92.3797 68.7482 91.829 68.8834 91.1197 68.8834ZM91.4137 67.9035C92.123 67.9035 92.697 67.6793 93.1357 67.2313C93.5837 66.774 93.8077 66.1394 93.8077 65.3274V65.2015C93.8077 64.3895 93.5837 63.7595 93.1357 63.3115C92.697 62.8542 92.123 62.6255 91.4137 62.6255C90.7137 62.6255 90.135 62.8542 89.6777 63.3115C89.2297 63.7595 89.0057 64.3895 89.0057 65.2015V65.3274C89.0057 66.1394 89.2297 66.774 89.6777 67.2313C90.135 67.6793 90.7137 67.9035 91.4137 67.9035ZM99.3315 68.8834C98.8555 68.8834 98.4215 68.7995 98.0295 68.6315C97.6375 68.4635 97.3295 68.2208 97.1055 67.9035C96.8815 67.5862 96.7695 67.1988 96.7695 66.7415C96.7695 66.2748 96.8815 65.892 97.1055 65.5933C97.3295 65.2853 97.6375 65.0568 98.0295 64.9075C98.4215 64.7488 98.8601 64.6695 99.3455 64.6695H101.655V64.1653C101.655 63.68 101.511 63.2975 101.221 63.0175C100.941 62.7375 100.521 62.5975 99.9615 62.5975C99.4108 62.5975 98.9815 62.7328 98.6735 63.0035C98.3655 63.2648 98.1555 63.6193 98.0435 64.0673L97.0075 63.7313C97.1195 63.3486 97.2968 63.0034 97.5395 62.6954C97.7821 62.3781 98.1041 62.1261 98.5055 61.9394C98.9161 61.7434 99.4061 61.6455 99.9755 61.6455C100.853 61.6455 101.534 61.8742 102.019 62.3315C102.505 62.7795 102.747 63.414 102.747 64.2353V67.3293C102.747 67.6093 102.878 67.7493 103.139 67.7493H103.769V68.6875H102.803C102.495 68.6875 102.248 68.6035 102.061 68.4355C101.875 68.2582 101.781 68.0246 101.781 67.7353V67.6653H101.613C101.511 67.8426 101.371 68.0295 101.193 68.2255C101.025 68.4122 100.792 68.5662 100.494 68.6875C100.195 68.8182 99.8075 68.8834 99.3315 68.8834ZM99.4575 67.9315C100.111 67.9315 100.638 67.74 101.039 67.3573C101.45 66.9653 101.655 66.4193 101.655 65.7193V65.5653H99.3875C98.9488 65.5653 98.5848 65.6633 98.2955 65.8593C98.0155 66.046 97.8755 66.3308 97.8755 66.7135C97.8755 67.0962 98.0201 67.3946 98.3095 67.6093C98.6081 67.824 98.9908 67.9315 99.4575 67.9315ZM105.284 68.6875V61.8414H106.362V62.6814H106.558C106.68 62.3827 106.866 62.1633 107.118 62.0233C107.37 61.8833 107.702 61.8134 108.112 61.8134H108.924V62.8214H108.042C107.548 62.8214 107.146 62.9615 106.838 63.2415C106.54 63.5122 106.39 63.9368 106.39 64.5155V68.6875H105.284ZM111.388 71.4875V70.5075H115.308C115.578 70.5075 115.714 70.3675 115.714 70.0875V67.5953H115.518C115.424 67.7913 115.28 67.9875 115.084 68.1835C114.897 68.3702 114.65 68.5242 114.342 68.6455C114.034 68.7575 113.646 68.8134 113.18 68.8134C112.685 68.8134 112.228 68.7062 111.808 68.4915C111.397 68.2768 111.07 67.9593 110.828 67.5393C110.594 67.1193 110.478 66.606 110.478 65.9993V61.8414H111.584V65.9153C111.584 66.5873 111.752 67.0773 112.088 67.3853C112.433 67.6933 112.895 67.8475 113.474 67.8475C114.127 67.8475 114.664 67.6327 115.084 67.2034C115.504 66.7741 115.714 66.1348 115.714 65.2854V61.8414H116.82V70.2835C116.82 70.6568 116.712 70.9506 116.498 71.1653C116.292 71.38 115.989 71.4875 115.588 71.4875H111.388Z" fill="white"/>
<path d="M202.75 1.41675L206.833 5.50008M206.833 5.50008L202.75 9.5834M206.833 5.50008H197.5" stroke="white" stroke-width="1.5" stroke-linecap="round" stroke-linejoin="round"/>
<path d="M217.953 9.99995V0.199951H219.129V8.93595H224.085V9.99995H217.953ZM228.719 10.196C228.029 10.196 227.422 10.0513 226.899 9.76195C226.377 9.46328 225.971 9.04795 225.681 8.51595C225.392 7.98395 225.247 7.36795 225.247 6.66795V6.49995C225.247 5.79062 225.392 5.16995 225.681 4.63795C225.971 4.10595 226.372 3.69528 226.885 3.40595C227.399 3.10728 227.987 2.95795 228.649 2.95795C229.293 2.95795 229.863 3.09795 230.357 3.37795C230.852 3.64862 231.239 4.04062 231.519 4.55395C231.799 5.06728 231.939 5.66928 231.939 6.35995V6.86395H226.353C226.381 7.60128 226.619 8.17995 227.067 8.59995C227.515 9.01062 228.075 9.21595 228.747 9.21595C229.335 9.21595 229.788 9.08062 230.105 8.80995C230.423 8.53928 230.665 8.21728 230.833 7.84395L231.785 8.30595C231.645 8.59528 231.449 8.88462 231.197 9.17395C230.955 9.46328 230.633 9.70595 230.231 9.90195C229.839 10.098 229.335 10.196 228.719 10.196ZM226.367 5.95395H230.819C230.782 5.31928 230.563 4.82462 230.161 4.46995C229.769 4.11528 229.265 3.93795 228.649 3.93795C228.024 3.93795 227.511 4.11528 227.109 4.46995C226.708 4.82462 226.461 5.31928 226.367 5.95395ZM233.533 6.61195V6.41595C233.533 5.69728 233.677 5.08128 233.967 4.56795C234.256 4.05462 234.648 3.65795 235.143 3.37795C235.637 3.09795 236.179 2.95795 236.767 2.95795C237.485 2.95795 238.036 3.09795 238.419 3.37795C238.811 3.64862 239.1 3.95195 239.287 4.28795H239.483V3.15395H240.533V11.596C240.533 11.9693 240.43 12.2633 240.225 12.478C240.019 12.6927 239.721 12.8 239.329 12.8H234.681V11.82H239.035C239.315 11.82 239.455 11.68 239.455 11.4V8.79595H239.259C239.147 9.00128 238.988 9.20195 238.783 9.39795C238.577 9.59395 238.311 9.75728 237.985 9.88795C237.658 10.0093 237.252 10.07 236.767 10.07C236.179 10.07 235.637 9.92995 235.143 9.64995C234.648 9.36995 234.256 8.97328 233.967 8.45995C233.677 7.93728 233.533 7.32128 233.533 6.61195ZM237.061 9.08995C237.77 9.08995 238.344 8.86595 238.783 8.41795C239.231 7.96995 239.455 7.35395 239.455 6.56995V6.45795C239.455 5.66462 239.231 5.04862 238.783 4.60995C238.344 4.16195 237.77 3.93795 237.061 3.93795C236.361 3.93795 235.782 4.16195 235.325 4.60995C234.877 5.04862 234.653 5.66462 234.653 6.45795V6.56995C234.653 7.35395 234.877 7.96995 235.325 8.41795C235.782 8.86595 236.361 9.08995 237.061 9.08995ZM245.987 10.196C245.296 10.196 244.69 10.0513 244.167 9.76195C243.644 9.46328 243.238 9.04795 242.949 8.51595C242.66 7.98395 242.515 7.36795 242.515 6.66795V6.49995C242.515 5.79062 242.66 5.16995 242.949 4.63795C243.238 4.10595 243.64 3.69528 244.153 3.40595C244.666 3.10728 245.254 2.95795 245.917 2.95795C246.561 2.95795 247.13 3.09795 247.625 3.37795C248.12 3.64862 248.507 4.04062 248.787 4.55395C249.067 5.06728 249.207 5.66928 249.207 6.35995V6.86395H243.621C243.649 7.60128 243.887 8.17995 244.335 8.59995C244.783 9.01062 245.343 9.21595 246.015 9.21595C246.603 9.21595 247.056 9.08062 247.373 8.80995C247.69 8.53928 247.933 8.21728 248.101 7.84395L249.053 8.30595C248.913 8.59528 248.717 8.88462 248.465 9.17395C248.222 9.46328 247.9 9.70595 247.499 9.90195C247.107 10.098 246.603 10.196 245.987 10.196ZM243.635 5.95395H248.087C248.05 5.31928 247.83 4.82462 247.429 4.46995C247.037 4.11528 246.533 3.93795 245.917 3.93795C245.292 3.93795 244.778 4.11528 244.377 4.46995C243.976 4.82462 243.728 5.31928 243.635 5.95395ZM251.136 9.99995V3.15395H252.214V4.31595H252.41C252.559 3.98928 252.811 3.69528 253.166 3.43395C253.53 3.16328 254.062 3.02795 254.762 3.02795C255.275 3.02795 255.733 3.13528 256.134 3.34995C256.545 3.56462 256.871 3.88195 257.114 4.30195C257.357 4.72195 257.478 5.23995 257.478 5.85595V9.99995H256.372V5.93995C256.372 5.25862 256.199 4.76395 255.854 4.45595C255.518 4.14795 255.061 3.99395 254.482 3.99395C253.819 3.99395 253.278 4.20862 252.858 4.63795C252.447 5.06728 252.242 5.70662 252.242 6.55595V9.99995H251.136ZM262.62 10.196C262.032 10.196 261.491 10.056 260.996 9.77595C260.501 9.49595 260.109 9.08995 259.82 8.55795C259.531 8.02595 259.386 7.39595 259.386 6.66795V6.48595C259.386 5.75795 259.531 5.13262 259.82 4.60995C260.109 4.07795 260.497 3.67195 260.982 3.39195C261.477 3.10262 262.023 2.95795 262.62 2.95795C263.096 2.95795 263.497 3.02328 263.824 3.15395C264.16 3.27528 264.431 3.43395 264.636 3.62995C264.841 3.81662 265 4.01728 265.112 4.23195H265.308V0.199951H266.414V9.99995H265.336V8.86595H265.14C264.953 9.21128 264.664 9.51928 264.272 9.78995C263.88 10.0607 263.329 10.196 262.62 10.196ZM262.914 9.21595C263.623 9.21595 264.197 8.99195 264.636 8.54395C265.084 8.08662 265.308 7.45195 265.308 6.63995V6.51395C265.308 5.70195 265.084 5.07195 264.636 4.62395C264.197 4.16662 263.623 3.93795 262.914 3.93795C262.214 3.93795 261.635 4.16662 261.178 4.62395C260.73 5.07195 260.506 5.70195 260.506 6.51395V6.63995C260.506 7.45195 260.73 8.08662 261.178 8.54395C261.635 8.99195 262.214 9.21595 262.914 9.21595ZM270.832 10.196C270.356 10.196 269.922 10.112 269.53 9.94395C269.138 9.77595 268.83 9.53328 268.606 9.21595C268.382 8.89862 268.27 8.51128 268.27 8.05395C268.27 7.58728 268.382 7.20462 268.606 6.90595C268.83 6.59795 269.138 6.36928 269.53 6.21995C269.922 6.06128 270.36 5.98195 270.846 5.98195H273.156V5.47795C273.156 4.99262 273.011 4.60995 272.722 4.32995C272.442 4.04995 272.022 3.90995 271.462 3.90995C270.911 3.90995 270.482 4.04528 270.174 4.31595C269.866 4.57728 269.656 4.93195 269.544 5.37995L268.508 5.04395C268.62 4.66128 268.797 4.31595 269.04 4.00795C269.282 3.69062 269.604 3.43862 270.006 3.25195C270.416 3.05595 270.906 2.95795 271.476 2.95795C272.353 2.95795 273.034 3.18662 273.52 3.64395C274.005 4.09195 274.248 4.72662 274.248 5.54795V8.64195C274.248 8.92195 274.378 9.06195 274.64 9.06195H275.27V9.99995H274.304C273.996 9.99995 273.748 9.91595 273.562 9.74795C273.375 9.57062 273.282 9.33728 273.282 9.04795V8.97795H273.114C273.011 9.15528 272.871 9.34195 272.694 9.53795C272.526 9.72462 272.292 9.87862 271.994 9.99995C271.695 10.1307 271.308 10.196 270.832 10.196ZM270.958 9.24395C271.611 9.24395 272.138 9.05262 272.54 8.66995C272.95 8.27795 273.156 7.73195 273.156 7.03195V6.87795H270.888C270.449 6.87795 270.085 6.97595 269.796 7.17195C269.516 7.35862 269.376 7.64328 269.376 8.02595C269.376 8.40862 269.52 8.70728 269.81 8.92195C270.108 9.13662 270.491 9.24395 270.958 9.24395ZM276.785 9.99995V3.15395H277.863V3.99395H278.059C278.18 3.69528 278.367 3.47595 278.619 3.33595C278.871 3.19595 279.202 3.12595 279.613 3.12595H280.425V4.13395H279.543C279.048 4.13395 278.647 4.27395 278.339 4.55395C278.04 4.82462 277.891 5.24928 277.891 5.82795V9.99995H276.785ZM282.888 12.8V11.82H286.808C287.079 11.82 287.214 11.68 287.214 11.4V8.90795H287.018C286.925 9.10395 286.78 9.29995 286.584 9.49595C286.397 9.68262 286.15 9.83662 285.842 9.95795C285.534 10.07 285.147 10.126 284.68 10.126C284.185 10.126 283.728 10.0187 283.308 9.80395C282.897 9.58928 282.571 9.27195 282.328 8.85195C282.095 8.43195 281.978 7.91862 281.978 7.31195V3.15395H283.084V7.22795C283.084 7.89995 283.252 8.38995 283.588 8.69795C283.933 9.00595 284.395 9.15995 284.974 9.15995C285.627 9.15995 286.164 8.94528 286.584 8.51595C287.004 8.08662 287.214 7.44728 287.214 6.59795V3.15395H288.32V11.596C288.32 11.9693 288.213 12.2633 287.998 12.478C287.793 12.6927 287.489 12.8 287.088 12.8H282.888Z" fill="white"/>
<path d="M221.215 28.1959C220.506 28.1959 219.871 28.0699 219.311 27.8179C218.751 27.5659 218.308 27.1879 217.981 26.6839C217.664 26.1706 217.505 25.5312 217.505 24.7659V24.4719H218.667V24.7659C218.667 25.5779 218.905 26.1846 219.381 26.5859C219.857 26.9779 220.469 27.1739 221.215 27.1739C221.981 27.1739 222.564 27.0012 222.965 26.6559C223.367 26.3106 223.567 25.8766 223.567 25.3539C223.567 24.9899 223.474 24.7006 223.287 24.4859C223.11 24.2712 222.858 24.0986 222.531 23.9679C222.205 23.8279 221.822 23.7066 221.383 23.6039L220.655 23.4219C220.086 23.2726 219.582 23.0906 219.143 22.8759C218.705 22.6612 218.359 22.3812 218.107 22.0359C217.865 21.6812 217.743 21.2286 217.743 20.6779C217.743 20.1272 217.879 19.6512 218.149 19.2499C218.429 18.8486 218.817 18.5406 219.311 18.3259C219.815 18.1112 220.394 18.0039 221.047 18.0039C221.71 18.0039 222.303 18.1206 222.825 18.3539C223.357 18.5779 223.773 18.9139 224.071 19.3619C224.379 19.8006 224.533 20.3559 224.533 21.0279V21.6159H223.371V21.0279C223.371 20.5519 223.269 20.1692 223.063 19.8799C222.867 19.5906 222.592 19.3759 222.237 19.2359C221.892 19.0959 221.495 19.0259 221.047 19.0259C220.403 19.0259 219.885 19.1706 219.493 19.4599C219.101 19.7399 218.905 20.1412 218.905 20.6639C218.905 21.0092 218.989 21.2892 219.157 21.5039C219.325 21.7186 219.563 21.8959 219.871 22.0359C220.179 22.1666 220.548 22.2832 220.977 22.3859L221.705 22.5679C222.275 22.6892 222.783 22.8572 223.231 23.0719C223.689 23.2772 224.053 23.5619 224.323 23.9259C224.594 24.2806 224.729 24.7472 224.729 25.3259C224.729 25.9046 224.585 26.4086 224.295 26.8379C224.006 27.2672 223.595 27.6032 223.063 27.8459C222.541 28.0792 221.925 28.1959 221.215 28.1959ZM229.199 28.1259C228.705 28.1259 228.247 28.0186 227.827 27.8039C227.417 27.5892 227.09 27.2719 226.847 26.8519C226.614 26.4226 226.497 25.9046 226.497 25.2979V21.1539H227.603V25.2139C227.603 25.8952 227.771 26.3899 228.107 26.6979C228.453 27.0059 228.915 27.1599 229.493 27.1599C230.147 27.1599 230.683 26.9452 231.103 26.5159C231.523 26.0866 231.733 25.4472 231.733 24.5979V21.1539H232.839V27.9999H231.761V26.8379H231.565C231.416 27.1646 231.159 27.4632 230.795 27.7339C230.431 27.9952 229.899 28.1259 229.199 28.1259ZM235.154 30.7999V21.1539H236.232V22.2879H236.428C236.605 21.9426 236.89 21.6346 237.282 21.3639C237.683 21.0932 238.238 20.9579 238.948 20.9579C239.536 20.9579 240.072 21.1026 240.558 21.3919C241.052 21.6719 241.444 22.0732 241.734 22.5959C242.032 23.1186 242.182 23.7486 242.182 24.4859V24.6679C242.182 25.3959 242.037 26.0259 241.748 26.5579C241.458 27.0899 241.066 27.4959 240.572 27.7759C240.086 28.0559 239.545 28.1959 238.948 28.1959C238.472 28.1959 238.066 28.1306 237.73 27.9999C237.403 27.8786 237.137 27.7199 236.932 27.5239C236.726 27.3279 236.568 27.1272 236.456 26.9219H236.26V30.7999H235.154ZM238.654 27.2159C239.363 27.2159 239.937 26.9919 240.376 26.5439C240.824 26.0866 241.048 25.4519 241.048 24.6399V24.5139C241.048 23.7019 240.824 23.0719 240.376 22.6239C239.937 22.1666 239.363 21.9379 238.654 21.9379C237.954 21.9379 237.375 22.1666 236.918 22.6239C236.47 23.0719 236.246 23.7019 236.246 24.5139V24.6399C236.246 25.4519 236.47 26.0866 236.918 26.5439C237.375 26.9919 237.954 27.2159 238.654 27.2159ZM247.299 28.1959C246.609 28.1959 246.002 28.0512 245.479 27.7619C244.957 27.4632 244.551 27.0479 244.261 26.5159C243.972 25.9839 243.827 25.3679 243.827 24.6679V24.4999C243.827 23.7906 243.972 23.1699 244.261 22.6379C244.551 22.1059 244.952 21.6952 245.465 21.4059C245.979 21.1072 246.567 20.9579 247.229 20.9579C247.873 20.9579 248.443 21.0979 248.937 21.3779C249.432 21.6486 249.819 22.0406 250.099 22.5539C250.379 23.0672 250.519 23.6692 250.519 24.3599V24.8639H244.933C244.961 25.6012 245.199 26.1799 245.647 26.5999C246.095 27.0106 246.655 27.2159 247.327 27.2159C247.915 27.2159 248.368 27.0806 248.685 26.8099C249.003 26.5392 249.245 26.2172 249.413 25.8439L250.365 26.3059C250.225 26.5952 250.029 26.8846 249.777 27.1739C249.535 27.4632 249.213 27.7059 248.811 27.9019C248.419 28.0979 247.915 28.1959 247.299 28.1959ZM244.947 23.9539H249.399C249.362 23.3192 249.143 22.8246 248.741 22.4699C248.349 22.1152 247.845 21.9379 247.229 21.9379C246.604 21.9379 246.091 22.1152 245.689 22.4699C245.288 22.8246 245.041 23.3192 244.947 23.9539ZM252.449 27.9999V21.1539H253.527V21.9939H253.723C253.844 21.6952 254.031 21.4759 254.283 21.3359C254.535 21.1959 254.866 21.1259 255.277 21.1259H256.089V22.1339H255.207C254.712 22.1339 254.311 22.2739 254.003 22.5539C253.704 22.8246 253.555 23.2492 253.555 23.8279V27.9999H252.449ZM260.347 28.1959C259.498 28.1959 258.779 27.9999 258.191 27.6079C257.613 27.2159 257.263 26.5952 257.141 25.7459L258.191 25.5079C258.266 25.9559 258.406 26.3106 258.611 26.5719C258.817 26.8239 259.069 27.0059 259.367 27.1179C259.675 27.2206 260.002 27.2719 260.347 27.2719C260.861 27.2719 261.267 27.1692 261.565 26.9639C261.864 26.7586 262.013 26.4832 262.013 26.1379C262.013 25.7832 261.869 25.5359 261.579 25.3959C261.299 25.2466 260.912 25.1252 260.417 25.0319L259.843 24.9339C259.405 24.8592 259.003 24.7426 258.639 24.5839C258.275 24.4252 257.986 24.2106 257.771 23.9399C257.557 23.6692 257.449 23.3286 257.449 22.9179C257.449 22.3019 257.687 21.8212 258.163 21.4759C258.639 21.1306 259.269 20.9579 260.053 20.9579C260.828 20.9579 261.453 21.1352 261.929 21.4899C262.415 21.8352 262.727 22.3252 262.867 22.9599L261.831 23.2259C261.747 22.7312 261.547 22.3859 261.229 22.1899C260.912 21.9846 260.52 21.8819 260.053 21.8819C259.587 21.8819 259.218 21.9706 258.947 22.1479C258.677 22.3159 258.541 22.5679 258.541 22.9039C258.541 23.2306 258.667 23.4732 258.919 23.6319C259.181 23.7812 259.526 23.8932 259.955 23.9679L260.529 24.0659C261.015 24.1499 261.449 24.2666 261.831 24.4159C262.223 24.5559 262.531 24.7612 262.755 25.0319C262.989 25.3026 263.105 25.6572 263.105 26.0959C263.105 26.7679 262.853 27.2859 262.349 27.6499C261.855 28.0139 261.187 28.1959 260.347 28.1959ZM267.342 27.9999C266.95 27.9999 266.646 27.8926 266.432 27.6779C266.226 27.4632 266.124 27.1692 266.124 26.7959V22.1199H264.066V21.1539H266.124V18.7179H267.23V21.1539H269.47V22.1199H267.23V26.6279C267.23 26.9079 267.365 27.0479 267.636 27.0479H269.162V27.9999H267.342ZM273.32 28.1959C272.844 28.1959 272.41 28.1119 272.018 27.9439C271.626 27.7759 271.318 27.5332 271.094 27.2159C270.87 26.8986 270.758 26.5112 270.758 26.0539C270.758 25.5872 270.87 25.2046 271.094 24.9059C271.318 24.5979 271.626 24.3692 272.018 24.2199C272.41 24.0612 272.849 23.9819 273.334 23.9819H275.644V23.4779C275.644 22.9926 275.499 22.6099 275.21 22.3299C274.93 22.0499 274.51 21.9099 273.95 21.9099C273.399 21.9099 272.97 22.0452 272.662 22.3159C272.354 22.5772 272.144 22.9319 272.032 23.3799L270.996 23.0439C271.108 22.6612 271.285 22.3159 271.528 22.0079C271.771 21.6906 272.093 21.4386 272.494 21.2519C272.905 21.0559 273.395 20.9579 273.964 20.9579C274.841 20.9579 275.523 21.1866 276.008 21.6439C276.493 22.0919 276.736 22.7266 276.736 23.5479V26.6419C276.736 26.9219 276.867 27.0619 277.128 27.0619H277.758V27.9999H276.792C276.484 27.9999 276.237 27.9159 276.05 27.7479C275.863 27.5706 275.77 27.3372 275.77 27.0479V26.9779H275.602C275.499 27.1552 275.359 27.3419 275.182 27.5379C275.014 27.7246 274.781 27.8786 274.482 27.9999C274.183 28.1306 273.796 28.1959 273.32 28.1959ZM273.446 27.2439C274.099 27.2439 274.627 27.0526 275.028 26.6699C275.439 26.2779 275.644 25.7319 275.644 25.0319V24.8779H273.376C272.937 24.8779 272.573 24.9759 272.284 25.1719C272.004 25.3586 271.864 25.6432 271.864 26.0259C271.864 26.4086 272.009 26.7072 272.298 26.9219C272.597 27.1366 272.979 27.2439 273.446 27.2439ZM279.273 27.9999V21.1539H280.351V21.9939H280.547C280.668 21.6952 280.855 21.4759 281.107 21.3359C281.359 21.1959 281.69 21.1259 282.101 21.1259H282.913V22.1339H282.031C281.536 22.1339 281.135 22.2739 280.827 22.5539C280.528 22.8246 280.379 23.2492 280.379 23.8279V27.9999H279.273Z" fill="#C9C9C9" fill-opacity="0.6"/>
<path d="M217.855 46V36.2H220.697L222.839 44.992H223.063L225.205 36.2H228.047V46H226.577V37.264H226.353L224.225 46H221.677L219.549 37.264H219.325V46H217.855ZM232.276 46.1959C231.781 46.1959 231.338 46.112 230.946 45.944C230.563 45.776 230.255 45.5287 230.022 45.202C229.798 44.8753 229.686 44.4787 229.686 44.012C229.686 43.536 229.798 43.1438 230.022 42.8358C230.255 42.5185 230.568 42.2807 230.96 42.122C231.361 41.9633 231.814 41.8839 232.318 41.8839H234.418V41.436C234.418 41.0347 234.296 40.7127 234.054 40.47C233.811 40.2273 233.438 40.1059 232.934 40.1059C232.439 40.1059 232.061 40.2227 231.8 40.456C231.538 40.6893 231.366 40.9927 231.282 41.366L229.938 40.9319C230.05 40.5586 230.227 40.2227 230.47 39.924C230.722 39.616 231.053 39.3686 231.464 39.1819C231.874 38.9952 232.369 38.902 232.948 38.902C233.844 38.902 234.548 39.1307 235.062 39.588C235.575 40.0453 235.832 40.694 235.832 41.534V44.3759C235.832 44.6559 235.962 44.796 236.224 44.796H236.812V46H235.734C235.407 46 235.141 45.916 234.936 45.748C234.73 45.58 234.628 45.3513 234.628 45.062V45.02H234.418C234.343 45.16 234.231 45.3231 234.082 45.5098C233.932 45.6965 233.713 45.86 233.424 46C233.134 46.1307 232.752 46.1959 232.276 46.1959ZM232.486 45.006C233.064 45.006 233.531 44.8426 233.886 44.5159C234.24 44.1799 234.418 43.7227 234.418 43.144V43.004H232.402C232.019 43.004 231.711 43.088 231.478 43.256C231.244 43.4147 231.128 43.6527 231.128 43.97C231.128 44.2873 231.249 44.5393 231.492 44.726C231.734 44.9127 232.066 45.006 232.486 45.006ZM238.214 46V39.0979H239.656V46H238.214ZM238.942 38.16C238.662 38.16 238.424 38.0713 238.228 37.894C238.041 37.7073 237.948 37.4693 237.948 37.18C237.948 36.8907 238.041 36.6572 238.228 36.4799C238.424 36.2932 238.662 36.2 238.942 36.2C239.231 36.2 239.469 36.2932 239.656 36.4799C239.843 36.6572 239.936 36.8907 239.936 37.18C239.936 37.4693 239.843 37.7073 239.656 37.894C239.469 38.0713 239.231 38.16 238.942 38.16ZM241.796 46V39.0979H243.21V40.1339H243.434C243.565 39.8539 243.798 39.5925 244.134 39.3498C244.47 39.1071 244.969 38.986 245.632 38.986C246.155 38.986 246.617 39.1025 247.018 39.3358C247.429 39.5691 247.751 39.9007 247.984 40.33C248.217 40.75 248.334 41.2586 248.334 41.8559V46H246.892V41.9678C246.892 41.3705 246.743 40.932 246.444 40.652C246.145 40.3627 245.735 40.2178 245.212 40.2178C244.615 40.2178 244.134 40.414 243.77 40.806C243.415 41.198 243.238 41.7673 243.238 42.514V46H241.796ZM253.237 46.1959C252.36 46.1959 251.632 46 251.053 45.608C250.475 45.216 250.12 44.6233 249.989 43.83L251.333 43.5079C251.408 43.8906 251.534 44.1939 251.711 44.4179C251.889 44.6419 252.108 44.8007 252.369 44.894C252.64 44.9873 252.929 45.034 253.237 45.034C253.695 45.034 254.045 44.9453 254.287 44.768C254.539 44.5907 254.665 44.362 254.665 44.082C254.665 43.802 254.549 43.5967 254.315 43.466C254.082 43.3353 253.737 43.228 253.279 43.144L252.803 43.06C252.337 42.976 251.912 42.8546 251.529 42.6959C251.147 42.5372 250.843 42.3178 250.619 42.0378C250.395 41.7578 250.283 41.3986 250.283 40.9599C250.283 40.3066 250.526 39.8027 251.011 39.448C251.497 39.084 252.141 38.902 252.943 38.902C253.718 38.902 254.353 39.0791 254.847 39.4338C255.351 39.7791 255.678 40.2506 255.827 40.8479L254.483 41.226C254.399 40.806 254.222 40.512 253.951 40.344C253.681 40.1667 253.345 40.0779 252.943 40.0779C252.551 40.0779 252.243 40.1525 252.019 40.3018C251.795 40.4418 251.683 40.6426 251.683 40.9039C251.683 41.1839 251.791 41.3893 252.005 41.52C252.229 41.6507 252.528 41.7486 252.901 41.8139L253.391 41.8979C253.886 41.9819 254.339 42.0987 254.749 42.248C255.16 42.3973 255.482 42.6118 255.715 42.8918C255.958 43.1718 256.079 43.5453 256.079 44.012C256.079 44.7027 255.823 45.2393 255.309 45.622C254.796 46.0047 254.105 46.1959 253.237 46.1959ZM260.204 46C259.784 46 259.448 45.874 259.196 45.622C258.954 45.37 258.832 45.0338 258.832 44.6138V40.316H256.928V39.0979H258.832V36.816H260.274V39.0979H262.332V40.316H260.274V44.3619C260.274 44.6419 260.405 44.782 260.666 44.782H262.108V46H260.204ZM264.026 46V39.0979H265.44V39.91H265.664C265.776 39.6207 265.954 39.4106 266.196 39.2799C266.448 39.1399 266.756 39.07 267.12 39.07H267.946V40.372H267.064C266.598 40.372 266.215 40.5027 265.916 40.764C265.618 41.016 265.468 41.4078 265.468 41.9398V46H264.026ZM272.358 46.1959C271.658 46.1959 271.047 46.0513 270.524 45.762C270.002 45.4633 269.591 45.0479 269.292 44.5159C269.003 43.9746 268.858 43.3492 268.858 42.6399V42.472C268.858 41.7533 269.003 41.128 269.292 40.596C269.582 40.0547 269.983 39.6391 270.496 39.3498C271.019 39.0511 271.621 38.902 272.302 38.902C272.965 38.902 273.544 39.0511 274.038 39.3498C274.542 39.6391 274.934 40.0453 275.214 40.568C275.494 41.0907 275.634 41.702 275.634 42.402V42.948H270.328C270.347 43.5547 270.548 44.0399 270.93 44.4039C271.322 44.7586 271.808 44.936 272.386 44.936C272.928 44.936 273.334 44.8145 273.604 44.5718C273.884 44.3291 274.099 44.0491 274.248 43.7318L275.438 44.3479C275.308 44.6092 275.116 44.8847 274.864 45.174C274.622 45.4633 274.3 45.706 273.898 45.902C273.497 46.098 272.984 46.1959 272.358 46.1959ZM270.342 41.8419H274.164C274.127 41.3192 273.94 40.9133 273.604 40.624C273.268 40.3253 272.83 40.1758 272.288 40.1758C271.747 40.1758 271.304 40.3253 270.958 40.624C270.622 40.9133 270.417 41.3192 270.342 41.8419ZM279.512 46.1959C279.017 46.1959 278.574 46.112 278.182 45.944C277.799 45.776 277.491 45.5287 277.258 45.202C277.034 44.8753 276.922 44.4787 276.922 44.012C276.922 43.536 277.034 43.1438 277.258 42.8358C277.491 42.5185 277.804 42.2807 278.196 42.122C278.597 41.9633 279.05 41.8839 279.554 41.8839H281.654V41.436C281.654 41.0347 281.533 40.7127 281.29 40.47C281.047 40.2273 280.674 40.1059 280.17 40.1059C279.675 40.1059 279.297 40.2227 279.036 40.456C278.775 40.6893 278.602 40.9927 278.518 41.366L277.174 40.9319C277.286 40.5586 277.463 40.2227 277.706 39.924C277.958 39.616 278.289 39.3686 278.7 39.1819C279.111 38.9952 279.605 38.902 280.184 38.902C281.08 38.902 281.785 39.1307 282.298 39.588C282.811 40.0453 283.068 40.694 283.068 41.534V44.3759C283.068 44.6559 283.199 44.796 283.46 44.796H284.048V46H282.97C282.643 46 282.377 45.916 282.172 45.748C281.967 45.58 281.864 45.3513 281.864 45.062V45.02H281.654C281.579 45.16 281.467 45.3231 281.318 45.5098C281.169 45.6965 280.949 45.86 280.66 46C280.371 46.1307 279.988 46.1959 279.512 46.1959ZM279.722 45.006C280.301 45.006 280.767 44.8426 281.122 44.5159C281.477 44.1799 281.654 43.7227 281.654 43.144V43.004H279.638C279.255 43.004 278.947 43.088 278.714 43.256C278.481 43.4147 278.364 43.6527 278.364 43.97C278.364 44.2873 278.485 44.5393 278.728 44.726C278.971 44.9127 279.302 45.006 279.722 45.006ZM285.45 46V39.0979H286.864V39.91H287.088C287.219 39.6673 287.429 39.4526 287.718 39.2659C288.008 39.0792 288.4 38.986 288.894 38.986C289.408 38.986 289.818 39.0931 290.126 39.3078C290.444 39.5131 290.682 39.7792 290.84 40.1059H291.064C291.223 39.7886 291.452 39.5225 291.75 39.3078C292.058 39.0931 292.492 38.986 293.052 38.986C293.5 38.986 293.897 39.0792 294.242 39.2659C294.588 39.4432 294.863 39.7139 295.068 40.0779C295.274 40.4326 295.376 40.876 295.376 41.408V46H293.934V41.52C293.934 41.1 293.818 40.778 293.584 40.554C293.36 40.3207 293.038 40.2038 292.618 40.2038C292.17 40.2038 291.811 40.3487 291.54 40.638C291.27 40.9273 291.134 41.3426 291.134 41.8839V46H289.692V41.52C289.692 41.1 289.576 40.778 289.342 40.554C289.118 40.3207 288.796 40.2038 288.376 40.2038C287.928 40.2038 287.569 40.3487 287.298 40.638C287.028 40.9273 286.892 41.3426 286.892 41.8839V46H285.45Z" fill="#C9C9C9" fill-opacity="0.6"/>
<path d="M217.953 64V54.2H220.193L222.797 63.2579H222.979L225.583 54.2H227.823V64H226.689V54.97H226.493L223.903 64H221.873L219.283 54.97H219.087V64H217.953ZM230.109 64V57.1539H231.215V64H230.109ZM230.669 56.09C230.426 56.09 230.221 56.0107 230.053 55.852C229.894 55.6933 229.815 55.4927 229.815 55.25C229.815 54.998 229.894 54.7926 230.053 54.6339C230.221 54.4752 230.426 54.396 230.669 54.396C230.911 54.396 231.112 54.4752 231.271 54.6339C231.429 54.7926 231.509 54.998 231.509 55.25C231.509 55.4927 231.429 55.6933 231.271 55.852C231.112 56.0107 230.911 56.09 230.669 56.09ZM236.438 64.1959C235.85 64.1959 235.309 64.056 234.814 63.776C234.32 63.496 233.928 63.0898 233.638 62.5578C233.349 62.0258 233.204 61.3959 233.204 60.6679V60.486C233.204 59.758 233.349 59.1327 233.638 58.61C233.928 58.078 234.315 57.6718 234.8 57.3918C235.295 57.1025 235.841 56.958 236.438 56.958C236.914 56.958 237.316 57.0232 237.642 57.1539C237.978 57.2752 238.249 57.434 238.454 57.63C238.66 57.8167 238.818 58.0171 238.93 58.2318H239.126V54.2H240.232V64H239.154V62.866H238.958C238.772 63.2113 238.482 63.5193 238.09 63.79C237.698 64.0607 237.148 64.1959 236.438 64.1959ZM236.732 63.216C237.442 63.216 238.016 62.9918 238.454 62.5438C238.902 62.0865 239.126 61.4519 239.126 60.6399V60.514C239.126 59.702 238.902 59.072 238.454 58.624C238.016 58.1667 237.442 57.938 236.732 57.938C236.032 57.938 235.454 58.1667 234.996 58.624C234.548 59.072 234.324 59.702 234.324 60.514V60.6399C234.324 61.4519 234.548 62.0865 234.996 62.5438C235.454 62.9918 236.032 63.216 236.732 63.216ZM242.494 60.9058V59.8839H246.638V60.9058H242.494ZM248.921 64V54.2H250.027V64H248.921ZM255.489 64.1959C254.798 64.1959 254.192 64.0513 253.669 63.762C253.146 63.4633 252.74 63.0479 252.451 62.5159C252.162 61.9839 252.017 61.3679 252.017 60.6679V60.5C252.017 59.7907 252.162 59.17 252.451 58.638C252.74 58.106 253.142 57.6951 253.655 57.4058C254.168 57.1071 254.756 56.958 255.419 56.958C256.063 56.958 256.632 57.0978 257.127 57.3778C257.622 57.6485 258.009 58.0407 258.289 58.554C258.569 59.0673 258.709 59.6693 258.709 60.36V60.8638H253.123C253.151 61.6011 253.389 62.1798 253.837 62.5998C254.285 63.0105 254.845 63.216 255.517 63.216C256.105 63.216 256.558 63.0807 256.875 62.81C257.192 62.5393 257.435 62.2173 257.603 61.844L258.555 62.306C258.415 62.5953 258.219 62.8847 257.967 63.174C257.724 63.4633 257.402 63.706 257.001 63.902C256.609 64.098 256.105 64.1959 255.489 64.1959ZM253.137 59.9538H257.589C257.552 59.3191 257.332 58.8247 256.931 58.47C256.539 58.1153 256.035 57.938 255.419 57.938C254.794 57.938 254.28 58.1153 253.879 58.47C253.478 58.8247 253.23 59.3191 253.137 59.9538ZM262.087 64L259.637 57.1539H260.813L262.871 63.174H263.067L265.125 57.1539H266.301L263.851 64H262.087ZM270.747 64.1959C270.056 64.1959 269.449 64.0513 268.927 63.762C268.404 63.4633 267.998 63.0479 267.709 62.5159C267.419 61.9839 267.275 61.3679 267.275 60.6679V60.5C267.275 59.7907 267.419 59.17 267.709 58.638C267.998 58.106 268.399 57.6951 268.913 57.4058C269.426 57.1071 270.014 56.958 270.677 56.958C271.321 56.958 271.89 57.0978 272.385 57.3778C272.879 57.6485 273.267 58.0407 273.547 58.554C273.827 59.0673 273.967 59.6693 273.967 60.36V60.8638H268.381C268.409 61.6011 268.647 62.1798 269.095 62.5998C269.543 63.0105 270.103 63.216 270.775 63.216C271.363 63.216 271.815 63.0807 272.133 62.81C272.45 62.5393 272.693 62.2173 272.861 61.844L273.813 62.306C273.673 62.5953 273.477 62.8847 273.225 63.174C272.982 63.4633 272.66 63.706 272.259 63.902C271.867 64.098 271.363 64.1959 270.747 64.1959ZM268.395 59.9538H272.847C272.809 59.3191 272.59 58.8247 272.189 58.47C271.797 58.1153 271.293 57.938 270.677 57.938C270.051 57.938 269.538 58.1153 269.137 58.47C268.735 58.8247 268.488 59.3191 268.395 59.9538ZM275.896 64V54.2H277.002V64H275.896Z" fill="#C9C9C9" fill-opacity="0.6"/>
<path d="M217.491 82V80.95H218.863V73.25H217.491V72.2H221.313C222.601 72.2 223.595 72.5267 224.295 73.18C225.005 73.8333 225.359 74.8367 225.359 76.19V78.01C225.359 79.3727 225.005 80.3807 224.295 81.034C223.595 81.678 222.601 82 221.313 82H217.491ZM220.039 80.936H221.313C222.265 80.936 222.984 80.7027 223.469 80.236C223.955 79.7693 224.197 79.046 224.197 78.066V76.148C224.197 75.1493 223.955 74.4213 223.469 73.964C222.984 73.5067 222.265 73.278 221.313 73.278H220.039V80.936ZM230.415 82.196C229.724 82.196 229.117 82.0513 228.595 81.762C228.072 81.4633 227.666 81.048 227.377 80.516C227.087 79.984 226.943 79.368 226.943 78.668V78.5C226.943 77.7907 227.087 77.17 227.377 76.638C227.666 76.106 228.067 75.6953 228.581 75.406C229.094 75.1073 229.682 74.958 230.345 74.958C230.989 74.958 231.558 75.098 232.053 75.378C232.547 75.6487 232.935 76.0407 233.215 76.554C233.495 77.0673 233.635 77.6693 233.635 78.36V78.864H228.049C228.077 79.6013 228.315 80.18 228.763 80.6C229.211 81.0107 229.771 81.216 230.443 81.216C231.031 81.216 231.483 81.0807 231.801 80.81C232.118 80.5393 232.361 80.2173 232.529 79.844L233.481 80.306C233.341 80.5953 233.145 80.8847 232.893 81.174C232.65 81.4633 232.328 81.706 231.927 81.902C231.535 82.098 231.031 82.196 230.415 82.196ZM228.063 77.954H232.515C232.477 77.3193 232.258 76.8247 231.857 76.47C231.465 76.1153 230.961 75.938 230.345 75.938C229.719 75.938 229.206 76.1153 228.805 76.47C228.403 76.8247 228.156 77.3193 228.063 77.954ZM237.013 82L234.563 75.154H235.739L237.797 81.174H237.993L240.051 75.154H241.227L238.777 82H237.013ZM245.673 82.196C244.982 82.196 244.375 82.0513 243.853 81.762C243.33 81.4633 242.924 81.048 242.635 80.516C242.345 79.984 242.201 79.368 242.201 78.668V78.5C242.201 77.7907 242.345 77.17 242.635 76.638C242.924 76.106 243.325 75.6953 243.839 75.406C244.352 75.1073 244.94 74.958 245.603 74.958C246.247 74.958 246.816 75.098 247.311 75.378C247.805 75.6487 248.193 76.0407 248.473 76.554C248.753 77.0673 248.893 77.6693 248.893 78.36V78.864H243.307C243.335 79.6013 243.573 80.18 244.021 80.6C244.469 81.0107 245.029 81.216 245.701 81.216C246.289 81.216 246.741 81.0807 247.059 80.81C247.376 80.5393 247.619 80.2173 247.787 79.844L248.739 80.306C248.599 80.5953 248.403 80.8847 248.151 81.174C247.908 81.4633 247.586 81.706 247.185 81.902C246.793 82.098 246.289 82.196 245.673 82.196ZM243.321 77.954H247.773C247.735 77.3193 247.516 76.8247 247.115 76.47C246.723 76.1153 246.219 75.938 245.603 75.938C244.977 75.938 244.464 76.1153 244.063 76.47C243.661 76.8247 243.414 77.3193 243.321 77.954ZM250.822 82V72.2H251.928V82H250.822ZM257.417 82.196C256.727 82.196 256.115 82.0513 255.583 81.762C255.061 81.4727 254.65 81.0667 254.351 80.544C254.062 80.012 253.917 79.3867 253.917 78.668V78.486C253.917 77.7767 254.062 77.156 254.351 76.624C254.65 76.092 255.061 75.6813 255.583 75.392C256.115 75.1027 256.727 74.958 257.417 74.958C258.108 74.958 258.715 75.1027 259.237 75.392C259.769 75.6813 260.18 76.092 260.469 76.624C260.768 77.156 260.917 77.7767 260.917 78.486V78.668C260.917 79.3867 260.768 80.012 260.469 80.544C260.18 81.0667 259.769 81.4727 259.237 81.762C258.715 82.0513 258.108 82.196 257.417 82.196ZM257.417 81.202C258.145 81.202 258.724 80.9733 259.153 80.516C259.592 80.0493 259.811 79.424 259.811 78.64V78.514C259.811 77.73 259.592 77.1093 259.153 76.652C258.724 76.1853 258.145 75.952 257.417 75.952C256.699 75.952 256.12 76.1853 255.681 76.652C255.243 77.1093 255.023 77.73 255.023 78.514V78.64C255.023 79.424 255.243 80.0493 255.681 80.516C256.12 80.9733 256.699 81.202 257.417 81.202ZM262.908 84.8V75.154H263.986V76.288H264.182C264.359 75.9427 264.644 75.6347 265.036 75.364C265.437 75.0933 265.992 74.958 266.702 74.958C267.29 74.958 267.826 75.1027 268.312 75.392C268.806 75.672 269.198 76.0733 269.488 76.596C269.786 77.1187 269.936 77.7487 269.936 78.486V78.668C269.936 79.396 269.791 80.026 269.502 80.558C269.212 81.09 268.82 81.496 268.326 81.776C267.84 82.056 267.299 82.196 266.702 82.196C266.226 82.196 265.82 82.1307 265.484 82C265.157 81.8787 264.891 81.72 264.686 81.524C264.48 81.328 264.322 81.1273 264.21 80.922H264.014V84.8H262.908ZM266.408 81.216C267.117 81.216 267.691 80.992 268.13 80.544C268.578 80.0867 268.802 79.452 268.802 78.64V78.514C268.802 77.702 268.578 77.072 268.13 76.624C267.691 76.1667 267.117 75.938 266.408 75.938C265.708 75.938 265.129 76.1667 264.672 76.624C264.224 77.072 264 77.702 264 78.514V78.64C264 79.452 264.224 80.0867 264.672 80.544C265.129 80.992 265.708 81.216 266.408 81.216ZM271.917 82V75.154H273.023V82H271.917ZM272.477 74.09C272.235 74.09 272.029 74.0107 271.861 73.852C271.703 73.6933 271.623 73.4927 271.623 73.25C271.623 72.998 271.703 72.7927 271.861 72.634C272.029 72.4753 272.235 72.396 272.477 72.396C272.72 72.396 272.921 72.4753 273.079 72.634C273.238 72.7927 273.317 72.998 273.317 73.25C273.317 73.4927 273.238 73.6933 273.079 73.852C272.921 74.0107 272.72 74.09 272.477 74.09ZM275.349 82V75.154H276.427V76.316H276.623C276.772 75.9893 277.024 75.6953 277.379 75.434C277.743 75.1633 278.275 75.028 278.975 75.028C279.488 75.028 279.946 75.1353 280.347 75.35C280.758 75.5647 281.084 75.882 281.327 76.302C281.57 76.722 281.691 77.24 281.691 77.856V82H280.585V77.94C280.585 77.2587 280.412 76.764 280.067 76.456C279.731 76.148 279.274 75.994 278.695 75.994C278.032 75.994 277.491 76.2087 277.071 76.638C276.66 77.0673 276.455 77.7067 276.455 78.556V82H275.349ZM283.599 78.612V78.416C283.599 77.6973 283.744 77.0813 284.033 76.568C284.322 76.0547 284.714 75.658 285.209 75.378C285.704 75.098 286.245 74.958 286.833 74.958C287.552 74.958 288.102 75.098 288.485 75.378C288.877 75.6487 289.166 75.952 289.353 76.288H289.549V75.154H290.599V83.596C290.599 83.9693 290.496 84.2633 290.291 84.478C290.086 84.6927 289.787 84.8 289.395 84.8H284.747V83.82H289.101C289.381 83.82 289.521 83.68 289.521 83.4V80.796H289.325C289.213 81.0013 289.054 81.202 288.849 81.398C288.644 81.594 288.378 81.7573 288.051 81.888C287.724 82.0093 287.318 82.07 286.833 82.07C286.245 82.07 285.704 81.93 285.209 81.65C284.714 81.37 284.322 80.9733 284.033 80.46C283.744 79.9373 283.599 79.3213 283.599 78.612ZM287.127 81.09C287.836 81.09 288.41 80.866 288.849 80.418C289.297 79.97 289.521 79.354 289.521 78.57V78.458C289.521 77.6647 289.297 77.0487 288.849 76.61C288.41 76.162 287.836 75.938 287.127 75.938C286.427 75.938 285.848 76.162 285.391 76.61C284.943 77.0487 284.719 77.6647 284.719 78.458V78.57C284.719 79.354 284.943 79.97 285.391 80.418C285.848 80.866 286.427 81.09 287.127 81.09Z" fill="#C9C9C9" fill-opacity="0.6"/>
</svg>
