<svg width="314" height="85" viewBox="0 0 314 85" fill="none" xmlns="http://www.w3.org/2000/svg">
<path d="M9.84277 79.9435C10.0303 68.0223 16.7067 39.9533 41.912 23.0469" stroke="#315599" stroke-width="4" stroke-linecap="round"/>
<path d="M48.8789 17.5635C59.5053 11.9364 87.4406 3.99584 114.17 17.2498" stroke="#4D9A71" stroke-width="4" stroke-linecap="round"/>
<path d="M123.643 22.2192C133.614 28.9405 153.781 49.8386 154.685 79.6601" stroke="#6CE54A" stroke-width="4" stroke-linecap="round"/>
<path d="M34.545 36.2294C34.545 39.6955 31.7352 42.5053 28.2691 42.5053C24.803 42.5053 21.9932 39.6955 21.9932 36.2294C21.9932 32.7634 24.803 29.9536 28.2691 29.9536C31.7352 29.9536 34.545 32.7634 34.545 36.2294Z" fill="black" stroke="#315599" stroke-width="4"/>
<path d="M52.1064 68.6877V58.8877H54.3464L56.9504 67.9457H57.1324L59.7364 58.8877H61.9764V68.6877H60.8424V59.6577H60.6464L58.0564 68.6877H56.0264L53.4364 59.6577H53.2404V68.6877H52.1064ZM64.2616 68.6877V61.8417H65.3676V68.6877H64.2616ZM64.8216 60.7777C64.579 60.7777 64.3736 60.6984 64.2056 60.5397C64.047 60.381 63.9676 60.1804 63.9676 59.9377C63.9676 59.6857 64.047 59.4804 64.2056 59.3217C64.3736 59.163 64.579 59.0837 64.8216 59.0837C65.0643 59.0837 65.265 59.163 65.4236 59.3217C65.5823 59.4804 65.6616 59.6857 65.6616 59.9377C65.6616 60.1804 65.5823 60.381 65.4236 60.5397C65.265 60.6984 65.0643 60.7777 64.8216 60.7777ZM70.5913 68.8837C70.0033 68.8837 69.4619 68.7437 68.9673 68.4637C68.4726 68.1837 68.0806 67.7777 67.7913 67.2457C67.5019 66.7137 67.3573 66.0837 67.3573 65.3557V65.1737C67.3573 64.4457 67.5019 63.8204 67.7913 63.2977C68.0806 62.7657 68.4679 62.3597 68.9533 62.0797C69.4479 61.7904 69.9939 61.6457 70.5913 61.6457C71.0673 61.6457 71.4686 61.711 71.7953 61.8417C72.1313 61.963 72.4019 62.1217 72.6073 62.3177C72.8126 62.5044 72.9713 62.705 73.0833 62.9197H73.2794V58.8877H74.3853V68.6877H73.3074V67.5537H73.1113C72.9246 67.899 72.6353 68.207 72.2433 68.4777C71.8513 68.7484 71.3006 68.8837 70.5913 68.8837ZM70.8853 67.9037C71.5946 67.9037 72.1686 67.6797 72.6073 67.2317C73.0553 66.7744 73.2794 66.1397 73.2794 65.3277V65.2017C73.2794 64.3897 73.0553 63.7597 72.6073 63.3117C72.1686 62.8544 71.5946 62.6257 70.8853 62.6257C70.1853 62.6257 69.6066 62.8544 69.1493 63.3117C68.7013 63.7597 68.4773 64.3897 68.4773 65.2017V65.3277C68.4773 66.1397 68.7013 66.7744 69.1493 67.2317C69.6066 67.6797 70.1853 67.9037 70.8853 67.9037ZM76.647 65.5937V64.5717H80.791V65.5937H76.647ZM83.0742 68.6877V58.8877H84.1801V68.6877H83.0742ZM89.6418 68.8837C88.9511 68.8837 88.3444 68.739 87.8218 68.4497C87.2991 68.151 86.8931 67.7357 86.6038 67.2037C86.3144 66.6717 86.1698 66.0557 86.1698 65.3557V65.1877C86.1698 64.4784 86.3144 63.8577 86.6038 63.3257C86.8931 62.7937 87.2944 62.383 87.8078 62.0937C88.3211 61.795 88.9091 61.6457 89.5718 61.6457C90.2158 61.6457 90.7851 61.7857 91.2798 62.0657C91.7744 62.3364 92.1618 62.7284 92.4418 63.2417C92.7218 63.755 92.8618 64.357 92.8618 65.0477V65.5517H87.2758C87.3038 66.289 87.5418 66.8677 87.9898 67.2877C88.4378 67.6984 88.9978 67.9037 89.6698 67.9037C90.2578 67.9037 90.7104 67.7684 91.0278 67.4977C91.3451 67.227 91.5878 66.905 91.7558 66.5317L92.7078 66.9937C92.5678 67.283 92.3719 67.5724 92.1199 67.8617C91.8772 68.151 91.5551 68.3937 91.1538 68.5897C90.7618 68.7857 90.2578 68.8837 89.6418 68.8837ZM87.2898 64.6417H91.7418C91.7044 64.007 91.4851 63.5124 91.0838 63.1577C90.6918 62.803 90.1878 62.6257 89.5718 62.6257C88.9464 62.6257 88.4331 62.803 88.0318 63.1577C87.6304 63.5124 87.3831 64.007 87.2898 64.6417ZM96.2398 68.6877L93.7898 61.8417H94.9658L97.0238 67.8617H97.2198L99.2778 61.8417H100.454L98.0038 68.6877H96.2398ZM104.9 68.8837C104.209 68.8837 103.602 68.739 103.08 68.4497C102.557 68.151 102.151 67.7357 101.862 67.2037C101.572 66.6717 101.428 66.0557 101.428 65.3557V65.1877C101.428 64.4784 101.572 63.8577 101.862 63.3257C102.151 62.7937 102.552 62.383 103.066 62.0937C103.579 61.795 104.167 61.6457 104.83 61.6457C105.474 61.6457 106.043 61.7857 106.538 62.0657C107.032 62.3364 107.42 62.7284 107.7 63.2417C107.98 63.755 108.12 64.357 108.12 65.0477V65.5517H102.534C102.562 66.289 102.8 66.8677 103.248 67.2877C103.696 67.6984 104.256 67.9037 104.928 67.9037C105.516 67.9037 105.968 67.7684 106.286 67.4977C106.603 67.227 106.846 66.905 107.014 66.5317L107.966 66.9937C107.826 67.283 107.63 67.5724 107.378 67.8617C107.135 68.151 106.813 68.3937 106.412 68.5897C106.02 68.7857 105.516 68.8837 104.9 68.8837ZM102.548 64.6417H107C106.962 64.007 106.743 63.5124 106.342 63.1577C105.95 62.803 105.446 62.6257 104.83 62.6257C104.204 62.6257 103.691 62.803 103.29 63.1577C102.888 63.5124 102.641 64.007 102.548 64.6417ZM110.049 68.6877V58.8877H111.155V68.6877H110.049Z" fill="white"/>
<path d="M202.75 55.4165L206.833 59.4999M206.833 59.4999L202.75 63.5832M206.833 59.4999H197.5" stroke="white" stroke-width="1.5" stroke-linecap="round" stroke-linejoin="round"/>
<path d="M217.953 10.0002V0.200195H219.129V8.9362H224.085V10.0002H217.953ZM228.719 10.1962C228.029 10.1962 227.422 10.0515 226.899 9.7622C226.377 9.46353 225.971 9.0482 225.681 8.5162C225.392 7.9842 225.247 7.3682 225.247 6.6682V6.5002C225.247 5.79087 225.392 5.1702 225.681 4.6382C225.971 4.1062 226.372 3.69553 226.885 3.4062C227.399 3.10753 227.987 2.9582 228.649 2.9582C229.293 2.9582 229.863 3.0982 230.357 3.3782C230.852 3.64887 231.239 4.04087 231.519 4.5542C231.799 5.06753 231.939 5.66953 231.939 6.3602V6.8642H226.353C226.381 7.60153 226.619 8.1802 227.067 8.6002C227.515 9.01087 228.075 9.2162 228.747 9.2162C229.335 9.2162 229.788 9.08087 230.105 8.8102C230.423 8.53953 230.665 8.21753 230.833 7.8442L231.785 8.3062C231.645 8.59553 231.449 8.88487 231.197 9.1742C230.955 9.46353 230.633 9.7062 230.231 9.9022C229.839 10.0982 229.335 10.1962 228.719 10.1962ZM226.367 5.9542H230.819C230.782 5.31953 230.563 4.82487 230.161 4.4702C229.769 4.11553 229.265 3.9382 228.649 3.9382C228.024 3.9382 227.511 4.11553 227.109 4.4702C226.708 4.82487 226.461 5.31953 226.367 5.9542ZM233.533 6.6122V6.4162C233.533 5.69753 233.677 5.08153 233.967 4.5682C234.256 4.05487 234.648 3.6582 235.143 3.3782C235.637 3.0982 236.179 2.9582 236.767 2.9582C237.485 2.9582 238.036 3.0982 238.419 3.3782C238.811 3.64887 239.1 3.9522 239.287 4.2882H239.483V3.1542H240.533V11.5962C240.533 11.9695 240.43 12.2635 240.225 12.4782C240.019 12.6929 239.721 12.8002 239.329 12.8002H234.681V11.8202H239.035C239.315 11.8202 239.455 11.6802 239.455 11.4002V8.7962H239.259C239.147 9.00153 238.988 9.2022 238.783 9.3982C238.577 9.5942 238.311 9.75753 237.985 9.8882C237.658 10.0095 237.252 10.0702 236.767 10.0702C236.179 10.0702 235.637 9.9302 235.143 9.6502C234.648 9.3702 234.256 8.97353 233.967 8.4602C233.677 7.93753 233.533 7.32153 233.533 6.6122ZM237.061 9.0902C237.77 9.0902 238.344 8.8662 238.783 8.4182C239.231 7.9702 239.455 7.3542 239.455 6.5702V6.4582C239.455 5.66487 239.231 5.04887 238.783 4.6102C238.344 4.1622 237.77 3.9382 237.061 3.9382C236.361 3.9382 235.782 4.1622 235.325 4.6102C234.877 5.04887 234.653 5.66487 234.653 6.4582V6.5702C234.653 7.3542 234.877 7.9702 235.325 8.4182C235.782 8.8662 236.361 9.0902 237.061 9.0902ZM245.987 10.1962C245.296 10.1962 244.69 10.0515 244.167 9.7622C243.644 9.46353 243.238 9.0482 242.949 8.5162C242.66 7.9842 242.515 7.3682 242.515 6.6682V6.5002C242.515 5.79087 242.66 5.1702 242.949 4.6382C243.238 4.1062 243.64 3.69553 244.153 3.4062C244.666 3.10753 245.254 2.9582 245.917 2.9582C246.561 2.9582 247.13 3.0982 247.625 3.3782C248.12 3.64887 248.507 4.04087 248.787 4.5542C249.067 5.06753 249.207 5.66953 249.207 6.3602V6.8642H243.621C243.649 7.60153 243.887 8.1802 244.335 8.6002C244.783 9.01087 245.343 9.2162 246.015 9.2162C246.603 9.2162 247.056 9.08087 247.373 8.8102C247.69 8.53953 247.933 8.21753 248.101 7.8442L249.053 8.3062C248.913 8.59553 248.717 8.88487 248.465 9.1742C248.222 9.46353 247.9 9.7062 247.499 9.9022C247.107 10.0982 246.603 10.1962 245.987 10.1962ZM243.635 5.9542H248.087C248.05 5.31953 247.83 4.82487 247.429 4.4702C247.037 4.11553 246.533 3.9382 245.917 3.9382C245.292 3.9382 244.778 4.11553 244.377 4.4702C243.976 4.82487 243.728 5.31953 243.635 5.9542ZM251.136 10.0002V3.1542H252.214V4.3162H252.41C252.559 3.98953 252.811 3.69553 253.166 3.4342C253.53 3.16353 254.062 3.0282 254.762 3.0282C255.275 3.0282 255.733 3.13553 256.134 3.3502C256.545 3.56487 256.871 3.8822 257.114 4.3022C257.357 4.7222 257.478 5.2402 257.478 5.8562V10.0002H256.372V5.9402C256.372 5.25887 256.199 4.7642 255.854 4.4562C255.518 4.1482 255.061 3.9942 254.482 3.9942C253.819 3.9942 253.278 4.20887 252.858 4.6382C252.447 5.06753 252.242 5.70687 252.242 6.5562V10.0002H251.136ZM262.62 10.1962C262.032 10.1962 261.491 10.0562 260.996 9.7762C260.501 9.4962 260.109 9.0902 259.82 8.5582C259.531 8.0262 259.386 7.3962 259.386 6.6682V6.4862C259.386 5.7582 259.531 5.13287 259.82 4.6102C260.109 4.0782 260.497 3.6722 260.982 3.3922C261.477 3.10287 262.023 2.9582 262.62 2.9582C263.096 2.9582 263.497 3.02353 263.824 3.1542C264.16 3.27553 264.431 3.4342 264.636 3.6302C264.841 3.81687 265 4.01753 265.112 4.2322H265.308V0.200195H266.414V10.0002H265.336V8.8662H265.14C264.953 9.21153 264.664 9.51953 264.272 9.7902C263.88 10.0609 263.329 10.1962 262.62 10.1962ZM262.914 9.2162C263.623 9.2162 264.197 8.9922 264.636 8.5442C265.084 8.08687 265.308 7.4522 265.308 6.6402V6.5142C265.308 5.7022 265.084 5.0722 264.636 4.6242C264.197 4.16687 263.623 3.9382 262.914 3.9382C262.214 3.9382 261.635 4.16687 261.178 4.6242C260.73 5.0722 260.506 5.7022 260.506 6.5142V6.6402C260.506 7.4522 260.73 8.08687 261.178 8.5442C261.635 8.9922 262.214 9.2162 262.914 9.2162ZM270.832 10.1962C270.356 10.1962 269.922 10.1122 269.53 9.9442C269.138 9.7762 268.83 9.53353 268.606 9.2162C268.382 8.89887 268.27 8.51153 268.27 8.0542C268.27 7.58753 268.382 7.20487 268.606 6.9062C268.83 6.5982 269.138 6.36953 269.53 6.2202C269.922 6.06153 270.36 5.9822 270.846 5.9822H273.156V5.4782C273.156 4.99287 273.011 4.6102 272.722 4.3302C272.442 4.0502 272.022 3.9102 271.462 3.9102C270.911 3.9102 270.482 4.04553 270.174 4.3162C269.866 4.57753 269.656 4.9322 269.544 5.3802L268.508 5.0442C268.62 4.66153 268.797 4.3162 269.04 4.0082C269.282 3.69087 269.604 3.43887 270.006 3.2522C270.416 3.0562 270.906 2.9582 271.476 2.9582C272.353 2.9582 273.034 3.18687 273.52 3.6442C274.005 4.0922 274.248 4.72687 274.248 5.5482V8.6422C274.248 8.9222 274.378 9.0622 274.64 9.0622H275.27V10.0002H274.304C273.996 10.0002 273.748 9.9162 273.562 9.7482C273.375 9.57087 273.282 9.33753 273.282 9.0482V8.9782H273.114C273.011 9.15553 272.871 9.3422 272.694 9.5382C272.526 9.72487 272.292 9.87887 271.994 10.0002C271.695 10.1309 271.308 10.1962 270.832 10.1962ZM270.958 9.2442C271.611 9.2442 272.138 9.05287 272.54 8.6702C272.95 8.2782 273.156 7.7322 273.156 7.0322V6.8782H270.888C270.449 6.8782 270.085 6.9762 269.796 7.1722C269.516 7.35887 269.376 7.64353 269.376 8.0262C269.376 8.40887 269.52 8.70753 269.81 8.9222C270.108 9.13687 270.491 9.2442 270.958 9.2442ZM276.785 10.0002V3.1542H277.863V3.9942H278.059C278.18 3.69553 278.367 3.4762 278.619 3.3362C278.871 3.1962 279.202 3.1262 279.613 3.1262H280.425V4.1342H279.543C279.048 4.1342 278.647 4.2742 278.339 4.5542C278.04 4.82487 277.891 5.24953 277.891 5.8282V10.0002H276.785ZM282.888 12.8002V11.8202H286.808C287.079 11.8202 287.214 11.6802 287.214 11.4002V8.9082H287.018C286.925 9.1042 286.78 9.3002 286.584 9.4962C286.397 9.68287 286.15 9.83687 285.842 9.9582C285.534 10.0702 285.147 10.1262 284.68 10.1262C284.185 10.1262 283.728 10.0189 283.308 9.8042C282.897 9.58953 282.571 9.2722 282.328 8.8522C282.095 8.4322 281.978 7.91887 281.978 7.3122V3.1542H283.084V7.2282C283.084 7.9002 283.252 8.3902 283.588 8.6982C283.933 9.0062 284.395 9.1602 284.974 9.1602C285.627 9.1602 286.164 8.94553 286.584 8.5162C287.004 8.08687 287.214 7.44753 287.214 6.5982V3.1542H288.32V11.5962C288.32 11.9695 288.213 12.2635 287.998 12.4782C287.793 12.6929 287.489 12.8002 287.088 12.8002H282.888Z" fill="#C9C9C9" fill-opacity="0.6"/>
<path d="M221.215 28.1959C220.506 28.1959 219.871 28.0699 219.311 27.8179C218.751 27.5659 218.308 27.1879 217.981 26.6839C217.664 26.1706 217.505 25.5312 217.505 24.7659V24.4719H218.667V24.7659C218.667 25.5779 218.905 26.1846 219.381 26.5859C219.857 26.9779 220.469 27.1739 221.215 27.1739C221.981 27.1739 222.564 27.0012 222.965 26.6559C223.367 26.3106 223.567 25.8766 223.567 25.3539C223.567 24.9899 223.474 24.7006 223.287 24.4859C223.11 24.2712 222.858 24.0986 222.531 23.9679C222.205 23.8279 221.822 23.7066 221.383 23.6039L220.655 23.4219C220.086 23.2726 219.582 23.0906 219.143 22.8759C218.705 22.6612 218.359 22.3812 218.107 22.0359C217.865 21.6812 217.743 21.2286 217.743 20.6779C217.743 20.1272 217.879 19.6512 218.149 19.2499C218.429 18.8486 218.817 18.5406 219.311 18.3259C219.815 18.1112 220.394 18.0039 221.047 18.0039C221.71 18.0039 222.303 18.1206 222.825 18.3539C223.357 18.5779 223.773 18.9139 224.071 19.3619C224.379 19.8006 224.533 20.3559 224.533 21.0279V21.6159H223.371V21.0279C223.371 20.5519 223.269 20.1692 223.063 19.8799C222.867 19.5906 222.592 19.3759 222.237 19.2359C221.892 19.0959 221.495 19.0259 221.047 19.0259C220.403 19.0259 219.885 19.1706 219.493 19.4599C219.101 19.7399 218.905 20.1412 218.905 20.6639C218.905 21.0092 218.989 21.2892 219.157 21.5039C219.325 21.7186 219.563 21.8959 219.871 22.0359C220.179 22.1666 220.548 22.2832 220.977 22.3859L221.705 22.5679C222.275 22.6892 222.783 22.8572 223.231 23.0719C223.689 23.2772 224.053 23.5619 224.323 23.9259C224.594 24.2806 224.729 24.7472 224.729 25.3259C224.729 25.9046 224.585 26.4086 224.295 26.8379C224.006 27.2672 223.595 27.6032 223.063 27.8459C222.541 28.0792 221.925 28.1959 221.215 28.1959ZM229.199 28.1259C228.705 28.1259 228.247 28.0186 227.827 27.8039C227.417 27.5892 227.09 27.2719 226.847 26.8519C226.614 26.4226 226.497 25.9046 226.497 25.2979V21.1539H227.603V25.2139C227.603 25.8952 227.771 26.3899 228.107 26.6979C228.453 27.0059 228.915 27.1599 229.493 27.1599C230.147 27.1599 230.683 26.9452 231.103 26.5159C231.523 26.0866 231.733 25.4472 231.733 24.5979V21.1539H232.839V27.9999H231.761V26.8379H231.565C231.416 27.1646 231.159 27.4632 230.795 27.7339C230.431 27.9952 229.899 28.1259 229.199 28.1259ZM235.154 30.7999V21.1539H236.232V22.2879H236.428C236.605 21.9426 236.89 21.6346 237.282 21.3639C237.683 21.0932 238.238 20.9579 238.948 20.9579C239.536 20.9579 240.072 21.1026 240.558 21.3919C241.052 21.6719 241.444 22.0732 241.734 22.5959C242.032 23.1186 242.182 23.7486 242.182 24.4859V24.6679C242.182 25.3959 242.037 26.0259 241.748 26.5579C241.458 27.0899 241.066 27.4959 240.572 27.7759C240.086 28.0559 239.545 28.1959 238.948 28.1959C238.472 28.1959 238.066 28.1306 237.73 27.9999C237.403 27.8786 237.137 27.7199 236.932 27.5239C236.726 27.3279 236.568 27.1272 236.456 26.9219H236.26V30.7999H235.154ZM238.654 27.2159C239.363 27.2159 239.937 26.9919 240.376 26.5439C240.824 26.0866 241.048 25.4519 241.048 24.6399V24.5139C241.048 23.7019 240.824 23.0719 240.376 22.6239C239.937 22.1666 239.363 21.9379 238.654 21.9379C237.954 21.9379 237.375 22.1666 236.918 22.6239C236.47 23.0719 236.246 23.7019 236.246 24.5139V24.6399C236.246 25.4519 236.47 26.0866 236.918 26.5439C237.375 26.9919 237.954 27.2159 238.654 27.2159ZM247.299 28.1959C246.609 28.1959 246.002 28.0512 245.479 27.7619C244.957 27.4632 244.551 27.0479 244.261 26.5159C243.972 25.9839 243.827 25.3679 243.827 24.6679V24.4999C243.827 23.7906 243.972 23.1699 244.261 22.6379C244.551 22.1059 244.952 21.6952 245.465 21.4059C245.979 21.1072 246.567 20.9579 247.229 20.9579C247.873 20.9579 248.443 21.0979 248.937 21.3779C249.432 21.6486 249.819 22.0406 250.099 22.5539C250.379 23.0672 250.519 23.6692 250.519 24.3599V24.8639H244.933C244.961 25.6012 245.199 26.1799 245.647 26.5999C246.095 27.0106 246.655 27.2159 247.327 27.2159C247.915 27.2159 248.368 27.0806 248.685 26.8099C249.003 26.5392 249.245 26.2172 249.413 25.8439L250.365 26.3059C250.225 26.5952 250.029 26.8846 249.777 27.1739C249.535 27.4632 249.213 27.7059 248.811 27.9019C248.419 28.0979 247.915 28.1959 247.299 28.1959ZM244.947 23.9539H249.399C249.362 23.3192 249.143 22.8246 248.741 22.4699C248.349 22.1152 247.845 21.9379 247.229 21.9379C246.604 21.9379 246.091 22.1152 245.689 22.4699C245.288 22.8246 245.041 23.3192 244.947 23.9539ZM252.449 27.9999V21.1539H253.527V21.9939H253.723C253.844 21.6952 254.031 21.4759 254.283 21.3359C254.535 21.1959 254.866 21.1259 255.277 21.1259H256.089V22.1339H255.207C254.712 22.1339 254.311 22.2739 254.003 22.5539C253.704 22.8246 253.555 23.2492 253.555 23.8279V27.9999H252.449ZM260.347 28.1959C259.498 28.1959 258.779 27.9999 258.191 27.6079C257.613 27.2159 257.263 26.5952 257.141 25.7459L258.191 25.5079C258.266 25.9559 258.406 26.3106 258.611 26.5719C258.817 26.8239 259.069 27.0059 259.367 27.1179C259.675 27.2206 260.002 27.2719 260.347 27.2719C260.861 27.2719 261.267 27.1692 261.565 26.9639C261.864 26.7586 262.013 26.4832 262.013 26.1379C262.013 25.7832 261.869 25.5359 261.579 25.3959C261.299 25.2466 260.912 25.1252 260.417 25.0319L259.843 24.9339C259.405 24.8592 259.003 24.7426 258.639 24.5839C258.275 24.4252 257.986 24.2106 257.771 23.9399C257.557 23.6692 257.449 23.3286 257.449 22.9179C257.449 22.3019 257.687 21.8212 258.163 21.4759C258.639 21.1306 259.269 20.9579 260.053 20.9579C260.828 20.9579 261.453 21.1352 261.929 21.4899C262.415 21.8352 262.727 22.3252 262.867 22.9599L261.831 23.2259C261.747 22.7312 261.547 22.3859 261.229 22.1899C260.912 21.9846 260.52 21.8819 260.053 21.8819C259.587 21.8819 259.218 21.9706 258.947 22.1479C258.677 22.3159 258.541 22.5679 258.541 22.9039C258.541 23.2306 258.667 23.4732 258.919 23.6319C259.181 23.7812 259.526 23.8932 259.955 23.9679L260.529 24.0659C261.015 24.1499 261.449 24.2666 261.831 24.4159C262.223 24.5559 262.531 24.7612 262.755 25.0319C262.989 25.3026 263.105 25.6572 263.105 26.0959C263.105 26.7679 262.853 27.2859 262.349 27.6499C261.855 28.0139 261.187 28.1959 260.347 28.1959ZM267.342 27.9999C266.95 27.9999 266.646 27.8926 266.432 27.6779C266.226 27.4632 266.124 27.1692 266.124 26.7959V22.1199H264.066V21.1539H266.124V18.7179H267.23V21.1539H269.47V22.1199H267.23V26.6279C267.23 26.9079 267.365 27.0479 267.636 27.0479H269.162V27.9999H267.342ZM273.32 28.1959C272.844 28.1959 272.41 28.1119 272.018 27.9439C271.626 27.7759 271.318 27.5332 271.094 27.2159C270.87 26.8986 270.758 26.5112 270.758 26.0539C270.758 25.5872 270.87 25.2046 271.094 24.9059C271.318 24.5979 271.626 24.3692 272.018 24.2199C272.41 24.0612 272.849 23.9819 273.334 23.9819H275.644V23.4779C275.644 22.9926 275.499 22.6099 275.21 22.3299C274.93 22.0499 274.51 21.9099 273.95 21.9099C273.399 21.9099 272.97 22.0452 272.662 22.3159C272.354 22.5772 272.144 22.9319 272.032 23.3799L270.996 23.0439C271.108 22.6612 271.285 22.3159 271.528 22.0079C271.771 21.6906 272.093 21.4386 272.494 21.2519C272.905 21.0559 273.395 20.9579 273.964 20.9579C274.841 20.9579 275.523 21.1866 276.008 21.6439C276.493 22.0919 276.736 22.7266 276.736 23.5479V26.6419C276.736 26.9219 276.867 27.0619 277.128 27.0619H277.758V27.9999H276.792C276.484 27.9999 276.237 27.9159 276.05 27.7479C275.863 27.5706 275.77 27.3372 275.77 27.0479V26.9779H275.602C275.499 27.1552 275.359 27.3419 275.182 27.5379C275.014 27.7246 274.781 27.8786 274.482 27.9999C274.183 28.1306 273.796 28.1959 273.32 28.1959ZM273.446 27.2439C274.099 27.2439 274.627 27.0526 275.028 26.6699C275.439 26.2779 275.644 25.7319 275.644 25.0319V24.8779H273.376C272.937 24.8779 272.573 24.9759 272.284 25.1719C272.004 25.3586 271.864 25.6432 271.864 26.0259C271.864 26.4086 272.009 26.7072 272.298 26.9219C272.597 27.1366 272.979 27.2439 273.446 27.2439ZM279.273 27.9999V21.1539H280.351V21.9939H280.547C280.668 21.6952 280.855 21.4759 281.107 21.3359C281.359 21.1959 281.69 21.1259 282.101 21.1259H282.913V22.1339H282.031C281.536 22.1339 281.135 22.2739 280.827 22.5539C280.528 22.8246 280.379 23.2492 280.379 23.8279V27.9999H279.273Z" fill="#C9C9C9" fill-opacity="0.6"/>
<path d="M217.953 46.0002V36.2002H220.193L222.797 45.2582H222.979L225.583 36.2002H227.823V46.0002H226.689V36.9702H226.493L223.903 46.0002H221.873L219.283 36.9702H219.087V46.0002H217.953ZM232.209 46.1962C231.733 46.1962 231.299 46.1122 230.907 45.9442C230.515 45.7762 230.207 45.5335 229.983 45.2162C229.759 44.8989 229.647 44.5115 229.647 44.0542C229.647 43.5875 229.759 43.2049 229.983 42.9062C230.207 42.5982 230.515 42.3695 230.907 42.2202C231.299 42.0615 231.737 41.9822 232.223 41.9822H234.533V41.4782C234.533 40.9929 234.388 40.6102 234.099 40.3302C233.819 40.0502 233.399 39.9102 232.839 39.9102C232.288 39.9102 231.859 40.0455 231.551 40.3162C231.243 40.5775 231.033 40.9322 230.921 41.3802L229.885 41.0442C229.997 40.6615 230.174 40.3162 230.417 40.0082C230.659 39.6909 230.981 39.4389 231.383 39.2522C231.793 39.0562 232.283 38.9582 232.853 38.9582C233.73 38.9582 234.411 39.1869 234.897 39.6442C235.382 40.0922 235.625 40.7269 235.625 41.5482V44.6422C235.625 44.9222 235.755 45.0622 236.017 45.0622H236.647V46.0002H235.681C235.373 46.0002 235.125 45.9162 234.939 45.7482C234.752 45.5709 234.659 45.3375 234.659 45.0482V44.9782H234.491C234.388 45.1555 234.248 45.3422 234.071 45.5382C233.903 45.7249 233.669 45.8789 233.371 46.0002C233.072 46.1309 232.685 46.1962 232.209 46.1962ZM232.335 45.2442C232.988 45.2442 233.515 45.0529 233.917 44.6702C234.327 44.2782 234.533 43.7322 234.533 43.0322V42.8782H232.265C231.826 42.8782 231.462 42.9762 231.173 43.1722C230.893 43.3589 230.753 43.6435 230.753 44.0262C230.753 44.4089 230.897 44.7075 231.187 44.9222C231.485 45.1369 231.868 45.2442 232.335 45.2442ZM238.162 46.0002V39.1542H239.268V46.0002H238.162ZM238.722 38.0902C238.479 38.0902 238.274 38.0109 238.106 37.8522C237.947 37.6935 237.868 37.4929 237.868 37.2502C237.868 36.9982 237.947 36.7929 238.106 36.6342C238.274 36.4755 238.479 36.3962 238.722 36.3962C238.964 36.3962 239.165 36.4755 239.324 36.6342C239.482 36.7929 239.562 36.9982 239.562 37.2502C239.562 37.4929 239.482 37.6935 239.324 37.8522C239.165 38.0109 238.964 38.0902 238.722 38.0902ZM241.593 46.0002V39.1542H242.671V40.3162H242.867C243.016 39.9895 243.268 39.6955 243.623 39.4342C243.987 39.1635 244.519 39.0282 245.219 39.0282C245.732 39.0282 246.19 39.1355 246.591 39.3502C247.002 39.5649 247.328 39.8822 247.571 40.3022C247.814 40.7222 247.935 41.2402 247.935 41.8562V46.0002H246.829V41.9402C246.829 41.2589 246.656 40.7642 246.311 40.4562C245.975 40.1482 245.518 39.9942 244.939 39.9942C244.276 39.9942 243.735 40.2089 243.315 40.6382C242.904 41.0675 242.699 41.7069 242.699 42.5562V46.0002H241.593ZM252.937 46.1962C252.088 46.1962 251.369 46.0002 250.781 45.6082C250.202 45.2162 249.852 44.5955 249.731 43.7462L250.781 43.5082C250.856 43.9562 250.996 44.3109 251.201 44.5722C251.406 44.8242 251.658 45.0062 251.957 45.1182C252.265 45.2209 252.592 45.2722 252.937 45.2722C253.45 45.2722 253.856 45.1695 254.155 44.9642C254.454 44.7589 254.603 44.4835 254.603 44.1382C254.603 43.7835 254.458 43.5362 254.169 43.3962C253.889 43.2469 253.502 43.1255 253.007 43.0322L252.433 42.9342C251.994 42.8595 251.593 42.7429 251.229 42.5842C250.865 42.4255 250.576 42.2109 250.361 41.9402C250.146 41.6695 250.039 41.3289 250.039 40.9182C250.039 40.3022 250.277 39.8215 250.753 39.4762C251.229 39.1309 251.859 38.9582 252.643 38.9582C253.418 38.9582 254.043 39.1355 254.519 39.4902C255.004 39.8355 255.317 40.3255 255.457 40.9602L254.421 41.2262C254.337 40.7315 254.136 40.3862 253.819 40.1902C253.502 39.9849 253.11 39.8822 252.643 39.8822C252.176 39.8822 251.808 39.9709 251.537 40.1482C251.266 40.3162 251.131 40.5682 251.131 40.9042C251.131 41.2309 251.257 41.4735 251.509 41.6322C251.77 41.7815 252.116 41.8935 252.545 41.9682L253.119 42.0662C253.604 42.1502 254.038 42.2669 254.421 42.4162C254.813 42.5562 255.121 42.7615 255.345 43.0322C255.578 43.3029 255.695 43.6575 255.695 44.0962C255.695 44.7682 255.443 45.2862 254.939 45.6502C254.444 46.0142 253.777 46.1962 252.937 46.1962ZM259.932 46.0002C259.54 46.0002 259.236 45.8929 259.022 45.6782C258.816 45.4635 258.714 45.1695 258.714 44.7962V40.1202H256.656V39.1542H258.714V36.7182H259.82V39.1542H262.06V40.1202H259.82V44.6282C259.82 44.9082 259.955 45.0482 260.226 45.0482H261.752V46.0002H259.932ZM263.851 46.0002V39.1542H264.929V39.9942H265.125C265.246 39.6955 265.433 39.4762 265.685 39.3362C265.937 39.1962 266.268 39.1262 266.679 39.1262H267.491V40.1342H266.609C266.114 40.1342 265.713 40.2742 265.405 40.5542C265.106 40.8249 264.957 41.2495 264.957 41.8282V46.0002H263.851ZM272.018 46.1962C271.328 46.1962 270.721 46.0515 270.198 45.7622C269.676 45.4635 269.27 45.0482 268.98 44.5162C268.691 43.9842 268.546 43.3682 268.546 42.6682V42.5002C268.546 41.7909 268.691 41.1702 268.98 40.6382C269.27 40.1062 269.671 39.6955 270.184 39.4062C270.698 39.1075 271.286 38.9582 271.948 38.9582C272.592 38.9582 273.162 39.0982 273.656 39.3782C274.151 39.6489 274.538 40.0409 274.818 40.5542C275.098 41.0675 275.238 41.6695 275.238 42.3602V42.8642H269.652C269.68 43.6015 269.918 44.1802 270.366 44.6002C270.814 45.0109 271.374 45.2162 272.046 45.2162C272.634 45.2162 273.087 45.0809 273.404 44.8102C273.722 44.5395 273.964 44.2175 274.132 43.8442L275.084 44.3062C274.944 44.5955 274.748 44.8849 274.496 45.1742C274.254 45.4635 273.932 45.7062 273.53 45.9022C273.138 46.0982 272.634 46.1962 272.018 46.1962ZM269.666 41.9542H274.118C274.081 41.3195 273.862 40.8249 273.46 40.4702C273.068 40.1155 272.564 39.9382 271.948 39.9382C271.323 39.9382 270.81 40.1155 270.408 40.4702C270.007 40.8249 269.76 41.3195 269.666 41.9542ZM279.267 46.1962C278.791 46.1962 278.357 46.1122 277.965 45.9442C277.573 45.7762 277.265 45.5335 277.041 45.2162C276.817 44.8989 276.705 44.5115 276.705 44.0542C276.705 43.5875 276.817 43.2049 277.041 42.9062C277.265 42.5982 277.573 42.3695 277.965 42.2202C278.357 42.0615 278.796 41.9822 279.281 41.9822H281.591V41.4782C281.591 40.9929 281.447 40.6102 281.157 40.3302C280.877 40.0502 280.457 39.9102 279.897 39.9102C279.347 39.9102 278.917 40.0455 278.609 40.3162C278.301 40.5775 278.091 40.9322 277.979 41.3802L276.943 41.0442C277.055 40.6615 277.233 40.3162 277.475 40.0082C277.718 39.6909 278.04 39.4389 278.441 39.2522C278.852 39.0562 279.342 38.9582 279.911 38.9582C280.789 38.9582 281.47 39.1869 281.955 39.6442C282.441 40.0922 282.683 40.7269 282.683 41.5482V44.6422C282.683 44.9222 282.814 45.0622 283.075 45.0622H283.705V46.0002H282.739C282.431 46.0002 282.184 45.9162 281.997 45.7482C281.811 45.5709 281.717 45.3375 281.717 45.0482V44.9782H281.549C281.447 45.1555 281.307 45.3422 281.129 45.5382C280.961 45.7249 280.728 45.8789 280.429 46.0002C280.131 46.1309 279.743 46.1962 279.267 46.1962ZM279.393 45.2442C280.047 45.2442 280.574 45.0529 280.975 44.6702C281.386 44.2782 281.591 43.7322 281.591 43.0322V42.8782H279.323C278.885 42.8782 278.521 42.9762 278.231 43.1722C277.951 43.3589 277.811 43.6435 277.811 44.0262C277.811 44.4089 277.956 44.7075 278.245 44.9222C278.544 45.1369 278.927 45.2442 279.393 45.2442ZM285.22 46.0002V39.1542H286.298V40.0082H286.494C286.625 39.7655 286.839 39.5415 287.138 39.3362C287.437 39.1309 287.857 39.0282 288.398 39.0282C288.93 39.0282 289.359 39.1449 289.686 39.3782C290.022 39.6115 290.265 39.8962 290.414 40.2322H290.61C290.769 39.8962 291.007 39.6115 291.324 39.3782C291.651 39.1449 292.103 39.0282 292.682 39.0282C293.139 39.0282 293.541 39.1215 293.886 39.3082C294.231 39.4949 294.502 39.7655 294.698 40.1202C294.903 40.4655 295.006 40.8809 295.006 41.3662V46.0002H293.9V41.4642C293.9 41.0069 293.765 40.6475 293.494 40.3862C293.233 40.1155 292.864 39.9802 292.388 39.9802C291.884 39.9802 291.469 40.1435 291.142 40.4702C290.825 40.7969 290.666 41.2682 290.666 41.8842V46.0002H289.56V41.4642C289.56 41.0069 289.425 40.6475 289.154 40.3862C288.893 40.1155 288.524 39.9802 288.048 39.9802C287.544 39.9802 287.129 40.1435 286.802 40.4702C286.485 40.7969 286.326 41.2682 286.326 41.8842V46.0002H285.22Z" fill="#C9C9C9" fill-opacity="0.6"/>
<path d="M217.855 64.0002V54.2002H220.697L222.839 62.9922H223.063L225.205 54.2002H228.047V64.0002H226.577V55.2642H226.353L224.225 64.0002H221.677L219.549 55.2642H219.325V64.0002H217.855ZM230.134 64.0002V57.0982H231.576V64.0002H230.134ZM230.862 56.1602C230.582 56.1602 230.344 56.0715 230.148 55.8942C229.961 55.7075 229.868 55.4695 229.868 55.1802C229.868 54.8909 229.961 54.6575 230.148 54.4802C230.344 54.2935 230.582 54.2002 230.862 54.2002C231.151 54.2002 231.389 54.2935 231.576 54.4802C231.762 54.6575 231.856 54.8909 231.856 55.1802C231.856 55.4695 231.762 55.7075 231.576 55.8942C231.389 56.0715 231.151 56.1602 230.862 56.1602ZM236.572 64.1962C236.003 64.1962 235.475 64.0562 234.99 63.7762C234.505 63.4962 234.113 63.0949 233.814 62.5722C233.525 62.0402 233.38 61.4009 233.38 60.6542V60.4442C233.38 59.7069 233.525 59.0722 233.814 58.5402C234.103 58.0082 234.491 57.6022 234.976 57.3222C235.461 57.0422 235.993 56.9022 236.572 56.9022C237.02 56.9022 237.393 56.9582 237.692 57.0702C238 57.1822 238.252 57.3269 238.448 57.5042C238.644 57.6722 238.793 57.8495 238.896 58.0362H239.12V54.2002H240.562V64.0002H239.148V63.0202H238.924C238.747 63.3189 238.476 63.5895 238.112 63.8322C237.757 64.0749 237.244 64.1962 236.572 64.1962ZM236.978 62.9362C237.603 62.9362 238.117 62.7355 238.518 62.3342C238.929 61.9329 239.134 61.3589 239.134 60.6122V60.4862C239.134 59.7489 238.933 59.1795 238.532 58.7782C238.131 58.3769 237.613 58.1762 236.978 58.1762C236.362 58.1762 235.849 58.3769 235.438 58.7782C235.037 59.1795 234.836 59.7489 234.836 60.4862V60.6122C234.836 61.3589 235.037 61.9329 235.438 62.3342C235.849 62.7355 236.362 62.9362 236.978 62.9362ZM242.657 61.0742V59.7582H246.801V61.0742H242.657ZM248.892 64.0002V54.2002H250.334V64.0002H248.892ZM255.638 64.1962C254.938 64.1962 254.326 64.0515 253.804 63.7622C253.281 63.4635 252.87 63.0482 252.572 62.5162C252.282 61.9749 252.138 61.3495 252.138 60.6402V60.4722C252.138 59.7535 252.282 59.1282 252.572 58.5962C252.861 58.0549 253.262 57.6395 253.776 57.3502C254.298 57.0515 254.9 56.9022 255.582 56.9022C256.244 56.9022 256.823 57.0515 257.318 57.3502C257.822 57.6395 258.214 58.0455 258.494 58.5682C258.774 59.0909 258.914 59.7022 258.914 60.4022V60.9482H253.608C253.626 61.5549 253.827 62.0402 254.21 62.4042C254.602 62.7589 255.087 62.9362 255.666 62.9362C256.207 62.9362 256.613 62.8149 256.884 62.5722C257.164 62.3295 257.378 62.0495 257.528 61.7322L258.718 62.3482C258.587 62.6095 258.396 62.8849 258.144 63.1742C257.901 63.4635 257.579 63.7062 257.178 63.9022C256.776 64.0982 256.263 64.1962 255.638 64.1962ZM253.622 59.8422H257.444C257.406 59.3195 257.22 58.9135 256.884 58.6242C256.548 58.3255 256.109 58.1762 255.568 58.1762C255.026 58.1762 254.583 58.3255 254.238 58.6242C253.902 58.9135 253.696 59.3195 253.622 59.8422ZM261.999 64.0002L259.675 57.0982H261.201L263.035 62.9362H263.259L265.093 57.0982H266.619L264.295 64.0002H261.999ZM270.936 64.1962C270.236 64.1962 269.625 64.0515 269.102 63.7622C268.58 63.4635 268.169 63.0482 267.87 62.5162C267.581 61.9749 267.436 61.3495 267.436 60.6402V60.4722C267.436 59.7535 267.581 59.1282 267.87 58.5962C268.16 58.0549 268.561 57.6395 269.074 57.3502C269.597 57.0515 270.199 56.9022 270.88 56.9022C271.543 56.9022 272.122 57.0515 272.616 57.3502C273.12 57.6395 273.512 58.0455 273.792 58.5682C274.072 59.0909 274.212 59.7022 274.212 60.4022V60.9482H268.906C268.925 61.5549 269.126 62.0402 269.508 62.4042C269.9 62.7589 270.386 62.9362 270.964 62.9362C271.506 62.9362 271.912 62.8149 272.182 62.5722C272.462 62.3295 272.677 62.0495 272.826 61.7322L274.016 62.3482C273.886 62.6095 273.694 62.8849 273.442 63.1742C273.2 63.4635 272.878 63.7062 272.476 63.9022C272.075 64.0982 271.562 64.1962 270.936 64.1962ZM268.92 59.8422H272.742C272.705 59.3195 272.518 58.9135 272.182 58.6242C271.846 58.3255 271.408 58.1762 270.866 58.1762C270.325 58.1762 269.882 58.3255 269.536 58.6242C269.2 58.9135 268.995 59.3195 268.92 59.8422ZM275.948 64.0002V54.2002H277.39V64.0002H275.948Z" fill="white"/>
<path d="M217.491 82.0002V80.9502H218.863V73.2502H217.491V72.2002H221.313C222.601 72.2002 223.595 72.5269 224.295 73.1802C225.005 73.8335 225.359 74.8369 225.359 76.1902V78.0102C225.359 79.3729 225.005 80.3809 224.295 81.0342C223.595 81.6782 222.601 82.0002 221.313 82.0002H217.491ZM220.039 80.9362H221.313C222.265 80.9362 222.984 80.7029 223.469 80.2362C223.955 79.7695 224.197 79.0462 224.197 78.0662V76.1482C224.197 75.1495 223.955 74.4215 223.469 73.9642C222.984 73.5069 222.265 73.2782 221.313 73.2782H220.039V80.9362ZM230.415 82.1962C229.724 82.1962 229.117 82.0515 228.595 81.7622C228.072 81.4635 227.666 81.0482 227.377 80.5162C227.087 79.9842 226.943 79.3682 226.943 78.6682V78.5002C226.943 77.7909 227.087 77.1702 227.377 76.6382C227.666 76.1062 228.067 75.6955 228.581 75.4062C229.094 75.1075 229.682 74.9582 230.345 74.9582C230.989 74.9582 231.558 75.0982 232.053 75.3782C232.547 75.6489 232.935 76.0409 233.215 76.5542C233.495 77.0675 233.635 77.6695 233.635 78.3602V78.8642H228.049C228.077 79.6015 228.315 80.1802 228.763 80.6002C229.211 81.0109 229.771 81.2162 230.443 81.2162C231.031 81.2162 231.483 81.0809 231.801 80.8102C232.118 80.5395 232.361 80.2175 232.529 79.8442L233.481 80.3062C233.341 80.5955 233.145 80.8849 232.893 81.1742C232.65 81.4635 232.328 81.7062 231.927 81.9022C231.535 82.0982 231.031 82.1962 230.415 82.1962ZM228.063 77.9542H232.515C232.477 77.3195 232.258 76.8249 231.857 76.4702C231.465 76.1155 230.961 75.9382 230.345 75.9382C229.719 75.9382 229.206 76.1155 228.805 76.4702C228.403 76.8249 228.156 77.3195 228.063 77.9542ZM237.013 82.0002L234.563 75.1542H235.739L237.797 81.1742H237.993L240.051 75.1542H241.227L238.777 82.0002H237.013ZM245.673 82.1962C244.982 82.1962 244.375 82.0515 243.853 81.7622C243.33 81.4635 242.924 81.0482 242.635 80.5162C242.345 79.9842 242.201 79.3682 242.201 78.6682V78.5002C242.201 77.7909 242.345 77.1702 242.635 76.6382C242.924 76.1062 243.325 75.6955 243.839 75.4062C244.352 75.1075 244.94 74.9582 245.603 74.9582C246.247 74.9582 246.816 75.0982 247.311 75.3782C247.805 75.6489 248.193 76.0409 248.473 76.5542C248.753 77.0675 248.893 77.6695 248.893 78.3602V78.8642H243.307C243.335 79.6015 243.573 80.1802 244.021 80.6002C244.469 81.0109 245.029 81.2162 245.701 81.2162C246.289 81.2162 246.741 81.0809 247.059 80.8102C247.376 80.5395 247.619 80.2175 247.787 79.8442L248.739 80.3062C248.599 80.5955 248.403 80.8849 248.151 81.1742C247.908 81.4635 247.586 81.7062 247.185 81.9022C246.793 82.0982 246.289 82.1962 245.673 82.1962ZM243.321 77.9542H247.773C247.735 77.3195 247.516 76.8249 247.115 76.4702C246.723 76.1155 246.219 75.9382 245.603 75.9382C244.977 75.9382 244.464 76.1155 244.063 76.4702C243.661 76.8249 243.414 77.3195 243.321 77.9542ZM250.822 82.0002V72.2002H251.928V82.0002H250.822ZM257.417 82.1962C256.727 82.1962 256.115 82.0515 255.583 81.7622C255.061 81.4729 254.65 81.0669 254.351 80.5442C254.062 80.0122 253.917 79.3869 253.917 78.6682V78.4862C253.917 77.7769 254.062 77.1562 254.351 76.6242C254.65 76.0922 255.061 75.6815 255.583 75.3922C256.115 75.1029 256.727 74.9582 257.417 74.9582C258.108 74.9582 258.715 75.1029 259.237 75.3922C259.769 75.6815 260.18 76.0922 260.469 76.6242C260.768 77.1562 260.917 77.7769 260.917 78.4862V78.6682C260.917 79.3869 260.768 80.0122 260.469 80.5442C260.18 81.0669 259.769 81.4729 259.237 81.7622C258.715 82.0515 258.108 82.1962 257.417 82.1962ZM257.417 81.2022C258.145 81.2022 258.724 80.9735 259.153 80.5162C259.592 80.0495 259.811 79.4242 259.811 78.6402V78.5142C259.811 77.7302 259.592 77.1095 259.153 76.6522C258.724 76.1855 258.145 75.9522 257.417 75.9522C256.699 75.9522 256.12 76.1855 255.681 76.6522C255.243 77.1095 255.023 77.7302 255.023 78.5142V78.6402C255.023 79.4242 255.243 80.0495 255.681 80.5162C256.12 80.9735 256.699 81.2022 257.417 81.2022ZM262.908 84.8002V75.1542H263.986V76.2882H264.182C264.359 75.9429 264.644 75.6349 265.036 75.3642C265.437 75.0935 265.992 74.9582 266.702 74.9582C267.29 74.9582 267.826 75.1029 268.312 75.3922C268.806 75.6722 269.198 76.0735 269.488 76.5962C269.786 77.1189 269.936 77.7489 269.936 78.4862V78.6682C269.936 79.3962 269.791 80.0262 269.502 80.5582C269.212 81.0902 268.82 81.4962 268.326 81.7762C267.84 82.0562 267.299 82.1962 266.702 82.1962C266.226 82.1962 265.82 82.1309 265.484 82.0002C265.157 81.8789 264.891 81.7202 264.686 81.5242C264.48 81.3282 264.322 81.1275 264.21 80.9222H264.014V84.8002H262.908ZM266.408 81.2162C267.117 81.2162 267.691 80.9922 268.13 80.5442C268.578 80.0869 268.802 79.4522 268.802 78.6402V78.5142C268.802 77.7022 268.578 77.0722 268.13 76.6242C267.691 76.1669 267.117 75.9382 266.408 75.9382C265.708 75.9382 265.129 76.1669 264.672 76.6242C264.224 77.0722 264 77.7022 264 78.5142V78.6402C264 79.4522 264.224 80.0869 264.672 80.5442C265.129 80.9922 265.708 81.2162 266.408 81.2162ZM271.917 82.0002V75.1542H273.023V82.0002H271.917ZM272.477 74.0902C272.235 74.0902 272.029 74.0109 271.861 73.8522C271.703 73.6935 271.623 73.4929 271.623 73.2502C271.623 72.9982 271.703 72.7929 271.861 72.6342C272.029 72.4755 272.235 72.3962 272.477 72.3962C272.72 72.3962 272.921 72.4755 273.079 72.6342C273.238 72.7929 273.317 72.9982 273.317 73.2502C273.317 73.4929 273.238 73.6935 273.079 73.8522C272.921 74.0109 272.72 74.0902 272.477 74.0902ZM275.349 82.0002V75.1542H276.427V76.3162H276.623C276.772 75.9895 277.024 75.6955 277.379 75.4342C277.743 75.1635 278.275 75.0282 278.975 75.0282C279.488 75.0282 279.946 75.1355 280.347 75.3502C280.758 75.5649 281.084 75.8822 281.327 76.3022C281.57 76.7222 281.691 77.2402 281.691 77.8562V82.0002H280.585V77.9402C280.585 77.2589 280.412 76.7642 280.067 76.4562C279.731 76.1482 279.274 75.9942 278.695 75.9942C278.032 75.9942 277.491 76.2089 277.071 76.6382C276.66 77.0675 276.455 77.7069 276.455 78.5562V82.0002H275.349ZM283.599 78.6122V78.4162C283.599 77.6975 283.744 77.0815 284.033 76.5682C284.322 76.0549 284.714 75.6582 285.209 75.3782C285.704 75.0982 286.245 74.9582 286.833 74.9582C287.552 74.9582 288.102 75.0982 288.485 75.3782C288.877 75.6489 289.166 75.9522 289.353 76.2882H289.549V75.1542H290.599V83.5962C290.599 83.9695 290.496 84.2635 290.291 84.4782C290.086 84.6929 289.787 84.8002 289.395 84.8002H284.747V83.8202H289.101C289.381 83.8202 289.521 83.6802 289.521 83.4002V80.7962H289.325C289.213 81.0015 289.054 81.2022 288.849 81.3982C288.644 81.5942 288.378 81.7575 288.051 81.8882C287.724 82.0095 287.318 82.0702 286.833 82.0702C286.245 82.0702 285.704 81.9302 285.209 81.6502C284.714 81.3702 284.322 80.9735 284.033 80.4602C283.744 79.9375 283.599 79.3215 283.599 78.6122ZM287.127 81.0902C287.836 81.0902 288.41 80.8662 288.849 80.4182C289.297 79.9702 289.521 79.3542 289.521 78.5702V78.4582C289.521 77.6649 289.297 77.0489 288.849 76.6102C288.41 76.1622 287.836 75.9382 287.127 75.9382C286.427 75.9382 285.848 76.1622 285.391 76.6102C284.943 77.0489 284.719 77.6649 284.719 78.4582V78.5702C284.719 79.3542 284.943 79.9702 285.391 80.4182C285.848 80.8662 286.427 81.0902 287.127 81.0902Z" fill="#C9C9C9" fill-opacity="0.6"/>
</svg>
