<svg width="314" height="85" viewBox="0 0 314 85" fill="none" xmlns="http://www.w3.org/2000/svg">
<path d="M9.84277 79.9435C10.0303 68.0223 16.7067 39.9533 41.912 23.0469" stroke="#315599" stroke-width="4" stroke-linecap="round"/>
<path d="M48.8789 17.5635C59.5053 11.9364 87.4406 3.99584 114.17 17.2498" stroke="#4D9A71" stroke-width="4" stroke-linecap="round"/>
<path d="M123.643 22.2192C133.614 28.9405 153.781 49.8386 154.685 79.6601" stroke="#6CE54A" stroke-width="4" stroke-linecap="round"/>
<path d="M144.995 36.2294C144.995 39.6955 142.185 42.5053 138.719 42.5053C135.253 42.5053 132.443 39.6955 132.443 36.2294C132.443 32.7634 135.253 29.9536 138.719 29.9536C142.185 29.9536 144.995 32.7634 144.995 36.2294Z" fill="black" stroke="#6CE54A" stroke-width="4"/>
<path d="M52.7569 68.8834C52.0476 68.8834 51.4129 68.7574 50.8529 68.5054C50.2929 68.2534 49.8496 67.8754 49.5229 67.3714C49.2056 66.8581 49.0469 66.2187 49.0469 65.4534V65.1594H50.2089V65.4534C50.2089 66.2654 50.4469 66.8721 50.9229 67.2734C51.3989 67.6654 52.0103 67.8614 52.7569 67.8614C53.5223 67.8614 54.1056 67.6887 54.5069 67.3434C54.9083 66.9981 55.1089 66.5641 55.1089 66.0414C55.1089 65.6774 55.0156 65.3881 54.8289 65.1734C54.6516 64.9587 54.3996 64.7861 54.0729 64.6554C53.7463 64.5154 53.3636 64.3941 52.9249 64.2914L52.1969 64.1094C51.6276 63.9601 51.1236 63.7781 50.6849 63.5634C50.2463 63.3487 49.9009 63.0687 49.6489 62.7234C49.4063 62.3687 49.2849 61.9161 49.2849 61.3654C49.2849 60.8147 49.4203 60.3387 49.6909 59.9374C49.9709 59.5361 50.3583 59.2281 50.8529 59.0134C51.3569 58.7987 51.9356 58.6914 52.5889 58.6914C53.2516 58.6914 53.8443 58.8081 54.3669 59.0414C54.8989 59.2654 55.3143 59.6014 55.6129 60.0494C55.9209 60.4881 56.0749 61.0434 56.0749 61.7154V62.3034H54.9129V61.7154C54.9129 61.2394 54.8103 60.8567 54.6049 60.5674C54.4089 60.2781 54.1336 60.0634 53.7789 59.9234C53.4336 59.7834 53.0369 59.7134 52.5889 59.7134C51.9449 59.7134 51.4269 59.8581 51.0349 60.1474C50.6429 60.4274 50.4469 60.8287 50.4469 61.3514C50.4469 61.6967 50.5309 61.9767 50.6989 62.1914C50.8669 62.4061 51.1049 62.5834 51.4129 62.7234C51.7209 62.8541 52.0896 62.9707 52.5189 63.0734L53.2469 63.2554C53.8163 63.3767 54.3249 63.5447 54.7729 63.7594C55.2303 63.9647 55.5943 64.2494 55.8649 64.6134C56.1356 64.9681 56.2709 65.4347 56.2709 66.0134C56.2709 66.5921 56.1263 67.0961 55.8369 67.5254C55.5476 67.9547 55.1369 68.2907 54.6049 68.5334C54.0823 68.7667 53.4663 68.8834 52.7569 68.8834ZM60.7409 68.8134C60.2462 68.8134 59.7889 68.7061 59.3689 68.4914C58.9582 68.2767 58.6315 67.9594 58.3889 67.5394C58.1555 67.1101 58.0389 66.5921 58.0389 65.9854V61.8414H59.1449V65.9014C59.1449 66.5827 59.3129 67.0774 59.6489 67.3854C59.9942 67.6934 60.4562 67.8474 61.0349 67.8474C61.6882 67.8474 62.2249 67.6327 62.6449 67.2034C63.0649 66.7741 63.2749 66.1347 63.2749 65.2854V61.8414H64.3809V68.6874H63.3029V67.5254H63.1069C62.9575 67.8521 62.7009 68.1507 62.3369 68.4214C61.9729 68.6827 61.4409 68.8134 60.7409 68.8134ZM66.6951 71.4874V61.8414H67.7731V62.9754H67.9691C68.1465 62.6301 68.4311 62.3221 68.8231 62.0514C69.2245 61.7807 69.7798 61.6454 70.4891 61.6454C71.0771 61.6454 71.6138 61.7901 72.0991 62.0794C72.5938 62.3594 72.9858 62.7607 73.2751 63.2834C73.5738 63.8061 73.7231 64.4361 73.7231 65.1734V65.3554C73.7231 66.0834 73.5785 66.7134 73.2891 67.2454C72.9998 67.7774 72.6078 68.1834 72.1131 68.4634C71.6278 68.7434 71.0865 68.8834 70.4891 68.8834C70.0131 68.8834 69.6071 68.8181 69.2711 68.6874C68.9445 68.5661 68.6785 68.4074 68.4731 68.2114C68.2678 68.0154 68.1091 67.8147 67.9971 67.6094H67.8011V71.4874H66.6951ZM70.1951 67.9034C70.9045 67.9034 71.4785 67.6794 71.9171 67.2314C72.3651 66.7741 72.5891 66.1394 72.5891 65.3274V65.2014C72.5891 64.3894 72.3651 63.7594 71.9171 63.3114C71.4785 62.8541 70.9045 62.6254 70.1951 62.6254C69.4951 62.6254 68.9165 62.8541 68.4591 63.3114C68.0111 63.7594 67.7871 64.3894 67.7871 65.2014V65.3274C67.7871 66.1394 68.0111 66.7741 68.4591 67.2314C68.9165 67.6794 69.4951 67.9034 70.1951 67.9034ZM78.8409 68.8834C78.1502 68.8834 77.5436 68.7387 77.0209 68.4494C76.4982 68.1507 76.0922 67.7354 75.8029 67.2034C75.5136 66.6714 75.3689 66.0554 75.3689 65.3554V65.1874C75.3689 64.4781 75.5136 63.8574 75.8029 63.3254C76.0922 62.7934 76.4936 62.3827 77.0069 62.0934C77.5202 61.7947 78.1082 61.6454 78.7709 61.6454C79.4149 61.6454 79.9842 61.7854 80.4789 62.0654C80.9736 62.3361 81.3609 62.7281 81.6409 63.2414C81.9209 63.7547 82.0609 64.3567 82.0609 65.0474V65.5514H76.4749C76.5029 66.2887 76.7409 66.8674 77.1889 67.2874C77.6369 67.6981 78.1969 67.9034 78.8689 67.9034C79.4569 67.9034 79.9096 67.7681 80.2269 67.4974C80.5442 67.2267 80.7869 66.9047 80.9549 66.5314L81.9069 66.9934C81.7669 67.2827 81.5709 67.5721 81.3189 67.8614C81.0762 68.1507 80.7542 68.3934 80.3529 68.5894C79.9609 68.7854 79.4569 68.8834 78.8409 68.8834ZM76.4889 64.6414H80.9409C80.9036 64.0067 80.6842 63.5121 80.2829 63.1574C79.8909 62.8027 79.3869 62.6254 78.7709 62.6254C78.1456 62.6254 77.6322 62.8027 77.2309 63.1574C76.8296 63.5121 76.5822 64.0067 76.4889 64.6414ZM83.99 68.6874V61.8414H85.068V62.6814H85.264C85.3854 62.3827 85.572 62.1634 85.824 62.0234C86.076 61.8834 86.4074 61.8134 86.818 61.8134H87.63V62.8214H86.748C86.2534 62.8214 85.852 62.9614 85.544 63.2414C85.2454 63.5121 85.096 63.9367 85.096 64.5154V68.6874H83.99ZM91.8887 68.8834C91.0393 68.8834 90.3207 68.6874 89.7327 68.2954C89.154 67.9034 88.804 67.2827 88.6827 66.4334L89.7327 66.1954C89.8073 66.6434 89.9473 66.9981 90.1527 67.2594C90.358 67.5114 90.61 67.6934 90.9087 67.8054C91.2167 67.9081 91.5433 67.9594 91.8887 67.9594C92.402 67.9594 92.808 67.8567 93.1067 67.6514C93.4053 67.4461 93.5547 67.1707 93.5547 66.8254C93.5547 66.4707 93.41 66.2234 93.1207 66.0834C92.8407 65.9341 92.4533 65.8127 91.9587 65.7194L91.3847 65.6214C90.946 65.5467 90.5447 65.4301 90.1807 65.2714C89.8167 65.1127 89.5273 64.8981 89.3127 64.6274C89.098 64.3567 88.9907 64.0161 88.9907 63.6054C88.9907 62.9894 89.2287 62.5087 89.7047 62.1634C90.1807 61.8181 90.8107 61.6454 91.5947 61.6454C92.3693 61.6454 92.9947 61.8227 93.4707 62.1774C93.956 62.5227 94.2687 63.0127 94.4087 63.6474L93.3727 63.9134C93.2887 63.4187 93.088 63.0734 92.7707 62.8774C92.4533 62.6721 92.0613 62.5694 91.5947 62.5694C91.128 62.5694 90.7593 62.6581 90.4887 62.8354C90.218 63.0034 90.0827 63.2554 90.0827 63.5914C90.0827 63.9181 90.2087 64.1607 90.4607 64.3194C90.722 64.4687 91.0673 64.5807 91.4967 64.6554L92.0707 64.7534C92.556 64.8374 92.99 64.9541 93.3727 65.1034C93.7647 65.2434 94.0727 65.4487 94.2967 65.7194C94.53 65.9901 94.6467 66.3447 94.6467 66.7834C94.6467 67.4554 94.3947 67.9734 93.8907 68.3374C93.396 68.7014 92.7287 68.8834 91.8887 68.8834ZM98.8831 68.6874C98.4911 68.6874 98.1878 68.5801 97.9731 68.3654C97.7678 68.1507 97.6651 67.8567 97.6651 67.4834V62.8074H95.6071V61.8414H97.6651V59.4054H98.7711V61.8414H101.011V62.8074H98.7711V67.3154C98.7711 67.5954 98.9064 67.7354 99.1771 67.7354H100.703V68.6874H98.8831ZM104.862 68.8834C104.386 68.8834 103.952 68.7994 103.56 68.6314C103.168 68.4634 102.86 68.2207 102.636 67.9034C102.412 67.5861 102.3 67.1987 102.3 66.7414C102.3 66.2747 102.412 65.8921 102.636 65.5934C102.86 65.2854 103.168 65.0567 103.56 64.9074C103.952 64.7487 104.39 64.6694 104.876 64.6694H107.186V64.1654C107.186 63.6801 107.041 63.2974 106.752 63.0174C106.472 62.7374 106.052 62.5974 105.492 62.5974C104.941 62.5974 104.512 62.7327 104.204 63.0034C103.896 63.2647 103.686 63.6194 103.574 64.0674L102.538 63.7314C102.65 63.3487 102.827 63.0034 103.07 62.6954C103.312 62.3781 103.634 62.1261 104.036 61.9394C104.446 61.7434 104.936 61.6454 105.506 61.6454C106.383 61.6454 107.064 61.8741 107.55 62.3314C108.035 62.7794 108.278 63.4141 108.278 64.2354V67.3294C108.278 67.6094 108.408 67.7494 108.67 67.7494H109.3V68.6874H108.334C108.026 68.6874 107.778 68.6034 107.592 68.4354C107.405 68.2581 107.312 68.0247 107.312 67.7354V67.6654H107.144C107.041 67.8427 106.901 68.0294 106.724 68.2254C106.556 68.4121 106.322 68.5661 106.024 68.6874C105.725 68.8181 105.338 68.8834 104.862 68.8834ZM104.988 67.9314C105.641 67.9314 106.168 67.7401 106.57 67.3574C106.98 66.9654 107.186 66.4194 107.186 65.7194V65.5654H104.918C104.479 65.5654 104.115 65.6634 103.826 65.8594C103.546 66.0461 103.406 66.3307 103.406 66.7134C103.406 67.0961 103.55 67.3947 103.84 67.6094C104.138 67.8241 104.521 67.9314 104.988 67.9314ZM110.814 68.6874V61.8414H111.892V62.6814H112.088C112.21 62.3827 112.396 62.1634 112.648 62.0234C112.9 61.8834 113.232 61.8134 113.642 61.8134H114.454V62.8214H113.572C113.078 62.8214 112.676 62.9614 112.368 63.2414C112.07 63.5121 111.92 63.9367 111.92 64.5154V68.6874H110.814Z" fill="white"/>
<path d="M202.75 18.4165L206.833 22.4999M206.833 22.4999L202.75 26.5832M206.833 22.4999H197.5" stroke="white" stroke-width="1.5" stroke-linecap="round" stroke-linejoin="round"/>
<path d="M217.953 10.0002V0.200195H219.129V8.9362H224.085V10.0002H217.953ZM228.719 10.1962C228.029 10.1962 227.422 10.0515 226.899 9.7622C226.377 9.46353 225.971 9.0482 225.681 8.5162C225.392 7.9842 225.247 7.3682 225.247 6.6682V6.5002C225.247 5.79087 225.392 5.1702 225.681 4.6382C225.971 4.1062 226.372 3.69553 226.885 3.4062C227.399 3.10753 227.987 2.9582 228.649 2.9582C229.293 2.9582 229.863 3.0982 230.357 3.3782C230.852 3.64887 231.239 4.04087 231.519 4.5542C231.799 5.06753 231.939 5.66953 231.939 6.3602V6.8642H226.353C226.381 7.60153 226.619 8.1802 227.067 8.6002C227.515 9.01087 228.075 9.2162 228.747 9.2162C229.335 9.2162 229.788 9.08087 230.105 8.8102C230.423 8.53953 230.665 8.21753 230.833 7.8442L231.785 8.3062C231.645 8.59553 231.449 8.88487 231.197 9.1742C230.955 9.46353 230.633 9.7062 230.231 9.9022C229.839 10.0982 229.335 10.1962 228.719 10.1962ZM226.367 5.9542H230.819C230.782 5.31953 230.563 4.82487 230.161 4.4702C229.769 4.11553 229.265 3.9382 228.649 3.9382C228.024 3.9382 227.511 4.11553 227.109 4.4702C226.708 4.82487 226.461 5.31953 226.367 5.9542ZM233.533 6.6122V6.4162C233.533 5.69753 233.677 5.08153 233.967 4.5682C234.256 4.05487 234.648 3.6582 235.143 3.3782C235.637 3.0982 236.179 2.9582 236.767 2.9582C237.485 2.9582 238.036 3.0982 238.419 3.3782C238.811 3.64887 239.1 3.9522 239.287 4.2882H239.483V3.1542H240.533V11.5962C240.533 11.9695 240.43 12.2635 240.225 12.4782C240.019 12.6929 239.721 12.8002 239.329 12.8002H234.681V11.8202H239.035C239.315 11.8202 239.455 11.6802 239.455 11.4002V8.7962H239.259C239.147 9.00153 238.988 9.2022 238.783 9.3982C238.577 9.5942 238.311 9.75753 237.985 9.8882C237.658 10.0095 237.252 10.0702 236.767 10.0702C236.179 10.0702 235.637 9.9302 235.143 9.6502C234.648 9.3702 234.256 8.97353 233.967 8.4602C233.677 7.93753 233.533 7.32153 233.533 6.6122ZM237.061 9.0902C237.77 9.0902 238.344 8.8662 238.783 8.4182C239.231 7.9702 239.455 7.3542 239.455 6.5702V6.4582C239.455 5.66487 239.231 5.04887 238.783 4.6102C238.344 4.1622 237.77 3.9382 237.061 3.9382C236.361 3.9382 235.782 4.1622 235.325 4.6102C234.877 5.04887 234.653 5.66487 234.653 6.4582V6.5702C234.653 7.3542 234.877 7.9702 235.325 8.4182C235.782 8.8662 236.361 9.0902 237.061 9.0902ZM245.987 10.1962C245.296 10.1962 244.69 10.0515 244.167 9.7622C243.644 9.46353 243.238 9.0482 242.949 8.5162C242.66 7.9842 242.515 7.3682 242.515 6.6682V6.5002C242.515 5.79087 242.66 5.1702 242.949 4.6382C243.238 4.1062 243.64 3.69553 244.153 3.4062C244.666 3.10753 245.254 2.9582 245.917 2.9582C246.561 2.9582 247.13 3.0982 247.625 3.3782C248.12 3.64887 248.507 4.04087 248.787 4.5542C249.067 5.06753 249.207 5.66953 249.207 6.3602V6.8642H243.621C243.649 7.60153 243.887 8.1802 244.335 8.6002C244.783 9.01087 245.343 9.2162 246.015 9.2162C246.603 9.2162 247.056 9.08087 247.373 8.8102C247.69 8.53953 247.933 8.21753 248.101 7.8442L249.053 8.3062C248.913 8.59553 248.717 8.88487 248.465 9.1742C248.222 9.46353 247.9 9.7062 247.499 9.9022C247.107 10.0982 246.603 10.1962 245.987 10.1962ZM243.635 5.9542H248.087C248.05 5.31953 247.83 4.82487 247.429 4.4702C247.037 4.11553 246.533 3.9382 245.917 3.9382C245.292 3.9382 244.778 4.11553 244.377 4.4702C243.976 4.82487 243.728 5.31953 243.635 5.9542ZM251.136 10.0002V3.1542H252.214V4.3162H252.41C252.559 3.98953 252.811 3.69553 253.166 3.4342C253.53 3.16353 254.062 3.0282 254.762 3.0282C255.275 3.0282 255.733 3.13553 256.134 3.3502C256.545 3.56487 256.871 3.8822 257.114 4.3022C257.357 4.7222 257.478 5.2402 257.478 5.8562V10.0002H256.372V5.9402C256.372 5.25887 256.199 4.7642 255.854 4.4562C255.518 4.1482 255.061 3.9942 254.482 3.9942C253.819 3.9942 253.278 4.20887 252.858 4.6382C252.447 5.06753 252.242 5.70687 252.242 6.5562V10.0002H251.136ZM262.62 10.1962C262.032 10.1962 261.491 10.0562 260.996 9.7762C260.501 9.4962 260.109 9.0902 259.82 8.5582C259.531 8.0262 259.386 7.3962 259.386 6.6682V6.4862C259.386 5.7582 259.531 5.13287 259.82 4.6102C260.109 4.0782 260.497 3.6722 260.982 3.3922C261.477 3.10287 262.023 2.9582 262.62 2.9582C263.096 2.9582 263.497 3.02353 263.824 3.1542C264.16 3.27553 264.431 3.4342 264.636 3.6302C264.841 3.81687 265 4.01753 265.112 4.2322H265.308V0.200195H266.414V10.0002H265.336V8.8662H265.14C264.953 9.21153 264.664 9.51953 264.272 9.7902C263.88 10.0609 263.329 10.1962 262.62 10.1962ZM262.914 9.2162C263.623 9.2162 264.197 8.9922 264.636 8.5442C265.084 8.08687 265.308 7.4522 265.308 6.6402V6.5142C265.308 5.7022 265.084 5.0722 264.636 4.6242C264.197 4.16687 263.623 3.9382 262.914 3.9382C262.214 3.9382 261.635 4.16687 261.178 4.6242C260.73 5.0722 260.506 5.7022 260.506 6.5142V6.6402C260.506 7.4522 260.73 8.08687 261.178 8.5442C261.635 8.9922 262.214 9.2162 262.914 9.2162ZM270.832 10.1962C270.356 10.1962 269.922 10.1122 269.53 9.9442C269.138 9.7762 268.83 9.53353 268.606 9.2162C268.382 8.89887 268.27 8.51153 268.27 8.0542C268.27 7.58753 268.382 7.20487 268.606 6.9062C268.83 6.5982 269.138 6.36953 269.53 6.2202C269.922 6.06153 270.36 5.9822 270.846 5.9822H273.156V5.4782C273.156 4.99287 273.011 4.6102 272.722 4.3302C272.442 4.0502 272.022 3.9102 271.462 3.9102C270.911 3.9102 270.482 4.04553 270.174 4.3162C269.866 4.57753 269.656 4.9322 269.544 5.3802L268.508 5.0442C268.62 4.66153 268.797 4.3162 269.04 4.0082C269.282 3.69087 269.604 3.43887 270.006 3.2522C270.416 3.0562 270.906 2.9582 271.476 2.9582C272.353 2.9582 273.034 3.18687 273.52 3.6442C274.005 4.0922 274.248 4.72687 274.248 5.5482V8.6422C274.248 8.9222 274.378 9.0622 274.64 9.0622H275.27V10.0002H274.304C273.996 10.0002 273.748 9.9162 273.562 9.7482C273.375 9.57087 273.282 9.33753 273.282 9.0482V8.9782H273.114C273.011 9.15553 272.871 9.3422 272.694 9.5382C272.526 9.72487 272.292 9.87887 271.994 10.0002C271.695 10.1309 271.308 10.1962 270.832 10.1962ZM270.958 9.2442C271.611 9.2442 272.138 9.05287 272.54 8.6702C272.95 8.2782 273.156 7.7322 273.156 7.0322V6.8782H270.888C270.449 6.8782 270.085 6.9762 269.796 7.1722C269.516 7.35887 269.376 7.64353 269.376 8.0262C269.376 8.40887 269.52 8.70753 269.81 8.9222C270.108 9.13687 270.491 9.2442 270.958 9.2442ZM276.785 10.0002V3.1542H277.863V3.9942H278.059C278.18 3.69553 278.367 3.4762 278.619 3.3362C278.871 3.1962 279.202 3.1262 279.613 3.1262H280.425V4.1342H279.543C279.048 4.1342 278.647 4.2742 278.339 4.5542C278.04 4.82487 277.891 5.24953 277.891 5.8282V10.0002H276.785ZM282.888 12.8002V11.8202H286.808C287.079 11.8202 287.214 11.6802 287.214 11.4002V8.9082H287.018C286.925 9.1042 286.78 9.3002 286.584 9.4962C286.397 9.68287 286.15 9.83687 285.842 9.9582C285.534 10.0702 285.147 10.1262 284.68 10.1262C284.185 10.1262 283.728 10.0189 283.308 9.8042C282.897 9.58953 282.571 9.2722 282.328 8.8522C282.095 8.4322 281.978 7.91887 281.978 7.3122V3.1542H283.084V7.2282C283.084 7.9002 283.252 8.3902 283.588 8.6982C283.933 9.0062 284.395 9.1602 284.974 9.1602C285.627 9.1602 286.164 8.94553 286.584 8.5162C287.004 8.08687 287.214 7.44753 287.214 6.5982V3.1542H288.32V11.5962C288.32 11.9695 288.213 12.2635 287.998 12.4782C287.793 12.6929 287.489 12.8002 287.088 12.8002H282.888Z" fill="#C9C9C9" fill-opacity="0.6"/>
<path d="M221.215 28.1959C220.506 28.1959 219.871 28.0699 219.311 27.8179C218.751 27.5659 218.308 27.1879 217.981 26.6839C217.664 26.1706 217.505 25.5312 217.505 24.7659V24.4719H218.667V24.7659C218.667 25.5779 218.905 26.1846 219.381 26.5859C219.857 26.9779 220.469 27.1739 221.215 27.1739C221.981 27.1739 222.564 27.0012 222.965 26.6559C223.367 26.3106 223.567 25.8766 223.567 25.3539C223.567 24.9899 223.474 24.7006 223.287 24.4859C223.11 24.2712 222.858 24.0986 222.531 23.9679C222.205 23.8279 221.822 23.7066 221.383 23.6039L220.655 23.4219C220.086 23.2726 219.582 23.0906 219.143 22.8759C218.705 22.6612 218.359 22.3812 218.107 22.0359C217.865 21.6812 217.743 21.2286 217.743 20.6779C217.743 20.1272 217.879 19.6512 218.149 19.2499C218.429 18.8486 218.817 18.5406 219.311 18.3259C219.815 18.1112 220.394 18.0039 221.047 18.0039C221.71 18.0039 222.303 18.1206 222.825 18.3539C223.357 18.5779 223.773 18.9139 224.071 19.3619C224.379 19.8006 224.533 20.3559 224.533 21.0279V21.6159H223.371V21.0279C223.371 20.5519 223.269 20.1692 223.063 19.8799C222.867 19.5906 222.592 19.3759 222.237 19.2359C221.892 19.0959 221.495 19.0259 221.047 19.0259C220.403 19.0259 219.885 19.1706 219.493 19.4599C219.101 19.7399 218.905 20.1412 218.905 20.6639C218.905 21.0092 218.989 21.2892 219.157 21.5039C219.325 21.7186 219.563 21.8959 219.871 22.0359C220.179 22.1666 220.548 22.2832 220.977 22.3859L221.705 22.5679C222.275 22.6892 222.783 22.8572 223.231 23.0719C223.689 23.2772 224.053 23.5619 224.323 23.9259C224.594 24.2806 224.729 24.7472 224.729 25.3259C224.729 25.9046 224.585 26.4086 224.295 26.8379C224.006 27.2672 223.595 27.6032 223.063 27.8459C222.541 28.0792 221.925 28.1959 221.215 28.1959ZM229.199 28.1259C228.705 28.1259 228.247 28.0186 227.827 27.8039C227.417 27.5892 227.09 27.2719 226.847 26.8519C226.614 26.4226 226.497 25.9046 226.497 25.2979V21.1539H227.603V25.2139C227.603 25.8952 227.771 26.3899 228.107 26.6979C228.453 27.0059 228.915 27.1599 229.493 27.1599C230.147 27.1599 230.683 26.9452 231.103 26.5159C231.523 26.0866 231.733 25.4472 231.733 24.5979V21.1539H232.839V27.9999H231.761V26.8379H231.565C231.416 27.1646 231.159 27.4632 230.795 27.7339C230.431 27.9952 229.899 28.1259 229.199 28.1259ZM235.154 30.7999V21.1539H236.232V22.2879H236.428C236.605 21.9426 236.89 21.6346 237.282 21.3639C237.683 21.0932 238.238 20.9579 238.948 20.9579C239.536 20.9579 240.072 21.1026 240.558 21.3919C241.052 21.6719 241.444 22.0732 241.734 22.5959C242.032 23.1186 242.182 23.7486 242.182 24.4859V24.6679C242.182 25.3959 242.037 26.0259 241.748 26.5579C241.458 27.0899 241.066 27.4959 240.572 27.7759C240.086 28.0559 239.545 28.1959 238.948 28.1959C238.472 28.1959 238.066 28.1306 237.73 27.9999C237.403 27.8786 237.137 27.7199 236.932 27.5239C236.726 27.3279 236.568 27.1272 236.456 26.9219H236.26V30.7999H235.154ZM238.654 27.2159C239.363 27.2159 239.937 26.9919 240.376 26.5439C240.824 26.0866 241.048 25.4519 241.048 24.6399V24.5139C241.048 23.7019 240.824 23.0719 240.376 22.6239C239.937 22.1666 239.363 21.9379 238.654 21.9379C237.954 21.9379 237.375 22.1666 236.918 22.6239C236.47 23.0719 236.246 23.7019 236.246 24.5139V24.6399C236.246 25.4519 236.47 26.0866 236.918 26.5439C237.375 26.9919 237.954 27.2159 238.654 27.2159ZM247.299 28.1959C246.609 28.1959 246.002 28.0512 245.479 27.7619C244.957 27.4632 244.551 27.0479 244.261 26.5159C243.972 25.9839 243.827 25.3679 243.827 24.6679V24.4999C243.827 23.7906 243.972 23.1699 244.261 22.6379C244.551 22.1059 244.952 21.6952 245.465 21.4059C245.979 21.1072 246.567 20.9579 247.229 20.9579C247.873 20.9579 248.443 21.0979 248.937 21.3779C249.432 21.6486 249.819 22.0406 250.099 22.5539C250.379 23.0672 250.519 23.6692 250.519 24.3599V24.8639H244.933C244.961 25.6012 245.199 26.1799 245.647 26.5999C246.095 27.0106 246.655 27.2159 247.327 27.2159C247.915 27.2159 248.368 27.0806 248.685 26.8099C249.003 26.5392 249.245 26.2172 249.413 25.8439L250.365 26.3059C250.225 26.5952 250.029 26.8846 249.777 27.1739C249.535 27.4632 249.213 27.7059 248.811 27.9019C248.419 28.0979 247.915 28.1959 247.299 28.1959ZM244.947 23.9539H249.399C249.362 23.3192 249.143 22.8246 248.741 22.4699C248.349 22.1152 247.845 21.9379 247.229 21.9379C246.604 21.9379 246.091 22.1152 245.689 22.4699C245.288 22.8246 245.041 23.3192 244.947 23.9539ZM252.449 27.9999V21.1539H253.527V21.9939H253.723C253.844 21.6952 254.031 21.4759 254.283 21.3359C254.535 21.1959 254.866 21.1259 255.277 21.1259H256.089V22.1339H255.207C254.712 22.1339 254.311 22.2739 254.003 22.5539C253.704 22.8246 253.555 23.2492 253.555 23.8279V27.9999H252.449ZM260.347 28.1959C259.498 28.1959 258.779 27.9999 258.191 27.6079C257.613 27.2159 257.263 26.5952 257.141 25.7459L258.191 25.5079C258.266 25.9559 258.406 26.3106 258.611 26.5719C258.817 26.8239 259.069 27.0059 259.367 27.1179C259.675 27.2206 260.002 27.2719 260.347 27.2719C260.861 27.2719 261.267 27.1692 261.565 26.9639C261.864 26.7586 262.013 26.4832 262.013 26.1379C262.013 25.7832 261.869 25.5359 261.579 25.3959C261.299 25.2466 260.912 25.1252 260.417 25.0319L259.843 24.9339C259.405 24.8592 259.003 24.7426 258.639 24.5839C258.275 24.4252 257.986 24.2106 257.771 23.9399C257.557 23.6692 257.449 23.3286 257.449 22.9179C257.449 22.3019 257.687 21.8212 258.163 21.4759C258.639 21.1306 259.269 20.9579 260.053 20.9579C260.828 20.9579 261.453 21.1352 261.929 21.4899C262.415 21.8352 262.727 22.3252 262.867 22.9599L261.831 23.2259C261.747 22.7312 261.547 22.3859 261.229 22.1899C260.912 21.9846 260.52 21.8819 260.053 21.8819C259.587 21.8819 259.218 21.9706 258.947 22.1479C258.677 22.3159 258.541 22.5679 258.541 22.9039C258.541 23.2306 258.667 23.4732 258.919 23.6319C259.181 23.7812 259.526 23.8932 259.955 23.9679L260.529 24.0659C261.015 24.1499 261.449 24.2666 261.831 24.4159C262.223 24.5559 262.531 24.7612 262.755 25.0319C262.989 25.3026 263.105 25.6572 263.105 26.0959C263.105 26.7679 262.853 27.2859 262.349 27.6499C261.855 28.0139 261.187 28.1959 260.347 28.1959ZM267.342 27.9999C266.95 27.9999 266.646 27.8926 266.432 27.6779C266.226 27.4632 266.124 27.1692 266.124 26.7959V22.1199H264.066V21.1539H266.124V18.7179H267.23V21.1539H269.47V22.1199H267.23V26.6279C267.23 26.9079 267.365 27.0479 267.636 27.0479H269.162V27.9999H267.342ZM273.32 28.1959C272.844 28.1959 272.41 28.1119 272.018 27.9439C271.626 27.7759 271.318 27.5332 271.094 27.2159C270.87 26.8986 270.758 26.5112 270.758 26.0539C270.758 25.5872 270.87 25.2046 271.094 24.9059C271.318 24.5979 271.626 24.3692 272.018 24.2199C272.41 24.0612 272.849 23.9819 273.334 23.9819H275.644V23.4779C275.644 22.9926 275.499 22.6099 275.21 22.3299C274.93 22.0499 274.51 21.9099 273.95 21.9099C273.399 21.9099 272.97 22.0452 272.662 22.3159C272.354 22.5772 272.144 22.9319 272.032 23.3799L270.996 23.0439C271.108 22.6612 271.285 22.3159 271.528 22.0079C271.771 21.6906 272.093 21.4386 272.494 21.2519C272.905 21.0559 273.395 20.9579 273.964 20.9579C274.841 20.9579 275.523 21.1866 276.008 21.6439C276.493 22.0919 276.736 22.7266 276.736 23.5479V26.6419C276.736 26.9219 276.867 27.0619 277.128 27.0619H277.758V27.9999H276.792C276.484 27.9999 276.237 27.9159 276.05 27.7479C275.863 27.5706 275.77 27.3372 275.77 27.0479V26.9779H275.602C275.499 27.1552 275.359 27.3419 275.182 27.5379C275.014 27.7246 274.781 27.8786 274.482 27.9999C274.183 28.1306 273.796 28.1959 273.32 28.1959ZM273.446 27.2439C274.099 27.2439 274.627 27.0526 275.028 26.6699C275.439 26.2779 275.644 25.7319 275.644 25.0319V24.8779H273.376C272.937 24.8779 272.573 24.9759 272.284 25.1719C272.004 25.3586 271.864 25.6432 271.864 26.0259C271.864 26.4086 272.009 26.7072 272.298 26.9219C272.597 27.1366 272.979 27.2439 273.446 27.2439ZM279.273 27.9999V21.1539H280.351V21.9939H280.547C280.668 21.6952 280.855 21.4759 281.107 21.3359C281.359 21.1959 281.69 21.1259 282.101 21.1259H282.913V22.1339H282.031C281.536 22.1339 281.135 22.2739 280.827 22.5539C280.528 22.8246 280.379 23.2492 280.379 23.8279V27.9999H279.273Z" fill="white"/>
<path d="M217.855 46.0002V36.2002H220.697L222.839 44.9922H223.063L225.205 36.2002H228.047V46.0002H226.577V37.2642H226.353L224.225 46.0002H221.677L219.549 37.2642H219.325V46.0002H217.855ZM232.276 46.1962C231.781 46.1962 231.338 46.1122 230.946 45.9442C230.563 45.7762 230.255 45.5289 230.022 45.2022C229.798 44.8755 229.686 44.4789 229.686 44.0122C229.686 43.5362 229.798 43.1442 230.022 42.8362C230.255 42.5189 230.568 42.2809 230.96 42.1222C231.361 41.9635 231.814 41.8842 232.318 41.8842H234.418V41.4362C234.418 41.0349 234.296 40.7129 234.054 40.4702C233.811 40.2275 233.438 40.1062 232.934 40.1062C232.439 40.1062 232.061 40.2229 231.8 40.4562C231.538 40.6895 231.366 40.9929 231.282 41.3662L229.938 40.9322C230.05 40.5589 230.227 40.2229 230.47 39.9242C230.722 39.6162 231.053 39.3689 231.464 39.1822C231.874 38.9955 232.369 38.9022 232.948 38.9022C233.844 38.9022 234.548 39.1309 235.062 39.5882C235.575 40.0455 235.832 40.6942 235.832 41.5342V44.3762C235.832 44.6562 235.962 44.7962 236.224 44.7962H236.812V46.0002H235.734C235.407 46.0002 235.141 45.9162 234.936 45.7482C234.73 45.5802 234.628 45.3515 234.628 45.0622V45.0202H234.418C234.343 45.1602 234.231 45.3235 234.082 45.5102C233.932 45.6969 233.713 45.8602 233.424 46.0002C233.134 46.1309 232.752 46.1962 232.276 46.1962ZM232.486 45.0062C233.064 45.0062 233.531 44.8429 233.886 44.5162C234.24 44.1802 234.418 43.7229 234.418 43.1442V43.0042H232.402C232.019 43.0042 231.711 43.0882 231.478 43.2562C231.244 43.4149 231.128 43.6529 231.128 43.9702C231.128 44.2875 231.249 44.5395 231.492 44.7262C231.734 44.9129 232.066 45.0062 232.486 45.0062ZM238.214 46.0002V39.0982H239.656V46.0002H238.214ZM238.942 38.1602C238.662 38.1602 238.424 38.0715 238.228 37.8942C238.041 37.7075 237.948 37.4695 237.948 37.1802C237.948 36.8909 238.041 36.6575 238.228 36.4802C238.424 36.2935 238.662 36.2002 238.942 36.2002C239.231 36.2002 239.469 36.2935 239.656 36.4802C239.843 36.6575 239.936 36.8909 239.936 37.1802C239.936 37.4695 239.843 37.7075 239.656 37.8942C239.469 38.0715 239.231 38.1602 238.942 38.1602ZM241.796 46.0002V39.0982H243.21V40.1342H243.434C243.565 39.8542 243.798 39.5929 244.134 39.3502C244.47 39.1075 244.969 38.9862 245.632 38.9862C246.155 38.9862 246.617 39.1029 247.018 39.3362C247.429 39.5695 247.751 39.9009 247.984 40.3302C248.217 40.7502 248.334 41.2589 248.334 41.8562V46.0002H246.892V41.9682C246.892 41.3709 246.743 40.9322 246.444 40.6522C246.145 40.3629 245.735 40.2182 245.212 40.2182C244.615 40.2182 244.134 40.4142 243.77 40.8062C243.415 41.1982 243.238 41.7675 243.238 42.5142V46.0002H241.796ZM253.237 46.1962C252.36 46.1962 251.632 46.0002 251.053 45.6082C250.475 45.2162 250.12 44.6235 249.989 43.8302L251.333 43.5082C251.408 43.8909 251.534 44.1942 251.711 44.4182C251.889 44.6422 252.108 44.8009 252.369 44.8942C252.64 44.9875 252.929 45.0342 253.237 45.0342C253.695 45.0342 254.045 44.9455 254.287 44.7682C254.539 44.5909 254.665 44.3622 254.665 44.0822C254.665 43.8022 254.549 43.5969 254.315 43.4662C254.082 43.3355 253.737 43.2282 253.279 43.1442L252.803 43.0602C252.337 42.9762 251.912 42.8549 251.529 42.6962C251.147 42.5375 250.843 42.3182 250.619 42.0382C250.395 41.7582 250.283 41.3989 250.283 40.9602C250.283 40.3069 250.526 39.8029 251.011 39.4482C251.497 39.0842 252.141 38.9022 252.943 38.9022C253.718 38.9022 254.353 39.0795 254.847 39.4342C255.351 39.7795 255.678 40.2509 255.827 40.8482L254.483 41.2262C254.399 40.8062 254.222 40.5122 253.951 40.3442C253.681 40.1669 253.345 40.0782 252.943 40.0782C252.551 40.0782 252.243 40.1529 252.019 40.3022C251.795 40.4422 251.683 40.6429 251.683 40.9042C251.683 41.1842 251.791 41.3895 252.005 41.5202C252.229 41.6509 252.528 41.7489 252.901 41.8142L253.391 41.8982C253.886 41.9822 254.339 42.0989 254.749 42.2482C255.16 42.3975 255.482 42.6122 255.715 42.8922C255.958 43.1722 256.079 43.5455 256.079 44.0122C256.079 44.7029 255.823 45.2395 255.309 45.6222C254.796 46.0049 254.105 46.1962 253.237 46.1962ZM260.204 46.0002C259.784 46.0002 259.448 45.8742 259.196 45.6222C258.954 45.3702 258.832 45.0342 258.832 44.6142V40.3162H256.928V39.0982H258.832V36.8162H260.274V39.0982H262.332V40.3162H260.274V44.3622C260.274 44.6422 260.405 44.7822 260.666 44.7822H262.108V46.0002H260.204ZM264.026 46.0002V39.0982H265.44V39.9102H265.664C265.776 39.6209 265.954 39.4109 266.196 39.2802C266.448 39.1402 266.756 39.0702 267.12 39.0702H267.946V40.3722H267.064C266.598 40.3722 266.215 40.5029 265.916 40.7642C265.618 41.0162 265.468 41.4082 265.468 41.9402V46.0002H264.026ZM272.358 46.1962C271.658 46.1962 271.047 46.0515 270.524 45.7622C270.002 45.4635 269.591 45.0482 269.292 44.5162C269.003 43.9749 268.858 43.3495 268.858 42.6402V42.4722C268.858 41.7535 269.003 41.1282 269.292 40.5962C269.582 40.0549 269.983 39.6395 270.496 39.3502C271.019 39.0515 271.621 38.9022 272.302 38.9022C272.965 38.9022 273.544 39.0515 274.038 39.3502C274.542 39.6395 274.934 40.0455 275.214 40.5682C275.494 41.0909 275.634 41.7022 275.634 42.4022V42.9482H270.328C270.347 43.5549 270.548 44.0402 270.93 44.4042C271.322 44.7589 271.808 44.9362 272.386 44.9362C272.928 44.9362 273.334 44.8149 273.604 44.5722C273.884 44.3295 274.099 44.0495 274.248 43.7322L275.438 44.3482C275.308 44.6095 275.116 44.8849 274.864 45.1742C274.622 45.4635 274.3 45.7062 273.898 45.9022C273.497 46.0982 272.984 46.1962 272.358 46.1962ZM270.342 41.8422H274.164C274.127 41.3195 273.94 40.9135 273.604 40.6242C273.268 40.3255 272.83 40.1762 272.288 40.1762C271.747 40.1762 271.304 40.3255 270.958 40.6242C270.622 40.9135 270.417 41.3195 270.342 41.8422ZM279.512 46.1962C279.017 46.1962 278.574 46.1122 278.182 45.9442C277.799 45.7762 277.491 45.5289 277.258 45.2022C277.034 44.8755 276.922 44.4789 276.922 44.0122C276.922 43.5362 277.034 43.1442 277.258 42.8362C277.491 42.5189 277.804 42.2809 278.196 42.1222C278.597 41.9635 279.05 41.8842 279.554 41.8842H281.654V41.4362C281.654 41.0349 281.533 40.7129 281.29 40.4702C281.047 40.2275 280.674 40.1062 280.17 40.1062C279.675 40.1062 279.297 40.2229 279.036 40.4562C278.775 40.6895 278.602 40.9929 278.518 41.3662L277.174 40.9322C277.286 40.5589 277.463 40.2229 277.706 39.9242C277.958 39.6162 278.289 39.3689 278.7 39.1822C279.111 38.9955 279.605 38.9022 280.184 38.9022C281.08 38.9022 281.785 39.1309 282.298 39.5882C282.811 40.0455 283.068 40.6942 283.068 41.5342V44.3762C283.068 44.6562 283.199 44.7962 283.46 44.7962H284.048V46.0002H282.97C282.643 46.0002 282.377 45.9162 282.172 45.7482C281.967 45.5802 281.864 45.3515 281.864 45.0622V45.0202H281.654C281.579 45.1602 281.467 45.3235 281.318 45.5102C281.169 45.6969 280.949 45.8602 280.66 46.0002C280.371 46.1309 279.988 46.1962 279.512 46.1962ZM279.722 45.0062C280.301 45.0062 280.767 44.8429 281.122 44.5162C281.477 44.1802 281.654 43.7229 281.654 43.1442V43.0042H279.638C279.255 43.0042 278.947 43.0882 278.714 43.2562C278.481 43.4149 278.364 43.6529 278.364 43.9702C278.364 44.2875 278.485 44.5395 278.728 44.7262C278.971 44.9129 279.302 45.0062 279.722 45.0062ZM285.45 46.0002V39.0982H286.864V39.9102H287.088C287.219 39.6675 287.429 39.4529 287.718 39.2662C288.008 39.0795 288.4 38.9862 288.894 38.9862C289.408 38.9862 289.818 39.0935 290.126 39.3082C290.444 39.5135 290.682 39.7795 290.84 40.1062H291.064C291.223 39.7889 291.452 39.5229 291.75 39.3082C292.058 39.0935 292.492 38.9862 293.052 38.9862C293.5 38.9862 293.897 39.0795 294.242 39.2662C294.588 39.4435 294.863 39.7142 295.068 40.0782C295.274 40.4329 295.376 40.8762 295.376 41.4082V46.0002H293.934V41.5202C293.934 41.1002 293.818 40.7782 293.584 40.5542C293.36 40.3209 293.038 40.2042 292.618 40.2042C292.17 40.2042 291.811 40.3489 291.54 40.6382C291.27 40.9275 291.134 41.3429 291.134 41.8842V46.0002H289.692V41.5202C289.692 41.1002 289.576 40.7782 289.342 40.5542C289.118 40.3209 288.796 40.2042 288.376 40.2042C287.928 40.2042 287.569 40.3489 287.298 40.6382C287.028 40.9275 286.892 41.3429 286.892 41.8842V46.0002H285.45Z" fill="#C9C9C9" fill-opacity="0.6"/>
<path d="M217.953 64.0002V54.2002H220.193L222.797 63.2582H222.979L225.583 54.2002H227.823V64.0002H226.689V54.9702H226.493L223.903 64.0002H221.873L219.283 54.9702H219.087V64.0002H217.953ZM230.109 64.0002V57.1542H231.215V64.0002H230.109ZM230.669 56.0902C230.426 56.0902 230.221 56.0109 230.053 55.8522C229.894 55.6935 229.815 55.4929 229.815 55.2502C229.815 54.9982 229.894 54.7929 230.053 54.6342C230.221 54.4755 230.426 54.3962 230.669 54.3962C230.911 54.3962 231.112 54.4755 231.271 54.6342C231.429 54.7929 231.509 54.9982 231.509 55.2502C231.509 55.4929 231.429 55.6935 231.271 55.8522C231.112 56.0109 230.911 56.0902 230.669 56.0902ZM236.438 64.1962C235.85 64.1962 235.309 64.0562 234.814 63.7762C234.32 63.4962 233.928 63.0902 233.638 62.5582C233.349 62.0262 233.204 61.3962 233.204 60.6682V60.4862C233.204 59.7582 233.349 59.1329 233.638 58.6102C233.928 58.0782 234.315 57.6722 234.8 57.3922C235.295 57.1029 235.841 56.9582 236.438 56.9582C236.914 56.9582 237.316 57.0235 237.642 57.1542C237.978 57.2755 238.249 57.4342 238.454 57.6302C238.66 57.8169 238.818 58.0175 238.93 58.2322H239.126V54.2002H240.232V64.0002H239.154V62.8662H238.958C238.772 63.2115 238.482 63.5195 238.09 63.7902C237.698 64.0609 237.148 64.1962 236.438 64.1962ZM236.732 63.2162C237.442 63.2162 238.016 62.9922 238.454 62.5442C238.902 62.0869 239.126 61.4522 239.126 60.6402V60.5142C239.126 59.7022 238.902 59.0722 238.454 58.6242C238.016 58.1669 237.442 57.9382 236.732 57.9382C236.032 57.9382 235.454 58.1669 234.996 58.6242C234.548 59.0722 234.324 59.7022 234.324 60.5142V60.6402C234.324 61.4522 234.548 62.0869 234.996 62.5442C235.454 62.9922 236.032 63.2162 236.732 63.2162ZM242.494 60.9062V59.8842H246.638V60.9062H242.494ZM248.921 64.0002V54.2002H250.027V64.0002H248.921ZM255.489 64.1962C254.798 64.1962 254.192 64.0515 253.669 63.7622C253.146 63.4635 252.74 63.0482 252.451 62.5162C252.162 61.9842 252.017 61.3682 252.017 60.6682V60.5002C252.017 59.7909 252.162 59.1702 252.451 58.6382C252.74 58.1062 253.142 57.6955 253.655 57.4062C254.168 57.1075 254.756 56.9582 255.419 56.9582C256.063 56.9582 256.632 57.0982 257.127 57.3782C257.622 57.6489 258.009 58.0409 258.289 58.5542C258.569 59.0675 258.709 59.6695 258.709 60.3602V60.8642H253.123C253.151 61.6015 253.389 62.1802 253.837 62.6002C254.285 63.0109 254.845 63.2162 255.517 63.2162C256.105 63.2162 256.558 63.0809 256.875 62.8102C257.192 62.5395 257.435 62.2175 257.603 61.8442L258.555 62.3062C258.415 62.5955 258.219 62.8849 257.967 63.1742C257.724 63.4635 257.402 63.7062 257.001 63.9022C256.609 64.0982 256.105 64.1962 255.489 64.1962ZM253.137 59.9542H257.589C257.552 59.3195 257.332 58.8249 256.931 58.4702C256.539 58.1155 256.035 57.9382 255.419 57.9382C254.794 57.9382 254.28 58.1155 253.879 58.4702C253.478 58.8249 253.23 59.3195 253.137 59.9542ZM262.087 64.0002L259.637 57.1542H260.813L262.871 63.1742H263.067L265.125 57.1542H266.301L263.851 64.0002H262.087ZM270.747 64.1962C270.056 64.1962 269.449 64.0515 268.927 63.7622C268.404 63.4635 267.998 63.0482 267.709 62.5162C267.419 61.9842 267.275 61.3682 267.275 60.6682V60.5002C267.275 59.7909 267.419 59.1702 267.709 58.6382C267.998 58.1062 268.399 57.6955 268.913 57.4062C269.426 57.1075 270.014 56.9582 270.677 56.9582C271.321 56.9582 271.89 57.0982 272.385 57.3782C272.879 57.6489 273.267 58.0409 273.547 58.5542C273.827 59.0675 273.967 59.6695 273.967 60.3602V60.8642H268.381C268.409 61.6015 268.647 62.1802 269.095 62.6002C269.543 63.0109 270.103 63.2162 270.775 63.2162C271.363 63.2162 271.815 63.0809 272.133 62.8102C272.45 62.5395 272.693 62.2175 272.861 61.8442L273.813 62.3062C273.673 62.5955 273.477 62.8849 273.225 63.1742C272.982 63.4635 272.66 63.7062 272.259 63.9022C271.867 64.0982 271.363 64.1962 270.747 64.1962ZM268.395 59.9542H272.847C272.809 59.3195 272.59 58.8249 272.189 58.4702C271.797 58.1155 271.293 57.9382 270.677 57.9382C270.051 57.9382 269.538 58.1155 269.137 58.4702C268.735 58.8249 268.488 59.3195 268.395 59.9542ZM275.896 64.0002V54.2002H277.002V64.0002H275.896Z" fill="#C9C9C9" fill-opacity="0.6"/>
<path d="M217.491 82.0002V80.9502H218.863V73.2502H217.491V72.2002H221.313C222.601 72.2002 223.595 72.5269 224.295 73.1802C225.005 73.8335 225.359 74.8369 225.359 76.1902V78.0102C225.359 79.3729 225.005 80.3809 224.295 81.0342C223.595 81.6782 222.601 82.0002 221.313 82.0002H217.491ZM220.039 80.9362H221.313C222.265 80.9362 222.984 80.7029 223.469 80.2362C223.955 79.7695 224.197 79.0462 224.197 78.0662V76.1482C224.197 75.1495 223.955 74.4215 223.469 73.9642C222.984 73.5069 222.265 73.2782 221.313 73.2782H220.039V80.9362ZM230.415 82.1962C229.724 82.1962 229.117 82.0515 228.595 81.7622C228.072 81.4635 227.666 81.0482 227.377 80.5162C227.087 79.9842 226.943 79.3682 226.943 78.6682V78.5002C226.943 77.7909 227.087 77.1702 227.377 76.6382C227.666 76.1062 228.067 75.6955 228.581 75.4062C229.094 75.1075 229.682 74.9582 230.345 74.9582C230.989 74.9582 231.558 75.0982 232.053 75.3782C232.547 75.6489 232.935 76.0409 233.215 76.5542C233.495 77.0675 233.635 77.6695 233.635 78.3602V78.8642H228.049C228.077 79.6015 228.315 80.1802 228.763 80.6002C229.211 81.0109 229.771 81.2162 230.443 81.2162C231.031 81.2162 231.483 81.0809 231.801 80.8102C232.118 80.5395 232.361 80.2175 232.529 79.8442L233.481 80.3062C233.341 80.5955 233.145 80.8849 232.893 81.1742C232.65 81.4635 232.328 81.7062 231.927 81.9022C231.535 82.0982 231.031 82.1962 230.415 82.1962ZM228.063 77.9542H232.515C232.477 77.3195 232.258 76.8249 231.857 76.4702C231.465 76.1155 230.961 75.9382 230.345 75.9382C229.719 75.9382 229.206 76.1155 228.805 76.4702C228.403 76.8249 228.156 77.3195 228.063 77.9542ZM237.013 82.0002L234.563 75.1542H235.739L237.797 81.1742H237.993L240.051 75.1542H241.227L238.777 82.0002H237.013ZM245.673 82.1962C244.982 82.1962 244.375 82.0515 243.853 81.7622C243.33 81.4635 242.924 81.0482 242.635 80.5162C242.345 79.9842 242.201 79.3682 242.201 78.6682V78.5002C242.201 77.7909 242.345 77.1702 242.635 76.6382C242.924 76.1062 243.325 75.6955 243.839 75.4062C244.352 75.1075 244.94 74.9582 245.603 74.9582C246.247 74.9582 246.816 75.0982 247.311 75.3782C247.805 75.6489 248.193 76.0409 248.473 76.5542C248.753 77.0675 248.893 77.6695 248.893 78.3602V78.8642H243.307C243.335 79.6015 243.573 80.1802 244.021 80.6002C244.469 81.0109 245.029 81.2162 245.701 81.2162C246.289 81.2162 246.741 81.0809 247.059 80.8102C247.376 80.5395 247.619 80.2175 247.787 79.8442L248.739 80.3062C248.599 80.5955 248.403 80.8849 248.151 81.1742C247.908 81.4635 247.586 81.7062 247.185 81.9022C246.793 82.0982 246.289 82.1962 245.673 82.1962ZM243.321 77.9542H247.773C247.735 77.3195 247.516 76.8249 247.115 76.4702C246.723 76.1155 246.219 75.9382 245.603 75.9382C244.977 75.9382 244.464 76.1155 244.063 76.4702C243.661 76.8249 243.414 77.3195 243.321 77.9542ZM250.822 82.0002V72.2002H251.928V82.0002H250.822ZM257.417 82.1962C256.727 82.1962 256.115 82.0515 255.583 81.7622C255.061 81.4729 254.65 81.0669 254.351 80.5442C254.062 80.0122 253.917 79.3869 253.917 78.6682V78.4862C253.917 77.7769 254.062 77.1562 254.351 76.6242C254.65 76.0922 255.061 75.6815 255.583 75.3922C256.115 75.1029 256.727 74.9582 257.417 74.9582C258.108 74.9582 258.715 75.1029 259.237 75.3922C259.769 75.6815 260.18 76.0922 260.469 76.6242C260.768 77.1562 260.917 77.7769 260.917 78.4862V78.6682C260.917 79.3869 260.768 80.0122 260.469 80.5442C260.18 81.0669 259.769 81.4729 259.237 81.7622C258.715 82.0515 258.108 82.1962 257.417 82.1962ZM257.417 81.2022C258.145 81.2022 258.724 80.9735 259.153 80.5162C259.592 80.0495 259.811 79.4242 259.811 78.6402V78.5142C259.811 77.7302 259.592 77.1095 259.153 76.6522C258.724 76.1855 258.145 75.9522 257.417 75.9522C256.699 75.9522 256.12 76.1855 255.681 76.6522C255.243 77.1095 255.023 77.7302 255.023 78.5142V78.6402C255.023 79.4242 255.243 80.0495 255.681 80.5162C256.12 80.9735 256.699 81.2022 257.417 81.2022ZM262.908 84.8002V75.1542H263.986V76.2882H264.182C264.359 75.9429 264.644 75.6349 265.036 75.3642C265.437 75.0935 265.992 74.9582 266.702 74.9582C267.29 74.9582 267.826 75.1029 268.312 75.3922C268.806 75.6722 269.198 76.0735 269.488 76.5962C269.786 77.1189 269.936 77.7489 269.936 78.4862V78.6682C269.936 79.3962 269.791 80.0262 269.502 80.5582C269.212 81.0902 268.82 81.4962 268.326 81.7762C267.84 82.0562 267.299 82.1962 266.702 82.1962C266.226 82.1962 265.82 82.1309 265.484 82.0002C265.157 81.8789 264.891 81.7202 264.686 81.5242C264.48 81.3282 264.322 81.1275 264.21 80.9222H264.014V84.8002H262.908ZM266.408 81.2162C267.117 81.2162 267.691 80.9922 268.13 80.5442C268.578 80.0869 268.802 79.4522 268.802 78.6402V78.5142C268.802 77.7022 268.578 77.0722 268.13 76.6242C267.691 76.1669 267.117 75.9382 266.408 75.9382C265.708 75.9382 265.129 76.1669 264.672 76.6242C264.224 77.0722 264 77.7022 264 78.5142V78.6402C264 79.4522 264.224 80.0869 264.672 80.5442C265.129 80.9922 265.708 81.2162 266.408 81.2162ZM271.917 82.0002V75.1542H273.023V82.0002H271.917ZM272.477 74.0902C272.235 74.0902 272.029 74.0109 271.861 73.8522C271.703 73.6935 271.623 73.4929 271.623 73.2502C271.623 72.9982 271.703 72.7929 271.861 72.6342C272.029 72.4755 272.235 72.3962 272.477 72.3962C272.72 72.3962 272.921 72.4755 273.079 72.6342C273.238 72.7929 273.317 72.9982 273.317 73.2502C273.317 73.4929 273.238 73.6935 273.079 73.8522C272.921 74.0109 272.72 74.0902 272.477 74.0902ZM275.349 82.0002V75.1542H276.427V76.3162H276.623C276.772 75.9895 277.024 75.6955 277.379 75.4342C277.743 75.1635 278.275 75.0282 278.975 75.0282C279.488 75.0282 279.946 75.1355 280.347 75.3502C280.758 75.5649 281.084 75.8822 281.327 76.3022C281.57 76.7222 281.691 77.2402 281.691 77.8562V82.0002H280.585V77.9402C280.585 77.2589 280.412 76.7642 280.067 76.4562C279.731 76.1482 279.274 75.9942 278.695 75.9942C278.032 75.9942 277.491 76.2089 277.071 76.6382C276.66 77.0675 276.455 77.7069 276.455 78.5562V82.0002H275.349ZM283.599 78.6122V78.4162C283.599 77.6975 283.744 77.0815 284.033 76.5682C284.322 76.0549 284.714 75.6582 285.209 75.3782C285.704 75.0982 286.245 74.9582 286.833 74.9582C287.552 74.9582 288.102 75.0982 288.485 75.3782C288.877 75.6489 289.166 75.9522 289.353 76.2882H289.549V75.1542H290.599V83.5962C290.599 83.9695 290.496 84.2635 290.291 84.4782C290.086 84.6929 289.787 84.8002 289.395 84.8002H284.747V83.8202H289.101C289.381 83.8202 289.521 83.6802 289.521 83.4002V80.7962H289.325C289.213 81.0015 289.054 81.2022 288.849 81.3982C288.644 81.5942 288.378 81.7575 288.051 81.8882C287.724 82.0095 287.318 82.0702 286.833 82.0702C286.245 82.0702 285.704 81.9302 285.209 81.6502C284.714 81.3702 284.322 80.9735 284.033 80.4602C283.744 79.9375 283.599 79.3215 283.599 78.6122ZM287.127 81.0902C287.836 81.0902 288.41 80.8662 288.849 80.4182C289.297 79.9702 289.521 79.3542 289.521 78.5702V78.4582C289.521 77.6649 289.297 77.0489 288.849 76.6102C288.41 76.1622 287.836 75.9382 287.127 75.9382C286.427 75.9382 285.848 76.1622 285.391 76.6102C284.943 77.0489 284.719 77.6649 284.719 78.4582V78.5702C284.719 79.3542 284.943 79.9702 285.391 80.4182C285.848 80.8662 286.427 81.0902 287.127 81.0902Z" fill="#C9C9C9" fill-opacity="0.6"/>
</svg>
