<svg width="25" height="24" viewBox="0 0 25 24" fill="none" xmlns="http://www.w3.org/2000/svg">
<path d="M12.8333 3.80182C15.5033 3.80182 15.8197 3.81182 16.8742 3.86C17.5082 3.86766 18.1361 3.9842 18.7306 4.20455C19.165 4.36486 19.558 4.62053 19.8806 4.95273C20.2128 5.27533 20.4685 5.6683 20.6288 6.10273C20.8491 6.69721 20.9657 7.32513 20.9733 7.95909C21.0215 9.01364 21.0315 9.33 21.0315 12C21.0315 14.67 21.0215 14.9864 20.9733 16.0409C20.9657 16.6749 20.8491 17.3028 20.6288 17.8973C20.4624 18.3286 20.2075 18.7204 19.8806 19.0473C19.5537 19.3742 19.1619 19.6291 18.7306 19.7955C18.1361 20.0158 17.5082 20.1323 16.8742 20.14C15.8197 20.1882 15.5033 20.1982 12.8333 20.1982C10.1633 20.1982 9.84695 20.1882 8.7924 20.14C8.15814 20.1324 7.5299 20.0159 6.93513 19.7955C6.50103 19.635 6.10838 19.3794 5.78604 19.0473C5.45384 18.7247 5.19818 18.3317 5.03786 17.8973C4.81751 17.3028 4.70097 16.6749 4.69331 16.0409C4.64513 14.9864 4.63513 14.67 4.63513 12C4.63513 9.33 4.64513 9.01364 4.69331 7.95909C4.70097 7.32513 4.81751 6.69721 5.03786 6.10273C5.19818 5.6683 5.45384 5.27533 5.78604 4.95273C6.10864 4.62053 6.50161 4.36486 6.93604 4.20455C7.53052 3.9842 8.15845 3.86766 8.7924 3.86C9.84695 3.81182 10.1633 3.80182 12.8333 3.80182ZM12.8333 2C10.1179 2 9.77695 2.01182 8.71059 2.06C7.88105 2.07655 7.06033 2.23362 6.28331 2.52455C5.61574 2.77589 5.01106 3.16991 4.51149 3.67909C4.00275 4.17848 3.60905 4.78283 3.35786 5.45C3.06725 6.22707 2.91048 7.04779 2.89422 7.87727C2.84422 8.94364 2.83331 9.28455 2.83331 12C2.83331 14.7155 2.84513 15.0564 2.89331 16.1227C2.90986 16.9523 3.06694 17.773 3.35786 18.55C3.6092 19.2176 4.00322 19.8223 4.5124 20.3218C5.01179 20.8306 5.61614 21.2243 6.28331 21.4755C7.06039 21.7661 7.88111 21.9228 8.71059 21.9391C9.77695 21.9891 10.1179 22 12.8333 22C15.5488 22 15.8897 21.9882 16.956 21.94C17.7856 21.9235 18.6063 21.7664 19.3833 21.4755C20.0478 21.2185 20.6513 20.8256 21.1551 20.3218C21.6589 19.818 22.0518 19.2145 22.3088 18.55C22.5994 17.7729 22.7561 16.9522 22.7724 16.1227C22.8224 15.0564 22.8333 14.7155 22.8333 12C22.8333 9.28455 22.8215 8.94364 22.7733 7.87727C22.7568 7.04774 22.5997 6.22702 22.3088 5.45C22.0574 4.78242 21.6634 4.17775 21.1542 3.67818C20.6548 3.16944 20.0505 2.77574 19.3833 2.52455C18.6062 2.23393 17.7855 2.07717 16.956 2.06091C15.8897 2.01091 15.5488 2 12.8333 2ZM12.8333 6.86455C11.8176 6.86455 10.8247 7.16573 9.98021 7.73003C9.13569 8.29432 8.47746 9.09637 8.08877 10.0347C7.70008 10.9731 7.59838 12.0057 7.79654 13.0019C7.99469 13.9981 8.48379 14.9131 9.202 15.6313C9.92021 16.3495 10.8353 16.8386 11.8314 17.0368C12.8276 17.2349 13.8602 17.1332 14.7986 16.7445C15.7369 16.3559 16.539 15.6976 17.1033 14.8531C17.6676 14.0086 17.9688 13.0157 17.9688 12C17.9688 10.638 17.4277 9.33177 16.4646 8.36869C15.5015 7.4056 14.1953 6.86455 12.8333 6.86455ZM12.8333 15.3336C12.174 15.3336 11.5295 15.1381 10.9812 14.7718C10.433 14.4055 10.0058 13.8849 9.75344 13.2757C9.50112 12.6666 9.4351 11.9963 9.56373 11.3496C9.69236 10.703 10.0099 10.109 10.4761 9.64276C10.9423 9.17655 11.5363 8.85905 12.183 8.73042C12.8296 8.60179 13.4999 8.66781 14.109 8.92012C14.7182 9.17244 15.2388 9.59972 15.6051 10.1479C15.9714 10.6961 16.167 11.3407 16.167 12C16.167 12.8841 15.8157 13.7321 15.1906 14.3572C14.5654 14.9824 13.7174 15.3336 12.8333 15.3336ZM18.1715 5.46182C17.9342 5.46182 17.7021 5.5322 17.5048 5.66405C17.3075 5.79591 17.1537 5.98333 17.0628 6.2026C16.972 6.42187 16.9483 6.66315 16.9946 6.89593C17.0409 7.1287 17.1551 7.34252 17.323 7.51035C17.4908 7.67817 17.7046 7.79246 17.9374 7.83876C18.1702 7.88506 18.4114 7.8613 18.6307 7.77047C18.85 7.67965 19.0374 7.52584 19.1693 7.3285C19.3011 7.13116 19.3715 6.89916 19.3715 6.66182C19.3715 6.34356 19.2451 6.03833 19.02 5.81329C18.795 5.58825 18.4898 5.46182 18.1715 5.46182Z" fill="white" fill-opacity="0.5"/>
</svg>
