<svg width="25" height="24" viewBox="0 0 25 24" fill="none" xmlns="http://www.w3.org/2000/svg">
<g clip-path="url(#clip0_4157_18971)">
<path d="M13.4972 7.44243C13.2746 7.52821 13.2151 7.61729 13.2132 7.78932V17.1583C13.2179 17.3388 13.3557 17.4892 13.5319 17.5071C13.5394 17.5075 21.6621 17.5117 21.7146 17.5117C22.4974 17.5115 23.2481 17.2004 23.8017 16.6468C24.3553 16.0932 24.6664 15.3425 24.6666 14.5597C24.6665 14.0732 24.5461 13.5943 24.3163 13.1655C24.0864 12.7367 23.7542 12.3714 23.3491 12.102C22.9441 11.8325 22.4787 11.6673 21.9944 11.6211C21.5101 11.5748 21.0219 11.6489 20.5732 11.8368C20.3388 9.17674 18.1077 7.08948 15.3862 7.08948C14.7206 7.08948 14.0714 7.22074 13.4981 7.44292M12.2856 8.10616L12.152 14.7561L12.2856 17.17C12.2903 17.3463 12.4337 17.4916 12.6109 17.4916C12.6966 17.4907 12.7786 17.4564 12.8393 17.3958C12.9 17.3353 12.9346 17.2534 12.9357 17.1677V17.17L13.081 14.7561L12.9357 8.10571C12.931 7.92759 12.7876 7.78228 12.6109 7.78228C12.5249 7.78301 12.4427 7.81746 12.3818 7.87821C12.321 7.93895 12.2864 8.02114 12.2856 8.10711M11.2979 8.65926L11.1836 14.7542C11.1836 14.7589 11.2979 17.2047 11.2979 17.2047C11.2999 17.2847 11.3327 17.3607 11.3895 17.417C11.4463 17.4733 11.5227 17.5054 11.6026 17.5066C11.6828 17.5054 11.7594 17.4731 11.8162 17.4165C11.8731 17.3599 11.9057 17.2835 11.9073 17.2033L12.0357 14.7565L11.9073 8.65832C11.9056 8.57822 11.8729 8.50192 11.8161 8.44544C11.7593 8.38896 11.6827 8.35672 11.6026 8.35552C11.4376 8.35552 11.3012 8.49661 11.2979 8.65926ZM8.34496 9.29768L8.19402 14.7537L8.34542 17.2591C8.35011 17.3931 8.45555 17.4991 8.5882 17.4991C8.72085 17.4991 8.82726 17.3927 8.83195 17.2582V17.2568L9.00212 14.7537L8.83195 9.29768C8.82726 9.15706 8.72085 9.05581 8.5882 9.05581C8.52396 9.05594 8.46239 9.08142 8.41683 9.12671C8.37127 9.172 8.34546 9.23344 8.34496 9.29768ZM9.32128 9.43737L9.18258 14.7547L9.32179 17.2356C9.32648 17.3809 9.44085 17.4972 9.58568 17.4972C9.73052 17.4972 9.8449 17.3814 9.84912 17.2347V17.2361L10.0052 14.7547L9.84912 9.43737C9.84443 9.29019 9.72958 9.17488 9.58568 9.17488C9.44178 9.17488 9.32456 9.29066 9.32128 9.43737ZM7.37609 9.47485L7.21199 14.7537L7.37609 17.2741C7.37742 17.3325 7.40137 17.388 7.44292 17.429C7.48447 17.4701 7.54034 17.4933 7.59872 17.4939C7.65727 17.4933 7.71324 17.4699 7.75482 17.4287C7.79639 17.3875 7.82027 17.3317 7.82136 17.2731L8.0056 14.7537L7.82136 9.47439C7.81667 9.35065 7.71825 9.2541 7.59872 9.2541C7.5401 9.25471 7.48405 9.27815 7.44246 9.31948C7.40088 9.3608 7.37706 9.41672 7.37609 9.47534M10.3057 9.63189L10.1791 14.7551L10.3057 17.2206C10.3103 17.3777 10.4341 17.5019 10.5901 17.5019C10.7462 17.5019 10.8704 17.3781 10.8737 17.2192V17.2211L11.0163 14.7556L10.8737 9.63234C10.873 9.5574 10.8429 9.48577 10.7898 9.43283C10.7368 9.37988 10.6651 9.34984 10.5901 9.34923C10.4341 9.34923 10.3089 9.47346 10.3057 9.63189ZM6.41517 9.88079C6.41517 9.88125 6.23985 14.7528 6.23985 14.7528L6.41517 17.2994C6.41985 17.4109 6.50892 17.4991 6.61766 17.4991C6.67067 17.4981 6.72128 17.4768 6.75899 17.4395C6.7967 17.4023 6.8186 17.3519 6.82016 17.2989L7.01842 14.7528L6.82016 9.88079C6.8186 9.82779 6.7967 9.77744 6.75899 9.74017C6.72128 9.7029 6.67067 9.68158 6.61766 9.68064C6.50892 9.68064 6.42079 9.76876 6.41517 9.88079ZM5.4618 10.7873L5.27429 14.7528L5.4618 17.3149C5.46648 17.4152 5.54615 17.4939 5.64318 17.4939C5.74021 17.4939 5.81939 17.4152 5.82502 17.3144L6.03735 14.7518L5.82502 10.7864C5.81892 10.6861 5.73927 10.6064 5.64318 10.6064C5.54709 10.6064 5.46648 10.6861 5.4618 10.7864M3.5784 12.1237L3.36652 14.7509L3.5784 17.2924C3.5845 17.3711 3.64499 17.4302 3.71905 17.4302C3.7931 17.4302 3.85307 17.3711 3.85963 17.2924L4.09966 14.7509L3.85963 12.1227C3.8526 12.0445 3.79264 11.9849 3.71905 11.9849C3.64545 11.9849 3.58403 12.0449 3.5784 12.1237ZM2.64844 12.193C2.64844 12.1935 2.42437 14.7504 2.42437 14.7504L2.64844 17.2141C2.65547 17.283 2.7056 17.3322 2.76888 17.3322C2.83216 17.3322 2.88142 17.283 2.88892 17.215L3.14343 14.7509L2.88938 12.1935C2.88188 12.1256 2.83122 12.0763 2.76888 12.0763C2.70654 12.0763 2.655 12.1265 2.64844 12.1935M4.51632 12.3144L4.31715 14.7518L4.51632 17.3144C4.51752 17.3566 4.53498 17.3967 4.56502 17.4264C4.59505 17.4561 4.63534 17.473 4.67756 17.4738C4.76287 17.4738 4.83224 17.4053 4.83881 17.3144L5.06568 14.7514L4.83881 12.313C4.83177 12.224 4.76381 12.1555 4.67756 12.1555C4.59132 12.1555 4.52195 12.223 4.51632 12.3144ZM1.72596 12.5961C1.72596 12.5966 1.48977 14.7509 1.48977 14.7509L1.72596 16.8588C1.73299 16.915 1.77518 16.9558 1.82627 16.9558C1.87736 16.9558 1.91769 16.9164 1.92566 16.8593L2.19378 14.7509L1.92566 12.5961C1.91628 12.5389 1.87596 12.4991 1.82581 12.4991C1.77566 12.4991 1.73253 12.5399 1.72596 12.5961ZM0.841943 13.4183L0.666626 14.7509L0.841943 16.061C0.848973 16.1163 0.888841 16.1548 0.938527 16.1548C0.988212 16.1548 1.02664 16.1163 1.03414 16.061L1.24224 14.7504L1.03414 13.4174C1.02711 13.3625 0.987275 13.3236 0.938527 13.3236C0.889779 13.3236 0.848505 13.362 0.841943 13.4174" fill="white" fill-opacity="0.5"/>
</g>
<defs>
<clipPath id="clip0_4157_18971">
<rect width="24" height="24" fill="white" transform="translate(0.666626)"/>
</clipPath>
</defs>
</svg>
