<svg width="24" height="24" viewBox="0 0 24 24" fill="none" xmlns="http://www.w3.org/2000/svg">
<g clip-path="url(#clip0_4390_22540)">
<path d="M11.9999 2C6.47711 2 1.99976 6.47723 1.99976 12.0001C1.99976 17.5231 6.47711 22 11.9999 22C17.5234 22 22.0002 17.5231 22.0002 12.0001C22.0002 6.47759 17.5234 2.00048 11.9998 2.00048L11.9999 2ZM16.586 16.423C16.4068 16.7167 16.0223 16.8099 15.7286 16.6295C13.3806 15.1954 10.4248 14.8706 6.9439 15.6659C6.60846 15.7423 6.2741 15.5321 6.19767 15.1966C6.12089 14.861 6.33022 14.5266 6.6665 14.4502C10.4758 13.5796 13.7434 13.9546 16.3794 15.5656C16.6731 15.7459 16.7663 16.1292 16.586 16.423ZM17.81 13.6997C17.5843 14.0669 17.1042 14.1827 16.7376 13.957C14.0496 12.3044 9.95209 11.826 6.77266 12.7911C6.36032 12.9156 5.92481 12.6832 5.79966 12.2716C5.67547 11.8593 5.90797 11.4246 6.3196 11.2992C9.95137 10.1973 14.4663 10.731 17.5532 12.6279C17.9198 12.8536 18.0357 13.3336 17.81 13.6997ZM17.915 10.8643C14.692 8.94996 9.37447 8.77394 6.29727 9.70789C5.80313 9.85775 5.28057 9.5788 5.13082 9.08466C4.98107 8.59028 5.25979 8.06808 5.75429 7.91785C9.2867 6.84551 15.1589 7.05269 18.8696 9.25554C19.3151 9.51933 19.4608 10.0934 19.1968 10.5372C18.9341 10.9817 18.3585 11.1282 17.9155 10.8643H17.915Z" fill="white" fill-opacity="0.5"/>
</g>
<defs>
<clipPath id="clip0_4390_22540">
<rect width="24" height="24" fill="white"/>
</clipPath>
</defs>
</svg>
