<svg width="25" height="24" viewBox="0 0 25 24" fill="none" xmlns="http://www.w3.org/2000/svg">
<g clip-path="url(#clip0_4157_18972)">
<path fill-rule="evenodd" clip-rule="evenodd" d="M20.371 4.00776C21.275 4.28763 21.9856 5.10925 22.2276 6.15475C22.6649 8.04786 22.6667 12 22.6667 12C22.6667 12 22.6667 15.9522 22.2276 17.8453C21.9856 18.8908 21.275 19.7124 20.371 19.9922C18.734 20.5 12.1666 20.5 12.1666 20.5C12.1666 20.5 5.59943 20.5 3.96237 19.9922C3.05828 19.7124 2.34779 18.8908 2.10577 17.8453C1.66669 15.9522 1.66669 12 1.66669 12C1.66669 12 1.66669 8.04786 2.10577 6.15475C2.34779 5.10925 3.05828 4.28763 3.96237 4.00776C5.59943 3.5 12.1666 3.5 12.1666 3.5C12.1666 3.5 18.734 3.5 20.371 4.00776ZM15.6801 12.0003L9.96454 15.2999V8.70065L15.6801 12.0003Z" fill="white" fill-opacity="0.5"/>
</g>
<defs>
<clipPath id="clip0_4157_18972">
<rect width="24" height="24" fill="white" transform="translate(0.166687)"/>
</clipPath>
</defs>
</svg>
