<svg width="298" height="85" viewBox="0 0 298 85" fill="none" xmlns="http://www.w3.org/2000/svg">
<path d="M9.84277 79.9435C10.0303 68.0223 16.7067 39.9533 41.912 23.0469" stroke="#315599" stroke-width="4" stroke-linecap="round"/>
<path d="M48.8789 17.5635C59.5053 11.9364 87.4406 3.99587 114.17 17.2498" stroke="#4D9A71" stroke-width="4" stroke-linecap="round"/>
<path d="M123.643 22.2192C133.614 28.9405 153.781 49.8386 154.685 79.6601" stroke="#6CE54A" stroke-width="4" stroke-linecap="round"/>
<path d="M159.556 69.1626C159.556 72.6286 156.746 75.4385 153.28 75.4385C149.814 75.4385 147.004 72.6286 147.004 69.1626C147.004 65.6965 149.814 62.8867 153.28 62.8867C156.746 62.8867 159.556 65.6965 159.556 69.1626Z" fill="black" stroke="#6CE54A" stroke-width="4"/>
<path d="M50.9512 68.6877V58.8877H56.9852V59.9517H52.1272V63.2277H56.5932V64.2916H52.1272V67.6236H57.0552V68.6877H50.9512ZM58.3218 68.6877L61.0658 65.2157L58.4058 61.8416H59.7358L61.7798 64.4877H61.9758L64.0058 61.8416H65.3498L62.6758 65.2157L65.4198 68.6877H64.0758L61.9758 65.9576H61.7798L59.6798 68.6877H58.3218ZM67.1807 71.4877V61.8416H68.2587V62.9756H68.4547C68.632 62.6303 68.9167 62.3223 69.3087 62.0516C69.71 61.7809 70.2653 61.6457 70.9747 61.6457C71.5627 61.6457 72.0993 61.7903 72.5847 62.0796C73.0793 62.3596 73.4713 62.761 73.7607 63.2837C74.0593 63.8064 74.2087 64.4364 74.2087 65.1737V65.3556C74.2087 66.0836 74.064 66.7136 73.7747 67.2456C73.4853 67.7776 73.0933 68.1837 72.5987 68.4637C72.1133 68.7437 71.572 68.8836 70.9747 68.8836C70.4987 68.8836 70.0927 68.8184 69.7567 68.6877C69.43 68.5664 69.164 68.4077 68.9587 68.2117C68.7533 68.0157 68.5947 67.8149 68.4827 67.6096H68.2867V71.4877H67.1807ZM70.6807 67.9037C71.39 67.9037 71.964 67.6796 72.4027 67.2316C72.8507 66.7743 73.0747 66.1396 73.0747 65.3276V65.2017C73.0747 64.3897 72.8507 63.7597 72.4027 63.3117C71.964 62.8544 71.39 62.6257 70.6807 62.6257C69.9807 62.6257 69.402 62.8544 68.9447 63.3117C68.4967 63.7597 68.2727 64.3897 68.2727 65.2017V65.3276C68.2727 66.1396 68.4967 66.7743 68.9447 67.2316C69.402 67.6796 69.9807 67.9037 70.6807 67.9037ZM76.1904 68.6877V58.8877H77.2964V68.6877H76.1904ZM82.7861 68.8836C82.0954 68.8836 81.4841 68.739 80.9521 68.4497C80.4294 68.1604 80.0187 67.7543 79.7201 67.2316C79.4307 66.6996 79.2861 66.0743 79.2861 65.3556V65.1737C79.2861 64.4644 79.4307 63.8437 79.7201 63.3117C80.0187 62.7797 80.4294 62.3689 80.9521 62.0796C81.4841 61.7903 82.0954 61.6457 82.7861 61.6457C83.4767 61.6457 84.0834 61.7903 84.6061 62.0796C85.1381 62.3689 85.5487 62.7797 85.8381 63.3117C86.1367 63.8437 86.2861 64.4644 86.2861 65.1737V65.3556C86.2861 66.0743 86.1367 66.6996 85.8381 67.2316C85.5487 67.7543 85.1381 68.1604 84.6061 68.4497C84.0834 68.739 83.4767 68.8836 82.7861 68.8836ZM82.7861 67.8897C83.5141 67.8897 84.0928 67.6609 84.5221 67.2036C84.9607 66.7369 85.1801 66.1116 85.1801 65.3276V65.2017C85.1801 64.4177 84.9607 63.797 84.5221 63.3397C84.0928 62.873 83.5141 62.6397 82.7861 62.6397C82.0674 62.6397 81.4887 62.873 81.0501 63.3397C80.6114 63.797 80.3921 64.4177 80.3921 65.2017V65.3276C80.3921 66.1116 80.6114 66.7369 81.0501 67.2036C81.4887 67.6609 82.0674 67.8897 82.7861 67.8897ZM91.0344 68.8836C90.185 68.8836 89.4664 68.6877 88.8784 68.2957C88.2997 67.9037 87.9497 67.283 87.8284 66.4337L88.8784 66.1957C88.953 66.6437 89.093 66.9983 89.2984 67.2596C89.5037 67.5116 89.7557 67.6936 90.0544 67.8056C90.3624 67.9083 90.689 67.9597 91.0344 67.9597C91.5477 67.9597 91.9537 67.8569 92.2524 67.6516C92.551 67.4463 92.7004 67.171 92.7004 66.8257C92.7004 66.471 92.5557 66.2237 92.2664 66.0837C91.9864 65.9344 91.599 65.8129 91.1044 65.7196L90.5304 65.6216C90.0917 65.5469 89.6904 65.4304 89.3264 65.2717C88.9624 65.113 88.673 64.8984 88.4584 64.6277C88.2437 64.357 88.1364 64.0163 88.1364 63.6056C88.1364 62.9896 88.3744 62.509 88.8504 62.1637C89.3264 61.8184 89.9564 61.6457 90.7404 61.6457C91.515 61.6457 92.1404 61.823 92.6164 62.1777C93.1017 62.523 93.4144 63.0129 93.5544 63.6476L92.5184 63.9137C92.4344 63.419 92.2337 63.0736 91.9164 62.8776C91.599 62.6723 91.207 62.5697 90.7404 62.5697C90.2737 62.5697 89.905 62.6583 89.6344 62.8356C89.3637 63.0036 89.2284 63.2556 89.2284 63.5916C89.2284 63.9183 89.3544 64.161 89.6064 64.3197C89.8677 64.469 90.213 64.581 90.6424 64.6557L91.2164 64.7537C91.7017 64.8377 92.1357 64.9544 92.5184 65.1037C92.9104 65.2437 93.2184 65.4489 93.4424 65.7196C93.6757 65.9903 93.7924 66.345 93.7924 66.7837C93.7924 67.4557 93.5404 67.9737 93.0364 68.3377C92.5417 68.7017 91.8744 68.8836 91.0344 68.8836ZM95.6592 68.6877V61.8416H96.7652V68.6877H95.6592ZM96.2192 60.7777C95.9765 60.7777 95.7712 60.6984 95.6032 60.5397C95.4445 60.381 95.3652 60.1804 95.3652 59.9377C95.3652 59.6857 95.4445 59.4803 95.6032 59.3216C95.7712 59.1629 95.9765 59.0837 96.2192 59.0837C96.4619 59.0837 96.6625 59.1629 96.8212 59.3216C96.9799 59.4803 97.0592 59.6857 97.0592 59.9377C97.0592 60.1804 96.9799 60.381 96.8212 60.5397C96.6625 60.6984 96.4619 60.7777 96.2192 60.7777ZM100.827 68.6877L98.3768 61.8416H99.5528L101.611 67.8617H101.807L103.865 61.8416H105.041L102.591 68.6877H100.827ZM109.487 68.8836C108.796 68.8836 108.189 68.739 107.667 68.4497C107.144 68.151 106.738 67.7356 106.449 67.2036C106.159 66.6716 106.015 66.0556 106.015 65.3556V65.1877C106.015 64.4784 106.159 63.8577 106.449 63.3257C106.738 62.7937 107.139 62.3829 107.653 62.0936C108.166 61.7949 108.754 61.6457 109.417 61.6457C110.061 61.6457 110.63 61.7856 111.125 62.0656C111.619 62.3363 112.007 62.7284 112.287 63.2417C112.567 63.755 112.707 64.357 112.707 65.0477V65.5516H107.121C107.149 66.2889 107.387 66.8676 107.835 67.2876C108.283 67.6983 108.843 67.9037 109.515 67.9037C110.103 67.9037 110.555 67.7683 110.873 67.4976C111.19 67.2269 111.433 66.905 111.601 66.5317L112.553 66.9937C112.413 67.283 112.217 67.5724 111.965 67.8617C111.722 68.151 111.4 68.3937 110.999 68.5897C110.607 68.7857 110.103 68.8836 109.487 68.8836ZM107.135 64.6417H111.587C111.549 64.007 111.33 63.5124 110.929 63.1577C110.537 62.803 110.033 62.6257 109.417 62.6257C108.791 62.6257 108.278 62.803 107.877 63.1577C107.475 63.5124 107.228 64.007 107.135 64.6417Z" fill="white"/>
<path d="M202.75 1.41699L206.833 5.50032M206.833 5.50032L202.75 9.58364M206.833 5.50032H197.5" stroke="white" stroke-width="1.5" stroke-linecap="round" stroke-linejoin="round"/>
<path d="M217.953 9.99971V0.199707H223.987V1.26371H219.129V4.53971H223.595V5.60371H219.129V8.93571H224.057V9.99971H217.953ZM225.324 9.99971L228.068 6.52771L225.408 3.15371H226.738L228.782 5.79971H228.978L231.008 3.15371H232.352L229.678 6.52771L232.422 9.99971H231.078L228.978 7.26971H228.782L226.682 9.99971H225.324ZM234.183 12.7998V3.15371H235.261V4.28771H235.457C235.634 3.94238 235.919 3.63438 236.311 3.36371C236.712 3.09304 237.268 2.95771 237.977 2.95771C238.565 2.95771 239.102 3.10238 239.587 3.39171C240.082 3.67171 240.474 4.07304 240.763 4.59571C241.062 5.11838 241.211 5.74838 241.211 6.48571V6.66771C241.211 7.39571 241.066 8.02571 240.777 8.55771C240.488 9.08971 240.096 9.49571 239.601 9.77571C239.116 10.0558 238.574 10.1958 237.977 10.1958C237.501 10.1958 237.095 10.1305 236.759 9.99971C236.432 9.87838 236.166 9.71971 235.961 9.52371C235.756 9.32771 235.597 9.12704 235.485 8.92171H235.289V12.7998H234.183ZM237.683 9.21571C238.392 9.21571 238.966 8.99171 239.405 8.54371C239.853 8.08638 240.077 7.45171 240.077 6.63971V6.51371C240.077 5.70171 239.853 5.07171 239.405 4.62371C238.966 4.16638 238.392 3.93771 237.683 3.93771C236.983 3.93771 236.404 4.16638 235.947 4.62371C235.499 5.07171 235.275 5.70171 235.275 6.51371V6.63971C235.275 7.45171 235.499 8.08638 235.947 8.54371C236.404 8.99171 236.983 9.21571 237.683 9.21571ZM243.193 9.99971V0.199707H244.299V9.99971H243.193ZM249.788 10.1958C249.098 10.1958 248.486 10.0511 247.954 9.76171C247.432 9.47238 247.021 9.06638 246.722 8.54371C246.433 8.01171 246.288 7.38638 246.288 6.66771V6.48571C246.288 5.77638 246.433 5.15571 246.722 4.62371C247.021 4.09171 247.432 3.68104 247.954 3.39171C248.486 3.10238 249.098 2.95771 249.788 2.95771C250.479 2.95771 251.086 3.10238 251.608 3.39171C252.14 3.68104 252.551 4.09171 252.84 4.62371C253.139 5.15571 253.288 5.77638 253.288 6.48571V6.66771C253.288 7.38638 253.139 8.01171 252.84 8.54371C252.551 9.06638 252.14 9.47238 251.608 9.76171C251.086 10.0511 250.479 10.1958 249.788 10.1958ZM249.788 9.20171C250.516 9.20171 251.095 8.97304 251.524 8.51571C251.963 8.04904 252.182 7.42371 252.182 6.63971V6.51371C252.182 5.72971 251.963 5.10904 251.524 4.65171C251.095 4.18504 250.516 3.95171 249.788 3.95171C249.07 3.95171 248.491 4.18504 248.052 4.65171C247.614 5.10904 247.394 5.72971 247.394 6.51371V6.63971C247.394 7.42371 247.614 8.04904 248.052 8.51571C248.491 8.97304 249.07 9.20171 249.788 9.20171ZM258.037 10.1958C257.187 10.1958 256.469 9.99971 255.881 9.60771C255.302 9.21571 254.952 8.59504 254.831 7.74571L255.881 7.50771C255.955 7.95571 256.095 8.31038 256.301 8.57171C256.506 8.82371 256.758 9.00571 257.057 9.11771C257.365 9.22038 257.691 9.27171 258.037 9.27171C258.55 9.27171 258.956 9.16904 259.255 8.96371C259.553 8.75838 259.703 8.48304 259.703 8.13771C259.703 7.78304 259.558 7.53571 259.269 7.39571C258.989 7.24638 258.601 7.12504 258.107 7.03171L257.533 6.93371C257.094 6.85904 256.693 6.74238 256.329 6.58371C255.965 6.42504 255.675 6.21038 255.461 5.93971C255.246 5.66904 255.139 5.32838 255.139 4.91771C255.139 4.30171 255.377 3.82104 255.853 3.47571C256.329 3.13038 256.959 2.95771 257.743 2.95771C258.517 2.95771 259.143 3.13504 259.619 3.48971C260.104 3.83504 260.417 4.32504 260.557 4.95971L259.521 5.22571C259.437 4.73104 259.236 4.38571 258.919 4.18971C258.601 3.98438 258.209 3.88171 257.743 3.88171C257.276 3.88171 256.907 3.97038 256.637 4.14771C256.366 4.31571 256.231 4.56771 256.231 4.90371C256.231 5.23038 256.357 5.47304 256.609 5.63171C256.87 5.78104 257.215 5.89304 257.645 5.96771L258.219 6.06571C258.704 6.14971 259.138 6.26638 259.521 6.41571C259.913 6.55571 260.221 6.76104 260.445 7.03171C260.678 7.30238 260.795 7.65704 260.795 8.09571C260.795 8.76771 260.543 9.28571 260.039 9.64971C259.544 10.0138 258.877 10.1958 258.037 10.1958ZM262.662 9.99971V3.15371H263.768V9.99971H262.662ZM263.222 2.08971C262.979 2.08971 262.774 2.01038 262.606 1.85171C262.447 1.69304 262.368 1.49238 262.368 1.24971C262.368 0.997708 262.447 0.792374 262.606 0.633708C262.774 0.475041 262.979 0.395707 263.222 0.395707C263.464 0.395707 263.665 0.475041 263.824 0.633708C263.982 0.792374 264.062 0.997708 264.062 1.24971C264.062 1.49238 263.982 1.69304 263.824 1.85171C263.665 2.01038 263.464 2.08971 263.222 2.08971ZM267.829 9.99971L265.379 3.15371H266.555L268.613 9.17371H268.809L270.867 3.15371H272.043L269.593 9.99971H267.829ZM276.489 10.1958C275.798 10.1958 275.192 10.0511 274.669 9.76171C274.146 9.46304 273.74 9.04771 273.451 8.51571C273.162 7.98371 273.017 7.36771 273.017 6.66771V6.49971C273.017 5.79038 273.162 5.16971 273.451 4.63771C273.74 4.10571 274.142 3.69504 274.655 3.40571C275.168 3.10704 275.756 2.95771 276.419 2.95771C277.063 2.95771 277.632 3.09771 278.127 3.37771C278.622 3.64838 279.009 4.04038 279.289 4.55371C279.569 5.06704 279.709 5.66904 279.709 6.35971V6.86371H274.123C274.151 7.60104 274.389 8.17971 274.837 8.59971C275.285 9.01038 275.845 9.21571 276.517 9.21571C277.105 9.21571 277.558 9.08038 277.875 8.80971C278.192 8.53904 278.435 8.21704 278.603 7.84371L279.555 8.30571C279.415 8.59504 279.219 8.88438 278.967 9.17371C278.724 9.46304 278.402 9.70571 278.001 9.90171C277.609 10.0978 277.105 10.1958 276.489 10.1958ZM274.137 5.95371H278.589C278.552 5.31904 278.332 4.82438 277.931 4.46971C277.539 4.11504 277.035 3.93771 276.419 3.93771C275.794 3.93771 275.28 4.11504 274.879 4.46971C274.478 4.82438 274.23 5.31904 274.137 5.95371Z" fill="white"/>
<path d="M221.369 28.1959C220.641 28.1959 219.997 28.0466 219.437 27.7479C218.887 27.4399 218.453 26.9919 218.135 26.4039C217.827 25.8159 217.673 25.0879 217.673 24.2199V21.9799C217.673 20.6826 218.019 19.6979 218.709 19.0259C219.4 18.3446 220.329 18.0039 221.495 18.0039C222.653 18.0039 223.535 18.3212 224.141 18.9559C224.748 19.5906 225.051 20.4399 225.051 21.5039V21.5739H223.889V21.4759C223.889 21.0092 223.805 20.5939 223.637 20.2299C223.469 19.8659 223.208 19.5812 222.853 19.3759C222.499 19.1612 222.046 19.0539 221.495 19.0539C220.665 19.0539 220.016 19.3106 219.549 19.8239C219.083 20.3279 218.849 21.0372 218.849 21.9519V24.2479C218.849 25.1626 219.083 25.8766 219.549 26.3899C220.016 26.8939 220.669 27.1459 221.509 27.1459C222.331 27.1459 222.933 26.9126 223.315 26.4459C223.707 25.9792 223.903 25.3586 223.903 24.5839V24.3459H220.935V23.3379H225.051V27.9999H223.987V26.9359H223.791C223.689 27.1412 223.544 27.3419 223.357 27.5379C223.171 27.7339 222.919 27.8926 222.601 28.0139C222.284 28.1352 221.873 28.1959 221.369 28.1959ZM227.238 27.9999V21.1539H228.316V21.9939H228.512C228.633 21.6952 228.82 21.4759 229.072 21.3359C229.324 21.1959 229.655 21.1259 230.066 21.1259H230.878V22.1339H229.996C229.501 22.1339 229.1 22.2739 228.792 22.5539C228.493 22.8246 228.344 23.2492 228.344 23.8279V27.9999H227.238ZM235.433 28.1959C234.742 28.1959 234.131 28.0512 233.599 27.7619C233.076 27.4726 232.666 27.0666 232.367 26.5439C232.078 26.0119 231.933 25.3866 231.933 24.6679V24.4859C231.933 23.7766 232.078 23.1559 232.367 22.6239C232.666 22.0919 233.076 21.6812 233.599 21.3919C234.131 21.1026 234.742 20.9579 235.433 20.9579C236.124 20.9579 236.73 21.1026 237.253 21.3919C237.785 21.6812 238.196 22.0919 238.485 22.6239C238.784 23.1559 238.933 23.7766 238.933 24.4859V24.6679C238.933 25.3866 238.784 26.0119 238.485 26.5439C238.196 27.0666 237.785 27.4726 237.253 27.7619C236.73 28.0512 236.124 28.1959 235.433 28.1959ZM235.433 27.2019C236.161 27.2019 236.74 26.9732 237.169 26.5159C237.608 26.0492 237.827 25.4239 237.827 24.6399V24.5139C237.827 23.7299 237.608 23.1092 237.169 22.6519C236.74 22.1852 236.161 21.9519 235.433 21.9519C234.714 21.9519 234.136 22.1852 233.697 22.6519C233.258 23.1092 233.039 23.7299 233.039 24.5139V24.6399C233.039 25.4239 233.258 26.0492 233.697 26.5159C234.136 26.9732 234.714 27.2019 235.433 27.2019ZM241.739 27.9999L240.367 21.1539H241.487L242.621 27.2579H242.817L244.315 21.1539H246.149L247.647 27.2579H247.843L248.977 21.1539H250.097L248.725 27.9999H246.835L245.323 21.8959H245.141L243.629 27.9999H241.739ZM251.997 27.9999V21.1539H253.103V27.9999H251.997ZM252.557 20.0899C252.315 20.0899 252.109 20.0106 251.941 19.8519C251.783 19.6932 251.703 19.4926 251.703 19.2499C251.703 18.9979 251.783 18.7926 251.941 18.6339C252.109 18.4752 252.315 18.3959 252.557 18.3959C252.8 18.3959 253.001 18.4752 253.159 18.6339C253.318 18.7926 253.397 18.9979 253.397 19.2499C253.397 19.4926 253.318 19.6932 253.159 19.8519C253.001 20.0106 252.8 20.0899 252.557 20.0899ZM255.429 27.9999V21.1539H256.507V22.3159H256.703C256.852 21.9892 257.104 21.6952 257.459 21.4339C257.823 21.1632 258.355 21.0279 259.055 21.0279C259.568 21.0279 260.026 21.1352 260.427 21.3499C260.838 21.5646 261.164 21.8819 261.407 22.3019C261.65 22.7219 261.771 23.2399 261.771 23.8559V27.9999H260.665V23.9399C260.665 23.2586 260.492 22.7639 260.147 22.4559C259.811 22.1479 259.354 21.9939 258.775 21.9939C258.112 21.9939 257.571 22.2086 257.151 22.6379C256.74 23.0672 256.535 23.7066 256.535 24.5559V27.9999H255.429ZM263.679 24.6119V24.4159C263.679 23.6972 263.824 23.0812 264.113 22.5679C264.402 22.0546 264.794 21.6579 265.289 21.3779C265.784 21.0979 266.325 20.9579 266.913 20.9579C267.632 20.9579 268.182 21.0979 268.565 21.3779C268.957 21.6486 269.246 21.9519 269.433 22.2879H269.629V21.1539H270.679V29.5959C270.679 29.9692 270.576 30.2632 270.371 30.4779C270.166 30.6926 269.867 30.7999 269.475 30.7999H264.827V29.8199H269.181C269.461 29.8199 269.601 29.6799 269.601 29.3999V26.7959H269.405C269.293 27.0012 269.134 27.2019 268.929 27.3979C268.724 27.5939 268.458 27.7572 268.131 27.8879C267.804 28.0092 267.398 28.0699 266.913 28.0699C266.325 28.0699 265.784 27.9299 265.289 27.6499C264.794 27.3699 264.402 26.9732 264.113 26.4599C263.824 25.9372 263.679 25.3212 263.679 24.6119ZM267.207 27.0899C267.916 27.0899 268.49 26.8659 268.929 26.4179C269.377 25.9699 269.601 25.3539 269.601 24.5699V24.4579C269.601 23.6646 269.377 23.0486 268.929 22.6099C268.49 22.1619 267.916 21.9379 267.207 21.9379C266.507 21.9379 265.928 22.1619 265.471 22.6099C265.023 23.0486 264.799 23.6646 264.799 24.4579V24.5699C264.799 25.3539 265.023 25.9699 265.471 26.4179C265.928 26.8659 266.507 27.0899 267.207 27.0899Z" fill="#C9C9C9" fill-opacity="0.6"/>
<path d="M221.215 46.1959C220.506 46.1959 219.871 46.0699 219.311 45.8179C218.751 45.5659 218.308 45.1879 217.981 44.6839C217.664 44.1706 217.505 43.5312 217.505 42.7659V42.4719H218.667V42.7659C218.667 43.5779 218.905 44.1846 219.381 44.5859C219.857 44.9779 220.469 45.1739 221.215 45.1739C221.981 45.1739 222.564 45.0012 222.965 44.6559C223.367 44.3106 223.567 43.8766 223.567 43.3539C223.567 42.9899 223.474 42.7006 223.287 42.4859C223.11 42.2712 222.858 42.0986 222.531 41.9679C222.205 41.8279 221.822 41.7066 221.383 41.6039L220.655 41.4219C220.086 41.2726 219.582 41.0906 219.143 40.8759C218.705 40.6612 218.359 40.3812 218.107 40.0359C217.865 39.6812 217.743 39.2286 217.743 38.6779C217.743 38.1272 217.879 37.6512 218.149 37.2499C218.429 36.8486 218.817 36.5406 219.311 36.3259C219.815 36.1112 220.394 36.0039 221.047 36.0039C221.71 36.0039 222.303 36.1206 222.825 36.3539C223.357 36.5779 223.773 36.9139 224.071 37.3619C224.379 37.8006 224.533 38.3559 224.533 39.0279V39.6159H223.371V39.0279C223.371 38.5519 223.269 38.1692 223.063 37.8799C222.867 37.5906 222.592 37.3759 222.237 37.2359C221.892 37.0959 221.495 37.0259 221.047 37.0259C220.403 37.0259 219.885 37.1706 219.493 37.4599C219.101 37.7399 218.905 38.1412 218.905 38.6639C218.905 39.0092 218.989 39.2892 219.157 39.5039C219.325 39.7186 219.563 39.8959 219.871 40.0359C220.179 40.1666 220.548 40.2832 220.977 40.3859L221.705 40.5679C222.275 40.6892 222.783 40.8572 223.231 41.0719C223.689 41.2772 224.053 41.5619 224.323 41.9259C224.594 42.2806 224.729 42.7472 224.729 43.3259C224.729 43.9046 224.585 44.4086 224.295 44.8379C224.006 45.2672 223.595 45.6032 223.063 45.8459C222.541 46.0792 221.925 46.1959 221.215 46.1959ZM229.101 45.9999C228.709 45.9999 228.406 45.8926 228.191 45.6779C227.986 45.4632 227.883 45.1692 227.883 44.7959V40.1199H225.825V39.1539H227.883V36.7179H228.989V39.1539H231.229V40.1199H228.989V44.6279C228.989 44.9079 229.125 45.0479 229.395 45.0479H230.921V45.9999H229.101ZM235.911 46.1959C235.22 46.1959 234.613 46.0512 234.091 45.7619C233.568 45.4632 233.162 45.0479 232.873 44.5159C232.583 43.9839 232.439 43.3679 232.439 42.6679V42.4999C232.439 41.7906 232.583 41.1699 232.873 40.6379C233.162 40.1059 233.563 39.6952 234.077 39.4059C234.59 39.1072 235.178 38.9579 235.841 38.9579C236.485 38.9579 237.054 39.0979 237.549 39.3779C238.043 39.6486 238.431 40.0406 238.711 40.5539C238.991 41.0672 239.131 41.6692 239.131 42.3599V42.8639H233.545C233.573 43.6012 233.811 44.1799 234.259 44.5999C234.707 45.0106 235.267 45.2159 235.939 45.2159C236.527 45.2159 236.979 45.0806 237.297 44.8099C237.614 44.5392 237.857 44.2172 238.025 43.8439L238.977 44.3059C238.837 44.5952 238.641 44.8846 238.389 45.1739C238.146 45.4632 237.824 45.7059 237.423 45.9019C237.031 46.0979 236.527 46.1959 235.911 46.1959ZM233.559 41.9539H238.011C237.973 41.3192 237.754 40.8246 237.353 40.4699C236.961 40.1152 236.457 39.9379 235.841 39.9379C235.215 39.9379 234.702 40.1152 234.301 40.4699C233.899 40.8246 233.652 41.3192 233.559 41.9539ZM243.16 46.1959C242.684 46.1959 242.25 46.1119 241.858 45.9439C241.466 45.7759 241.158 45.5332 240.934 45.2159C240.71 44.8986 240.598 44.5112 240.598 44.0539C240.598 43.5872 240.71 43.2046 240.934 42.9059C241.158 42.5979 241.466 42.3692 241.858 42.2199C242.25 42.0612 242.689 41.9819 243.174 41.9819H245.484V41.4779C245.484 40.9926 245.339 40.6099 245.05 40.3299C244.77 40.0499 244.35 39.9099 243.79 39.9099C243.239 39.9099 242.81 40.0452 242.502 40.3159C242.194 40.5772 241.984 40.9319 241.872 41.3799L240.836 41.0439C240.948 40.6612 241.125 40.3159 241.368 40.0079C241.611 39.6906 241.933 39.4386 242.334 39.2519C242.745 39.0559 243.235 38.9579 243.804 38.9579C244.681 38.9579 245.363 39.1866 245.848 39.6439C246.333 40.0919 246.576 40.7266 246.576 41.5479V44.6419C246.576 44.9219 246.707 45.0619 246.968 45.0619H247.598V45.9999H246.632C246.324 45.9999 246.077 45.9159 245.89 45.7479C245.703 45.5706 245.61 45.3372 245.61 45.0479V44.9779H245.442C245.339 45.1552 245.199 45.3419 245.022 45.5379C244.854 45.7246 244.621 45.8786 244.322 45.9999C244.023 46.1306 243.636 46.1959 243.16 46.1959ZM243.286 45.2439C243.939 45.2439 244.467 45.0526 244.868 44.6699C245.279 44.2779 245.484 43.7319 245.484 43.0319V42.8779H243.216C242.777 42.8779 242.413 42.9759 242.124 43.1719C241.844 43.3586 241.704 43.6432 241.704 44.0259C241.704 44.4086 241.849 44.7072 242.138 44.9219C242.437 45.1366 242.819 45.2439 243.286 45.2439ZM251.819 46.1959C251.231 46.1959 250.69 46.0559 250.195 45.7759C249.701 45.4959 249.309 45.0899 249.019 44.5579C248.73 44.0259 248.585 43.3959 248.585 42.6679V42.4859C248.585 41.7579 248.73 41.1326 249.019 40.6099C249.309 40.0779 249.696 39.6719 250.181 39.3919C250.676 39.1026 251.222 38.9579 251.819 38.9579C252.295 38.9579 252.697 39.0232 253.023 39.1539C253.359 39.2752 253.63 39.4339 253.835 39.6299C254.041 39.8166 254.199 40.0172 254.311 40.2319H254.507V36.1999H255.613V45.9999H254.535V44.8659H254.339C254.153 45.2112 253.863 45.5192 253.471 45.7899C253.079 46.0606 252.529 46.1959 251.819 46.1959ZM252.113 45.2159C252.823 45.2159 253.397 44.9919 253.835 44.5439C254.283 44.0866 254.507 43.4519 254.507 42.6399V42.5139C254.507 41.7019 254.283 41.0719 253.835 40.6239C253.397 40.1666 252.823 39.9379 252.113 39.9379C251.413 39.9379 250.835 40.1666 250.377 40.6239C249.929 41.0719 249.705 41.7019 249.705 42.5139V42.6399C249.705 43.4519 249.929 44.0866 250.377 44.5439C250.835 44.9919 251.413 45.2159 252.113 45.2159ZM258.757 48.7999V47.8199H262.677C262.948 47.8199 263.083 47.6799 263.083 47.3999V44.9079H262.887C262.794 45.1039 262.649 45.2999 262.453 45.4959C262.266 45.6826 262.019 45.8366 261.711 45.9579C261.403 46.0699 261.016 46.1259 260.549 46.1259C260.054 46.1259 259.597 46.0186 259.177 45.8039C258.766 45.5892 258.44 45.2719 258.197 44.8519C257.964 44.4319 257.847 43.9186 257.847 43.3119V39.1539H258.953V43.2279C258.953 43.8999 259.121 44.3899 259.457 44.6979C259.802 45.0059 260.264 45.1599 260.843 45.1599C261.496 45.1599 262.033 44.9452 262.453 44.5159C262.873 44.0866 263.083 43.4472 263.083 42.5979V39.1539H264.189V47.5959C264.189 47.9692 264.082 48.2632 263.867 48.4779C263.662 48.6926 263.358 48.7999 262.957 48.7999H258.757Z" fill="#C9C9C9" fill-opacity="0.6"/>
<path d="M221.215 64.1959C220.506 64.1959 219.871 64.0699 219.311 63.8179C218.751 63.5659 218.308 63.1879 217.981 62.6839C217.664 62.1706 217.505 61.5312 217.505 60.7659V60.4719H218.667V60.7659C218.667 61.5779 218.905 62.1846 219.381 62.5859C219.857 62.9779 220.469 63.1739 221.215 63.1739C221.981 63.1739 222.564 63.0012 222.965 62.6559C223.367 62.3106 223.567 61.8766 223.567 61.3539C223.567 60.9899 223.474 60.7006 223.287 60.4859C223.11 60.2712 222.858 60.0986 222.531 59.9679C222.205 59.8279 221.822 59.7066 221.383 59.6039L220.655 59.4219C220.086 59.2726 219.582 59.0906 219.143 58.8759C218.705 58.6612 218.359 58.3812 218.107 58.0359C217.865 57.6812 217.743 57.2286 217.743 56.6779C217.743 56.1272 217.879 55.6512 218.149 55.2499C218.429 54.8486 218.817 54.5406 219.311 54.3259C219.815 54.1112 220.394 54.0039 221.047 54.0039C221.71 54.0039 222.303 54.1206 222.825 54.3539C223.357 54.5779 223.773 54.9139 224.071 55.3619C224.379 55.8006 224.533 56.3559 224.533 57.0279V57.6159H223.371V57.0279C223.371 56.5519 223.269 56.1692 223.063 55.8799C222.867 55.5906 222.592 55.3759 222.237 55.2359C221.892 55.0959 221.495 55.0259 221.047 55.0259C220.403 55.0259 219.885 55.1706 219.493 55.4599C219.101 55.7399 218.905 56.1412 218.905 56.6639C218.905 57.0092 218.989 57.2892 219.157 57.5039C219.325 57.7186 219.563 57.8959 219.871 58.0359C220.179 58.1666 220.548 58.2832 220.977 58.3859L221.705 58.5679C222.275 58.6892 222.783 58.8572 223.231 59.0719C223.689 59.2772 224.053 59.5619 224.323 59.9259C224.594 60.2806 224.729 60.7472 224.729 61.3259C224.729 61.9046 224.585 62.4086 224.295 62.8379C224.006 63.2672 223.595 63.6032 223.063 63.8459C222.541 64.0792 221.925 64.1959 221.215 64.1959ZM226.581 63.9999V54.1999H227.687V63.9999H226.581ZM233.177 64.1959C232.486 64.1959 231.875 64.0512 231.343 63.7619C230.82 63.4726 230.41 63.0666 230.111 62.5439C229.822 62.0119 229.677 61.3866 229.677 60.6679V60.4859C229.677 59.7766 229.822 59.1559 230.111 58.6239C230.41 58.0919 230.82 57.6812 231.343 57.3919C231.875 57.1026 232.486 56.9579 233.177 56.9579C233.868 56.9579 234.474 57.1026 234.997 57.3919C235.529 57.6812 235.94 58.0919 236.229 58.6239C236.528 59.1559 236.677 59.7766 236.677 60.4859V60.6679C236.677 61.3866 236.528 62.0119 236.229 62.5439C235.94 63.0666 235.529 63.4726 234.997 63.7619C234.474 64.0512 233.868 64.1959 233.177 64.1959ZM233.177 63.2019C233.905 63.2019 234.484 62.9732 234.913 62.5159C235.352 62.0492 235.571 61.4239 235.571 60.6399V60.5139C235.571 59.7299 235.352 59.1092 234.913 58.6519C234.484 58.1852 233.905 57.9519 233.177 57.9519C232.458 57.9519 231.88 58.1852 231.441 58.6519C231.002 59.1092 230.783 59.7299 230.783 60.5139V60.6399C230.783 61.4239 231.002 62.0492 231.441 62.5159C231.88 62.9732 232.458 63.2019 233.177 63.2019ZM239.483 63.9999L238.111 57.1539H239.231L240.365 63.2579H240.561L242.059 57.1539H243.893L245.391 63.2579H245.587L246.721 57.1539H247.841L246.469 63.9999H244.579L243.067 57.8959H242.885L241.373 63.9999H239.483ZM249.742 63.9999V57.1539H250.848V63.9999H249.742ZM250.302 56.0899C250.059 56.0899 249.854 56.0106 249.686 55.8519C249.527 55.6932 249.448 55.4926 249.448 55.2499C249.448 54.9979 249.527 54.7926 249.686 54.6339C249.854 54.4752 250.059 54.3959 250.302 54.3959C250.544 54.3959 250.745 54.4752 250.904 54.6339C251.062 54.7926 251.142 54.9979 251.142 55.2499C251.142 55.4926 251.062 55.6932 250.904 55.8519C250.745 56.0106 250.544 56.0899 250.302 56.0899ZM253.173 63.9999V57.1539H254.251V58.3159H254.447C254.597 57.9892 254.849 57.6952 255.203 57.4339C255.567 57.1632 256.099 57.0279 256.799 57.0279C257.313 57.0279 257.77 57.1352 258.171 57.3499C258.582 57.5646 258.909 57.8819 259.151 58.3019C259.394 58.7219 259.515 59.2399 259.515 59.8559V63.9999H258.409V59.9399C258.409 59.2586 258.237 58.7639 257.891 58.4559C257.555 58.1479 257.098 57.9939 256.519 57.9939C255.857 57.9939 255.315 58.2086 254.895 58.6379C254.485 59.0672 254.279 59.7066 254.279 60.5559V63.9999H253.173ZM261.423 60.6119V60.4159C261.423 59.6972 261.568 59.0812 261.857 58.5679C262.147 58.0546 262.539 57.6579 263.033 57.3779C263.528 57.0979 264.069 56.9579 264.657 56.9579C265.376 56.9579 265.927 57.0979 266.309 57.3779C266.701 57.6486 266.991 57.9519 267.177 58.2879H267.373V57.1539H268.423V65.5959C268.423 65.9692 268.321 66.2632 268.115 66.4779C267.91 66.6926 267.611 66.7999 267.219 66.7999H262.571V65.8199H266.925C267.205 65.8199 267.345 65.6799 267.345 65.3999V62.7959H267.149C267.037 63.0012 266.879 63.2019 266.673 63.3979C266.468 63.5939 266.202 63.7572 265.875 63.8879C265.549 64.0092 265.143 64.0699 264.657 64.0699C264.069 64.0699 263.528 63.9299 263.033 63.6499C262.539 63.3699 262.147 62.9732 261.857 62.4599C261.568 61.9372 261.423 61.3212 261.423 60.6119ZM264.951 63.0899C265.661 63.0899 266.235 62.8659 266.673 62.4179C267.121 61.9699 267.345 61.3539 267.345 60.5699V60.4579C267.345 59.6646 267.121 59.0486 266.673 58.6099C266.235 58.1619 265.661 57.9379 264.951 57.9379C264.251 57.9379 263.673 58.1619 263.215 58.6099C262.767 59.0486 262.543 59.6646 262.543 60.4579V60.5699C262.543 61.3539 262.767 61.9699 263.215 62.4179C263.673 62.8659 264.251 63.0899 264.951 63.0899Z" fill="#C9C9C9" fill-opacity="0.6"/>
<path d="M217.491 82.0002V80.6562H218.807V73.5442H217.491V72.2002H221.411C222.718 72.2002 223.717 72.5315 224.407 73.1942C225.107 73.8569 225.457 74.8555 225.457 76.1902V78.0242C225.457 79.3589 225.107 80.3575 224.407 81.0202C223.717 81.6735 222.718 82.0002 221.411 82.0002H217.491ZM220.333 80.6282H221.425C222.275 80.6282 222.905 80.4135 223.315 79.9842C223.726 79.5549 223.931 78.9155 223.931 78.0662V76.1342C223.931 75.2755 223.726 74.6362 223.315 74.2162C222.905 73.7962 222.275 73.5862 221.425 73.5862H220.333V80.6282ZM230.372 82.1962C229.672 82.1962 229.061 82.0515 228.538 81.7622C228.015 81.4635 227.605 81.0482 227.306 80.5162C227.017 79.9749 226.872 79.3495 226.872 78.6402V78.4722C226.872 77.7535 227.017 77.1282 227.306 76.5962C227.595 76.0549 227.997 75.6395 228.51 75.3502C229.033 75.0515 229.635 74.9022 230.316 74.9022C230.979 74.9022 231.557 75.0515 232.052 75.3502C232.556 75.6395 232.948 76.0455 233.228 76.5682C233.508 77.0909 233.648 77.7022 233.648 78.4022V78.9482H228.342C228.361 79.5549 228.561 80.0402 228.944 80.4042C229.336 80.7589 229.821 80.9362 230.4 80.9362C230.941 80.9362 231.347 80.8149 231.618 80.5722C231.898 80.3295 232.113 80.0495 232.262 79.7322L233.452 80.3482C233.321 80.6095 233.13 80.8849 232.878 81.1742C232.635 81.4635 232.313 81.7062 231.912 81.9022C231.511 82.0982 230.997 82.1962 230.372 82.1962ZM228.356 77.8422H232.178C232.141 77.3195 231.954 76.9135 231.618 76.6242C231.282 76.3255 230.843 76.1762 230.302 76.1762C229.761 76.1762 229.317 76.3255 228.972 76.6242C228.636 76.9135 228.431 77.3195 228.356 77.8422ZM238.59 82.1962C237.927 82.1962 237.325 82.0562 236.784 81.7762C236.252 81.4962 235.827 81.0902 235.51 80.5582C235.202 80.0262 235.048 79.3869 235.048 78.6402V78.4582C235.048 77.7115 235.202 77.0769 235.51 76.5542C235.827 76.0222 236.252 75.6162 236.784 75.3362C237.325 75.0469 237.927 74.9022 238.59 74.9022C239.252 74.9022 239.817 75.0235 240.284 75.2662C240.75 75.5089 241.124 75.8309 241.404 76.2322C241.693 76.6335 241.88 77.0769 241.964 77.5622L240.564 77.8562C240.517 77.5482 240.419 77.2682 240.27 77.0162C240.12 76.7642 239.91 76.5635 239.64 76.4142C239.369 76.2649 239.028 76.1902 238.618 76.1902C238.216 76.1902 237.852 76.2835 237.526 76.4702C237.208 76.6475 236.956 76.9089 236.77 77.2542C236.583 77.5902 236.49 78.0009 236.49 78.4862V78.6122C236.49 79.0975 236.583 79.5129 236.77 79.8582C236.956 80.2035 237.208 80.4649 237.526 80.6422C237.852 80.8195 238.216 80.9082 238.618 80.9082C239.224 80.9082 239.686 80.7542 240.004 80.4462C240.321 80.1289 240.522 79.7275 240.606 79.2422L242.006 79.5642C241.894 80.0402 241.693 80.4789 241.404 80.8802C241.124 81.2815 240.75 81.6035 240.284 81.8462C239.817 82.0795 239.252 82.1962 238.59 82.1962ZM243.669 82.0002V72.2002H245.111V82.0002H243.669ZM247.251 82.0002V75.0982H248.693V82.0002H247.251ZM247.979 74.1602C247.699 74.1602 247.461 74.0715 247.265 73.8942C247.078 73.7075 246.985 73.4695 246.985 73.1802C246.985 72.8909 247.078 72.6575 247.265 72.4802C247.461 72.2935 247.699 72.2002 247.979 72.2002C248.268 72.2002 248.506 72.2935 248.693 72.4802C248.88 72.6575 248.973 72.8909 248.973 73.1802C248.973 73.4695 248.88 73.7075 248.693 73.8942C248.506 74.0715 248.268 74.1602 247.979 74.1602ZM250.833 82.0002V75.0982H252.247V76.1342H252.471C252.602 75.8542 252.835 75.5929 253.171 75.3502C253.507 75.1075 254.006 74.9862 254.669 74.9862C255.192 74.9862 255.654 75.1029 256.055 75.3362C256.466 75.5695 256.788 75.9009 257.021 76.3302C257.254 76.7502 257.371 77.2589 257.371 77.8562V82.0002H255.929V77.9682C255.929 77.3709 255.78 76.9322 255.481 76.6522C255.182 76.3629 254.772 76.2182 254.249 76.2182C253.652 76.2182 253.171 76.4142 252.807 76.8062C252.452 77.1982 252.275 77.7675 252.275 78.5142V82.0002H250.833ZM259.446 82.0002V75.0982H260.888V82.0002H259.446ZM260.174 74.1602C259.894 74.1602 259.656 74.0715 259.46 73.8942C259.274 73.7075 259.18 73.4695 259.18 73.1802C259.18 72.8909 259.274 72.6575 259.46 72.4802C259.656 72.2935 259.894 72.2002 260.174 72.2002C260.464 72.2002 260.702 72.2935 260.888 72.4802C261.075 72.6575 261.168 72.8909 261.168 73.1802C261.168 73.4695 261.075 73.7075 260.888 73.8942C260.702 74.0715 260.464 74.1602 260.174 74.1602ZM263.028 82.0002V75.0982H264.442V76.1342H264.666C264.797 75.8542 265.03 75.5929 265.366 75.3502C265.702 75.1075 266.202 74.9862 266.864 74.9862C267.387 74.9862 267.849 75.1029 268.25 75.3362C268.661 75.5695 268.983 75.9009 269.216 76.3302C269.45 76.7502 269.566 77.2589 269.566 77.8562V82.0002H268.124V77.9682C268.124 77.3709 267.975 76.9322 267.676 76.6522C267.378 76.3629 266.967 76.2182 266.444 76.2182C265.847 76.2182 265.366 76.4142 265.002 76.8062C264.648 77.1982 264.47 77.7675 264.47 78.5142V82.0002H263.028ZM271.306 78.5842V78.3742C271.306 77.6462 271.45 77.0255 271.74 76.5122C272.038 75.9989 272.43 75.6022 272.916 75.3222C273.401 75.0422 273.933 74.9022 274.512 74.9022C275.184 74.9022 275.697 75.0282 276.052 75.2802C276.416 75.5322 276.682 75.8029 276.85 76.0922H277.074V75.0982H278.474V83.4142C278.474 83.8342 278.348 84.1702 278.096 84.4222C277.853 84.6742 277.517 84.8002 277.088 84.8002H272.44V83.5402H276.64C276.91 83.5402 277.046 83.4002 277.046 83.1202V80.9222H276.822C276.719 81.0902 276.574 81.2629 276.388 81.4402C276.201 81.6175 275.954 81.7622 275.646 81.8742C275.347 81.9862 274.969 82.0422 274.512 82.0422C273.933 82.0422 273.396 81.9069 272.902 81.6362C272.416 81.3562 272.029 80.9595 271.74 80.4462C271.45 79.9235 271.306 79.3029 271.306 78.5842ZM274.904 80.7822C275.529 80.7822 276.042 80.5862 276.444 80.1942C276.854 79.7929 277.06 79.2422 277.06 78.5422V78.4162C277.06 77.6975 276.859 77.1469 276.458 76.7642C276.056 76.3722 275.538 76.1762 274.904 76.1762C274.288 76.1762 273.774 76.3722 273.364 76.7642C272.962 77.1469 272.762 77.6975 272.762 78.4162V78.5422C272.762 79.2422 272.962 79.7929 273.364 80.1942C273.774 80.5862 274.288 80.7822 274.904 80.7822Z" fill="#C9C9C9" fill-opacity="0.6"/>
</svg>
