<svg width="298" height="85" viewBox="0 0 298 85" fill="none" xmlns="http://www.w3.org/2000/svg">
<path d="M9.84277 79.9435C10.0303 68.0223 16.7067 39.9533 41.912 23.0469" stroke="#315599" stroke-width="4" stroke-linecap="round"/>
<path d="M48.8789 17.5635C59.5053 11.9364 87.4406 3.99584 114.17 17.2498" stroke="#4D9A71" stroke-width="4" stroke-linecap="round"/>
<path d="M123.643 22.2192C133.614 28.9405 153.781 49.8386 154.685 79.6601" stroke="#6CE54A" stroke-width="4" stroke-linecap="round"/>
<path d="M34.545 36.2294C34.545 39.6955 31.7352 42.5053 28.2691 42.5053C24.803 42.5053 21.9932 39.6955 21.9932 36.2294C21.9932 32.7634 24.803 29.9536 28.2691 29.9536C31.7352 29.9536 34.545 32.7634 34.545 36.2294Z" fill="black" stroke="#315599" stroke-width="4"/>
<path d="M59.6612 68.8834C58.9519 68.8834 58.3172 68.7574 57.7572 68.5054C57.1972 68.2534 56.7539 67.8754 56.4272 67.3714C56.1099 66.8581 55.9512 66.2187 55.9512 65.4534V65.1594H57.1132V65.4534C57.1132 66.2654 57.3512 66.8721 57.8272 67.2734C58.3032 67.6654 58.9146 67.8614 59.6612 67.8614C60.4266 67.8614 61.0099 67.6887 61.4112 67.3434C61.8126 66.9981 62.0132 66.5641 62.0132 66.0414C62.0132 65.6774 61.9199 65.3881 61.7332 65.1734C61.5559 64.9587 61.3039 64.7861 60.9772 64.6554C60.6506 64.5154 60.2679 64.3941 59.8292 64.2914L59.1012 64.1094C58.5319 63.9601 58.0279 63.7781 57.5892 63.5634C57.1506 63.3487 56.8052 63.0687 56.5532 62.7234C56.3106 62.3687 56.1892 61.9161 56.1892 61.3654C56.1892 60.8147 56.3246 60.3387 56.5952 59.9374C56.8752 59.5361 57.2626 59.2281 57.7572 59.0134C58.2612 58.7987 58.8399 58.6914 59.4932 58.6914C60.1559 58.6914 60.7486 58.8081 61.2712 59.0414C61.8032 59.2654 62.2186 59.6014 62.5172 60.0494C62.8252 60.4881 62.9792 61.0434 62.9792 61.7154V62.3034H61.8172V61.7154C61.8172 61.2394 61.7146 60.8567 61.5092 60.5674C61.3132 60.2781 61.0379 60.0634 60.6832 59.9234C60.3379 59.7834 59.9412 59.7134 59.4932 59.7134C58.8492 59.7134 58.3312 59.8581 57.9392 60.1474C57.5472 60.4274 57.3512 60.8287 57.3512 61.3514C57.3512 61.6967 57.4352 61.9767 57.6032 62.1914C57.7712 62.4061 58.0092 62.5834 58.3172 62.7234C58.6252 62.8541 58.9939 62.9707 59.4232 63.0734L60.1512 63.2554C60.7206 63.3767 61.2292 63.5447 61.6772 63.7594C62.1346 63.9647 62.4986 64.2494 62.7692 64.6134C63.0399 64.9681 63.1752 65.4347 63.1752 66.0134C63.1752 66.5921 63.0306 67.0961 62.7412 67.5254C62.4519 67.9547 62.0412 68.2907 61.5092 68.5334C60.9866 68.7667 60.3706 68.8834 59.6612 68.8834ZM65.0272 68.6874V58.8874H66.1332V68.6874H65.0272ZM71.6228 68.8834C70.9321 68.8834 70.3208 68.7387 69.7888 68.4494C69.2661 68.1601 68.8555 67.7541 68.5568 67.2314C68.2675 66.6994 68.1228 66.0741 68.1228 65.3554V65.1734C68.1228 64.4641 68.2675 63.8434 68.5568 63.3114C68.8555 62.7794 69.2661 62.3687 69.7888 62.0794C70.3208 61.7901 70.9321 61.6454 71.6228 61.6454C72.3135 61.6454 72.9201 61.7901 73.4428 62.0794C73.9748 62.3687 74.3855 62.7794 74.6748 63.3114C74.9735 63.8434 75.1228 64.4641 75.1228 65.1734V65.3554C75.1228 66.0741 74.9735 66.6994 74.6748 67.2314C74.3855 67.7541 73.9748 68.1601 73.4428 68.4494C72.9201 68.7387 72.3135 68.8834 71.6228 68.8834ZM71.6228 67.8894C72.3508 67.8894 72.9295 67.6607 73.3588 67.2034C73.7975 66.7367 74.0168 66.1114 74.0168 65.3274V65.2014C74.0168 64.4174 73.7975 63.7967 73.3588 63.3394C72.9295 62.8727 72.3508 62.6394 71.6228 62.6394C70.9041 62.6394 70.3255 62.8727 69.8868 63.3394C69.4481 63.7967 69.2288 64.4174 69.2288 65.2014V65.3274C69.2288 66.1114 69.4481 66.7367 69.8868 67.2034C70.3255 67.6607 70.9041 67.8894 71.6228 67.8894ZM77.9284 68.6874L76.5564 61.8414H77.6764L78.8104 67.9454H79.0064L80.5044 61.8414H82.3384L83.8364 67.9454H84.0324L85.1664 61.8414H86.2864L84.9144 68.6874H83.0244L81.5124 62.5834H81.3304L79.8184 68.6874H77.9284ZM88.1873 68.6874V61.8414H89.2933V68.6874H88.1873ZM88.7473 60.7774C88.5046 60.7774 88.2993 60.6981 88.1313 60.5394C87.9726 60.3807 87.8933 60.1801 87.8933 59.9374C87.8933 59.6854 87.9726 59.4801 88.1313 59.3214C88.2993 59.1627 88.5046 59.0834 88.7473 59.0834C88.99 59.0834 89.1906 59.1627 89.3493 59.3214C89.508 59.4801 89.5873 59.6854 89.5873 59.9374C89.5873 60.1801 89.508 60.3807 89.3493 60.5394C89.1906 60.6981 88.99 60.7774 88.7473 60.7774ZM91.619 68.6874V61.8414H92.697V63.0034H92.893C93.0423 62.6767 93.2943 62.3827 93.649 62.1214C94.013 61.8507 94.545 61.7154 95.245 61.7154C95.7583 61.7154 96.2156 61.8227 96.617 62.0374C97.0276 62.2521 97.3543 62.5694 97.597 62.9894C97.8396 63.4094 97.961 63.9274 97.961 64.5434V68.6874H96.855V64.6274C96.855 63.9461 96.6823 63.4514 96.337 63.1434C96.001 62.8354 95.5436 62.6814 94.965 62.6814C94.3023 62.6814 93.761 62.8961 93.341 63.3254C92.9303 63.7547 92.725 64.3941 92.725 65.2434V68.6874H91.619ZM99.8689 65.2994V65.1034C99.8689 64.3847 100.014 63.7687 100.303 63.2554C100.592 62.7421 100.984 62.3454 101.479 62.0654C101.974 61.7854 102.515 61.6454 103.103 61.6454C103.822 61.6454 104.372 61.7854 104.755 62.0654C105.147 62.3361 105.436 62.6394 105.623 62.9754H105.819V61.8414H106.869V70.2834C106.869 70.6567 106.766 70.9507 106.561 71.1654C106.356 71.3801 106.057 71.4874 105.665 71.4874H101.017V70.5074H105.371C105.651 70.5074 105.791 70.3674 105.791 70.0874V67.4834H105.595C105.483 67.6887 105.324 67.8894 105.119 68.0854C104.914 68.2814 104.648 68.4447 104.321 68.5754C103.994 68.6967 103.588 68.7574 103.103 68.7574C102.515 68.7574 101.974 68.6174 101.479 68.3374C100.984 68.0574 100.592 67.6607 100.303 67.1474C100.014 66.6247 99.8689 66.0087 99.8689 65.2994ZM103.397 67.7774C104.106 67.7774 104.68 67.5534 105.119 67.1054C105.567 66.6574 105.791 66.0414 105.791 65.2574V65.1454C105.791 64.3521 105.567 63.7361 105.119 63.2974C104.68 62.8494 104.106 62.6254 103.397 62.6254C102.697 62.6254 102.118 62.8494 101.661 63.2974C101.213 63.7361 100.989 64.3521 100.989 65.1454V65.2574C100.989 66.0414 101.213 66.6574 101.661 67.1054C102.118 67.5534 102.697 67.7774 103.397 67.7774Z" fill="white"/>
<path d="M202.75 54.4165L206.833 58.4999M206.833 58.4999L202.75 62.5832M206.833 58.4999H197.5" stroke="white" stroke-width="1.5" stroke-linecap="round" stroke-linejoin="round"/>
<path d="M217.953 10.0002V0.200195H223.987V1.2642H219.129V4.5402H223.595V5.6042H219.129V8.9362H224.057V10.0002H217.953ZM225.324 10.0002L228.068 6.5282L225.408 3.1542H226.738L228.782 5.8002H228.978L231.008 3.1542H232.352L229.678 6.5282L232.422 10.0002H231.078L228.978 7.2702H228.782L226.682 10.0002H225.324ZM234.183 12.8002V3.1542H235.261V4.2882H235.457C235.634 3.94287 235.919 3.63487 236.311 3.3642C236.712 3.09353 237.268 2.9582 237.977 2.9582C238.565 2.9582 239.102 3.10287 239.587 3.3922C240.082 3.6722 240.474 4.07353 240.763 4.5962C241.062 5.11887 241.211 5.74887 241.211 6.4862V6.6682C241.211 7.3962 241.066 8.0262 240.777 8.5582C240.488 9.0902 240.096 9.4962 239.601 9.7762C239.116 10.0562 238.574 10.1962 237.977 10.1962C237.501 10.1962 237.095 10.1309 236.759 10.0002C236.432 9.87887 236.166 9.7202 235.961 9.5242C235.756 9.3282 235.597 9.12753 235.485 8.9222H235.289V12.8002H234.183ZM237.683 9.2162C238.392 9.2162 238.966 8.9922 239.405 8.5442C239.853 8.08687 240.077 7.4522 240.077 6.6402V6.5142C240.077 5.7022 239.853 5.0722 239.405 4.6242C238.966 4.16687 238.392 3.9382 237.683 3.9382C236.983 3.9382 236.404 4.16687 235.947 4.6242C235.499 5.0722 235.275 5.7022 235.275 6.5142V6.6402C235.275 7.4522 235.499 8.08687 235.947 8.5442C236.404 8.9922 236.983 9.2162 237.683 9.2162ZM243.193 10.0002V0.200195H244.299V10.0002H243.193ZM249.788 10.1962C249.098 10.1962 248.486 10.0515 247.954 9.7622C247.432 9.47287 247.021 9.06687 246.722 8.5442C246.433 8.0122 246.288 7.38687 246.288 6.6682V6.4862C246.288 5.77687 246.433 5.1562 246.722 4.6242C247.021 4.0922 247.432 3.68153 247.954 3.3922C248.486 3.10287 249.098 2.9582 249.788 2.9582C250.479 2.9582 251.086 3.10287 251.608 3.3922C252.14 3.68153 252.551 4.0922 252.84 4.6242C253.139 5.1562 253.288 5.77687 253.288 6.4862V6.6682C253.288 7.38687 253.139 8.0122 252.84 8.5442C252.551 9.06687 252.14 9.47287 251.608 9.7622C251.086 10.0515 250.479 10.1962 249.788 10.1962ZM249.788 9.2022C250.516 9.2022 251.095 8.97353 251.524 8.5162C251.963 8.04953 252.182 7.4242 252.182 6.6402V6.5142C252.182 5.7302 251.963 5.10953 251.524 4.6522C251.095 4.18553 250.516 3.9522 249.788 3.9522C249.07 3.9522 248.491 4.18553 248.052 4.6522C247.614 5.10953 247.394 5.7302 247.394 6.5142V6.6402C247.394 7.4242 247.614 8.04953 248.052 8.5162C248.491 8.97353 249.07 9.2022 249.788 9.2022ZM258.037 10.1962C257.187 10.1962 256.469 10.0002 255.881 9.6082C255.302 9.2162 254.952 8.59553 254.831 7.7462L255.881 7.5082C255.955 7.9562 256.095 8.31087 256.301 8.5722C256.506 8.8242 256.758 9.0062 257.057 9.1182C257.365 9.22087 257.691 9.2722 258.037 9.2722C258.55 9.2722 258.956 9.16953 259.255 8.9642C259.553 8.75887 259.703 8.48353 259.703 8.1382C259.703 7.78353 259.558 7.5362 259.269 7.3962C258.989 7.24687 258.601 7.12553 258.107 7.0322L257.533 6.9342C257.094 6.85953 256.693 6.74287 256.329 6.5842C255.965 6.42553 255.675 6.21087 255.461 5.9402C255.246 5.66953 255.139 5.32887 255.139 4.9182C255.139 4.3022 255.377 3.82153 255.853 3.4762C256.329 3.13087 256.959 2.9582 257.743 2.9582C258.517 2.9582 259.143 3.13553 259.619 3.4902C260.104 3.83553 260.417 4.32553 260.557 4.9602L259.521 5.2262C259.437 4.73153 259.236 4.3862 258.919 4.1902C258.601 3.98487 258.209 3.8822 257.743 3.8822C257.276 3.8822 256.907 3.97087 256.637 4.1482C256.366 4.3162 256.231 4.5682 256.231 4.9042C256.231 5.23087 256.357 5.47353 256.609 5.6322C256.87 5.78153 257.215 5.89353 257.645 5.9682L258.219 6.0662C258.704 6.1502 259.138 6.26687 259.521 6.4162C259.913 6.5562 260.221 6.76153 260.445 7.0322C260.678 7.30287 260.795 7.65753 260.795 8.0962C260.795 8.7682 260.543 9.2862 260.039 9.6502C259.544 10.0142 258.877 10.1962 258.037 10.1962ZM262.662 10.0002V3.1542H263.768V10.0002H262.662ZM263.222 2.0902C262.979 2.0902 262.774 2.01087 262.606 1.8522C262.447 1.69353 262.368 1.49287 262.368 1.2502C262.368 0.998196 262.447 0.792862 262.606 0.634196C262.774 0.475529 262.979 0.396195 263.222 0.396195C263.464 0.396195 263.665 0.475529 263.824 0.634196C263.982 0.792862 264.062 0.998196 264.062 1.2502C264.062 1.49287 263.982 1.69353 263.824 1.8522C263.665 2.01087 263.464 2.0902 263.222 2.0902ZM267.829 10.0002L265.379 3.1542H266.555L268.613 9.1742H268.809L270.867 3.1542H272.043L269.593 10.0002H267.829ZM276.489 10.1962C275.798 10.1962 275.192 10.0515 274.669 9.7622C274.146 9.46353 273.74 9.0482 273.451 8.5162C273.162 7.9842 273.017 7.3682 273.017 6.6682V6.5002C273.017 5.79087 273.162 5.1702 273.451 4.6382C273.74 4.1062 274.142 3.69553 274.655 3.4062C275.168 3.10753 275.756 2.9582 276.419 2.9582C277.063 2.9582 277.632 3.0982 278.127 3.3782C278.622 3.64887 279.009 4.04087 279.289 4.5542C279.569 5.06753 279.709 5.66953 279.709 6.3602V6.8642H274.123C274.151 7.60153 274.389 8.1802 274.837 8.6002C275.285 9.01087 275.845 9.2162 276.517 9.2162C277.105 9.2162 277.558 9.08087 277.875 8.8102C278.192 8.53953 278.435 8.21753 278.603 7.8442L279.555 8.3062C279.415 8.59553 279.219 8.88487 278.967 9.1742C278.724 9.46353 278.402 9.7062 278.001 9.9022C277.609 10.0982 277.105 10.1962 276.489 10.1962ZM274.137 5.9542H278.589C278.552 5.31953 278.332 4.82487 277.931 4.4702C277.539 4.11553 277.035 3.9382 276.419 3.9382C275.794 3.9382 275.28 4.11553 274.879 4.4702C274.478 4.82487 274.23 5.31953 274.137 5.9542Z" fill="#C9C9C9" fill-opacity="0.6"/>
<path d="M221.369 28.1959C220.641 28.1959 219.997 28.0466 219.437 27.7479C218.887 27.4399 218.453 26.9919 218.135 26.4039C217.827 25.8159 217.673 25.0879 217.673 24.2199V21.9799C217.673 20.6826 218.019 19.6979 218.709 19.0259C219.4 18.3446 220.329 18.0039 221.495 18.0039C222.653 18.0039 223.535 18.3212 224.141 18.9559C224.748 19.5906 225.051 20.4399 225.051 21.5039V21.5739H223.889V21.4759C223.889 21.0092 223.805 20.5939 223.637 20.2299C223.469 19.8659 223.208 19.5812 222.853 19.3759C222.499 19.1612 222.046 19.0539 221.495 19.0539C220.665 19.0539 220.016 19.3106 219.549 19.8239C219.083 20.3279 218.849 21.0372 218.849 21.9519V24.2479C218.849 25.1626 219.083 25.8766 219.549 26.3899C220.016 26.8939 220.669 27.1459 221.509 27.1459C222.331 27.1459 222.933 26.9126 223.315 26.4459C223.707 25.9792 223.903 25.3586 223.903 24.5839V24.3459H220.935V23.3379H225.051V27.9999H223.987V26.9359H223.791C223.689 27.1412 223.544 27.3419 223.357 27.5379C223.171 27.7339 222.919 27.8926 222.601 28.0139C222.284 28.1352 221.873 28.1959 221.369 28.1959ZM227.238 27.9999V21.1539H228.316V21.9939H228.512C228.633 21.6952 228.82 21.4759 229.072 21.3359C229.324 21.1959 229.655 21.1259 230.066 21.1259H230.878V22.1339H229.996C229.501 22.1339 229.1 22.2739 228.792 22.5539C228.493 22.8246 228.344 23.2492 228.344 23.8279V27.9999H227.238ZM235.433 28.1959C234.742 28.1959 234.131 28.0512 233.599 27.7619C233.076 27.4726 232.666 27.0666 232.367 26.5439C232.078 26.0119 231.933 25.3866 231.933 24.6679V24.4859C231.933 23.7766 232.078 23.1559 232.367 22.6239C232.666 22.0919 233.076 21.6812 233.599 21.3919C234.131 21.1026 234.742 20.9579 235.433 20.9579C236.124 20.9579 236.73 21.1026 237.253 21.3919C237.785 21.6812 238.196 22.0919 238.485 22.6239C238.784 23.1559 238.933 23.7766 238.933 24.4859V24.6679C238.933 25.3866 238.784 26.0119 238.485 26.5439C238.196 27.0666 237.785 27.4726 237.253 27.7619C236.73 28.0512 236.124 28.1959 235.433 28.1959ZM235.433 27.2019C236.161 27.2019 236.74 26.9732 237.169 26.5159C237.608 26.0492 237.827 25.4239 237.827 24.6399V24.5139C237.827 23.7299 237.608 23.1092 237.169 22.6519C236.74 22.1852 236.161 21.9519 235.433 21.9519C234.714 21.9519 234.136 22.1852 233.697 22.6519C233.258 23.1092 233.039 23.7299 233.039 24.5139V24.6399C233.039 25.4239 233.258 26.0492 233.697 26.5159C234.136 26.9732 234.714 27.2019 235.433 27.2019ZM241.739 27.9999L240.367 21.1539H241.487L242.621 27.2579H242.817L244.315 21.1539H246.149L247.647 27.2579H247.843L248.977 21.1539H250.097L248.725 27.9999H246.835L245.323 21.8959H245.141L243.629 27.9999H241.739ZM251.997 27.9999V21.1539H253.103V27.9999H251.997ZM252.557 20.0899C252.315 20.0899 252.109 20.0106 251.941 19.8519C251.783 19.6932 251.703 19.4926 251.703 19.2499C251.703 18.9979 251.783 18.7926 251.941 18.6339C252.109 18.4752 252.315 18.3959 252.557 18.3959C252.8 18.3959 253.001 18.4752 253.159 18.6339C253.318 18.7926 253.397 18.9979 253.397 19.2499C253.397 19.4926 253.318 19.6932 253.159 19.8519C253.001 20.0106 252.8 20.0899 252.557 20.0899ZM255.429 27.9999V21.1539H256.507V22.3159H256.703C256.852 21.9892 257.104 21.6952 257.459 21.4339C257.823 21.1632 258.355 21.0279 259.055 21.0279C259.568 21.0279 260.026 21.1352 260.427 21.3499C260.838 21.5646 261.164 21.8819 261.407 22.3019C261.65 22.7219 261.771 23.2399 261.771 23.8559V27.9999H260.665V23.9399C260.665 23.2586 260.492 22.7639 260.147 22.4559C259.811 22.1479 259.354 21.9939 258.775 21.9939C258.112 21.9939 257.571 22.2086 257.151 22.6379C256.74 23.0672 256.535 23.7066 256.535 24.5559V27.9999H255.429ZM263.679 24.6119V24.4159C263.679 23.6972 263.824 23.0812 264.113 22.5679C264.402 22.0546 264.794 21.6579 265.289 21.3779C265.784 21.0979 266.325 20.9579 266.913 20.9579C267.632 20.9579 268.182 21.0979 268.565 21.3779C268.957 21.6486 269.246 21.9519 269.433 22.2879H269.629V21.1539H270.679V29.5959C270.679 29.9692 270.576 30.2632 270.371 30.4779C270.166 30.6926 269.867 30.7999 269.475 30.7999H264.827V29.8199H269.181C269.461 29.8199 269.601 29.6799 269.601 29.3999V26.7959H269.405C269.293 27.0012 269.134 27.2019 268.929 27.3979C268.724 27.5939 268.458 27.7572 268.131 27.8879C267.804 28.0092 267.398 28.0699 266.913 28.0699C266.325 28.0699 265.784 27.9299 265.289 27.6499C264.794 27.3699 264.402 26.9732 264.113 26.4599C263.824 25.9372 263.679 25.3212 263.679 24.6119ZM267.207 27.0899C267.916 27.0899 268.49 26.8659 268.929 26.4179C269.377 25.9699 269.601 25.3539 269.601 24.5699V24.4579C269.601 23.6646 269.377 23.0486 268.929 22.6099C268.49 22.1619 267.916 21.9379 267.207 21.9379C266.507 21.9379 265.928 22.1619 265.471 22.6099C265.023 23.0486 264.799 23.6646 264.799 24.4579V24.5699C264.799 25.3539 265.023 25.9699 265.471 26.4179C265.928 26.8659 266.507 27.0899 267.207 27.0899Z" fill="#C9C9C9" fill-opacity="0.6"/>
<path d="M221.215 46.1959C220.506 46.1959 219.871 46.0699 219.311 45.8179C218.751 45.5659 218.308 45.1879 217.981 44.6839C217.664 44.1706 217.505 43.5312 217.505 42.7659V42.4719H218.667V42.7659C218.667 43.5779 218.905 44.1846 219.381 44.5859C219.857 44.9779 220.469 45.1739 221.215 45.1739C221.981 45.1739 222.564 45.0012 222.965 44.6559C223.367 44.3106 223.567 43.8766 223.567 43.3539C223.567 42.9899 223.474 42.7006 223.287 42.4859C223.11 42.2712 222.858 42.0986 222.531 41.9679C222.205 41.8279 221.822 41.7066 221.383 41.6039L220.655 41.4219C220.086 41.2726 219.582 41.0906 219.143 40.8759C218.705 40.6612 218.359 40.3812 218.107 40.0359C217.865 39.6812 217.743 39.2286 217.743 38.6779C217.743 38.1272 217.879 37.6512 218.149 37.2499C218.429 36.8486 218.817 36.5406 219.311 36.3259C219.815 36.1112 220.394 36.0039 221.047 36.0039C221.71 36.0039 222.303 36.1206 222.825 36.3539C223.357 36.5779 223.773 36.9139 224.071 37.3619C224.379 37.8006 224.533 38.3559 224.533 39.0279V39.6159H223.371V39.0279C223.371 38.5519 223.269 38.1692 223.063 37.8799C222.867 37.5906 222.592 37.3759 222.237 37.2359C221.892 37.0959 221.495 37.0259 221.047 37.0259C220.403 37.0259 219.885 37.1706 219.493 37.4599C219.101 37.7399 218.905 38.1412 218.905 38.6639C218.905 39.0092 218.989 39.2892 219.157 39.5039C219.325 39.7186 219.563 39.8959 219.871 40.0359C220.179 40.1666 220.548 40.2832 220.977 40.3859L221.705 40.5679C222.275 40.6892 222.783 40.8572 223.231 41.0719C223.689 41.2772 224.053 41.5619 224.323 41.9259C224.594 42.2806 224.729 42.7472 224.729 43.3259C224.729 43.9046 224.585 44.4086 224.295 44.8379C224.006 45.2672 223.595 45.6032 223.063 45.8459C222.541 46.0792 221.925 46.1959 221.215 46.1959ZM229.101 45.9999C228.709 45.9999 228.406 45.8926 228.191 45.6779C227.986 45.4632 227.883 45.1692 227.883 44.7959V40.1199H225.825V39.1539H227.883V36.7179H228.989V39.1539H231.229V40.1199H228.989V44.6279C228.989 44.9079 229.125 45.0479 229.395 45.0479H230.921V45.9999H229.101ZM235.911 46.1959C235.22 46.1959 234.613 46.0512 234.091 45.7619C233.568 45.4632 233.162 45.0479 232.873 44.5159C232.583 43.9839 232.439 43.3679 232.439 42.6679V42.4999C232.439 41.7906 232.583 41.1699 232.873 40.6379C233.162 40.1059 233.563 39.6952 234.077 39.4059C234.59 39.1072 235.178 38.9579 235.841 38.9579C236.485 38.9579 237.054 39.0979 237.549 39.3779C238.043 39.6486 238.431 40.0406 238.711 40.5539C238.991 41.0672 239.131 41.6692 239.131 42.3599V42.8639H233.545C233.573 43.6012 233.811 44.1799 234.259 44.5999C234.707 45.0106 235.267 45.2159 235.939 45.2159C236.527 45.2159 236.979 45.0806 237.297 44.8099C237.614 44.5392 237.857 44.2172 238.025 43.8439L238.977 44.3059C238.837 44.5952 238.641 44.8846 238.389 45.1739C238.146 45.4632 237.824 45.7059 237.423 45.9019C237.031 46.0979 236.527 46.1959 235.911 46.1959ZM233.559 41.9539H238.011C237.973 41.3192 237.754 40.8246 237.353 40.4699C236.961 40.1152 236.457 39.9379 235.841 39.9379C235.215 39.9379 234.702 40.1152 234.301 40.4699C233.899 40.8246 233.652 41.3192 233.559 41.9539ZM243.16 46.1959C242.684 46.1959 242.25 46.1119 241.858 45.9439C241.466 45.7759 241.158 45.5332 240.934 45.2159C240.71 44.8986 240.598 44.5112 240.598 44.0539C240.598 43.5872 240.71 43.2046 240.934 42.9059C241.158 42.5979 241.466 42.3692 241.858 42.2199C242.25 42.0612 242.689 41.9819 243.174 41.9819H245.484V41.4779C245.484 40.9926 245.339 40.6099 245.05 40.3299C244.77 40.0499 244.35 39.9099 243.79 39.9099C243.239 39.9099 242.81 40.0452 242.502 40.3159C242.194 40.5772 241.984 40.9319 241.872 41.3799L240.836 41.0439C240.948 40.6612 241.125 40.3159 241.368 40.0079C241.611 39.6906 241.933 39.4386 242.334 39.2519C242.745 39.0559 243.235 38.9579 243.804 38.9579C244.681 38.9579 245.363 39.1866 245.848 39.6439C246.333 40.0919 246.576 40.7266 246.576 41.5479V44.6419C246.576 44.9219 246.707 45.0619 246.968 45.0619H247.598V45.9999H246.632C246.324 45.9999 246.077 45.9159 245.89 45.7479C245.703 45.5706 245.61 45.3372 245.61 45.0479V44.9779H245.442C245.339 45.1552 245.199 45.3419 245.022 45.5379C244.854 45.7246 244.621 45.8786 244.322 45.9999C244.023 46.1306 243.636 46.1959 243.16 46.1959ZM243.286 45.2439C243.939 45.2439 244.467 45.0526 244.868 44.6699C245.279 44.2779 245.484 43.7319 245.484 43.0319V42.8779H243.216C242.777 42.8779 242.413 42.9759 242.124 43.1719C241.844 43.3586 241.704 43.6432 241.704 44.0259C241.704 44.4086 241.849 44.7072 242.138 44.9219C242.437 45.1366 242.819 45.2439 243.286 45.2439ZM251.819 46.1959C251.231 46.1959 250.69 46.0559 250.195 45.7759C249.701 45.4959 249.309 45.0899 249.019 44.5579C248.73 44.0259 248.585 43.3959 248.585 42.6679V42.4859C248.585 41.7579 248.73 41.1326 249.019 40.6099C249.309 40.0779 249.696 39.6719 250.181 39.3919C250.676 39.1026 251.222 38.9579 251.819 38.9579C252.295 38.9579 252.697 39.0232 253.023 39.1539C253.359 39.2752 253.63 39.4339 253.835 39.6299C254.041 39.8166 254.199 40.0172 254.311 40.2319H254.507V36.1999H255.613V45.9999H254.535V44.8659H254.339C254.153 45.2112 253.863 45.5192 253.471 45.7899C253.079 46.0606 252.529 46.1959 251.819 46.1959ZM252.113 45.2159C252.823 45.2159 253.397 44.9919 253.835 44.5439C254.283 44.0866 254.507 43.4519 254.507 42.6399V42.5139C254.507 41.7019 254.283 41.0719 253.835 40.6239C253.397 40.1666 252.823 39.9379 252.113 39.9379C251.413 39.9379 250.835 40.1666 250.377 40.6239C249.929 41.0719 249.705 41.7019 249.705 42.5139V42.6399C249.705 43.4519 249.929 44.0866 250.377 44.5439C250.835 44.9919 251.413 45.2159 252.113 45.2159ZM258.757 48.7999V47.8199H262.677C262.948 47.8199 263.083 47.6799 263.083 47.3999V44.9079H262.887C262.794 45.1039 262.649 45.2999 262.453 45.4959C262.266 45.6826 262.019 45.8366 261.711 45.9579C261.403 46.0699 261.016 46.1259 260.549 46.1259C260.054 46.1259 259.597 46.0186 259.177 45.8039C258.766 45.5892 258.44 45.2719 258.197 44.8519C257.964 44.4319 257.847 43.9186 257.847 43.3119V39.1539H258.953V43.2279C258.953 43.8999 259.121 44.3899 259.457 44.6979C259.802 45.0059 260.264 45.1599 260.843 45.1599C261.496 45.1599 262.033 44.9452 262.453 44.5159C262.873 44.0866 263.083 43.4472 263.083 42.5979V39.1539H264.189V47.5959C264.189 47.9692 264.082 48.2632 263.867 48.4779C263.662 48.6926 263.358 48.7999 262.957 48.7999H258.757Z" fill="#C9C9C9" fill-opacity="0.6"/>
<path d="M221.187 64.1959C220.45 64.1959 219.797 64.0652 219.227 63.8039C218.658 63.5426 218.21 63.1599 217.883 62.6559C217.566 62.1426 217.407 61.5219 217.407 60.7939V60.4439H218.905V60.7939C218.905 61.4846 219.111 62.0026 219.521 62.3479C219.941 62.6932 220.497 62.8659 221.187 62.8659C221.887 62.8659 222.415 62.7212 222.769 62.4319C223.124 62.1332 223.301 61.7506 223.301 61.2839C223.301 60.9759 223.217 60.7239 223.049 60.5279C222.881 60.3319 222.643 60.1779 222.335 60.0659C222.027 59.9446 221.659 59.8326 221.229 59.7299L220.711 59.6039C220.086 59.4546 219.54 59.2726 219.073 59.0579C218.616 58.8339 218.261 58.5399 218.009 58.1759C217.757 57.8119 217.631 57.3452 217.631 56.7759C217.631 56.1972 217.771 55.7026 218.051 55.2919C218.341 54.8812 218.737 54.5639 219.241 54.3399C219.745 54.1159 220.338 54.0039 221.019 54.0039C221.701 54.0039 222.307 54.1206 222.839 54.3539C223.381 54.5872 223.805 54.9326 224.113 55.3899C224.421 55.8472 224.575 56.4212 224.575 57.1119V57.6159H223.077V57.1119C223.077 56.6919 222.989 56.3512 222.811 56.0899C222.643 55.8286 222.405 55.6372 222.097 55.5159C221.789 55.3946 221.43 55.3339 221.019 55.3339C220.422 55.3339 219.955 55.4599 219.619 55.7119C219.293 55.9546 219.129 56.2952 219.129 56.7339C219.129 57.0326 219.199 57.2799 219.339 57.4759C219.489 57.6626 219.703 57.8166 219.983 57.9379C220.263 58.0592 220.613 58.1666 221.033 58.2599L221.551 58.3859C222.186 58.5259 222.746 58.7079 223.231 58.9319C223.717 59.1466 224.099 59.4406 224.379 59.8139C224.659 60.1872 224.799 60.6679 224.799 61.2559C224.799 61.8439 224.65 62.3572 224.351 62.7959C224.062 63.2346 223.647 63.5799 223.105 63.8319C222.564 64.0746 221.925 64.1959 221.187 64.1959ZM226.429 63.9999V54.1999H227.871V63.9999H226.429ZM233.245 64.1959C232.554 64.1959 231.938 64.0559 231.397 63.7759C230.865 63.4866 230.445 63.0759 230.137 62.5439C229.829 62.0119 229.675 61.3819 229.675 60.6539V60.4439C229.675 59.7159 229.829 59.0906 230.137 58.5679C230.445 58.0359 230.865 57.6252 231.397 57.3359C231.938 57.0466 232.554 56.9019 233.245 56.9019C233.935 56.9019 234.551 57.0466 235.093 57.3359C235.634 57.6252 236.059 58.0359 236.367 58.5679C236.675 59.0906 236.829 59.7159 236.829 60.4439V60.6539C236.829 61.3819 236.675 62.0119 236.367 62.5439C236.059 63.0759 235.634 63.4866 235.093 63.7759C234.551 64.0559 233.935 64.1959 233.245 64.1959ZM233.245 62.9079C233.879 62.9079 234.393 62.7072 234.785 62.3059C235.186 61.8952 235.387 61.3306 235.387 60.6119V60.4859C235.387 59.7672 235.191 59.2072 234.799 58.8059C234.407 58.3952 233.889 58.1899 233.245 58.1899C232.619 58.1899 232.106 58.3952 231.705 58.8059C231.313 59.2072 231.117 59.7672 231.117 60.4859V60.6119C231.117 61.3306 231.313 61.8952 231.705 62.3059C232.106 62.7072 232.619 62.9079 233.245 62.9079ZM239.298 63.9999L238.122 57.0979H239.564L240.432 63.0339H240.656L241.86 57.0979H244.198L245.388 63.0339H245.612L246.48 57.0979H247.922L246.746 63.9999H244.324L243.134 58.0779H242.91L241.72 63.9999H239.298ZM249.63 63.9999V57.0979H251.072V63.9999H249.63ZM250.358 56.1599C250.078 56.1599 249.84 56.0712 249.644 55.8939C249.457 55.7072 249.364 55.4692 249.364 55.1799C249.364 54.8906 249.457 54.6572 249.644 54.4799C249.84 54.2932 250.078 54.1999 250.358 54.1999C250.647 54.1999 250.885 54.2932 251.072 54.4799C251.259 54.6572 251.352 54.8906 251.352 55.1799C251.352 55.4692 251.259 55.7072 251.072 55.8939C250.885 56.0712 250.647 56.1599 250.358 56.1599ZM253.212 63.9999V57.0979H254.626V58.1339H254.85C254.981 57.8539 255.214 57.5926 255.55 57.3499C255.886 57.1072 256.385 56.9859 257.048 56.9859C257.571 56.9859 258.033 57.1026 258.434 57.3359C258.845 57.5692 259.167 57.9006 259.4 58.3299C259.633 58.7499 259.75 59.2586 259.75 59.8559V63.9999H258.308V59.9679C258.308 59.3706 258.159 58.9319 257.86 58.6519C257.561 58.3626 257.151 58.2179 256.628 58.2179C256.031 58.2179 255.55 58.4139 255.186 58.8059C254.831 59.1979 254.654 59.7672 254.654 60.5139V63.9999H253.212ZM261.489 60.5839V60.3739C261.489 59.6459 261.634 59.0252 261.923 58.5119C262.222 57.9986 262.614 57.6019 263.099 57.3219C263.585 57.0419 264.117 56.9019 264.695 56.9019C265.367 56.9019 265.881 57.0279 266.235 57.2799C266.599 57.5319 266.865 57.8026 267.033 58.0919H267.257V57.0979H268.657V65.4139C268.657 65.8339 268.531 66.1699 268.279 66.4219C268.037 66.6739 267.701 66.7999 267.271 66.7999H262.623V65.5399H266.823C267.094 65.5399 267.229 65.3999 267.229 65.1199V62.9219H267.005C266.903 63.0899 266.758 63.2626 266.571 63.4399C266.385 63.6172 266.137 63.7619 265.829 63.8739C265.531 63.9859 265.153 64.0419 264.695 64.0419C264.117 64.0419 263.58 63.9066 263.085 63.6359C262.6 63.3559 262.213 62.9592 261.923 62.4459C261.634 61.9232 261.489 61.3026 261.489 60.5839ZM265.087 62.7819C265.713 62.7819 266.226 62.5859 266.627 62.1939C267.038 61.7926 267.243 61.2419 267.243 60.5419V60.4159C267.243 59.6972 267.043 59.1466 266.641 58.7639C266.24 58.3719 265.722 58.1759 265.087 58.1759C264.471 58.1759 263.958 58.3719 263.547 58.7639C263.146 59.1466 262.945 59.6972 262.945 60.4159V60.5419C262.945 61.2419 263.146 61.7926 263.547 62.1939C263.958 62.5859 264.471 62.7819 265.087 62.7819Z" fill="white"/>
<path d="M217.491 82.0002V80.9502H218.863V73.2502H217.491V72.2002H221.313C222.601 72.2002 223.595 72.5269 224.295 73.1802C225.005 73.8335 225.359 74.8369 225.359 76.1902V78.0102C225.359 79.3729 225.005 80.3809 224.295 81.0342C223.595 81.6782 222.601 82.0002 221.313 82.0002H217.491ZM220.039 80.9362H221.313C222.265 80.9362 222.984 80.7029 223.469 80.2362C223.955 79.7695 224.197 79.0462 224.197 78.0662V76.1482C224.197 75.1495 223.955 74.4215 223.469 73.9642C222.984 73.5069 222.265 73.2782 221.313 73.2782H220.039V80.9362ZM230.415 82.1962C229.724 82.1962 229.117 82.0515 228.595 81.7622C228.072 81.4635 227.666 81.0482 227.377 80.5162C227.087 79.9842 226.943 79.3682 226.943 78.6682V78.5002C226.943 77.7909 227.087 77.1702 227.377 76.6382C227.666 76.1062 228.067 75.6955 228.581 75.4062C229.094 75.1075 229.682 74.9582 230.345 74.9582C230.989 74.9582 231.558 75.0982 232.053 75.3782C232.547 75.6489 232.935 76.0409 233.215 76.5542C233.495 77.0675 233.635 77.6695 233.635 78.3602V78.8642H228.049C228.077 79.6015 228.315 80.1802 228.763 80.6002C229.211 81.0109 229.771 81.2162 230.443 81.2162C231.031 81.2162 231.483 81.0809 231.801 80.8102C232.118 80.5395 232.361 80.2175 232.529 79.8442L233.481 80.3062C233.341 80.5955 233.145 80.8849 232.893 81.1742C232.65 81.4635 232.328 81.7062 231.927 81.9022C231.535 82.0982 231.031 82.1962 230.415 82.1962ZM228.063 77.9542H232.515C232.477 77.3195 232.258 76.8249 231.857 76.4702C231.465 76.1155 230.961 75.9382 230.345 75.9382C229.719 75.9382 229.206 76.1155 228.805 76.4702C228.403 76.8249 228.156 77.3195 228.063 77.9542ZM238.714 82.1962C238.051 82.1962 237.454 82.0562 236.922 81.7762C236.399 81.4869 235.984 81.0762 235.676 80.5442C235.377 80.0122 235.228 79.3822 235.228 78.6542V78.5002C235.228 77.7629 235.377 77.1329 235.676 76.6102C235.984 76.0782 236.399 75.6722 236.922 75.3922C237.454 75.1029 238.051 74.9582 238.714 74.9582C239.367 74.9582 239.923 75.0795 240.38 75.3222C240.847 75.5649 241.211 75.8869 241.472 76.2882C241.743 76.6895 241.915 77.1189 241.99 77.5762L240.912 77.8002C240.865 77.4642 240.753 77.1562 240.576 76.8762C240.408 76.5962 240.17 76.3722 239.862 76.2042C239.554 76.0362 239.176 75.9522 238.728 75.9522C238.271 75.9522 237.86 76.0549 237.496 76.2602C237.141 76.4655 236.857 76.7595 236.642 77.1422C236.437 77.5249 236.334 77.9822 236.334 78.5142V78.6402C236.334 79.1722 236.437 79.6295 236.642 80.0122C236.857 80.3949 237.141 80.6889 237.496 80.8942C237.86 81.0995 238.271 81.2022 238.728 81.2022C239.409 81.2022 239.927 81.0249 240.282 80.6702C240.646 80.3155 240.87 79.8769 240.954 79.3542L242.046 79.5922C241.943 80.0402 241.757 80.4649 241.486 80.8662C241.215 81.2675 240.847 81.5895 240.38 81.8322C239.923 82.0749 239.367 82.1962 238.714 82.1962ZM243.931 82.0002V72.2002H245.037V82.0002H243.931ZM247.363 82.0002V75.1542H248.469V82.0002H247.363ZM247.923 74.0902C247.68 74.0902 247.475 74.0109 247.307 73.8522C247.148 73.6935 247.069 73.4929 247.069 73.2502C247.069 72.9982 247.148 72.7929 247.307 72.6342C247.475 72.4755 247.68 72.3962 247.923 72.3962C248.165 72.3962 248.366 72.4755 248.525 72.6342C248.683 72.7929 248.763 72.9982 248.763 73.2502C248.763 73.4929 248.683 73.6935 248.525 73.8522C248.366 74.0109 248.165 74.0902 247.923 74.0902ZM250.794 82.0002V75.1542H251.872V76.3162H252.068C252.218 75.9895 252.47 75.6955 252.824 75.4342C253.188 75.1635 253.72 75.0282 254.42 75.0282C254.934 75.0282 255.391 75.1355 255.792 75.3502C256.203 75.5649 256.53 75.8822 256.772 76.3022C257.015 76.7222 257.136 77.2402 257.136 77.8562V82.0002H256.03V77.9402C256.03 77.2589 255.858 76.7642 255.512 76.4562C255.176 76.1482 254.719 75.9942 254.14 75.9942C253.478 75.9942 252.936 76.2089 252.516 76.6382C252.106 77.0675 251.9 77.7069 251.9 78.5562V82.0002H250.794ZM259.38 82.0002V75.1542H260.486V82.0002H259.38ZM259.94 74.0902C259.698 74.0902 259.492 74.0109 259.324 73.8522C259.166 73.6935 259.086 73.4929 259.086 73.2502C259.086 72.9982 259.166 72.7929 259.324 72.6342C259.492 72.4755 259.698 72.3962 259.94 72.3962C260.183 72.3962 260.384 72.4755 260.542 72.6342C260.701 72.7929 260.78 72.9982 260.78 73.2502C260.78 73.4929 260.701 73.6935 260.542 73.8522C260.384 74.0109 260.183 74.0902 259.94 74.0902ZM262.812 82.0002V75.1542H263.89V76.3162H264.086C264.235 75.9895 264.487 75.6955 264.842 75.4342C265.206 75.1635 265.738 75.0282 266.438 75.0282C266.951 75.0282 267.409 75.1355 267.81 75.3502C268.221 75.5649 268.547 75.8822 268.79 76.3022C269.033 76.7222 269.154 77.2402 269.154 77.8562V82.0002H268.048V77.9402C268.048 77.2589 267.875 76.7642 267.53 76.4562C267.194 76.1482 266.737 75.9942 266.158 75.9942C265.495 75.9942 264.954 76.2089 264.534 76.6382C264.123 77.0675 263.918 77.7069 263.918 78.5562V82.0002H262.812ZM271.062 78.6122V78.4162C271.062 77.6975 271.207 77.0815 271.496 76.5682C271.785 76.0549 272.177 75.6582 272.672 75.3782C273.167 75.0982 273.708 74.9582 274.296 74.9582C275.015 74.9582 275.565 75.0982 275.948 75.3782C276.34 75.6489 276.629 75.9522 276.816 76.2882H277.012V75.1542H278.062V83.5962C278.062 83.9695 277.959 84.2635 277.754 84.4782C277.549 84.6929 277.25 84.8002 276.858 84.8002H272.21V83.8202H276.564C276.844 83.8202 276.984 83.6802 276.984 83.4002V80.7962H276.788C276.676 81.0015 276.517 81.2022 276.312 81.3982C276.107 81.5942 275.841 81.7575 275.514 81.8882C275.187 82.0095 274.781 82.0702 274.296 82.0702C273.708 82.0702 273.167 81.9302 272.672 81.6502C272.177 81.3702 271.785 80.9735 271.496 80.4602C271.207 79.9375 271.062 79.3215 271.062 78.6122ZM274.59 81.0902C275.299 81.0902 275.873 80.8662 276.312 80.4182C276.76 79.9702 276.984 79.3542 276.984 78.5702V78.4582C276.984 77.6649 276.76 77.0489 276.312 76.6102C275.873 76.1622 275.299 75.9382 274.59 75.9382C273.89 75.9382 273.311 76.1622 272.854 76.6102C272.406 77.0489 272.182 77.6649 272.182 78.4582V78.5702C272.182 79.3542 272.406 79.9702 272.854 80.4182C273.311 80.8662 273.89 81.0902 274.59 81.0902Z" fill="#C9C9C9" fill-opacity="0.6"/>
</svg>
