<svg width="345" height="176" viewBox="0 0 345 176" fill="none" xmlns="http://www.w3.org/2000/svg">
<path d="M0 8C0 3.58172 3.58172 0 8 0H337C341.418 0 345 3.58172 345 8V168C345 172.418 341.418 176 337 176H8C3.58172 176 0 172.418 0 168V8Z" fill="#1F1F1F" fill-opacity="0.88"/>
<path d="M16.576 160V159.052C16.576 158.468 16.676 157.988 16.876 157.612C17.076 157.236 17.36 156.932 17.728 156.7C18.104 156.46 18.556 156.26 19.084 156.1L19.816 155.872C20.144 155.768 20.424 155.64 20.656 155.488C20.896 155.336 21.08 155.148 21.208 154.924C21.336 154.692 21.4 154.424 21.4 154.12V154.072C21.4 153.6 21.24 153.232 20.92 152.968C20.6 152.696 20.18 152.56 19.66 152.56C19.124 152.56 18.688 152.704 18.352 152.992C18.024 153.28 17.86 153.704 17.86 154.264V154.456H16.612V154.276C16.612 153.668 16.744 153.156 17.008 152.74C17.272 152.316 17.636 151.992 18.1 151.768C18.564 151.544 19.084 151.432 19.66 151.432C20.236 151.432 20.748 151.54 21.196 151.756C21.652 151.972 22.008 152.276 22.264 152.668C22.528 153.06 22.66 153.52 22.66 154.048V154.156C22.66 154.7 22.552 155.152 22.336 155.512C22.12 155.872 21.82 156.168 21.436 156.4C21.06 156.632 20.624 156.828 20.128 156.988L19.42 157.204C19.044 157.316 18.74 157.44 18.508 157.576C18.284 157.704 18.116 157.86 18.004 158.044C17.9 158.228 17.848 158.464 17.848 158.752V158.872H22.588V160H16.576ZM27.1559 160.168C26.1799 160.168 25.3999 159.892 24.8159 159.34C24.2399 158.78 23.9519 157.94 23.9519 156.82V154.78C23.9519 153.684 24.2399 152.852 24.8159 152.284C25.3999 151.716 26.1799 151.432 27.1559 151.432C28.1399 151.432 28.9199 151.716 29.4959 152.284C30.0799 152.852 30.3719 153.684 30.3719 154.78V156.82C30.3719 157.94 30.0799 158.78 29.4959 159.34C28.9199 159.892 28.1399 160.168 27.1559 160.168ZM27.1559 159.04C27.8199 159.04 28.3119 158.852 28.6319 158.476C28.9519 158.092 29.1119 157.556 29.1119 156.868V154.708C29.1119 154.02 28.9399 153.492 28.5959 153.124C28.2519 152.748 27.7719 152.56 27.1559 152.56C26.5319 152.56 26.0519 152.752 25.7159 153.136C25.3799 153.512 25.2119 154.036 25.2119 154.708V156.868C25.2119 157.572 25.3719 158.112 25.6919 158.488C26.0199 158.856 26.5079 159.04 27.1559 159.04ZM34.7943 160.168C34.1782 160.168 33.6302 160.056 33.1502 159.832C32.6702 159.608 32.2942 159.284 32.0222 158.86C31.7582 158.436 31.6262 157.932 31.6262 157.348V157.132H32.8862V157.324C32.8862 157.852 33.0582 158.272 33.4022 158.584C33.7542 158.888 34.2182 159.04 34.7943 159.04C35.3702 159.04 35.8182 158.896 36.1382 158.608C36.4583 158.32 36.6183 157.956 36.6183 157.516V157.408C36.6183 157.096 36.5423 156.844 36.3902 156.652C36.2382 156.46 36.0342 156.32 35.7782 156.232C35.5222 156.136 35.2342 156.088 34.9142 156.088H33.3902V154.636L36.3423 152.896V152.728H31.8302V151.6H37.7103V153.304L34.8902 154.984V155.152H35.4062C35.8303 155.152 36.2303 155.232 36.6062 155.392C36.9823 155.552 37.2863 155.796 37.5182 156.124C37.7583 156.452 37.8783 156.868 37.8783 157.372V157.516C37.8783 158.052 37.7503 158.52 37.4943 158.92C37.2383 159.312 36.8782 159.62 36.4142 159.844C35.9502 160.06 35.4102 160.168 34.7943 160.168ZM39.4196 160V151.6H41.8556L43.6916 159.136H43.8836L45.7196 151.6H48.1556V160H46.8956V152.512H46.7036L44.8796 160H42.6956L40.8716 152.512H40.6796V160H39.4196Z" fill="#C9C9C9"/>
<path d="M17.3525 144.042L66.5 100.238H116.544L175.5 64L220.437 52.1108L279.5 64L325.046 30.6641" stroke="#1DB954" stroke-width="3" stroke-linecap="round" stroke-linejoin="round"/>
<path d="M296.568 24V23.052C296.568 22.468 296.668 21.988 296.868 21.612C297.068 21.236 297.352 20.932 297.72 20.7C298.096 20.46 298.548 20.26 299.076 20.1L299.808 19.872C300.136 19.768 300.416 19.64 300.648 19.488C300.888 19.336 301.072 19.148 301.2 18.924C301.328 18.692 301.392 18.424 301.392 18.12V18.072C301.392 17.6 301.232 17.232 300.912 16.968C300.592 16.696 300.172 16.56 299.652 16.56C299.116 16.56 298.68 16.704 298.344 16.992C298.016 17.28 297.852 17.704 297.852 18.264V18.456H296.604V18.276C296.604 17.668 296.736 17.156 297 16.74C297.264 16.316 297.628 15.992 298.092 15.768C298.556 15.544 299.076 15.432 299.652 15.432C300.228 15.432 300.74 15.54 301.188 15.756C301.644 15.972 302 16.276 302.256 16.668C302.52 17.06 302.652 17.52 302.652 18.048V18.156C302.652 18.7 302.544 19.152 302.328 19.512C302.112 19.872 301.812 20.168 301.428 20.4C301.052 20.632 300.616 20.828 300.12 20.988L299.412 21.204C299.036 21.316 298.732 21.44 298.5 21.576C298.276 21.704 298.108 21.86 297.996 22.044C297.892 22.228 297.84 22.464 297.84 22.752V22.872H302.58V24H296.568ZM306.908 24.168C306.292 24.168 305.744 24.056 305.264 23.832C304.784 23.608 304.408 23.284 304.136 22.86C303.872 22.436 303.74 21.932 303.74 21.348V21.132H305V21.324C305 21.852 305.172 22.272 305.516 22.584C305.868 22.888 306.332 23.04 306.908 23.04C307.484 23.04 307.932 22.896 308.252 22.608C308.572 22.32 308.732 21.956 308.732 21.516V21.408C308.732 21.096 308.656 20.844 308.504 20.652C308.352 20.46 308.148 20.32 307.892 20.232C307.636 20.136 307.348 20.088 307.028 20.088H305.504V18.636L308.456 16.896V16.728H303.944V15.6H309.824V17.304L307.004 18.984V19.152H307.52C307.944 19.152 308.344 19.232 308.72 19.392C309.096 19.552 309.4 19.796 309.632 20.124C309.872 20.452 309.992 20.868 309.992 21.372V21.516C309.992 22.052 309.864 22.52 309.608 22.92C309.352 23.312 308.992 23.62 308.528 23.844C308.064 24.06 307.524 24.168 306.908 24.168ZM314.521 24.168C313.545 24.168 312.765 23.892 312.181 23.34C311.605 22.78 311.317 21.94 311.317 20.82V18.78C311.317 17.684 311.605 16.852 312.181 16.284C312.765 15.716 313.545 15.432 314.521 15.432C315.505 15.432 316.285 15.716 316.861 16.284C317.445 16.852 317.737 17.684 317.737 18.78V20.82C317.737 21.94 317.445 22.78 316.861 23.34C316.285 23.892 315.505 24.168 314.521 24.168ZM314.521 23.04C315.185 23.04 315.677 22.852 315.997 22.476C316.317 22.092 316.477 21.556 316.477 20.868V18.708C316.477 18.02 316.305 17.492 315.961 17.124C315.617 16.748 315.137 16.56 314.521 16.56C313.897 16.56 313.417 16.752 313.081 17.136C312.745 17.512 312.577 18.036 312.577 18.708V20.868C312.577 21.572 312.737 22.112 313.057 22.488C313.385 22.856 313.873 23.04 314.521 23.04ZM319.388 24V15.6H321.824L323.66 23.136H323.852L325.688 15.6H328.124V24H326.864V16.512H326.672L324.848 24H322.664L320.84 16.512H320.648V24H319.388Z" fill="#C9C9C9"/>
</svg>
