<svg width="24" height="24" viewBox="0 0 24 24" fill="none" xmlns="http://www.w3.org/2000/svg">
<g clip-path="url(#clip0_4157_18969)">
<path d="M17.8986 10.924L17.8846 10.9156C16.2836 9.96475 14.1584 9.44364 12.0468 9.27751C9.93544 9.11139 7.84449 9.30069 6.31461 9.76502L6.3146 9.76502C5.78894 9.92445 5.233 9.62773 5.07368 9.10198L5.07368 9.10197C4.91438 8.57608 5.21087 8.02054 5.73693 7.86072L5.73694 7.86072C7.51175 7.32194 9.87066 7.1054 12.25 7.29899C14.6291 7.49256 17.0345 8.09667 18.9001 9.20417L17.8986 10.924ZM17.8986 10.924H17.8994M17.8986 10.924H17.8994M17.8994 10.924C18.3687 11.1932 18.9714 11.0358 19.2482 10.5677C19.5289 10.0955 19.3739 9.48485 18.9001 9.2042L17.8994 10.924ZM2.05946 12.0001C2.05946 6.53578 6.46871 2.1012 11.9233 2.06L11.9232 2.06019H11.9998C17.4904 2.06019 21.9405 6.51057 21.9405 12.0001C21.9405 17.4902 17.4904 21.9403 11.9999 21.9403C6.51008 21.9403 2.05946 17.4901 2.05946 12.0001ZM6.95716 15.7241L6.9572 15.7241C10.4276 14.9312 13.3663 15.2566 15.6974 16.6805C16.0193 16.878 16.4405 16.776 16.6368 16.4542C16.8345 16.1321 16.7323 15.7121 16.4106 15.5147L16.4105 15.5146C13.7579 13.8936 10.4735 13.5188 6.65319 14.392C6.28469 14.4758 6.05535 14.8423 6.13947 15.2099C6.22325 15.5776 6.5896 15.8078 6.95716 15.7241ZM6.78992 12.8482L6.79 12.8482C9.95408 11.8877 14.0337 12.3648 16.7063 14.0079C17.1012 14.251 17.6179 14.1261 17.8608 13.731C18.1039 13.3366 17.979 12.8199 17.5845 12.5771L17.5845 12.5771C14.4823 10.6707 9.94949 10.1354 6.30226 11.2421L6.3022 11.2421C5.85908 11.3771 5.60882 11.845 5.74249 12.2888L5.74254 12.289C5.87729 12.7322 6.34615 12.9823 6.78992 12.8482Z" fill="#1DB954"/>
<path d="M17.8986 10.924L17.8846 10.9156C16.2836 9.96475 14.1584 9.44364 12.0468 9.27751C9.93544 9.11139 7.84449 9.30069 6.31461 9.76502L6.3146 9.76502C5.78894 9.92445 5.233 9.62773 5.07368 9.10198L5.07368 9.10197C4.91438 8.57608 5.21087 8.02054 5.73693 7.86072L5.73694 7.86072C7.51175 7.32194 9.87066 7.1054 12.25 7.29899C14.6291 7.49256 17.0345 8.09667 18.9001 9.20417L17.8986 10.924ZM17.8986 10.924H17.8994M17.8986 10.924H17.8994M17.8994 10.924C18.3687 11.1932 18.9714 11.0358 19.2482 10.5677C19.5289 10.0955 19.3739 9.48485 18.9001 9.2042L17.8994 10.924ZM2.05946 12.0001C2.05946 6.53578 6.46871 2.1012 11.9233 2.06L11.9232 2.06019H11.9998C17.4904 2.06019 21.9405 6.51057 21.9405 12.0001C21.9405 17.4902 17.4904 21.9403 11.9999 21.9403C6.51008 21.9403 2.05946 17.4901 2.05946 12.0001ZM6.95716 15.7241L6.9572 15.7241C10.4276 14.9312 13.3663 15.2566 15.6974 16.6805C16.0193 16.878 16.4405 16.776 16.6368 16.4542C16.8345 16.1321 16.7323 15.7121 16.4106 15.5147L16.4105 15.5146C13.7579 13.8936 10.4735 13.5188 6.65319 14.392C6.28469 14.4758 6.05535 14.8423 6.13947 15.2099C6.22325 15.5776 6.5896 15.8078 6.95716 15.7241ZM6.78992 12.8482L6.79 12.8482C9.95408 11.8877 14.0337 12.3648 16.7063 14.0079C17.1012 14.251 17.6179 14.1261 17.8608 13.731C18.1039 13.3366 17.979 12.8199 17.5845 12.5771L17.5845 12.5771C14.4823 10.6707 9.94949 10.1354 6.30226 11.2421L6.3022 11.2421C5.85908 11.3771 5.60882 11.845 5.74249 12.2888L5.74254 12.289C5.87729 12.7322 6.34615 12.9823 6.78992 12.8482Z" fill="black" fill-opacity="0.1"/>
<path d="M17.8986 10.924L17.8846 10.9156C16.2836 9.96475 14.1584 9.44364 12.0468 9.27751C9.93544 9.11139 7.84449 9.30069 6.31461 9.76502L6.3146 9.76502C5.78894 9.92445 5.233 9.62773 5.07368 9.10198L5.07368 9.10197C4.91438 8.57608 5.21087 8.02054 5.73693 7.86072L5.73694 7.86072C7.51175 7.32194 9.87066 7.1054 12.25 7.29899C14.6291 7.49256 17.0345 8.09667 18.9001 9.20417L17.8986 10.924ZM17.8986 10.924H17.8994M17.8986 10.924H17.8994M17.8994 10.924C18.3687 11.1932 18.9714 11.0358 19.2482 10.5677C19.5289 10.0955 19.3739 9.48485 18.9001 9.2042L17.8994 10.924ZM2.05946 12.0001C2.05946 6.53578 6.46871 2.1012 11.9233 2.06L11.9232 2.06019H11.9998C17.4904 2.06019 21.9405 6.51057 21.9405 12.0001C21.9405 17.4902 17.4904 21.9403 11.9999 21.9403C6.51008 21.9403 2.05946 17.4901 2.05946 12.0001ZM6.95716 15.7241L6.9572 15.7241C10.4276 14.9312 13.3663 15.2566 15.6974 16.6805C16.0193 16.878 16.4405 16.776 16.6368 16.4542C16.8345 16.1321 16.7323 15.7121 16.4106 15.5147L16.4105 15.5146C13.7579 13.8936 10.4735 13.5188 6.65319 14.392C6.28469 14.4758 6.05535 14.8423 6.13947 15.2099C6.22325 15.5776 6.5896 15.8078 6.95716 15.7241ZM6.78992 12.8482L6.79 12.8482C9.95408 11.8877 14.0337 12.3648 16.7063 14.0079C17.1012 14.251 17.6179 14.1261 17.8608 13.731C18.1039 13.3366 17.979 12.8199 17.5845 12.5771L17.5845 12.5771C14.4823 10.6707 9.94949 10.1354 6.30226 11.2421L6.3022 11.2421C5.85908 11.3771 5.60882 11.845 5.74249 12.2888L5.74254 12.289C5.87729 12.7322 6.34615 12.9823 6.78992 12.8482Z" stroke="#1DB954" stroke-width="0.119415"/>
</g>
<defs>
<clipPath id="clip0_4157_18969">
<rect width="24" height="24" fill="white"/>
</clipPath>
</defs>
</svg>
