<svg width="345" height="176" viewBox="0 0 345 176" fill="none" xmlns="http://www.w3.org/2000/svg">
<path d="M0 8C0 3.58172 3.58172 0 8 0H337C341.418 0 345 3.58172 345 8V168C345 172.418 341.418 176 337 176H8C3.58172 176 0 172.418 0 168V8Z" fill="#1F1F1F" fill-opacity="0.88"/>
<path d="M307.33 24.168C306.682 24.168 306.114 24.072 305.626 23.88C305.146 23.688 304.77 23.412 304.498 23.052C304.234 22.684 304.102 22.256 304.102 21.768V21.636C304.102 21.236 304.178 20.908 304.33 20.652C304.49 20.388 304.682 20.184 304.906 20.04C305.138 19.888 305.354 19.788 305.554 19.74V19.548C305.354 19.492 305.15 19.392 304.942 19.248C304.734 19.096 304.562 18.9 304.426 18.66C304.298 18.412 304.234 18.116 304.234 17.772V17.64C304.234 17.192 304.362 16.804 304.618 16.476C304.882 16.148 305.246 15.892 305.71 15.708C306.174 15.524 306.714 15.432 307.33 15.432C307.938 15.432 308.474 15.524 308.938 15.708C309.402 15.892 309.762 16.148 310.018 16.476C310.282 16.804 310.414 17.192 310.414 17.64V17.772C310.414 18.116 310.346 18.412 310.21 18.66C310.082 18.9 309.918 19.096 309.718 19.248C309.518 19.392 309.314 19.492 309.106 19.548V19.74C309.314 19.788 309.53 19.888 309.754 20.04C309.978 20.184 310.166 20.388 310.318 20.652C310.47 20.908 310.546 21.236 310.546 21.636V21.768C310.546 22.256 310.41 22.684 310.138 23.052C309.874 23.412 309.498 23.688 309.01 23.88C308.53 24.072 307.97 24.168 307.33 24.168ZM307.33 23.04C307.938 23.04 308.414 22.924 308.758 22.692C309.11 22.452 309.286 22.12 309.286 21.696V21.6C309.286 21.168 309.114 20.836 308.77 20.604C308.434 20.364 307.954 20.244 307.33 20.244C306.706 20.244 306.222 20.364 305.878 20.604C305.534 20.836 305.362 21.168 305.362 21.6V21.696C305.362 22.12 305.534 22.452 305.878 22.692C306.23 22.924 306.714 23.04 307.33 23.04ZM307.33 19.116C307.898 19.116 308.342 19.008 308.662 18.792C308.99 18.576 309.154 18.272 309.154 17.88V17.784C309.154 17.392 308.99 17.092 308.662 16.884C308.334 16.668 307.89 16.56 307.33 16.56C306.762 16.56 306.314 16.668 305.986 16.884C305.658 17.092 305.494 17.392 305.494 17.784V17.88C305.494 18.272 305.654 18.576 305.974 18.792C306.302 19.008 306.754 19.116 307.33 19.116ZM314.762 24.168C314.146 24.168 313.598 24.056 313.118 23.832C312.638 23.608 312.262 23.284 311.99 22.86C311.726 22.436 311.594 21.932 311.594 21.348V21.132H312.854V21.324C312.854 21.852 313.026 22.272 313.37 22.584C313.722 22.888 314.186 23.04 314.762 23.04C315.338 23.04 315.786 22.896 316.106 22.608C316.426 22.32 316.586 21.956 316.586 21.516V21.408C316.586 21.096 316.51 20.844 316.358 20.652C316.206 20.46 316.002 20.32 315.746 20.232C315.49 20.136 315.202 20.088 314.882 20.088H313.358V18.636L316.31 16.896V16.728H311.798V15.6H317.678V17.304L314.858 18.984V19.152H315.374C315.798 19.152 316.198 19.232 316.574 19.392C316.95 19.552 317.254 19.796 317.486 20.124C317.726 20.452 317.846 20.868 317.846 21.372V21.516C317.846 22.052 317.718 22.52 317.462 22.92C317.206 23.312 316.846 23.62 316.382 23.844C315.918 24.06 315.378 24.168 314.762 24.168ZM319.388 24V15.6H321.824L323.66 23.136H323.852L325.688 15.6H328.124V24H326.864V16.512H326.672L324.848 24H322.664L320.84 16.512H320.648V24H319.388Z" fill="#C9C9C9"/>
<path d="M19.624 160.168C18.992 160.168 18.444 160.052 17.98 159.82C17.516 159.588 17.156 159.26 16.9 158.836C16.652 158.412 16.528 157.92 16.528 157.36V157.228H17.812V157.348C17.812 157.86 17.968 158.272 18.28 158.584C18.6 158.888 19.044 159.04 19.612 159.04C20.196 159.04 20.648 158.88 20.968 158.56C21.288 158.24 21.448 157.808 21.448 157.264V157.156C21.448 156.636 21.288 156.22 20.968 155.908C20.656 155.596 20.256 155.44 19.768 155.44C19.496 155.44 19.268 155.484 19.084 155.572C18.908 155.652 18.764 155.752 18.652 155.872C18.548 155.992 18.46 156.108 18.388 156.22H16.792V151.6H22.42V152.74H18.052V155.212H18.244C18.324 155.076 18.436 154.948 18.58 154.828C18.732 154.7 18.928 154.596 19.168 154.516C19.408 154.436 19.696 154.396 20.032 154.396C20.528 154.396 20.976 154.504 21.376 154.72C21.784 154.928 22.108 155.24 22.348 155.656C22.588 156.064 22.708 156.56 22.708 157.144V157.276C22.708 157.86 22.584 158.368 22.336 158.8C22.088 159.232 21.732 159.568 21.268 159.808C20.812 160.048 20.264 160.168 19.624 160.168ZM27.1676 160.168C26.1916 160.168 25.4116 159.892 24.8276 159.34C24.2516 158.78 23.9636 157.94 23.9636 156.82V154.78C23.9636 153.684 24.2516 152.852 24.8276 152.284C25.4116 151.716 26.1916 151.432 27.1676 151.432C28.1516 151.432 28.9316 151.716 29.5076 152.284C30.0916 152.852 30.3836 153.684 30.3836 154.78V156.82C30.3836 157.94 30.0916 158.78 29.5076 159.34C28.9316 159.892 28.1516 160.168 27.1676 160.168ZM27.1676 159.04C27.8316 159.04 28.3236 158.852 28.6436 158.476C28.9636 158.092 29.1236 157.556 29.1236 156.868V154.708C29.1236 154.02 28.9516 153.492 28.6076 153.124C28.2636 152.748 27.7836 152.56 27.1676 152.56C26.5436 152.56 26.0636 152.752 25.7276 153.136C25.3916 153.512 25.2236 154.036 25.2236 154.708V156.868C25.2236 157.572 25.3836 158.112 25.7036 158.488C26.0316 158.856 26.5196 159.04 27.1676 159.04ZM32.034 160V151.6H34.47L36.306 159.136H36.498L38.334 151.6H40.77V160H39.51V152.512H39.318L37.494 160H35.31L33.486 152.512H33.294V160H32.034Z" fill="#C9C9C9"/>
<path d="M17.3525 144.043L87.5 113.021L156 95L200 70.5L231.5 37.8396H285L324.218 34.1719" stroke="#1DB954" stroke-width="3" stroke-linecap="round" stroke-linejoin="round"/>
</svg>
