<svg width="165" height="176" viewBox="0 0 165 176" fill="none" xmlns="http://www.w3.org/2000/svg">
<g clip-path="url(#clip0_4387_22334)">
<path d="M0.5 8C0.5 3.58172 4.08172 0 8.5 0H156.5C160.918 0 164.5 3.58172 164.5 8V168C164.5 172.418 160.918 176 156.5 176H8.5C4.08172 176 0.5 172.418 0.5 168V8Z" fill="#1F1F1F" fill-opacity="0.88"/>
<path d="M123.922 24V23.052C123.922 22.468 124.022 21.988 124.222 21.612C124.422 21.236 124.706 20.932 125.074 20.7C125.45 20.46 125.902 20.26 126.43 20.1L127.162 19.872C127.49 19.768 127.77 19.64 128.002 19.488C128.242 19.336 128.426 19.148 128.554 18.924C128.682 18.692 128.746 18.424 128.746 18.12V18.072C128.746 17.6 128.586 17.232 128.266 16.968C127.946 16.696 127.526 16.56 127.006 16.56C126.47 16.56 126.034 16.704 125.698 16.992C125.37 17.28 125.206 17.704 125.206 18.264V18.456H123.958V18.276C123.958 17.668 124.09 17.156 124.354 16.74C124.618 16.316 124.982 15.992 125.446 15.768C125.91 15.544 126.43 15.432 127.006 15.432C127.582 15.432 128.094 15.54 128.542 15.756C128.998 15.972 129.354 16.276 129.61 16.668C129.874 17.06 130.006 17.52 130.006 18.048V18.156C130.006 18.7 129.898 19.152 129.682 19.512C129.466 19.872 129.166 20.168 128.782 20.4C128.406 20.632 127.97 20.828 127.474 20.988L126.766 21.204C126.39 21.316 126.086 21.44 125.854 21.576C125.63 21.704 125.462 21.86 125.35 22.044C125.246 22.228 125.194 22.464 125.194 22.752V22.872H129.934V24H123.922ZM134.262 24.168C133.646 24.168 133.098 24.056 132.618 23.832C132.138 23.608 131.762 23.284 131.49 22.86C131.226 22.436 131.094 21.932 131.094 21.348V21.132H132.354V21.324C132.354 21.852 132.526 22.272 132.87 22.584C133.222 22.888 133.686 23.04 134.262 23.04C134.838 23.04 135.286 22.896 135.606 22.608C135.926 22.32 136.086 21.956 136.086 21.516V21.408C136.086 21.096 136.01 20.844 135.858 20.652C135.706 20.46 135.502 20.32 135.246 20.232C134.99 20.136 134.702 20.088 134.382 20.088H132.858V18.636L135.81 16.896V16.728H131.298V15.6H137.178V17.304L134.358 18.984V19.152H134.874C135.298 19.152 135.698 19.232 136.074 19.392C136.45 19.552 136.754 19.796 136.986 20.124C137.226 20.452 137.346 20.868 137.346 21.372V21.516C137.346 22.052 137.218 22.52 136.962 22.92C136.706 23.312 136.346 23.62 135.882 23.844C135.418 24.06 134.878 24.168 134.262 24.168ZM138.888 24V15.6H141.324L143.16 23.136H143.352L145.188 15.6H147.624V24H146.364V16.512H146.172L144.348 24H142.164L140.34 16.512H140.148V24H138.888Z" fill="#C9C9C9"/>
<path d="M17.076 160V159.052C17.076 158.468 17.176 157.988 17.376 157.612C17.576 157.236 17.86 156.932 18.228 156.7C18.604 156.46 19.056 156.26 19.584 156.1L20.316 155.872C20.644 155.768 20.924 155.64 21.156 155.488C21.396 155.336 21.58 155.148 21.708 154.924C21.836 154.692 21.9 154.424 21.9 154.12V154.072C21.9 153.6 21.74 153.232 21.42 152.968C21.1 152.696 20.68 152.56 20.16 152.56C19.624 152.56 19.188 152.704 18.852 152.992C18.524 153.28 18.36 153.704 18.36 154.264V154.456H17.112V154.276C17.112 153.668 17.244 153.156 17.508 152.74C17.772 152.316 18.136 151.992 18.6 151.768C19.064 151.544 19.584 151.432 20.16 151.432C20.736 151.432 21.248 151.54 21.696 151.756C22.152 151.972 22.508 152.276 22.764 152.668C23.028 153.06 23.16 153.52 23.16 154.048V154.156C23.16 154.7 23.052 155.152 22.836 155.512C22.62 155.872 22.32 156.168 21.936 156.4C21.56 156.632 21.124 156.828 20.628 156.988L19.92 157.204C19.544 157.316 19.24 157.44 19.008 157.576C18.784 157.704 18.616 157.86 18.504 158.044C18.4 158.228 18.348 158.464 18.348 158.752V158.872H23.088V160H17.076ZM26.8759 160V152.488H26.6839L25.3039 155.32H23.9719L25.8319 151.6H28.1359V160H26.8759ZM30.7827 160.168C30.5027 160.168 30.2667 160.076 30.0747 159.892C29.8907 159.708 29.7987 159.472 29.7987 159.184C29.7987 158.896 29.8907 158.664 30.0747 158.488C30.2667 158.304 30.5027 158.212 30.7827 158.212C31.0627 158.212 31.2947 158.304 31.4787 158.488C31.6707 158.672 31.7667 158.904 31.7667 159.184C31.7667 159.472 31.6707 159.708 31.4787 159.892C31.2947 160.076 31.0627 160.168 30.7827 160.168ZM36.1871 160.168C35.5551 160.168 35.0071 160.052 34.5431 159.82C34.0791 159.588 33.7191 159.26 33.4631 158.836C33.2151 158.412 33.0911 157.92 33.0911 157.36V157.228H34.3751V157.348C34.3751 157.86 34.5311 158.272 34.8431 158.584C35.1631 158.888 35.6071 159.04 36.1751 159.04C36.7591 159.04 37.2111 158.88 37.5311 158.56C37.8511 158.24 38.0111 157.808 38.0111 157.264V157.156C38.0111 156.636 37.8511 156.22 37.5311 155.908C37.2191 155.596 36.8191 155.44 36.3311 155.44C36.0591 155.44 35.8311 155.484 35.6471 155.572C35.4711 155.652 35.3271 155.752 35.2151 155.872C35.1111 155.992 35.0231 156.108 34.9511 156.22H33.3551V151.6H38.9831V152.74H34.6151V155.212H34.8071C34.8871 155.076 34.9991 154.948 35.1431 154.828C35.2951 154.7 35.4911 154.596 35.7311 154.516C35.9711 154.436 36.2591 154.396 36.5951 154.396C37.0911 154.396 37.5391 154.504 37.9391 154.72C38.3471 154.928 38.6711 155.24 38.9111 155.656C39.1511 156.064 39.2711 156.56 39.2711 157.144V157.276C39.2711 157.86 39.1471 158.368 38.8991 158.8C38.6511 159.232 38.2951 159.568 37.8311 159.808C37.3751 160.048 36.8271 160.168 36.1871 160.168ZM40.7427 160V151.6H43.1787L45.0147 159.136H45.2067L47.0427 151.6H49.4787V160H48.2187V152.512H48.0267L46.2027 160H44.0187L42.1947 152.512H42.0027V160H40.7427Z" fill="#C9C9C9"/>
<path d="M17.8525 144.042L41 81L58.5 71.5L85 81V52.5L114.234 60.3676L126.091 37.3506L147.713 31.0742" stroke="#1DB954" stroke-width="3" stroke-linecap="round" stroke-linejoin="round"/>
</g>
<defs>
<clipPath id="clip0_4387_22334">
<path d="M0.5 8C0.5 3.58172 4.08172 0 8.5 0H156.5C160.918 0 164.5 3.58172 164.5 8V168C164.5 172.418 160.918 176 156.5 176H8.5C4.08172 176 0.5 172.418 0.5 168V8Z" fill="white"/>
</clipPath>
</defs>
</svg>
