<svg width="25" height="24" viewBox="0 0 25 24" fill="none" xmlns="http://www.w3.org/2000/svg">
<g clip-path="url(#clip0_4390_22635)">
<path d="M15.9885 6.83559C16.1776 6.83559 16.5 6.86568 16.9556 6.92585C17.4112 6.98603 17.9098 7.15796 18.4514 7.44165C19.0016 7.71674 19.5002 8.17666 19.9472 8.82141C19.9214 8.8472 19.7968 8.94176 19.5732 9.10509C19.3497 9.25983 19.1004 9.49194 18.8253 9.80142C18.5502 10.1023 18.3095 10.4891 18.1032 10.962C17.8969 11.4262 17.7937 11.9807 17.7937 12.6254C17.7937 13.3647 17.9227 13.9923 18.1806 14.5081C18.4471 15.0239 18.7523 15.4408 19.0961 15.7589C19.4486 16.0683 19.7581 16.2962 20.0246 16.4423C20.2997 16.5884 20.4458 16.6658 20.463 16.6744C20.4544 16.7088 20.3426 17.014 20.1277 17.5899C19.9214 18.1659 19.5775 18.8064 19.0961 19.5113C18.6749 20.1216 18.2193 20.6847 17.7293 21.2005C17.2479 21.7163 16.6676 21.9742 15.9885 21.9742C15.5328 21.9742 15.1589 21.9097 14.8666 21.7808C14.5743 21.6432 14.2734 21.51 13.964 21.381C13.6545 21.2435 13.2375 21.1747 12.7132 21.1747C12.206 21.1747 11.7804 21.2435 11.4366 21.381C11.1013 21.5186 10.7789 21.6561 10.4694 21.7937C10.1686 21.9312 9.8118 22 9.39916 22C8.77161 22 8.22143 21.7507 7.74861 21.2521C7.2758 20.7535 6.79009 20.156 6.29149 19.4597C5.71552 18.6344 5.22121 17.6286 4.80858 16.4423C4.40453 15.2474 4.20251 14.0438 4.20251 12.8317C4.20251 11.5336 4.44752 10.4462 4.93752 9.56931C5.42753 8.68386 6.05508 8.01762 6.82018 7.5706C7.59387 7.11498 8.39336 6.88717 9.21863 6.88717C9.65706 6.88717 10.0697 6.96024 10.4565 7.10638C10.8434 7.24393 11.2044 7.38577 11.5397 7.53191C11.8836 7.67806 12.1931 7.75113 12.4681 7.75113C12.7346 7.75113 13.0441 7.67376 13.3966 7.51902C13.749 7.36428 14.1445 7.21384 14.5829 7.0677C15.0213 6.91296 15.4899 6.83559 15.9885 6.83559ZM15.2792 5.19794C14.944 5.60198 14.5227 5.94154 14.0155 6.21663C13.5083 6.48313 13.0269 6.61638 12.5713 6.61638C12.4767 6.61638 12.3865 6.60778 12.3005 6.59059C12.2919 6.5648 12.2833 6.51752 12.2747 6.44874C12.2661 6.37997 12.2618 6.3069 12.2618 6.22953C12.2618 5.71373 12.3736 5.21513 12.5971 4.73372C12.8206 4.24371 13.0742 3.83967 13.3579 3.5216C13.719 3.09177 14.1746 2.73501 14.7248 2.45132C15.2749 2.16763 15.7993 2.01719 16.2979 2C16.3237 2.11176 16.3366 2.245 16.3366 2.39974C16.3366 2.91554 16.2378 3.41844 16.04 3.90845C15.8423 4.38986 15.5887 4.81969 15.2792 5.19794Z" fill="white" fill-opacity="0.9"/>
</g>
<defs>
<clipPath id="clip0_4390_22635">
<rect width="24" height="24" fill="white" transform="translate(0.333374)"/>
</clipPath>
</defs>
</svg>
