<svg width="25" height="24" viewBox="0 0 25 24" fill="none" xmlns="http://www.w3.org/2000/svg">
<path d="M12.8333 3.80182C15.5033 3.80182 15.8196 3.81182 16.8742 3.86C17.5081 3.86766 18.136 3.9842 18.7305 4.20455C19.165 4.36486 19.5579 4.62053 19.8805 4.95273C20.2127 5.27533 20.4684 5.6683 20.6287 6.10273C20.8491 6.69721 20.9656 7.32513 20.9733 7.95909C21.0214 9.01364 21.0314 9.33 21.0314 12C21.0314 14.67 21.0214 14.9864 20.9733 16.0409C20.9656 16.6749 20.8491 17.3028 20.6287 17.8973C20.4623 18.3286 20.2075 18.7204 19.8806 19.0473C19.5536 19.3742 19.1619 19.6291 18.7305 19.7955C18.136 20.0158 17.5081 20.1323 16.8742 20.14C15.8196 20.1882 15.5033 20.1982 12.8333 20.1982C10.1633 20.1982 9.84689 20.1882 8.79234 20.14C8.15808 20.1324 7.52984 20.0159 6.93507 19.7955C6.50097 19.635 6.10832 19.3794 5.78598 19.0473C5.45378 18.7247 5.19812 18.3317 5.0378 17.8973C4.81745 17.3028 4.70091 16.6749 4.69325 16.0409C4.64507 14.9864 4.63507 14.67 4.63507 12C4.63507 9.33 4.64507 9.01364 4.69325 7.95909C4.70091 7.32513 4.81745 6.69721 5.0378 6.10273C5.19812 5.6683 5.45378 5.27533 5.78598 4.95273C6.10858 4.62053 6.50155 4.36486 6.93598 4.20455C7.53046 3.9842 8.15839 3.86766 8.79234 3.86C9.84689 3.81182 10.1633 3.80182 12.8333 3.80182ZM12.8333 2C10.1178 2 9.77689 2.01182 8.71053 2.06C7.88099 2.07655 7.06027 2.23362 6.28325 2.52455C5.61568 2.77589 5.011 3.16991 4.51143 3.67909C4.00269 4.17848 3.60899 4.78283 3.3578 5.45C3.06719 6.22707 2.91042 7.04779 2.89416 7.87727C2.84416 8.94364 2.83325 9.28455 2.83325 12C2.83325 14.7155 2.84507 15.0564 2.89325 16.1227C2.9098 16.9523 3.06688 17.773 3.3578 18.55C3.60914 19.2176 4.00316 19.8223 4.51234 20.3218C5.01173 20.8306 5.61608 21.2243 6.28325 21.4755C7.06033 21.7661 7.88105 21.9228 8.71053 21.9391C9.77689 21.9891 10.1178 22 12.8333 22C15.5487 22 15.8896 21.9882 16.956 21.94C17.7855 21.9235 18.6062 21.7664 19.3833 21.4755C20.0478 21.2185 20.6513 20.8256 21.155 20.3218C21.6588 19.818 22.0518 19.2145 22.3087 18.55C22.5993 17.7729 22.7561 16.9522 22.7723 16.1227C22.8223 15.0564 22.8333 14.7155 22.8333 12C22.8333 9.28455 22.8214 8.94364 22.7733 7.87727C22.7567 7.04774 22.5996 6.22702 22.3087 5.45C22.0574 4.78242 21.6633 4.17775 21.1542 3.67818C20.6548 3.16944 20.0504 2.77574 19.3833 2.52455C18.6062 2.23393 17.7855 2.07717 16.956 2.06091C15.8896 2.01091 15.5487 2 12.8333 2ZM12.8333 6.86455C11.8176 6.86455 10.8247 7.16573 9.98015 7.73003C9.13563 8.29432 8.4774 9.09637 8.08871 10.0347C7.70002 10.9731 7.59832 12.0057 7.79647 13.0019C7.99463 13.9981 8.48373 14.9131 9.20194 15.6313C9.92014 16.3495 10.8352 16.8386 11.8314 17.0368C12.8276 17.2349 13.8601 17.1332 14.7985 16.7445C15.7369 16.3559 16.5389 15.6976 17.1032 14.8531C17.6675 14.0086 17.9687 13.0157 17.9687 12C17.9687 10.638 17.4277 9.33177 16.4646 8.36869C15.5015 7.4056 14.1953 6.86455 12.8333 6.86455ZM12.8333 15.3336C12.1739 15.3336 11.5294 15.1381 10.9812 14.7718C10.433 14.4055 10.0057 13.8849 9.75337 13.2757C9.50106 12.6666 9.43504 11.9963 9.56367 11.3496C9.6923 10.703 10.0098 10.109 10.476 9.64276C10.9422 9.17655 11.5362 8.85905 12.1829 8.73042C12.8296 8.60179 13.4998 8.66781 14.109 8.92012C14.7181 9.17244 15.2388 9.59972 15.6051 10.1479C15.9714 10.6961 16.1669 11.3407 16.1669 12C16.1669 12.8841 15.8157 13.7321 15.1905 14.3572C14.5653 14.9824 13.7174 15.3336 12.8333 15.3336ZM18.1714 5.46182C17.9341 5.46182 17.7021 5.5322 17.5048 5.66405C17.3074 5.79591 17.1536 5.98333 17.0628 6.2026C16.972 6.42187 16.9482 6.66315 16.9945 6.89593C17.0408 7.1287 17.1551 7.34252 17.3229 7.51035C17.4907 7.67817 17.7045 7.79246 17.9373 7.83876C18.1701 7.88506 18.4114 7.8613 18.6307 7.77047C18.8499 7.67965 19.0373 7.52584 19.1692 7.3285C19.3011 7.13116 19.3714 6.89916 19.3714 6.66182C19.3714 6.34356 19.245 6.03833 19.02 5.81329C18.7949 5.58825 18.4897 5.46182 18.1714 5.46182Z" fill="#C13584"/>
</svg>
