<svg width="25" height="24" viewBox="0 0 25 24" fill="none" xmlns="http://www.w3.org/2000/svg">
<g clip-path="url(#clip0_4390_22714)">
<path d="M13.4974 7.44243C13.2747 7.52821 13.2152 7.61729 13.2133 7.78932V17.1583C13.218 17.3388 13.3558 17.4892 13.532 17.5071C13.5395 17.5075 21.6622 17.5117 21.7147 17.5117C22.4976 17.5115 23.2483 17.2004 23.8018 16.6468C24.3554 16.0932 24.6665 15.3425 24.6667 14.5597C24.6666 14.0732 24.5463 13.5943 24.3164 13.1655C24.0866 12.7367 23.7543 12.3714 23.3492 12.102C22.9442 11.8325 22.4788 11.6673 21.9945 11.6211C21.5103 11.5748 21.022 11.6489 20.5733 11.8368C20.3389 9.17674 18.1078 7.08948 15.3864 7.08948C14.7208 7.08948 14.0715 7.22074 13.4983 7.44292M12.2857 8.10616L12.1521 14.7561L12.2857 17.17C12.2904 17.3463 12.4338 17.4916 12.611 17.4916C12.6967 17.4907 12.7787 17.4564 12.8394 17.3958C12.9001 17.3353 12.9347 17.2534 12.9358 17.1677V17.17L13.0811 14.7561L12.9358 8.10571C12.9311 7.92759 12.7877 7.78228 12.611 7.78228C12.525 7.78301 12.4428 7.81746 12.3819 7.87821C12.3211 7.93895 12.2866 8.02114 12.2857 8.10711M11.2981 8.65926L11.1837 14.7542C11.1837 14.7589 11.2981 17.2047 11.2981 17.2047C11.3 17.2847 11.3328 17.3607 11.3896 17.417C11.4464 17.4733 11.5228 17.5054 11.6027 17.5066C11.6829 17.5054 11.7595 17.4731 11.8163 17.4165C11.8732 17.3599 11.9059 17.2835 11.9074 17.2033L12.0358 14.7565L11.9074 8.65832C11.9057 8.57822 11.8731 8.50192 11.8162 8.44544C11.7594 8.38896 11.6829 8.35672 11.6027 8.35552C11.4378 8.35552 11.3013 8.49661 11.2981 8.65926ZM8.34509 9.29768L8.19415 14.7537L8.34554 17.2591C8.35023 17.3931 8.45567 17.4991 8.58832 17.4991C8.72097 17.4991 8.82738 17.3927 8.83207 17.2582V17.2568L9.00224 14.7537L8.83207 9.29768C8.82738 9.15706 8.72097 9.05581 8.58832 9.05581C8.52408 9.05594 8.46251 9.08142 8.41695 9.12671C8.3714 9.172 8.34558 9.23344 8.34509 9.29768ZM9.3214 9.43737L9.1827 14.7547L9.32192 17.2356C9.3266 17.3809 9.44097 17.4972 9.58581 17.4972C9.73064 17.4972 9.84502 17.3814 9.84924 17.2347V17.2361L10.0053 14.7547L9.84924 9.43737C9.84455 9.29019 9.72971 9.17488 9.58581 9.17488C9.44191 9.17488 9.32468 9.29066 9.3214 9.43737ZM7.37621 9.47485L7.21211 14.7537L7.37621 17.2741C7.37755 17.3325 7.4015 17.388 7.44304 17.429C7.48459 17.4701 7.54046 17.4933 7.59885 17.4939C7.65739 17.4933 7.71337 17.4699 7.75494 17.4287C7.79651 17.3875 7.82039 17.3317 7.82148 17.2731L8.00573 14.7537L7.82148 9.47439C7.8168 9.35065 7.71837 9.2541 7.59885 9.2541C7.54023 9.25471 7.48417 9.27815 7.44258 9.31948C7.401 9.3608 7.37718 9.41672 7.37621 9.47534M10.3058 9.63189L10.1792 14.7551L10.3058 17.2206C10.3105 17.3777 10.4342 17.5019 10.5903 17.5019C10.7464 17.5019 10.8706 17.3781 10.8738 17.2192V17.2211L11.0164 14.7556L10.8738 9.63234C10.8731 9.5574 10.843 9.48577 10.79 9.43283C10.7369 9.37988 10.6652 9.34984 10.5903 9.34923C10.4342 9.34923 10.3091 9.47346 10.3058 9.63189ZM6.41529 9.88079C6.41529 9.88125 6.23997 14.7528 6.23997 14.7528L6.41529 17.2994C6.41998 17.4109 6.50904 17.4991 6.61778 17.4991C6.67079 17.4981 6.72141 17.4768 6.75911 17.4395C6.79682 17.4023 6.81872 17.3519 6.82028 17.2989L7.01854 14.7528L6.82028 9.88079C6.81872 9.82779 6.79682 9.77744 6.75911 9.74017C6.72141 9.7029 6.67079 9.68158 6.61778 9.68064C6.50904 9.68064 6.42091 9.76876 6.41529 9.88079ZM5.46192 10.7873L5.27442 14.7528L5.46192 17.3149C5.46661 17.4152 5.54627 17.4939 5.6433 17.4939C5.74033 17.4939 5.81952 17.4152 5.82514 17.3144L6.03748 14.7518L5.82514 10.7864C5.81905 10.6861 5.73939 10.6064 5.6433 10.6064C5.54721 10.6064 5.46661 10.6861 5.46192 10.7864M3.57852 12.1237L3.36665 14.7509L3.57852 17.2924C3.58462 17.3711 3.64511 17.4302 3.71917 17.4302C3.79323 17.4302 3.85319 17.3711 3.85975 17.2924L4.09978 14.7509L3.85975 12.1227C3.85272 12.0445 3.79276 11.9849 3.71917 11.9849C3.64558 11.9849 3.58415 12.0449 3.57852 12.1237ZM2.64856 12.193C2.64856 12.1935 2.42449 14.7504 2.42449 14.7504L2.64856 17.2141C2.65559 17.283 2.70572 17.3322 2.769 17.3322C2.83228 17.3322 2.88155 17.283 2.88905 17.215L3.14355 14.7509L2.8895 12.1935C2.882 12.1256 2.83134 12.0763 2.769 12.0763C2.70666 12.0763 2.65512 12.1265 2.64856 12.1935M4.51645 12.3144L4.31727 14.7518L4.51645 17.3144C4.51765 17.3566 4.5351 17.3967 4.56514 17.4264C4.59517 17.4561 4.63546 17.473 4.67769 17.4738C4.763 17.4738 4.83237 17.4053 4.83893 17.3144L5.0658 14.7514L4.83893 12.313C4.8319 12.224 4.76393 12.1555 4.67769 12.1555C4.59144 12.1555 4.52207 12.223 4.51645 12.3144ZM1.72609 12.5961C1.72609 12.5966 1.48989 14.7509 1.48989 14.7509L1.72609 16.8588C1.73312 16.915 1.7753 16.9558 1.82639 16.9558C1.87748 16.9558 1.91781 16.9164 1.92578 16.8593L2.1939 14.7509L1.92578 12.5961C1.9164 12.5389 1.87609 12.4991 1.82593 12.4991C1.77578 12.4991 1.73265 12.5399 1.72609 12.5961ZM0.842065 13.4183L0.666748 14.7509L0.842065 16.061C0.849096 16.1163 0.888963 16.1548 0.938649 16.1548C0.988334 16.1548 1.02676 16.1163 1.03426 16.061L1.24236 14.7504L1.03426 13.4174C1.02723 13.3625 0.987397 13.3236 0.938649 13.3236C0.889901 13.3236 0.848627 13.362 0.842065 13.4174" fill="#FF7700"/>
</g>
<defs>
<clipPath id="clip0_4390_22714">
<rect width="24" height="24" fill="white" transform="translate(0.666748)"/>
</clipPath>
</defs>
</svg>
