<svg width="25" height="25" viewBox="0 0 25 25" fill="none" xmlns="http://www.w3.org/2000/svg">
<g clip-path="url(#clip0_4161_19298)">
<path d="M12.6074 2.27344C7.08453 2.27344 2.60718 6.75067 2.60718 12.2735C2.60718 17.7966 7.08453 22.2734 12.6074 22.2734C18.1308 22.2734 22.6077 17.7966 22.6077 12.2735C22.6077 6.75103 18.1308 2.27392 12.6072 2.27392L12.6074 2.27344ZM17.1934 16.6964C17.0143 16.9902 16.6297 17.0833 16.336 16.903C13.988 15.4688 11.0323 15.144 7.55132 15.9393C7.21588 16.0157 6.88152 15.8056 6.8051 15.47C6.72831 15.1344 6.93765 14.8001 7.27392 14.7237C11.0833 13.853 14.3508 14.2281 16.9868 15.839C17.2805 16.0193 17.3737 16.4026 17.1934 16.6964ZM18.4174 13.9731C18.1917 14.3403 17.7116 14.4562 17.345 14.2305C14.657 12.5779 10.5595 12.0994 7.38008 13.0645C6.96774 13.1891 6.53223 12.9567 6.40709 12.545C6.28289 12.1327 6.5154 11.698 6.92702 11.5726C10.5588 10.4707 15.0738 11.0045 18.1606 12.9014C18.5272 13.1271 18.6431 13.607 18.4174 13.9731ZM18.5225 11.1377C15.2994 9.2234 9.9819 9.04738 6.90469 9.98132C6.41055 10.1312 5.88799 9.85224 5.73824 9.3581C5.5885 8.86372 5.86721 8.34152 6.36171 8.19129C9.89413 7.11894 15.7664 7.32613 19.4771 9.52898C19.9225 9.79277 20.0682 10.3668 19.8043 10.8107C19.5416 11.2551 18.966 11.4016 18.5229 11.1377H18.5225Z" fill="#1DB954"/>
<path d="M12.6074 2.27344C7.08453 2.27344 2.60718 6.75067 2.60718 12.2735C2.60718 17.7966 7.08453 22.2734 12.6074 22.2734C18.1308 22.2734 22.6077 17.7966 22.6077 12.2735C22.6077 6.75103 18.1308 2.27392 12.6072 2.27392L12.6074 2.27344ZM17.1934 16.6964C17.0143 16.9902 16.6297 17.0833 16.336 16.903C13.988 15.4688 11.0323 15.144 7.55132 15.9393C7.21588 16.0157 6.88152 15.8056 6.8051 15.47C6.72831 15.1344 6.93765 14.8001 7.27392 14.7237C11.0833 13.853 14.3508 14.2281 16.9868 15.839C17.2805 16.0193 17.3737 16.4026 17.1934 16.6964ZM18.4174 13.9731C18.1917 14.3403 17.7116 14.4562 17.345 14.2305C14.657 12.5779 10.5595 12.0994 7.38008 13.0645C6.96774 13.1891 6.53223 12.9567 6.40709 12.545C6.28289 12.1327 6.5154 11.698 6.92702 11.5726C10.5588 10.4707 15.0738 11.0045 18.1606 12.9014C18.5272 13.1271 18.6431 13.607 18.4174 13.9731ZM18.5225 11.1377C15.2994 9.2234 9.9819 9.04738 6.90469 9.98132C6.41055 10.1312 5.88799 9.85224 5.73824 9.3581C5.5885 8.86372 5.86721 8.34152 6.36171 8.19129C9.89413 7.11894 15.7664 7.32613 19.4771 9.52898C19.9225 9.79277 20.0682 10.3668 19.8043 10.8107C19.5416 11.2551 18.966 11.4016 18.5229 11.1377H18.5225Z" fill="black" fill-opacity="0.1"/>
</g>
<defs>
<clipPath id="clip0_4161_19298">
<rect width="24" height="24" fill="white" transform="translate(0.607422 0.273438)"/>
</clipPath>
</defs>
</svg>
