<svg width="24" height="24" viewBox="0 0 24 24" fill="none" xmlns="http://www.w3.org/2000/svg">
<g clip-path="url(#clip0_4390_22790)">
<path d="M20.7173 10.2134C18.9377 10.2134 17.29 9.64796 15.9445 8.68698V15.6726C15.9445 19.1671 13.1102 22 9.61397 22C8.30947 22 7.09699 21.6058 6.08979 20.9298C4.39744 19.7941 3.2832 17.863 3.2832 15.6726C3.2832 12.1783 6.11756 9.34543 9.61406 9.3455C9.90463 9.34536 10.1948 9.36509 10.4827 9.40441V10.18L10.4825 12.904C10.2055 12.8161 9.91011 12.7684 9.60367 12.7684C8.00424 12.7684 6.7079 14.0643 6.7079 15.6627C6.7079 16.7928 7.35589 17.7714 8.30082 18.2481C8.69262 18.4456 9.13511 18.5569 9.6037 18.5569C11.1998 18.5569 12.494 17.2663 12.4995 15.6726V2H15.9444V2.44029C15.9566 2.57192 15.9741 2.70305 15.9969 2.83332C16.236 4.19637 17.0514 5.36094 18.1832 6.06685C18.9433 6.54103 19.8215 6.79171 20.7173 6.79035L20.7173 10.2134Z" fill="white" fill-opacity="0.9"/>
</g>
<defs>
<clipPath id="clip0_4390_22790">
<rect width="24" height="24" fill="white"/>
</clipPath>
</defs>
</svg>
