<svg width="345" height="176" viewBox="0 0 345 176" fill="none" xmlns="http://www.w3.org/2000/svg">
<path d="M0 8C0 3.58172 3.58172 0 8 0H337C341.418 0 345 3.58172 345 8V168C345 172.418 341.418 176 337 176H8C3.58172 176 0 172.418 0 168V8Z" fill="#1F1F1F" fill-opacity="0.88"/>
<path d="M304.422 24V23.052C304.422 22.468 304.522 21.988 304.722 21.612C304.922 21.236 305.206 20.932 305.574 20.7C305.95 20.46 306.402 20.26 306.93 20.1L307.662 19.872C307.99 19.768 308.27 19.64 308.502 19.488C308.742 19.336 308.926 19.148 309.054 18.924C309.182 18.692 309.246 18.424 309.246 18.12V18.072C309.246 17.6 309.086 17.232 308.766 16.968C308.446 16.696 308.026 16.56 307.506 16.56C306.97 16.56 306.534 16.704 306.198 16.992C305.87 17.28 305.706 17.704 305.706 18.264V18.456H304.458V18.276C304.458 17.668 304.59 17.156 304.854 16.74C305.118 16.316 305.482 15.992 305.946 15.768C306.41 15.544 306.93 15.432 307.506 15.432C308.082 15.432 308.594 15.54 309.042 15.756C309.498 15.972 309.854 16.276 310.11 16.668C310.374 17.06 310.506 17.52 310.506 18.048V18.156C310.506 18.7 310.398 19.152 310.182 19.512C309.966 19.872 309.666 20.168 309.282 20.4C308.906 20.632 308.47 20.828 307.974 20.988L307.266 21.204C306.89 21.316 306.586 21.44 306.354 21.576C306.13 21.704 305.962 21.86 305.85 22.044C305.746 22.228 305.694 22.464 305.694 22.752V22.872H310.434V24H304.422ZM314.762 24.168C314.146 24.168 313.598 24.056 313.118 23.832C312.638 23.608 312.262 23.284 311.99 22.86C311.726 22.436 311.594 21.932 311.594 21.348V21.132H312.854V21.324C312.854 21.852 313.026 22.272 313.37 22.584C313.722 22.888 314.186 23.04 314.762 23.04C315.338 23.04 315.786 22.896 316.106 22.608C316.426 22.32 316.586 21.956 316.586 21.516V21.408C316.586 21.096 316.51 20.844 316.358 20.652C316.206 20.46 316.002 20.32 315.746 20.232C315.49 20.136 315.202 20.088 314.882 20.088H313.358V18.636L316.31 16.896V16.728H311.798V15.6H317.678V17.304L314.858 18.984V19.152H315.374C315.798 19.152 316.198 19.232 316.574 19.392C316.95 19.552 317.254 19.796 317.486 20.124C317.726 20.452 317.846 20.868 317.846 21.372V21.516C317.846 22.052 317.718 22.52 317.462 22.92C317.206 23.312 316.846 23.62 316.382 23.844C315.918 24.06 315.378 24.168 314.762 24.168ZM319.388 24V15.6H321.824L323.66 23.136H323.852L325.688 15.6H328.124V24H326.864V16.512H326.672L324.848 24H322.664L320.84 16.512H320.648V24H319.388Z" fill="#C9C9C9"/>
<path d="M16.576 160V159.052C16.576 158.468 16.676 157.988 16.876 157.612C17.076 157.236 17.36 156.932 17.728 156.7C18.104 156.46 18.556 156.26 19.084 156.1L19.816 155.872C20.144 155.768 20.424 155.64 20.656 155.488C20.896 155.336 21.08 155.148 21.208 154.924C21.336 154.692 21.4 154.424 21.4 154.12V154.072C21.4 153.6 21.24 153.232 20.92 152.968C20.6 152.696 20.18 152.56 19.66 152.56C19.124 152.56 18.688 152.704 18.352 152.992C18.024 153.28 17.86 153.704 17.86 154.264V154.456H16.612V154.276C16.612 153.668 16.744 153.156 17.008 152.74C17.272 152.316 17.636 151.992 18.1 151.768C18.564 151.544 19.084 151.432 19.66 151.432C20.236 151.432 20.748 151.54 21.196 151.756C21.652 151.972 22.008 152.276 22.264 152.668C22.528 153.06 22.66 153.52 22.66 154.048V154.156C22.66 154.7 22.552 155.152 22.336 155.512C22.12 155.872 21.82 156.168 21.436 156.4C21.06 156.632 20.624 156.828 20.128 156.988L19.42 157.204C19.044 157.316 18.74 157.44 18.508 157.576C18.284 157.704 18.116 157.86 18.004 158.044C17.9 158.228 17.848 158.464 17.848 158.752V158.872H22.588V160H16.576ZM26.3759 160V152.488H26.1839L24.8039 155.32H23.4719L25.3319 151.6H27.6359V160H26.3759ZM30.2827 160.168C30.0027 160.168 29.7667 160.076 29.5747 159.892C29.3907 159.708 29.2987 159.472 29.2987 159.184C29.2987 158.896 29.3907 158.664 29.5747 158.488C29.7667 158.304 30.0027 158.212 30.2827 158.212C30.5627 158.212 30.7947 158.304 30.9787 158.488C31.1707 158.672 31.2667 158.904 31.2667 159.184C31.2667 159.472 31.1707 159.708 30.9787 159.892C30.7947 160.076 30.5627 160.168 30.2827 160.168ZM35.6871 160.168C35.0551 160.168 34.5071 160.052 34.0431 159.82C33.5791 159.588 33.2191 159.26 32.9631 158.836C32.7151 158.412 32.5911 157.92 32.5911 157.36V157.228H33.8751V157.348C33.8751 157.86 34.0311 158.272 34.3431 158.584C34.6631 158.888 35.1071 159.04 35.6751 159.04C36.2591 159.04 36.7111 158.88 37.0311 158.56C37.3511 158.24 37.5111 157.808 37.5111 157.264V157.156C37.5111 156.636 37.3511 156.22 37.0311 155.908C36.7191 155.596 36.3191 155.44 35.8311 155.44C35.5591 155.44 35.3311 155.484 35.1471 155.572C34.9711 155.652 34.8271 155.752 34.7151 155.872C34.6111 155.992 34.5231 156.108 34.4511 156.22H32.8551V151.6H38.4831V152.74H34.1151V155.212H34.3071C34.3871 155.076 34.4991 154.948 34.6431 154.828C34.7951 154.7 34.9911 154.596 35.2311 154.516C35.4711 154.436 35.7591 154.396 36.0951 154.396C36.5911 154.396 37.0391 154.504 37.4391 154.72C37.8471 154.928 38.1711 155.24 38.4111 155.656C38.6511 156.064 38.7711 156.56 38.7711 157.144V157.276C38.7711 157.86 38.6471 158.368 38.3991 158.8C38.1511 159.232 37.7951 159.568 37.3311 159.808C36.8751 160.048 36.3271 160.168 35.6871 160.168ZM40.2427 160V151.6H42.6787L44.5147 159.136H44.7067L46.5427 151.6H48.9787V160H47.7187V152.512H47.5267L45.7027 160H43.5187L41.6947 152.512H41.5027V160H40.2427Z" fill="#C9C9C9"/>
<path d="M17.3525 144.043L85 102L134 52.1117L183.5 72L222 52.1117H275L324.218 34.1719" stroke="#1DB954" stroke-width="3" stroke-linecap="round" stroke-linejoin="round"/>
</svg>
