<svg width="345" height="176" viewBox="0 0 345 176" fill="none" xmlns="http://www.w3.org/2000/svg">
<path d="M0 8C0 3.58172 3.58172 0 8 0H337C341.418 0 345 3.58172 345 8V168C345 172.418 341.418 176 337 176H8C3.58172 176 0 172.418 0 168V8Z" fill="#1F1F1F" fill-opacity="0.88"/>
<path d="M300.177 24V22.284H295.929V20.82L299.145 15.6H301.437V21.168H302.853V22.284H301.437V24H300.177ZM297.153 21.168H300.177V16.392H299.985L297.153 21V21.168ZM307.124 24.168C306.148 24.168 305.368 23.892 304.784 23.34C304.208 22.78 303.92 21.94 303.92 20.82V18.78C303.92 17.684 304.208 16.852 304.784 16.284C305.368 15.716 306.148 15.432 307.124 15.432C308.108 15.432 308.888 15.716 309.464 16.284C310.048 16.852 310.34 17.684 310.34 18.78V20.82C310.34 21.94 310.048 22.78 309.464 23.34C308.888 23.892 308.108 24.168 307.124 24.168ZM307.124 23.04C307.788 23.04 308.28 22.852 308.6 22.476C308.92 22.092 309.08 21.556 309.08 20.868V18.708C309.08 18.02 308.908 17.492 308.564 17.124C308.22 16.748 307.74 16.56 307.124 16.56C306.5 16.56 306.02 16.752 305.684 17.136C305.348 17.512 305.18 18.036 305.18 18.708V20.868C305.18 21.572 305.34 22.112 305.66 22.488C305.988 22.856 306.476 23.04 307.124 23.04ZM314.762 24.168C314.146 24.168 313.598 24.056 313.118 23.832C312.638 23.608 312.262 23.284 311.99 22.86C311.726 22.436 311.594 21.932 311.594 21.348V21.132H312.854V21.324C312.854 21.852 313.026 22.272 313.37 22.584C313.722 22.888 314.186 23.04 314.762 23.04C315.338 23.04 315.786 22.896 316.106 22.608C316.426 22.32 316.586 21.956 316.586 21.516V21.408C316.586 21.096 316.51 20.844 316.358 20.652C316.206 20.46 316.002 20.32 315.746 20.232C315.49 20.136 315.202 20.088 314.882 20.088H313.358V18.636L316.31 16.896V16.728H311.798V15.6H317.678V17.304L314.858 18.984V19.152H315.374C315.798 19.152 316.198 19.232 316.574 19.392C316.95 19.552 317.254 19.796 317.486 20.124C317.726 20.452 317.846 20.868 317.846 21.372V21.516C317.846 22.052 317.718 22.52 317.462 22.92C317.206 23.312 316.846 23.62 316.382 23.844C315.918 24.06 315.378 24.168 314.762 24.168ZM319.388 24V15.6H321.824L323.66 23.136H323.852L325.688 15.6H328.124V24H326.864V16.512H326.672L324.848 24H322.664L320.84 16.512H320.648V24H319.388Z" fill="#C9C9C9"/>
<path d="M19.624 160.168C18.992 160.168 18.444 160.052 17.98 159.82C17.516 159.588 17.156 159.26 16.9 158.836C16.652 158.412 16.528 157.92 16.528 157.36V157.228H17.812V157.348C17.812 157.86 17.968 158.272 18.28 158.584C18.6 158.888 19.044 159.04 19.612 159.04C20.196 159.04 20.648 158.88 20.968 158.56C21.288 158.24 21.448 157.808 21.448 157.264V157.156C21.448 156.636 21.288 156.22 20.968 155.908C20.656 155.596 20.256 155.44 19.768 155.44C19.496 155.44 19.268 155.484 19.084 155.572C18.908 155.652 18.764 155.752 18.652 155.872C18.548 155.992 18.46 156.108 18.388 156.22H16.792V151.6H22.42V152.74H18.052V155.212H18.244C18.324 155.076 18.436 154.948 18.58 154.828C18.732 154.7 18.928 154.596 19.168 154.516C19.408 154.436 19.696 154.396 20.032 154.396C20.528 154.396 20.976 154.504 21.376 154.72C21.784 154.928 22.108 155.24 22.348 155.656C22.588 156.064 22.708 156.56 22.708 157.144V157.276C22.708 157.86 22.584 158.368 22.336 158.8C22.088 159.232 21.732 159.568 21.268 159.808C20.812 160.048 20.264 160.168 19.624 160.168ZM27.1676 160.168C26.1916 160.168 25.4116 159.892 24.8276 159.34C24.2516 158.78 23.9636 157.94 23.9636 156.82V154.78C23.9636 153.684 24.2516 152.852 24.8276 152.284C25.4116 151.716 26.1916 151.432 27.1676 151.432C28.1516 151.432 28.9316 151.716 29.5076 152.284C30.0916 152.852 30.3836 153.684 30.3836 154.78V156.82C30.3836 157.94 30.0916 158.78 29.5076 159.34C28.9316 159.892 28.1516 160.168 27.1676 160.168ZM27.1676 159.04C27.8316 159.04 28.3236 158.852 28.6436 158.476C28.9636 158.092 29.1236 157.556 29.1236 156.868V154.708C29.1236 154.02 28.9516 153.492 28.6076 153.124C28.2636 152.748 27.7836 152.56 27.1676 152.56C26.5436 152.56 26.0636 152.752 25.7276 153.136C25.3916 153.512 25.2236 154.036 25.2236 154.708V156.868C25.2236 157.572 25.3836 158.112 25.7036 158.488C26.0316 158.856 26.5196 159.04 27.1676 159.04ZM32.034 160V151.6H34.47L36.306 159.136H36.498L38.334 151.6H40.77V160H39.51V152.512H39.318L37.494 160H35.31L33.486 152.512H33.294V160H32.034Z" fill="#C9C9C9"/>
<path d="M17.3525 144.043L69.5 70.5L156 82L193.5 52.1117L223 62L268.5 34.1719H324.218" stroke="#1DB954" stroke-width="3" stroke-linecap="round" stroke-linejoin="round"/>
</svg>
